<?xml version="1.0" encoding="utf-8"?>
<!-- Generator: Adobe Illustrator 15.1.0, SVG Export Plug-In . SVG Version: 6.00 Build 0)  -->
<!DOCTYPE svg PUBLIC "-//W3C//DTD SVG 1.1//EN" "http://www.w3.org/Graphics/SVG/1.1/DTD/svg11.dtd">
<svg version="1.1" id="Layer_1" xmlns="http://www.w3.org/2000/svg" xmlns:xlink="http://www.w3.org/1999/xlink" x="0px" y="0px"
	 width="878.582px" height="841.89px" viewBox="0 0 878.582 841.89" enable-background="new 0 0 878.582 841.89"
	 xml:space="preserve">
<path d="M81.741,478.841c2.661-4.988,7.562-5.27,12.313-5.842c9.005-1.084,17.998-2.31,27.026-3.163
	c6.504-0.615,13.056-0.723,19.587-1.058c3.511-0.18,7.027-0.291,10.528-0.587c0.915-0.077,1.781-0.728,2.669-1.114
	c-0.008-0.365-0.017-0.729-0.026-1.093c-1.599-0.382-3.188-1.043-4.798-1.099c-13.957-0.47-27.922-0.717-41.873-1.295
	c-4.042-0.168-8.113-0.933-12.049-1.911c-2.976-0.738-4.202-3.215-4.17-6.312c0.032-3.089,1.362-5.402,4.243-6.342
	c2.187-0.715,4.577-1.021,6.89-1.1c11.798-0.403,23.605-0.569,35.401-1.02c9.943-0.379,19.879-0.976,29.809-1.612
	c2.092-0.134,4.147-0.862,6.821-1.449c-5.753-2.082-10.96-3.759-15.992-5.857c-3.49-1.457-6.763-3.45-10.08-5.299
	c-1.009-0.562-1.882-1.393-2.748-2.178c-3.681-3.342-5.614-7.993-3.761-10.531c2.44-3.341,6.436-2.573,9.723-1.892
	c5.902,1.222,11.658,3.146,17.484,4.74c3.096,0.847,6.177,1.802,9.325,2.388c14.009,2.61,27.675,6.69,39.82,13.995
	c9.399,5.652,19.233,6.756,29.567,7.339c3.874,0.218,7.758,0.875,11.539,1.755c1.155,0.27,2.643,1.836,2.841,3.003
	c0.784,4.606,1.26,9.278,1.587,13.944c0.73,10.426,1.107,20.847-0.229,31.281c-0.304,2.381-1.172,2.978-3.266,2.848
	c-7.591-0.47-15.213-0.633-22.768-1.43c-5.246-0.554-9.989-0.27-14.464,2.891c-9.953,7.029-20.971,12.228-33.055,13.279
	c-14.334,1.248-27.352,6.877-41.045,10.175c-3.115,0.75-6.264,1.357-9.398,2.03H128.64c-1.661-0.951-3.627-1.583-3.67-4.051
	c-0.046-2.61,1.491-4.179,3.514-5.315c1.69-0.95,3.489-1.75,5.315-2.407c8.892-3.198,17.826-6.278,26.702-9.521
	c1.491-0.544,2.77-1.673,4.147-2.532c-0.145-0.366-0.289-0.733-0.433-1.1c-2.764,0.271-5.643,0.137-8.274,0.879
	c-14.613,4.126-29.52,6.373-44.638,7.268c-3.079,0.182-6.265-0.041-9.288-0.649c-4.156-0.835-5.57-4.07-3.996-8.035
	c1.448-3.647,4.713-4.396,8.016-4.998c10.061-1.832,20.15-3.514,30.192-5.442c5.772-1.108,11.473-2.582,17.207-3.892
	c-1.929-0.731-3.773-1.19-5.598-1.121c-10.613,0.401-21.22,0.959-31.832,1.399c-8.57,0.356-17.142,0.759-25.717,0.858
	c-3.347,0.039-6.579-0.943-8.546-4.137V478.841z M223.096,455.941c-0.664,1.916-1.267,3.856-2.011,5.741
	c-0.705,1.787,0.17,2.652,1.69,2.287c3.169-0.759,4.342,1.286,5.644,3.396c0.378,0.611,0.825,1.397,1.42,1.617
	c1.356,0.498,6.546-2.159,7.178-3.492c1.127-2.376-0.244-5.688-3.076-7.411c-1.077-0.656-2.364-1.106-3.207-1.984
	c-1.971-2.057-4.095-2.388-6.577-1.192c0.121-1.617,0.552-3.286,0.294-4.84c-0.445-2.671-2.611-3.432-4.755-1.833
	c-1.697,1.268-3.406,2.564-4.871,4.077c-0.631,0.651-0.986,1.938-0.842,2.834c0.091,0.561,1.347,1.321,2.079,1.319
	C218.407,456.455,220.752,456.138,223.096,455.941 M262.822,469.175c-0.189-2.823-0.549-5.936-0.558-9.05
	c-0.008-2.739-1.298-3.88-3.79-3.414c-3.417,0.64-6.5-0.384-9.717-1.195c-3.003-0.757-6.137-1.027-9.229-1.386
	c-1.857-0.215-2.564,0.63-2.345,2.624c0.551,5.023,1.074,10.062,1.271,15.108c0.283,7.237,1.335,7.815,8.204,5.411
	c3.973-1.393,8.261-2.115,12.467-2.543c3.626-0.367,3.732-0.062,3.697-3.799C262.818,470.444,262.822,469.956,262.822,469.175
	 M212.386,463.45c-0.986-1.525-1.837-3.009,0.097-4.751c0.497-0.448-0.199-2.538-0.76-3.668c-0.196-0.395-1.648-0.285-2.508-0.203
	c-1.729,0.164-3.439,0.634-5.166,0.684c-11.412,0.327-22.777,0.246-33.658-4.014c-2.04-0.798-7.955,2.778-8.484,4.978
	c-0.129,0.536-0.077,1.182,0.091,1.713c1.317,4.161,4.301,6.239,8.47,5.192c8.678-2.18,17.403-1.805,26.138-0.944
	c2.239,0.222,4.618,0.96,6.535,2.119C207.17,466.993,208.814,466.998,212.386,463.45 M209.963,466.677
	c-2.903,0.816-5.372,1.393-7.757,2.215c-2.374,0.818-4.593,2.143-7.001,2.796c-7.941,2.156-15.893,2.798-23.787-0.423
	c-1.126-0.459-2.492-0.411-3.751-0.447c-4.833-0.145-7.291,3.46-5.803,8.228c0.795,2.548,2.068,4.306,4.982,3.663
	c4.164-0.919,8.364-1.793,12.41-3.109c7.3-2.376,14.569-4.246,22.272-2.088c1.116,0.312,2.355,0.642,3.454,0.459
	c1.816-0.302,4.561,0.626,4.914-2.314C210.215,472.992,209.963,470.262,209.963,466.677 M210.902,489.264
	c0.113-0.895,0.454-2.12,0.25-2.219c-2.178-1.054-0.954-2.804-1.109-4.302c-0.108-1.05-0.733-2.915-1.15-2.922
	c-2.536-0.037-5.716-0.529-7.505,0.761c-6.571,4.738-13.809,6.407-21.67,6.598c-2.493,0.061-4.993,0.608-7.452,1.117
	c-2.271,0.469-3.807,2.104-3.493,4.343c0.303,2.16,1.334,4.495,4.228,4.294c2.281-0.158,4.652-0.373,6.777-1.137
	c5.117-1.839,10.076-4.115,15.169-6.027C200.038,487.859,205.254,487.021,210.902,489.264 M176.748,504.858
	c0.08,3.629,1.501,5.117,4.941,4.774c1.888-0.188,3.808-0.753,5.559-1.507c8.292-3.57,16.555-7.211,24.76-10.978
	c1.094-0.502,2.465-1.831,2.504-2.825c0.046-1.183-0.95-2.729-1.955-3.558c-1.843-1.52-6.287-0.981-8.391,0.351
	c-3.275,2.071-6.518,4.325-10.065,5.804c-4.743,1.979-9.767,3.277-14.662,4.892C177.93,502.31,176.37,502.825,176.748,504.858
	 M160.419,481.636c-0.369-2.757-1.089-4.784-0.793-6.649c0.577-3.642,0.293-4.187-3.41-3.614c-0.86,0.132-1.709,0.392-2.538,0.668
	c-6.982,2.327-14.03,3.026-21.281,1.255c-1.608-0.393-3.394-0.057-5.144-0.057v9.877c0.296,0.028,0.689,0.166,1.029,0.085
	c9.304-2.232,18.63-2.819,28.077-0.8C157.684,482.683,159.241,481.88,160.419,481.636 M185.67,443.464
	c1.826,0,3.553,0.099,5.266-0.019c5.553-0.383,10.461,0.649,13.896,5.601c0.874,1.259,2.138,2.266,3.296,3.308
	c1.853,1.666,3.558,1.727,5.184-0.448c0.612-0.819,1.539-1.504,2.463-1.97c2.27-1.141,2.758-2.938,1.348-4.763
	c-1.172-1.515-2.839-3.233-4.568-3.626c-6.397-1.455-12.632-3.211-18.422-6.372c-0.754-0.412-1.644-0.626-2.498-0.795
	c-2.524-0.499-4.809,0.881-5.306,3.344C185.97,439.5,185.903,441.336,185.67,443.464 M141.774,494.174
	c-0.584-0.043-1.188-0.203-1.746-0.104c-1.139,0.2-3.097,0.339-3.223,0.862c-0.44,1.831-0.482,3.862-0.117,5.706
	c0.087,0.442,2.368,0.76,3.58,0.619c8.396-0.977,16.782-2.051,25.151-3.229c0.74-0.104,1.861-1.142,1.913-1.813
	c0.177-2.291-0.133-4.615-0.089-6.923c0.04-2.13-0.92-2.617-2.727-1.928c-2.908,1.108-5.789,2.288-8.692,3.411
	C151.292,492.527,146.803,494.469,141.774,494.174 M262.406,482.936c-1.69,0-3.251,0.096-4.797-0.018
	c-3.689-0.271-7.408,0.257-10.684-2.645c-2.319-2.054-5.658,0.192-5.718,3.375c-0.029,1.537-0.265,3.07-0.414,4.605
	c-0.125,1.289-0.26,2.578-0.391,3.867c1.483,0.124,2.989,0.47,4.447,0.328c3.959-0.383,7.887-1.245,11.849-1.421
	c6.707-0.298,6.716-0.137,6.072-6.88C262.744,483.873,262.612,483.609,262.406,482.936 M211.435,479.096
	c0.094,0.04,0.202,0.132,0.27,0.109c4.643-1.58,8.884-4.463,14.056-4.336c0.065,0.001,0.127-0.141,0.199-0.205
	c2.101-1.898,2.193-4.217,0.658-7.174c-1.424-2.742-3.433-2.327-5.676-1.478c-0.504,0.191-1.031,0.319-0.75,0.234
	c-0.592-2.318-1.046-4.435-1.684-6.493c-0.668-2.157-2.559-2.605-4.187-1.101c-2.31,2.134-1.084,7.851,1.982,8.833
	c-2.006,0.605-4.687,0.264-4.839,3.271C211.327,473.452,211.435,476.159,211.435,479.096 M136.241,452.561
	c-0.697,0-1.291-0.067-1.864,0.013c-2.163,0.305-4.662,3.284-4.278,5.198c0.632,3.154,2.866,1.904,4.836,1.795
	c4.06-0.228,8.156-0.506,12.194-0.199c3.261,0.247,6.457,1.333,9.686,2.021c3.1,0.661,4.017-0.357,3.174-3.338
	c-0.189-0.666,0.062-1.457,0.115-2.189c0.07-0.983,0.561-2.448,0.116-2.833c-0.632-0.546-1.964-0.446-2.975-0.363
	c-3.569,0.293-7.13,0.987-10.692,0.976C143.076,453.629,139.602,452.939,136.241,452.561 M101.639,483.573
	c0.796,0.259,1.063,0.394,1.34,0.423c0.386,0.041,0.81,0.098,1.166-0.016c6.277-2.003,12.656-2.927,19.276-2.377
	c0.844,0.07,2.356-1.426,2.658-2.46c1.156-3.951-2.187-6.854-6.389-5.159c-5.103,2.06-10.17,2.418-15.48,1.647
	c-0.754-0.11-1.57,0.211-2.946,0.424C104.299,478.675,103.666,481.047,101.639,483.573 M161.651,434.061
	c1.325,0.294,2.412,0.74,3.501,0.742c4.799,0.01,9.492,0.163,13.523,3.395c0.798,0.64,2.199,0.71,3.32,0.705
	c0.766-0.004,1.831-0.381,2.237-0.958c1.257-1.791,2.263-3.759,3.39-5.697c-0.441-0.288-0.757-0.67-1.084-0.68
	c-6.874-0.213-13.499-1.504-19.908-4.077c-0.743-0.298-2.489,0.551-3.015,1.358C162.695,430.263,162.361,432.059,161.651,434.061
	 M174.72,502.732c-1.071,0.531-1.817,0.773-2.411,1.218c-4.353,3.255-9.18,5.44-14.464,6.69c-1.119,0.265-2.28,0.68-3.214,1.325
	c-1.835,1.27-2.501,3.242-1.208,5.046c0.436,0.608,2.65,0.548,3.666,0.034c5.338-2.702,10.819-4.754,16.819-5.442
	c0.903-0.103,2.35-1.691,2.313-2.539C176.131,507.021,175.311,505.009,174.72,502.732 M225.29,480.053
	c-0.017-3.214-1.849-3.969-3.983-3.34c-2.541,0.749-4.809,2.391-7.329,3.261c-2.995,1.035-2.759,3.109-2.183,5.38
	c0.259,1.022,0.744,2.002,1.229,2.948c2.102,4.1,4.949,4.263,7.446,0.463c0.319-0.485,0.754-0.903,1.024-1.412
	C222.78,484.931,224.028,482.488,225.29,480.053 M134.711,495.455c-5.912,0.797-11.081,1.598-16.276,2.159
	c-3.888,0.42-3.916,0.474-3.194,4.18c0.567,2.906,2.493,2.357,4.215,1.89c4.419-1.199,8.736-2.733,13.476-1.717
	c0.614,0.132,2.135-1.183,2.219-1.939C135.333,498.381,134.858,496.663,134.711,495.455 M145.177,422.729
	c0.786,1.282,1.026,2.159,1.595,2.523c3.681,2.358,7.296,4.891,11.221,6.764c1.962,0.938,3.253-1.089,3.946-2.933
	c0.663-1.764,0.634-3.371-1.532-3.962c-3.851-1.052-7.719-2.053-11.618-2.906C147.86,422.012,146.784,422.478,145.177,422.729
	 M129.183,453.131c-4.985,0-9.494-0.048-14,0.033c-1.132,0.021-2.735,0.098-3.259,0.797c-0.604,0.803-0.695,2.601-0.17,3.447
	c0.416,0.67,2.167,0.921,3.203,0.723c3.553-0.679,6.925-0.639,10.201,1.12c0.868,0.466,1.947,0.539,3.208,0.865
	C128.666,457.552,128.921,455.378,129.183,453.131 M100.867,483.417c0.13-0.348,0.742-1.318,0.802-2.321
	c0.076-1.24,0.088-2.845-0.61-3.662c-0.616-0.722-2.605-1.173-3.363-0.714c-2.94,1.781-6.09,2.186-9.376,2.583
	c-0.985,0.119-1.787,1.748-2.673,2.687c1.049,0.656,2.034,1.485,3.17,1.909c0.751,0.281,1.719-0.021,2.59-0.061
	C94.434,483.703,97.461,483.568,100.867,483.417 M109.903,456.038c-0.084-3.219-0.423-3.46-3.469-3.052
	c-3.451,0.462-6.923,0.775-10.364,1.298c-0.691,0.104-1.737,0.792-1.806,1.316c-0.082,0.62,0.575,1.741,1.169,1.966
	c1.503,0.568,3.137,0.939,4.742,1.054c2.297,0.163,4.623-0.094,6.923,0.053C109.264,458.812,110.251,458.076,109.903,456.038
	 M139.046,518.072c0.815,1.537,1.345,3.188,1.726,3.153c3.162-0.28,6.485-0.416,9.345-1.598c1.13-0.467,1.21-3.474,1.768-5.325
	c-1.321-0.152-2.676-0.566-3.955-0.397c-1.911,0.252-3.854,0.715-5.618,1.473C141.128,515.887,140.23,517.061,139.046,518.072
	 M236.919,474.193c0.071-4.223-1.046-4.708-4.506-3.185c-4.719,2.078-5.57,5.385-2.22,9.295c0.463,0.541,2.368,0.767,2.612,0.425
	C234.507,478.354,235.947,475.791,236.919,474.193 M227.801,479.236c-1.785,3.385-3.407,6.312-4.868,9.316
	c-0.47,0.966-0.742,2.163-0.626,3.201c0.037,0.332,1.726,0.864,2.462,0.645c1.143-0.342,2.519-1.012,3.08-1.965
	c1.146-1.946,1.815-4.175,2.951-6.946C230.201,482.637,229.056,481.015,227.801,479.236 M100.653,505.126
	c1.022,0.166,2.013,0.484,2.994,0.455c2.684-0.081,5.371-0.235,8.041-0.518c0.951-0.1,2.64-0.646,2.642-0.994
	c0.004-1.385-0.342-2.864-0.975-4.094c-0.171-0.332-1.833,0-2.777,0.195c-1.731,0.358-3.483,1.324-5.144,1.167
	C102.163,501.029,101.702,501.126,100.653,505.126 M138.161,518.17c-2.826,0.473-5.387,0.891-7.943,1.343
	c-0.37,0.065-0.848,0.196-1.039,0.465c-0.529,0.743-0.933,1.575-1.387,2.372c0.826,0.271,1.65,0.756,2.478,0.764
	c1.538,0.012,3.075-0.284,4.617-0.399C138.168,522.471,138.963,521.309,138.161,518.17"/>
<rect x="316" y="680.556" fill="none" stroke="#231F20" stroke-width="1.5" stroke-linecap="round" stroke-linejoin="round" stroke-miterlimit="22.926" width="18.333" height="15"/>
<path fill="#FFFFFF" d="M260.333,491.573v30.689h22.68c7.83,0,14.17-6.35,14.17-14.17v-65.89c0-7.83-6.34-14.18-14.17-14.18h-22.68
	v26.699"/>
<path fill="none" stroke="#000000" stroke-width="1.5" stroke-linecap="round" stroke-linejoin="round" stroke-miterlimit="22.926" d="
	M260.333,491.573v30.689h22.68c7.83,0,14.17-6.35,14.17-14.17v-65.89c0-7.83-6.34-14.18-14.17-14.18h-22.68v26.699"/>
<path fill="none" stroke="#010101" stroke-width="1.5" stroke-linecap="round" stroke-linejoin="round" stroke-miterlimit="22.926" d="
	M270.258,508.091h1.138c0.747,1.291,1.823,2.367,3.114,3.114v1.138h4.252h4.252v-1.138c1.291-0.747,2.367-1.823,3.114-3.114h1.138
	v-4.252v-4.252h-1.138c-0.747-1.291-1.823-2.367-3.114-3.114v-1.138h-4.252h-4.252v1.138c-1.291,0.747-2.367,1.823-3.114,3.114
	h-1.138v4.252V508.091z"/>
<rect x="274.51" y="466.988" fill="none" stroke="#010101" stroke-width="1.5" stroke-linecap="round" stroke-linejoin="round" stroke-miterlimit="22.926" width="8.504" height="17.009"/>
<path fill="none" stroke="#010101" stroke-width="1.5" stroke-linecap="round" stroke-linejoin="round" stroke-miterlimit="22.926" d="
	M270.258,451.398h1.138c0.747,1.291,1.823,2.366,3.114,3.113v1.139h4.252h4.252v-1.139c1.291-0.747,2.367-1.822,3.114-3.113h1.138
	v-4.252v-4.253h-1.138c-0.747-1.29-1.823-2.366-3.114-3.113v-1.139h-4.252h-4.252v1.139c-1.291,0.747-2.367,1.823-3.114,3.113
	h-1.138v4.253V451.398z"/>
<line fill="none" stroke="#000000" stroke-width="1.5" stroke-linecap="round" stroke-linejoin="round" stroke-miterlimit="22.926" x1="260.333" y1="491.573" x2="260.333" y2="453.987"/>
<path fill="none" stroke="#010101" stroke-width="1.5" stroke-linecap="round" stroke-linejoin="round" stroke-miterlimit="22.926" d="
	M609.158,505.091h-1.139c-0.747,1.291-1.823,2.367-3.114,3.114v1.138h-4.252h-4.252v-1.138c-1.291-0.747-2.366-1.823-3.113-3.114
	h-1.139v-4.252v-4.252h1.139c0.747-1.291,1.822-2.367,3.113-3.114v-1.138h4.252h4.252v1.138c1.291,0.747,2.367,1.823,3.114,3.114
	h1.139v4.252V505.091z"/>
<rect x="596.402" y="463.988" fill="none" stroke="#010101" stroke-width="1.5" stroke-linecap="round" stroke-linejoin="round" stroke-miterlimit="22.926" width="8.504" height="17.009"/>
<path fill="none" stroke="#010101" stroke-width="1.5" stroke-linecap="round" stroke-linejoin="round" stroke-miterlimit="22.926" d="
	M609.158,448.398h-1.139c-0.747,1.291-1.823,2.366-3.114,3.113v1.139h-4.252h-4.252v-1.139c-1.291-0.747-2.366-1.822-3.113-3.113
	h-1.139v-4.252v-4.253h1.139c0.747-1.29,1.822-2.366,3.113-3.113v-1.139h4.252h4.252v1.139c1.291,0.747,2.367,1.823,3.114,3.113
	h1.139v4.253V448.398z"/>
<path fill="none" stroke="#000000" stroke-width="1.5" stroke-linecap="round" stroke-linejoin="round" stroke-miterlimit="22.926" d="
	M653.184,488.573h-34.101v30.689h-22.68c-7.83,0-14.17-6.35-14.17-14.17v-65.89c0-7.83,6.34-14.18,14.17-14.18h22.68v26.699h34.101"
	/>
<path fill="none" stroke="#010101" stroke-width="1.5" stroke-linecap="round" stroke-linejoin="round" stroke-miterlimit="22.926" d="
	M361.569,331.841h1.138c0.747-1.291,1.823-2.367,3.114-3.114v-1.138h4.252h4.252v1.138c1.291,0.747,2.367,1.823,3.114,3.114h1.138
	v4.252v4.252h-1.138c-0.747,1.291-1.823,2.367-3.114,3.114v1.138h-4.252h-4.252v-1.138c-1.291-0.747-2.367-1.823-3.114-3.114h-1.138
	v-4.252V331.841z"/>
<rect x="389.916" y="331.842" fill="none" stroke="#010101" stroke-width="1.5" stroke-linecap="round" stroke-linejoin="round" stroke-miterlimit="22.926" width="17.008" height="8.504"/>
<rect x="446.609" y="331.842" fill="none" stroke="#010101" stroke-width="1.5" stroke-linecap="round" stroke-linejoin="round" stroke-miterlimit="22.926" width="17.008" height="8.504"/>
<path fill="none" stroke="#010101" stroke-width="1.5" stroke-linecap="round" stroke-linejoin="round" stroke-miterlimit="22.926" d="
	M474.955,331.841h1.139c0.746-1.291,1.822-2.367,3.113-3.114v-1.138h4.252h4.252v1.138c1.29,0.747,2.367,1.823,3.114,3.114h1.138
	v4.252v4.252h-1.138c-0.747,1.291-1.824,2.367-3.114,3.114v1.138h-4.252h-4.252v-1.138c-1.291-0.747-2.367-1.823-3.113-3.114h-1.139
	v-4.252V331.841z"/>
<path fill="none" stroke="#010101" stroke-width="1.5" stroke-linecap="round" stroke-linejoin="round" stroke-miterlimit="22.926" d="
	M445.191,301.695v15.973h56.693v22.677c0,7.826-6.348,14.173-14.173,14.173H365.821c-7.826,0-14.173-6.347-14.173-14.173v-22.677
	h56.693v-15.973"/>
<path fill="none" stroke="#010101" stroke-width="1.5" stroke-linecap="round" stroke-linejoin="round" stroke-miterlimit="22.926" d="
	M418.262,331.841h1.138c0.747-1.291,1.823-2.367,3.114-3.114v-1.138h4.252h4.252v1.138c1.291,0.747,2.367,1.823,3.114,3.114h1.138
	v4.252v4.252h-1.138c-0.747,1.291-1.823,2.367-3.114,3.114v1.138h-4.252h-4.252v-1.138c-1.291-0.747-2.367-1.823-3.114-3.114h-1.138
	v-4.252V331.841z"/>
<path fill="none" stroke="#010101" stroke-width="1.5" stroke-linecap="round" stroke-linejoin="round" stroke-miterlimit="22.926" d="
	M462.036,262.379c-2.56,1.74-1.88,7.83-1.87,10.46c-0.01-3.43-2.939-8.14-5.649-5.06c-2.17,2.48-1.69,8.37-1.141,11.37
	c-0.09-0.25-0.17-0.5-0.25-0.76c-0.779-2.53-1.329-5.55-3.26-7.49c-2.569-2.58-6.3-0.1-7.979,2.34c-0.73,1.04-1.021,2.16-1.301,3.37
	c-0.289,1.24-0.47,2.71-0.42,4.13c-0.319-1.55-0.7-3-1.32-4.35c-1.2-2.61-4.01-3.43-6.68-3.31c-1.59,0.07-3.09,0.73-4.24,1.81
	c-1.11,1.05-1.86,2.37-2.28,3.83c-0.15,0.54-0.23,1.06-0.26,1.58c-0.04-0.57-0.11-1.11-0.25-1.58c-0.41-1.46-1.17-2.78-2.27-3.83
	c-1.15-1.08-2.66-1.74-4.24-1.81c-2.67-0.12-5.49,0.7-6.69,3.31c-0.62,1.35-1,2.8-1.32,4.35c0.05-1.43-0.13-2.89-0.42-4.13
	c-0.28-1.21-0.57-2.33-1.29-3.37c-1.69-2.44-5.41-4.92-7.98-2.34c-1.94,1.94-2.49,4.96-3.26,7.49c-0.08,0.26-0.16,0.51-0.25,0.76
	c0.55-3,1.03-8.89-1.15-11.37c-2.63-2.98-5.45,1.34-5.64,4.73c0.06-2.79,0.58-8.46-1.88-10.13c-3.24-2.2-4.85,1.36-4.38,4.15
	c1.74,2.28,4.33,4.54,5.95,6.22c3.01,3.11,5.82,6.71,9.79,8.54c3.78,1.75,8.41,2.72,12.56,3.11c0,0,7.82,0.55,13.64,1.09
	c5.82-0.54,11.64-1.09,11.64-1.09c4.15-0.39,8.78-1.36,12.57-3.11c3.96-1.83,6.77-5.43,9.78-8.54c1.699-1.75,4.43-4.13,6.17-6.5
	C466.776,263.5,465.177,260.25,462.036,262.379z M410.066,283.75c0.19-1.04,0.36-2.03,0.55-2.99
	C410.576,281.819,410.417,282.85,410.066,283.75z M440.166,280.759c0.2,0.96,0.37,1.95,0.551,2.99
	C440.366,282.85,440.206,281.819,440.166,280.759z"/>
<path d="M410.066,283.75c0.19-1.04,0.36-2.03,0.55-2.99C410.576,281.819,410.417,282.85,410.066,283.75"/>
<path fill="none" stroke="#010101" stroke-width="1.5" stroke-linecap="round" stroke-linejoin="round" stroke-miterlimit="22.926" d="
	M410.066,283.75c0.19-1.04,0.36-2.03,0.55-2.99C410.576,281.819,410.417,282.85,410.066,283.75z"/>
<path d="M440.166,280.759c0.2,0.96,0.37,1.95,0.551,2.99C440.366,282.85,440.206,281.819,440.166,280.759"/>
<path fill="none" stroke="#010101" stroke-width="1.5" stroke-linecap="round" stroke-linejoin="round" stroke-miterlimit="22.926" d="
	M440.166,280.759c0.2,0.96,0.37,1.95,0.551,2.99C440.366,282.85,440.206,281.819,440.166,280.759z"/>
<path d="M467.836,263.839c-0.279,0.78-0.77,1.6-1.37,2.41c0.311-2.75-1.289-6-4.43-3.87c-2.56,1.74-1.88,7.83-1.87,10.46
	c-0.01-3.43-2.939-8.14-5.649-5.06c-2.17,2.48-1.69,8.37-1.141,11.37c-0.09-0.25-0.17-0.5-0.25-0.76
	c-0.779-2.53-1.33-5.55-3.26-7.49c-2.57-2.58-6.3-0.1-7.979,2.34c-0.73,1.04-1.021,2.16-1.301,3.37c-0.29,1.24-0.47,2.71-0.42,4.13
	c-0.319-1.55-0.7-3-1.32-4.35c-1.2-2.61-4.01-3.43-6.68-3.31c-1.59,0.07-3.09,0.73-4.24,1.81c-1.11,1.05-1.86,2.37-2.28,3.83
	c-0.15,0.54-0.23,1.06-0.26,1.58c-0.04-0.57-0.11-1.11-0.25-1.58c-0.41-1.46-1.17-2.78-2.27-3.83c-1.15-1.08-2.66-1.74-4.24-1.81
	c-2.67-0.12-5.49,0.7-6.69,3.31c-0.62,1.35-1,2.8-1.32,4.35c0.05-1.43-0.13-2.89-0.42-4.13c-0.28-1.21-0.57-2.33-1.29-3.37
	c-1.69-2.44-5.41-4.92-7.98-2.34c-1.94,1.94-2.49,4.96-3.26,7.49c-0.08,0.26-0.16,0.51-0.25,0.76c0.55-3,1.03-8.89-1.15-11.37
	c-2.63-2.98-5.45,1.34-5.64,4.73c0.06-2.79,0.58-8.46-1.88-10.13c-3.24-2.2-4.85,1.36-4.38,4.15c-0.71-0.91-1.27-1.82-1.58-2.69
	c-1.19-3.32-0.32-7.08-0.59-10.51c-0.45-5.9-1.17-12.91-1.25-18.81l88.72-2.75c-0.08,5.89-0.8,15.66-1.25,21.56
	C468.156,256.759,469.017,260.52,467.836,263.839"/>
<path fill="none" stroke="#010101" stroke-width="1.5" stroke-linecap="round" stroke-linejoin="round" stroke-miterlimit="22.926" d="
	M467.836,263.839c-0.279,0.78-0.77,1.6-1.37,2.41c0.311-2.75-1.289-6-4.43-3.87c-2.56,1.74-1.88,7.83-1.87,10.46
	c-0.01-3.43-2.939-8.14-5.649-5.06c-2.17,2.48-1.69,8.37-1.141,11.37c-0.09-0.25-0.17-0.5-0.25-0.76
	c-0.779-2.53-1.33-5.55-3.26-7.49c-2.57-2.58-6.3-0.1-7.979,2.34c-0.73,1.04-1.021,2.16-1.301,3.37c-0.29,1.24-0.47,2.71-0.42,4.13
	c-0.319-1.55-0.7-3-1.32-4.35c-1.2-2.61-4.01-3.43-6.68-3.31c-1.59,0.07-3.09,0.73-4.24,1.81c-1.11,1.05-1.86,2.37-2.28,3.83
	c-0.15,0.54-0.23,1.06-0.26,1.58c-0.04-0.57-0.11-1.11-0.25-1.58c-0.41-1.46-1.17-2.78-2.27-3.83c-1.15-1.08-2.66-1.74-4.24-1.81
	c-2.67-0.12-5.49,0.7-6.69,3.31c-0.62,1.35-1,2.8-1.32,4.35c0.05-1.43-0.13-2.89-0.42-4.13c-0.28-1.21-0.57-2.33-1.29-3.37
	c-1.69-2.44-5.41-4.92-7.98-2.34c-1.94,1.94-2.49,4.96-3.26,7.49c-0.08,0.26-0.16,0.51-0.25,0.76c0.55-3,1.03-8.89-1.15-11.37
	c-2.63-2.98-5.45,1.34-5.64,4.73c0.06-2.79,0.58-8.46-1.88-10.13c-3.24-2.2-4.85,1.36-4.38,4.15c-0.71-0.91-1.27-1.82-1.58-2.69
	c-1.19-3.32-0.32-7.08-0.59-10.51c-0.45-5.9-1.17-12.91-1.25-18.81l88.72-2.75c-0.08,5.89-0.8,15.66-1.25,21.56
	C468.156,256.759,469.017,260.52,467.836,263.839z"/>
<path fill="#FFFFFF" d="M384.667,240.89c-0.571,3.364-1.314,12.039,4.176,12.002c3.84-0.026,3.815-3.987,4.156-6.848
	c0.006,4.659-0.617,10.02,5.106,11.556c7.457,2.003,6.331-3.173,7.84-7.315c0.202,4.772,1.335,11.747,7.389,12.286
	c2.625,0.234,5.717-0.598,6.72-3.315c0.789-2.134,0.876-4.841,0.857-7.099c0.568,2.585,0.08,6.083,1.861,8.272
	c1.3,1.597,4.346,3.058,6.392,2.799c4.797-0.607,6.424-6.45,7.095-11.449c-0.671,4.999,2.37,12.111,7.667,11.377
	c7.51-1.041,5.991-8.447,7.49-13.82c0.206,2.509,1.058,10.274,5.234,9.591c5.293-0.865,3.151-9.759,4.443-12.924
	c0.374,2.25,1.839,10.988,5.174,6.785c2.163-2.726,0.817-10.537,1.141-14.023"/>
<path fill="none" stroke="#010101" stroke-width="1.5" stroke-linecap="round" stroke-linejoin="round" stroke-miterlimit="22.926" d="
	M384.667,240.89c-0.571,3.364-1.314,12.039,4.176,12.002c3.84-0.026,3.815-3.987,4.156-6.848c0.006,4.659-0.617,10.02,5.106,11.556
	c7.457,2.003,6.331-3.173,7.84-7.315c0.202,4.772,1.335,11.747,7.389,12.286c2.625,0.234,5.717-0.598,6.72-3.315
	c0.789-2.134,0.876-4.841,0.857-7.099c0.568,2.585,0.08,6.083,1.861,8.272c1.3,1.597,4.346,3.058,6.392,2.799
	c4.797-0.607,6.424-6.45,7.095-11.449c-0.671,4.999,2.37,12.111,7.667,11.377c7.51-1.041,5.991-8.447,7.49-13.82
	c0.206,2.509,1.058,10.274,5.234,9.591c5.293-0.865,3.151-9.759,4.443-12.924c0.374,2.25,1.839,10.988,5.174,6.785
	c2.163-2.726,0.817-10.537,1.141-14.023"/>
<path fill="#FFFFFF" d="M508.836,171.79c-0.17,0.75-0.34,1.51-0.529,2.25c-1.551,6.38-3.891,12.93-8.83,17.26
	c-1.71,1.51-3.71,2.72-5.13,4.5c-4.881,6.11-1.12,16.1-5.87,22.3c-4.28,5.6-13.5,5.46-17.561,11.21
	c-2.06,2.91-2.319,6.72-3.899,9.91c-3.04,6.14-10.261,8.86-16.96,10.33c-17.8,3.91-36.66,2.9-53.94-2.89
	c-5.31-1.78-10.82-4.29-13.69-9.1c-0.57-0.96-1.02-1.98-1.48-3c-0.6-1.32-1.21-2.63-2.13-3.76c-4.21-5.19-13.69-5.25-15.77-11.61
	c-1.25-3.8,1.01-8.06-0.12-11.9c-1.01-3.42-4.34-5.45-7.2-7.66c-0.19-0.14-0.37-0.28-0.55-0.43c-9.09-7.26-12.6-19.52-13.37-31.13
	c-1.98-29.68,12.46-60.83,38.42-75.37c15.34-8.59,33.43-11.1,51.01-10.72c14.97,0.33,30.1,3.08,43.78,9.3
	c13.06,5.94,25.54,15.12,31.79,28.41C514.156,135.35,512.526,155.43,508.836,171.79"/>
<path fill="none" stroke="#010101" stroke-width="1.5" stroke-linecap="round" stroke-linejoin="round" stroke-miterlimit="22.926" d="
	M508.836,171.79c-0.17,0.75-0.34,1.51-0.529,2.25c-1.551,6.38-3.891,12.93-8.83,17.26c-1.71,1.51-3.71,2.72-5.13,4.5
	c-4.881,6.11-1.12,16.1-5.87,22.3c-4.28,5.6-13.5,5.46-17.561,11.21c-2.06,2.91-2.319,6.72-3.899,9.91
	c-3.04,6.14-10.261,8.86-16.96,10.33c-17.8,3.91-36.66,2.9-53.94-2.89c-5.31-1.78-10.82-4.29-13.69-9.1c-0.57-0.96-1.02-1.98-1.48-3
	c-0.6-1.32-1.21-2.63-2.13-3.76c-4.21-5.19-13.69-5.25-15.77-11.61c-1.25-3.8,1.01-8.06-0.12-11.9c-1.01-3.42-4.34-5.45-7.2-7.66
	c-0.19-0.14-0.37-0.28-0.55-0.43c-9.09-7.26-12.6-19.52-13.37-31.13c-1.98-29.68,12.46-60.83,38.42-75.37
	c15.34-8.59,33.43-11.1,51.01-10.72c14.97,0.33,30.1,3.08,43.78,9.3c13.06,5.94,25.54,15.12,31.79,28.41
	C514.156,135.35,512.526,155.43,508.836,171.79z"/>
<path fill="none" stroke="#010101" stroke-width="1.5" stroke-linecap="round" stroke-linejoin="round" stroke-miterlimit="22.926" d="
	M383.482,90.969c0.804-0.354,1.617-0.687,2.438-0.998"/>
<path fill="none" stroke="#010101" stroke-width="1.5" stroke-linecap="round" stroke-linejoin="round" stroke-miterlimit="22.926" d="
	M384.39,240.507c0.035,0.039,0.07,0.078,0.106,0.116"/>
<path fill="#FFFFFF" d="M424.457,242.636c0.372-0.514,0.472-1.217,0.588-2.256c0.616-5.499-0.896-11.545-0.768-17.126
	c-3.821,5.722-6.936,13.017-6.589,19.985c0.021,0.419,4.453,0.554,4.92,0.427C423.577,243.403,424.125,243.095,424.457,242.636"/>
<path fill="none" stroke="#010101" stroke-width="1.5" stroke-linecap="round" stroke-linejoin="round" stroke-miterlimit="22.926" d="
	M424.457,242.636c0.372-0.514,0.472-1.217,0.588-2.256c0.616-5.499-0.896-11.545-0.768-17.126
	c-3.821,5.722-6.936,13.017-6.589,19.985c0.021,0.419,4.453,0.554,4.92,0.427C423.577,243.403,424.125,243.095,424.457,242.636z"/>
<path fill="#FFFFFF" d="M430.169,242.636c-0.372-0.514-0.472-1.217-0.588-2.256c-0.616-5.499,0.896-11.545,0.768-17.126
	c3.821,5.722,6.936,13.017,6.589,19.985c-0.021,0.419-4.453,0.554-4.92,0.427C431.049,243.403,430.501,243.095,430.169,242.636"/>
<path fill="none" stroke="#010101" stroke-width="1.5" stroke-linecap="round" stroke-linejoin="round" stroke-miterlimit="22.926" d="
	M430.169,242.636c-0.372-0.514-0.472-1.217-0.588-2.256c-0.616-5.499,0.896-11.545,0.768-17.126
	c3.821,5.722,6.936,13.017,6.589,19.985c-0.021,0.419-4.453,0.554-4.92,0.427C431.049,243.403,430.501,243.095,430.169,242.636z"/>
<g>
	<defs>
		<rect id="SVGID_1_" x="368.852" y="189.09" width="56.609" height="38.093"/>
	</defs>
	<clipPath id="SVGID_2_">
		<use xlink:href="#SVGID_1_"  overflow="visible"/>
	</clipPath>
	
		<path clip-path="url(#SVGID_2_)" fill="none" stroke="#010101" stroke-width="1.4063" stroke-linecap="round" stroke-linejoin="round" stroke-miterlimit="22.926" d="
		M403.532,200.626c6.998,2.042,14.064,5.036,21.224,6.347c0.131,5.263-5.807,11.141-9.507,14.2
		c-4.501,3.721-10.223,5.892-16.103,5.167c-4.394-0.541-8.738-1.16-12.705-3.318c-2.996-1.63-6.172-4.01-8.636-6.311
		c-3.671-3.428-6.034-8.028-7.225-12.872c-0.597-2.424-0.709-4.818-0.958-7.284c-0.245-2.425,0.228-4.355,0.489-6.758
		c1.103-0.106,3.407,1.078,4.505,1.5C384.032,194.923,393.803,197.788,403.532,200.626z"/>
	<path clip-path="url(#SVGID_2_)" d="M404.493,201.426c-1.042,2.306-2.264,3.973-5.009,3.939c-3.693-0.043-5.633-3.125-4.781-6.57
		L404.493,201.426z"/>
	
		<path clip-path="url(#SVGID_2_)" fill="none" stroke="#010101" stroke-width="1.4063" stroke-linecap="round" stroke-linejoin="round" stroke-miterlimit="22.926" d="
		M404.493,201.426c-1.042,2.306-2.264,3.973-5.009,3.939c-3.693-0.043-5.633-3.125-4.781-6.57L404.493,201.426z"/>
</g>
<path fill="none" stroke="#010101" stroke-width="1.5" stroke-linecap="round" stroke-linejoin="round" stroke-miterlimit="22.926" d="
	M491.333,209.556c-0.002-15.987,2.648-32.102,3.74-48.007c0.271-3.951-0.056-8.608,1.485-12.31c0.939-2.255,6.397-7.782,6.441-1.35"
	/>
<g>
	<defs>
		<rect id="SVGID_3_" x="429.348" y="189.089" width="56.61" height="38.093"/>
	</defs>
	<clipPath id="SVGID_4_">
		<use xlink:href="#SVGID_3_"  overflow="visible"/>
	</clipPath>
	
		<path clip-path="url(#SVGID_4_)" fill="none" stroke="#010101" stroke-width="1.4063" stroke-linecap="round" stroke-linejoin="round" stroke-miterlimit="22.926" d="
		M451.277,200.626c-6.998,2.042-14.064,5.036-21.224,6.347c-0.131,5.262,5.806,11.141,9.507,14.2
		c4.501,3.721,10.223,5.891,16.103,5.167c4.394-0.541,8.738-1.16,12.705-3.318c2.995-1.63,6.172-4.01,8.636-6.311
		c3.671-3.429,6.033-8.028,7.225-12.872c0.596-2.424,0.709-4.818,0.958-7.284c0.244-2.425-0.228-4.355-0.488-6.758
		c-1.103-0.106-3.407,1.077-4.506,1.5C470.777,194.923,461.006,197.788,451.277,200.626z"/>
	<path clip-path="url(#SVGID_4_)" d="M450.315,201.426c1.043,2.305,2.265,3.972,5.01,3.939c3.692-0.043,5.633-3.126,4.781-6.57
		L450.315,201.426z"/>
	
		<path clip-path="url(#SVGID_4_)" fill="none" stroke="#010101" stroke-width="1.4063" stroke-linecap="round" stroke-linejoin="round" stroke-miterlimit="22.926" d="
		M450.315,201.426c1.043,2.305,2.265,3.972,5.01,3.939c3.692-0.043,5.633-3.126,4.781-6.57L450.315,201.426z"/>
</g>
<path fill="none" stroke="#010101" stroke-width="1.5" stroke-linecap="round" stroke-linejoin="round" stroke-miterlimit="22.926" d="
	M374.461,227.64c-5.146,1.464-8.372,2.554-8.313,9.48c0.058,6.84,4.255,13.179,6.517,19.386c1.915,5.252,2.35,9.869,2.569,15.371
	c0.178,4.482,0.938,7.826,3.793,11.504c2.447,3.151,5.747,5.574,9.124,7.623c4.439,2.693,8.687,6.004,13.539,7.867
	c10.846,4.163,21.3,2.674,32.472,2.658c9.338-0.014,20.049,0.438,28.016-5.397c4.754-3.482,9.55-10.432,12.659-15.548
	c2.013-3.314,1.986-6.329,1.768-9.935c-0.295-4.882,0.86-10.394,2.522-14.951c2.262-6.207,6.459-12.546,6.517-19.386
	c0.06-6.926-6.167-8.016-11.312-9.48"/>
<path fill="none" stroke="#010101" stroke-width="1.5" stroke-linecap="round" stroke-linejoin="round" stroke-miterlimit="22.926" d="
	M363.417,210.64c0.952-3.949-0.718-8.432-0.45-12.563c0.32-4.935,0.653-9.802,0.698-14.752c0.072-8.035-0.212-15.335-1.817-23.21
	c-0.732-3.594-1.633-7.836-3.62-10.988c-2.422-3.843-5.49-2.587-6.561,1.763"/>
<path fill="#FFFFFF" d="M397.848,201.504c-0.288,0.082-0.603,0.073-0.916-0.055c-0.41-0.169-0.647-0.559-0.796-0.958
	c-0.036-0.097-0.247-1.271-0.182-1.253c1.366,0.379,2.007,0.704,3.036,1.065C398.829,200.886,398.385,201.353,397.848,201.504"/>
<path fill="#FFFFFF" d="M452.003,201.166c0.144,0.874,1.225,1.156,1.937,0.935c0.905-0.28,1.08-1.024,0.908-1.896
	c-0.383,0.049-1.463,0.497-1.463,0.497"/>
<path fill="none" stroke="#010101" stroke-width="1.5" stroke-linecap="round" stroke-linejoin="round" stroke-miterlimit="22.926" d="
	M466.467,266.25c-0.011,0.13-0.03,0.26-0.051,0.39"/>
<line fill="none" stroke="#010101" stroke-width="1.5" stroke-linecap="round" stroke-linejoin="round" stroke-miterlimit="22.926" x1="460.166" y1="272.839" x2="460.166" y2="272.87"/>
<polyline fill="none" stroke="#010101" stroke-width="1.5" stroke-linecap="round" stroke-linejoin="round" stroke-miterlimit="22.926" points="
	440.166,280.759 440.166,280.739 440.166,280.759 "/>
<path fill="none" stroke="#010101" stroke-width="1.5" stroke-linecap="round" stroke-linejoin="round" stroke-miterlimit="22.926" d="
	M425.386,280.299c-0.08,1.17,0.05,2.31-0.05,3.53c0-0.01-0.03-0.09-0.05-0.13c0-0.02-0.01-0.03-0.01-0.03"/>
<path fill="none" stroke="#010101" stroke-width="1.5" stroke-linecap="round" stroke-linejoin="round" stroke-miterlimit="22.926" d="
	M384.376,266.64c-0.01-0.04-0.01-0.07-0.01-0.11"/>
<path fill="none" stroke="#010101" stroke-width="1.5" stroke-linecap="round" stroke-linejoin="round" stroke-miterlimit="22.926" d="
	M390.616,272.87c0-0.08,0-0.17,0.01-0.25v-0.11"/>
<polyline fill="none" stroke="#010101" stroke-width="1.5" stroke-linecap="round" stroke-linejoin="round" stroke-miterlimit="22.926" points="
	410.616,280.759 410.616,280.739 410.616,280.759 "/>
<path fill="none" stroke="#010101" stroke-width="1.5" stroke-linecap="round" stroke-linejoin="round" stroke-miterlimit="22.926" d="
	M425.497,283.699c0.05-0.1-0.04,1.11-0.05,1.13c-0.09-1.29,0.05-3.01-0.06-4.53"/>
<path fill="none" stroke="#010101" stroke-width="1.5" stroke-linecap="round" stroke-linejoin="round" stroke-miterlimit="22.926" d="
	M421.167,292.265c2.766,1.054,7.197,0.673,10.162-0.078"/>
<path fill="none" stroke="#010101" stroke-width="1.5" stroke-linecap="round" stroke-linejoin="round" stroke-miterlimit="22.926" d="
	M500.118,620.296h-1.139c-0.747,1.291-1.822,2.367-3.113,3.114v1.138h-4.253h-4.252v-1.138c-1.289-0.747-2.366-1.823-3.113-3.114
	h-1.139v-4.252v-4.252h1.139c0.747-1.29,1.824-2.367,3.113-3.114v-1.138h4.252h4.253v1.138c1.291,0.747,2.366,1.824,3.113,3.114
	h1.139v4.252V620.296z"/>
<rect x="454.763" y="611.792" fill="none" stroke="#010101" stroke-width="1.5" stroke-linecap="round" stroke-linejoin="round" stroke-miterlimit="22.926" width="17.009" height="8.504"/>
<rect x="398.07" y="611.792" fill="none" stroke="#010101" stroke-width="1.5" stroke-linecap="round" stroke-linejoin="round" stroke-miterlimit="22.926" width="17.008" height="8.504"/>
<path fill="none" stroke="#010101" stroke-width="1.5" stroke-linecap="round" stroke-linejoin="round" stroke-miterlimit="22.926" d="
	M386.732,620.296h-1.138c-0.747,1.291-1.823,2.367-3.114,3.114v1.138h-4.252h-4.252v-1.138c-1.29-0.747-2.367-1.823-3.114-3.114
	h-1.138v-4.252v-4.252h1.138c0.747-1.29,1.824-2.367,3.114-3.114v-1.138h4.252h4.252v1.138c1.291,0.747,2.367,1.824,3.114,3.114
	h1.138v4.252V620.296z"/>
<path fill="none" stroke="#010101" stroke-width="1.5" stroke-linecap="round" stroke-linejoin="round" stroke-miterlimit="22.926" d="
	M443.425,620.296h-1.138c-0.747,1.291-1.823,2.367-3.114,3.114v1.138h-4.252h-4.252v-1.138c-1.29-0.747-2.367-1.823-3.114-3.114
	h-1.138v-4.252v-4.252h1.138c0.747-1.29,1.824-2.367,3.114-3.114v-1.138h4.252h4.252v1.138c1.291,0.747,2.367,1.824,3.114,3.114
	h1.138v4.252V620.296z"/>
<rect x="520" y="680.556" fill="none" stroke="#231F20" stroke-width="1.5" stroke-linecap="round" stroke-linejoin="round" stroke-miterlimit="22.926" width="18.333" height="15"/>
<rect x="506" y="673.889" fill="none" stroke="#231F20" stroke-width="1.5" stroke-linecap="round" stroke-linejoin="round" stroke-miterlimit="22.926" width="54.333" height="6.667"/>
<path fill="none" stroke="#231F20" stroke-width="1.5" stroke-linecap="round" stroke-linejoin="round" stroke-miterlimit="22.926" d="
	M362.302,603.756c-1.572,2.284-2.492,5.052-2.492,8.035v22.67h16.69v15.015h36.85v-15.015h44.14v15.015h36.64v-15.015h15.91v-22.67
	c0-7.83-6.34-14.18-14.17-14.18H373.98C369.133,597.611,364.857,600.044,362.302,603.756z"/>
<line fill="none" stroke="#231F20" stroke-width="1.5" stroke-linecap="round" stroke-linejoin="round" stroke-miterlimit="22.926" x1="457.49" y1="649.477" x2="494.13" y2="649.477"/>
<g>
	<defs>
		<rect id="SVGID_5_" x="291.25" y="682.149" width="39.888" height="39.888"/>
	</defs>
	<clipPath id="SVGID_6_">
		<use xlink:href="#SVGID_5_"  overflow="visible"/>
	</clipPath>
	<path clip-path="url(#SVGID_6_)" fill="#FFFFFF" d="M330.387,702.093c0,10.601-8.593,19.194-19.194,19.194
		c-10.6,0-19.194-8.594-19.194-19.194c0-10.6,8.594-19.193,19.194-19.193C321.794,682.899,330.387,691.493,330.387,702.093"/>
	
		<circle clip-path="url(#SVGID_6_)" fill="none" stroke="#231F20" stroke-width="1.5" stroke-linecap="round" stroke-linejoin="round" stroke-miterlimit="22.926" cx="311.193" cy="702.093" r="19.194"/>
	<path clip-path="url(#SVGID_6_)" fill="#FFFFFF" d="M319.49,702.093c0,4.582-3.714,8.296-8.296,8.296s-8.297-3.714-8.297-8.296
		s3.715-8.296,8.297-8.296S319.49,697.511,319.49,702.093"/>
	
		<circle clip-path="url(#SVGID_6_)" fill="none" stroke="#231F20" stroke-width="1.5" stroke-linecap="round" stroke-linejoin="round" stroke-miterlimit="22.926" cx="311.193" cy="702.093" r="8.297"/>
</g>
<g>
	<defs>
		<rect id="SVGID_7_" x="527.249" y="682.149" width="39.888" height="39.888"/>
	</defs>
	<clipPath id="SVGID_8_">
		<use xlink:href="#SVGID_7_"  overflow="visible"/>
	</clipPath>
	<path clip-path="url(#SVGID_8_)" fill="#FFFFFF" d="M566.387,702.093c0,10.601-8.593,19.194-19.193,19.194
		s-19.194-8.594-19.194-19.194c0-10.6,8.594-19.193,19.194-19.193S566.387,691.493,566.387,702.093"/>
	
		<circle clip-path="url(#SVGID_8_)" fill="none" stroke="#231F20" stroke-width="1.5" stroke-linecap="round" stroke-linejoin="round" stroke-miterlimit="22.926" cx="547.193" cy="702.093" r="19.194"/>
	<path clip-path="url(#SVGID_8_)" fill="#FFFFFF" d="M555.489,702.093c0,4.582-3.714,8.296-8.296,8.296s-8.297-3.714-8.297-8.296
		s3.715-8.296,8.297-8.296S555.489,697.511,555.489,702.093"/>
	
		<circle clip-path="url(#SVGID_8_)" fill="none" stroke="#231F20" stroke-width="1.5" stroke-linecap="round" stroke-linejoin="round" stroke-miterlimit="22.926" cx="547.193" cy="702.093" r="8.296"/>
</g>
<rect x="294" y="673.889" fill="none" stroke="#231F20" stroke-width="1.5" stroke-linecap="round" stroke-linejoin="round" stroke-miterlimit="22.926" width="54.333" height="6.667"/>
<path fill="none" stroke="#231F20" stroke-width="1.5" stroke-linecap="round" stroke-linejoin="round" stroke-miterlimit="22.926" d="
	M656.43,635.089c2.979,5.478,0.935,12.398-4.544,15.379l-32.76,17.823c-5.478,2.979-9.96,5.502-9.96,5.604
	s-5.102,0.186-11.338,0.186H254.505c-6.236,0-11.339-0.237-11.339-0.525c0-0.289-0.09-0.359-0.2-0.155
	c-0.11,0.203-4.682-2.068-10.16-5.049l-32.87-17.883c-5.478-2.98-7.522-9.901-4.542-15.379l0.815-1.499
	c2.979-5.479,9.899-7.522,15.377-4.542l28,15.232c5.478,2.98,15.062,5.42,21.299,5.42h330.052c6.236,0,15.82-2.439,21.299-5.42
	l28-15.232c5.478-2.98,12.397-0.937,15.378,4.542L656.43,635.089z"/>
<path fill="#FFFFFF" d="M807.895,446.342c2.668,5.636,1.378,11.848-2.868,13.803s-9.854-1.08-12.461-6.745l-23.817-51.74
	c-2.608-5.665-9.845-10.293-16.08-10.284l-46.922,0.068c-6.237,0.009-13.473,4.651-16.08,10.316l-24.229,52.64
	c-2.607,5.665-8.215,8.7-12.461,6.745s-5.587-8.19-2.979-13.855l28.258-61.39c2.606-5.665,9.843-10.371,16.078-10.457l68.135-0.946
	c6.236-0.086,13.521,4.455,16.189,10.091L807.895,446.342z"/>
<path fill="none" stroke="#231F20" stroke-width="1.5" stroke-linecap="round" stroke-linejoin="round" stroke-miterlimit="22.926" d="
	M807.895,446.342c2.668,5.636,1.378,11.848-2.868,13.803s-9.854-1.08-12.461-6.745l-23.817-51.74
	c-2.608-5.665-9.845-10.293-16.08-10.284l-46.922,0.068c-6.237,0.009-13.473,4.651-16.08,10.316l-24.229,52.64
	c-2.607,5.665-8.215,8.7-12.461,6.745s-5.587-8.19-2.979-13.855l28.258-61.39c2.606-5.665,9.843-10.371,16.078-10.457l68.135-0.946
	c6.236-0.086,13.521,4.455,16.189,10.091L807.895,446.342z"/>
<path fill="#FFFFFF" d="M789.724,545.045c-2.231,5.823-9.16,10.589-15.396,10.589h-92.322c-6.236,0-13.164-4.766-15.396-10.589
	l-31.886-83.211c-2.231-5.822,1.045-10.588,7.281-10.588h172.322c6.236,0,9.514,4.766,7.282,10.588L789.724,545.045z"/>
<path fill="none" stroke="#231F20" stroke-width="1.5" stroke-linecap="round" stroke-linejoin="round" stroke-miterlimit="22.926" d="
	M789.724,545.045c-2.231,5.823-9.16,10.589-15.396,10.589h-92.322c-6.236,0-13.164-4.766-15.396-10.589l-31.886-83.211
	c-2.231-5.822,1.045-10.588,7.281-10.588h172.322c6.236,0,9.514,4.766,7.282,10.588L789.724,545.045z"/>
<line fill="none" stroke="#231F20" stroke-width="1.5" stroke-linecap="round" stroke-linejoin="round" stroke-miterlimit="22.926" x1="637.831" y1="469.943" x2="818.167" y2="469.943"/>
<line fill="none" stroke="#231F20" stroke-width="1.5" stroke-linecap="round" stroke-linejoin="round" stroke-miterlimit="22.926" x1="653.666" y1="469.943" x2="687.666" y2="555.24"/>
<line fill="none" stroke="#231F20" stroke-width="1.5" stroke-linecap="round" stroke-linejoin="round" stroke-miterlimit="22.926" x1="728.166" y1="555.633" x2="728.166" y2="469.943"/>
<line fill="none" stroke="#231F20" stroke-width="1.5" stroke-linecap="round" stroke-linejoin="round" stroke-miterlimit="22.926" x1="768.666" y1="555.633" x2="801.666" y2="469.943"/>
<line fill="none" stroke="#231F20" stroke-width="1.5" stroke-linecap="round" stroke-linejoin="round" stroke-miterlimit="22.926" x1="700" y1="555.24" x2="676" y2="469.943"/>
<line fill="none" stroke="#231F20" stroke-width="1.5" stroke-linecap="round" stroke-linejoin="round" stroke-miterlimit="22.926" x1="754.333" y1="555.633" x2="783.333" y2="469.943"/>
<line fill="none" stroke="#231F20" stroke-width="1.5" stroke-linecap="round" stroke-linejoin="round" stroke-miterlimit="22.926" x1="742" y1="555.633" x2="754.333" y2="469.943"/>
<line fill="none" stroke="#231F20" stroke-width="1.5" stroke-linecap="round" stroke-linejoin="round" stroke-miterlimit="22.926" x1="714.666" y1="555.24" x2="703.999" y2="469.943"/>
<path fill="none" stroke="#000000" stroke-width="1.5" stroke-linecap="round" stroke-linejoin="round" stroke-miterlimit="22.926" d="
	M197.116,631.923c19.906,11.923,38.829,21.469,56.217,27.3H606c15.806-5.673,31.521-15.7,47.183-28.334"/>
<path fill="none" stroke="#010101" stroke-width="1.5" stroke-linecap="round" stroke-linejoin="round" stroke-miterlimit="22.926" d="
	M364.667,122.556c5.026-9.138,12.964-16.384,21.825-21.73c4.511-2.722,9.304-4.976,14.253-6.777
	c3.932-1.431,10.364-4.404,14.589-3.493"/>
<path fill="none" stroke="#010101" stroke-width="1.5" stroke-linecap="round" stroke-linejoin="round" stroke-miterlimit="22.926" d="
	M370.917,169.39c1.439,4.03-1.714,7.026,2.68,9.057c5.833,2.698,11.521,5.672,17.501,7.985c9.091,3.515,23.033,7.836,32.943,11.602"
	/>
<path fill="none" stroke="#010101" stroke-width="1.5" stroke-linecap="round" stroke-linejoin="round" stroke-miterlimit="22.926" d="
	M485.04,169.39c-1.438,4.03,1.714,7.026-2.68,9.057c-5.833,2.698-11.521,5.672-17.501,7.985
	c-9.091,3.515-23.033,7.836-32.943,11.602"/>
<rect y="0" fill="none" width="878.582" height="841.89"/>
</svg>
