  0
SECTION
  2
HEADER
  9
$ACADVER
  1
AC1014
  9
$ACADMAINTVER
 70
     9
  9
$DWGCODEPAGE
  3
ANSI_932
  9
$INSBASE
 10
0.0
 20
0.0
 30
0.0
  9
$EXTMIN
 10
1.000000000000000E+20
 20
1.000000000000000E+20
 30
1.000000000000000E+20
  9
$EXTMAX
 10
-1.000000000000000E+20
 20
-1.000000000000000E+20
 30
-1.000000000000000E+20
  9
$LIMMIN
 10
0.0
 20
0.0
  9
$LIMMAX
 10
12.0
 20
9.0
  9
$ORTHOMODE
 70
     0
  9
$REGENMODE
 70
     1
  9
$FILLMODE
 70
     1
  9
$QTEXTMODE
 70
     0
  9
$MIRRTEXT
 70
     1
  9
$DRAGMODE
 70
     2
  9
$LTSCALE
 40
1.0
  9
$OSMODE
 70
    37
  9
$ATTMODE
 70
     1
  9
$TEXTSIZE
 40
0.2
  9
$TRACEWID
 40
0.05
  9
$TEXTSTYLE
  7
STANDARD
  9
$CLAYER
  8
0
  9
$CELTYPE
  6
BYLAYER
  9
$CECOLOR
 62
   256
  9
$CELTSCALE
 40
1.0
  9
$DELOBJ
 70
     1
  9
$DISPSILH
 70
     0
  9
$DIMSCALE
 40
1.0
  9
$DIMASZ
 40
0.18
  9
$DIMEXO
 40
0.0625
  9
$DIMDLI
 40
0.38
  9
$DIMRND
 40
0.0
  9
$DIMDLE
 40
0.0
  9
$DIMEXE
 40
0.18
  9
$DIMTP
 40
0.0
  9
$DIMTM
 40
0.0
  9
$DIMTXT
 40
0.18
  9
$DIMCEN
 40
0.09
  9
$DIMTSZ
 40
0.0
  9
$DIMTOL
 70
     0
  9
$DIMLIM
 70
     0
  9
$DIMTIH
 70
     1
  9
$DIMTOH
 70
     1
  9
$DIMSE1
 70
     0
  9
$DIMSE2
 70
     0
  9
$DIMTAD
 70
     0
  9
$DIMZIN
 70
     0
  9
$DIMBLK
  1

  9
$DIMASO
 70
     1
  9
$DIMSHO
 70
     1
  9
$DIMPOST
  1

  9
$DIMAPOST
  1

  9
$DIMALT
 70
     0
  9
$DIMALTD
 70
     2
  9
$DIMALTF
 40
25.4
  9
$DIMLFAC
 40
1.0
  9
$DIMTOFL
 70
     0
  9
$DIMTVP
 40
0.0
  9
$DIMTIX
 70
     0
  9
$DIMSOXD
 70
     0
  9
$DIMSAH
 70
     0
  9
$DIMBLK1
  1

  9
$DIMBLK2
  1

  9
$DIMSTYLE
  2
STANDARD
  9
$DIMCLRD
 70
     0
  9
$DIMCLRE
 70
     0
  9
$DIMCLRT
 70
     0
  9
$DIMTFAC
 40
1.0
  9
$DIMGAP
 40
0.09
  9
$DIMJUST
 70
     0
  9
$DIMSD1
 70
     0
  9
$DIMSD2
 70
     0
  9
$DIMTOLJ
 70
     1
  9
$DIMTZIN
 70
     0
  9
$DIMALTZ
 70
     0
  9
$DIMALTTZ
 70
     0
  9
$DIMFIT
 70
     3
  9
$DIMUPT
 70
     0
  9
$DIMUNIT
 70
     2
  9
$DIMDEC
 70
     4
  9
$DIMTDEC
 70
     4
  9
$DIMALTU
 70
     2
  9
$DIMALTTD
 70
     2
  9
$DIMTXSTY
  7
STANDARD
  9
$DIMAUNIT
 70
     0
  9
$LUNITS
 70
     2
  9
$LUPREC
 70
     4
  9
$SKETCHINC
 40
0.1
  9
$FILLETRAD
 40
0.5
  9
$AUNITS
 70
     0
  9
$AUPREC
 70
     0
  9
$MENU
  1
.
  9
$ELEVATION
 40
0.0
  9
$PELEVATION
 40
0.0
  9
$THICKNESS
 40
0.0
  9
$LIMCHECK
 70
     0
  9
$CHAMFERA
 40
0.5
  9
$CHAMFERB
 40
0.5
  9
$CHAMFERC
 40
1.0
  9
$CHAMFERD
 40
0.0
  9
$SKPOLY
 70
     0
  9
$TDCREATE
 40
2457137.701388889
  9
$TDUPDATE
 40
2457137.701388901
  9
$TDINDWG
 40
0.0000000116
  9
$TDUSRTIMER
 40
0.0000000116
  9
$USRTIMER
 70
     1
  9
$ANGBASE
 50
0.0
  9
$ANGDIR
 70
     0
  9
$PDMODE
 70
     0
  9
$PDSIZE
 40
0.0
  9
$PLINEWID
 40
0.0
  9
$COORDS
 70
     1
  9
$SPLFRAME
 70
     0
  9
$SPLINETYPE
 70
     6
  9
$SPLINESEGS
 70
     8
  9
$ATTDIA
 70
     0
  9
$ATTREQ
 70
     1
  9
$HANDLING
 70
     1
  9
$HANDSEED
  5
104
  9
$SURFTAB1
 70
     6
  9
$SURFTAB2
 70
     6
  9
$SURFTYPE
 70
     6
  9
$SURFU
 70
     6
  9
$SURFV
 70
     6
  9
$UCSNAME
  2

  9
$UCSORG
 10
0.0
 20
0.0
 30
0.0
  9
$UCSXDIR
 10
1.0
 20
0.0
 30
0.0
  9
$UCSYDIR
 10
0.0
 20
1.0
 30
0.0
  9
$PUCSNAME
  2

  9
$PUCSORG
 10
0.0
 20
0.0
 30
0.0
  9
$PUCSXDIR
 10
1.0
 20
0.0
 30
0.0
  9
$PUCSYDIR
 10
0.0
 20
1.0
 30
0.0
  9
$USERI1
 70
     0
  9
$USERI2
 70
     0
  9
$USERI3
 70
     0
  9
$USERI4
 70
     0
  9
$USERI5
 70
     0
  9
$USERR1
 40
0.0
  9
$USERR2
 40
0.0
  9
$USERR3
 40
0.0
  9
$USERR4
 40
0.0
  9
$USERR5
 40
0.0
  9
$WORLDVIEW
 70
     1
  9
$SHADEDGE
 70
     3
  9
$SHADEDIF
 70
    70
  9
$TILEMODE
 70
     1
  9
$MAXACTVP
 70
    64
  9
$PINSBASE
 10
0.0
 20
0.0
 30
0.0
  9
$PLIMCHECK
 70
     0
  9
$PEXTMIN
 10
1.000000000000000E+20
 20
1.000000000000000E+20
 30
1.000000000000000E+20
  9
$PEXTMAX
 10
-1.000000000000000E+20
 20
-1.000000000000000E+20
 30
-1.000000000000000E+20
  9
$PLIMMIN
 10
0.0
 20
0.0
  9
$PLIMMAX
 10
12.0
 20
9.0
  9
$UNITMODE
 70
     0
  9
$VISRETAIN
 70
     1
  9
$PLINEGEN
 70
     0
  9
$PSLTSCALE
 70
     1
  9
$TREEDEPTH
 70
  3020
  9
$PICKSTYLE
 70
     1
  9
$CMLSTYLE
  2
STANDARD
  9
$CMLJUST
 70
     0
  9
$CMLSCALE
 40
1.0
  9
$PROXYGRAPHICS
 70
     1
  9
$MEASUREMENT
 70
     0
  0
ENDSEC
  0
SECTION
  2
CLASSES
  0
CLASS
  1
ACDBDICTIONARYWDFLT
  2
AcDbDictionaryWithDefault
  3
ObjectDBX Classes
 90
        0
280
     0
281
     0
  0
CLASS
  1
VISUALSTYLE
  2
AcDbVisualStyle
  3
ObjectDBX Classes
 90
     4095
280
     0
281
     0
  0
CLASS
  1
XRECORD
  2
AcDbXrecord
  3
AutoCAD 2000
 90
        0
280
     0
281
     0
  0
CLASS
  1
LWPOLYLINE
  2
AcDbPolyline
  3
AutoCAD 2000
 90
        0
280
     0
281
     1
  0
CLASS
  1
HATCH
  2
AcDbHatch
  3
AutoCAD 2000
 90
        0
280
     0
281
     1
  0
CLASS
  1
ACDBPLACEHOLDER
  2
AcDbPlaceHolder
  3
ObjectDBX Classes
 90
        0
280
     0
281
     0
  0
CLASS
  1
LAYOUT
  2
AcDbLayout
  3
ObjectDBX Classes
 90
        0
280
     0
281
     0
  0
ENDSEC
  0
SECTION
  2
TABLES
  0
TABLE
  2
VPORT
  5
8
330
0
100
AcDbSymbolTable
 70
     1
  0
VPORT
  5
29
330
8
100
AcDbSymbolTableRecord
100
AcDbViewportTableRecord
  2
*ACTIVE
 70
     0
 10
0.0
 20
0.0
 11
1.0
 21
1.0
 12
0.0
 22
0.0
 13
0.0
 23
0.0
 14
0.5
 24
0.5
 15
0.5
 25
0.5
 16
0.0
 26
0.0
 36
1.0
 17
421.58642578125
 27
420.94580078125
 37
0.0
 40
841.8896484375
 41
1.001524193969342
 42
50.0
 43
0.0
 44
0.0
 50
0.0
 51
0.0
 71
     0
 72
   100
 73
     1
 74
     3
 75
     0
 76
     0
 77
     0
 78
     0
  0
ENDTAB
  0
TABLE
  2
LTYPE
  5
5
330
0
100
AcDbSymbolTable
 70
     1
  0
LTYPE
  5
14
330
5
100
AcDbSymbolTableRecord
100
AcDbLinetypeTableRecord
  2
BYBLOCK
 70
     0
  3

 72
    65
 73
     0
 40
0.0
  0
LTYPE
  5
15
330
5
100
AcDbSymbolTableRecord
100
AcDbLinetypeTableRecord
  2
BYLAYER
 70
     0
  3

 72
    65
 73
     0
 40
0.0
  0
LTYPE
  5
16
330
5
100
AcDbSymbolTableRecord
100
AcDbLinetypeTableRecord
  2
CONTINUOUS
 70
     0
  3
Solid line
 72
    65
 73
     0
 40
0.0
  0
ENDTAB
  0
TABLE
  2
LAYER
  5
2
330
0
100
AcDbSymbolTable
 70
     2
  0
LAYER
  5
10
330
2
100
AcDbSymbolTableRecord
100
AcDbLayerTableRecord
  2
0
 70
     0
 62
     7
  6
CONTINUOUS
  0
LAYER
  5
3B
330
2
100
AcDbSymbolTableRecord
100
AcDbLayerTableRecord
  2
LAYER_1
 70
     0
 62
     7
  6
CONTINUOUS
  0
ENDTAB
  0
TABLE
  2
STYLE
  5
3
330
0
100
AcDbSymbolTable
 70
     1
  0
STYLE
  5
11
330
3
100
AcDbSymbolTableRecord
100
AcDbTextStyleTableRecord
  2
STANDARD
 70
     0
 40
0.0
 41
1.0
 50
0.0
 71
     0
 42
0.2
  3
txt
  4

  0
ENDTAB
  0
TABLE
  2
VIEW
  5
6
330
0
100
AcDbSymbolTable
 70
     0
  0
ENDTAB
  0
TABLE
  2
UCS
  5
7
330
0
100
AcDbSymbolTable
 70
     0
  0
ENDTAB
  0
TABLE
  2
APPID
  5
9
330
0
100
AcDbSymbolTable
 70
     1
  0
APPID
  5
12
330
9
100
AcDbSymbolTableRecord
100
AcDbRegAppTableRecord
  2
ACAD
 70
     0
  0
ENDTAB
  0
TABLE
  2
DIMSTYLE
  5
A
330
0
100
AcDbSymbolTable
 70
     1
  0
DIMSTYLE
105
27
330
A
100
AcDbSymbolTableRecord
100
AcDbDimStyleTableRecord
  2
STANDARD
 70
     0
  3

  4

  5

  6

  7

 40
1.0
 41
0.18
 42
0.0625
 43
0.38
 44
0.18
 45
0.0
 46
0.0
 47
0.0
 48
0.0
140
0.18
141
0.09
142
0.0
143
25.4
144
1.0
145
0.0
146
1.0
147
0.09
 71
     0
 72
     0
 73
     1
 74
     1
 75
     0
 76
     0
 77
     0
 78
     0
170
     0
171
     2
172
     0
173
     0
174
     0
175
     0
176
     0
177
     0
178
     0
270
     2
271
     4
272
     4
273
     2
274
     2
340
11
275
     0
280
     0
281
     0
282
     0
283
     1
284
     0
285
     0
286
     0
287
     3
288
     0
  0
ENDTAB
  0
TABLE
  2
BLOCK_RECORD
  5
1
330
0
100
AcDbSymbolTable
 70
     3
  0
BLOCK_RECORD
  5
1F
330
1
100
AcDbSymbolTableRecord
100
AcDbBlockTableRecord
  2
*MODEL_SPACE
  0
BLOCK_RECORD
  5
1B
330
1
100
AcDbSymbolTableRecord
100
AcDbBlockTableRecord
  2
*PAPER_SPACE
  0
BLOCK_RECORD
  5
67
330
1
100
AcDbSymbolTableRecord
100
AcDbBlockTableRecord
  2
BLOCK_2
  0
BLOCK_RECORD
  5
91
330
1
100
AcDbSymbolTableRecord
100
AcDbBlockTableRecord
  2
BLOCK_3
  0
ENDTAB
  0
ENDSEC
  0
SECTION
  2
BLOCKS
  0
BLOCK
  5
20
330
1F
100
AcDbEntity
  8
0
100
AcDbBlockBegin
  2
*MODEL_SPACE
 70
     0
 71
     0
 10
0.0
 20
0.0
 30
0.0
  3
*MODEL_SPACE
  1

  0
ENDBLK
  5
21
330
1F
100
AcDbEntity
  8
0
100
AcDbBlockEnd
  0
BLOCK
  5
1C
330
1B
100
AcDbEntity
 67
     1
  8
0
100
AcDbBlockBegin
  2
*PAPER_SPACE
 70
     0
 71
     0
 10
0.0
 20
0.0
 30
0.0
  3
*PAPER_SPACE
  1

  0
ENDBLK
  5
1D
330
1B
100
AcDbEntity
 67
     1
  8
0
100
AcDbBlockEnd
  0
BLOCK
  5
69
330
67
100
AcDbEntity
  8
0
100
AcDbBlockBegin
  2
BLOCK_2
 70
     0
 71
     0
 10
0.0
 20
0.0
 30
0.0
  3
BLOCK_2
  1

  0
SPLINE
  5
6B
330
67
100
AcDbEntity
  8
LAYER_1
 62
   250
100
AcDbSpline
210
0.0
220
0.0
230
1.0
 70
    11
 71
     3
 72
    17
 73
    13
 74
     0
 42
0.0000000001
 43
0.0000000001
 40
0.0
 40
0.0
 40
0.0
 40
0.0
 40
1.0
 40
1.0
 40
1.0
 40
2.0
 40
2.0
 40
2.0
 40
3.0
 40
3.0
 40
3.0
 40
4.0
 40
4.0
 40
4.0
 40
4.0
 10
705.380859375
 20
311.21484375
 30
0.0
 10
706.9599609375
 20
307.4443359375
 30
0.0
 10
699.599609375
 20
303.6943359375
 30
0.0
 10
696.83984375
 20
304.404296875
 30
0.0
 10
696.94921875
 20
306.5048828125
 30
0.0
 10
697.279296875
 20
311.244140625
 30
0.0
 10
696.5
 20
312.544921875
 30
0.0
 10
696.419921875
 20
312.6142578125
 30
0.0
 10
696.48046875
 20
312.794921875
 30
0.0
 10
696.650390625
 20
312.9150390625
 30
0.0
 10
699.0
 20
312.744140625
 30
0.0
 10
704.1796875
 20
314.064453125
 30
0.0
 10
705.380859375
 20
311.21484375
 30
0.0
  0
SPLINE
  5
6C
330
67
100
AcDbEntity
  8
LAYER_1
 62
   250
100
AcDbSpline
210
0.0
220
0.0
230
1.0
 70
    11
 71
     3
 72
    26
 73
    22
 74
     0
 42
0.0000000001
 43
0.0000000001
 40
0.0
 40
0.0
 40
0.0
 40
0.0
 40
1.0
 40
1.0
 40
1.0
 40
2.0
 40
2.0
 40
2.0
 40
3.0
 40
3.0
 40
3.0
 40
4.0
 40
4.0
 40
4.0
 40
5.0
 40
5.0
 40
5.0
 40
6.0
 40
6.0
 40
6.0
 40
7.0
 40
7.0
 40
7.0
 40
7.0
 10
742.51953125
 20
400.6142578125
 30
0.0
 10
739.509765625
 20
399.494140625
 30
0.0
 10
736.23046875
 20
399.3642578125
 30
0.0
 10
733.01953125
 20
399.2548828125
 30
0.0
 10
732.6796875
 20
402.4345703125
 30
0.0
 10
732.650390625
 20
405.654296875
 30
0.0
 10
732.919921875
 20
408.8544921875
 30
0.0
 10
734.5400390625
 20
408.5546875
 30
0.0
 10
736.150390625
 20
408.2548828125
 30
0.0
 10
737.76953125
 20
407.96484375
 30
0.0
 10
739.2197265625
 20
407.6943359375
 30
0.0
 10
740.69921875
 20
407.4150390625
 30
0.0
 10
741.9892578125
 20
406.6943359375
 30
0.0
 10
743.26953125
 20
405.96484375
 30
0.0
 10
744.33984375
 20
404.6845703125
 30
0.0
 10
744.41015625
 20
403.21484375
 30
0.0
 10
744.44921875
 20
402.5048828125
 30
0.0
 10
744.23046875
 20
401.7646484375
 30
0.0
 10
743.7197265625
 20
401.2744140625
 30
0.0
 10
743.380859375
 20
400.96484375
 30
0.0
 10
742.94921875
 20
400.7744140625
 30
0.0
 10
742.51953125
 20
400.6142578125
 30
0.0
  0
SPLINE
  5
6D
330
67
100
AcDbEntity
  8
LAYER_1
 62
   250
100
AcDbSpline
210
0.0
220
0.0
230
1.0
 70
    11
 71
     3
 72
    29
 73
    25
 74
     0
 42
0.0000000001
 43
0.0000000001
 40
0.0
 40
0.0
 40
0.0
 40
0.0
 40
1.0
 40
1.0
 40
1.0
 40
2.0
 40
2.0
 40
2.0
 40
3.0
 40
3.0
 40
3.0
 40
4.0
 40
4.0
 40
4.0
 40
5.0
 40
5.0
 40
5.0
 40
6.0
 40
6.0
 40
6.0
 40
7.0
 40
7.0
 40
7.0
 40
8.0
 40
8.0
 40
8.0
 40
8.0
 10
748.26953125
 20
370.134765625
 30
0.0
 10
744.7099609375
 20
368.375
 30
0.0
 10
740.8193359375
 20
367.3046875
 30
0.0
 10
736.859375
 20
367.0048828125
 30
0.0
 10
736.7900390625
 20
367.0048828125
 30
0.0
 10
736.7099609375
 20
366.994140625
 30
0.0
 10
736.6396484375
 20
367.044921875
 30
0.0
 10
736.560546875
 20
367.0947265625
 30
0.0
 10
736.5400390625
 20
367.205078125
 30
0.0
 10
736.529296875
 20
367.3046875
 30
0.0
 10
736.1396484375
 20
370.125
 30
0.0
 10
735.9697265625
 20
372.984375
 30
0.0
 10
736.029296875
 20
375.8349609375
 30
0.0
 10
738.859375
 20
376.564453125
 30
0.0
 10
741.80078125
 20
376.8447265625
 30
0.0
 10
744.7099609375
 20
376.6748046875
 30
0.0
 10
746.2392578125
 20
376.5849609375
 30
0.0
 10
747.83984375
 20
376.3349609375
 30
0.0
 10
749.0400390625
 20
375.384765625
 30
0.0
 10
750.23046875
 20
374.4248046875
 30
0.0
 10
750.80078125
 20
372.544921875
 30
0.0
 10
749.8896484375
 20
371.314453125
 30
0.0
 10
749.4892578125
 20
370.7744140625
 30
0.0
 10
748.87109375
 20
370.4345703125
 30
0.0
 10
748.26953125
 20
370.134765625
 30
0.0
  0
SPLINE
  5
6E
330
67
100
AcDbEntity
  8
LAYER_1
 62
   250
100
AcDbSpline
210
0.0
220
0.0
230
1.0
 70
    11
 71
     3
 72
    26
 73
    22
 74
     0
 42
0.0000000001
 43
0.0000000001
 40
0.0
 40
0.0
 40
0.0
 40
0.0
 40
1.0
 40
1.0
 40
1.0
 40
2.0
 40
2.0
 40
2.0
 40
3.0
 40
3.0
 40
3.0
 40
4.0
 40
4.0
 40
4.0
 40
5.0
 40
5.0
 40
5.0
 40
6.0
 40
6.0
 40
6.0
 40
7.0
 40
7.0
 40
7.0
 40
7.0
 10
750.58984375
 20
342.4345703125
 30
0.0
 10
750.2099609375
 20
341.1044921875
 30
0.0
 10
748.740234375
 20
340.474609375
 30
0.0
 10
747.419921875
 20
340.0546875
 30
0.0
 10
744.330078125
 20
339.07421875
 30
0.0
 10
741.1796875
 20
338.2841796875
 30
0.0
 10
737.990234375
 20
337.705078125
 30
0.0
 10
737.509765625
 20
338.0244140625
 30
0.0
 10
737.439453125
 20
338.6845703125
 30
0.0
 10
737.400390625
 20
339.2646484375
 30
0.0
 10
737.279296875
 20
341.46484375
 30
0.0
 10
737.16015625
 20
343.6650390625
 30
0.0
 10
737.0400390625
 20
345.8642578125
 30
0.0
 10
739.810546875
 20
346.234375
 30
0.0
 10
742.609375
 20
346.375
 30
0.0
 10
745.41015625
 20
346.294921875
 30
0.0
 10
746.66015625
 20
346.2646484375
 30
0.0
 10
747.951171875
 20
346.1650390625
 30
0.0
 10
749.0400390625
 20
345.544921875
 30
0.0
 10
750.130859375
 20
344.9248046875
 30
0.0
 10
750.9296875
 20
343.634765625
 30
0.0
 10
750.58984375
 20
342.4345703125
 30
0.0
  0
SPLINE
  5
6F
330
67
100
AcDbEntity
  8
LAYER_1
 62
   250
100
AcDbSpline
210
0.0
220
0.0
230
1.0
 70
    11
 71
     3
 72
    26
 73
    22
 74
     0
 42
0.0000000001
 43
0.0000000001
 40
0.0
 40
0.0
 40
0.0
 40
0.0
 40
1.0
 40
1.0
 40
1.0
 40
2.0
 40
2.0
 40
2.0
 40
3.0
 40
3.0
 40
3.0
 40
4.0
 40
4.0
 40
4.0
 40
5.0
 40
5.0
 40
5.0
 40
6.0
 40
6.0
 40
6.0
 40
7.0
 40
7.0
 40
7.0
 40
7.0
 10
750.58984375
 20
342.4345703125
 30
0.0
 10
750.2099609375
 20
341.1044921875
 30
0.0
 10
748.740234375
 20
340.474609375
 30
0.0
 10
747.419921875
 20
340.0546875
 30
0.0
 10
744.330078125
 20
339.07421875
 30
0.0
 10
741.1796875
 20
338.2841796875
 30
0.0
 10
737.990234375
 20
337.705078125
 30
0.0
 10
737.509765625
 20
338.0244140625
 30
0.0
 10
737.439453125
 20
338.6845703125
 30
0.0
 10
737.400390625
 20
339.2646484375
 30
0.0
 10
737.279296875
 20
341.46484375
 30
0.0
 10
737.16015625
 20
343.6650390625
 30
0.0
 10
737.0400390625
 20
345.8642578125
 30
0.0
 10
739.810546875
 20
346.234375
 30
0.0
 10
742.609375
 20
346.375
 30
0.0
 10
745.41015625
 20
346.294921875
 30
0.0
 10
746.66015625
 20
346.2646484375
 30
0.0
 10
747.951171875
 20
346.1650390625
 30
0.0
 10
749.0400390625
 20
345.544921875
 30
0.0
 10
750.130859375
 20
344.9248046875
 30
0.0
 10
750.9296875
 20
343.634765625
 30
0.0
 10
750.58984375
 20
342.4345703125
 30
0.0
  0
SPLINE
  5
70
330
67
100
AcDbEntity
  8
LAYER_1
 62
   250
100
AcDbSpline
210
0.0
220
0.0
230
1.0
 70
    11
 71
     3
 72
    26
 73
    22
 74
     0
 42
0.0000000001
 43
0.0000000001
 40
0.0
 40
0.0
 40
0.0
 40
0.0
 40
1.0
 40
1.0
 40
1.0
 40
2.0
 40
2.0
 40
2.0
 40
3.0
 40
3.0
 40
3.0
 40
4.0
 40
4.0
 40
4.0
 40
5.0
 40
5.0
 40
5.0
 40
6.0
 40
6.0
 40
6.0
 40
7.0
 40
7.0
 40
7.0
 40
7.0
 10
744.41015625
 20
403.21484375
 30
0.0
 10
744.44921875
 20
402.5048828125
 30
0.0
 10
744.23046875
 20
401.7646484375
 30
0.0
 10
743.7197265625
 20
401.2744140625
 30
0.0
 10
743.380859375
 20
400.96484375
 30
0.0
 10
742.94921875
 20
400.7744140625
 30
0.0
 10
742.51953125
 20
400.6142578125
 30
0.0
 10
739.509765625
 20
399.494140625
 30
0.0
 10
736.23046875
 20
399.3642578125
 30
0.0
 10
733.01953125
 20
399.2548828125
 30
0.0
 10
732.6796875
 20
402.4345703125
 30
0.0
 10
732.650390625
 20
405.654296875
 30
0.0
 10
732.919921875
 20
408.8544921875
 30
0.0
 10
734.5400390625
 20
408.5546875
 30
0.0
 10
736.150390625
 20
408.2548828125
 30
0.0
 10
737.76953125
 20
407.96484375
 30
0.0
 10
739.2197265625
 20
407.6943359375
 30
0.0
 10
740.69921875
 20
407.4150390625
 30
0.0
 10
741.9892578125
 20
406.6943359375
 30
0.0
 10
743.26953125
 20
405.96484375
 30
0.0
 10
744.33984375
 20
404.6845703125
 30
0.0
 10
744.41015625
 20
403.21484375
 30
0.0
  0
SPLINE
  5
71
330
67
100
AcDbEntity
  8
LAYER_1
 62
   250
100
AcDbSpline
210
0.0
220
0.0
230
1.0
 70
    11
 71
     3
 72
    29
 73
    25
 74
     0
 42
0.0000000001
 43
0.0000000001
 40
0.0
 40
0.0
 40
0.0
 40
0.0
 40
1.0
 40
1.0
 40
1.0
 40
2.0
 40
2.0
 40
2.0
 40
3.0
 40
3.0
 40
3.0
 40
4.0
 40
4.0
 40
4.0
 40
5.0
 40
5.0
 40
5.0
 40
6.0
 40
6.0
 40
6.0
 40
7.0
 40
7.0
 40
7.0
 40
8.0
 40
8.0
 40
8.0
 40
8.0
 10
749.8896484375
 20
371.314453125
 30
0.0
 10
749.4892578125
 20
370.7744140625
 30
0.0
 10
748.87109375
 20
370.4345703125
 30
0.0
 10
748.26953125
 20
370.134765625
 30
0.0
 10
744.7099609375
 20
368.375
 30
0.0
 10
740.8193359375
 20
367.3046875
 30
0.0
 10
736.859375
 20
367.0048828125
 30
0.0
 10
736.7900390625
 20
367.0048828125
 30
0.0
 10
736.7099609375
 20
366.994140625
 30
0.0
 10
736.6396484375
 20
367.044921875
 30
0.0
 10
736.560546875
 20
367.0947265625
 30
0.0
 10
736.5400390625
 20
367.205078125
 30
0.0
 10
736.529296875
 20
367.3046875
 30
0.0
 10
736.1396484375
 20
370.125
 30
0.0
 10
735.9697265625
 20
372.984375
 30
0.0
 10
736.029296875
 20
375.8349609375
 30
0.0
 10
738.859375
 20
376.564453125
 30
0.0
 10
741.80078125
 20
376.8447265625
 30
0.0
 10
744.7099609375
 20
376.6748046875
 30
0.0
 10
746.2392578125
 20
376.5849609375
 30
0.0
 10
747.83984375
 20
376.3349609375
 30
0.0
 10
749.0400390625
 20
375.384765625
 30
0.0
 10
750.23046875
 20
374.4248046875
 30
0.0
 10
750.80078125
 20
372.544921875
 30
0.0
 10
749.8896484375
 20
371.314453125
 30
0.0
  0
SPLINE
  5
72
330
67
100
AcDbEntity
  8
LAYER_1
 62
   250
100
AcDbSpline
210
0.0
220
0.0
230
1.0
 70
    11
 71
     3
 72
    17
 73
    13
 74
     0
 42
0.0000000001
 43
0.0000000001
 40
0.0
 40
0.0
 40
0.0
 40
0.0
 40
1.0
 40
1.0
 40
1.0
 40
2.0
 40
2.0
 40
2.0
 40
3.0
 40
3.0
 40
3.0
 40
4.0
 40
4.0
 40
4.0
 40
4.0
 10
696.83984375
 20
304.404296875
 30
0.0
 10
696.951171875
 20
306.5048828125
 30
0.0
 10
697.279296875
 20
311.244140625
 30
0.0
 10
696.5
 20
312.544921875
 30
0.0
 10
696.419921875
 20
312.6142578125
 30
0.0
 10
696.48046875
 20
312.794921875
 30
0.0
 10
696.650390625
 20
312.9150390625
 30
0.0
 10
699.0
 20
312.744140625
 30
0.0
 10
704.1796875
 20
314.064453125
 30
0.0
 10
705.380859375
 20
311.21484375
 30
0.0
 10
706.9599609375
 20
307.4443359375
 30
0.0
 10
699.599609375
 20
303.6943359375
 30
0.0
 10
696.83984375
 20
304.404296875
 30
0.0
  0
SPLINE
  5
73
330
67
100
AcDbEntity
  8
LAYER_1
 62
     7
100
AcDbSpline
210
0.0
220
0.0
230
1.0
 70
    11
 71
     3
 72
    65
 73
    61
 74
     0
 42
0.0000000001
 43
0.0000000001
 40
0.0
 40
0.0
 40
0.0
 40
0.0
 40
1.0
 40
1.0
 40
1.0
 40
2.0
 40
2.0
 40
2.0
 40
3.0
 40
3.0
 40
3.0
 40
4.0
 40
4.0
 40
4.0
 40
5.0
 40
5.0
 40
5.0
 40
6.0
 40
6.0
 40
6.0
 40
7.0
 40
7.0
 40
7.0
 40
8.0
 40
8.0
 40
8.0
 40
9.0
 40
9.0
 40
9.0
 40
10.0
 40
10.0
 40
10.0
 40
11.0
 40
11.0
 40
11.0
 40
12.0
 40
12.0
 40
12.0
 40
13.0
 40
13.0
 40
13.0
 40
14.0
 40
14.0
 40
14.0
 40
15.0
 40
15.0
 40
15.0
 40
16.0
 40
16.0
 40
16.0
 40
17.0
 40
17.0
 40
17.0
 40
18.0
 40
18.0
 40
18.0
 40
19.0
 40
19.0
 40
19.0
 40
20.0
 40
20.0
 40
20.0
 40
20.0
 10
596.8046875
 20
331.7822265625
 30
0.0
 10
596.8046875
 20
331.7822265625
 30
0.0
 10
595.666015625
 20
331.7822265625
 30
0.0
 10
595.666015625
 20
331.7822265625
 30
0.0
 10
594.9189453125
 20
330.4912109375
 30
0.0
 10
593.84375
 20
329.4150390625
 30
0.0
 10
592.5517578125
 20
328.66796875
 30
0.0
 10
592.5517578125
 20
328.66796875
 30
0.0
 10
592.5517578125
 20
327.5302734375
 30
0.0
 10
592.5517578125
 20
327.5302734375
 30
0.0
 10
592.5517578125
 20
327.5302734375
 30
0.0
 10
588.30078125
 20
327.5302734375
 30
0.0
 10
588.30078125
 20
327.5302734375
 30
0.0
 10
588.30078125
 20
327.5302734375
 30
0.0
 10
584.0478515625
 20
327.5302734375
 30
0.0
 10
584.0478515625
 20
327.5302734375
 30
0.0
 10
584.0478515625
 20
327.5302734375
 30
0.0
 10
584.0478515625
 20
328.66796875
 30
0.0
 10
584.0478515625
 20
328.66796875
 30
0.0
 10
582.7568359375
 20
329.4150390625
 30
0.0
 10
581.681640625
 20
330.4912109375
 30
0.0
 10
580.93359375
 20
331.7822265625
 30
0.0
 10
580.93359375
 20
331.7822265625
 30
0.0
 10
579.796875
 20
331.7822265625
 30
0.0
 10
579.796875
 20
331.7822265625
 30
0.0
 10
579.796875
 20
331.7822265625
 30
0.0
 10
579.796875
 20
336.0341796875
 30
0.0
 10
579.796875
 20
336.0341796875
 30
0.0
 10
579.796875
 20
336.0341796875
 30
0.0
 10
579.796875
 20
340.2861328125
 30
0.0
 10
579.796875
 20
340.2861328125
 30
0.0
 10
579.796875
 20
340.2861328125
 30
0.0
 10
580.93359375
 20
340.2861328125
 30
0.0
 10
580.93359375
 20
340.2861328125
 30
0.0
 10
581.681640625
 20
341.5771484375
 30
0.0
 10
582.7568359375
 20
342.65234375
 30
0.0
 10
584.0478515625
 20
343.3994140625
 30
0.0
 10
584.0478515625
 20
343.3994140625
 30
0.0
 10
584.0478515625
 20
344.5380859375
 30
0.0
 10
584.0478515625
 20
344.5380859375
 30
0.0
 10
584.0478515625
 20
344.5380859375
 30
0.0
 10
588.30078125
 20
344.5380859375
 30
0.0
 10
588.30078125
 20
344.5380859375
 30
0.0
 10
588.30078125
 20
344.5380859375
 30
0.0
 10
592.5517578125
 20
344.5380859375
 30
0.0
 10
592.5517578125
 20
344.5380859375
 30
0.0
 10
592.5517578125
 20
344.5380859375
 30
0.0
 10
592.5517578125
 20
343.3994140625
 30
0.0
 10
592.5517578125
 20
343.3994140625
 30
0.0
 10
593.84375
 20
342.65234375
 30
0.0
 10
594.9189453125
 20
341.5771484375
 30
0.0
 10
595.666015625
 20
340.2861328125
 30
0.0
 10
595.666015625
 20
340.2861328125
 30
0.0
 10
596.8046875
 20
340.2861328125
 30
0.0
 10
596.8046875
 20
340.2861328125
 30
0.0
 10
596.8046875
 20
340.2861328125
 30
0.0
 10
596.8046875
 20
336.0341796875
 30
0.0
 10
596.8046875
 20
336.0341796875
 30
0.0
 10
596.8046875
 20
336.0341796875
 30
0.0
 10
596.8046875
 20
331.7822265625
 30
0.0
 10
596.8046875
 20
331.7822265625
 30
0.0
  0
POLYLINE
  5
74
330
67
100
AcDbEntity
  8
LAYER_1
 62
     7
100
AcDb2dPolyline
 66
     1
 10
0.0
 20
0.0
 30
0.0
  0
VERTEX
  5
75
330
74
100
AcDbEntity
  8
LAYER_1
 62
     7
100
AcDbVertex
100
AcDb2dVertex
 10
592.5517578125
 20
355.876953125
 30
0.0
  0
VERTEX
  5
76
330
74
100
AcDbEntity
  8
LAYER_1
 62
     7
100
AcDbVertex
100
AcDb2dVertex
 10
584.0478515625
 20
355.876953125
 30
0.0
  0
VERTEX
  5
77
330
74
100
AcDbEntity
  8
LAYER_1
 62
     7
100
AcDbVertex
100
AcDb2dVertex
 10
584.0478515625
 20
372.884765625
 30
0.0
  0
VERTEX
  5
78
330
74
100
AcDbEntity
  8
LAYER_1
 62
     7
100
AcDbVertex
100
AcDb2dVertex
 10
592.5517578125
 20
372.884765625
 30
0.0
  0
VERTEX
  5
79
330
74
100
AcDbEntity
  8
LAYER_1
 62
     7
100
AcDbVertex
100
AcDb2dVertex
 10
592.5517578125
 20
355.876953125
 30
0.0
  0
SEQEND
  5
7A
330
74
100
AcDbEntity
  8
LAYER_1
  0
SPLINE
  5
7B
330
67
100
AcDbEntity
  8
LAYER_1
 62
     7
100
AcDbSpline
210
0.0
220
0.0
230
1.0
 70
    11
 71
     3
 72
    65
 73
    61
 74
     0
 42
0.0000000001
 43
0.0000000001
 40
0.0
 40
0.0
 40
0.0
 40
0.0
 40
1.0
 40
1.0
 40
1.0
 40
2.0
 40
2.0
 40
2.0
 40
3.0
 40
3.0
 40
3.0
 40
4.0
 40
4.0
 40
4.0
 40
5.0
 40
5.0
 40
5.0
 40
6.0
 40
6.0
 40
6.0
 40
7.0
 40
7.0
 40
7.0
 40
8.0
 40
8.0
 40
8.0
 40
9.0
 40
9.0
 40
9.0
 40
10.0
 40
10.0
 40
10.0
 40
11.0
 40
11.0
 40
11.0
 40
12.0
 40
12.0
 40
12.0
 40
13.0
 40
13.0
 40
13.0
 40
14.0
 40
14.0
 40
14.0
 40
15.0
 40
15.0
 40
15.0
 40
16.0
 40
16.0
 40
16.0
 40
17.0
 40
17.0
 40
17.0
 40
18.0
 40
18.0
 40
18.0
 40
19.0
 40
19.0
 40
19.0
 40
20.0
 40
20.0
 40
20.0
 40
20.0
 10
596.8046875
 20
388.474609375
 30
0.0
 10
596.8046875
 20
388.474609375
 30
0.0
 10
595.666015625
 20
388.474609375
 30
0.0
 10
595.666015625
 20
388.474609375
 30
0.0
 10
594.9189453125
 20
387.18359375
 30
0.0
 10
593.84375
 20
386.107421875
 30
0.0
 10
592.5517578125
 20
385.3603515625
 30
0.0
 10
592.5517578125
 20
385.3603515625
 30
0.0
 10
592.5517578125
 20
384.22265625
 30
0.0
 10
592.5517578125
 20
384.22265625
 30
0.0
 10
592.5517578125
 20
384.22265625
 30
0.0
 10
588.30078125
 20
384.22265625
 30
0.0
 10
588.30078125
 20
384.22265625
 30
0.0
 10
588.30078125
 20
384.22265625
 30
0.0
 10
584.0478515625
 20
384.22265625
 30
0.0
 10
584.0478515625
 20
384.22265625
 30
0.0
 10
584.0478515625
 20
384.22265625
 30
0.0
 10
584.0478515625
 20
385.3603515625
 30
0.0
 10
584.0478515625
 20
385.3603515625
 30
0.0
 10
582.7568359375
 20
386.107421875
 30
0.0
 10
581.681640625
 20
387.18359375
 30
0.0
 10
580.93359375
 20
388.474609375
 30
0.0
 10
580.93359375
 20
388.474609375
 30
0.0
 10
579.796875
 20
388.474609375
 30
0.0
 10
579.796875
 20
388.474609375
 30
0.0
 10
579.796875
 20
388.474609375
 30
0.0
 10
579.796875
 20
392.7265625
 30
0.0
 10
579.796875
 20
392.7265625
 30
0.0
 10
579.796875
 20
392.7265625
 30
0.0
 10
579.796875
 20
396.978515625
 30
0.0
 10
579.796875
 20
396.978515625
 30
0.0
 10
579.796875
 20
396.978515625
 30
0.0
 10
580.93359375
 20
396.978515625
 30
0.0
 10
580.93359375
 20
396.978515625
 30
0.0
 10
581.681640625
 20
398.26953125
 30
0.0
 10
582.7568359375
 20
399.345703125
 30
0.0
 10
584.0478515625
 20
400.0927734375
 30
0.0
 10
584.0478515625
 20
400.0927734375
 30
0.0
 10
584.0478515625
 20
401.23046875
 30
0.0
 10
584.0478515625
 20
401.23046875
 30
0.0
 10
584.0478515625
 20
401.23046875
 30
0.0
 10
588.30078125
 20
401.23046875
 30
0.0
 10
588.30078125
 20
401.23046875
 30
0.0
 10
588.30078125
 20
401.23046875
 30
0.0
 10
592.5517578125
 20
401.23046875
 30
0.0
 10
592.5517578125
 20
401.23046875
 30
0.0
 10
592.5517578125
 20
401.23046875
 30
0.0
 10
592.5517578125
 20
400.0927734375
 30
0.0
 10
592.5517578125
 20
400.0927734375
 30
0.0
 10
593.84375
 20
399.345703125
 30
0.0
 10
594.9189453125
 20
398.26953125
 30
0.0
 10
595.666015625
 20
396.978515625
 30
0.0
 10
595.666015625
 20
396.978515625
 30
0.0
 10
596.8046875
 20
396.978515625
 30
0.0
 10
596.8046875
 20
396.978515625
 30
0.0
 10
596.8046875
 20
396.978515625
 30
0.0
 10
596.8046875
 20
392.7265625
 30
0.0
 10
596.8046875
 20
392.7265625
 30
0.0
 10
596.8046875
 20
392.7265625
 30
0.0
 10
596.8046875
 20
388.474609375
 30
0.0
 10
596.8046875
 20
388.474609375
 30
0.0
  0
SPLINE
  5
7C
330
67
100
AcDbEntity
  8
LAYER_1
 62
   250
100
AcDbSpline
210
0.0
220
0.0
230
1.0
 70
    11
 71
     3
 72
   155
 73
   151
 74
     0
 42
0.0000000001
 43
0.0000000001
 40
0.0
 40
0.0
 40
0.0
 40
0.0
 40
1.0
 40
1.0
 40
1.0
 40
2.0
 40
2.0
 40
2.0
 40
3.0
 40
3.0
 40
3.0
 40
4.0
 40
4.0
 40
4.0
 40
5.0
 40
5.0
 40
5.0
 40
6.0
 40
6.0
 40
6.0
 40
7.0
 40
7.0
 40
7.0
 40
8.0
 40
8.0
 40
8.0
 40
9.0
 40
9.0
 40
9.0
 40
10.0
 40
10.0
 40
10.0
 40
11.0
 40
11.0
 40
11.0
 40
12.0
 40
12.0
 40
12.0
 40
13.0
 40
13.0
 40
13.0
 40
14.0
 40
14.0
 40
14.0
 40
15.0
 40
15.0
 40
15.0
 40
16.0
 40
16.0
 40
16.0
 40
17.0
 40
17.0
 40
17.0
 40
18.0
 40
18.0
 40
18.0
 40
19.0
 40
19.0
 40
19.0
 40
20.0
 40
20.0
 40
20.0
 40
21.0
 40
21.0
 40
21.0
 40
22.0
 40
22.0
 40
22.0
 40
23.0
 40
23.0
 40
23.0
 40
24.0
 40
24.0
 40
24.0
 40
25.0
 40
25.0
 40
25.0
 40
26.0
 40
26.0
 40
26.0
 40
27.0
 40
27.0
 40
27.0
 40
28.0
 40
28.0
 40
28.0
 40
29.0
 40
29.0
 40
29.0
 40
30.0
 40
30.0
 40
30.0
 40
31.0
 40
31.0
 40
31.0
 40
32.0
 40
32.0
 40
32.0
 40
33.0
 40
33.0
 40
33.0
 40
34.0
 40
34.0
 40
34.0
 40
35.0
 40
35.0
 40
35.0
 40
36.0
 40
36.0
 40
36.0
 40
37.0
 40
37.0
 40
37.0
 40
38.0
 40
38.0
 40
38.0
 40
39.0
 40
39.0
 40
39.0
 40
40.0
 40
40.0
 40
40.0
 40
41.0
 40
41.0
 40
41.0
 40
42.0
 40
42.0
 40
42.0
 40
43.0
 40
43.0
 40
43.0
 40
44.0
 40
44.0
 40
44.0
 40
45.0
 40
45.0
 40
45.0
 40
46.0
 40
46.0
 40
46.0
 40
47.0
 40
47.0
 40
47.0
 40
48.0
 40
48.0
 40
48.0
 40
49.0
 40
49.0
 40
49.0
 40
50.0
 40
50.0
 40
50.0
 40
50.0
 10
734.0849609375
 20
331.4794921875
 30
0.0
 10
726.1611328125
 20
329.9228515625
 30
0.0
 10
718.134765625
 20
328.8857421875
 30
0.0
 10
710.0703125
 20
328.384765625
 30
0.0
 10
704.75
 20
328.044921875
 30
0.0
 10
699.41015625
 20
327.9443359375
 30
0.0
 10
694.0703125
 20
328.07421875
 30
0.0
 10
691.400390625
 20
328.134765625
 30
0.0
 10
688.740234375
 20
328.2646484375
 30
0.0
 10
686.080078125
 20
328.4443359375
 30
0.0
 10
683.982421875
 20
328.5869140625
 30
0.0
 10
681.916015625
 20
329.0888671875
 30
0.0
 10
679.853515625
 20
329.4755859375
 30
0.0
 10
679.71484375
 20
329.501953125
 30
0.0
 10
679.5625
 20
329.5263671875
 30
0.0
 10
679.4384765625
 20
329.458984375
 30
0.0
 10
679.318359375
 20
329.3935546875
 30
0.0
 10
679.255859375
 20
329.2607421875
 30
0.0
 10
679.203125
 20
329.134765625
 30
0.0
 10
678.2900390625
 20
326.927734375
 30
0.0
 10
678.228515625
 20
324.1025390625
 30
0.0
 10
679.91015625
 20
322.234375
 30
0.0
 10
681.80078125
 20
320.134765625
 30
0.0
 10
684.701171875
 20
319.3046875
 30
0.0
 10
687.4599609375
 20
318.744140625
 30
0.0
 10
690.30078125
 20
318.1650390625
 30
0.0
 10
693.1796875
 20
317.7841796875
 30
0.0
 10
696.0703125
 20
317.64453125
 30
0.0
 10
699.05078125
 20
317.494140625
 30
0.0
 10
702.109375
 20
317.6044921875
 30
0.0
 10
704.919921875
 20
316.6044921875
 30
0.0
 10
707.73046875
 20
315.6044921875
 30
0.0
 10
710.2900390625
 20
313.125
 30
0.0
 10
710.279296875
 20
310.134765625
 30
0.0
 10
710.259765625
 20
306.7744140625
 30
0.0
 10
707.189453125
 20
304.32421875
 30
0.0
 10
704.3896484375
 20
302.455078125
 30
0.0
 10
702.599609375
 20
301.2646484375
 30
0.0
 10
700.76953125
 20
300.07421875
 30
0.0
 10
698.75
 20
299.3349609375
 30
0.0
 10
695.2197265625
 20
298.064453125
 30
0.0
 10
691.3203125
 20
298.244140625
 30
0.0
 10
687.630859375
 20
298.904296875
 30
0.0
 10
668.150390625
 20
302.375
 30
0.0
 10
650.701171875
 20
318.224609375
 30
0.0
 10
643.099609375
 20
336.134765625
 30
0.0
 10
641.4296875
 20
340.07421875
 30
0.0
 10
640.080078125
 20
344.14453125
 30
0.0
 10
639.0703125
 20
348.3046875
 30
0.0
 10
639.0703125
 20
348.3046875
 30
0.0
 10
606.73046875
 20
348.3046875
 30
0.0
 10
606.73046875
 20
348.3046875
 30
0.0
 10
606.73046875
 20
348.3046875
 30
0.0
 10
606.73046875
 20
385.154296875
 30
0.0
 10
606.73046875
 20
385.154296875
 30
0.0
 10
606.73046875
 20
385.154296875
 30
0.0
 10
640.330078125
 20
385.154296875
 30
0.0
 10
640.330078125
 20
385.154296875
 30
0.0
 10
643.0703125
 20
391.0849609375
 30
0.0
 10
646.349609375
 20
396.6142578125
 30
0.0
 10
651.2099609375
 20
401.044921875
 30
0.0
 10
656.3486328125
 20
405.744140625
 30
0.0
 10
662.6611328125
 20
409.3671875
 30
0.0
 10
668.97265625
 20
412.18359375
 30
0.0
 10
670.529296875
 20
412.8798828125
 30
0.0
 10
672.154296875
 20
413.49609375
 30
0.0
 10
673.736328125
 20
414.1328125
 30
0.0
 10
677.0634765625
 20
415.4736328125
 30
0.0
 10
680.41796875
 20
416.26171875
 30
0.0
 10
684.001953125
 20
416.123046875
 30
0.0
 10
686.212890625
 20
416.037109375
 30
0.0
 10
688.455078125
 20
415.919921875
 30
0.0
 10
690.5771484375
 20
415.3271484375
 30
0.0
 10
695.373046875
 20
413.98828125
 30
0.0
 10
700.298828125
 20
414.4697265625
 30
0.0
 10
705.287109375
 20
414.4306640625
 30
0.0
 10
710.689453125
 20
414.3876953125
 30
0.0
 10
716.09375
 20
414.244140625
 30
0.0
 10
721.490234375
 20
413.994140625
 30
0.0
 10
727.5400390625
 20
413.71484375
 30
0.0
 10
734.169921875
 20
413.4443359375
 30
0.0
 10
740.08984375
 20
412.1650390625
 30
0.0
 10
743.599609375
 20
411.4150390625
 30
0.0
 10
747.4599609375
 20
409.744140625
 30
0.0
 10
748.490234375
 20
406.314453125
 30
0.0
 10
749.48046875
 20
403.0146484375
 30
0.0
 10
747.25
 20
399.4443359375
 30
0.0
 10
744.259765625
 20
397.744140625
 30
0.0
 10
741.740234375
 20
396.3115234375
 30
0.0
 10
738.810546875
 20
396.126953125
 30
0.0
 10
736.0
 20
395.7587890625
 30
0.0
 10
732.634765625
 20
395.3173828125
 30
0.0
 10
729.27734375
 20
394.7900390625
 30
0.0
 10
725.9150390625
 20
394.3232421875
 30
0.0
 10
720.0068359375
 20
393.505859375
 30
0.0
 10
714.09375
 20
392.734375
 30
0.0
 10
708.171875
 20
392.01171875
 30
0.0
 10
705.89453125
 20
391.7333984375
 30
0.0
 10
703.578125
 20
391.79296875
 30
0.0
 10
701.310546875
 20
391.4501953125
 30
0.0
 10
699.1328125
 20
391.1220703125
 30
0.0
 10
695.90234375
 20
390.2626953125
 30
0.0
 10
695.59375
 20
387.6328125
 30
0.0
 10
695.3779296875
 20
385.77734375
 30
0.0
 10
697.267578125
 20
385.1845703125
 30
0.0
 10
698.73046875
 20
384.984375
 30
0.0
 10
710.87109375
 20
383.314453125
 30
0.0
 10
723.109375
 20
382.314453125
 30
0.0
 10
735.359375
 20
381.984375
 30
0.0
 10
740.310546875
 20
381.8544921875
 30
0.0
 10
745.380859375
 20
381.814453125
 30
0.0
 10
750.029296875
 20
380.0947265625
 30
0.0
 10
751.9599609375
 20
379.384765625
 30
0.0
 10
753.900390625
 20
378.2646484375
 30
0.0
 10
754.7900390625
 20
376.4150390625
 30
0.0
 10
755.650390625
 20
374.6044921875
 30
0.0
 10
755.310546875
 20
372.39453125
 30
0.0
 10
754.3203125
 20
370.654296875
 30
0.0
 10
752.05078125
 20
366.64453125
 30
0.0
 10
747.109375
 20
365.134765625
 30
0.0
 10
742.609375
 20
364.1142578125
 30
0.0
 10
730.560546875
 20
361.375
 30
0.0
 10
718.30078125
 20
359.57421875
 30
0.0
 10
705.98046875
 20
358.744140625
 30
0.0
 10
704.099609375
 20
358.6142578125
 30
0.0
 10
702.099609375
 20
358.46484375
 30
0.0
 10
700.609375
 20
357.32421875
 30
0.0
 10
699.12109375
 20
356.1845703125
 30
0.0
 10
698.560546875
 20
353.654296875
 30
0.0
 10
700.009765625
 20
352.46484375
 30
0.0
 10
700.6796875
 20
351.9248046875
 30
0.0
 10
701.58984375
 20
351.7841796875
 30
0.0
 10
702.439453125
 20
351.6943359375
 30
0.0
 10
713.060546875
 20
350.46484375
 30
0.0
 10
723.80078125
 20
351.21484375
 30
0.0
 10
734.48046875
 20
351.0146484375
 30
0.0
 10
738.189453125
 20
350.9443359375
 30
0.0
 10
741.8896484375
 20
350.7646484375
 30
0.0
 10
745.580078125
 20
350.3447265625
 30
0.0
 10
748.4296875
 20
350.0244140625
 30
0.0
 10
751.560546875
 20
349.384765625
 30
0.0
 10
753.259765625
 20
347.07421875
 30
0.0
 10
755.349609375
 20
344.224609375
 30
0.0
 10
754.189453125
 20
339.955078125
 30
0.0
 10
751.630859375
 20
337.5244140625
 30
0.0
 10
749.0703125
 20
335.0947265625
 30
0.0
 10
745.509765625
 20
334.07421875
 30
0.0
 10
742.080078125
 20
333.234375
 30
0.0
 10
739.427734375
 20
332.5908203125
 30
0.0
 10
736.763671875
 20
332.005859375
 30
0.0
 10
734.0849609375
 20
331.4794921875
 30
0.0
  0
SPLINE
  5
7D
330
67
100
AcDbEntity
  8
LAYER_1
 62
   250
100
AcDbSpline
210
0.0
220
0.0
230
1.0
 70
    11
 71
     3
 72
    29
 73
    25
 74
     0
 42
0.0000000001
 43
0.0000000001
 40
0.0
 40
0.0
 40
0.0
 40
0.0
 40
1.0
 40
1.0
 40
1.0
 40
2.0
 40
2.0
 40
2.0
 40
3.0
 40
3.0
 40
3.0
 40
4.0
 40
4.0
 40
4.0
 40
5.0
 40
5.0
 40
5.0
 40
6.0
 40
6.0
 40
6.0
 40
7.0
 40
7.0
 40
7.0
 40
8.0
 40
8.0
 40
8.0
 40
8.0
 10
736.029296875
 20
375.8349609375
 30
0.0
 10
738.859375
 20
376.564453125
 30
0.0
 10
741.80078125
 20
376.8447265625
 30
0.0
 10
744.7099609375
 20
376.6748046875
 30
0.0
 10
746.240234375
 20
376.5849609375
 30
0.0
 10
747.83984375
 20
376.3349609375
 30
0.0
 10
749.0400390625
 20
375.384765625
 30
0.0
 10
750.23046875
 20
374.4248046875
 30
0.0
 10
750.80078125
 20
372.544921875
 30
0.0
 10
749.8896484375
 20
371.314453125
 30
0.0
 10
749.490234375
 20
370.7744140625
 30
0.0
 10
748.87109375
 20
370.4345703125
 30
0.0
 10
748.26953125
 20
370.134765625
 30
0.0
 10
744.7099609375
 20
368.375
 30
0.0
 10
740.8203125
 20
367.3046875
 30
0.0
 10
736.859375
 20
367.0048828125
 30
0.0
 10
736.7900390625
 20
367.0048828125
 30
0.0
 10
736.7099609375
 20
366.994140625
 30
0.0
 10
736.6396484375
 20
367.044921875
 30
0.0
 10
736.560546875
 20
367.0947265625
 30
0.0
 10
736.5400390625
 20
367.205078125
 30
0.0
 10
736.529296875
 20
367.3046875
 30
0.0
 10
736.1396484375
 20
370.125
 30
0.0
 10
735.9697265625
 20
372.984375
 30
0.0
 10
736.029296875
 20
375.8349609375
 30
0.0
  0
SPLINE
  5
7E
330
67
100
AcDbEntity
  8
LAYER_1
 62
   250
100
AcDbSpline
210
0.0
220
0.0
230
1.0
 70
    11
 71
     3
 72
    26
 73
    22
 74
     0
 42
0.0000000001
 43
0.0000000001
 40
0.0
 40
0.0
 40
0.0
 40
0.0
 40
1.0
 40
1.0
 40
1.0
 40
2.0
 40
2.0
 40
2.0
 40
3.0
 40
3.0
 40
3.0
 40
4.0
 40
4.0
 40
4.0
 40
5.0
 40
5.0
 40
5.0
 40
6.0
 40
6.0
 40
6.0
 40
7.0
 40
7.0
 40
7.0
 40
7.0
 10
732.919921875
 20
408.8544921875
 30
0.0
 10
734.5400390625
 20
408.5546875
 30
0.0
 10
736.150390625
 20
408.2548828125
 30
0.0
 10
737.76953125
 20
407.96484375
 30
0.0
 10
739.2197265625
 20
407.6943359375
 30
0.0
 10
740.701171875
 20
407.4150390625
 30
0.0
 10
741.990234375
 20
406.6943359375
 30
0.0
 10
743.26953125
 20
405.96484375
 30
0.0
 10
744.33984375
 20
404.6845703125
 30
0.0
 10
744.41015625
 20
403.21484375
 30
0.0
 10
744.451171875
 20
402.5048828125
 30
0.0
 10
744.23046875
 20
401.7646484375
 30
0.0
 10
743.7197265625
 20
401.2744140625
 30
0.0
 10
743.380859375
 20
400.96484375
 30
0.0
 10
742.951171875
 20
400.7744140625
 30
0.0
 10
742.51953125
 20
400.6142578125
 30
0.0
 10
739.509765625
 20
399.494140625
 30
0.0
 10
736.23046875
 20
399.3642578125
 30
0.0
 10
733.01953125
 20
399.2548828125
 30
0.0
 10
732.6796875
 20
402.4345703125
 30
0.0
 10
732.650390625
 20
405.654296875
 30
0.0
 10
732.919921875
 20
408.8544921875
 30
0.0
  0
SPLINE
  5
7F
330
67
100
AcDbEntity
  8
LAYER_1
 62
   250
100
AcDbSpline
210
0.0
220
0.0
230
1.0
 70
    11
 71
     3
 72
    17
 73
    13
 74
     0
 42
0.0000000001
 43
0.0000000001
 40
0.0
 40
0.0
 40
0.0
 40
0.0
 40
1.0
 40
1.0
 40
1.0
 40
2.0
 40
2.0
 40
2.0
 40
3.0
 40
3.0
 40
3.0
 40
4.0
 40
4.0
 40
4.0
 40
4.0
 10
696.650390625
 20
312.9150390625
 30
0.0
 10
699.0
 20
312.744140625
 30
0.0
 10
704.1796875
 20
314.064453125
 30
0.0
 10
705.380859375
 20
311.21484375
 30
0.0
 10
706.9599609375
 20
307.4443359375
 30
0.0
 10
699.599609375
 20
303.6943359375
 30
0.0
 10
696.83984375
 20
304.404296875
 30
0.0
 10
696.951171875
 20
306.5048828125
 30
0.0
 10
697.279296875
 20
311.244140625
 30
0.0
 10
696.5
 20
312.544921875
 30
0.0
 10
696.419921875
 20
312.6142578125
 30
0.0
 10
696.48046875
 20
312.794921875
 30
0.0
 10
696.650390625
 20
312.9150390625
 30
0.0
  0
SPLINE
  5
80
330
67
100
AcDbEntity
  8
LAYER_1
 62
   250
100
AcDbSpline
210
0.0
220
0.0
230
1.0
 70
    11
 71
     3
 72
    26
 73
    22
 74
     0
 42
0.0000000001
 43
0.0000000001
 40
0.0
 40
0.0
 40
0.0
 40
0.0
 40
1.0
 40
1.0
 40
1.0
 40
2.0
 40
2.0
 40
2.0
 40
3.0
 40
3.0
 40
3.0
 40
4.0
 40
4.0
 40
4.0
 40
5.0
 40
5.0
 40
5.0
 40
6.0
 40
6.0
 40
6.0
 40
7.0
 40
7.0
 40
7.0
 40
7.0
 10
750.58984375
 20
342.4345703125
 30
0.0
 10
750.2099609375
 20
341.1044921875
 30
0.0
 10
748.740234375
 20
340.474609375
 30
0.0
 10
747.419921875
 20
340.0546875
 30
0.0
 10
744.330078125
 20
339.07421875
 30
0.0
 10
741.1796875
 20
338.2841796875
 30
0.0
 10
737.990234375
 20
337.705078125
 30
0.0
 10
737.509765625
 20
338.0244140625
 30
0.0
 10
737.439453125
 20
338.6845703125
 30
0.0
 10
737.400390625
 20
339.2646484375
 30
0.0
 10
737.279296875
 20
341.46484375
 30
0.0
 10
737.16015625
 20
343.6650390625
 30
0.0
 10
737.0400390625
 20
345.8642578125
 30
0.0
 10
739.810546875
 20
346.234375
 30
0.0
 10
742.609375
 20
346.375
 30
0.0
 10
745.41015625
 20
346.294921875
 30
0.0
 10
746.66015625
 20
346.2646484375
 30
0.0
 10
747.951171875
 20
346.1650390625
 30
0.0
 10
749.0400390625
 20
345.544921875
 30
0.0
 10
750.130859375
 20
344.9248046875
 30
0.0
 10
750.9296875
 20
343.634765625
 30
0.0
 10
750.58984375
 20
342.4345703125
 30
0.0
  0
POLYLINE
  5
81
330
67
100
AcDbEntity
  8
LAYER_1
 62
   250
100
AcDb2dPolyline
 66
     1
 10
0.0
 20
0.0
 30
0.0
  0
VERTEX
  5
82
330
81
100
AcDbEntity
  8
LAYER_1
 62
   250
100
AcDbVertex
100
AcDb2dVertex
 10
640.830078125
 20
385.154296875
 30
0.0
  0
VERTEX
  5
83
330
81
100
AcDbEntity
  8
LAYER_1
 62
   250
100
AcDbVertex
100
AcDb2dVertex
 10
640.330078125
 20
385.154296875
 30
0.0
  0
SEQEND
  5
84
330
81
100
AcDbEntity
  8
LAYER_1
  0
SPLINE
  5
85
330
67
100
AcDbEntity
  8
LAYER_1
 62
   250
100
AcDbSpline
210
0.0
220
0.0
230
1.0
 70
     8
 71
     3
 72
    29
 73
    25
 74
     0
 42
0.0000000001
 43
0.0000000001
 40
0.0
 40
0.0
 40
0.0
 40
0.0
 40
1.0
 40
1.0
 40
1.0
 40
2.0
 40
2.0
 40
2.0
 40
3.0
 40
3.0
 40
3.0
 40
4.0
 40
4.0
 40
4.0
 40
5.0
 40
5.0
 40
5.0
 40
6.0
 40
6.0
 40
6.0
 40
7.0
 40
7.0
 40
7.0
 40
8.0
 40
8.0
 40
8.0
 40
8.0
 10
606.73046875
 20
385.154296875
 30
0.0
 10
606.73046875
 20
385.154296875
 30
0.0
 10
606.73046875
 20
385.884765625
 30
0.0
 10
606.73046875
 20
385.884765625
 30
0.0
 10
606.73046875
 20
385.884765625
 30
0.0
 10
606.73046875
 20
411.8544921875
 30
0.0
 10
606.73046875
 20
411.8544921875
 30
0.0
 10
606.73046875
 20
411.8544921875
 30
0.0
 10
584.05078125
 20
411.8544921875
 30
0.0
 10
584.05078125
 20
411.8544921875
 30
0.0
 10
576.220703125
 20
411.8544921875
 30
0.0
 10
569.880859375
 20
405.5048828125
 30
0.0
 10
569.880859375
 20
397.6748046875
 30
0.0
 10
569.880859375
 20
397.6748046875
 30
0.0
 10
569.880859375
 20
331.7841796875
 30
0.0
 10
569.880859375
 20
331.7841796875
 30
0.0
 10
569.880859375
 20
323.96484375
 30
0.0
 10
576.220703125
 20
317.6142578125
 30
0.0
 10
584.05078125
 20
317.6142578125
 30
0.0
 10
584.05078125
 20
317.6142578125
 30
0.0
 10
606.73046875
 20
317.6142578125
 30
0.0
 10
606.73046875
 20
317.6142578125
 30
0.0
 10
606.73046875
 20
317.6142578125
 30
0.0
 10
606.73046875
 20
348.3046875
 30
0.0
 10
606.73046875
 20
348.3046875
 30
0.0
  0
POLYLINE
  5
86
330
67
100
AcDbEntity
  8
LAYER_1
 62
   250
100
AcDb2dPolyline
 66
     1
 10
0.0
 20
0.0
 30
0.0
  0
VERTEX
  5
87
330
86
100
AcDbEntity
  8
LAYER_1
 62
   250
100
AcDbVertex
100
AcDb2dVertex
 10
606.73046875
 20
385.154296875
 30
0.0
  0
VERTEX
  5
88
330
86
100
AcDbEntity
  8
LAYER_1
 62
   250
100
AcDbVertex
100
AcDb2dVertex
 10
606.73046875
 20
385.884765625
 30
0.0
  0
SEQEND
  5
89
330
86
100
AcDbEntity
  8
LAYER_1
  0
POLYLINE
  5
8A
330
67
100
AcDbEntity
  8
LAYER_1
100
AcDb2dPolyline
 66
     1
 10
0.0
 20
0.0
 30
0.0
  0
VERTEX
  5
8B
330
8A
100
AcDbEntity
  8
LAYER_1
100
AcDbVertex
100
AcDb2dVertex
 10
569.130859375
 20
416.888671875
 30
0.0
  0
VERTEX
  5
8C
330
8A
100
AcDbEntity
  8
LAYER_1
100
AcDbVertex
100
AcDb2dVertex
 10
756.03125
 20
416.888671875
 30
0.0
  0
VERTEX
  5
8D
330
8A
100
AcDbEntity
  8
LAYER_1
100
AcDbVertex
100
AcDb2dVertex
 10
756.03125
 20
297.642578125
 30
0.0
  0
VERTEX
  5
8E
330
8A
100
AcDbEntity
  8
LAYER_1
100
AcDbVertex
100
AcDb2dVertex
 10
569.130859375
 20
297.642578125
 30
0.0
  0
VERTEX
  5
8F
330
8A
100
AcDbEntity
  8
LAYER_1
100
AcDbVertex
100
AcDb2dVertex
 10
569.130859375
 20
416.888671875
 30
0.0
  0
SEQEND
  5
90
330
8A
100
AcDbEntity
  8
LAYER_1
  0
ENDBLK
  5
6A
330
67
100
AcDbEntity
  8
0
100
AcDbBlockEnd
  0
BLOCK
  5
93
330
91
100
AcDbEntity
  8
0
100
AcDbBlockBegin
  2
BLOCK_3
 70
     0
 71
     0
 10
0.0
 20
0.0
 30
0.0
  3
BLOCK_3
  1

  0
SPLINE
  5
95
330
91
100
AcDbEntity
  8
LAYER_1
 62
   250
100
AcDbSpline
210
0.0
220
0.0
230
1.0
 70
    11
 71
     3
 72
    17
 73
    13
 74
     0
 42
0.0000000001
 43
0.0000000001
 40
0.0
 40
0.0
 40
0.0
 40
0.0
 40
1.0
 40
1.0
 40
1.0
 40
2.0
 40
2.0
 40
2.0
 40
3.0
 40
3.0
 40
3.0
 40
4.0
 40
4.0
 40
4.0
 40
4.0
 10
132.2783203125
 20
307.5048828125
 30
0.0
 10
130.6982421875
 20
303.7353515625
 30
0.0
 10
138.05810546875
 20
299.9853515625
 30
0.0
 10
140.818359375
 20
300.6953125
 30
0.0
 10
140.70849609375
 20
302.794921875
 30
0.0
 10
140.37841796875
 20
307.53515625
 30
0.0
 10
141.158203125
 20
308.8349609375
 30
0.0
 10
141.23828125
 20
308.9052734375
 30
0.0
 10
141.17822265625
 20
309.0849609375
 30
0.0
 10
141.00830078125
 20
309.205078125
 30
0.0
 10
138.658203125
 20
309.03515625
 30
0.0
 10
133.478515625
 20
310.3544921875
 30
0.0
 10
132.2783203125
 20
307.5048828125
 30
0.0
  0
SPLINE
  5
96
330
91
100
AcDbEntity
  8
LAYER_1
 62
   250
100
AcDbSpline
210
0.0
220
0.0
230
1.0
 70
    11
 71
     3
 72
    26
 73
    22
 74
     0
 42
0.0000000001
 43
0.0000000001
 40
0.0
 40
0.0
 40
0.0
 40
0.0
 40
1.0
 40
1.0
 40
1.0
 40
2.0
 40
2.0
 40
2.0
 40
3.0
 40
3.0
 40
3.0
 40
4.0
 40
4.0
 40
4.0
 40
5.0
 40
5.0
 40
5.0
 40
6.0
 40
6.0
 40
6.0
 40
7.0
 40
7.0
 40
7.0
 40
7.0
 10
95.13818359375
 20
396.9052734375
 30
0.0
 10
98.1484375
 20
395.78515625
 30
0.0
 10
101.42822265625
 20
395.6552734375
 30
0.0
 10
104.63818359375
 20
395.544921875
 30
0.0
 10
104.978515625
 20
398.724609375
 30
0.0
 10
105.00830078125
 20
401.9453125
 30
0.0
 10
104.73828125
 20
405.14453125
 30
0.0
 10
103.1181640625
 20
404.8447265625
 30
0.0
 10
101.50830078125
 20
404.544921875
 30
0.0
 10
99.88818359375
 20
404.2548828125
 30
0.0
 10
98.4384765625
 20
403.9853515625
 30
0.0
 10
96.95849609375
 20
403.705078125
 30
0.0
 10
95.66845703125
 20
402.9853515625
 30
0.0
 10
94.38818359375
 20
402.2548828125
 30
0.0
 10
93.318359375
 20
400.974609375
 30
0.0
 10
93.24853515625
 20
399.5048828125
 30
0.0
 10
93.20849609375
 20
398.794921875
 30
0.0
 10
93.42822265625
 20
398.0546875
 30
0.0
 10
93.9384765625
 20
397.564453125
 30
0.0
 10
94.2783203125
 20
397.2548828125
 30
0.0
 10
94.70849609375
 20
397.064453125
 30
0.0
 10
95.13818359375
 20
396.9052734375
 30
0.0
  0
SPLINE
  5
97
330
91
100
AcDbEntity
  8
LAYER_1
 62
   250
100
AcDbSpline
210
0.0
220
0.0
230
1.0
 70
    11
 71
     3
 72
    29
 73
    25
 74
     0
 42
0.0000000001
 43
0.0000000001
 40
0.0
 40
0.0
 40
0.0
 40
0.0
 40
1.0
 40
1.0
 40
1.0
 40
2.0
 40
2.0
 40
2.0
 40
3.0
 40
3.0
 40
3.0
 40
4.0
 40
4.0
 40
4.0
 40
5.0
 40
5.0
 40
5.0
 40
6.0
 40
6.0
 40
6.0
 40
7.0
 40
7.0
 40
7.0
 40
8.0
 40
8.0
 40
8.0
 40
8.0
 10
89.38818359375
 20
366.4248046875
 30
0.0
 10
92.9482421875
 20
364.6650390625
 30
0.0
 10
96.83837890625
 20
363.5947265625
 30
0.0
 10
100.79833984375
 20
363.294921875
 30
0.0
 10
100.8681640625
 20
363.294921875
 30
0.0
 10
100.9482421875
 20
363.28515625
 30
0.0
 10
101.0185546875
 20
363.3349609375
 30
0.0
 10
101.09814453125
 20
363.384765625
 30
0.0
 10
101.1181640625
 20
363.4951171875
 30
0.0
 10
101.12841796875
 20
363.5947265625
 30
0.0
 10
101.5185546875
 20
366.4150390625
 30
0.0
 10
101.6884765625
 20
369.275390625
 30
0.0
 10
101.62841796875
 20
372.125
 30
0.0
 10
98.79833984375
 20
372.8544921875
 30
0.0
 10
95.8583984375
 20
373.134765625
 30
0.0
 10
92.9482421875
 20
372.96484375
 30
0.0
 10
91.41845703125
 20
372.875
 30
0.0
 10
89.818359375
 20
372.625
 30
0.0
 10
88.6181640625
 20
371.6748046875
 30
0.0
 10
87.42822265625
 20
370.71484375
 30
0.0
 10
86.8583984375
 20
368.8349609375
 30
0.0
 10
87.7685546875
 20
367.6044921875
 30
0.0
 10
88.16845703125
 20
367.064453125
 30
0.0
 10
88.78857421875
 20
366.724609375
 30
0.0
 10
89.38818359375
 20
366.4248046875
 30
0.0
  0
SPLINE
  5
98
330
91
100
AcDbEntity
  8
LAYER_1
 62
   250
100
AcDbSpline
210
0.0
220
0.0
230
1.0
 70
    11
 71
     3
 72
    26
 73
    22
 74
     0
 42
0.0000000001
 43
0.0000000001
 40
0.0
 40
0.0
 40
0.0
 40
0.0
 40
1.0
 40
1.0
 40
1.0
 40
2.0
 40
2.0
 40
2.0
 40
3.0
 40
3.0
 40
3.0
 40
4.0
 40
4.0
 40
4.0
 40
5.0
 40
5.0
 40
5.0
 40
6.0
 40
6.0
 40
6.0
 40
7.0
 40
7.0
 40
7.0
 40
7.0
 10
87.068359375
 20
338.724609375
 30
0.0
 10
87.4482421875
 20
337.39453125
 30
0.0
 10
88.91845703125
 20
336.7646484375
 30
0.0
 10
90.23828125
 20
336.3447265625
 30
0.0
 10
93.328125
 20
335.365234375
 30
0.0
 10
96.47802734375
 20
334.5751953125
 30
0.0
 10
99.66845703125
 20
333.9951171875
 30
0.0
 10
100.1484375
 20
334.314453125
 30
0.0
 10
100.21826171875
 20
334.974609375
 30
0.0
 10
100.25830078125
 20
335.5546875
 30
0.0
 10
100.37841796875
 20
337.7548828125
 30
0.0
 10
100.498046875
 20
339.955078125
 30
0.0
 10
100.6181640625
 20
342.1552734375
 30
0.0
 10
97.84814453125
 20
342.525390625
 30
0.0
 10
95.04833984375
 20
342.6650390625
 30
0.0
 10
92.248046875
 20
342.5849609375
 30
0.0
 10
90.998046875
 20
342.5546875
 30
0.0
 10
89.70849609375
 20
342.455078125
 30
0.0
 10
88.6181640625
 20
341.8349609375
 30
0.0
 10
87.5283203125
 20
341.21484375
 30
0.0
 10
86.72802734375
 20
339.9248046875
 30
0.0
 10
87.068359375
 20
338.724609375
 30
0.0
  0
SPLINE
  5
99
330
91
100
AcDbEntity
  8
LAYER_1
 62
   250
100
AcDbSpline
210
0.0
220
0.0
230
1.0
 70
    11
 71
     3
 72
    26
 73
    22
 74
     0
 42
0.0000000001
 43
0.0000000001
 40
0.0
 40
0.0
 40
0.0
 40
0.0
 40
1.0
 40
1.0
 40
1.0
 40
2.0
 40
2.0
 40
2.0
 40
3.0
 40
3.0
 40
3.0
 40
4.0
 40
4.0
 40
4.0
 40
5.0
 40
5.0
 40
5.0
 40
6.0
 40
6.0
 40
6.0
 40
7.0
 40
7.0
 40
7.0
 40
7.0
 10
87.068359375
 20
338.724609375
 30
0.0
 10
87.4482421875
 20
337.39453125
 30
0.0
 10
88.91845703125
 20
336.7646484375
 30
0.0
 10
90.23828125
 20
336.3447265625
 30
0.0
 10
93.328125
 20
335.365234375
 30
0.0
 10
96.47802734375
 20
334.5751953125
 30
0.0
 10
99.66845703125
 20
333.9951171875
 30
0.0
 10
100.1484375
 20
334.314453125
 30
0.0
 10
100.21826171875
 20
334.974609375
 30
0.0
 10
100.25830078125
 20
335.5546875
 30
0.0
 10
100.37841796875
 20
337.7548828125
 30
0.0
 10
100.498046875
 20
339.955078125
 30
0.0
 10
100.6181640625
 20
342.1552734375
 30
0.0
 10
97.84814453125
 20
342.525390625
 30
0.0
 10
95.04833984375
 20
342.6650390625
 30
0.0
 10
92.248046875
 20
342.5849609375
 30
0.0
 10
90.998046875
 20
342.5546875
 30
0.0
 10
89.70849609375
 20
342.455078125
 30
0.0
 10
88.6181640625
 20
341.8349609375
 30
0.0
 10
87.5283203125
 20
341.21484375
 30
0.0
 10
86.72802734375
 20
339.9248046875
 30
0.0
 10
87.068359375
 20
338.724609375
 30
0.0
  0
SPLINE
  5
9A
330
91
100
AcDbEntity
  8
LAYER_1
 62
   250
100
AcDbSpline
210
0.0
220
0.0
230
1.0
 70
    11
 71
     3
 72
    26
 73
    22
 74
     0
 42
0.0000000001
 43
0.0000000001
 40
0.0
 40
0.0
 40
0.0
 40
0.0
 40
1.0
 40
1.0
 40
1.0
 40
2.0
 40
2.0
 40
2.0
 40
3.0
 40
3.0
 40
3.0
 40
4.0
 40
4.0
 40
4.0
 40
5.0
 40
5.0
 40
5.0
 40
6.0
 40
6.0
 40
6.0
 40
7.0
 40
7.0
 40
7.0
 40
7.0
 10
93.24853515625
 20
399.5048828125
 30
0.0
 10
93.20849609375
 20
398.794921875
 30
0.0
 10
93.42822265625
 20
398.0546875
 30
0.0
 10
93.9384765625
 20
397.564453125
 30
0.0
 10
94.2783203125
 20
397.2548828125
 30
0.0
 10
94.70849609375
 20
397.064453125
 30
0.0
 10
95.138671875
 20
396.9052734375
 30
0.0
 10
98.1484375
 20
395.78515625
 30
0.0
 10
101.42822265625
 20
395.6552734375
 30
0.0
 10
104.638671875
 20
395.544921875
 30
0.0
 10
104.978515625
 20
398.724609375
 30
0.0
 10
105.00830078125
 20
401.9453125
 30
0.0
 10
104.73828125
 20
405.14453125
 30
0.0
 10
103.11865234375
 20
404.8447265625
 30
0.0
 10
101.50830078125
 20
404.544921875
 30
0.0
 10
99.888671875
 20
404.2548828125
 30
0.0
 10
98.4384765625
 20
403.9853515625
 30
0.0
 10
96.95849609375
 20
403.705078125
 30
0.0
 10
95.66845703125
 20
402.9853515625
 30
0.0
 10
94.388671875
 20
402.2548828125
 30
0.0
 10
93.318359375
 20
400.974609375
 30
0.0
 10
93.24853515625
 20
399.5048828125
 30
0.0
  0
SPLINE
  5
9B
330
91
100
AcDbEntity
  8
LAYER_1
 62
   250
100
AcDbSpline
210
0.0
220
0.0
230
1.0
 70
    11
 71
     3
 72
    29
 73
    25
 74
     0
 42
0.0000000001
 43
0.0000000001
 40
0.0
 40
0.0
 40
0.0
 40
0.0
 40
1.0
 40
1.0
 40
1.0
 40
2.0
 40
2.0
 40
2.0
 40
3.0
 40
3.0
 40
3.0
 40
4.0
 40
4.0
 40
4.0
 40
5.0
 40
5.0
 40
5.0
 40
6.0
 40
6.0
 40
6.0
 40
7.0
 40
7.0
 40
7.0
 40
8.0
 40
8.0
 40
8.0
 40
8.0
 10
87.7685546875
 20
367.6044921875
 30
0.0
 10
88.16845703125
 20
367.064453125
 30
0.0
 10
88.78857421875
 20
366.724609375
 30
0.0
 10
89.38818359375
 20
366.4248046875
 30
0.0
 10
92.9482421875
 20
364.6650390625
 30
0.0
 10
96.83837890625
 20
363.5947265625
 30
0.0
 10
100.79833984375
 20
363.294921875
 30
0.0
 10
100.8681640625
 20
363.294921875
 30
0.0
 10
100.9482421875
 20
363.28515625
 30
0.0
 10
101.0185546875
 20
363.3349609375
 30
0.0
 10
101.09814453125
 20
363.384765625
 30
0.0
 10
101.1181640625
 20
363.4951171875
 30
0.0
 10
101.12841796875
 20
363.5947265625
 30
0.0
 10
101.5185546875
 20
366.4150390625
 30
0.0
 10
101.6884765625
 20
369.275390625
 30
0.0
 10
101.62841796875
 20
372.125
 30
0.0
 10
98.79833984375
 20
372.8544921875
 30
0.0
 10
95.8583984375
 20
373.134765625
 30
0.0
 10
92.9482421875
 20
372.96484375
 30
0.0
 10
91.41845703125
 20
372.875
 30
0.0
 10
89.818359375
 20
372.625
 30
0.0
 10
88.6181640625
 20
371.6748046875
 30
0.0
 10
87.42822265625
 20
370.71484375
 30
0.0
 10
86.8583984375
 20
368.8349609375
 30
0.0
 10
87.7685546875
 20
367.6044921875
 30
0.0
  0
SPLINE
  5
9C
330
91
100
AcDbEntity
  8
LAYER_1
 62
   250
100
AcDbSpline
210
0.0
220
0.0
230
1.0
 70
    11
 71
     3
 72
    17
 73
    13
 74
     0
 42
0.0000000001
 43
0.0000000001
 40
0.0
 40
0.0
 40
0.0
 40
0.0
 40
1.0
 40
1.0
 40
1.0
 40
2.0
 40
2.0
 40
2.0
 40
3.0
 40
3.0
 40
3.0
 40
4.0
 40
4.0
 40
4.0
 40
4.0
 10
140.818359375
 20
300.6953125
 30
0.0
 10
140.70849609375
 20
302.794921875
 30
0.0
 10
140.37841796875
 20
307.53515625
 30
0.0
 10
141.158203125
 20
308.8349609375
 30
0.0
 10
141.23828125
 20
308.9052734375
 30
0.0
 10
141.17822265625
 20
309.0849609375
 30
0.0
 10
141.00830078125
 20
309.205078125
 30
0.0
 10
138.658203125
 20
309.03515625
 30
0.0
 10
133.47802734375
 20
310.3544921875
 30
0.0
 10
132.2783203125
 20
307.5048828125
 30
0.0
 10
130.6982421875
 20
303.7353515625
 30
0.0
 10
138.05810546875
 20
299.9853515625
 30
0.0
 10
140.818359375
 20
300.6953125
 30
0.0
  0
SPLINE
  5
9D
330
91
100
AcDbEntity
  8
LAYER_1
 62
     7
100
AcDbSpline
210
0.0
220
0.0
230
1.0
 70
    11
 71
     3
 72
    65
 73
    61
 74
     0
 42
0.0000000001
 43
0.0000000001
 40
0.0
 40
0.0
 40
0.0
 40
0.0
 40
1.0
 40
1.0
 40
1.0
 40
2.0
 40
2.0
 40
2.0
 40
3.0
 40
3.0
 40
3.0
 40
4.0
 40
4.0
 40
4.0
 40
5.0
 40
5.0
 40
5.0
 40
6.0
 40
6.0
 40
6.0
 40
7.0
 40
7.0
 40
7.0
 40
8.0
 40
8.0
 40
8.0
 40
9.0
 40
9.0
 40
9.0
 40
10.0
 40
10.0
 40
10.0
 40
11.0
 40
11.0
 40
11.0
 40
12.0
 40
12.0
 40
12.0
 40
13.0
 40
13.0
 40
13.0
 40
14.0
 40
14.0
 40
14.0
 40
15.0
 40
15.0
 40
15.0
 40
16.0
 40
16.0
 40
16.0
 40
17.0
 40
17.0
 40
17.0
 40
18.0
 40
18.0
 40
18.0
 40
19.0
 40
19.0
 40
19.0
 40
20.0
 40
20.0
 40
20.0
 40
20.0
 10
240.8544921875
 20
328.072265625
 30
0.0
 10
240.8544921875
 20
328.072265625
 30
0.0
 10
241.9921875
 20
328.072265625
 30
0.0
 10
241.9921875
 20
328.072265625
 30
0.0
 10
242.7392578125
 20
326.78125
 30
0.0
 10
243.8154296875
 20
325.705078125
 30
0.0
 10
245.1064453125
 20
324.9580078125
 30
0.0
 10
245.1064453125
 20
324.9580078125
 30
0.0
 10
245.1064453125
 20
323.8203125
 30
0.0
 10
245.1064453125
 20
323.8203125
 30
0.0
 10
245.1064453125
 20
323.8203125
 30
0.0
 10
249.3583984375
 20
323.8203125
 30
0.0
 10
249.3583984375
 20
323.8203125
 30
0.0
 10
249.3583984375
 20
323.8203125
 30
0.0
 10
253.6103515625
 20
323.8203125
 30
0.0
 10
253.6103515625
 20
323.8203125
 30
0.0
 10
253.6103515625
 20
323.8203125
 30
0.0
 10
253.6103515625
 20
324.9580078125
 30
0.0
 10
253.6103515625
 20
324.9580078125
 30
0.0
 10
254.9013671875
 20
325.705078125
 30
0.0
 10
255.9775390625
 20
326.78125
 30
0.0
 10
256.72412109375
 20
328.072265625
 30
0.0
 10
256.72412109375
 20
328.072265625
 30
0.0
 10
257.8623046875
 20
328.072265625
 30
0.0
 10
257.8623046875
 20
328.072265625
 30
0.0
 10
257.8623046875
 20
328.072265625
 30
0.0
 10
257.8623046875
 20
332.32421875
 30
0.0
 10
257.8623046875
 20
332.32421875
 30
0.0
 10
257.8623046875
 20
332.32421875
 30
0.0
 10
257.8623046875
 20
336.576171875
 30
0.0
 10
257.8623046875
 20
336.576171875
 30
0.0
 10
257.8623046875
 20
336.576171875
 30
0.0
 10
256.72412109375
 20
336.576171875
 30
0.0
 10
256.72412109375
 20
336.576171875
 30
0.0
 10
255.9775390625
 20
337.8671875
 30
0.0
 10
254.9013671875
 20
338.943359375
 30
0.0
 10
253.6103515625
 20
339.6904296875
 30
0.0
 10
253.6103515625
 20
339.6904296875
 30
0.0
 10
253.6103515625
 20
340.828125
 30
0.0
 10
253.6103515625
 20
340.828125
 30
0.0
 10
253.6103515625
 20
340.828125
 30
0.0
 10
249.3583984375
 20
340.828125
 30
0.0
 10
249.3583984375
 20
340.828125
 30
0.0
 10
249.3583984375
 20
340.828125
 30
0.0
 10
245.1064453125
 20
340.828125
 30
0.0
 10
245.1064453125
 20
340.828125
 30
0.0
 10
245.1064453125
 20
340.828125
 30
0.0
 10
245.1064453125
 20
339.6904296875
 30
0.0
 10
245.1064453125
 20
339.6904296875
 30
0.0
 10
243.8154296875
 20
338.943359375
 30
0.0
 10
242.7392578125
 20
337.8671875
 30
0.0
 10
241.9921875
 20
336.576171875
 30
0.0
 10
241.9921875
 20
336.576171875
 30
0.0
 10
240.8544921875
 20
336.576171875
 30
0.0
 10
240.8544921875
 20
336.576171875
 30
0.0
 10
240.8544921875
 20
336.576171875
 30
0.0
 10
240.8544921875
 20
332.32421875
 30
0.0
 10
240.8544921875
 20
332.32421875
 30
0.0
 10
240.8544921875
 20
332.32421875
 30
0.0
 10
240.8544921875
 20
328.072265625
 30
0.0
 10
240.8544921875
 20
328.072265625
 30
0.0
  0
POLYLINE
  5
9E
330
91
100
AcDbEntity
  8
LAYER_1
 62
     7
100
AcDb2dPolyline
 66
     1
 10
0.0
 20
0.0
 30
0.0
  0
VERTEX
  5
9F
330
9E
100
AcDbEntity
  8
LAYER_1
 62
     7
100
AcDbVertex
100
AcDb2dVertex
 10
245.1064453125
 20
352.1669921875
 30
0.0
  0
VERTEX
  5
A0
330
9E
100
AcDbEntity
  8
LAYER_1
 62
     7
100
AcDbVertex
100
AcDb2dVertex
 10
253.6103515625
 20
352.1669921875
 30
0.0
  0
VERTEX
  5
A1
330
9E
100
AcDbEntity
  8
LAYER_1
 62
     7
100
AcDbVertex
100
AcDb2dVertex
 10
253.6103515625
 20
369.1748046875
 30
0.0
  0
VERTEX
  5
A2
330
9E
100
AcDbEntity
  8
LAYER_1
 62
     7
100
AcDbVertex
100
AcDb2dVertex
 10
245.1064453125
 20
369.1748046875
 30
0.0
  0
VERTEX
  5
A3
330
9E
100
AcDbEntity
  8
LAYER_1
 62
     7
100
AcDbVertex
100
AcDb2dVertex
 10
245.1064453125
 20
352.1669921875
 30
0.0
  0
SEQEND
  5
A4
330
9E
100
AcDbEntity
  8
LAYER_1
  0
SPLINE
  5
A5
330
91
100
AcDbEntity
  8
LAYER_1
 62
     7
100
AcDbSpline
210
0.0
220
0.0
230
1.0
 70
    11
 71
     3
 72
    65
 73
    61
 74
     0
 42
0.0000000001
 43
0.0000000001
 40
0.0
 40
0.0
 40
0.0
 40
0.0
 40
1.0
 40
1.0
 40
1.0
 40
2.0
 40
2.0
 40
2.0
 40
3.0
 40
3.0
 40
3.0
 40
4.0
 40
4.0
 40
4.0
 40
5.0
 40
5.0
 40
5.0
 40
6.0
 40
6.0
 40
6.0
 40
7.0
 40
7.0
 40
7.0
 40
8.0
 40
8.0
 40
8.0
 40
9.0
 40
9.0
 40
9.0
 40
10.0
 40
10.0
 40
10.0
 40
11.0
 40
11.0
 40
11.0
 40
12.0
 40
12.0
 40
12.0
 40
13.0
 40
13.0
 40
13.0
 40
14.0
 40
14.0
 40
14.0
 40
15.0
 40
15.0
 40
15.0
 40
16.0
 40
16.0
 40
16.0
 40
17.0
 40
17.0
 40
17.0
 40
18.0
 40
18.0
 40
18.0
 40
19.0
 40
19.0
 40
19.0
 40
20.0
 40
20.0
 40
20.0
 40
20.0
 10
240.8544921875
 20
384.765625
 30
0.0
 10
240.8544921875
 20
384.765625
 30
0.0
 10
241.9921875
 20
384.765625
 30
0.0
 10
241.9921875
 20
384.765625
 30
0.0
 10
242.7392578125
 20
383.474609375
 30
0.0
 10
243.8154296875
 20
382.3984375
 30
0.0
 10
245.1064453125
 20
381.6513671875
 30
0.0
 10
245.1064453125
 20
381.6513671875
 30
0.0
 10
245.1064453125
 20
380.5126953125
 30
0.0
 10
245.1064453125
 20
380.5126953125
 30
0.0
 10
245.1064453125
 20
380.5126953125
 30
0.0
 10
249.3583984375
 20
380.5126953125
 30
0.0
 10
249.3583984375
 20
380.5126953125
 30
0.0
 10
249.3583984375
 20
380.5126953125
 30
0.0
 10
253.6103515625
 20
380.5126953125
 30
0.0
 10
253.6103515625
 20
380.5126953125
 30
0.0
 10
253.6103515625
 20
380.5126953125
 30
0.0
 10
253.6103515625
 20
381.6513671875
 30
0.0
 10
253.6103515625
 20
381.6513671875
 30
0.0
 10
254.9013671875
 20
382.3984375
 30
0.0
 10
255.9775390625
 20
383.474609375
 30
0.0
 10
256.72412109375
 20
384.765625
 30
0.0
 10
256.72412109375
 20
384.765625
 30
0.0
 10
257.8623046875
 20
384.765625
 30
0.0
 10
257.8623046875
 20
384.765625
 30
0.0
 10
257.8623046875
 20
384.765625
 30
0.0
 10
257.8623046875
 20
389.017578125
 30
0.0
 10
257.8623046875
 20
389.017578125
 30
0.0
 10
257.8623046875
 20
389.017578125
 30
0.0
 10
257.8623046875
 20
393.26953125
 30
0.0
 10
257.8623046875
 20
393.26953125
 30
0.0
 10
257.8623046875
 20
393.26953125
 30
0.0
 10
256.72412109375
 20
393.26953125
 30
0.0
 10
256.72412109375
 20
393.26953125
 30
0.0
 10
255.9775390625
 20
394.560546875
 30
0.0
 10
254.9013671875
 20
395.6357421875
 30
0.0
 10
253.6103515625
 20
396.3828125
 30
0.0
 10
253.6103515625
 20
396.3828125
 30
0.0
 10
253.6103515625
 20
397.521484375
 30
0.0
 10
253.6103515625
 20
397.521484375
 30
0.0
 10
253.6103515625
 20
397.521484375
 30
0.0
 10
249.3583984375
 20
397.521484375
 30
0.0
 10
249.3583984375
 20
397.521484375
 30
0.0
 10
249.3583984375
 20
397.521484375
 30
0.0
 10
245.1064453125
 20
397.521484375
 30
0.0
 10
245.1064453125
 20
397.521484375
 30
0.0
 10
245.1064453125
 20
397.521484375
 30
0.0
 10
245.1064453125
 20
396.3828125
 30
0.0
 10
245.1064453125
 20
396.3828125
 30
0.0
 10
243.8154296875
 20
395.6357421875
 30
0.0
 10
242.7392578125
 20
394.560546875
 30
0.0
 10
241.9921875
 20
393.26953125
 30
0.0
 10
241.9921875
 20
393.26953125
 30
0.0
 10
240.8544921875
 20
393.26953125
 30
0.0
 10
240.8544921875
 20
393.26953125
 30
0.0
 10
240.8544921875
 20
393.26953125
 30
0.0
 10
240.8544921875
 20
389.017578125
 30
0.0
 10
240.8544921875
 20
389.017578125
 30
0.0
 10
240.8544921875
 20
389.017578125
 30
0.0
 10
240.8544921875
 20
384.765625
 30
0.0
 10
240.8544921875
 20
384.765625
 30
0.0
  0
SPLINE
  5
A6
330
91
100
AcDbEntity
  8
LAYER_1
 62
   250
100
AcDbSpline
210
0.0
220
0.0
230
1.0
 70
    11
 71
     3
 72
   155
 73
   151
 74
     0
 42
0.0000000001
 43
0.0000000001
 40
0.0
 40
0.0
 40
0.0
 40
0.0
 40
1.0
 40
1.0
 40
1.0
 40
2.0
 40
2.0
 40
2.0
 40
3.0
 40
3.0
 40
3.0
 40
4.0
 40
4.0
 40
4.0
 40
5.0
 40
5.0
 40
5.0
 40
6.0
 40
6.0
 40
6.0
 40
7.0
 40
7.0
 40
7.0
 40
8.0
 40
8.0
 40
8.0
 40
9.0
 40
9.0
 40
9.0
 40
10.0
 40
10.0
 40
10.0
 40
11.0
 40
11.0
 40
11.0
 40
12.0
 40
12.0
 40
12.0
 40
13.0
 40
13.0
 40
13.0
 40
14.0
 40
14.0
 40
14.0
 40
15.0
 40
15.0
 40
15.0
 40
16.0
 40
16.0
 40
16.0
 40
17.0
 40
17.0
 40
17.0
 40
18.0
 40
18.0
 40
18.0
 40
19.0
 40
19.0
 40
19.0
 40
20.0
 40
20.0
 40
20.0
 40
21.0
 40
21.0
 40
21.0
 40
22.0
 40
22.0
 40
22.0
 40
23.0
 40
23.0
 40
23.0
 40
24.0
 40
24.0
 40
24.0
 40
25.0
 40
25.0
 40
25.0
 40
26.0
 40
26.0
 40
26.0
 40
27.0
 40
27.0
 40
27.0
 40
28.0
 40
28.0
 40
28.0
 40
29.0
 40
29.0
 40
29.0
 40
30.0
 40
30.0
 40
30.0
 40
31.0
 40
31.0
 40
31.0
 40
32.0
 40
32.0
 40
32.0
 40
33.0
 40
33.0
 40
33.0
 40
34.0
 40
34.0
 40
34.0
 40
35.0
 40
35.0
 40
35.0
 40
36.0
 40
36.0
 40
36.0
 40
37.0
 40
37.0
 40
37.0
 40
38.0
 40
38.0
 40
38.0
 40
39.0
 40
39.0
 40
39.0
 40
40.0
 40
40.0
 40
40.0
 40
41.0
 40
41.0
 40
41.0
 40
42.0
 40
42.0
 40
42.0
 40
43.0
 40
43.0
 40
43.0
 40
44.0
 40
44.0
 40
44.0
 40
45.0
 40
45.0
 40
45.0
 40
46.0
 40
46.0
 40
46.0
 40
47.0
 40
47.0
 40
47.0
 40
48.0
 40
48.0
 40
48.0
 40
49.0
 40
49.0
 40
49.0
 40
50.0
 40
50.0
 40
50.0
 40
50.0
 10
103.5732421875
 20
327.76953125
 30
0.0
 10
111.4970703125
 20
326.212890625
 30
0.0
 10
119.5234375
 20
325.17578125
 30
0.0
 10
127.58837890625
 20
324.6748046875
 30
0.0
 10
132.908203125
 20
324.3349609375
 30
0.0
 10
138.248046875
 20
324.2353515625
 30
0.0
 10
143.58837890625
 20
324.365234375
 30
0.0
 10
146.25830078125
 20
324.4248046875
 30
0.0
 10
148.91845703125
 20
324.5546875
 30
0.0
 10
151.578125
 20
324.7353515625
 30
0.0
 10
153.67529296875
 20
324.876953125
 30
0.0
 10
155.7421875
 20
325.37890625
 30
0.0
 10
157.80419921875
 20
325.765625
 30
0.0
 10
157.9443359375
 20
325.7919921875
 30
0.0
 10
158.09619140625
 20
325.8173828125
 30
0.0
 10
158.22021484375
 20
325.7490234375
 30
0.0
 10
158.34033203125
 20
325.68359375
 30
0.0
 10
158.4033203125
 20
325.55078125
 30
0.0
 10
158.455078125
 20
325.4248046875
 30
0.0
 10
159.369140625
 20
323.2177734375
 30
0.0
 10
159.43017578125
 20
320.392578125
 30
0.0
 10
157.748046875
 20
318.525390625
 30
0.0
 10
155.8583984375
 20
316.4248046875
 30
0.0
 10
152.95849609375
 20
315.5947265625
 30
0.0
 10
150.1982421875
 20
315.03515625
 30
0.0
 10
147.3583984375
 20
314.455078125
 30
0.0
 10
144.47802734375
 20
314.0751953125
 30
0.0
 10
141.58837890625
 20
313.9345703125
 30
0.0
 10
138.6083984375
 20
313.78515625
 30
0.0
 10
135.54833984375
 20
313.89453125
 30
0.0
 10
132.73828125
 20
312.89453125
 30
0.0
 10
129.92822265625
 20
311.89453125
 30
0.0
 10
127.3681640625
 20
309.4150390625
 30
0.0
 10
127.37841796875
 20
306.4248046875
 30
0.0
 10
127.3984375
 20
303.064453125
 30
0.0
 10
130.46826171875
 20
300.615234375
 30
0.0
 10
133.26806640625
 20
298.7451171875
 30
0.0
 10
135.05810546875
 20
297.5546875
 30
0.0
 10
136.88818359375
 20
296.365234375
 30
0.0
 10
138.908203125
 20
295.625
 30
0.0
 10
142.4384765625
 20
294.3544921875
 30
0.0
 10
146.33837890625
 20
294.53515625
 30
0.0
 10
150.0283203125
 20
295.1953125
 30
0.0
 10
169.50830078125
 20
298.6650390625
 30
0.0
 10
186.95849609375
 20
314.5146484375
 30
0.0
 10
194.55810546875
 20
332.4248046875
 30
0.0
 10
196.22802734375
 20
336.365234375
 30
0.0
 10
197.578125
 20
340.4345703125
 30
0.0
 10
198.58837890625
 20
344.5947265625
 30
0.0
 10
198.58837890625
 20
344.5947265625
 30
0.0
 10
230.92822265625
 20
344.5947265625
 30
0.0
 10
230.92822265625
 20
344.5947265625
 30
0.0
 10
230.92822265625
 20
344.5947265625
 30
0.0
 10
230.92822265625
 20
381.4453125
 30
0.0
 10
230.92822265625
 20
381.4453125
 30
0.0
 10
230.92822265625
 20
381.4453125
 30
0.0
 10
197.328125
 20
381.4453125
 30
0.0
 10
197.328125
 20
381.4453125
 30
0.0
 10
194.58837890625
 20
387.375
 30
0.0
 10
191.30810546875
 20
392.9052734375
 30
0.0
 10
186.4482421875
 20
397.3349609375
 30
0.0
 10
181.30908203125
 20
402.03515625
 30
0.0
 10
174.9970703125
 20
405.658203125
 30
0.0
 10
168.68603515625
 20
408.4736328125
 30
0.0
 10
167.12841796875
 20
409.169921875
 30
0.0
 10
165.50341796875
 20
409.7861328125
 30
0.0
 10
163.92138671875
 20
410.4228515625
 30
0.0
 10
160.59521484375
 20
411.763671875
 30
0.0
 10
157.2412109375
 20
412.5517578125
 30
0.0
 10
153.65625
 20
412.4130859375
 30
0.0
 10
151.4462890625
 20
412.3271484375
 30
0.0
 10
149.203125
 20
412.2099609375
 30
0.0
 10
147.0810546875
 20
411.6181640625
 30
0.0
 10
142.28515625
 20
410.279296875
 30
0.0
 10
137.359375
 20
410.759765625
 30
0.0
 10
132.37109375
 20
410.720703125
 30
0.0
 10
126.96826171875
 20
410.677734375
 30
0.0
 10
121.5654296875
 20
410.53515625
 30
0.0
 10
116.16845703125
 20
410.28515625
 30
0.0
 10
110.1181640625
 20
410.0048828125
 30
0.0
 10
103.48828125
 20
409.7353515625
 30
0.0
 10
97.568359375
 20
408.455078125
 30
0.0
 10
94.05810546875
 20
407.705078125
 30
0.0
 10
90.1982421875
 20
406.03515625
 30
0.0
 10
89.16845703125
 20
402.6044921875
 30
0.0
 10
88.17822265625
 20
399.3046875
 30
0.0
 10
90.408203125
 20
395.7353515625
 30
0.0
 10
93.3984375
 20
394.03515625
 30
0.0
 10
95.91845703125
 20
392.6015625
 30
0.0
 10
98.84716796875
 20
392.4169921875
 30
0.0
 10
101.658203125
 20
392.048828125
 30
0.0
 10
105.0244140625
 20
391.6083984375
 30
0.0
 10
108.38037109375
 20
391.080078125
 30
0.0
 10
111.7431640625
 20
390.6142578125
 30
0.0
 10
117.6513671875
 20
389.7958984375
 30
0.0
 10
123.5654296875
 20
389.025390625
 30
0.0
 10
129.486328125
 20
388.3017578125
 30
0.0
 10
131.76416015625
 20
388.0234375
 30
0.0
 10
134.080078125
 20
388.0830078125
 30
0.0
 10
136.34716796875
 20
387.7412109375
 30
0.0
 10
138.525390625
 20
387.412109375
 30
0.0
 10
141.75634765625
 20
386.552734375
 30
0.0
 10
142.064453125
 20
383.9228515625
 30
0.0
 10
142.2802734375
 20
382.068359375
 30
0.0
 10
140.39013671875
 20
381.474609375
 30
0.0
 10
138.92822265625
 20
381.275390625
 30
0.0
 10
126.7880859375
 20
379.6044921875
 30
0.0
 10
114.54833984375
 20
378.6044921875
 30
0.0
 10
102.29833984375
 20
378.275390625
 30
0.0
 10
97.34814453125
 20
378.14453125
 30
0.0
 10
92.2783203125
 20
378.1044921875
 30
0.0
 10
87.62841796875
 20
376.384765625
 30
0.0
 10
85.6982421875
 20
375.6748046875
 30
0.0
 10
83.75830078125
 20
374.5546875
 30
0.0
 10
82.8681640625
 20
372.705078125
 30
0.0
 10
82.00830078125
 20
370.89453125
 30
0.0
 10
82.34814453125
 20
368.6845703125
 30
0.0
 10
83.33837890625
 20
366.9453125
 30
0.0
 10
85.6083984375
 20
362.9345703125
 30
0.0
 10
90.54833984375
 20
361.4248046875
 30
0.0
 10
95.04833984375
 20
360.4052734375
 30
0.0
 10
107.09814453125
 20
357.6650390625
 30
0.0
 10
119.3583984375
 20
355.865234375
 30
0.0
 10
131.67822265625
 20
355.03515625
 30
0.0
 10
133.55810546875
 20
354.9052734375
 30
0.0
 10
135.55810546875
 20
354.7548828125
 30
0.0
 10
137.04833984375
 20
353.615234375
 30
0.0
 10
138.5380859375
 20
352.474609375
 30
0.0
 10
139.09814453125
 20
349.9453125
 30
0.0
 10
137.6484375
 20
348.7548828125
 30
0.0
 10
136.97802734375
 20
348.21484375
 30
0.0
 10
136.068359375
 20
348.0751953125
 30
0.0
 10
135.21826171875
 20
347.9853515625
 30
0.0
 10
124.59814453125
 20
346.7548828125
 30
0.0
 10
113.8583984375
 20
347.5048828125
 30
0.0
 10
103.17822265625
 20
347.3046875
 30
0.0
 10
99.46826171875
 20
347.2353515625
 30
0.0
 10
95.76806640625
 20
347.0546875
 30
0.0
 10
92.078125
 20
346.634765625
 30
0.0
 10
89.22802734375
 20
346.314453125
 30
0.0
 10
86.09814453125
 20
345.6748046875
 30
0.0
 10
84.3984375
 20
343.365234375
 30
0.0
 10
82.30810546875
 20
340.5146484375
 30
0.0
 10
83.46826171875
 20
336.2451171875
 30
0.0
 10
86.0283203125
 20
333.814453125
 30
0.0
 10
88.58837890625
 20
331.384765625
 30
0.0
 10
92.1484375
 20
330.365234375
 30
0.0
 10
95.578125
 20
329.525390625
 30
0.0
 10
98.23046875
 20
328.880859375
 30
0.0
 10
100.89501953125
 20
328.2958984375
 30
0.0
 10
103.5732421875
 20
327.76953125
 30
0.0
  0
SPLINE
  5
A7
330
91
100
AcDbEntity
  8
LAYER_1
 62
   250
100
AcDbSpline
210
0.0
220
0.0
230
1.0
 70
    11
 71
     3
 72
    29
 73
    25
 74
     0
 42
0.0000000001
 43
0.0000000001
 40
0.0
 40
0.0
 40
0.0
 40
0.0
 40
1.0
 40
1.0
 40
1.0
 40
2.0
 40
2.0
 40
2.0
 40
3.0
 40
3.0
 40
3.0
 40
4.0
 40
4.0
 40
4.0
 40
5.0
 40
5.0
 40
5.0
 40
6.0
 40
6.0
 40
6.0
 40
7.0
 40
7.0
 40
7.0
 40
8.0
 40
8.0
 40
8.0
 40
8.0
 10
101.62841796875
 20
372.125
 30
0.0
 10
98.79833984375
 20
372.8544921875
 30
0.0
 10
95.8583984375
 20
373.134765625
 30
0.0
 10
92.9482421875
 20
372.96484375
 30
0.0
 10
91.41845703125
 20
372.875
 30
0.0
 10
89.818359375
 20
372.625
 30
0.0
 10
88.6181640625
 20
371.6748046875
 30
0.0
 10
87.42822265625
 20
370.71484375
 30
0.0
 10
86.8583984375
 20
368.8349609375
 30
0.0
 10
87.76806640625
 20
367.6044921875
 30
0.0
 10
88.16845703125
 20
367.064453125
 30
0.0
 10
88.7880859375
 20
366.724609375
 30
0.0
 10
89.38818359375
 20
366.4248046875
 30
0.0
 10
92.9482421875
 20
364.6650390625
 30
0.0
 10
96.83837890625
 20
363.5947265625
 30
0.0
 10
100.79833984375
 20
363.294921875
 30
0.0
 10
100.8681640625
 20
363.294921875
 30
0.0
 10
100.9482421875
 20
363.28515625
 30
0.0
 10
101.01806640625
 20
363.3349609375
 30
0.0
 10
101.09814453125
 20
363.384765625
 30
0.0
 10
101.1181640625
 20
363.4951171875
 30
0.0
 10
101.12841796875
 20
363.5947265625
 30
0.0
 10
101.51806640625
 20
366.4150390625
 30
0.0
 10
101.6884765625
 20
369.275390625
 30
0.0
 10
101.62841796875
 20
372.125
 30
0.0
  0
SPLINE
  5
A8
330
91
100
AcDbEntity
  8
LAYER_1
 62
   250
100
AcDbSpline
210
0.0
220
0.0
230
1.0
 70
    11
 71
     3
 72
    26
 73
    22
 74
     0
 42
0.0000000001
 43
0.0000000001
 40
0.0
 40
0.0
 40
0.0
 40
0.0
 40
1.0
 40
1.0
 40
1.0
 40
2.0
 40
2.0
 40
2.0
 40
3.0
 40
3.0
 40
3.0
 40
4.0
 40
4.0
 40
4.0
 40
5.0
 40
5.0
 40
5.0
 40
6.0
 40
6.0
 40
6.0
 40
7.0
 40
7.0
 40
7.0
 40
7.0
 10
104.73828125
 20
405.14453125
 30
0.0
 10
103.1181640625
 20
404.8447265625
 30
0.0
 10
101.50830078125
 20
404.544921875
 30
0.0
 10
99.88818359375
 20
404.2548828125
 30
0.0
 10
98.4384765625
 20
403.9853515625
 30
0.0
 10
96.95849609375
 20
403.705078125
 30
0.0
 10
95.66845703125
 20
402.9853515625
 30
0.0
 10
94.38818359375
 20
402.2548828125
 30
0.0
 10
93.318359375
 20
400.974609375
 30
0.0
 10
93.248046875
 20
399.5048828125
 30
0.0
 10
93.20849609375
 20
398.794921875
 30
0.0
 10
93.42822265625
 20
398.0546875
 30
0.0
 10
93.9384765625
 20
397.564453125
 30
0.0
 10
94.2783203125
 20
397.2548828125
 30
0.0
 10
94.70849609375
 20
397.064453125
 30
0.0
 10
95.13818359375
 20
396.9052734375
 30
0.0
 10
98.1484375
 20
395.78515625
 30
0.0
 10
101.42822265625
 20
395.6552734375
 30
0.0
 10
104.63818359375
 20
395.544921875
 30
0.0
 10
104.97802734375
 20
398.724609375
 30
0.0
 10
105.00830078125
 20
401.9453125
 30
0.0
 10
104.73828125
 20
405.14453125
 30
0.0
  0
SPLINE
  5
A9
330
91
100
AcDbEntity
  8
LAYER_1
 62
   250
100
AcDbSpline
210
0.0
220
0.0
230
1.0
 70
    11
 71
     3
 72
    17
 73
    13
 74
     0
 42
0.0000000001
 43
0.0000000001
 40
0.0
 40
0.0
 40
0.0
 40
0.0
 40
1.0
 40
1.0
 40
1.0
 40
2.0
 40
2.0
 40
2.0
 40
3.0
 40
3.0
 40
3.0
 40
4.0
 40
4.0
 40
4.0
 40
4.0
 10
141.00830078125
 20
309.205078125
 30
0.0
 10
138.658203125
 20
309.03515625
 30
0.0
 10
133.47802734375
 20
310.3544921875
 30
0.0
 10
132.2783203125
 20
307.5048828125
 30
0.0
 10
130.6982421875
 20
303.7353515625
 30
0.0
 10
138.05810546875
 20
299.9853515625
 30
0.0
 10
140.818359375
 20
300.6953125
 30
0.0
 10
140.70849609375
 20
302.794921875
 30
0.0
 10
140.37841796875
 20
307.53515625
 30
0.0
 10
141.158203125
 20
308.8349609375
 30
0.0
 10
141.23828125
 20
308.9052734375
 30
0.0
 10
141.17822265625
 20
309.0849609375
 30
0.0
 10
141.00830078125
 20
309.205078125
 30
0.0
  0
SPLINE
  5
AA
330
91
100
AcDbEntity
  8
LAYER_1
 62
   250
100
AcDbSpline
210
0.0
220
0.0
230
1.0
 70
    11
 71
     3
 72
    26
 73
    22
 74
     0
 42
0.0000000001
 43
0.0000000001
 40
0.0
 40
0.0
 40
0.0
 40
0.0
 40
1.0
 40
1.0
 40
1.0
 40
2.0
 40
2.0
 40
2.0
 40
3.0
 40
3.0
 40
3.0
 40
4.0
 40
4.0
 40
4.0
 40
5.0
 40
5.0
 40
5.0
 40
6.0
 40
6.0
 40
6.0
 40
7.0
 40
7.0
 40
7.0
 40
7.0
 10
87.068359375
 20
338.724609375
 30
0.0
 10
87.4482421875
 20
337.39453125
 30
0.0
 10
88.91845703125
 20
336.7646484375
 30
0.0
 10
90.23828125
 20
336.3447265625
 30
0.0
 10
93.328125
 20
335.365234375
 30
0.0
 10
96.47802734375
 20
334.5751953125
 30
0.0
 10
99.66845703125
 20
333.9951171875
 30
0.0
 10
100.1484375
 20
334.314453125
 30
0.0
 10
100.21826171875
 20
334.974609375
 30
0.0
 10
100.25830078125
 20
335.5546875
 30
0.0
 10
100.37841796875
 20
337.7548828125
 30
0.0
 10
100.498046875
 20
339.955078125
 30
0.0
 10
100.6181640625
 20
342.1552734375
 30
0.0
 10
97.84814453125
 20
342.525390625
 30
0.0
 10
95.04833984375
 20
342.6650390625
 30
0.0
 10
92.248046875
 20
342.5849609375
 30
0.0
 10
90.998046875
 20
342.5546875
 30
0.0
 10
89.70849609375
 20
342.455078125
 30
0.0
 10
88.6181640625
 20
341.8349609375
 30
0.0
 10
87.5283203125
 20
341.21484375
 30
0.0
 10
86.72802734375
 20
339.9248046875
 30
0.0
 10
87.068359375
 20
338.724609375
 30
0.0
  0
POLYLINE
  5
AB
330
91
100
AcDbEntity
  8
LAYER_1
 62
   250
100
AcDb2dPolyline
 66
     1
 10
0.0
 20
0.0
 30
0.0
  0
VERTEX
  5
AC
330
AB
100
AcDbEntity
  8
LAYER_1
 62
   250
100
AcDbVertex
100
AcDb2dVertex
 10
196.828125
 20
381.4453125
 30
0.0
  0
VERTEX
  5
AD
330
AB
100
AcDbEntity
  8
LAYER_1
 62
   250
100
AcDbVertex
100
AcDb2dVertex
 10
197.328125
 20
381.4453125
 30
0.0
  0
SEQEND
  5
AE
330
AB
100
AcDbEntity
  8
LAYER_1
  0
SPLINE
  5
AF
330
91
100
AcDbEntity
  8
LAYER_1
 62
   250
100
AcDbSpline
210
0.0
220
0.0
230
1.0
 70
     8
 71
     3
 72
    29
 73
    25
 74
     0
 42
0.0000000001
 43
0.0000000001
 40
0.0
 40
0.0
 40
0.0
 40
0.0
 40
1.0
 40
1.0
 40
1.0
 40
2.0
 40
2.0
 40
2.0
 40
3.0
 40
3.0
 40
3.0
 40
4.0
 40
4.0
 40
4.0
 40
5.0
 40
5.0
 40
5.0
 40
6.0
 40
6.0
 40
6.0
 40
7.0
 40
7.0
 40
7.0
 40
8.0
 40
8.0
 40
8.0
 40
8.0
 10
230.92822265625
 20
381.4453125
 30
0.0
 10
230.92822265625
 20
381.4453125
 30
0.0
 10
230.92822265625
 20
382.1748046875
 30
0.0
 10
230.92822265625
 20
382.1748046875
 30
0.0
 10
230.92822265625
 20
382.1748046875
 30
0.0
 10
230.92822265625
 20
408.14453125
 30
0.0
 10
230.92822265625
 20
408.14453125
 30
0.0
 10
230.92822265625
 20
408.14453125
 30
0.0
 10
253.6083984375
 20
408.14453125
 30
0.0
 10
253.6083984375
 20
408.14453125
 30
0.0
 10
261.4384765625
 20
408.14453125
 30
0.0
 10
267.7783203125
 20
401.794921875
 30
0.0
 10
267.7783203125
 20
393.96484375
 30
0.0
 10
267.7783203125
 20
393.96484375
 30
0.0
 10
267.7783203125
 20
328.0751953125
 30
0.0
 10
267.7783203125
 20
328.0751953125
 30
0.0
 10
267.7783203125
 20
320.2548828125
 30
0.0
 10
261.4384765625
 20
313.9052734375
 30
0.0
 10
253.6083984375
 20
313.9052734375
 30
0.0
 10
253.6083984375
 20
313.9052734375
 30
0.0
 10
230.92822265625
 20
313.9052734375
 30
0.0
 10
230.92822265625
 20
313.9052734375
 30
0.0
 10
230.92822265625
 20
313.9052734375
 30
0.0
 10
230.92822265625
 20
344.5947265625
 30
0.0
 10
230.92822265625
 20
344.5947265625
 30
0.0
  0
POLYLINE
  5
B0
330
91
100
AcDbEntity
  8
LAYER_1
 62
   250
100
AcDb2dPolyline
 66
     1
 10
0.0
 20
0.0
 30
0.0
  0
VERTEX
  5
B1
330
B0
100
AcDbEntity
  8
LAYER_1
 62
   250
100
AcDbVertex
100
AcDb2dVertex
 10
230.92822265625
 20
381.4453125
 30
0.0
  0
VERTEX
  5
B2
330
B0
100
AcDbEntity
  8
LAYER_1
 62
   250
100
AcDbVertex
100
AcDb2dVertex
 10
230.92822265625
 20
382.1748046875
 30
0.0
  0
SEQEND
  5
B3
330
B0
100
AcDbEntity
  8
LAYER_1
  0
POLYLINE
  5
B4
330
91
100
AcDbEntity
  8
LAYER_1
100
AcDb2dPolyline
 66
     1
 10
0.0
 20
0.0
 30
0.0
  0
VERTEX
  5
B5
330
B4
100
AcDbEntity
  8
LAYER_1
100
AcDbVertex
100
AcDb2dVertex
 10
268.5283203125
 20
413.1787109375
 30
0.0
  0
VERTEX
  5
B6
330
B4
100
AcDbEntity
  8
LAYER_1
100
AcDbVertex
100
AcDb2dVertex
 10
81.626953125
 20
413.1787109375
 30
0.0
  0
VERTEX
  5
B7
330
B4
100
AcDbEntity
  8
LAYER_1
100
AcDbVertex
100
AcDb2dVertex
 10
81.626953125
 20
293.9326171875
 30
0.0
  0
VERTEX
  5
B8
330
B4
100
AcDbEntity
  8
LAYER_1
100
AcDbVertex
100
AcDb2dVertex
 10
268.5283203125
 20
293.9326171875
 30
0.0
  0
VERTEX
  5
B9
330
B4
100
AcDbEntity
  8
LAYER_1
100
AcDbVertex
100
AcDb2dVertex
 10
268.5283203125
 20
413.1787109375
 30
0.0
  0
SEQEND
  5
BA
330
B4
100
AcDbEntity
  8
LAYER_1
  0
ENDBLK
  5
94
330
91
100
AcDbEntity
  8
0
100
AcDbBlockEnd
  0
ENDSEC
  0
SECTION
  2
ENTITIES
  0
SPLINE
  5
3C
330
1F
100
AcDbEntity
  8
LAYER_1
 62
     7
100
AcDbSpline
210
0.0
220
0.0
230
1.0
 70
    11
 71
     3
 72
    65
 73
    61
 74
     0
 42
0.0000000001
 43
0.0000000001
 40
0.0
 40
0.0
 40
0.0
 40
0.0
 40
1.0
 40
1.0
 40
1.0
 40
2.0
 40
2.0
 40
2.0
 40
3.0
 40
3.0
 40
3.0
 40
4.0
 40
4.0
 40
4.0
 40
5.0
 40
5.0
 40
5.0
 40
6.0
 40
6.0
 40
6.0
 40
7.0
 40
7.0
 40
7.0
 40
8.0
 40
8.0
 40
8.0
 40
9.0
 40
9.0
 40
9.0
 40
10.0
 40
10.0
 40
10.0
 40
11.0
 40
11.0
 40
11.0
 40
12.0
 40
12.0
 40
12.0
 40
13.0
 40
13.0
 40
13.0
 40
14.0
 40
14.0
 40
14.0
 40
15.0
 40
15.0
 40
15.0
 40
16.0
 40
16.0
 40
16.0
 40
17.0
 40
17.0
 40
17.0
 40
18.0
 40
18.0
 40
18.0
 40
19.0
 40
19.0
 40
19.0
 40
20.0
 40
20.0
 40
20.0
 40
20.0
 10
354.724609375
 20
503.19287109375
 30
0.0
 10
354.724609375
 20
503.19287109375
 30
0.0
 10
355.8623046875
 20
503.19287109375
 30
0.0
 10
355.8623046875
 20
503.19287109375
 30
0.0
 10
356.609375
 20
504.48388671875
 30
0.0
 10
357.685546875
 20
505.5595703125
 30
0.0
 10
358.9765625
 20
506.306640625
 30
0.0
 10
358.9765625
 20
506.306640625
 30
0.0
 10
358.9765625
 20
507.44482421875
 30
0.0
 10
358.9765625
 20
507.44482421875
 30
0.0
 10
358.9765625
 20
507.44482421875
 30
0.0
 10
363.228515625
 20
507.44482421875
 30
0.0
 10
363.228515625
 20
507.44482421875
 30
0.0
 10
363.228515625
 20
507.44482421875
 30
0.0
 10
367.48046875
 20
507.44482421875
 30
0.0
 10
367.48046875
 20
507.44482421875
 30
0.0
 10
367.48046875
 20
507.44482421875
 30
0.0
 10
367.48046875
 20
506.306640625
 30
0.0
 10
367.48046875
 20
506.306640625
 30
0.0
 10
368.771484375
 20
505.5595703125
 30
0.0
 10
369.84716796875
 20
504.48388671875
 30
0.0
 10
370.59423828125
 20
503.19287109375
 30
0.0
 10
370.59423828125
 20
503.19287109375
 30
0.0
 10
371.732421875
 20
503.19287109375
 30
0.0
 10
371.732421875
 20
503.19287109375
 30
0.0
 10
371.732421875
 20
503.19287109375
 30
0.0
 10
371.732421875
 20
498.94091796875
 30
0.0
 10
371.732421875
 20
498.94091796875
 30
0.0
 10
371.732421875
 20
498.94091796875
 30
0.0
 10
371.732421875
 20
494.68896484375
 30
0.0
 10
371.732421875
 20
494.68896484375
 30
0.0
 10
371.732421875
 20
494.68896484375
 30
0.0
 10
370.59423828125
 20
494.68896484375
 30
0.0
 10
370.59423828125
 20
494.68896484375
 30
0.0
 10
369.84716796875
 20
493.39794921875
 30
0.0
 10
368.771484375
 20
492.32177734375
 30
0.0
 10
367.48046875
 20
491.57470703125
 30
0.0
 10
367.48046875
 20
491.57470703125
 30
0.0
 10
367.48046875
 20
490.43701171875
 30
0.0
 10
367.48046875
 20
490.43701171875
 30
0.0
 10
367.48046875
 20
490.43701171875
 30
0.0
 10
363.228515625
 20
490.43701171875
 30
0.0
 10
363.228515625
 20
490.43701171875
 30
0.0
 10
363.228515625
 20
490.43701171875
 30
0.0
 10
358.9765625
 20
490.43701171875
 30
0.0
 10
358.9765625
 20
490.43701171875
 30
0.0
 10
358.9765625
 20
490.43701171875
 30
0.0
 10
358.9765625
 20
491.57470703125
 30
0.0
 10
358.9765625
 20
491.57470703125
 30
0.0
 10
357.685546875
 20
492.32177734375
 30
0.0
 10
356.609375
 20
493.39794921875
 30
0.0
 10
355.8623046875
 20
494.68896484375
 30
0.0
 10
355.8623046875
 20
494.68896484375
 30
0.0
 10
354.724609375
 20
494.68896484375
 30
0.0
 10
354.724609375
 20
494.68896484375
 30
0.0
 10
354.724609375
 20
494.68896484375
 30
0.0
 10
354.724609375
 20
498.94091796875
 30
0.0
 10
354.724609375
 20
498.94091796875
 30
0.0
 10
354.724609375
 20
498.94091796875
 30
0.0
 10
354.724609375
 20
503.19287109375
 30
0.0
 10
354.724609375
 20
503.19287109375
 30
0.0
  0
POLYLINE
  5
3D
330
1F
100
AcDbEntity
  8
LAYER_1
 62
     7
100
AcDb2dPolyline
 66
     1
 10
0.0
 20
0.0
 30
0.0
  0
VERTEX
  5
3E
330
3D
100
AcDbEntity
  8
LAYER_1
 62
     7
100
AcDbVertex
100
AcDb2dVertex
 10
383.07080078125
 20
503.19287109375
 30
0.0
  0
VERTEX
  5
3F
330
3D
100
AcDbEntity
  8
LAYER_1
 62
     7
100
AcDbVertex
100
AcDb2dVertex
 10
400.0791015625
 20
503.19287109375
 30
0.0
  0
VERTEX
  5
40
330
3D
100
AcDbEntity
  8
LAYER_1
 62
     7
100
AcDbVertex
100
AcDb2dVertex
 10
400.0791015625
 20
494.68896484375
 30
0.0
  0
VERTEX
  5
41
330
3D
100
AcDbEntity
  8
LAYER_1
 62
     7
100
AcDbVertex
100
AcDb2dVertex
 10
383.07080078125
 20
494.68896484375
 30
0.0
  0
VERTEX
  5
42
330
3D
100
AcDbEntity
  8
LAYER_1
 62
     7
100
AcDbVertex
100
AcDb2dVertex
 10
383.07080078125
 20
503.19287109375
 30
0.0
  0
SEQEND
  5
43
330
3D
100
AcDbEntity
  8
LAYER_1
  0
POLYLINE
  5
44
330
1F
100
AcDbEntity
  8
LAYER_1
 62
     7
100
AcDb2dPolyline
 66
     1
 10
0.0
 20
0.0
 30
0.0
  0
VERTEX
  5
45
330
44
100
AcDbEntity
  8
LAYER_1
 62
     7
100
AcDbVertex
100
AcDb2dVertex
 10
439.7646484375
 20
503.19287109375
 30
0.0
  0
VERTEX
  5
46
330
44
100
AcDbEntity
  8
LAYER_1
 62
     7
100
AcDbVertex
100
AcDb2dVertex
 10
456.7724609375
 20
503.19287109375
 30
0.0
  0
VERTEX
  5
47
330
44
100
AcDbEntity
  8
LAYER_1
 62
     7
100
AcDbVertex
100
AcDb2dVertex
 10
456.7724609375
 20
494.68896484375
 30
0.0
  0
VERTEX
  5
48
330
44
100
AcDbEntity
  8
LAYER_1
 62
     7
100
AcDbVertex
100
AcDb2dVertex
 10
439.7646484375
 20
494.68896484375
 30
0.0
  0
VERTEX
  5
49
330
44
100
AcDbEntity
  8
LAYER_1
 62
     7
100
AcDbVertex
100
AcDb2dVertex
 10
439.7646484375
 20
503.19287109375
 30
0.0
  0
SEQEND
  5
4A
330
44
100
AcDbEntity
  8
LAYER_1
  0
SPLINE
  5
4B
330
1F
100
AcDbEntity
  8
LAYER_1
 62
     7
100
AcDbSpline
210
0.0
220
0.0
230
1.0
 70
    11
 71
     3
 72
    65
 73
    61
 74
     0
 42
0.0000000001
 43
0.0000000001
 40
0.0
 40
0.0
 40
0.0
 40
0.0
 40
1.0
 40
1.0
 40
1.0
 40
2.0
 40
2.0
 40
2.0
 40
3.0
 40
3.0
 40
3.0
 40
4.0
 40
4.0
 40
4.0
 40
5.0
 40
5.0
 40
5.0
 40
6.0
 40
6.0
 40
6.0
 40
7.0
 40
7.0
 40
7.0
 40
8.0
 40
8.0
 40
8.0
 40
9.0
 40
9.0
 40
9.0
 40
10.0
 40
10.0
 40
10.0
 40
11.0
 40
11.0
 40
11.0
 40
12.0
 40
12.0
 40
12.0
 40
13.0
 40
13.0
 40
13.0
 40
14.0
 40
14.0
 40
14.0
 40
15.0
 40
15.0
 40
15.0
 40
16.0
 40
16.0
 40
16.0
 40
17.0
 40
17.0
 40
17.0
 40
18.0
 40
18.0
 40
18.0
 40
19.0
 40
19.0
 40
19.0
 40
20.0
 40
20.0
 40
20.0
 40
20.0
 10
468.1103515625
 20
503.19287109375
 30
0.0
 10
468.1103515625
 20
503.19287109375
 30
0.0
 10
469.248046875
 20
503.19287109375
 30
0.0
 10
469.248046875
 20
503.19287109375
 30
0.0
 10
469.9951171875
 20
504.48388671875
 30
0.0
 10
471.0703125
 20
505.5595703125
 30
0.0
 10
472.361328125
 20
506.306640625
 30
0.0
 10
472.361328125
 20
506.306640625
 30
0.0
 10
472.361328125
 20
507.44482421875
 30
0.0
 10
472.361328125
 20
507.44482421875
 30
0.0
 10
472.361328125
 20
507.44482421875
 30
0.0
 10
476.6142578125
 20
507.44482421875
 30
0.0
 10
476.6142578125
 20
507.44482421875
 30
0.0
 10
476.6142578125
 20
507.44482421875
 30
0.0
 10
480.8671875
 20
507.44482421875
 30
0.0
 10
480.8671875
 20
507.44482421875
 30
0.0
 10
480.8671875
 20
507.44482421875
 30
0.0
 10
480.8671875
 20
506.306640625
 30
0.0
 10
480.8671875
 20
506.306640625
 30
0.0
 10
482.15625
 20
505.5595703125
 30
0.0
 10
483.232421875
 20
504.48388671875
 30
0.0
 10
483.98046875
 20
503.19287109375
 30
0.0
 10
483.98046875
 20
503.19287109375
 30
0.0
 10
485.119140625
 20
503.19287109375
 30
0.0
 10
485.119140625
 20
503.19287109375
 30
0.0
 10
485.119140625
 20
503.19287109375
 30
0.0
 10
485.119140625
 20
498.94091796875
 30
0.0
 10
485.119140625
 20
498.94091796875
 30
0.0
 10
485.119140625
 20
498.94091796875
 30
0.0
 10
485.119140625
 20
494.68896484375
 30
0.0
 10
485.119140625
 20
494.68896484375
 30
0.0
 10
485.119140625
 20
494.68896484375
 30
0.0
 10
483.98046875
 20
494.68896484375
 30
0.0
 10
483.98046875
 20
494.68896484375
 30
0.0
 10
483.232421875
 20
493.39794921875
 30
0.0
 10
482.15625
 20
492.32177734375
 30
0.0
 10
480.8671875
 20
491.57470703125
 30
0.0
 10
480.8671875
 20
491.57470703125
 30
0.0
 10
480.8671875
 20
490.43701171875
 30
0.0
 10
480.8671875
 20
490.43701171875
 30
0.0
 10
480.8671875
 20
490.43701171875
 30
0.0
 10
476.6142578125
 20
490.43701171875
 30
0.0
 10
476.6142578125
 20
490.43701171875
 30
0.0
 10
476.6142578125
 20
490.43701171875
 30
0.0
 10
472.361328125
 20
490.43701171875
 30
0.0
 10
472.361328125
 20
490.43701171875
 30
0.0
 10
472.361328125
 20
490.43701171875
 30
0.0
 10
472.361328125
 20
491.57470703125
 30
0.0
 10
472.361328125
 20
491.57470703125
 30
0.0
 10
471.0703125
 20
492.32177734375
 30
0.0
 10
469.9951171875
 20
493.39794921875
 30
0.0
 10
469.248046875
 20
494.68896484375
 30
0.0
 10
469.248046875
 20
494.68896484375
 30
0.0
 10
468.1103515625
 20
494.68896484375
 30
0.0
 10
468.1103515625
 20
494.68896484375
 30
0.0
 10
468.1103515625
 20
494.68896484375
 30
0.0
 10
468.1103515625
 20
498.94091796875
 30
0.0
 10
468.1103515625
 20
498.94091796875
 30
0.0
 10
468.1103515625
 20
498.94091796875
 30
0.0
 10
468.1103515625
 20
503.19287109375
 30
0.0
 10
468.1103515625
 20
503.19287109375
 30
0.0
  0
SPLINE
  5
4C
330
1F
100
AcDbEntity
  8
LAYER_1
 62
     7
100
AcDbSpline
210
0.0
220
0.0
230
1.0
 70
     8
 71
     3
 72
    32
 73
    28
 74
     0
 42
0.0000000001
 43
0.0000000001
 40
0.0
 40
0.0
 40
0.0
 40
0.0
 40
1.0
 40
1.0
 40
1.0
 40
2.0
 40
2.0
 40
2.0
 40
3.0
 40
3.0
 40
3.0
 40
4.0
 40
4.0
 40
4.0
 40
5.0
 40
5.0
 40
5.0
 40
6.0
 40
6.0
 40
6.0
 40
7.0
 40
7.0
 40
7.0
 40
8.0
 40
8.0
 40
8.0
 40
9.0
 40
9.0
 40
9.0
 40
9.0
 10
438.345703125
 20
528.3388671875
 30
0.0
 10
438.345703125
 20
528.3388671875
 30
0.0
 10
438.345703125
 20
517.36572265625
 30
0.0
 10
438.345703125
 20
517.36572265625
 30
0.0
 10
438.345703125
 20
517.36572265625
 30
0.0
 10
495.0400390625
 20
517.36572265625
 30
0.0
 10
495.0400390625
 20
517.36572265625
 30
0.0
 10
495.0400390625
 20
517.36572265625
 30
0.0
 10
495.0400390625
 20
494.68896484375
 30
0.0
 10
495.0400390625
 20
494.68896484375
 30
0.0
 10
495.0400390625
 20
486.86279296875
 30
0.0
 10
488.693359375
 20
480.515625
 30
0.0
 10
480.8671875
 20
480.515625
 30
0.0
 10
480.8671875
 20
480.515625
 30
0.0
 10
358.9765625
 20
480.515625
 30
0.0
 10
358.9765625
 20
480.515625
 30
0.0
 10
351.150390625
 20
480.515625
 30
0.0
 10
344.8037109375
 20
486.86279296875
 30
0.0
 10
344.8037109375
 20
494.68896484375
 30
0.0
 10
344.8037109375
 20
494.68896484375
 30
0.0
 10
344.8037109375
 20
517.36572265625
 30
0.0
 10
344.8037109375
 20
517.36572265625
 30
0.0
 10
344.8037109375
 20
517.36572265625
 30
0.0
 10
401.49658203125
 20
517.36572265625
 30
0.0
 10
401.49658203125
 20
517.36572265625
 30
0.0
 10
401.49658203125
 20
517.36572265625
 30
0.0
 10
401.49658203125
 20
528.3388671875
 30
0.0
 10
401.49658203125
 20
528.3388671875
 30
0.0
  0
SPLINE
  5
4D
330
1F
100
AcDbEntity
  8
LAYER_1
 62
     7
100
AcDbSpline
210
0.0
220
0.0
230
1.0
 70
    11
 71
     3
 72
    65
 73
    61
 74
     0
 42
0.0000000001
 43
0.0000000001
 40
0.0
 40
0.0
 40
0.0
 40
0.0
 40
1.0
 40
1.0
 40
1.0
 40
2.0
 40
2.0
 40
2.0
 40
3.0
 40
3.0
 40
3.0
 40
4.0
 40
4.0
 40
4.0
 40
5.0
 40
5.0
 40
5.0
 40
6.0
 40
6.0
 40
6.0
 40
7.0
 40
7.0
 40
7.0
 40
8.0
 40
8.0
 40
8.0
 40
9.0
 40
9.0
 40
9.0
 40
10.0
 40
10.0
 40
10.0
 40
11.0
 40
11.0
 40
11.0
 40
12.0
 40
12.0
 40
12.0
 40
13.0
 40
13.0
 40
13.0
 40
14.0
 40
14.0
 40
14.0
 40
15.0
 40
15.0
 40
15.0
 40
16.0
 40
16.0
 40
16.0
 40
17.0
 40
17.0
 40
17.0
 40
18.0
 40
18.0
 40
18.0
 40
19.0
 40
19.0
 40
19.0
 40
20.0
 40
20.0
 40
20.0
 40
20.0
 10
411.41748046875
 20
503.19287109375
 30
0.0
 10
411.41748046875
 20
503.19287109375
 30
0.0
 10
412.55517578125
 20
503.19287109375
 30
0.0
 10
412.55517578125
 20
503.19287109375
 30
0.0
 10
413.30224609375
 20
504.48388671875
 30
0.0
 10
414.37841796875
 20
505.5595703125
 30
0.0
 10
415.66943359375
 20
506.306640625
 30
0.0
 10
415.66943359375
 20
506.306640625
 30
0.0
 10
415.66943359375
 20
507.44482421875
 30
0.0
 10
415.66943359375
 20
507.44482421875
 30
0.0
 10
415.66943359375
 20
507.44482421875
 30
0.0
 10
419.92138671875
 20
507.44482421875
 30
0.0
 10
419.92138671875
 20
507.44482421875
 30
0.0
 10
419.92138671875
 20
507.44482421875
 30
0.0
 10
424.1728515625
 20
507.44482421875
 30
0.0
 10
424.1728515625
 20
507.44482421875
 30
0.0
 10
424.1728515625
 20
507.44482421875
 30
0.0
 10
424.1728515625
 20
506.306640625
 30
0.0
 10
424.1728515625
 20
506.306640625
 30
0.0
 10
425.46484375
 20
505.5595703125
 30
0.0
 10
426.5400390625
 20
504.48388671875
 30
0.0
 10
427.287109375
 20
503.19287109375
 30
0.0
 10
427.287109375
 20
503.19287109375
 30
0.0
 10
428.42578125
 20
503.19287109375
 30
0.0
 10
428.42578125
 20
503.19287109375
 30
0.0
 10
428.42578125
 20
503.19287109375
 30
0.0
 10
428.42578125
 20
498.94091796875
 30
0.0
 10
428.42578125
 20
498.94091796875
 30
0.0
 10
428.42578125
 20
498.94091796875
 30
0.0
 10
428.42578125
 20
494.68896484375
 30
0.0
 10
428.42578125
 20
494.68896484375
 30
0.0
 10
428.42578125
 20
494.68896484375
 30
0.0
 10
427.287109375
 20
494.68896484375
 30
0.0
 10
427.287109375
 20
494.68896484375
 30
0.0
 10
426.5400390625
 20
493.39794921875
 30
0.0
 10
425.46484375
 20
492.32177734375
 30
0.0
 10
424.1728515625
 20
491.57470703125
 30
0.0
 10
424.1728515625
 20
491.57470703125
 30
0.0
 10
424.1728515625
 20
490.43701171875
 30
0.0
 10
424.1728515625
 20
490.43701171875
 30
0.0
 10
424.1728515625
 20
490.43701171875
 30
0.0
 10
419.92138671875
 20
490.43701171875
 30
0.0
 10
419.92138671875
 20
490.43701171875
 30
0.0
 10
419.92138671875
 20
490.43701171875
 30
0.0
 10
415.66943359375
 20
490.43701171875
 30
0.0
 10
415.66943359375
 20
490.43701171875
 30
0.0
 10
415.66943359375
 20
490.43701171875
 30
0.0
 10
415.66943359375
 20
491.57470703125
 30
0.0
 10
415.66943359375
 20
491.57470703125
 30
0.0
 10
414.37841796875
 20
492.32177734375
 30
0.0
 10
413.30224609375
 20
493.39794921875
 30
0.0
 10
412.55517578125
 20
494.68896484375
 30
0.0
 10
412.55517578125
 20
494.68896484375
 30
0.0
 10
411.41748046875
 20
494.68896484375
 30
0.0
 10
411.41748046875
 20
494.68896484375
 30
0.0
 10
411.41748046875
 20
494.68896484375
 30
0.0
 10
411.41748046875
 20
498.94091796875
 30
0.0
 10
411.41748046875
 20
498.94091796875
 30
0.0
 10
411.41748046875
 20
498.94091796875
 30
0.0
 10
411.41748046875
 20
503.19287109375
 30
0.0
 10
411.41748046875
 20
503.19287109375
 30
0.0
  0
POLYLINE
  5
4E
330
1F
100
AcDbEntity
  8
LAYER_1
 62
     7
100
AcDb2dPolyline
 66
     1
 10
0.0
 20
0.0
 30
0.0
  0
VERTEX
  5
4F
330
4E
100
AcDbEntity
  8
LAYER_1
 62
     7
100
AcDbVertex
100
AcDb2dVertex
 10
370.6904296875
 20
550.6298828125
 30
0.0
  0
VERTEX
  5
50
330
4E
100
AcDbEntity
  8
LAYER_1
 62
     7
100
AcDbVertex
100
AcDb2dVertex
 10
465.6904296875
 20
550.6298828125
 30
0.0
  0
SEQEND
  5
51
330
4E
100
AcDbEntity
  8
LAYER_1
  0
SPLINE
  5
52
330
1F
100
AcDbEntity
  8
LAYER_1
 62
     7
100
AcDbSpline
210
0.0
220
0.0
230
1.0
 70
     8
 71
     3
 72
    14
 73
    10
 74
     0
 42
0.0000000001
 43
0.0000000001
 40
0.0
 40
0.0
 40
0.0
 40
0.0
 40
1.0
 40
1.0
 40
1.0
 40
2.0
 40
2.0
 40
2.0
 40
3.0
 40
3.0
 40
3.0
 40
3.0
 10
377.49755859375
 20
550.65966796875
 30
0.0
 10
376.96728515625
 20
556.56982421875
 30
0.0
 10
382.42431640625
 20
562.291015625
 30
0.0
 10
388.3525390625
 20
562.03955078125
 30
0.0
 10
389.96826171875
 20
561.9716796875
 30
0.0
 10
391.609375
 20
561.5
 30
0.0
 10
392.84716796875
 20
560.4599609375
 30
0.0
 10
395.13818359375
 20
558.53857421875
 30
0.0
 10
395.568359375
 20
554.3857421875
 30
0.0
 10
395.63232421875
 20
551.39697265625
 30
0.0
  0
SPLINE
  5
53
330
1F
100
AcDbEntity
  8
LAYER_1
 62
     7
100
AcDbSpline
210
0.0
220
0.0
230
1.0
 70
     8
 71
     3
 72
    29
 73
    25
 74
     0
 42
0.0000000001
 43
0.0000000001
 40
0.0
 40
0.0
 40
0.0
 40
0.0
 40
1.0
 40
1.0
 40
1.0
 40
2.0
 40
2.0
 40
2.0
 40
3.0
 40
3.0
 40
3.0
 40
4.0
 40
4.0
 40
4.0
 40
5.0
 40
5.0
 40
5.0
 40
6.0
 40
6.0
 40
6.0
 40
7.0
 40
7.0
 40
7.0
 40
8.0
 40
8.0
 40
8.0
 40
8.0
 10
396.724609375
 20
551.15185546875
 30
0.0
 10
397.11962890625
 20
556.86572265625
 30
0.0
 10
402.40673828125
 20
561.806640625
 30
0.0
 10
408.134765625
 20
561.81396484375
 30
0.0
 10
413.86279296875
 20
561.82080078125
 30
0.0
 10
419.16259765625
 20
556.89501953125
 30
0.0
 10
419.57275390625
 20
551.181640625
 30
0.0
 10
420.728515625
 20
556.6650390625
 30
0.0
 10
424.8974609375
 20
561.798828125
 30
0.0
 10
430.435546875
 20
562.66015625
 30
0.0
 10
435.97265625
 20
563.52197265625
 30
0.0
 10
442.1025390625
 20
556.24169921875
 30
0.0
 10
441.439453125
 20
550.6767578125
 30
0.0
 10
442.1318359375
 20
553.8740234375
 30
0.0
 10
443.6689453125
 20
559.52685546875
 30
0.0
 10
446.3359375
 20
561.419921875
 30
0.0
 10
449.00390625
 20
563.31201171875
 30
0.0
 10
452.939453125
 20
563.61376953125
 30
0.0
 10
455.46484375
 20
561.53515625
 30
0.0
 10
456.662109375
 20
560.548828125
 30
0.0
 10
457.447265625
 20
559.14794921875
 30
0.0
 10
458.041015625
 20
557.7138671875
 30
0.0
 10
458.8271484375
 20
555.81689453125
 30
0.0
 10
459.3310546875
 20
553.80078125
 30
0.0
 10
459.52734375
 20
551.755859375
 30
0.0
  0
SPLINE
  5
54
330
1F
100
AcDbEntity
  8
LAYER_1
100
AcDbSpline
210
0.0
220
0.0
230
1.0
 70
     8
 71
     3
 72
    11
 73
     7
 74
     0
 42
0.0000000001
 43
0.0000000001
 40
0.0
 40
0.0
 40
0.0
 40
0.0
 40
1.0
 40
1.0
 40
1.0
 40
2.0
 40
2.0
 40
2.0
 40
2.0
 10
380.5498046875
 20
603.7333984375
 30
0.0
 10
380.849609375
 20
601.2197265625
 30
0.0
 10
383.2158203125
 20
599.12255859375
 30
0.0
 10
385.74755859375
 20
599.12841796875
 30
0.0
 10
388.27978515625
 20
599.1337890625
 30
0.0
 10
390.63671875
 20
601.23974609375
 30
0.0
 10
390.92578125
 20
603.75537109375
 30
0.0
  0
HATCH
  5
55
330
1F
100
AcDbEntity
  8
LAYER_1
 62
   250
100
AcDbHatch
 10
0.0
 20
0.0
 30
0.0
210
0.0
220
0.0
230
1.0
  2
SOLID
 70
     1
 71
     0
 91
        1
 92
        1
 93
        2
 72
     4
 94
        3
 73
     0
 74
     0
 95
       11
 96
        7
 40
0.0
 40
0.0
 40
0.0
 40
0.0
 40
1.0
 40
1.0
 40
1.0
 40
2.0
 40
2.0
 40
2.0
 40
2.0
 10
380.5498046875
 20
603.7333984375
 10
380.849609375
 20
601.2197265625
 10
383.2158203125
 20
599.12255859375
 10
385.74755859375
 20
599.12841796875
 10
388.27978515625
 20
599.1337890625
 10
390.63671875
 20
601.23974609375
 10
390.92578125
 20
603.75537109375
 72
     1
 10
390.92578125
 20
603.75537109375
 11
380.5498046875
 21
603.7333984375
 97
        0
 75
     2
 76
     1
 98
        0
  0
SPLINE
  5
56
330
1F
100
AcDbEntity
  8
LAYER_1
 62
     7
100
AcDbSpline
210
0.0
220
0.0
230
1.0
 70
     8
 71
     3
 72
    11
 73
     7
 74
     0
 42
0.0000000001
 43
0.0000000001
 40
0.0
 40
0.0
 40
0.0
 40
0.0
 40
1.0
 40
1.0
 40
1.0
 40
2.0
 40
2.0
 40
2.0
 40
2.0
 10
380.5498046875
 20
603.7333984375
 30
0.0
 10
380.849609375
 20
601.2197265625
 30
0.0
 10
383.2158203125
 20
599.12255859375
 30
0.0
 10
385.74755859375
 20
599.12841796875
 30
0.0
 10
388.27978515625
 20
599.1337890625
 30
0.0
 10
390.63671875
 20
601.23974609375
 30
0.0
 10
390.92578125
 20
603.75537109375
 30
0.0
  0
SPLINE
  5
57
330
1F
100
AcDbEntity
  8
LAYER_1
 62
     7
100
AcDbSpline
210
0.0
220
0.0
230
1.0
 70
    11
 71
     3
 72
    14
 73
    10
 74
     0
 42
0.0000000001
 43
0.0000000001
 40
0.0
 40
0.0
 40
0.0
 40
0.0
 40
1.0
 40
1.0
 40
1.0
 40
2.0
 40
2.0
 40
2.0
 40
3.0
 40
3.0
 40
3.0
 40
3.0
 10
495.130859375
 20
623.59375
 30
0.0
 10
495.130859375
 20
623.59375
 30
0.0
 10
495.130859375
 20
622.6611328125
 30
0.0
 10
495.130859375
 20
622.6611328125
 30
0.0
 10
494.8134765625
 20
623.0439453125
 30
0.0
 10
494.48046875
 20
623.4111328125
 30
0.0
 10
494.154296875
 20
623.7861328125
 30
0.0
 10
494.48046875
 20
623.72705078125
 30
0.0
 10
494.8046875
 20
623.6611328125
 30
0.0
 10
495.130859375
 20
623.59375
 30
0.0
  0
SPLINE
  5
58
330
1F
100
AcDbEntity
  8
LAYER_1
 62
     7
100
AcDbSpline
210
0.0
220
0.0
230
1.0
 70
    11
 71
     3
 72
    95
 73
    91
 74
     0
 42
0.0000000001
 43
0.0000000001
 40
0.0
 40
0.0
 40
0.0
 40
0.0
 40
1.0
 40
1.0
 40
1.0
 40
2.0
 40
2.0
 40
2.0
 40
3.0
 40
3.0
 40
3.0
 40
4.0
 40
4.0
 40
4.0
 40
5.0
 40
5.0
 40
5.0
 40
6.0
 40
6.0
 40
6.0
 40
7.0
 40
7.0
 40
7.0
 40
8.0
 40
8.0
 40
8.0
 40
9.0
 40
9.0
 40
9.0
 40
10.0
 40
10.0
 40
10.0
 40
11.0
 40
11.0
 40
11.0
 40
12.0
 40
12.0
 40
12.0
 40
13.0
 40
13.0
 40
13.0
 40
14.0
 40
14.0
 40
14.0
 40
15.0
 40
15.0
 40
15.0
 40
16.0
 40
16.0
 40
16.0
 40
17.0
 40
17.0
 40
17.0
 40
18.0
 40
18.0
 40
18.0
 40
19.0
 40
19.0
 40
19.0
 40
20.0
 40
20.0
 40
20.0
 40
21.0
 40
21.0
 40
21.0
 40
22.0
 40
22.0
 40
22.0
 40
23.0
 40
23.0
 40
23.0
 40
24.0
 40
24.0
 40
24.0
 40
25.0
 40
25.0
 40
25.0
 40
26.0
 40
26.0
 40
26.0
 40
27.0
 40
27.0
 40
27.0
 40
28.0
 40
28.0
 40
28.0
 40
29.0
 40
29.0
 40
29.0
 40
30.0
 40
30.0
 40
30.0
 40
30.0
 10
526.31640625
 20
563.111328125
 30
0.0
 10
516.568359375
 20
566.8603515625
 30
0.0
 10
507.060546875
 20
571.568359375
 30
0.0
 10
498.005859375
 20
577.1513671875
 30
0.0
 10
510.7685546875
 20
556.5546875
 30
0.0
 10
519.04296875
 20
532.96533203125
 30
0.0
 10
521.900390625
 20
508.76953125
 30
0.0
 10
511.353515625
 20
515.70166015625
 30
0.0
 10
500.73828125
 20
522.53466796875
 30
0.0
 10
490.0478515625
 20
529.2666015625
 30
0.0
 10
488.59765625
 20
528.43359375
 30
0.0
 10
486.9150390625
 20
527.95849609375
 30
0.0
 10
485.130859375
 20
527.95849609375
 30
0.0
 10
485.130859375
 20
527.95849609375
 30
0.0
 10
458.255859375
 20
527.95849609375
 30
0.0
 10
458.255859375
 20
527.95849609375
 30
0.0
 10
458.255859375
 20
527.95849609375
 30
0.0
 10
402.83203125
 20
527.95849609375
 30
0.0
 10
402.83203125
 20
527.95849609375
 30
0.0
 10
387.404296875
 20
527.95849609375
 30
0.0
 10
371.67138671875
 20
528.857421875
 30
0.0
 10
356.26708984375
 20
527.9443359375
 30
0.0
 10
354.02294921875
 20
527.810546875
 30
0.0
 10
350.52197265625
 20
527.7724609375
 30
0.0
 10
349.2822265625
 20
530.197265625
 30
0.0
 10
349.693359375
 20
529.3935546875
 30
0.0
 10
345.8671875
 20
525.388671875
 30
0.0
 10
345.26513671875
 20
524.79345703125
 30
0.0
 10
343.2060546875
 20
522.76171875
 30
0.0
 10
341.16796875
 20
520.71044921875
 30
0.0
 10
339.109375
 20
518.6796875
 30
0.0
 10
334.79638671875
 20
514.42333984375
 30
0.0
 10
330.322265625
 20
510.3603515625
 30
0.0
 10
325.47119140625
 20
506.7197265625
 30
0.0
 10
320.60498046875
 20
527.05029296875
 30
0.0
 10
329.30517578125
 20
548.74658203125
 30
0.0
 10
338.77001953125
 20
566.5947265625
 30
0.0
 10
330.87109375
 20
561.4033203125
 30
0.0
 10
316.9140625
 20
556.17041015625
 30
0.0
 10
308.8994140625
 20
550.896484375
 30
0.0
 10
307.7822265625
 20
577.34228515625
 30
0.0
 10
322.4140625
 20
603.41357421875
 30
0.0
 10
338.51220703125
 20
623.060546875
 30
0.0
 10
329.86328125
 20
620.24462890625
 30
0.0
 10
315.47314453125
 20
616.5703125
 30
0.0
 10
307.50732421875
 20
612.07958984375
 30
0.0
 10
310.6982421875
 20
635.43359375
 30
0.0
 10
327.80517578125
 20
657.6884765625
 30
0.0
 10
345.51123046875
 20
672.236328125
 30
0.0
 10
350.25244140625
 20
676.13671875
 30
0.0
 10
354.67626953125
 20
679.41064453125
 30
0.0
 10
360.5341796875
 20
681.4853515625
 30
0.0
 10
373.20703125
 20
685.7685546875
 30
0.0
 10
386.55517578125
 20
688.12646484375
 30
0.0
 10
400.00341796875
 20
688.484375
 30
0.0
 10
393.6953125
 20
692.6083984375
 30
0.0
 10
387.49609375
 20
696.90869140625
 30
0.0
 10
381.4140625
 20
701.37451171875
 30
0.0
 10
392.01220703125
 20
700.865234375
 30
0.0
 10
402.619140625
 20
697.9072265625
 30
0.0
 10
412.10107421875
 20
692.8173828125
 30
0.0
 10
415.125
 20
696.86669921875
 30
0.0
 10
417.97509765625
 20
701.0322265625
 30
0.0
 10
420.63330078125
 20
705.29052734375
 30
0.0
 10
424.056640625
 20
701.34033203125
 30
0.0
 10
426.5986328125
 20
696.69140625
 30
0.0
 10
427.9892578125
 20
691.8173828125
 30
0.0
 10
435.431640625
 20
698.2744140625
 30
0.0
 10
444.6953125
 20
702.63232421875
 30
0.0
 10
454.619140625
 20
704.38134765625
 30
0.0
 10
451.6201171875
 20
699.17431640625
 30
0.0
 10
448.6044921875
 20
693.93359375
 30
0.0
 10
445.5703125
 20
688.66748046875
 30
0.0
 10
465.2099609375
 20
689.38427734375
 30
0.0
 10
485.7060546875
 20
681.310546875
 30
0.0
 10
500.4296875
 20
667.12939453125
 30
0.0
 10
517.91796875
 20
650.28125
 30
0.0
 10
526.591796875
 20
626.58544921875
 30
0.0
 10
534.681640625
 20
603.70556640625
 30
0.0
 10
523.3671875
 20
613.7626953125
 30
0.0
 10
509.5029296875
 20
620.71142578125
 30
0.0
 10
495.130859375
 20
623.5947265625
 30
0.0
 10
494.8046875
 20
623.66064453125
 30
0.0
 10
494.48046875
 20
623.7275390625
 30
0.0
 10
494.154296875
 20
623.78564453125
 30
0.0
 10
494.48046875
 20
623.41064453125
 30
0.0
 10
494.8134765625
 20
623.04443359375
 30
0.0
 10
495.130859375
 20
622.66064453125
 30
0.0
 10
509.8857421875
 20
605.5966796875
 30
0.0
 10
520.734375
 20
584.95849609375
 30
0.0
 10
526.31640625
 20
563.111328125
 30
0.0
  0
SPLINE
  5
59
330
1F
100
AcDbEntity
  8
LAYER_1
 62
     7
100
AcDbSpline
210
0.0
220
0.0
230
1.0
 70
    11
 71
     3
 72
    35
 73
    31
 74
     0
 42
0.0000000001
 43
0.0000000001
 40
0.0
 40
0.0
 40
0.0
 40
0.0
 40
1.0
 40
1.0
 40
1.0
 40
2.0
 40
2.0
 40
2.0
 40
3.0
 40
3.0
 40
3.0
 40
4.0
 40
4.0
 40
4.0
 40
5.0
 40
5.0
 40
5.0
 40
6.0
 40
6.0
 40
6.0
 40
7.0
 40
7.0
 40
7.0
 40
8.0
 40
8.0
 40
8.0
 40
9.0
 40
9.0
 40
9.0
 40
10.0
 40
10.0
 40
10.0
 40
10.0
 10
382.96923828125
 20
603.66455078125
 30
0.0
 10
374.75341796875
 20
603.65478515625
 30
0.0
 10
366.537109375
 20
603.79248046875
 30
0.0
 10
358.3251953125
 20
604.08056640625
 30
0.0
 10
359.05810546875
 20
599.91455078125
 30
0.0
 10
360.43408203125
 20
595.83984375
 30
0.0
 10
362.63037109375
 20
592.2265625
 30
0.0
 10
364.63330078125
 20
588.9326171875
 30
0.0
 10
367.33544921875
 20
586.03369140625
 30
0.0
 10
370.58935546875
 20
583.9775390625
 30
0.0
 10
377.12451171875
 20
580.484375
 30
0.0
 10
384.7705078125
 20
578.45068359375
 30
0.0
 10
392.0673828125
 20
579.79052734375
 30
0.0
 10
394.46044921875
 20
580.26953125
 30
0.0
 10
396.80126953125
 20
581.015625
 30
0.0
 10
399.0283203125
 20
582.015625
 30
0.0
 10
403.21337890625
 20
584.86279296875
 30
0.0
 10
405.00830078125
 20
586.04248046875
 30
0.0
 10
407.9970703125
 20
590.12939453125
 30
0.0
 10
410.9873046875
 20
594.2197265625
 30
0.0
 10
412.87109375
 20
599.29443359375
 30
0.0
 10
412.3603515625
 20
604.33447265625
 30
0.0
 10
410.79638671875
 20
604.265625
 30
0.0
 10
409.232421875
 20
604.20166015625
 30
0.0
 10
407.66845703125
 20
604.142578125
 30
0.0
 10
403.0234375
 20
603.96875
 30
0.0
 10
398.37646484375
 20
603.841796875
 30
0.0
 10
393.72802734375
 20
603.7626953125
 30
0.0
 10
390.14208984375
 20
603.70166015625
 30
0.0
 10
386.55517578125
 20
603.66845703125
 30
0.0
 10
382.96923828125
 20
603.66455078125
 30
0.0
  0
SPLINE
  5
5A
330
1F
100
AcDbEntity
  8
LAYER_1
 62
     7
100
AcDbSpline
210
0.0
220
0.0
230
1.0
 70
     8
 71
     3
 72
    14
 73
    10
 74
     0
 42
0.0000000001
 43
0.0000000001
 40
0.0
 40
0.0
 40
0.0
 40
0.0
 40
1.0
 40
1.0
 40
1.0
 40
2.0
 40
2.0
 40
2.0
 40
3.0
 40
3.0
 40
3.0
 40
3.0
 10
483.02734375
 20
622.00830078125
 30
0.0
 10
483.02734375
 20
616.50927734375
 30
0.0
 10
478.5283203125
 20
612.01025390625
 30
0.0
 10
473.0283203125
 20
612.01025390625
 30
0.0
 10
473.0283203125
 20
612.01025390625
 30
0.0
 10
365.09765625
 20
612.01025390625
 30
0.0
 10
365.09765625
 20
612.01025390625
 30
0.0
 10
359.5986328125
 20
612.01025390625
 30
0.0
 10
355.099609375
 20
616.50927734375
 30
0.0
 10
355.099609375
 20
622.00830078125
 30
0.0
  0
POLYLINE
  5
5B
330
1F
100
AcDbEntity
  8
LAYER_1
 62
     7
100
AcDb2dPolyline
 66
     1
 10
0.0
 20
0.0
 30
0.0
  0
VERTEX
  5
5C
330
5B
100
AcDbEntity
  8
LAYER_1
 62
     7
100
AcDbVertex
100
AcDb2dVertex
 10
364.62841796875
 20
631.17333984375
 30
0.0
  0
VERTEX
  5
5D
330
5B
100
AcDbEntity
  8
LAYER_1
 62
     7
100
AcDbVertex
100
AcDb2dVertex
 10
473.193359375
 20
631.17333984375
 30
0.0
  0
SEQEND
  5
5E
330
5B
100
AcDbEntity
  8
LAYER_1
  0
POLYLINE
  5
5F
330
1F
100
AcDbEntity
  8
LAYER_1
 62
     7
100
AcDb2dPolyline
 66
     1
 10
0.0
 20
0.0
 30
0.0
  0
VERTEX
  5
60
330
5F
100
AcDbEntity
  8
LAYER_1
 62
     7
100
AcDbVertex
100
AcDb2dVertex
 10
404.29638671875
 20
643.94921875
 30
0.0
  0
VERTEX
  5
61
330
5F
100
AcDbEntity
  8
LAYER_1
 62
     7
100
AcDbVertex
100
AcDb2dVertex
 10
441.2353515625
 20
643.94921875
 30
0.0
  0
SEQEND
  5
62
330
5F
100
AcDbEntity
  8
LAYER_1
  0
SPLINE
  5
63
330
1F
100
AcDbEntity
  8
LAYER_1
100
AcDbSpline
210
0.0
220
0.0
230
1.0
 70
     8
 71
     3
 72
    11
 73
     7
 74
     0
 42
0.0000000001
 43
0.0000000001
 40
0.0
 40
0.0
 40
0.0
 40
0.0
 40
1.0
 40
1.0
 40
1.0
 40
2.0
 40
2.0
 40
2.0
 40
2.0
 10
456.876953125
 20
603.7333984375
 30
0.0
 10
456.5771484375
 20
601.2197265625
 30
0.0
 10
454.2099609375
 20
599.12255859375
 30
0.0
 10
451.677734375
 20
599.12841796875
 30
0.0
 10
449.1474609375
 20
599.1337890625
 30
0.0
 10
446.7900390625
 20
601.23974609375
 30
0.0
 10
446.5
 20
603.75537109375
 30
0.0
  0
HATCH
  5
64
330
1F
100
AcDbEntity
  8
LAYER_1
 62
   250
100
AcDbHatch
 10
0.0
 20
0.0
 30
0.0
210
0.0
220
0.0
230
1.0
  2
SOLID
 70
     1
 71
     0
 91
        1
 92
        1
 93
        2
 72
     4
 94
        3
 73
     0
 74
     0
 95
       11
 96
        7
 40
0.0
 40
0.0
 40
0.0
 40
0.0
 40
1.0
 40
1.0
 40
1.0
 40
2.0
 40
2.0
 40
2.0
 40
2.0
 10
456.876953125
 20
603.7333984375
 10
456.5771484375
 20
601.2197265625
 10
454.2099609375
 20
599.12255859375
 10
451.677734375
 20
599.12841796875
 10
449.1474609375
 20
599.1337890625
 10
446.7900390625
 20
601.23974609375
 10
446.5
 20
603.75537109375
 72
     1
 10
446.5
 20
603.75537109375
 11
456.876953125
 21
603.7333984375
 97
        0
 75
     2
 76
     1
 98
        0
  0
SPLINE
  5
65
330
1F
100
AcDbEntity
  8
LAYER_1
 62
     7
100
AcDbSpline
210
0.0
220
0.0
230
1.0
 70
     8
 71
     3
 72
    11
 73
     7
 74
     0
 42
0.0000000001
 43
0.0000000001
 40
0.0
 40
0.0
 40
0.0
 40
0.0
 40
1.0
 40
1.0
 40
1.0
 40
2.0
 40
2.0
 40
2.0
 40
2.0
 10
456.876953125
 20
603.7333984375
 30
0.0
 10
456.5771484375
 20
601.2197265625
 30
0.0
 10
454.2099609375
 20
599.12255859375
 30
0.0
 10
451.677734375
 20
599.12841796875
 30
0.0
 10
449.1474609375
 20
599.1337890625
 30
0.0
 10
446.7900390625
 20
601.23974609375
 30
0.0
 10
446.5
 20
603.75537109375
 30
0.0
  0
SPLINE
  5
66
330
1F
100
AcDbEntity
  8
LAYER_1
 62
     7
100
AcDbSpline
210
0.0
220
0.0
230
1.0
 70
    11
 71
     3
 72
    35
 73
    31
 74
     0
 42
0.0000000001
 43
0.0000000001
 40
0.0
 40
0.0
 40
0.0
 40
0.0
 40
1.0
 40
1.0
 40
1.0
 40
2.0
 40
2.0
 40
2.0
 40
3.0
 40
3.0
 40
3.0
 40
4.0
 40
4.0
 40
4.0
 40
5.0
 40
5.0
 40
5.0
 40
6.0
 40
6.0
 40
6.0
 40
7.0
 40
7.0
 40
7.0
 40
8.0
 40
8.0
 40
8.0
 40
9.0
 40
9.0
 40
9.0
 40
10.0
 40
10.0
 40
10.0
 40
10.0
 10
454.4560546875
 20
603.66455078125
 30
0.0
 10
462.6728515625
 20
603.65478515625
 30
0.0
 10
470.8896484375
 20
603.79248046875
 30
0.0
 10
479.1015625
 20
604.08056640625
 30
0.0
 10
478.3671875
 20
599.91455078125
 30
0.0
 10
476.9921875
 20
595.83984375
 30
0.0
 10
474.796875
 20
592.2265625
 30
0.0
 10
472.7939453125
 20
588.9326171875
 30
0.0
 10
470.0908203125
 20
586.03369140625
 30
0.0
 10
466.837890625
 20
583.9775390625
 30
0.0
 10
460.3017578125
 20
580.484375
 30
0.0
 10
452.65625
 20
578.45068359375
 30
0.0
 10
445.359375
 20
579.79052734375
 30
0.0
 10
442.9658203125
 20
580.26953125
 30
0.0
 10
440.625
 20
581.015625
 30
0.0
 10
438.3974609375
 20
582.015625
 30
0.0
 10
434.212890625
 20
584.86279296875
 30
0.0
 10
432.4189453125
 20
586.04248046875
 30
0.0
 10
429.4296875
 20
590.12939453125
 30
0.0
 10
426.439453125
 20
594.2197265625
 30
0.0
 10
424.5546875
 20
599.29443359375
 30
0.0
 10
425.0654296875
 20
604.33447265625
 30
0.0
 10
426.630859375
 20
604.265625
 30
0.0
 10
428.193359375
 20
604.20166015625
 30
0.0
 10
429.7578125
 20
604.142578125
 30
0.0
 10
434.40234375
 20
603.96875
 30
0.0
 10
439.05078125
 20
603.841796875
 30
0.0
 10
443.6982421875
 20
603.7626953125
 30
0.0
 10
447.283203125
 20
603.70166015625
 30
0.0
 10
450.8701171875
 20
603.66845703125
 30
0.0
 10
454.4560546875
 20
603.66455078125
 30
0.0
  0
INSERT
  5
68
330
1F
100
AcDbEntity
  8
LAYER_1
100
AcDbBlockReference
  2
BLOCK_2
 10
0.0
 20
0.0
 30
0.0
  0
INSERT
  5
92
330
1F
100
AcDbEntity
  8
LAYER_1
100
AcDbBlockReference
  2
BLOCK_3
 10
0.0
 20
0.0
 30
0.0
  0
SPLINE
  5
BB
330
1F
100
AcDbEntity
  8
LAYER_1
 62
     7
100
AcDbSpline
210
0.0
220
0.0
230
1.0
 70
    11
 71
     3
 72
    65
 73
    61
 74
     0
 42
0.0000000001
 43
0.0000000001
 40
0.0
 40
0.0
 40
0.0
 40
0.0
 40
1.0
 40
1.0
 40
1.0
 40
2.0
 40
2.0
 40
2.0
 40
3.0
 40
3.0
 40
3.0
 40
4.0
 40
4.0
 40
4.0
 40
5.0
 40
5.0
 40
5.0
 40
6.0
 40
6.0
 40
6.0
 40
7.0
 40
7.0
 40
7.0
 40
8.0
 40
8.0
 40
8.0
 40
9.0
 40
9.0
 40
9.0
 40
10.0
 40
10.0
 40
10.0
 40
11.0
 40
11.0
 40
11.0
 40
12.0
 40
12.0
 40
12.0
 40
13.0
 40
13.0
 40
13.0
 40
14.0
 40
14.0
 40
14.0
 40
15.0
 40
15.0
 40
15.0
 40
16.0
 40
16.0
 40
16.0
 40
17.0
 40
17.0
 40
17.0
 40
18.0
 40
18.0
 40
18.0
 40
19.0
 40
19.0
 40
19.0
 40
20.0
 40
20.0
 40
20.0
 40
20.0
 10
484.25
 20
215.7216796875
 30
0.0
 10
484.25
 20
215.7216796875
 30
0.0
 10
483.11328125
 20
215.7216796875
 30
0.0
 10
483.11328125
 20
215.7216796875
 30
0.0
 10
482.365234375
 20
214.4306640625
 30
0.0
 10
481.2900390625
 20
213.3544921875
 30
0.0
 10
479.998046875
 20
212.607421875
 30
0.0
 10
479.998046875
 20
212.607421875
 30
0.0
 10
479.998046875
 20
211.46875
 30
0.0
 10
479.998046875
 20
211.46875
 30
0.0
 10
479.998046875
 20
211.46875
 30
0.0
 10
475.74609375
 20
211.46875
 30
0.0
 10
475.74609375
 20
211.46875
 30
0.0
 10
475.74609375
 20
211.46875
 30
0.0
 10
471.494140625
 20
211.46875
 30
0.0
 10
471.494140625
 20
211.46875
 30
0.0
 10
471.494140625
 20
211.46875
 30
0.0
 10
471.494140625
 20
212.607421875
 30
0.0
 10
471.494140625
 20
212.607421875
 30
0.0
 10
470.205078125
 20
213.3544921875
 30
0.0
 10
469.126953125
 20
214.4306640625
 30
0.0
 10
468.380859375
 20
215.7216796875
 30
0.0
 10
468.380859375
 20
215.7216796875
 30
0.0
 10
467.2421875
 20
215.7216796875
 30
0.0
 10
467.2421875
 20
215.7216796875
 30
0.0
 10
467.2421875
 20
215.7216796875
 30
0.0
 10
467.2421875
 20
219.9736328125
 30
0.0
 10
467.2421875
 20
219.9736328125
 30
0.0
 10
467.2421875
 20
219.9736328125
 30
0.0
 10
467.2421875
 20
224.2255859375
 30
0.0
 10
467.2421875
 20
224.2255859375
 30
0.0
 10
467.2421875
 20
224.2255859375
 30
0.0
 10
468.380859375
 20
224.2255859375
 30
0.0
 10
468.380859375
 20
224.2255859375
 30
0.0
 10
469.126953125
 20
225.515625
 30
0.0
 10
470.205078125
 20
226.591796875
 30
0.0
 10
471.494140625
 20
227.3388671875
 30
0.0
 10
471.494140625
 20
227.3388671875
 30
0.0
 10
471.494140625
 20
228.4775390625
 30
0.0
 10
471.494140625
 20
228.4775390625
 30
0.0
 10
471.494140625
 20
228.4775390625
 30
0.0
 10
475.74609375
 20
228.4775390625
 30
0.0
 10
475.74609375
 20
228.4775390625
 30
0.0
 10
475.74609375
 20
228.4775390625
 30
0.0
 10
479.998046875
 20
228.4775390625
 30
0.0
 10
479.998046875
 20
228.4775390625
 30
0.0
 10
479.998046875
 20
228.4775390625
 30
0.0
 10
479.998046875
 20
227.3388671875
 30
0.0
 10
479.998046875
 20
227.3388671875
 30
0.0
 10
481.2900390625
 20
226.591796875
 30
0.0
 10
482.365234375
 20
225.515625
 30
0.0
 10
483.11328125
 20
224.2255859375
 30
0.0
 10
483.11328125
 20
224.2255859375
 30
0.0
 10
484.25
 20
224.2255859375
 30
0.0
 10
484.25
 20
224.2255859375
 30
0.0
 10
484.25
 20
224.2255859375
 30
0.0
 10
484.25
 20
219.9736328125
 30
0.0
 10
484.25
 20
219.9736328125
 30
0.0
 10
484.25
 20
219.9736328125
 30
0.0
 10
484.25
 20
215.7216796875
 30
0.0
 10
484.25
 20
215.7216796875
 30
0.0
  0
POLYLINE
  5
BC
330
1F
100
AcDbEntity
  8
LAYER_1
 62
     7
100
AcDb2dPolyline
 66
     1
 10
0.0
 20
0.0
 30
0.0
  0
VERTEX
  5
BD
330
BC
100
AcDbEntity
  8
LAYER_1
 62
     7
100
AcDbVertex
100
AcDb2dVertex
 10
455.9033203125
 20
215.720703125
 30
0.0
  0
VERTEX
  5
BE
330
BC
100
AcDbEntity
  8
LAYER_1
 62
     7
100
AcDbVertex
100
AcDb2dVertex
 10
438.896484375
 20
215.720703125
 30
0.0
  0
VERTEX
  5
BF
330
BC
100
AcDbEntity
  8
LAYER_1
 62
     7
100
AcDbVertex
100
AcDb2dVertex
 10
438.896484375
 20
224.224609375
 30
0.0
  0
VERTEX
  5
C0
330
BC
100
AcDbEntity
  8
LAYER_1
 62
     7
100
AcDbVertex
100
AcDb2dVertex
 10
455.9033203125
 20
224.224609375
 30
0.0
  0
VERTEX
  5
C1
330
BC
100
AcDbEntity
  8
LAYER_1
 62
     7
100
AcDbVertex
100
AcDb2dVertex
 10
455.9033203125
 20
215.720703125
 30
0.0
  0
SEQEND
  5
C2
330
BC
100
AcDbEntity
  8
LAYER_1
  0
POLYLINE
  5
C3
330
1F
100
AcDbEntity
  8
LAYER_1
 62
     7
100
AcDb2dPolyline
 66
     1
 10
0.0
 20
0.0
 30
0.0
  0
VERTEX
  5
C4
330
C3
100
AcDbEntity
  8
LAYER_1
 62
     7
100
AcDbVertex
100
AcDb2dVertex
 10
399.2119140625
 20
215.720703125
 30
0.0
  0
VERTEX
  5
C5
330
C3
100
AcDbEntity
  8
LAYER_1
 62
     7
100
AcDbVertex
100
AcDb2dVertex
 10
382.2041015625
 20
215.720703125
 30
0.0
  0
VERTEX
  5
C6
330
C3
100
AcDbEntity
  8
LAYER_1
 62
     7
100
AcDbVertex
100
AcDb2dVertex
 10
382.2041015625
 20
224.224609375
 30
0.0
  0
VERTEX
  5
C7
330
C3
100
AcDbEntity
  8
LAYER_1
 62
     7
100
AcDbVertex
100
AcDb2dVertex
 10
399.2119140625
 20
224.224609375
 30
0.0
  0
VERTEX
  5
C8
330
C3
100
AcDbEntity
  8
LAYER_1
 62
     7
100
AcDbVertex
100
AcDb2dVertex
 10
399.2119140625
 20
215.720703125
 30
0.0
  0
SEQEND
  5
C9
330
C3
100
AcDbEntity
  8
LAYER_1
  0
SPLINE
  5
CA
330
1F
100
AcDbEntity
  8
LAYER_1
 62
     7
100
AcDbSpline
210
0.0
220
0.0
230
1.0
 70
    11
 71
     3
 72
    65
 73
    61
 74
     0
 42
0.0000000001
 43
0.0000000001
 40
0.0
 40
0.0
 40
0.0
 40
0.0
 40
1.0
 40
1.0
 40
1.0
 40
2.0
 40
2.0
 40
2.0
 40
3.0
 40
3.0
 40
3.0
 40
4.0
 40
4.0
 40
4.0
 40
5.0
 40
5.0
 40
5.0
 40
6.0
 40
6.0
 40
6.0
 40
7.0
 40
7.0
 40
7.0
 40
8.0
 40
8.0
 40
8.0
 40
9.0
 40
9.0
 40
9.0
 40
10.0
 40
10.0
 40
10.0
 40
11.0
 40
11.0
 40
11.0
 40
12.0
 40
12.0
 40
12.0
 40
13.0
 40
13.0
 40
13.0
 40
14.0
 40
14.0
 40
14.0
 40
15.0
 40
15.0
 40
15.0
 40
16.0
 40
16.0
 40
16.0
 40
17.0
 40
17.0
 40
17.0
 40
18.0
 40
18.0
 40
18.0
 40
19.0
 40
19.0
 40
19.0
 40
20.0
 40
20.0
 40
20.0
 40
20.0
 10
370.865234375
 20
215.7216796875
 30
0.0
 10
370.865234375
 20
215.7216796875
 30
0.0
 10
369.72705078125
 20
215.7216796875
 30
0.0
 10
369.72705078125
 20
215.7216796875
 30
0.0
 10
368.97998046875
 20
214.4306640625
 30
0.0
 10
367.904296875
 20
213.3544921875
 30
0.0
 10
366.61328125
 20
212.607421875
 30
0.0
 10
366.61328125
 20
212.607421875
 30
0.0
 10
366.61328125
 20
211.46875
 30
0.0
 10
366.61328125
 20
211.46875
 30
0.0
 10
366.61328125
 20
211.46875
 30
0.0
 10
362.36083984375
 20
211.46875
 30
0.0
 10
362.36083984375
 20
211.46875
 30
0.0
 10
362.36083984375
 20
211.46875
 30
0.0
 10
358.10888671875
 20
211.46875
 30
0.0
 10
358.10888671875
 20
211.46875
 30
0.0
 10
358.10888671875
 20
211.46875
 30
0.0
 10
358.10888671875
 20
212.607421875
 30
0.0
 10
358.10888671875
 20
212.607421875
 30
0.0
 10
356.81884765625
 20
213.3544921875
 30
0.0
 10
355.7421875
 20
214.4306640625
 30
0.0
 10
354.9951171875
 20
215.7216796875
 30
0.0
 10
354.9951171875
 20
215.7216796875
 30
0.0
 10
353.85693359375
 20
215.7216796875
 30
0.0
 10
353.85693359375
 20
215.7216796875
 30
0.0
 10
353.85693359375
 20
215.7216796875
 30
0.0
 10
353.85693359375
 20
219.9736328125
 30
0.0
 10
353.85693359375
 20
219.9736328125
 30
0.0
 10
353.85693359375
 20
219.9736328125
 30
0.0
 10
353.85693359375
 20
224.2255859375
 30
0.0
 10
353.85693359375
 20
224.2255859375
 30
0.0
 10
353.85693359375
 20
224.2255859375
 30
0.0
 10
354.9951171875
 20
224.2255859375
 30
0.0
 10
354.9951171875
 20
224.2255859375
 30
0.0
 10
355.7421875
 20
225.515625
 30
0.0
 10
356.81884765625
 20
226.591796875
 30
0.0
 10
358.10888671875
 20
227.3388671875
 30
0.0
 10
358.10888671875
 20
227.3388671875
 30
0.0
 10
358.10888671875
 20
228.4775390625
 30
0.0
 10
358.10888671875
 20
228.4775390625
 30
0.0
 10
358.10888671875
 20
228.4775390625
 30
0.0
 10
362.36083984375
 20
228.4775390625
 30
0.0
 10
362.36083984375
 20
228.4775390625
 30
0.0
 10
362.36083984375
 20
228.4775390625
 30
0.0
 10
366.61328125
 20
228.4775390625
 30
0.0
 10
366.61328125
 20
228.4775390625
 30
0.0
 10
366.61328125
 20
228.4775390625
 30
0.0
 10
366.61328125
 20
227.3388671875
 30
0.0
 10
366.61328125
 20
227.3388671875
 30
0.0
 10
367.904296875
 20
226.591796875
 30
0.0
 10
368.97998046875
 20
225.515625
 30
0.0
 10
369.72705078125
 20
224.2255859375
 30
0.0
 10
369.72705078125
 20
224.2255859375
 30
0.0
 10
370.865234375
 20
224.2255859375
 30
0.0
 10
370.865234375
 20
224.2255859375
 30
0.0
 10
370.865234375
 20
224.2255859375
 30
0.0
 10
370.865234375
 20
219.9736328125
 30
0.0
 10
370.865234375
 20
219.9736328125
 30
0.0
 10
370.865234375
 20
219.9736328125
 30
0.0
 10
370.865234375
 20
215.7216796875
 30
0.0
 10
370.865234375
 20
215.7216796875
 30
0.0
  0
SPLINE
  5
CB
330
1F
100
AcDbEntity
  8
LAYER_1
 62
     7
100
AcDbSpline
210
0.0
220
0.0
230
1.0
 70
    11
 71
     3
 72
    65
 73
    61
 74
     0
 42
0.0000000001
 43
0.0000000001
 40
0.0
 40
0.0
 40
0.0
 40
0.0
 40
1.0
 40
1.0
 40
1.0
 40
2.0
 40
2.0
 40
2.0
 40
3.0
 40
3.0
 40
3.0
 40
4.0
 40
4.0
 40
4.0
 40
5.0
 40
5.0
 40
5.0
 40
6.0
 40
6.0
 40
6.0
 40
7.0
 40
7.0
 40
7.0
 40
8.0
 40
8.0
 40
8.0
 40
9.0
 40
9.0
 40
9.0
 40
10.0
 40
10.0
 40
10.0
 40
11.0
 40
11.0
 40
11.0
 40
12.0
 40
12.0
 40
12.0
 40
13.0
 40
13.0
 40
13.0
 40
14.0
 40
14.0
 40
14.0
 40
15.0
 40
15.0
 40
15.0
 40
16.0
 40
16.0
 40
16.0
 40
17.0
 40
17.0
 40
17.0
 40
18.0
 40
18.0
 40
18.0
 40
19.0
 40
19.0
 40
19.0
 40
20.0
 40
20.0
 40
20.0
 40
20.0
 10
427.5576171875
 20
215.7216796875
 30
0.0
 10
427.5576171875
 20
215.7216796875
 30
0.0
 10
426.419921875
 20
215.7216796875
 30
0.0
 10
426.419921875
 20
215.7216796875
 30
0.0
 10
425.6728515625
 20
214.4306640625
 30
0.0
 10
424.59765625
 20
213.3544921875
 30
0.0
 10
423.306640625
 20
212.607421875
 30
0.0
 10
423.306640625
 20
212.607421875
 30
0.0
 10
423.306640625
 20
211.46875
 30
0.0
 10
423.306640625
 20
211.46875
 30
0.0
 10
423.306640625
 20
211.46875
 30
0.0
 10
419.05419921875
 20
211.46875
 30
0.0
 10
419.05419921875
 20
211.46875
 30
0.0
 10
419.05419921875
 20
211.46875
 30
0.0
 10
414.80224609375
 20
211.46875
 30
0.0
 10
414.80224609375
 20
211.46875
 30
0.0
 10
414.80224609375
 20
211.46875
 30
0.0
 10
414.80224609375
 20
212.607421875
 30
0.0
 10
414.80224609375
 20
212.607421875
 30
0.0
 10
413.51220703125
 20
213.3544921875
 30
0.0
 10
412.43505859375
 20
214.4306640625
 30
0.0
 10
411.68798828125
 20
215.7216796875
 30
0.0
 10
411.68798828125
 20
215.7216796875
 30
0.0
 10
410.5498046875
 20
215.7216796875
 30
0.0
 10
410.5498046875
 20
215.7216796875
 30
0.0
 10
410.5498046875
 20
215.7216796875
 30
0.0
 10
410.5498046875
 20
219.9736328125
 30
0.0
 10
410.5498046875
 20
219.9736328125
 30
0.0
 10
410.5498046875
 20
219.9736328125
 30
0.0
 10
410.5498046875
 20
224.2255859375
 30
0.0
 10
410.5498046875
 20
224.2255859375
 30
0.0
 10
410.5498046875
 20
224.2255859375
 30
0.0
 10
411.68798828125
 20
224.2255859375
 30
0.0
 10
411.68798828125
 20
224.2255859375
 30
0.0
 10
412.43505859375
 20
225.515625
 30
0.0
 10
413.51220703125
 20
226.591796875
 30
0.0
 10
414.80224609375
 20
227.3388671875
 30
0.0
 10
414.80224609375
 20
227.3388671875
 30
0.0
 10
414.80224609375
 20
228.4775390625
 30
0.0
 10
414.80224609375
 20
228.4775390625
 30
0.0
 10
414.80224609375
 20
228.4775390625
 30
0.0
 10
419.05419921875
 20
228.4775390625
 30
0.0
 10
419.05419921875
 20
228.4775390625
 30
0.0
 10
419.05419921875
 20
228.4775390625
 30
0.0
 10
423.306640625
 20
228.4775390625
 30
0.0
 10
423.306640625
 20
228.4775390625
 30
0.0
 10
423.306640625
 20
228.4775390625
 30
0.0
 10
423.306640625
 20
227.3388671875
 30
0.0
 10
423.306640625
 20
227.3388671875
 30
0.0
 10
424.59765625
 20
226.591796875
 30
0.0
 10
425.6728515625
 20
225.515625
 30
0.0
 10
426.419921875
 20
224.2255859375
 30
0.0
 10
426.419921875
 20
224.2255859375
 30
0.0
 10
427.5576171875
 20
224.2255859375
 30
0.0
 10
427.5576171875
 20
224.2255859375
 30
0.0
 10
427.5576171875
 20
224.2255859375
 30
0.0
 10
427.5576171875
 20
219.9736328125
 30
0.0
 10
427.5576171875
 20
219.9736328125
 30
0.0
 10
427.5576171875
 20
219.9736328125
 30
0.0
 10
427.5576171875
 20
215.7216796875
 30
0.0
 10
427.5576171875
 20
215.7216796875
 30
0.0
  0
SPLINE
  5
CC
330
1F
100
AcDbEntity
  8
LAYER_1
 62
   250
100
AcDbSpline
210
0.0
220
0.0
230
1.0
 70
     8
 71
     3
 72
   137
 73
   133
 74
     0
 42
0.0000000001
 43
0.0000000001
 40
0.0
 40
0.0
 40
0.0
 40
0.0
 40
1.0
 40
1.0
 40
1.0
 40
2.0
 40
2.0
 40
2.0
 40
3.0
 40
3.0
 40
3.0
 40
4.0
 40
4.0
 40
4.0
 40
5.0
 40
5.0
 40
5.0
 40
6.0
 40
6.0
 40
6.0
 40
7.0
 40
7.0
 40
7.0
 40
8.0
 40
8.0
 40
8.0
 40
9.0
 40
9.0
 40
9.0
 40
10.0
 40
10.0
 40
10.0
 40
11.0
 40
11.0
 40
11.0
 40
12.0
 40
12.0
 40
12.0
 40
13.0
 40
13.0
 40
13.0
 40
14.0
 40
14.0
 40
14.0
 40
15.0
 40
15.0
 40
15.0
 40
16.0
 40
16.0
 40
16.0
 40
17.0
 40
17.0
 40
17.0
 40
18.0
 40
18.0
 40
18.0
 40
19.0
 40
19.0
 40
19.0
 40
20.0
 40
20.0
 40
20.0
 40
21.0
 40
21.0
 40
21.0
 40
22.0
 40
22.0
 40
22.0
 40
23.0
 40
23.0
 40
23.0
 40
24.0
 40
24.0
 40
24.0
 40
25.0
 40
25.0
 40
25.0
 40
26.0
 40
26.0
 40
26.0
 40
27.0
 40
27.0
 40
27.0
 40
28.0
 40
28.0
 40
28.0
 40
29.0
 40
29.0
 40
29.0
 40
30.0
 40
30.0
 40
30.0
 40
31.0
 40
31.0
 40
31.0
 40
32.0
 40
32.0
 40
32.0
 40
33.0
 40
33.0
 40
33.0
 40
34.0
 40
34.0
 40
34.0
 40
35.0
 40
35.0
 40
35.0
 40
36.0
 40
36.0
 40
36.0
 40
37.0
 40
37.0
 40
37.0
 40
38.0
 40
38.0
 40
38.0
 40
39.0
 40
39.0
 40
39.0
 40
40.0
 40
40.0
 40
40.0
 40
41.0
 40
41.0
 40
41.0
 40
42.0
 40
42.0
 40
42.0
 40
43.0
 40
43.0
 40
43.0
 40
44.0
 40
44.0
 40
44.0
 40
44.0
 10
478.259765625
 20
201.55078125
 30
0.0
 10
478.259765625
 20
201.55078125
 30
0.0
 10
494.1689453125
 20
201.55078125
 30
0.0
 10
494.1689453125
 20
201.55078125
 30
0.0
 10
494.1689453125
 20
201.55078125
 30
0.0
 10
494.1689453125
 20
224.220703125
 30
0.0
 10
494.1689453125
 20
224.220703125
 30
0.0
 10
494.1689453125
 20
232.05078125
 30
0.0
 10
487.828125
 20
238.4013671875
 30
0.0
 10
479.998046875
 20
238.4013671875
 30
0.0
 10
479.998046875
 20
238.4013671875
 30
0.0
 10
358.10888671875
 20
238.4013671875
 30
0.0
 10
358.10888671875
 20
238.4013671875
 30
0.0
 10
350.27880859375
 20
238.4013671875
 30
0.0
 10
343.93896484375
 20
232.05078125
 30
0.0
 10
343.93896484375
 20
224.220703125
 30
0.0
 10
343.93896484375
 20
224.220703125
 30
0.0
 10
343.93896484375
 20
201.55078125
 30
0.0
 10
343.93896484375
 20
201.55078125
 30
0.0
 10
343.93896484375
 20
201.55078125
 30
0.0
 10
360.6240234375
 20
201.55078125
 30
0.0
 10
360.62890625
 20
201.55078125
 30
0.0
 10
360.3388671875
 20
201.21875
 30
0.0
 10
360.6318359375
 20
199.3740234375
 30
0.0
 10
360.6328125
 20
198.9560546875
 30
0.0
 10
360.64111328125
 20
197.03125
 30
0.0
 10
360.64697265625
 20
195.10546875
 30
0.0
 10
360.64013671875
 20
193.1787109375
 30
0.0
 10
360.6337890625
 20
191.607421875
 30
0.0
 10
360.97998046875
 20
189.4697265625
 30
0.0
 10
360.55908203125
 20
187.947265625
 30
0.0
 10
359.94189453125
 20
185.712890625
 30
0.0
 10
356.48486328125
 20
184.861328125
 30
0.0
 10
354.26171875
 20
184.716796875
 30
0.0
 10
348.6357421875
 20
184.3525390625
 30
0.0
 10
343.7578125
 20
184.3388671875
 30
0.0
 10
338.5400390625
 20
186.4375
 30
0.0
 10
333.169921875
 20
188.5966796875
 30
0.0
 10
327.81201171875
 20
190.841796875
 30
0.0
 10
322.8427734375
 20
193.8359375
 30
0.0
 10
319.9658203125
 20
195.5693359375
 30
0.0
 10
316.82275390625
 20
197.5458984375
 30
0.0
 10
313.6640625
 20
198.6826171875
 30
0.0
 10
304.56005859375
 20
201.9580078125
 30
0.0
 10
293.07080078125
 20
199.435546875
 30
0.0
 10
285.11279296875
 20
194.037109375
 30
0.0
 10
278.3310546875
 20
189.4365234375
 30
0.0
 10
272.5078125
 20
182.3623046875
 30
0.0
 10
269.7138671875
 20
174.609375
 30
0.0
 10
268.40673828125
 20
170.9814453125
 30
0.0
 10
267.3798828125
 20
167.3037109375
 30
0.0
 10
268.7041015625
 20
163.5224609375
 30
0.0
 10
269.60009765625
 20
160.9599609375
 30
0.0
 10
270.56103515625
 20
158.021484375
 30
0.0
 10
273.580078125
 20
157.6484375
 30
0.0
 10
278.953125
 20
156.984375
 30
0.0
 10
282.40869140625
 20
161.921875
 30
0.0
 10
286.2998046875
 20
164.7265625
 30
0.0
 10
289.35986328125
 20
166.9326171875
 30
0.0
 10
292.51904296875
 20
168.5556640625
 30
0.0
 10
295.89794921875
 20
170.2021484375
 30
0.0
 10
297.7119140625
 20
171.0849609375
 30
0.0
 10
304.583984375
 20
174.525390625
 30
0.0
 10
305.65380859375
 20
170.9599609375
 30
0.0
 10
306.22998046875
 20
169.0380859375
 30
0.0
 10
303.3701171875
 20
167.3037109375
 30
0.0
 10
302.1640625
 20
166.4453125
 30
0.0
 10
299.65673828125
 20
164.6611328125
 30
0.0
 10
297.12890625
 20
162.9599609375
 30
0.0
 10
294.7041015625
 20
161.0419921875
 30
0.0
 10
292.95166015625
 20
159.6552734375
 30
0.0
 10
291.55908203125
 20
158.3486328125
 30
0.0
 10
290.1728515625
 20
156.5546875
 30
0.0
 10
288.23681640625
 20
154.046875
 30
0.0
 10
286.01611328125
 20
152.171875
 30
0.0
 10
284.85595703125
 20
149.1416015625
 30
0.0
 10
283.53076171875
 20
145.681640625
 30
0.0
 10
283.48193359375
 20
141.970703125
 30
0.0
 10
284.93505859375
 20
138.5400390625
 30
0.0
 10
286.5859375
 20
134.642578125
 30
0.0
 10
290.57373046875
 20
130.8291015625
 30
0.0
 10
295.14013671875
 20
131.5546875
 30
0.0
 10
298.791015625
 20
132.134765625
 30
0.0
 10
301.71484375
 20
136.451171875
 30
0.0
 10
304.1328125
 20
139.037109375
 30
0.0
 10
307.44580078125
 20
142.5810546875
 30
0.0
 10
309.8701171875
 20
146.6015625
 30
0.0
 10
314.51806640625
 20
148.5146484375
 30
0.0
 10
315.7958984375
 20
149.041015625
 30
0.0
 10
323.10302734375
 20
150.9892578125
 30
0.0
 10
323.16796875
 20
148.12890625
 30
0.0
 10
323.19677734375
 20
146.8251953125
 30
0.0
 10
320.923828125
 20
146.501953125
 30
0.0
 10
319.99072265625
 20
145.9150390625
 30
0.0
 10
317.2607421875
 20
144.2001953125
 30
0.0
 10
313.0419921875
 20
138.970703125
 30
0.0
 10
313.85791015625
 20
135.5576171875
 30
0.0
 10
315.19677734375
 20
129.9541015625
 30
0.0
 10
322.77001953125
 20
128.087890625
 30
0.0
 10
327.61279296875
 20
128.72265625
 30
0.0
 10
334.52783203125
 20
129.62890625
 30
0.0
 10
340.19677734375
 20
134.1748046875
 30
0.0
 10
346.8447265625
 20
135.939453125
 30
0.0
 10
353.345703125
 20
137.6630859375
 30
0.0
 10
358.65380859375
 20
140.779296875
 30
0.0
 10
365.7451171875
 20
138.9228515625
 30
0.0
 10
369.81787109375
 20
137.857421875
 30
0.0
 10
373.2587890625
 20
134.1806640625
 30
0.0
 10
377.0380859375
 20
132.26171875
 30
0.0
 10
385.0458984375
 20
128.1953125
 30
0.0
 10
398.2177734375
 20
127.6416015625
 30
0.0
 10
404.919921875
 20
134.5029296875
 30
0.0
 10
406.48583984375
 20
136.1064453125
 30
0.0
 10
408.02978515625
 20
137.8369140625
 30
0.0
 10
409.375
 20
139.62890625
 30
0.0
 10
413.06298828125
 20
144.5439453125
 30
0.0
 10
414.76708984375
 20
150.7998046875
 30
0.0
 10
414.69091796875
 20
156.9169921875
 30
0.0
 10
414.57080078125
 20
166.4775390625
 30
0.0
 10
410.47705078125
 20
177.44921875
 30
0.0
 10
403.27880859375
 20
183.9267578125
 30
0.0
 10
402.009765625
 20
185.0693359375
 30
0.0
 10
398.56591796875
 20
186.2802734375
 30
0.0
 10
397.755859375
 20
187.482421875
 30
0.0
 10
396.9677734375
 20
188.65234375
 30
0.0
 10
397.47900390625
 20
191.34765625
 30
0.0
 10
397.47900390625
 20
192.7119140625
 30
0.0
 10
397.47900390625
 20
193.306640625
 30
0.0
 10
397.47900390625
 20
201.55078125
 30
0.0
 10
397.47900390625
 20
201.55078125
 30
0.0
 10
397.47900390625
 20
201.55078125
 30
0.0
 10
441.619140625
 20
201.55078125
 30
0.0
 10
441.619140625
 20
201.55078125
 30
0.0
  0
SPLINE
  5
CD
330
1F
100
AcDbEntity
  8
LAYER_1
 62
   250
100
AcDbSpline
210
0.0
220
0.0
230
1.0
 70
    11
 71
     3
 72
    14
 73
    10
 74
     0
 42
0.0000000001
 43
0.0000000001
 40
0.0
 40
0.0
 40
0.0
 40
0.0
 40
1.0
 40
1.0
 40
1.0
 40
2.0
 40
2.0
 40
2.0
 40
3.0
 40
3.0
 40
3.0
 40
3.0
 10
275.0
 20
175.544921875
 30
0.0
 10
275.36474609375
 20
175.095703125
 30
0.0
 10
267.703125
 20
165.921875
 30
0.0
 10
272.6630859375
 20
163.0419921875
 30
0.0
 10
275.27001953125
 20
161.529296875
 30
0.0
 10
278.2958984375
 20
166.46484375
 30
0.0
 10
280.64794921875
 20
167.6025390625
 30
0.0
 10
280.15087890625
 20
169.22265625
 30
0.0
 10
276.3359375
 20
175.2373046875
 30
0.0
 10
275.0
 20
175.544921875
 30
0.0
  0
SPLINE
  5
CE
330
1F
100
AcDbEntity
  8
LAYER_1
 62
   250
100
AcDbSpline
210
0.0
220
0.0
230
1.0
 70
    11
 71
     3
 72
    14
 73
    10
 74
     0
 42
0.0000000001
 43
0.0000000001
 40
0.0
 40
0.0
 40
0.0
 40
0.0
 40
1.0
 40
1.0
 40
1.0
 40
2.0
 40
2.0
 40
2.0
 40
3.0
 40
3.0
 40
3.0
 40
3.0
 10
289.5927734375
 20
147.5859375
 30
0.0
 10
292.52587890625
 20
146.37109375
 30
0.0
 10
293.259765625
 20
143.734375
 30
0.0
 10
296.291015625
 20
142.8193359375
 30
0.0
 10
295.40771484375
 20
140.43359375
 30
0.0
 10
293.27099609375
 20
134.849609375
 30
0.0
 10
289.52587890625
 20
136.5576171875
 30
0.0
 10
284.11279296875
 20
139.02734375
 30
0.0
 10
289.40966796875
 20
147.4169921875
 30
0.0
 10
289.5927734375
 20
147.5859375
 30
0.0
  0
SPLINE
  5
CF
330
1F
100
AcDbEntity
  8
LAYER_1
 62
   250
100
AcDbSpline
210
0.0
220
0.0
230
1.0
 70
    11
 71
     3
 72
    11
 73
     7
 74
     0
 42
0.0000000001
 43
0.0000000001
 40
0.0
 40
0.0
 40
0.0
 40
0.0
 40
1.0
 40
1.0
 40
1.0
 40
2.0
 40
2.0
 40
2.0
 40
2.0
 10
328.23779296875
 20
135.630859375
 30
0.0
 10
321.5517578125
 20
124.763671875
 30
0.0
 10
314.5068359375
 20
142.4287109375
 30
0.0
 10
323.69189453125
 20
141.80078125
 30
0.0
 10
323.97607421875
 20
141.3125
 30
0.0
 10
328.31591796875
 20
136.203125
 30
0.0
 10
328.23779296875
 20
135.630859375
 30
0.0
  0
POLYLINE
  5
D0
330
1F
100
AcDbEntity
  8
LAYER_1
 62
   250
100
AcDb2dPolyline
 66
     1
 10
0.0
 20
0.0
 30
0.0
  0
VERTEX
  5
D1
330
D0
100
AcDbEntity
  8
LAYER_1
 62
   250
100
AcDbVertex
100
AcDb2dVertex
 10
360.62939453125
 20
201.5517578125
 30
0.0
  0
VERTEX
  5
D2
330
D0
100
AcDbEntity
  8
LAYER_1
 62
   250
100
AcDbVertex
100
AcDb2dVertex
 10
397.4794921875
 20
201.5517578125
 30
0.0
  0
SEQEND
  5
D3
330
D0
100
AcDbEntity
  8
LAYER_1
  0
POLYLINE
  5
D4
330
1F
100
AcDbEntity
  8
LAYER_1
 62
   250
100
AcDb2dPolyline
 66
     1
 10
0.0
 20
0.0
 30
0.0
  0
VERTEX
  5
D5
330
D4
100
AcDbEntity
  8
LAYER_1
 62
   250
100
AcDbVertex
100
AcDb2dVertex
 10
441.619140625
 20
201.5517578125
 30
0.0
  0
VERTEX
  5
D6
330
D4
100
AcDbEntity
  8
LAYER_1
 62
   250
100
AcDbVertex
100
AcDb2dVertex
 10
478.259765625
 20
201.5517578125
 30
0.0
  0
SEQEND
  5
D7
330
D4
100
AcDbEntity
  8
LAYER_1
  0
SPLINE
  5
D8
330
1F
100
AcDbEntity
  8
LAYER_1
 62
   250
100
AcDbSpline
210
0.0
220
0.0
230
1.0
 70
     8
 71
     3
 72
   113
 73
   109
 74
     0
 42
0.0000000001
 43
0.0000000001
 40
0.0
 40
0.0
 40
0.0
 40
0.0
 40
1.0
 40
1.0
 40
1.0
 40
2.0
 40
2.0
 40
2.0
 40
3.0
 40
3.0
 40
3.0
 40
4.0
 40
4.0
 40
4.0
 40
5.0
 40
5.0
 40
5.0
 40
6.0
 40
6.0
 40
6.0
 40
7.0
 40
7.0
 40
7.0
 40
8.0
 40
8.0
 40
8.0
 40
9.0
 40
9.0
 40
9.0
 40
10.0
 40
10.0
 40
10.0
 40
11.0
 40
11.0
 40
11.0
 40
12.0
 40
12.0
 40
12.0
 40
13.0
 40
13.0
 40
13.0
 40
14.0
 40
14.0
 40
14.0
 40
15.0
 40
15.0
 40
15.0
 40
16.0
 40
16.0
 40
16.0
 40
17.0
 40
17.0
 40
17.0
 40
18.0
 40
18.0
 40
18.0
 40
19.0
 40
19.0
 40
19.0
 40
20.0
 40
20.0
 40
20.0
 40
21.0
 40
21.0
 40
21.0
 40
22.0
 40
22.0
 40
22.0
 40
23.0
 40
23.0
 40
23.0
 40
24.0
 40
24.0
 40
24.0
 40
25.0
 40
25.0
 40
25.0
 40
26.0
 40
26.0
 40
26.0
 40
27.0
 40
27.0
 40
27.0
 40
28.0
 40
28.0
 40
28.0
 40
29.0
 40
29.0
 40
29.0
 40
30.0
 40
30.0
 40
30.0
 40
31.0
 40
31.0
 40
31.0
 40
32.0
 40
32.0
 40
32.0
 40
33.0
 40
33.0
 40
33.0
 40
34.0
 40
34.0
 40
34.0
 40
35.0
 40
35.0
 40
35.0
 40
36.0
 40
36.0
 40
36.0
 40
36.0
 10
441.30078125
 20
201.5517578125
 30
0.0
 10
441.30078125
 20
201.5517578125
 30
0.0
 10
441.30078125
 20
192.7109375
 30
0.0
 10
441.30078125
 20
192.7109375
 30
0.0
 10
441.30078125
 20
191.3486328125
 30
0.0
 10
441.8125
 20
188.65234375
 30
0.0
 10
441.0234375
 20
187.482421875
 30
0.0
 10
440.212890625
 20
186.279296875
 30
0.0
 10
436.7685546875
 20
185.0693359375
 30
0.0
 10
435.5
 20
183.927734375
 30
0.0
 10
428.302734375
 20
177.4482421875
 30
0.0
 10
424.2099609375
 20
166.4775390625
 30
0.0
 10
424.08984375
 20
156.9169921875
 30
0.0
 10
424.01171875
 20
150.80078125
 30
0.0
 10
425.716796875
 20
144.54296875
 30
0.0
 10
429.404296875
 20
139.62890625
 30
0.0
 10
430.75
 20
137.8359375
 30
0.0
 10
432.2939453125
 20
136.1064453125
 30
0.0
 10
433.8603515625
 20
134.501953125
 30
0.0
 10
440.560546875
 20
127.6416015625
 30
0.0
 10
453.7353515625
 20
128.1953125
 30
0.0
 10
461.7421875
 20
132.2626953125
 30
0.0
 10
465.51953125
 20
134.181640625
 30
0.0
 10
468.962890625
 20
137.8564453125
 30
0.0
 10
473.03515625
 20
138.9228515625
 30
0.0
 10
480.125
 20
140.779296875
 30
0.0
 10
485.4326171875
 20
137.662109375
 30
0.0
 10
491.93359375
 20
135.9384765625
 30
0.0
 10
498.583984375
 20
134.17578125
 30
0.0
 10
504.251953125
 20
129.62890625
 30
0.0
 10
511.16796875
 20
128.72265625
 30
0.0
 10
516.0107421875
 20
128.0869140625
 30
0.0
 10
523.58203125
 20
129.9541015625
 30
0.0
 10
524.921875
 20
135.55859375
 30
0.0
 10
525.73828125
 20
138.9716796875
 30
0.0
 10
521.517578125
 20
144.2001953125
 30
0.0
 10
518.7890625
 20
145.9150390625
 30
0.0
 10
517.85546875
 20
146.5009765625
 30
0.0
 10
515.58203125
 20
146.8251953125
 30
0.0
 10
515.611328125
 20
148.1279296875
 30
0.0
 10
515.67578125
 20
150.9892578125
 30
0.0
 10
522.982421875
 20
149.041015625
 30
0.0
 10
524.26171875
 20
148.515625
 30
0.0
 10
528.91015625
 20
146.6025390625
 30
0.0
 10
531.333984375
 20
142.580078125
 30
0.0
 10
534.6474609375
 20
139.037109375
 30
0.0
 10
537.064453125
 20
136.451171875
 30
0.0
 10
539.98828125
 20
132.134765625
 30
0.0
 10
543.638671875
 20
131.5546875
 30
0.0
 10
548.2060546875
 20
130.8291015625
 30
0.0
 10
552.193359375
 20
134.642578125
 30
0.0
 10
553.84375
 20
138.5400390625
 30
0.0
 10
555.2978515625
 20
141.9716796875
 30
0.0
 10
555.248046875
 20
145.6826171875
 30
0.0
 10
553.923828125
 20
149.1416015625
 30
0.0
 10
552.763671875
 20
152.1708984375
 30
0.0
 10
550.54296875
 20
154.046875
 30
0.0
 10
548.6064453125
 20
156.5546875
 30
0.0
 10
547.220703125
 20
158.349609375
 30
0.0
 10
545.828125
 20
159.6552734375
 30
0.0
 10
544.076171875
 20
161.041015625
 30
0.0
 10
541.650390625
 20
162.958984375
 30
0.0
 10
539.123046875
 20
164.66015625
 30
0.0
 10
536.615234375
 20
166.4453125
 30
0.0
 10
535.41015625
 20
167.3037109375
 30
0.0
 10
532.548828125
 20
169.0380859375
 30
0.0
 10
533.126953125
 20
170.958984375
 30
0.0
 10
534.197265625
 20
174.525390625
 30
0.0
 10
541.068359375
 20
171.0849609375
 30
0.0
 10
542.880859375
 20
170.2021484375
 30
0.0
 10
546.2607421875
 20
168.556640625
 30
0.0
 10
549.419921875
 20
166.93359375
 30
0.0
 10
552.478515625
 20
164.7275390625
 30
0.0
 10
556.37109375
 20
161.9208984375
 30
0.0
 10
559.8271484375
 20
156.9833984375
 30
0.0
 10
565.201171875
 20
157.6474609375
 30
0.0
 10
568.21875
 20
158.0205078125
 30
0.0
 10
569.1796875
 20
160.9599609375
 30
0.0
 10
570.076171875
 20
163.5224609375
 30
0.0
 10
571.3984375
 20
167.3046875
 30
0.0
 10
570.373046875
 20
170.9814453125
 30
0.0
 10
569.064453125
 20
174.6083984375
 30
0.0
 10
566.2724609375
 20
182.3623046875
 30
0.0
 10
560.4482421875
 20
189.4365234375
 30
0.0
 10
553.66796875
 20
194.037109375
 30
0.0
 10
545.708984375
 20
199.4365234375
 30
0.0
 10
534.21875
 20
201.95703125
 30
0.0
 10
525.1171875
 20
198.68359375
 30
0.0
 10
521.95703125
 20
197.5458984375
 30
0.0
 10
518.8134765625
 20
195.5693359375
 30
0.0
 10
515.9375
 20
193.8359375
 30
0.0
 10
510.96875
 20
190.8427734375
 30
0.0
 10
505.6103515625
 20
188.59765625
 30
0.0
 10
500.2392578125
 20
186.4375
 30
0.0
 10
495.021484375
 20
184.3388671875
 30
0.0
 10
490.1435546875
 20
184.353515625
 30
0.0
 10
484.517578125
 20
184.7177734375
 30
0.0
 10
482.2939453125
 20
184.8603515625
 30
0.0
 10
478.837890625
 20
185.7119140625
 30
0.0
 10
478.2197265625
 20
187.9462890625
 30
0.0
 10
477.798828125
 20
189.4697265625
 30
0.0
 10
478.146484375
 20
191.607421875
 30
0.0
 10
478.1396484375
 20
193.1796875
 30
0.0
 10
478.1318359375
 20
195.10546875
 30
0.0
 10
478.1396484375
 20
197.0302734375
 30
0.0
 10
478.146484375
 20
198.9560546875
 30
0.0
 10
478.1474609375
 20
199.3740234375
 30
0.0
 10
478.44140625
 20
201.21875
 30
0.0
 10
478.150390625
 20
201.5517578125
 30
0.0
  0
SPLINE
  5
D9
330
1F
100
AcDbEntity
  8
LAYER_1
 62
   250
100
AcDbSpline
210
0.0
220
0.0
230
1.0
 70
    11
 71
     3
 72
    14
 73
    10
 74
     0
 42
0.0000000001
 43
0.0000000001
 40
0.0
 40
0.0
 40
0.0
 40
0.0
 40
1.0
 40
1.0
 40
1.0
 40
2.0
 40
2.0
 40
2.0
 40
3.0
 40
3.0
 40
3.0
 40
3.0
 10
563.779296875
 20
175.544921875
 30
0.0
 10
562.443359375
 20
175.2373046875
 30
0.0
 10
558.6279296875
 20
169.22265625
 30
0.0
 10
558.130859375
 20
167.6025390625
 30
0.0
 10
560.484375
 20
166.46484375
 30
0.0
 10
563.5107421875
 20
161.529296875
 30
0.0
 10
566.1171875
 20
163.0419921875
 30
0.0
 10
571.076171875
 20
165.921875
 30
0.0
 10
563.4150390625
 20
175.095703125
 30
0.0
 10
563.779296875
 20
175.544921875
 30
0.0
  0
SPLINE
  5
DA
330
1F
100
AcDbEntity
  8
LAYER_1
 62
   250
100
AcDbSpline
210
0.0
220
0.0
230
1.0
 70
    11
 71
     3
 72
    14
 73
    10
 74
     0
 42
0.0000000001
 43
0.0000000001
 40
0.0
 40
0.0
 40
0.0
 40
0.0
 40
1.0
 40
1.0
 40
1.0
 40
2.0
 40
2.0
 40
2.0
 40
3.0
 40
3.0
 40
3.0
 40
3.0
 10
549.1875
 20
147.5859375
 30
0.0
 10
549.369140625
 20
147.4169921875
 30
0.0
 10
554.666015625
 20
139.02734375
 30
0.0
 10
549.25390625
 20
136.5576171875
 30
0.0
 10
545.509765625
 20
134.849609375
 30
0.0
 10
543.373046875
 20
140.43359375
 30
0.0
 10
542.48828125
 20
142.8193359375
 30
0.0
 10
545.51953125
 20
143.734375
 30
0.0
 10
546.25390625
 20
146.3720703125
 30
0.0
 10
549.1875
 20
147.5859375
 30
0.0
  0
SPLINE
  5
DB
330
1F
100
AcDbEntity
  8
LAYER_1
 62
   250
100
AcDbSpline
210
0.0
220
0.0
230
1.0
 70
    11
 71
     3
 72
    11
 73
     7
 74
     0
 42
0.0000000001
 43
0.0000000001
 40
0.0
 40
0.0
 40
0.0
 40
0.0
 40
1.0
 40
1.0
 40
1.0
 40
2.0
 40
2.0
 40
2.0
 40
2.0
 10
510.541015625
 20
135.630859375
 30
0.0
 10
510.462890625
 20
136.203125
 30
0.0
 10
514.8046875
 20
141.3125
 30
0.0
 10
515.087890625
 20
141.80078125
 30
0.0
 10
524.2724609375
 20
142.4287109375
 30
0.0
 10
517.228515625
 20
124.763671875
 30
0.0
 10
510.541015625
 20
135.630859375
 30
0.0
  0
POLYLINE
  5
DC
330
1F
100
AcDbEntity
  8
LAYER_1
100
AcDb2dPolyline
 66
     1
 10
0.0
 20
0.0
 30
0.0
  0
VERTEX
  5
DD
330
DC
100
AcDbEntity
  8
LAYER_1
100
AcDbVertex
100
AcDb2dVertex
 10
0.0
 20
841.89013671875
 30
0.0
  0
VERTEX
  5
DE
330
DC
100
AcDbEntity
  8
LAYER_1
100
AcDbVertex
100
AcDb2dVertex
 10
843.1728515625
 20
841.89013671875
 30
0.0
  0
VERTEX
  5
DF
330
DC
100
AcDbEntity
  8
LAYER_1
100
AcDbVertex
100
AcDb2dVertex
 10
843.1728515625
 20
0.0
 30
0.0
  0
VERTEX
  5
E0
330
DC
100
AcDbEntity
  8
LAYER_1
100
AcDbVertex
100
AcDb2dVertex
 10
0.0
 20
0.0
 30
0.0
  0
VERTEX
  5
E1
330
DC
100
AcDbEntity
  8
LAYER_1
100
AcDbVertex
100
AcDb2dVertex
 10
0.0
 20
841.89013671875
 30
0.0
  0
SEQEND
  5
E2
330
DC
100
AcDbEntity
  8
LAYER_1
  0
ENDSEC
  0
SECTION
  2
OBJECTS
  0
DICTIONARY
  5
C
330
0
100
AcDbDictionary
  3
ACAD_GROUP
350
D
  3
ACAD_LAYOUT
350
1A
  3
ACAD_MLINESTYLE
350
17
  3
ACAD_PLOTSETTINGS
350
19
  3
ACAD_TABLESTYLE
350
103
  3
ACAD_VISUALSTYLE
350
2A
  3
ACDBHEADERROUNDTRIPXREC
350
E3
  0
DICTIONARY
  5
D
102
{ACAD_REACTORS
330
C
102
}
330
C
100
AcDbDictionary
  0
DICTIONARY
  5
1A
102
{ACAD_REACTORS
330
C
102
}
330
C
100
AcDbDictionary
  0
DICTIONARY
  5
17
102
{ACAD_REACTORS
330
C
102
}
330
C
100
AcDbDictionary
  3
STANDARD
350
18
  0
DICTIONARY
  5
19
102
{ACAD_REACTORS
330
C
102
}
330
C
100
AcDbDictionary
  0
DICTIONARY
  5
103
102
{ACAD_REACTORS
330
C
102
}
330
C
100
AcDbDictionary
  0
DICTIONARY
  5
2A
102
{ACAD_REACTORS
330
C
102
}
330
C
100
AcDbDictionary
  3
2DWIREFRAME
350
2F
  3
3DWIREFRAME
350
30
  3
3D_HIDDEN
350
31
  3
BASIC
350
32
  3
BRIGHTEN
350
36
  3
COLORCHANGE
350
3A
  3
CONCEPTUAL
350
34
  3
DIM
350
35
  3
FACEPATTERN
350
39
  3
FLAT
350
2B
  3
FLATWITHEDGES
350
2C
  3
GOURAUD
350
2D
  3
GOURAUDWITHEDGES
350
2E
  3
LINEPATTERN
350
38
  3
REALISTIC
350
33
  3
THICKEN
350
37
  0
DICTIONARY
  5
E3
102
{ACAD_REACTORS
330
C
102
}
330
C
100
AcDbDictionary
  3
CEPSNTYPE
350
EC
  3
DIMSTYLEDATA
350
102
  3
FINGERPRINTGUID
350
ED
  3
HYPERLINKBASE
350
E6
  3
INSUNITS
350
EB
  3
LAYOUTDICT
350
E8
  3
LWETCUNION
350
EA
  3
PLOTSETDICT
350
E9
  3
PSVPSCALE
350
EF
  3
PUCSBASE
350
F2
  3
PUCSORGBACK
350
F8
  3
PUCSORGBOTTOM
350
F4
  3
PUCSORGFRONT
350
F7
  3
PUCSORGLEFT
350
F5
  3
PUCSORGRIGHT
350
F6
  3
PUCSORGTOP
350
F3
  3
PUCSORTHOREF
350
F0
  3
PUCSORTHOVIEW
350
F1
  3
STYLESHEET
350
E7
  3
TSTACKALIGN
350
E4
  3
TSTACKSIZE
350
E5
  3
UCSBASE
350
FB
  3
UCSORGBACK
350
101
  3
UCSORGBOTTOM
350
FD
  3
UCSORGFRONT
350
100
  3
UCSORGLEFT
350
FE
  3
UCSORGRIGHT
350
FF
  3
UCSORGTOP
350
FC
  3
UCSORTHOREF
350
F9
  3
UCSORTHOVIEW
350
FA
  3
VERSIONGUID
350
EE
  0
MLINESTYLE
  5
18
102
{ACAD_REACTORS
330
17
102
}
330
17
100
AcDbMlineStyle
  2
Standard
 70
     0
  3

 62
   256
 51
90.0
 52
90.0
 71
     2
 49
0.5
 62
   256
  6
BYLAYER
 49
-0.5
 62
   256
  6
BYLAYER
  0
VISUALSTYLE
  5
2F
102
{ACAD_REACTORS
330
2A
102
}
330
2A
100
AcDbVisualStyle
  2
2dWireframe
 70
     4
 71
     0
 72
     2
 73
     0
 90
        0
 40
-0.6
 41
-30.0
 62
     5
 63
     7
 74
     1
 91
        4
 64
     7
 65
   257
 75
     1
175
     1
 42
1.0
 92
        0
 66
   257
 43
1.0
 76
     1
 77
     6
 78
     2
 67
     7
 79
     5
170
     0
171
     0
290
     0
174
     0
 93
        1
 44
0.0
173
     0
291
     0
 45
0.0
1001
ACAD
1000
AcDbSavedByObjectVersion
1070
     0
  0
VISUALSTYLE
  5
30
102
{ACAD_REACTORS
330
2A
102
}
330
2A
100
AcDbVisualStyle
  2
3dWireframe
 70
     5
 71
     0
 72
     2
 73
     0
 90
        0
 40
-0.6
 41
-30.0
 62
     5
 63
     7
 74
     1
 91
        4
 64
     7
 65
   257
 75
     1
175
     1
 42
1.0
 92
        0
 66
   257
 43
1.0
 76
     1
 77
     6
 78
     2
 67
     7
 79
     5
170
     0
171
     0
290
     0
174
     0
 93
        1
 44
0.0
173
     0
291
     0
 45
0.0
1001
ACAD
1000
AcDbSavedByObjectVersion
1070
     0
  0
VISUALSTYLE
  5
31
102
{ACAD_REACTORS
330
2A
102
}
330
2A
100
AcDbVisualStyle
  2
3D Hidden
 70
     6
 71
     1
 72
     2
 73
     2
 90
        0
 40
-0.6
 41
-30.0
 62
     5
 63
     7
 74
     2
 91
        2
 64
     7
 65
   257
 75
     2
175
     1
 42
40.0
 92
        0
 66
   257
 43
1.0
 76
     1
 77
     6
 78
     2
 67
     7
 79
     3
170
     0
171
     0
290
     0
174
     0
 93
        1
 44
0.0
173
     0
291
     0
 45
0.0
1001
ACAD
1000
AcDbSavedByObjectVersion
1070
     0
  0
VISUALSTYLE
  5
32
102
{ACAD_REACTORS
330
2A
102
}
330
2A
100
AcDbVisualStyle
  2
Basic
 70
     7
 71
     1
 72
     0
 73
     1
 90
        0
 40
-0.6
 41
-30.0
 62
     5
 63
     7
 74
     0
 91
        4
 64
     7
 65
   257
 75
     1
175
     1
 42
1.0
 92
        8
 66
     7
 43
1.0
 76
     1
 77
     6
 78
     2
 67
     7
 79
     5
170
     0
171
     0
290
     0
174
     0
 93
        1
 44
0.0
173
     0
291
     1
 45
0.0
1001
ACAD
1000
AcDbSavedByObjectVersion
1070
     0
  0
VISUALSTYLE
  5
36
102
{ACAD_REACTORS
330
2A
102
}
330
2A
100
AcDbVisualStyle
  2
Brighten
 70
    12
 71
     2
 72
     2
 73
     0
 90
        0
 40
-0.6
 41
-30.0
 62
     5
 63
     7
 74
     1
 91
        4
 64
     7
 65
   257
 75
     1
175
     1
 42
1.0
 92
        8
 66
     7
 43
1.0
 76
     1
 77
     6
 78
     2
 67
     7
 79
     5
170
     0
171
     0
290
     0
174
     0
 93
        1
 44
50.0
173
     0
291
     1
 45
0.0
1001
ACAD
1000
AcDbSavedByObjectVersion
1070
     0
  0
VISUALSTYLE
  5
3A
102
{ACAD_REACTORS
330
2A
102
}
330
2A
100
AcDbVisualStyle
  2
ColorChange
 70
    16
 71
     2
 72
     2
 73
     3
 90
        0
 40
-0.6
 41
-30.0
 62
     5
 63
     8
 74
     1
 91
        4
 64
     7
 65
   257
 75
     1
175
     1
 42
1.0
 92
        8
 66
     8
 43
1.0
 76
     1
 77
     6
 78
     2
 67
     7
 79
     5
170
     0
171
     0
290
     0
174
     0
 93
        1
 44
0.0
173
     0
291
     1
 45
0.0
1001
ACAD
1000
AcDbSavedByObjectVersion
1070
     0
  0
VISUALSTYLE
  5
34
102
{ACAD_REACTORS
330
2A
102
}
330
2A
100
AcDbVisualStyle
  2
Conceptual
 70
     9
 71
     3
 72
     2
 73
     0
 90
        0
 40
-0.6
 41
-30.0
 62
     5
 63
     7
 74
     2
 91
        2
 64
     7
 65
   257
 75
     1
175
     1
 42
40.0
 92
        8
 66
     7
 43
1.0
 76
     1
 77
     6
 78
     2
 67
     7
 79
     3
170
     0
171
     0
290
     0
174
     0
 93
        1
 44
0.0
173
     0
291
     0
 45
0.0
1001
ACAD
1000
AcDbSavedByObjectVersion
1070
     0
  0
VISUALSTYLE
  5
35
102
{ACAD_REACTORS
330
2A
102
}
330
2A
100
AcDbVisualStyle
  2
Dim
 70
    11
 71
     2
 72
     2
 73
     0
 90
        0
 40
-0.6
 41
-30.0
 62
     5
 63
     7
 74
     1
 91
        4
 64
     7
 65
   257
 75
     1
175
     1
 42
1.0
 92
        8
 66
     7
 43
1.0
 76
     1
 77
     6
 78
     2
 67
     7
 79
     5
170
     0
171
     0
290
     0
174
     0
 93
        1
 44
-50.0
173
     0
291
     1
 45
0.0
1001
ACAD
1000
AcDbSavedByObjectVersion
1070
     0
  0
VISUALSTYLE
  5
39
102
{ACAD_REACTORS
330
2A
102
}
330
2A
100
AcDbVisualStyle
  2
Facepattern
 70
    15
 71
     2
 72
     2
 73
     0
 90
        0
 40
-0.6
 41
-30.0
 62
     5
 63
     7
 74
     1
 91
        4
 64
     7
 65
   257
 75
     1
175
     1
 42
1.0
 92
        8
 66
     7
 43
1.0
 76
     1
 77
     6
 78
     2
 67
     7
 79
     5
170
     0
171
     0
290
     0
174
     0
 93
        1
 44
0.0
173
     0
291
     1
 45
0.0
1001
ACAD
1000
AcDbSavedByObjectVersion
1070
     0
  0
VISUALSTYLE
  5
2B
102
{ACAD_REACTORS
330
2A
102
}
330
2A
100
AcDbVisualStyle
  2
Flat
 70
     0
 71
     2
 72
     1
 73
     1
 90
        2
 40
-0.6
 41
30.0
 62
     5
 63
     7
 74
     0
 91
        4
 64
     7
 65
   257
 75
     1
175
     1
 42
1.0
 92
        8
 66
     7
 43
1.0
 76
     1
 77
     6
 78
     2
 67
     7
 79
     5
170
     0
171
     0
290
     0
174
     0
 93
       13
 44
0.0
173
     0
291
     1
 45
0.0
1001
ACAD
1000
AcDbSavedByObjectVersion
1070
     0
  0
VISUALSTYLE
  5
2C
102
{ACAD_REACTORS
330
2A
102
}
330
2A
100
AcDbVisualStyle
  2
FlatWithEdges
 70
     1
 71
     2
 72
     1
 73
     1
 90
        2
 40
-0.6
 41
30.0
 62
     5
 63
     7
 74
     1
 91
        4
 64
     7
 65
   257
 75
     1
175
     1
 42
1.0
 92
        0
 66
   257
 43
1.0
 76
     1
 77
     6
 78
     2
 67
     7
 79
     5
170
     0
171
     0
290
     0
174
     0
 93
       13
 44
0.0
173
     0
291
     1
 45
0.0
1001
ACAD
1000
AcDbSavedByObjectVersion
1070
     0
  0
VISUALSTYLE
  5
2D
102
{ACAD_REACTORS
330
2A
102
}
330
2A
100
AcDbVisualStyle
  2
Gouraud
 70
     2
 71
     2
 72
     2
 73
     1
 90
        2
 40
-0.6
 41
30.0
 62
     5
 63
     7
 74
     0
 91
        4
 64
     7
 65
   257
 75
     1
175
     1
 42
1.0
 92
        0
 66
     7
 43
1.0
 76
     1
 77
     6
 78
     2
 67
     7
 79
     5
170
     0
171
     0
290
     0
174
     0
 93
       13
 44
0.0
173
     0
291
     1
 45
0.0
1001
ACAD
1000
AcDbSavedByObjectVersion
1070
     0
  0
VISUALSTYLE
  5
2E
102
{ACAD_REACTORS
330
2A
102
}
330
2A
100
AcDbVisualStyle
  2
GouraudWithEdges
 70
     3
 71
     2
 72
     2
 73
     1
 90
        2
 40
-0.6
 41
30.0
 62
     5
 63
     7
 74
     1
 91
        4
 64
     7
 65
   257
 75
     1
175
     1
 42
1.0
 92
        0
 66
   257
 43
1.0
 76
     1
 77
     6
 78
     2
 67
     7
 79
     5
170
     0
171
     0
290
     0
174
     0
 93
       13
 44
0.0
173
     0
291
     1
 45
0.0
1001
ACAD
1000
AcDbSavedByObjectVersion
1070
     0
  0
VISUALSTYLE
  5
38
102
{ACAD_REACTORS
330
2A
102
}
330
2A
100
AcDbVisualStyle
  2
Linepattern
 70
    14
 71
     2
 72
     2
 73
     0
 90
        0
 40
-0.6
 41
-30.0
 62
     5
 63
     7
 74
     1
 91
        4
 64
     7
 65
   257
 75
     7
175
     7
 42
1.0
 92
        8
 66
     7
 43
1.0
 76
     1
 77
     6
 78
     2
 67
     7
 79
     5
170
     0
171
     0
290
     0
174
     0
 93
        1
 44
0.0
173
     0
291
     1
 45
0.0
1001
ACAD
1000
AcDbSavedByObjectVersion
1070
     0
  0
VISUALSTYLE
  5
33
102
{ACAD_REACTORS
330
2A
102
}
330
2A
100
AcDbVisualStyle
  2
Realistic
 70
     8
 71
     2
 72
     2
 73
     0
 90
        0
 40
-0.6
 41
-30.0
 62
     5
 63
     7
 74
     1
 91
        0
 64
     7
 65
   257
 75
     1
175
     1
 42
1.0
 92
        8
 66
     8
 43
1.0
 76
     1
 77
     6
 78
     2
 67
     7
 79
     5
170
     0
171
     0
290
     0
174
     0
 93
       13
 44
0.0
173
     0
291
     0
 45
0.0
1001
ACAD
1000
AcDbSavedByObjectVersion
1070
     0
  0
VISUALSTYLE
  5
37
102
{ACAD_REACTORS
330
2A
102
}
330
2A
100
AcDbVisualStyle
  2
Thicken
 70
    13
 71
     2
 72
     2
 73
     0
 90
        0
 40
-0.6
 41
-30.0
 62
     5
 63
     7
 74
     1
 91
        4
 64
     7
 65
   257
 75
     1
175
     1
 42
1.0
 92
       12
 66
     7
 43
1.0
 76
     1
 77
     6
 78
     2
 67
     7
 79
     5
170
     0
171
     0
290
     0
174
     0
 93
        1
 44
0.0
173
     0
291
     1
 45
0.0
1001
ACAD
1000
AcDbSavedByObjectVersion
1070
     0
  0
XRECORD
  5
EC
102
{ACAD_REACTORS
330
E3
102
}
330
E3
100
AcDbXrecord
 90
        0
  0
XRECORD
  5
102
102
{ACAD_REACTORS
330
E3
102
}
330
E3
100
AcDbXrecord
1000
DSTYLE
1002
{
1070
   340
340
11
1002
}
  0
XRECORD
  5
ED
102
{ACAD_REACTORS
330
E3
102
}
330
E3
100
AcDbXrecord
  1
{0528524B-2634-409D-B5DA-3BB46C21A62E}
  0
XRECORD
  5
E6
102
{ACAD_REACTORS
330
E3
102
}
330
E3
100
AcDbXrecord
  1

  0
XRECORD
  5
EB
102
{ACAD_REACTORS
330
E3
102
}
330
E3
100
AcDbXrecord
 90
        1
  0
XRECORD
  5
E8
102
{ACAD_REACTORS
330
E3
102
}
330
E3
100
AcDbXrecord
340
1A
  0
XRECORD
  5
EA
102
{ACAD_REACTORS
330
E3
102
}
330
E3
100
AcDbXrecord
 90
    10269
  0
XRECORD
  5
E9
102
{ACAD_REACTORS
330
E3
102
}
330
E3
100
AcDbXrecord
340
19
  0
XRECORD
  5
EF
102
{ACAD_REACTORS
330
E3
102
}
330
E3
100
AcDbXrecord
 40
0.0
  0
XRECORD
  5
F2
102
{ACAD_REACTORS
330
E3
102
}
330
E3
100
AcDbXrecord
340
0
  0
XRECORD
  5
F8
102
{ACAD_REACTORS
330
E3
102
}
330
E3
100
AcDbXrecord
 10
0.0
 20
0.0
 30
0.0
  0
XRECORD
  5
F4
102
{ACAD_REACTORS
330
E3
102
}
330
E3
100
AcDbXrecord
 10
0.0
 20
0.0
 30
0.0
  0
XRECORD
  5
F7
102
{ACAD_REACTORS
330
E3
102
}
330
E3
100
AcDbXrecord
 10
0.0
 20
0.0
 30
0.0
  0
XRECORD
  5
F5
102
{ACAD_REACTORS
330
E3
102
}
330
E3
100
AcDbXrecord
 10
0.0
 20
0.0
 30
0.0
  0
XRECORD
  5
F6
102
{ACAD_REACTORS
330
E3
102
}
330
E3
100
AcDbXrecord
 10
0.0
 20
0.0
 30
0.0
  0
XRECORD
  5
F3
102
{ACAD_REACTORS
330
E3
102
}
330
E3
100
AcDbXrecord
 10
0.0
 20
0.0
 30
0.0
  0
XRECORD
  5
F0
102
{ACAD_REACTORS
330
E3
102
}
330
E3
100
AcDbXrecord
340
0
  0
XRECORD
  5
F1
102
{ACAD_REACTORS
330
E3
102
}
330
E3
100
AcDbXrecord
 70
     0
  0
XRECORD
  5
E7
102
{ACAD_REACTORS
330
E3
102
}
330
E3
100
AcDbXrecord
  1

  0
XRECORD
  5
E4
102
{ACAD_REACTORS
330
E3
102
}
330
E3
100
AcDbXrecord
 90
        1
  0
XRECORD
  5
E5
102
{ACAD_REACTORS
330
E3
102
}
330
E3
100
AcDbXrecord
 90
       70
  0
XRECORD
  5
FB
102
{ACAD_REACTORS
330
E3
102
}
330
E3
100
AcDbXrecord
340
0
  0
XRECORD
  5
101
102
{ACAD_REACTORS
330
E3
102
}
330
E3
100
AcDbXrecord
 10
0.0
 20
0.0
 30
0.0
  0
XRECORD
  5
FD
102
{ACAD_REACTORS
330
E3
102
}
330
E3
100
AcDbXrecord
 10
0.0
 20
0.0
 30
0.0
  0
XRECORD
  5
100
102
{ACAD_REACTORS
330
E3
102
}
330
E3
100
AcDbXrecord
 10
0.0
 20
0.0
 30
0.0
  0
XRECORD
  5
FE
102
{ACAD_REACTORS
330
E3
102
}
330
E3
100
AcDbXrecord
 10
0.0
 20
0.0
 30
0.0
  0
XRECORD
  5
FF
102
{ACAD_REACTORS
330
E3
102
}
330
E3
100
AcDbXrecord
 10
0.0
 20
0.0
 30
0.0
  0
XRECORD
  5
FC
102
{ACAD_REACTORS
330
E3
102
}
330
E3
100
AcDbXrecord
 10
0.0
 20
0.0
 30
0.0
  0
XRECORD
  5
F9
102
{ACAD_REACTORS
330
E3
102
}
330
E3
100
AcDbXrecord
340
0
  0
XRECORD
  5
FA
102
{ACAD_REACTORS
330
E3
102
}
330
E3
100
AcDbXrecord
 70
     0
  0
XRECORD
  5
EE
102
{ACAD_REACTORS
330
E3
102
}
330
E3
100
AcDbXrecord
  1
{FAEB1C32-E019-11D5-929B-00C0DF256EC4}
  0
ENDSEC
  0
EOF
