<?xml version="1.0" encoding="utf-8"?>
<!-- Generator: Adobe Illustrator 15.1.0, SVG Export Plug-In . SVG Version: 6.00 Build 0)  -->
<!DOCTYPE svg PUBLIC "-//W3C//DTD SVG 1.1//EN" "http://www.w3.org/Graphics/SVG/1.1/DTD/svg11.dtd">
<svg version="1.1" id="Layer_1" xmlns="http://www.w3.org/2000/svg" xmlns:xlink="http://www.w3.org/1999/xlink" x="0px" y="0px"
	 width="843.173px" height="841.89px" viewBox="0 0 843.173 841.89" enable-background="new 0 0 843.173 841.89"
	 xml:space="preserve">
<path fill="none" stroke="#010101" stroke-width="1.5" stroke-linecap="round" stroke-linejoin="round" stroke-miterlimit="22.926" d="
	M370.17,334.219h1.138c0.747-1.291,1.823-2.367,3.114-3.114v-1.138h4.252h4.252v1.138c1.291,0.747,2.367,1.823,3.114,3.114h1.138
	v4.252v4.252h-1.138c-0.747,1.291-1.823,2.367-3.114,3.114v1.138h-4.252h-4.252v-1.138c-1.291-0.747-2.367-1.823-3.114-3.114h-1.138
	v-4.252V334.219z"/>
<rect x="398.517" y="334.219" fill="none" stroke="#010101" stroke-width="1.5" stroke-linecap="round" stroke-linejoin="round" stroke-miterlimit="22.926" width="17.008" height="8.504"/>
<rect x="455.21" y="334.219" fill="none" stroke="#010101" stroke-width="1.5" stroke-linecap="round" stroke-linejoin="round" stroke-miterlimit="22.926" width="17.009" height="8.504"/>
<path fill="none" stroke="#010101" stroke-width="1.5" stroke-linecap="round" stroke-linejoin="round" stroke-miterlimit="22.926" d="
	M483.557,334.219h1.137c0.747-1.291,1.824-2.367,3.114-3.114v-1.138h4.253h4.252v1.138c1.29,0.747,2.367,1.823,3.114,3.114h1.138
	v4.252v4.252h-1.138c-0.747,1.291-1.824,2.367-3.114,3.114v1.138h-4.252h-4.253v-1.138c-1.29-0.747-2.367-1.823-3.114-3.114h-1.137
	v-4.252V334.219z"/>
<path fill="none" stroke="#010101" stroke-width="1.5" stroke-linecap="round" stroke-linejoin="round" stroke-miterlimit="22.926" d="
	M453.793,309.072v10.973h56.692v22.677c0,7.826-6.347,14.173-14.173,14.173h-121.89c-7.826,0-14.173-6.347-14.173-14.173v-22.677
	h56.693v-10.973"/>
<path fill="none" stroke="#010101" stroke-width="1.5" stroke-linecap="round" stroke-linejoin="round" stroke-miterlimit="22.926" d="
	M426.863,334.219h1.139c0.746-1.291,1.821-2.367,3.112-3.114v-1.138h4.253h4.252v1.138c1.291,0.747,2.366,1.823,3.113,3.114h1.139
	v4.252v4.252h-1.139c-0.747,1.291-1.822,2.367-3.113,3.114v1.138h-4.252h-4.253v-1.138c-1.291-0.747-2.366-1.823-3.112-3.114h-1.139
	v-4.252V334.219z"/>
<path fill="none" stroke="#010101" stroke-width="1.5" stroke-linecap="round" stroke-linejoin="round" stroke-miterlimit="22.926" d="
	M384.189,145.001h102.58c26.613,0,48.188,21.575,48.188,48.189v104.544c0,6.262-5.075,11.339-11.337,11.339h-176.28
	c-6.263,0-11.339-5.077-11.339-11.339V193.19C336,166.576,357.575,145.001,384.189,145.001z"/>
<rect x="360.249" y="186" fill="none" stroke="#010101" stroke-width="1.5" stroke-linecap="round" stroke-linejoin="round" stroke-miterlimit="22.926" width="151.558" height="94.018"/>
<circle fill="none" stroke="#010101" stroke-width="1.5" stroke-linecap="round" stroke-linejoin="round" stroke-miterlimit="22.926" cx="400.002" cy="232.479" r="30.094"/>
<circle fill="none" stroke="#010101" stroke-width="1.5" stroke-linecap="round" stroke-linejoin="round" stroke-miterlimit="22.926" cx="470.154" cy="232.479" r="30.094"/>
<path fill="none" stroke="#010101" stroke-width="1.5" stroke-linecap="round" stroke-linejoin="round" stroke-miterlimit="22.926" d="
	M448.256,262.656L448.256,262.656c0,6.959-5.642,12.6-12.6,12.6h0.021c-6.958,0-12.6-5.641-12.6-12.6"/>
<rect x="336" y="201.382" fill="none" stroke="#010101" stroke-width="1.5" stroke-linecap="round" stroke-linejoin="round" stroke-miterlimit="22.926" width="12" height="78.637"/>
<rect x="523" y="201.382" fill="none" stroke="#010101" stroke-width="1.5" stroke-linecap="round" stroke-linejoin="round" stroke-miterlimit="22.926" width="12" height="78.637"/>
<path fill="none" stroke="#010101" stroke-width="1.5" stroke-linecap="round" stroke-linejoin="round" stroke-miterlimit="22.926" d="
	M391.5,186.001c2.948,1.94-4.53,9.52-5.781,11.971c13.184-1.873,26.388-7.215,39.214-10.421c0.404,5.488-2.306,10.751-2.811,15.934
	c7.259-1.517,15.538-2.927,22.059-6.658c3.439-1.968,5.597-3.337,9.254-4.252c0.655-0.164-1.648,8.039-1.881,8.608
	c6.627,0.564,14.181-1.527,19.445-5.654c3.002-2.354,7.012-6.034,8.949-9.238c-0.307,0.41-0.625,0.813-0.949,1.21"/>
<g>
	<defs>
		<rect id="SVGID_1_" x="589.136" y="417.114" width="172.613" height="122.637"/>
	</defs>
	<clipPath id="SVGID_2_">
		<use xlink:href="#SVGID_1_"  overflow="visible"/>
	</clipPath>
	
		<path clip-path="url(#SVGID_2_)" fill="none" stroke="#000000" stroke-width="1.5" stroke-linecap="round" stroke-linejoin="round" stroke-miterlimit="22.926" d="
		M750.72,484.705h-39.015c-5.653,0-10.279,4.626-10.279,10.279v0.24c0,5.654,4.626,10.28,10.279,10.28h39.015
		c5.653,0,10.279-4.626,10.279-10.28v-0.24C760.999,489.331,756.373,484.705,750.72,484.705z"/>
	
		<path clip-path="url(#SVGID_2_)" fill="none" stroke="#000000" stroke-width="1.5" stroke-linecap="round" stroke-linejoin="round" stroke-miterlimit="22.926" d="
		M750.72,454.705h-39.015c-5.653,0-10.279,4.626-10.279,10.279v0.24c0,5.654,4.626,10.28,10.279,10.28h39.015
		c5.653,0,10.279-4.626,10.279-10.28v-0.24C760.999,459.331,756.373,454.705,750.72,454.705z"/>
	
		<path clip-path="url(#SVGID_2_)" fill="none" stroke="#000000" stroke-width="1.5" stroke-linecap="round" stroke-linejoin="round" stroke-miterlimit="22.926" d="
		M750.72,424.705h-39.015c-5.653,0-10.279,4.626-10.279,10.279v0.24c0,5.654,4.626,10.28,10.279,10.28h39.015
		c5.653,0,10.279-4.626,10.279-10.28v-0.24C760.999,429.331,756.373,424.705,750.72,424.705z"/>
	
		<path clip-path="url(#SVGID_2_)" fill="none" stroke="#010101" stroke-width="1.5" stroke-linecap="round" stroke-linejoin="round" stroke-miterlimit="22.926" d="
		M616.811,497.933h-1.139c-0.746,1.291-1.823,2.366-3.113,3.113v1.139h-4.252h-4.252v-1.139c-1.291-0.747-2.367-1.822-3.115-3.113
		h-1.138v-4.252v-4.252h1.138c0.748-1.291,1.824-2.367,3.115-3.114v-1.139h4.252h4.252v1.139c1.29,0.747,2.367,1.823,3.113,3.114
		h1.139v4.252V497.933z"/>
	
		<rect x="604.055" y="456.829" clip-path="url(#SVGID_2_)" fill="none" stroke="#010101" stroke-width="1.5" stroke-linecap="round" stroke-linejoin="round" stroke-miterlimit="22.926" width="8.504" height="17.009"/>
	
		<path clip-path="url(#SVGID_2_)" fill="none" stroke="#010101" stroke-width="1.5" stroke-linecap="round" stroke-linejoin="round" stroke-miterlimit="22.926" d="
		M616.811,441.239h-1.139c-0.746,1.291-1.823,2.367-3.113,3.114v1.138h-4.252h-4.252v-1.138c-1.291-0.747-2.367-1.823-3.115-3.114
		h-1.138v-4.252v-4.252h1.138c0.748-1.291,1.824-2.367,3.115-3.114v-1.138h4.252h4.252v1.138c1.29,0.747,2.367,1.823,3.113,3.114
		h1.139v4.252V441.239z"/>
	
		<line clip-path="url(#SVGID_2_)" fill="none" stroke="#000000" stroke-width="1.5" stroke-linecap="round" stroke-linejoin="round" stroke-miterlimit="22.926" x1="637.672" y1="480.749" x2="637.672" y2="445.491"/>
	
		<line clip-path="url(#SVGID_2_)" fill="none" stroke="#000000" stroke-width="1.5" stroke-linecap="round" stroke-linejoin="round" stroke-miterlimit="22.926" x1="648.672" y1="480.749" x2="648.672" y2="445.491"/>
	
		<path clip-path="url(#SVGID_2_)" fill="none" stroke="#000000" stroke-width="1.5" stroke-linecap="round" stroke-linejoin="round" stroke-miterlimit="22.926" d="
		M660.835,481.414h-34.1v30.69h-22.681c-7.828,0-14.169-6.351-14.169-14.17v-65.891c0-7.829,6.341-14.18,14.169-14.18h22.681v26.7
		h34.1"/>
	
		<line clip-path="url(#SVGID_2_)" fill="none" stroke="#000000" stroke-width="1.5" stroke-linecap="round" stroke-linejoin="round" stroke-miterlimit="22.926" x1="626.735" y1="481.414" x2="626.735" y2="443.828"/>
	
		<path clip-path="url(#SVGID_2_)" fill="none" stroke="#000000" stroke-width="1.5" stroke-linecap="round" stroke-linejoin="round" stroke-miterlimit="22.926" d="
		M672.156,539.001h-0.268c-5.511,0-10.02-4.509-10.02-10.019v-34.259c0-5.511,4.509-10.019,10.02-10.019h0.268
		c5.51,0,10.02,4.508,10.02,10.019v34.259C682.176,534.492,677.666,539.001,672.156,539.001z"/>
	<path clip-path="url(#SVGID_2_)" fill="#FFFFFF" d="M709,505.504h-36.57c-6.6,0-12-5.399-12-12v-57.503c0-6.6,5.4-12,12-12H709
		c6.6,0,12,5.4,12,12v57.503C721,500.104,715.6,505.504,709,505.504"/>
	
		<path clip-path="url(#SVGID_2_)" fill="none" stroke="#000000" stroke-width="1.5" stroke-linecap="round" stroke-linejoin="round" stroke-miterlimit="22.926" d="
		M709,505.504h-36.57c-6.6,0-12-5.399-12-12v-57.503c0-6.6,5.4-12,12-12H709c6.6,0,12,5.4,12,12v57.503
		C721,500.104,715.6,505.504,709,505.504z"/>
	
		<path clip-path="url(#SVGID_2_)" fill="none" stroke="#010101" stroke-width="1.5" stroke-linecap="round" stroke-linejoin="round" stroke-miterlimit="22.926" d="
		M685.326,439.351H660.43v49.15h24.896c7.828,0,14.174-6.346,14.174-14.173v-20.805C699.5,445.696,693.154,439.351,685.326,439.351z
		"/>
</g>
<polygon fill="none" stroke="#010101" stroke-width="1.5" stroke-linecap="round" stroke-linejoin="round" stroke-miterlimit="22.926" points="
	436.578,150.072 441.584,160.21 452.771,161.836 444.676,169.729 446.586,180.872 436.578,175.61 426.572,180.872 428.482,169.729 
	420.387,161.836 431.574,160.21 "/>
<g>
	<defs>
		<rect id="SVGID_3_" x="105.191" y="427.922" width="172.614" height="122.637"/>
	</defs>
	<clipPath id="SVGID_4_">
		<use xlink:href="#SVGID_3_"  overflow="visible"/>
	</clipPath>
	
		<path clip-path="url(#SVGID_4_)" fill="none" stroke="#000000" stroke-width="1.5" stroke-linecap="round" stroke-linejoin="round" stroke-miterlimit="22.926" d="
		M116.221,495.513h39.015c5.653,0,10.279,4.626,10.279,10.279v0.24c0,5.654-4.626,10.28-10.279,10.28h-39.015
		c-5.654,0-10.28-4.626-10.28-10.28v-0.24C105.94,500.139,110.566,495.513,116.221,495.513z"/>
	
		<path clip-path="url(#SVGID_4_)" fill="none" stroke="#000000" stroke-width="1.5" stroke-linecap="round" stroke-linejoin="round" stroke-miterlimit="22.926" d="
		M116.221,465.513h39.015c5.653,0,10.279,4.626,10.279,10.279v0.24c0,5.654-4.626,10.28-10.279,10.28h-39.015
		c-5.654,0-10.28-4.626-10.28-10.28v-0.24C105.94,470.139,110.566,465.513,116.221,465.513z"/>
	
		<path clip-path="url(#SVGID_4_)" fill="none" stroke="#000000" stroke-width="1.5" stroke-linecap="round" stroke-linejoin="round" stroke-miterlimit="22.926" d="
		M116.221,435.513h39.015c5.653,0,10.279,4.626,10.279,10.279v0.24c0,5.654-4.626,10.28-10.279,10.28h-39.015
		c-5.654,0-10.28-4.626-10.28-10.28v-0.24C105.94,440.139,110.566,435.513,116.221,435.513z"/>
	
		<path clip-path="url(#SVGID_4_)" fill="none" stroke="#010101" stroke-width="1.5" stroke-linecap="round" stroke-linejoin="round" stroke-miterlimit="22.926" d="
		M250.13,508.74h1.138c0.747,1.291,1.823,2.367,3.114,3.114v1.138h4.252h4.252v-1.138c1.291-0.747,2.367-1.823,3.114-3.114h1.138
		v-4.252v-4.252H266c-0.747-1.291-1.823-2.367-3.114-3.114v-1.138h-4.252h-4.252v1.138c-1.291,0.747-2.367,1.823-3.114,3.114h-1.138
		v4.252V508.74z"/>
	
		<rect x="254.382" y="467.638" clip-path="url(#SVGID_4_)" fill="none" stroke="#010101" stroke-width="1.5" stroke-linecap="round" stroke-linejoin="round" stroke-miterlimit="22.926" width="8.504" height="17.008"/>
	
		<path clip-path="url(#SVGID_4_)" fill="none" stroke="#010101" stroke-width="1.5" stroke-linecap="round" stroke-linejoin="round" stroke-miterlimit="22.926" d="
		M250.13,452.047h1.138c0.747,1.291,1.823,2.367,3.114,3.114v1.138h4.252h4.252v-1.138c1.291-0.747,2.367-1.823,3.114-3.114h1.138
		v-4.252v-4.252H266c-0.747-1.291-1.823-2.367-3.114-3.114v-1.138h-4.252h-4.252v1.138c-1.291,0.747-2.367,1.823-3.114,3.114h-1.138
		v4.252V452.047z"/>
	
		<line clip-path="url(#SVGID_4_)" fill="none" stroke="#000000" stroke-width="1.5" stroke-linecap="round" stroke-linejoin="round" stroke-miterlimit="22.926" x1="229.269" y1="491.557" x2="229.269" y2="456.299"/>
	
		<line clip-path="url(#SVGID_4_)" fill="none" stroke="#000000" stroke-width="1.5" stroke-linecap="round" stroke-linejoin="round" stroke-miterlimit="22.926" x1="218.269" y1="491.557" x2="218.269" y2="456.299"/>
	
		<path clip-path="url(#SVGID_4_)" fill="none" stroke="#000000" stroke-width="1.5" stroke-linecap="round" stroke-linejoin="round" stroke-miterlimit="22.926" d="
		M206.105,492.223h34.1v30.689h22.68c7.83,0,14.17-6.35,14.17-14.17v-65.89c0-7.83-6.34-14.181-14.17-14.181h-22.68v26.7h-34.1"/>
	
		<line clip-path="url(#SVGID_4_)" fill="none" stroke="#000000" stroke-width="1.5" stroke-linecap="round" stroke-linejoin="round" stroke-miterlimit="22.926" x1="240.205" y1="492.223" x2="240.205" y2="454.636"/>
	
		<path clip-path="url(#SVGID_4_)" fill="none" stroke="#000000" stroke-width="1.5" stroke-linecap="round" stroke-linejoin="round" stroke-miterlimit="22.926" d="
		M194.784,549.809h0.268c5.51,0,10.019-4.509,10.019-10.019v-34.258c0-5.512-4.509-10.02-10.019-10.02h-0.268
		c-5.51,0-10.019,4.508-10.019,10.02v34.258C184.765,545.3,189.274,549.809,194.784,549.809z"/>
	<path clip-path="url(#SVGID_4_)" fill="#FFFFFF" d="M157.941,516.312h36.57c6.6,0,12-5.4,12-12V446.81c0-6.601-5.4-12-12-12h-36.57
		c-6.6,0-12,5.399-12,12v57.503C145.941,510.912,151.341,516.312,157.941,516.312"/>
	
		<path clip-path="url(#SVGID_4_)" fill="none" stroke="#000000" stroke-width="1.5" stroke-linecap="round" stroke-linejoin="round" stroke-miterlimit="22.926" d="
		M157.941,516.312h36.57c6.6,0,12-5.4,12-12V446.81c0-6.601-5.4-12-12-12h-36.57c-6.6,0-12,5.399-12,12v57.503
		C145.941,510.912,151.341,516.312,157.941,516.312z"/>
	
		<path clip-path="url(#SVGID_4_)" fill="none" stroke="#010101" stroke-width="1.5" stroke-linecap="round" stroke-linejoin="round" stroke-miterlimit="22.926" d="
		M181.614,450.158h24.897v49.15h-24.897c-7.828,0-14.173-6.346-14.173-14.173v-20.805
		C167.441,456.504,173.786,450.158,181.614,450.158z"/>
</g>
<rect x="360.249" y="290" fill="none" stroke="#000000" stroke-width="1.5" stroke-linecap="round" stroke-linejoin="round" stroke-miterlimit="22.926" width="152.022" height="19.072"/>
<path fill="none" stroke="#010101" stroke-width="1.5" stroke-linecap="round" stroke-linejoin="round" stroke-miterlimit="22.926" d="
	M500.117,620.296h-1.137c-0.748,1.291-1.824,2.367-3.115,3.114v1.138h-4.251h-4.253v-1.138c-1.289-0.747-2.367-1.823-3.113-3.114
	h-1.138v-4.252v-4.252h1.138c0.746-1.29,1.824-2.367,3.113-3.114v-1.138h4.253h4.251v1.138c1.291,0.747,2.367,1.824,3.115,3.114
	h1.137v4.252V620.296z"/>
<rect x="454.764" y="611.792" fill="none" stroke="#010101" stroke-width="1.5" stroke-linecap="round" stroke-linejoin="round" stroke-miterlimit="22.926" width="17.008" height="8.504"/>
<rect x="398.071" y="611.792" fill="none" stroke="#010101" stroke-width="1.5" stroke-linecap="round" stroke-linejoin="round" stroke-miterlimit="22.926" width="17.008" height="8.504"/>
<path fill="none" stroke="#010101" stroke-width="1.5" stroke-linecap="round" stroke-linejoin="round" stroke-miterlimit="22.926" d="
	M386.732,620.296h-1.138c-0.747,1.291-1.823,2.367-3.114,3.114v1.138h-4.252h-4.252v-1.138c-1.29-0.747-2.367-1.823-3.114-3.114
	h-1.138v-4.252v-4.252h1.138c0.747-1.29,1.824-2.367,3.114-3.114v-1.138h4.252h4.252v1.138c1.291,0.747,2.367,1.824,3.114,3.114
	h1.138v4.252V620.296z"/>
<path fill="none" stroke="#010101" stroke-width="1.5" stroke-linecap="round" stroke-linejoin="round" stroke-miterlimit="22.926" d="
	M443.426,620.296h-1.14c-0.746,1.291-1.821,2.367-3.113,3.114v1.138h-4.251h-4.253v-1.138c-1.29-0.747-2.367-1.823-3.114-3.114
	h-1.139v-4.252v-4.252h1.139c0.747-1.29,1.824-2.367,3.114-3.114v-1.138h4.253h4.251v1.138c1.292,0.747,2.367,1.824,3.113,3.114
	h1.14v4.252V620.296z"/>
<path fill="none" stroke="#231F20" stroke-width="1.5" stroke-linecap="round" stroke-linejoin="round" stroke-miterlimit="22.926" d="
	M494.131,649.721v-15.26h15.909v-22.67c0-7.83-6.341-14.18-14.171-14.18H373.98c-7.83,0-14.17,6.35-14.17,14.18v22.67h16.69v15.59
	h36.85v-15.59h44.139v15.015"/>
<line fill="none" stroke="#231F20" stroke-width="1.5" stroke-linecap="round" stroke-linejoin="round" stroke-miterlimit="22.926" x1="376.566" y1="650.056" x2="413.276" y2="650.056"/>
<line fill="none" stroke="#231F20" stroke-width="1.5" stroke-linecap="round" stroke-linejoin="round" stroke-miterlimit="22.926" x1="376.496" y1="634.466" x2="413.346" y2="634.466"/>
<line fill="none" stroke="#231F20" stroke-width="1.5" stroke-linecap="round" stroke-linejoin="round" stroke-miterlimit="22.926" x1="457.486" y1="634.466" x2="494.127" y2="634.466"/>
<g>
	<defs>
		<rect id="SVGID_5_" x="302.266" y="649.302" width="132.656" height="108.775"/>
	</defs>
	<clipPath id="SVGID_6_">
		<use xlink:href="#SVGID_5_"  overflow="visible"/>
	</clipPath>
	
		<path clip-path="url(#SVGID_6_)" fill="none" stroke="#231F20" stroke-width="1.5" stroke-linecap="round" stroke-linejoin="round" stroke-miterlimit="22.926" d="
		M427.391,664.231v82.52h-124.28v-28.35c0-15.65,12.7-28.35,28.35-28.35h15.87v-25.82c0-7.83,6.35-14.18,14.18-14.18h51.84
		C421.121,650.132,427.391,656.451,427.391,664.231z"/>
	
		<path clip-path="url(#SVGID_6_)" fill="none" stroke="#231F20" stroke-width="1.5" stroke-linecap="round" stroke-linejoin="round" stroke-miterlimit="22.926" d="
		M303.016,755.343c3.885,0,3.885,1.984,7.769,1.984c3.886,0,3.886-1.984,7.772-1.984c3.886,0,3.886,1.984,7.772,1.984
		c3.886,0,3.886-1.984,7.772-1.984c3.886,0,3.886,1.984,7.772,1.984s3.886-1.984,7.772-1.984c3.887,0,3.887,1.984,7.774,1.984
		c3.884,0,3.884-1.984,7.768-1.984c3.886,0,3.886,1.984,7.772,1.984c3.886,0,3.886-1.984,7.772-1.984
		c3.886,0,3.886,1.984,7.772,1.984c3.887,0,3.887-1.984,7.774-1.984c3.889,0,3.889,1.984,7.777,1.984
		c3.887,0,3.887-1.984,7.774-1.984c3.89,0,3.89,1.984,7.78,1.984c3.89,0,3.89-1.984,7.781-1.984"/>
	
		<line clip-path="url(#SVGID_6_)" fill="none" stroke="#231F20" stroke-width="1.5" stroke-linecap="round" stroke-linejoin="round" stroke-miterlimit="22.926" x1="427.387" y1="755.335" x2="427.387" y2="746.752"/>
	
		<line clip-path="url(#SVGID_6_)" fill="none" stroke="#231F20" stroke-width="1.5" stroke-linecap="round" stroke-linejoin="round" stroke-miterlimit="22.926" x1="347.331" y1="690.052" x2="427.391" y2="690.052"/>
	
		<path clip-path="url(#SVGID_6_)" fill="none" stroke="#231F20" stroke-width="1.5" stroke-linecap="round" stroke-linejoin="round" stroke-miterlimit="22.926" d="
		M427.387,719.242h-27.26c-7.05,0-12.766,5.717-12.766,12.767v14.743h40.026V719.242z"/>
	
		<line clip-path="url(#SVGID_6_)" fill="none" stroke="#231F20" stroke-width="1.5" stroke-linecap="round" stroke-linejoin="round" stroke-miterlimit="22.926" x1="347.331" y1="664.231" x2="427.389" y2="664.231"/>
	
		<line clip-path="url(#SVGID_6_)" fill="none" stroke="#231F20" stroke-width="1.5" stroke-linecap="round" stroke-linejoin="round" stroke-miterlimit="22.926" x1="303.11" y1="746.751" x2="303.11" y2="755.334"/>
</g>
<g>
	<defs>
		<rect id="SVGID_7_" x="432.265" y="649.302" width="132.655" height="108.775"/>
	</defs>
	<clipPath id="SVGID_8_">
		<use xlink:href="#SVGID_7_"  overflow="visible"/>
	</clipPath>
	
		<path clip-path="url(#SVGID_8_)" fill="none" stroke="#231F20" stroke-width="1.5" stroke-linecap="round" stroke-linejoin="round" stroke-miterlimit="22.926" d="
		M439.795,664.231v82.52h124.281v-28.35c0-15.65-12.701-28.35-28.352-28.35h-15.868v-25.82c0-7.83-6.351-14.18-14.181-14.18h-51.841
		C446.065,650.132,439.795,656.451,439.795,664.231z"/>
	
		<path clip-path="url(#SVGID_8_)" fill="none" stroke="#231F20" stroke-width="1.5" stroke-linecap="round" stroke-linejoin="round" stroke-miterlimit="22.926" d="
		M564.17,755.343c-3.885,0-3.885,1.984-7.768,1.984c-3.888,0-3.888-1.984-7.773-1.984c-3.885,0-3.885,1.984-7.771,1.984
		s-3.887-1.984-7.772-1.984s-3.886,1.984-7.771,1.984c-3.887,0-3.887-1.984-7.772-1.984c-3.887,0-3.887,1.984-7.773,1.984
		c-3.885,0-3.885-1.984-7.769-1.984c-3.885,0-3.885,1.984-7.771,1.984s-3.887-1.984-7.771-1.984c-3.887,0-3.887,1.984-7.773,1.984
		c-3.886,0-3.886-1.984-7.772-1.984c-3.891,0-3.891,1.984-7.778,1.984c-3.887,0-3.887-1.984-7.772-1.984
		c-3.891,0-3.891,1.984-7.781,1.984c-3.89,0-3.89-1.984-7.78-1.984"/>
	
		<line clip-path="url(#SVGID_8_)" fill="none" stroke="#231F20" stroke-width="1.5" stroke-linecap="round" stroke-linejoin="round" stroke-miterlimit="22.926" x1="439.799" y1="755.335" x2="439.799" y2="746.752"/>
	
		<line clip-path="url(#SVGID_8_)" fill="none" stroke="#231F20" stroke-width="1.5" stroke-linecap="round" stroke-linejoin="round" stroke-miterlimit="22.926" x1="519.856" y1="690.052" x2="439.795" y2="690.052"/>
	
		<path clip-path="url(#SVGID_8_)" fill="none" stroke="#231F20" stroke-width="1.5" stroke-linecap="round" stroke-linejoin="round" stroke-miterlimit="22.926" d="
		M439.799,719.242h27.262c7.05,0,12.766,5.717,12.766,12.767v14.743h-40.027V719.242z"/>
	
		<line clip-path="url(#SVGID_8_)" fill="none" stroke="#231F20" stroke-width="1.5" stroke-linecap="round" stroke-linejoin="round" stroke-miterlimit="22.926" x1="519.856" y1="664.231" x2="439.798" y2="664.231"/>
	
		<line clip-path="url(#SVGID_8_)" fill="none" stroke="#231F20" stroke-width="1.5" stroke-linecap="round" stroke-linejoin="round" stroke-miterlimit="22.926" x1="564.076" y1="746.751" x2="564.076" y2="755.334"/>
</g>
<path d="M404.167,238.634c-2.985,2.139-6.979,0.028-7.571-3.463c-0.769-4.525,5.567-7.035,8.476-3.66
	C406.825,233.547,406.368,237.057,404.167,238.634"/>
<path fill="none" stroke="#000000" stroke-miterlimit="10" d="M404.167,238.634c-2.985,2.139-6.979,0.028-7.571-3.463
	c-0.769-4.525,5.567-7.035,8.476-3.66C406.825,233.547,406.368,237.057,404.167,238.634z"/>
<path fill="#FFFFFF" d="M401.309,232.971c-0.186-0.671-0.88-1.178-1.798-0.926c-1.854,0.509-1.219,3.236,0.708,2.865
	C401.095,234.74,401.521,233.735,401.309,232.971"/>
<path d="M474.818,236.035c-0.524,1.557-1.705,2.894-3.305,3.319c-3.492,0.928-7.399-2.906-6.054-6.474
	c1.092-3.656,6.521-4.341,8.738-1.487C475.215,232.7,475.344,234.478,474.818,236.035"/>
<path fill="none" stroke="#000000" stroke-miterlimit="10" d="M474.818,236.035c-0.524,1.557-1.705,2.894-3.305,3.319
	c-3.492,0.928-7.399-2.906-6.054-6.474c1.092-3.656,6.521-4.341,8.738-1.487C475.215,232.7,475.344,234.478,474.818,236.035z"/>
<path fill="#FFFFFF" d="M468.078,232.141c0.491-0.37,1.191-0.478,1.72-0.127c0.725,0.483,0.821,1.581,0.226,2.207
	c-0.459,0.484-1.268,0.588-1.835,0.237c-0.378-0.234-0.623-0.654-0.677-1.091C467.449,232.865,467.678,232.442,468.078,232.141"/>
<rect y="0" fill="none" width="843.173" height="841.89"/>
</svg>
