<?xml version="1.0" encoding="utf-8"?>
<!-- Generator: Adobe Illustrator 15.1.0, SVG Export Plug-In . SVG Version: 6.00 Build 0)  -->
<!DOCTYPE svg PUBLIC "-//W3C//DTD SVG 1.1//EN" "http://www.w3.org/Graphics/SVG/1.1/DTD/svg11.dtd">
<svg version="1.1" id="Layer_1" xmlns="http://www.w3.org/2000/svg" xmlns:xlink="http://www.w3.org/1999/xlink" x="0px" y="0px"
	 width="843.173px" height="841.89px" viewBox="0 0 843.173 841.89" enable-background="new 0 0 843.173 841.89"
	 xml:space="preserve">
<path fill="none" stroke="#010101" stroke-width="1.5" stroke-linecap="round" stroke-linejoin="round" stroke-miterlimit="22.926" d="
	M354.725,338.698h1.138c0.747-1.291,1.823-2.367,3.114-3.114v-1.138h4.252h4.252v1.138c1.291,0.747,2.367,1.823,3.114,3.114h1.138
	v4.252v4.252h-1.138c-0.747,1.291-1.823,2.367-3.114,3.114v1.138h-4.252h-4.252v-1.138c-1.291-0.747-2.367-1.823-3.114-3.114h-1.138
	v-4.252V338.698z"/>
<rect x="383.071" y="338.698" fill="none" stroke="#010101" stroke-width="1.5" stroke-linecap="round" stroke-linejoin="round" stroke-miterlimit="22.926" width="17.008" height="8.504"/>
<rect x="439.765" y="338.698" fill="none" stroke="#010101" stroke-width="1.5" stroke-linecap="round" stroke-linejoin="round" stroke-miterlimit="22.926" width="17.008" height="8.504"/>
<path fill="none" stroke="#010101" stroke-width="1.5" stroke-linecap="round" stroke-linejoin="round" stroke-miterlimit="22.926" d="
	M468.11,338.698h1.138c0.747-1.291,1.822-2.367,3.113-3.114v-1.138h4.253h4.253v1.138c1.289,0.747,2.365,1.823,3.113,3.114h1.139
	v4.252v4.252h-1.139c-0.748,1.291-1.824,2.367-3.113,3.114v1.138h-4.253h-4.253v-1.138c-1.291-0.747-2.366-1.823-3.113-3.114h-1.138
	v-4.252V338.698z"/>
<path fill="none" stroke="#010101" stroke-width="1.5" stroke-linecap="round" stroke-linejoin="round" stroke-miterlimit="22.926" d="
	M438.346,313.552v10.973h56.694v22.677c0,7.826-6.347,14.173-14.173,14.173H358.977c-7.826,0-14.173-6.347-14.173-14.173v-22.677
	h56.693v-10.973"/>
<path fill="none" stroke="#010101" stroke-width="1.5" stroke-linecap="round" stroke-linejoin="round" stroke-miterlimit="22.926" d="
	M411.417,338.698h1.138c0.747-1.291,1.823-2.367,3.114-3.114v-1.138h4.252h4.251v1.138c1.292,0.747,2.367,1.823,3.114,3.114h1.139
	v4.252v4.252h-1.139c-0.747,1.291-1.822,2.367-3.114,3.114v1.138h-4.251h-4.252v-1.138c-1.291-0.747-2.367-1.823-3.114-3.114h-1.138
	v-4.252V338.698z"/>
<line fill="none" stroke="#010101" stroke-width="1.5" stroke-linecap="round" stroke-linejoin="round" stroke-miterlimit="22.926" x1="370.69" y1="291.261" x2="465.69" y2="291.261"/>
<path fill="none" stroke="#010101" stroke-width="1.5" stroke-linecap="round" stroke-linejoin="round" stroke-miterlimit="22.926" d="
	M377.498,291.231c-0.53-5.91,4.927-11.631,10.855-11.38c1.616,0.068,3.257,0.54,4.495,1.58c2.291,1.921,2.721,6.074,2.785,9.063"/>
<path fill="none" stroke="#010101" stroke-width="1.5" stroke-linecap="round" stroke-linejoin="round" stroke-miterlimit="22.926" d="
	M396.725,290.739c0.395-5.714,5.682-10.655,11.41-10.662c5.728-0.007,11.028,4.919,11.438,10.632
	c1.156-5.483,5.325-10.617,10.863-11.479c5.537-0.862,11.667,6.418,11.004,11.983c0.692-3.197,2.229-8.85,4.896-10.743
	c2.668-1.892,6.604-2.194,9.129-0.115c1.197,0.986,1.982,2.387,2.576,3.821c0.786,1.897,1.29,3.913,1.486,5.958"/>
<path d="M380.55,238.157c0.3,2.514,2.666,4.611,5.198,4.605c2.532-0.005,4.889-2.111,5.178-4.627"/>
<path fill="none" stroke="#010101" stroke-width="1.5" stroke-linecap="round" stroke-linejoin="round" stroke-miterlimit="22.926" d="
	M380.55,238.157c0.3,2.514,2.666,4.611,5.198,4.605c2.532-0.005,4.889-2.111,5.178-4.627"/>
<path fill="none" stroke="#010101" stroke-width="1.5" stroke-linecap="round" stroke-linejoin="round" stroke-miterlimit="22.926" d="
	M495.131,218.297v0.933c-0.317-0.383-0.65-0.75-0.977-1.125C494.48,218.164,494.805,218.229,495.131,218.297z"/>
<path fill="none" stroke="#010101" stroke-width="1.5" stroke-linecap="round" stroke-linejoin="round" stroke-miterlimit="22.926" d="
	M526.316,278.779c-9.748-3.749-19.256-8.457-28.311-14.04c12.763,20.597,21.037,44.186,23.895,68.382
	c-10.547-6.932-21.162-13.765-31.853-20.497c-1.45,0.833-3.133,1.308-4.917,1.308h-26.875h-55.424
	c-15.428,0-31.161-0.899-46.565,0.014c-2.244,0.134-5.745,0.172-6.985-2.253c0.411,0.804-3.415,4.809-4.017,5.404
	c-2.059,2.032-4.097,4.083-6.156,6.114c-4.313,4.256-8.787,8.319-13.638,11.96c-4.866-20.331,3.834-42.027,13.299-59.875
	c-7.899,5.191-21.856,10.424-29.871,15.698c-1.117-26.446,13.515-52.517,29.613-72.164c-8.649,2.816-23.039,6.49-31.005,10.981
	c3.191-23.354,20.298-45.609,38.004-60.157c4.741-3.9,9.165-7.174,15.023-9.249c12.673-4.283,26.021-6.641,39.469-6.999
	c-6.308-4.124-12.507-8.424-18.589-12.89c10.598,0.509,21.205,3.467,30.687,8.557c3.024-4.049,5.874-8.215,8.532-12.473
	c3.423,3.95,5.965,8.599,7.356,13.473c7.442-6.457,16.706-10.815,26.63-12.564c-2.999,5.207-6.015,10.448-9.049,15.714
	c19.64-0.717,40.136,7.357,54.859,21.538c17.488,16.848,26.162,40.544,34.252,63.424c-11.314-10.057-25.179-17.006-39.551-19.889
	c-0.326-0.066-0.65-0.133-0.977-0.191c0.326,0.375,0.659,0.741,0.977,1.125C509.886,236.294,520.734,256.932,526.316,278.779z"/>
<path fill="none" stroke="#010101" stroke-width="1.5" stroke-linecap="round" stroke-linejoin="round" stroke-miterlimit="22.926" d="
	M382.969,238.226c-8.216,0.01-16.432-0.128-24.644-0.416c0.733,4.166,2.109,8.241,4.305,11.854c2.003,3.294,4.705,6.193,7.959,8.249
	c6.535,3.493,14.181,5.527,21.478,4.187c2.393-0.479,4.734-1.225,6.961-2.225c4.185-2.847,5.98-4.027,8.969-8.114
	c2.99-4.09,4.874-9.165,4.363-14.205c-1.564,0.069-3.128,0.133-4.692,0.192c-4.645,0.174-9.292,0.301-13.94,0.38
	C390.142,238.189,386.555,238.222,382.969,238.226z"/>
<path fill="none" stroke="#010101" stroke-width="1.5" stroke-linecap="round" stroke-linejoin="round" stroke-miterlimit="22.926" d="
	M483.027,219.882c0,5.499-4.499,9.998-9.999,9.998H365.098c-5.499,0-9.998-4.499-9.998-9.998"/>
<line fill="none" stroke="#010101" stroke-width="1.5" stroke-linecap="round" stroke-linejoin="round" stroke-miterlimit="22.926" x1="364.628" y1="210.717" x2="473.193" y2="210.717"/>
<line fill="none" stroke="#010101" stroke-width="1.5" stroke-linecap="round" stroke-linejoin="round" stroke-miterlimit="22.926" x1="404.296" y1="197.941" x2="441.235" y2="197.941"/>
<path d="M456.877,238.157c-0.3,2.514-2.667,4.611-5.199,4.605c-2.53-0.005-4.888-2.111-5.178-4.627"/>
<path fill="none" stroke="#010101" stroke-width="1.5" stroke-linecap="round" stroke-linejoin="round" stroke-miterlimit="22.926" d="
	M456.877,238.157c-0.3,2.514-2.667,4.611-5.199,4.605c-2.53-0.005-4.888-2.111-5.178-4.627"/>
<path fill="none" stroke="#010101" stroke-width="1.5" stroke-linecap="round" stroke-linejoin="round" stroke-miterlimit="22.926" d="
	M454.456,238.226c8.217,0.01,16.434-0.128,24.646-0.416c-0.734,4.166-2.109,8.241-4.305,11.854
	c-2.003,3.294-4.706,6.193-7.959,8.249c-6.536,3.493-14.182,5.527-21.479,4.187c-2.394-0.479-4.734-1.225-6.962-2.225
	c-4.185-2.847-5.979-4.027-8.968-8.114c-2.99-4.09-4.875-9.165-4.364-14.205c1.565,0.069,3.128,0.133,4.692,0.192
	c4.645,0.174,9.293,0.301,13.94,0.38C447.283,238.189,450.87,238.222,454.456,238.226z"/>
<g>
	<defs>
		<rect id="SVGID_1_" x="569.131" y="425.002" width="186.9" height="119.246"/>
	</defs>
	<clipPath id="SVGID_2_">
		<use xlink:href="#SVGID_1_"  overflow="visible"/>
	</clipPath>
	
		<path clip-path="url(#SVGID_2_)" fill="none" stroke="#000000" stroke-width="1.5" stroke-linecap="round" stroke-linejoin="round" stroke-miterlimit="22.926" d="
		M705.381,530.676c1.579,3.771-5.781,7.521-8.541,6.811c0.109-2.101,0.439-6.84-0.34-8.141c-0.08-0.069-0.02-0.25,0.15-0.37
		C699,529.146,704.18,527.826,705.381,530.676z"/>
	
		<path clip-path="url(#SVGID_2_)" fill="none" stroke="#000000" stroke-width="1.5" stroke-linecap="round" stroke-linejoin="round" stroke-miterlimit="22.926" d="
		M742.52,441.276c-3.01,1.12-6.289,1.25-9.5,1.359c-0.34-3.18-0.369-6.399-0.1-9.6c1.62,0.3,3.23,0.6,4.85,0.89
		c1.45,0.271,2.93,0.55,4.22,1.271c1.28,0.729,2.351,2.01,2.421,3.479c0.039,0.71-0.18,1.45-0.69,1.94
		C743.381,440.926,742.949,441.116,742.52,441.276z"/>
	
		<path clip-path="url(#SVGID_2_)" fill="none" stroke="#000000" stroke-width="1.5" stroke-linecap="round" stroke-linejoin="round" stroke-miterlimit="22.926" d="
		M748.27,471.756c-3.56,1.76-7.45,2.83-11.41,3.13c-0.069,0-0.149,0.011-0.22-0.04c-0.079-0.05-0.1-0.16-0.11-0.26
		c-0.39-2.82-0.56-5.68-0.5-8.53c2.83-0.729,5.771-1.01,8.681-0.84c1.529,0.09,3.13,0.34,4.33,1.29c1.19,0.96,1.761,2.84,0.85,4.07
		C749.489,471.116,748.871,471.456,748.27,471.756z"/>
	
		<path clip-path="url(#SVGID_2_)" fill="none" stroke="#000000" stroke-width="1.5" stroke-linecap="round" stroke-linejoin="round" stroke-miterlimit="22.926" d="
		M750.59,499.456c-0.38,1.33-1.85,1.96-3.17,2.38c-3.09,0.98-6.24,1.771-9.43,2.35c-0.48-0.319-0.551-0.979-0.59-1.56
		c-0.121-2.2-0.24-4.4-0.36-6.6c2.771-0.37,5.569-0.511,8.37-0.431c1.25,0.03,2.541,0.13,3.63,0.75
		C750.131,496.966,750.93,498.256,750.59,499.456z"/>
	
		<path clip-path="url(#SVGID_2_)" fill="none" stroke="#000000" stroke-width="1.5" stroke-linecap="round" stroke-linejoin="round" stroke-miterlimit="22.926" d="
		M750.59,499.456c-0.38,1.33-1.85,1.96-3.17,2.38c-3.09,0.98-6.24,1.771-9.43,2.35c-0.48-0.319-0.551-0.979-0.59-1.56
		c-0.121-2.2-0.24-4.4-0.36-6.6c2.771-0.37,5.569-0.511,8.37-0.431c1.25,0.03,2.541,0.13,3.63,0.75
		C750.131,496.966,750.93,498.256,750.59,499.456z"/>
	
		<path clip-path="url(#SVGID_2_)" fill="none" stroke="#000000" stroke-width="1.5" stroke-linecap="round" stroke-linejoin="round" stroke-miterlimit="22.926" d="
		M744.41,438.676c0.039,0.71-0.18,1.45-0.69,1.94c-0.339,0.31-0.771,0.5-1.2,0.66c-3.01,1.12-6.289,1.25-9.5,1.359
		c-0.34-3.18-0.369-6.399-0.1-9.6c1.62,0.3,3.23,0.6,4.85,0.89c1.45,0.271,2.93,0.55,4.22,1.271
		C743.27,435.926,744.34,437.206,744.41,438.676z"/>
	
		<path clip-path="url(#SVGID_2_)" fill="none" stroke="#000000" stroke-width="1.5" stroke-linecap="round" stroke-linejoin="round" stroke-miterlimit="22.926" d="
		M749.89,470.576c-0.4,0.54-1.019,0.88-1.62,1.18c-3.56,1.76-7.45,2.83-11.41,3.13c-0.069,0-0.149,0.011-0.22-0.04
		c-0.079-0.05-0.1-0.16-0.11-0.26c-0.39-2.82-0.56-5.68-0.5-8.53c2.83-0.729,5.771-1.01,8.681-0.84c1.529,0.09,3.13,0.34,4.33,1.29
		C750.23,467.466,750.801,469.346,749.89,470.576z"/>
	
		<path clip-path="url(#SVGID_2_)" fill="none" stroke="#000000" stroke-width="1.5" stroke-linecap="round" stroke-linejoin="round" stroke-miterlimit="22.926" d="
		M696.84,537.486c0.111-2.101,0.439-6.84-0.34-8.141c-0.08-0.069-0.02-0.25,0.15-0.37c2.35,0.171,7.529-1.149,8.73,1.7
		C706.96,534.446,699.6,538.196,696.84,537.486z"/>
	
		<path clip-path="url(#SVGID_2_)" fill="none" stroke="#010101" stroke-width="1.5" stroke-linecap="round" stroke-linejoin="round" stroke-miterlimit="22.926" d="
		M596.805,510.108h-1.139c-0.747,1.291-1.822,2.367-3.114,3.114v1.138h-4.251h-4.253v-1.138c-1.291-0.747-2.366-1.823-3.114-3.114
		h-1.137v-4.252v-4.252h1.137c0.748-1.291,1.823-2.366,3.114-3.113v-1.139h4.253h4.251v1.139c1.292,0.747,2.367,1.822,3.114,3.113
		h1.139v4.252V510.108z"/>
	
		<rect x="584.048" y="469.006" clip-path="url(#SVGID_2_)" fill="none" stroke="#010101" stroke-width="1.5" stroke-linecap="round" stroke-linejoin="round" stroke-miterlimit="22.926" width="8.504" height="17.008"/>
	
		<path clip-path="url(#SVGID_2_)" fill="none" stroke="#010101" stroke-width="1.5" stroke-linecap="round" stroke-linejoin="round" stroke-miterlimit="22.926" d="
		M596.805,453.416h-1.139c-0.747,1.291-1.822,2.367-3.114,3.114v1.138h-4.251h-4.253v-1.138c-1.291-0.747-2.366-1.823-3.114-3.114
		h-1.137v-4.252v-4.252h1.137c0.748-1.291,1.823-2.367,3.114-3.114v-1.138h4.253h4.251v1.138c1.292,0.747,2.367,1.823,3.114,3.114
		h1.139v4.252V453.416z"/>
	
		<path clip-path="url(#SVGID_2_)" fill="none" stroke="#000000" stroke-width="1.5" stroke-linecap="round" stroke-linejoin="round" stroke-miterlimit="22.926" d="
		M734.085,510.411c-7.924,1.557-15.95,2.594-24.015,3.095c-5.32,0.34-10.66,0.44-16,0.311c-2.67-0.061-5.33-0.19-7.99-0.37
		c-2.098-0.143-4.164-0.645-6.227-1.031c-0.139-0.026-0.291-0.051-0.415,0.017c-0.12,0.065-0.183,0.198-0.235,0.324
		c-0.913,2.207-0.975,5.032,0.707,6.9c1.891,2.1,4.791,2.93,7.55,3.49c2.841,0.579,5.72,0.96,8.61,1.1
		c2.98,0.15,6.039,0.04,8.85,1.04s5.37,3.479,5.359,6.47c-0.02,3.36-3.09,5.811-5.89,7.68c-1.79,1.19-3.62,2.381-5.64,3.12
		c-3.53,1.271-7.43,1.091-11.119,0.431c-19.48-3.471-36.93-19.32-44.531-37.23c-1.67-3.939-3.02-8.01-4.029-12.17h-32.34v-36.85
		h33.6c2.74-5.931,6.02-11.46,10.88-15.891c5.139-4.699,11.451-8.322,17.763-11.139c1.557-0.696,3.182-1.312,4.764-1.949
		c3.327-1.341,6.682-2.129,10.266-1.99c2.211,0.086,4.453,0.203,6.575,0.796c4.796,1.339,9.722,0.857,14.71,0.896
		c5.402,0.043,10.807,0.187,16.203,0.437c6.05,0.279,12.68,0.55,18.6,1.829c3.51,0.75,7.37,2.421,8.4,5.851
		c0.99,3.3-1.24,6.87-4.23,8.57c-2.52,1.433-5.449,1.617-8.26,1.985c-3.365,0.441-6.723,0.969-10.085,1.436
		c-5.908,0.817-11.821,1.589-17.743,2.312c-2.277,0.278-4.594,0.219-6.861,0.562c-2.178,0.328-5.408,1.188-5.717,3.817
		c-0.216,1.855,1.674,2.448,3.137,2.648c12.141,1.67,24.379,2.67,36.629,3c4.951,0.13,10.021,0.17,14.67,1.89
		c1.931,0.71,3.871,1.83,4.761,3.68c0.86,1.811,0.521,4.021-0.47,5.761c-2.27,4.01-7.211,5.52-11.711,6.54
		c-12.049,2.739-24.309,4.54-36.629,5.37c-1.881,0.13-3.881,0.279-5.371,1.42c-1.488,1.14-2.049,3.67-0.6,4.859
		c0.67,0.54,1.58,0.681,2.43,0.771c10.621,1.229,21.361,0.479,32.041,0.68c3.709,0.07,7.409,0.25,11.1,0.67
		c2.85,0.32,5.98,0.96,7.68,3.271c2.09,2.85,0.93,7.119-1.629,9.55c-2.561,2.43-6.121,3.45-9.551,4.29
		C739.428,509.3,736.764,509.885,734.085,510.411z M736.029,466.056c2.83-0.729,5.771-1.01,8.681-0.84
		c1.53,0.09,3.13,0.34,4.33,1.29c1.19,0.96,1.761,2.84,0.85,4.07c-0.399,0.54-1.019,0.88-1.62,1.18
		c-3.56,1.76-7.449,2.83-11.41,3.13c-0.069,0-0.149,0.011-0.22-0.04c-0.079-0.05-0.1-0.16-0.11-0.26
		C736.14,471.766,735.97,468.906,736.029,466.056z M732.92,433.036c1.62,0.3,3.23,0.6,4.85,0.89c1.45,0.271,2.932,0.55,4.221,1.271
		c1.279,0.729,2.35,2.01,2.42,3.479c0.041,0.71-0.18,1.45-0.69,1.94c-0.339,0.31-0.769,0.5-1.2,0.66
		c-3.01,1.12-6.289,1.25-9.5,1.359C732.68,439.456,732.65,436.236,732.92,433.036z M696.65,528.976c2.35,0.171,7.529-1.149,8.73,1.7
		c1.579,3.771-5.781,7.521-8.541,6.811c0.111-2.101,0.439-6.84-0.34-8.141C696.42,529.276,696.48,529.096,696.65,528.976z
		 M750.59,499.456c-0.38,1.33-1.85,1.96-3.17,2.38c-3.09,0.98-6.24,1.771-9.43,2.35c-0.48-0.319-0.551-0.979-0.59-1.56
		c-0.121-2.2-0.24-4.4-0.36-6.6c2.771-0.37,5.569-0.511,8.37-0.431c1.25,0.03,2.541,0.13,3.63,0.75
		C750.131,496.966,750.93,498.256,750.59,499.456z"/>
	
		<line clip-path="url(#SVGID_2_)" fill="none" stroke="#000000" stroke-width="1.5" stroke-linecap="round" stroke-linejoin="round" stroke-miterlimit="22.926" x1="640.83" y1="456.736" x2="640.33" y2="456.736"/>
	
		<path clip-path="url(#SVGID_2_)" fill="none" stroke="#000000" stroke-width="1.5" stroke-linecap="round" stroke-linejoin="round" stroke-miterlimit="22.926" d="
		M606.73,456.736v-0.73v-25.97h-22.68c-7.83,0-14.17,6.35-14.17,14.18v65.891c0,7.819,6.34,14.17,14.17,14.17h22.68v-30.69"/>
	
		<line clip-path="url(#SVGID_2_)" fill="none" stroke="#000000" stroke-width="1.5" stroke-linecap="round" stroke-linejoin="round" stroke-miterlimit="22.926" x1="606.73" y1="456.736" x2="606.73" y2="456.006"/>
</g>
<g>
	<defs>
		<rect id="SVGID_3_" x="81.627" y="428.712" width="186.901" height="119.246"/>
	</defs>
	<clipPath id="SVGID_4_">
		<use xlink:href="#SVGID_3_"  overflow="visible"/>
	</clipPath>
	
		<path clip-path="url(#SVGID_4_)" fill="none" stroke="#000000" stroke-width="1.5" stroke-linecap="round" stroke-linejoin="round" stroke-miterlimit="22.926" d="
		M132.278,534.386c-1.58,3.77,5.78,7.52,8.54,6.81c-0.11-2.1-0.44-6.84,0.34-8.14c0.08-0.07,0.02-0.25-0.15-0.37
		C138.658,532.855,133.479,531.536,132.278,534.386z"/>
	
		<path clip-path="url(#SVGID_4_)" fill="none" stroke="#000000" stroke-width="1.5" stroke-linecap="round" stroke-linejoin="round" stroke-miterlimit="22.926" d="
		M95.138,444.985c3.01,1.12,6.29,1.25,9.5,1.36c0.34-3.18,0.37-6.4,0.1-9.6c-1.62,0.3-3.23,0.6-4.85,0.89
		c-1.45,0.27-2.93,0.55-4.22,1.27c-1.28,0.73-2.35,2.011-2.42,3.48c-0.04,0.71,0.18,1.45,0.69,1.94
		C94.278,444.636,94.708,444.826,95.138,444.985z"/>
	
		<path clip-path="url(#SVGID_4_)" fill="none" stroke="#000000" stroke-width="1.5" stroke-linecap="round" stroke-linejoin="round" stroke-miterlimit="22.926" d="
		M89.388,475.466c3.56,1.76,7.45,2.83,11.41,3.13c0.07,0,0.15,0.01,0.22-0.04c0.08-0.05,0.1-0.16,0.11-0.26
		c0.39-2.82,0.56-5.681,0.5-8.53c-2.83-0.729-5.77-1.01-8.68-0.84c-1.53,0.09-3.13,0.34-4.33,1.29c-1.19,0.96-1.76,2.84-0.85,4.07
		C88.168,474.826,88.789,475.166,89.388,475.466z"/>
	
		<path clip-path="url(#SVGID_4_)" fill="none" stroke="#000000" stroke-width="1.5" stroke-linecap="round" stroke-linejoin="round" stroke-miterlimit="22.926" d="
		M87.068,503.166c0.38,1.33,1.85,1.96,3.17,2.38c3.09,0.979,6.24,1.77,9.43,2.35c0.48-0.319,0.55-0.979,0.59-1.56
		c0.12-2.2,0.24-4.4,0.36-6.601c-2.77-0.37-5.57-0.51-8.37-0.43c-1.25,0.03-2.54,0.13-3.63,0.75
		C87.528,500.676,86.728,501.966,87.068,503.166z"/>
	
		<path clip-path="url(#SVGID_4_)" fill="none" stroke="#000000" stroke-width="1.5" stroke-linecap="round" stroke-linejoin="round" stroke-miterlimit="22.926" d="
		M87.068,503.166c0.38,1.33,1.85,1.96,3.17,2.38c3.09,0.979,6.24,1.77,9.43,2.35c0.48-0.319,0.55-0.979,0.59-1.56
		c0.12-2.2,0.24-4.4,0.36-6.601c-2.77-0.37-5.57-0.51-8.37-0.43c-1.25,0.03-2.54,0.13-3.63,0.75
		C87.528,500.676,86.728,501.966,87.068,503.166z"/>
	
		<path clip-path="url(#SVGID_4_)" fill="none" stroke="#000000" stroke-width="1.5" stroke-linecap="round" stroke-linejoin="round" stroke-miterlimit="22.926" d="
		M93.249,442.386c-0.04,0.71,0.18,1.45,0.69,1.94c0.34,0.31,0.77,0.5,1.2,0.659c3.01,1.12,6.29,1.25,9.5,1.36
		c0.34-3.18,0.37-6.4,0.1-9.6c-1.62,0.3-3.23,0.6-4.85,0.89c-1.45,0.27-2.93,0.55-4.22,1.27
		C94.389,439.636,93.318,440.916,93.249,442.386z"/>
	
		<path clip-path="url(#SVGID_4_)" fill="none" stroke="#000000" stroke-width="1.5" stroke-linecap="round" stroke-linejoin="round" stroke-miterlimit="22.926" d="
		M87.769,474.286c0.4,0.54,1.02,0.88,1.62,1.18c3.56,1.76,7.45,2.83,11.41,3.13c0.07,0,0.15,0.01,0.22-0.04
		c0.08-0.05,0.1-0.16,0.11-0.26c0.39-2.82,0.56-5.681,0.5-8.53c-2.83-0.729-5.77-1.01-8.68-0.84c-1.53,0.09-3.13,0.34-4.33,1.29
		C87.428,471.176,86.858,473.056,87.769,474.286z"/>
	
		<path clip-path="url(#SVGID_4_)" fill="none" stroke="#000000" stroke-width="1.5" stroke-linecap="round" stroke-linejoin="round" stroke-miterlimit="22.926" d="
		M140.818,541.195c-0.11-2.1-0.44-6.84,0.34-8.14c0.08-0.07,0.02-0.25-0.15-0.37c-2.35,0.17-7.53-1.149-8.73,1.7
		C130.698,538.155,138.058,541.905,140.818,541.195z"/>
	
		<path clip-path="url(#SVGID_4_)" fill="none" stroke="#010101" stroke-width="1.5" stroke-linecap="round" stroke-linejoin="round" stroke-miterlimit="22.926" d="
		M240.854,513.818h1.138c0.747,1.291,1.823,2.367,3.114,3.114v1.138h4.252h4.252v-1.138c1.291-0.747,2.367-1.823,3.114-3.114h1.138
		v-4.252v-4.252h-1.138c-0.747-1.291-1.823-2.367-3.114-3.114v-1.138h-4.252h-4.252v1.138c-1.291,0.747-2.367,1.823-3.114,3.114
		h-1.138v4.252V513.818z"/>
	
		<rect x="245.106" y="472.716" clip-path="url(#SVGID_4_)" fill="none" stroke="#010101" stroke-width="1.5" stroke-linecap="round" stroke-linejoin="round" stroke-miterlimit="22.926" width="8.504" height="17.008"/>
	
		<path clip-path="url(#SVGID_4_)" fill="none" stroke="#010101" stroke-width="1.5" stroke-linecap="round" stroke-linejoin="round" stroke-miterlimit="22.926" d="
		M240.854,457.125h1.138c0.747,1.291,1.823,2.367,3.114,3.114v1.139h4.252h4.252v-1.139c1.291-0.747,2.367-1.823,3.114-3.114h1.138
		v-4.252v-4.252h-1.138c-0.747-1.291-1.823-2.366-3.114-3.113v-1.139h-4.252h-4.252v1.139c-1.291,0.747-2.367,1.822-3.114,3.113
		h-1.138v4.252V457.125z"/>
	
		<path clip-path="url(#SVGID_4_)" fill="none" stroke="#000000" stroke-width="1.5" stroke-linecap="round" stroke-linejoin="round" stroke-miterlimit="22.926" d="
		M103.573,514.121c7.924,1.557,15.95,2.594,24.015,3.095c5.32,0.34,10.66,0.439,16,0.31c2.67-0.06,5.33-0.189,7.99-0.37
		c2.097-0.142,4.164-0.644,6.226-1.03c0.14-0.026,0.292-0.052,0.416,0.017c0.12,0.065,0.183,0.198,0.235,0.324
		c0.914,2.207,0.975,5.032-0.707,6.899c-1.89,2.101-4.79,2.931-7.55,3.49c-2.84,0.58-5.72,0.96-8.61,1.101
		c-2.98,0.149-6.04,0.04-8.85,1.04s-5.37,3.479-5.36,6.47c0.02,3.36,3.09,5.81,5.89,7.68c1.79,1.19,3.62,2.38,5.64,3.12
		c3.53,1.271,7.43,1.09,11.12,0.43c19.48-3.47,36.93-19.319,44.53-37.229c1.67-3.94,3.02-8.01,4.03-12.17h32.34v-36.851h-33.6
		c-2.74-5.93-6.02-11.46-10.88-15.89c-5.139-4.7-11.451-8.323-17.762-11.139c-1.558-0.696-3.183-1.312-4.765-1.949
		c-3.326-1.341-6.68-2.129-10.265-1.99c-2.21,0.086-4.453,0.203-6.575,0.795c-4.796,1.339-9.722,0.858-14.71,0.897
		c-5.403,0.043-10.806,0.186-16.203,0.436c-6.05,0.28-12.68,0.55-18.6,1.83c-3.51,0.75-7.37,2.42-8.4,5.851
		c-0.99,3.3,1.24,6.869,4.23,8.569c2.52,1.434,5.449,1.618,8.26,1.986c3.366,0.44,6.722,0.969,10.085,1.435
		c5.908,0.818,11.822,1.589,17.743,2.312c2.278,0.278,4.594,0.219,6.861,0.561c2.178,0.329,5.409,1.188,5.717,3.818
		c0.216,1.854-1.674,2.448-3.136,2.647c-12.14,1.671-24.38,2.671-36.63,3c-4.95,0.131-10.02,0.171-14.67,1.891
		c-1.93,0.71-3.87,1.83-4.76,3.68c-0.86,1.811-0.52,4.021,0.47,5.76c2.27,4.011,7.21,5.521,11.71,6.54
		c12.05,2.74,24.31,4.54,36.63,5.37c1.88,0.13,3.88,0.28,5.37,1.42c1.49,1.141,2.05,3.67,0.6,4.86c-0.67,0.54-1.58,0.68-2.43,0.77
		c-10.62,1.23-21.36,0.48-32.04,0.681c-3.71,0.069-7.41,0.25-11.1,0.67c-2.85,0.32-5.98,0.96-7.68,3.27
		c-2.09,2.851-0.93,7.12,1.63,9.551c2.56,2.43,6.12,3.449,9.55,4.289C98.23,513.01,100.895,513.595,103.573,514.121z
		 M101.628,469.766c-2.83-0.729-5.77-1.01-8.68-0.84c-1.53,0.09-3.13,0.34-4.33,1.29c-1.19,0.96-1.76,2.84-0.85,4.07
		c0.4,0.54,1.02,0.88,1.62,1.18c3.56,1.76,7.45,2.83,11.41,3.13c0.07,0,0.15,0.01,0.22-0.04c0.08-0.05,0.1-0.16,0.11-0.26
		C101.518,475.476,101.688,472.615,101.628,469.766z M104.738,436.746c-1.62,0.3-3.23,0.6-4.85,0.89c-1.45,0.27-2.93,0.55-4.22,1.27
		c-1.28,0.73-2.35,2.011-2.42,3.48c-0.04,0.71,0.18,1.45,0.69,1.94c0.34,0.31,0.77,0.5,1.2,0.659c3.01,1.12,6.29,1.25,9.5,1.36
		C104.978,443.166,105.008,439.945,104.738,436.746z M141.008,532.686c-2.35,0.17-7.53-1.149-8.73,1.7
		c-1.58,3.77,5.78,7.52,8.54,6.81c-0.11-2.1-0.44-6.84,0.34-8.14C141.238,532.985,141.178,532.806,141.008,532.686z M87.068,503.166
		c0.38,1.33,1.85,1.96,3.17,2.38c3.09,0.979,6.24,1.77,9.43,2.35c0.48-0.319,0.55-0.979,0.59-1.56c0.12-2.2,0.24-4.4,0.36-6.601
		c-2.77-0.37-5.57-0.51-8.37-0.43c-1.25,0.03-2.54,0.13-3.63,0.75C87.528,500.676,86.728,501.966,87.068,503.166z"/>
	
		<line clip-path="url(#SVGID_4_)" fill="none" stroke="#000000" stroke-width="1.5" stroke-linecap="round" stroke-linejoin="round" stroke-miterlimit="22.926" x1="196.828" y1="460.445" x2="197.328" y2="460.445"/>
	
		<path clip-path="url(#SVGID_4_)" fill="none" stroke="#000000" stroke-width="1.5" stroke-linecap="round" stroke-linejoin="round" stroke-miterlimit="22.926" d="
		M230.928,460.445v-0.729v-25.97h22.68c7.83,0,14.17,6.35,14.17,14.18v65.89c0,7.82-6.34,14.17-14.17,14.17h-22.68v-30.689"/>
	
		<line clip-path="url(#SVGID_4_)" fill="none" stroke="#000000" stroke-width="1.5" stroke-linecap="round" stroke-linejoin="round" stroke-miterlimit="22.926" x1="230.928" y1="460.445" x2="230.928" y2="459.716"/>
</g>
<path fill="none" stroke="#010101" stroke-width="1.5" stroke-linecap="round" stroke-linejoin="round" stroke-miterlimit="22.926" d="
	M484.25,626.169h-1.137c-0.748,1.291-1.823,2.367-3.115,3.114v1.139h-4.252h-4.252v-1.139c-1.289-0.747-2.367-1.823-3.113-3.114
	h-1.139v-4.252v-4.252h1.139c0.746-1.29,1.824-2.366,3.113-3.113v-1.139h4.252h4.252v1.139c1.292,0.747,2.367,1.823,3.115,3.113
	h1.137v4.252V626.169z"/>
<rect x="438.896" y="617.666" fill="none" stroke="#010101" stroke-width="1.5" stroke-linecap="round" stroke-linejoin="round" stroke-miterlimit="22.926" width="17.007" height="8.504"/>
<rect x="382.204" y="617.666" fill="none" stroke="#010101" stroke-width="1.5" stroke-linecap="round" stroke-linejoin="round" stroke-miterlimit="22.926" width="17.008" height="8.504"/>
<path fill="none" stroke="#010101" stroke-width="1.5" stroke-linecap="round" stroke-linejoin="round" stroke-miterlimit="22.926" d="
	M370.865,626.169h-1.138c-0.747,1.291-1.823,2.367-3.114,3.114v1.139h-4.252h-4.252v-1.139c-1.29-0.747-2.367-1.823-3.114-3.114
	h-1.138v-4.252v-4.252h1.138c0.747-1.29,1.824-2.366,3.114-3.113v-1.139h4.252h4.252v1.139c1.291,0.747,2.367,1.823,3.114,3.113
	h1.138v4.252V626.169z"/>
<path fill="none" stroke="#010101" stroke-width="1.5" stroke-linecap="round" stroke-linejoin="round" stroke-miterlimit="22.926" d="
	M427.558,626.169h-1.138c-0.747,1.291-1.822,2.367-3.113,3.114v1.139h-4.252h-4.252v-1.139c-1.29-0.747-2.367-1.823-3.114-3.114
	h-1.138v-4.252v-4.252h1.138c0.747-1.29,1.824-2.366,3.114-3.113v-1.139h4.252h4.252v1.139c1.291,0.747,2.366,1.823,3.113,3.113
	h1.138v4.252V626.169z"/>
<path fill="none" stroke="#231F20" stroke-width="1.5" stroke-linecap="round" stroke-linejoin="round" stroke-miterlimit="22.926" d="
	M478.26,640.34h15.909v-22.67c0-7.83-6.341-14.181-14.171-14.181H358.109c-7.83,0-14.17,6.351-14.17,14.181v22.67
	c0,0,16.685,0,16.69,0c-0.29,0.332,0.003,2.177,0.004,2.595c0.008,1.925,0.014,3.851,0.007,5.777
	c-0.006,1.571,0.34,3.709-0.081,5.231c-0.617,2.234-4.074,3.086-6.297,3.23c-5.626,0.364-10.504,0.378-15.722-1.721
	c-5.37-2.159-10.728-4.404-15.697-7.398c-2.877-1.733-6.02-3.71-9.179-4.847c-9.104-3.275-20.593-0.753-28.551,4.646
	c-6.782,4.601-12.605,11.675-15.399,19.428c-1.307,3.628-2.334,7.306-1.01,11.087c0.896,2.562,1.857,5.501,4.876,5.874
	c5.373,0.664,8.829-4.273,12.72-7.078c3.06-2.206,6.219-3.829,9.598-5.476c1.814-0.883,8.686-4.323,9.756-0.758
	c0.576,1.922-2.284,3.656-3.49,4.515c-2.507,1.784-5.035,3.485-7.46,5.403c-1.752,1.387-3.145,2.693-4.531,4.487
	c-1.936,2.508-4.157,4.383-5.317,7.413c-1.325,3.46-1.374,7.171,0.079,10.602c1.651,3.897,5.639,7.711,10.205,6.985
	c3.651-0.58,6.575-4.896,8.993-7.482c3.313-3.544,5.737-7.564,10.385-9.478c1.278-0.526,8.585-2.475,8.65,0.386
	c0.029,1.304-2.244,1.627-3.177,2.214c-2.73,1.715-6.949,6.944-6.133,10.357c1.339,5.604,8.912,7.47,13.755,6.835
	c6.915-0.906,12.584-5.452,19.232-7.217c6.501-1.724,11.809-4.84,18.9-2.983c4.073,1.065,7.514,4.742,11.293,6.661
	c8.008,4.066,21.18,4.62,27.882-2.241c1.566-1.604,3.11-3.334,4.455-5.126c3.688-4.915,5.392-11.171,5.316-17.288
	c-0.12-9.561-4.214-20.532-11.412-27.01c-1.269-1.143-4.713-2.354-5.523-3.556c-0.788-1.17-0.277-3.865-0.277-5.229
	c0-0.595,0-8.839,0-8.839h44.14 M275,666.346c0.365,0.449-7.297,9.623-2.337,12.503c2.607,1.513,5.633-3.423,7.985-4.561
	C280.151,672.668,276.336,666.653,275,666.346 M289.593,694.305c2.933,1.215,3.667,3.852,6.698,4.767
	c-0.883,2.386-3.02,7.97-6.765,6.262C284.113,702.863,289.41,694.474,289.593,694.305 M328.238,706.26
	c-6.686,10.867-13.731-6.798-4.546-6.17C323.976,700.578,328.316,705.688,328.238,706.26"/>
<line fill="none" stroke="#231F20" stroke-width="1.5" stroke-linecap="round" stroke-linejoin="round" stroke-miterlimit="22.926" x1="360.629" y1="640.339" x2="397.479" y2="640.339"/>
<line fill="none" stroke="#231F20" stroke-width="1.5" stroke-linecap="round" stroke-linejoin="round" stroke-miterlimit="22.926" x1="441.619" y1="640.339" x2="478.26" y2="640.339"/>
<path fill="none" stroke="#231F20" stroke-width="1.5" stroke-linecap="round" stroke-linejoin="round" stroke-miterlimit="22.926" d="
	M441.301,640.339v8.841c0,1.362,0.512,4.059-0.277,5.229c-0.811,1.203-4.255,2.413-5.523,3.555
	c-7.197,6.479-11.29,17.45-11.41,27.011c-0.078,6.116,1.627,12.374,5.314,17.288c1.346,1.793,2.89,3.522,4.456,5.127
	c6.7,6.86,19.875,6.307,27.882,2.239c3.777-1.919,7.221-5.594,11.293-6.66c7.09-1.856,12.397,1.261,18.898,2.984
	c6.65,1.763,12.318,6.31,19.234,7.216c4.843,0.636,12.414-1.231,13.754-6.836c0.816-3.413-3.404-8.642-6.133-10.356
	c-0.934-0.586-3.207-0.91-3.178-2.213c0.064-2.861,7.371-0.913,8.65-0.388c4.648,1.913,7.072,5.936,10.386,9.479
	c2.417,2.586,5.341,6.902,8.991,7.482c4.567,0.726,8.555-3.088,10.205-6.985c1.454-3.432,1.404-7.143,0.08-10.602
	c-1.16-3.029-3.381-4.905-5.317-7.413c-1.386-1.795-2.778-3.101-4.53-4.486c-2.426-1.918-4.953-3.619-7.461-5.404
	c-1.205-0.858-4.066-2.593-3.488-4.514c1.07-3.566,7.941-0.126,9.754,0.757c3.38,1.646,6.539,3.269,9.598,5.475
	c3.893,2.807,7.349,7.744,12.723,7.08c3.018-0.373,3.979-3.312,4.875-5.875c1.322-3.782,0.297-7.459-1.012-11.086
	c-2.792-7.754-8.616-14.828-15.396-19.429c-7.959-5.399-19.449-7.92-28.551-4.646c-3.16,1.138-6.304,3.114-9.18,4.848
	c-4.969,2.993-10.327,5.238-15.698,7.398c-5.218,2.099-10.096,2.084-15.722,1.72c-2.224-0.143-5.68-0.994-6.298-3.229
	c-0.421-1.523-0.073-3.661-0.08-5.233c-0.008-1.926,0-3.851,0.007-5.776c0.001-0.418,0.295-2.263,0.004-2.596"/>
<path fill="none" stroke="#231F20" stroke-width="1.5" stroke-linecap="round" stroke-linejoin="round" stroke-miterlimit="22.926" d="
	M563.779,666.346c-1.336,0.308-5.151,6.322-5.648,7.942c2.354,1.138,5.38,6.073,7.986,4.561
	C571.076,675.969,563.415,666.795,563.779,666.346"/>
<path fill="none" stroke="#231F20" stroke-width="1.5" stroke-linecap="round" stroke-linejoin="round" stroke-miterlimit="22.926" d="
	M549.188,694.305c0.182,0.169,5.479,8.559,0.066,11.028c-3.744,1.708-5.881-3.876-6.766-6.262
	C545.52,698.156,546.254,695.519,549.188,694.305"/>
<path fill="none" stroke="#231F20" stroke-width="1.5" stroke-linecap="round" stroke-linejoin="round" stroke-miterlimit="22.926" d="
	M510.541,706.26c-0.078-0.572,4.264-5.682,4.547-6.17C524.272,699.462,517.229,717.127,510.541,706.26"/>
<rect y="0" fill="none" width="843.173" height="841.89"/>
</svg>
