<?xml version="1.0" encoding="utf-8"?>
<!-- Generator: Adobe Illustrator 15.1.0, SVG Export Plug-In . SVG Version: 6.00 Build 0)  -->
<!DOCTYPE svg PUBLIC "-//W3C//DTD SVG 1.1//EN" "http://www.w3.org/Graphics/SVG/1.1/DTD/svg11.dtd">
<svg version="1.1" id="Layer_1" xmlns="http://www.w3.org/2000/svg" xmlns:xlink="http://www.w3.org/1999/xlink" x="0px" y="0px"
	 width="878.582px" height="841.89px" viewBox="0 0 878.582 841.89" enable-background="new 0 0 878.582 841.89"
	 xml:space="preserve">
<rect y="0" fill="none" width="878.582" height="841.89"/>
<rect x="183.41" y="465.828" fill="#FFFFFF" width="31.931" height="118.783"/>
<rect x="183.41" y="465.828" fill="none" stroke="#000000" stroke-width="1.5" stroke-linecap="round" stroke-linejoin="round" stroke-miterlimit="22.926" width="31.931" height="118.783"/>
<g>
	<defs>
		<rect id="SVGID_1_" y="0" width="878.582" height="841.89"/>
	</defs>
	<clipPath id="SVGID_2_">
		<use xlink:href="#SVGID_1_"  overflow="visible"/>
	</clipPath>
	
		<path clip-path="url(#SVGID_2_)" fill="none" stroke="#000000" stroke-width="1.5" stroke-linecap="round" stroke-linejoin="round" stroke-miterlimit="22.926" d="
		M745.749,499.244c0,0,0.205,5.563-0.312,8.047c12.849-1.504,24.062-5.189,34.698-11.184c0,0,1.81-6.521,2.577-8.898"/>
	
		<rect x="730.881" y="499.21" clip-path="url(#SVGID_2_)" fill="none" stroke="#000000" stroke-width="1.5" stroke-linecap="round" stroke-linejoin="round" stroke-miterlimit="22.926" width="9.868" height="6.958"/>
	<rect x="842.307" y="466.25" clip-path="url(#SVGID_2_)" fill="#FFFFFF" width="7.775" height="11.099"/>
	
		<rect x="842.307" y="466.25" clip-path="url(#SVGID_2_)" fill="none" stroke="#000000" stroke-width="1.5" stroke-linecap="round" stroke-linejoin="round" stroke-miterlimit="22.926" width="7.775" height="11.099"/>
	<path clip-path="url(#SVGID_2_)" fill="#FFFFFF" d="M844.915,471.271c0,8.803-11.229,15.938-25.083,15.938
		c-13.853,0-25.084-7.136-25.084-15.938c0-8.802,11.231-15.938,25.084-15.938C833.686,455.334,844.915,462.47,844.915,471.271"/>
	
		<ellipse clip-path="url(#SVGID_2_)" fill="none" stroke="#000000" stroke-width="1.5" stroke-linecap="round" stroke-linejoin="round" stroke-miterlimit="22.926" cx="819.832" cy="471.271" rx="25.083" ry="15.938"/>
	
		<path clip-path="url(#SVGID_2_)" fill="none" stroke="#000000" stroke-width="1.5" stroke-linecap="round" stroke-linejoin="round" stroke-miterlimit="22.926" d="
		M714.322,499.255c0.589-0.095,5.495-0.515,5.239,0.121"/>
	
		<path clip-path="url(#SVGID_2_)" fill="none" stroke="#000000" stroke-width="1.5" stroke-linecap="round" stroke-linejoin="round" stroke-miterlimit="22.926" d="
		M719.562,499.376c-1.507,4.62-3.629,8.376-6.275,12.444c-1.367,2.102-2.925,4.173-5.083,5.448
		c-2.825,1.671-6.294,1.762-9.572,1.575c-3.276-0.185-6.623-0.593-9.8,0.236c0.5-1.767,1.221-3.589,2.693-4.688
		c1.803-1.345,4.266-1.273,6.503-1.035c2.236,0.238,4.615,0.563,6.643-0.409c1.235-0.593,2.208-1.612,3.076-2.672
		c1.38-1.68,2.567-3.509,3.639-5.397c0.545-0.96,1.062-1.938,1.56-2.923c0.429-0.848,0.744-1.99,1.378-2.701"/>
	<path clip-path="url(#SVGID_2_)" fill="#FFFFFF" d="M777.823,452.815c-16.271-13.102-49.682-43.294-137.048-56.651
		c42.324,15.743,52.06,36.326,69.163,55.631L777.823,452.815z"/>
	
		<path clip-path="url(#SVGID_2_)" fill="none" stroke="#000000" stroke-width="1.5" stroke-linecap="round" stroke-linejoin="round" stroke-miterlimit="22.926" d="
		M777.823,452.815c-16.271-13.102-49.682-43.294-137.048-56.651c42.324,15.743,52.06,36.326,69.163,55.631L777.823,452.815z"/>
	<path clip-path="url(#SVGID_2_)" fill="#FFFFFF" d="M689.188,583.595c-16.001,2.327-31.329-0.639-45.993-8.818
		c12.86-25.565,20.855-54.72,26.479-85.625l27.927,5.354C689.543,522.533,687.215,552.38,689.188,583.595"/>
	
		<path clip-path="url(#SVGID_2_)" fill="none" stroke="#000000" stroke-width="1.5" stroke-linecap="round" stroke-linejoin="round" stroke-miterlimit="22.926" d="
		M689.188,583.595c-16.001,2.327-31.329-0.639-45.993-8.818c12.86-25.565,20.855-54.72,26.479-85.625l27.927,5.354
		C689.543,522.533,687.215,552.38,689.188,583.595z"/>
	<rect x="783.452" y="460.771" clip-path="url(#SVGID_2_)" fill="#FFFFFF" width="17.799" height="21.667"/>
	
		<rect x="783.452" y="460.771" clip-path="url(#SVGID_2_)" fill="none" stroke="#000000" stroke-width="1.5" stroke-linecap="round" stroke-linejoin="round" stroke-miterlimit="22.926" width="17.799" height="21.667"/>
	
		<path clip-path="url(#SVGID_2_)" fill="none" stroke="#010101" stroke-width="1.5" stroke-linecap="round" stroke-linejoin="round" stroke-miterlimit="22.926" d="
		M619.233,506.462h-1.138c-0.747,1.291-1.823,2.366-3.114,3.113v1.139h-4.252h-4.252v-1.139c-1.291-0.747-2.367-1.822-3.114-3.113
		h-1.138v-4.252v-4.253h1.138c0.747-1.29,1.823-2.366,3.114-3.113v-1.139h4.252h4.252v1.139c1.291,0.747,2.367,1.823,3.114,3.113
		h1.138v4.253V506.462z"/>
	
		<rect x="606.477" y="465.358" clip-path="url(#SVGID_2_)" fill="none" stroke="#010101" stroke-width="1.5" stroke-linecap="round" stroke-linejoin="round" stroke-miterlimit="22.926" width="8.505" height="17.008"/>
	
		<path clip-path="url(#SVGID_2_)" fill="none" stroke="#010101" stroke-width="1.5" stroke-linecap="round" stroke-linejoin="round" stroke-miterlimit="22.926" d="
		M619.233,449.769h-1.138c-0.747,1.291-1.823,2.367-3.114,3.114v1.138h-4.252h-4.252v-1.138c-1.291-0.747-2.367-1.823-3.114-3.114
		h-1.138v-4.252v-4.252h1.138c0.747-1.291,1.823-2.367,3.114-3.114v-1.138h4.252h4.252v1.138c1.291,0.747,2.367,1.823,3.114,3.114
		h1.138v4.252V449.769z"/>
	
		<line clip-path="url(#SVGID_2_)" fill="none" stroke="#000000" stroke-width="1.5" stroke-linecap="round" stroke-linejoin="round" stroke-miterlimit="22.926" x1="640.095" y1="489.278" x2="640.095" y2="454.021"/>
	
		<line clip-path="url(#SVGID_2_)" fill="none" stroke="#000000" stroke-width="1.5" stroke-linecap="round" stroke-linejoin="round" stroke-miterlimit="22.926" x1="651.095" y1="489.278" x2="651.095" y2="454.021"/>
	
		<path clip-path="url(#SVGID_2_)" fill="none" stroke="#000000" stroke-width="1.5" stroke-linecap="round" stroke-linejoin="round" stroke-miterlimit="22.926" d="
		M663.259,489.943h-34.101v30.69h-22.68c-7.83,0-14.17-6.351-14.17-14.17v-65.891c0-7.83,6.34-14.18,14.17-14.18h22.68v26.7h34.101"
		/>
	
		<line clip-path="url(#SVGID_2_)" fill="none" stroke="#000000" stroke-width="1.5" stroke-linecap="round" stroke-linejoin="round" stroke-miterlimit="22.926" x1="629.158" y1="489.943" x2="629.158" y2="452.357"/>
	<path clip-path="url(#SVGID_2_)" fill="#FFFFFF" d="M794.684,471.682c0,16.801-33.027,30.421-73.768,30.421
		c-40.741,0-73.77-13.62-73.77-30.421c0-16.8,33.028-30.42,73.77-30.42C761.656,441.262,794.684,454.882,794.684,471.682"/>
	
		<ellipse clip-path="url(#SVGID_2_)" fill="none" stroke="#000000" stroke-width="1.5" stroke-linecap="round" stroke-linejoin="round" stroke-miterlimit="22.926" cx="720.915" cy="471.682" rx="73.769" ry="30.421"/>
	<rect x="805.082" y="447.835" clip-path="url(#SVGID_2_)" fill="#FFFFFF" width="3.833" height="48.333"/>
	
		<rect x="805.082" y="447.835" clip-path="url(#SVGID_2_)" fill="none" stroke="#000000" stroke-width="1.5" stroke-linecap="round" stroke-linejoin="round" stroke-miterlimit="22.926" width="3.833" height="48.333"/>
	<rect x="814.082" y="449.239" clip-path="url(#SVGID_2_)" fill="#FFFFFF" width="3.833" height="45.523"/>
	
		<rect x="814.082" y="449.239" clip-path="url(#SVGID_2_)" fill="none" stroke="#000000" stroke-width="1.5" stroke-linecap="round" stroke-linejoin="round" stroke-miterlimit="22.926" width="3.833" height="45.523"/>
	<rect x="823.082" y="451.763" clip-path="url(#SVGID_2_)" fill="#FFFFFF" width="3.833" height="40.477"/>
	
		<rect x="823.082" y="451.763" clip-path="url(#SVGID_2_)" fill="none" stroke="#000000" stroke-width="1.5" stroke-linecap="round" stroke-linejoin="round" stroke-miterlimit="22.926" width="3.833" height="40.477"/>
	<rect x="832.082" y="455.007" clip-path="url(#SVGID_2_)" fill="#FFFFFF" width="3.833" height="33.987"/>
	
		<rect x="832.082" y="455.007" clip-path="url(#SVGID_2_)" fill="none" stroke="#000000" stroke-width="1.5" stroke-linecap="round" stroke-linejoin="round" stroke-miterlimit="22.926" width="3.833" height="33.987"/>
	
		<path clip-path="url(#SVGID_2_)" fill="none" stroke="#000000" stroke-width="1.5" stroke-linecap="round" stroke-linejoin="round" stroke-miterlimit="22.926" d="
		M765.215,447.357c6.554,16.659,7.689,32.83,0,48.205"/>
	
		<circle clip-path="url(#SVGID_2_)" fill="none" stroke="#000000" stroke-width="1.5" stroke-linecap="round" stroke-linejoin="round" stroke-miterlimit="22.926" cx="685.835" cy="471.357" r="14.586"/>
	
		<circle clip-path="url(#SVGID_2_)" fill="none" stroke="#000000" stroke-width="1.5" stroke-linecap="round" stroke-linejoin="round" stroke-miterlimit="22.926" cx="685.834" cy="471.357" r="9.897"/>
	
		<line clip-path="url(#SVGID_2_)" fill="none" stroke="#000000" stroke-width="1.5" stroke-linecap="round" stroke-linejoin="round" stroke-miterlimit="22.926" x1="696.547" y1="481.255" x2="769.215" y2="481.255"/>
	
		<line clip-path="url(#SVGID_2_)" fill="none" stroke="#000000" stroke-width="1.5" stroke-linecap="round" stroke-linejoin="round" stroke-miterlimit="22.926" x1="697.053" y1="462.034" x2="769.215" y2="462.034"/>
	
		<path clip-path="url(#SVGID_2_)" fill="none" stroke="#000000" stroke-width="1.5" stroke-linecap="round" stroke-linejoin="round" stroke-miterlimit="22.926" d="
		M646.772,568.023c13.306,5.576,27.262,8.049,41.575,8.488c-0.148,0.506,0.891,1.389,0.728,1.786"/>
	
		<circle clip-path="url(#SVGID_2_)" fill="none" stroke="#000000" stroke-width="1.5" stroke-linecap="round" stroke-linejoin="round" stroke-miterlimit="22.926" cx="678.398" cy="514.267" r="6.317"/>
	<polygon clip-path="url(#SVGID_2_)" fill="#FFFFFF" points="685.835,458.043 689.763,466.002 698.546,467.277 692.189,473.473 
		693.69,482.221 685.835,478.091 677.979,482.221 679.479,473.473 673.124,467.277 681.907,466.002 	"/>
	
		<polygon clip-path="url(#SVGID_2_)" fill="none" stroke="#000000" stroke-width="1.5" stroke-linecap="round" stroke-linejoin="round" stroke-miterlimit="22.926" points="
		685.835,458.043 689.763,466.002 698.546,467.277 692.189,473.473 693.69,482.221 685.835,478.091 677.979,482.221 
		679.479,473.473 673.124,467.277 681.907,466.002 	"/>
	
		<path clip-path="url(#SVGID_2_)" fill="none" stroke="#000000" stroke-width="1.5" stroke-linecap="round" stroke-linejoin="round" stroke-miterlimit="22.926" d="
		M370.749,698.001c-0.285,3.076-3.623,7.831-2.996,11.497c0.457,2.677,4.615,6.759,8.032,4.526c2.521-1.646,0.461-3.924,1.44-6.048
		c1.192-2.588,4.718-3.405,5.937-5.976c2.946-6.212-2.8-7.496-6.526-8.487c-2.16-0.574-4.481-3.548-6.871-1.412
		c-3.119,2.789,1.934,5.022,0.484,7.899"/>
	
		<path clip-path="url(#SVGID_2_)" fill="none" stroke="#000000" stroke-width="1.5" stroke-linecap="round" stroke-linejoin="round" stroke-miterlimit="22.926" d="
		M410.249,662.501c-4.893,4.487-1.71,6.928,0.011,11.477c2.062,5.45-1.06,8.169-0.91,13.061c0.226,7.358,15.912,10.518,12.899-1.312
		c-1.058-4.151-1.679-4.688,0.245-8.773c1.145-2.432,4.467-4.985,2.466-7.451c-2.792-3.443-4.57,1.007-6.215-3.953
		c-0.842-2.538,0.986-5.585-1.18-7.822c-1.324-1.367-5.417-2.096-6.951-0.375C408.206,660.054,413.056,663.432,410.249,662.501z"/>
	
		<path clip-path="url(#SVGID_2_)" fill="none" stroke="#000000" stroke-width="1.5" stroke-linecap="round" stroke-linejoin="round" stroke-miterlimit="22.926" d="
		M394.945,660.181c0.192,1.238,0.182,2.395-1.298,3.831c-2.498,2.427-5.639,1.661-7.421-0.257c-0.482-0.52,0.16-3.02-0.247-3.792
		c-0.541-1.024-2.604-1.461-3.003-2.464c-1.503-3.782,0.594-8.072,6.196-9.436c1.535-1.65,3.349-2.635,6.577-1.186
		c6.343,2.848-0.298,5.569-1.026,10.124C394.528,658.221,394.797,659.226,394.945,660.181z"/>
	
		<path clip-path="url(#SVGID_2_)" fill="none" stroke="#000000" stroke-width="1.5" stroke-linecap="round" stroke-linejoin="round" stroke-miterlimit="22.926" d="
		M397.238,688.371c-1.276,1.506-3.169,2.007-5.013,0.552c-2.474-1.951-1.525-7.561-1.469-10.298
		c4.095-1.381,9.304,3.661,7.454,8.125C397.955,687.365,397.625,687.914,397.238,688.371z"/>
	
		<path clip-path="url(#SVGID_2_)" fill="none" stroke="#000000" stroke-width="1.5" stroke-linecap="round" stroke-linejoin="round" stroke-miterlimit="22.926" d="
		M371.749,681.001c2.442,2.722,5.725,8.031,9.769,4.755c1.485-1.204,3.799-8.392,2.63-10.155c-1.93-2.912-5.235,0.632-6.899,1.4
		c-3.011,1.391-6.804,0.374-4.5,6"/>
	
		<path clip-path="url(#SVGID_2_)" fill="none" stroke="#000000" stroke-width="1.5" stroke-linecap="round" stroke-linejoin="round" stroke-miterlimit="22.926" d="
		M396.749,703.501c-1.784,5.404-10.504,17.719,0.5,18.51c3.271,0.235,5.843-2.119,9.189-1.764c2.945,0.312,4.544,2.969,7.854,2.026
		c2.488-0.709,7.022-5.866,5.994-8.796c-0.969-2.764-4.665-1.835-7.009-3.088c-5.128-2.741-3.704-8.465-8.717-10.95
		C395.978,695.186,397.065,703.385,396.749,703.501z"/>
	
		<path clip-path="url(#SVGID_2_)" fill="none" stroke="#000000" stroke-width="1.5" stroke-linecap="round" stroke-linejoin="round" stroke-miterlimit="22.926" d="
		M370.749,730.001c0.639-0.092,3.426,8.807,6.124,11.023c2.56,2.105,5.769,4.378,8.286,1.375c1.186-1.415-0.037-3.387,0.578-4.787
		c0.803-1.824,1.517-1.768,2.54-3.234c1.398-2.007,4.392-2.653,2.726-5.882c-1.016-1.971-4.09-2.237-6.24-1.907
		c-4.992,0.767-2.439,2.15-7.269-0.357C368.872,721.757,370.883,726.543,370.749,730.001z"/>
	
		<path clip-path="url(#SVGID_2_)" fill="none" stroke="#000000" stroke-width="1.5" stroke-linecap="round" stroke-linejoin="round" stroke-miterlimit="22.926" d="
		M396.249,745.001c2.326,8.518,11.314,13.66,19.256,8.97c3.354-1.979,6.153-5.554,10.309-7.199c3.423-1.354,7.569,0.258,4.75-5.972
		c-3.37-7.449-9.76-1.47-14.803-0.399c-5.877,1.249-8.163-4.153-13.719-3.649C392.946,737.576,397.517,743.724,396.249,745.001z"/>
	
		<path clip-path="url(#SVGID_2_)" fill="none" stroke="#000000" stroke-width="1.5" stroke-linecap="round" stroke-linejoin="round" stroke-miterlimit="22.926" d="
		M408.042,116.687c0.329-3.195-1.532-5.803-4.633-6.558c-3.219-0.784-5.235,0.475-6.69,2.533c-1.669,2.142-0.131,7.352,1.919,8.662
		c3.385,2.162,8.053,0.767,9.179-3.428C407.927,117.486,408,117.083,408.042,116.687z"/>
	
		<path clip-path="url(#SVGID_2_)" fill="none" stroke="#000000" stroke-width="1.5" stroke-linecap="round" stroke-linejoin="round" stroke-miterlimit="22.926" d="
		M362.331,171.275c0.018-0.131,0.041-0.264,0.068-0.399c0.781-3.86,2.188-8.718,3.525-12.475c2.002-5.627,3.912-10.963,6.673-16.284
		c2.858-5.507,6.249-12.427,11.101-16.483c3.34-2.791,12.147-2.496,9.315,3.423c-1.081,2.26-4.318,3.126-5.846,5.26
		c-2.218,3.096-4.206,6.893-5.993,10.259c-4.343,8.185-6.119,16.671-8.666,25.426c-0.886,3.041-1.812,5.804-5.335,5.999
		C364.02,176.173,361.893,174.402,362.331,171.275z"/>
	
		<path clip-path="url(#SVGID_2_)" fill="none" stroke="#010101" stroke-width="1.5" stroke-linecap="round" stroke-linejoin="round" stroke-miterlimit="22.926" d="
		M259.759,499.462h1.138c0.747,1.291,1.823,2.366,3.114,3.113v1.139h4.252h4.252v-1.139c1.291-0.747,2.367-1.822,3.114-3.113h1.138
		v-4.252v-4.253h-1.138c-0.747-1.29-1.823-2.366-3.114-3.113v-1.139h-4.252h-4.252v1.139c-1.291,0.747-2.367,1.823-3.114,3.113
		h-1.138v4.253V499.462z"/>
	
		<rect x="264.011" y="458.358" clip-path="url(#SVGID_2_)" fill="none" stroke="#010101" stroke-width="1.5" stroke-linecap="round" stroke-linejoin="round" stroke-miterlimit="22.926" width="8.504" height="17.008"/>
	
		<path clip-path="url(#SVGID_2_)" fill="none" stroke="#010101" stroke-width="1.5" stroke-linecap="round" stroke-linejoin="round" stroke-miterlimit="22.926" d="
		M259.759,442.769h1.138c0.747,1.291,1.823,2.367,3.114,3.114v1.138h4.252h4.252v-1.138c1.291-0.747,2.367-1.823,3.114-3.114h1.138
		v-4.252v-4.252h-1.138c-0.747-1.291-1.823-2.367-3.114-3.114v-1.138h-4.252h-4.252v1.138c-1.291,0.747-2.367,1.823-3.114,3.114
		h-1.138v4.252V442.769z"/>
	
		<path clip-path="url(#SVGID_2_)" fill="none" stroke="#000000" stroke-width="1.5" stroke-linecap="round" stroke-linejoin="round" stroke-miterlimit="22.926" d="
		M215.734,482.943h34.1v30.69h22.68c7.83,0,14.17-6.351,14.17-14.17v-65.891c0-7.83-6.34-14.18-14.17-14.18h-22.68v26.7h-34.1"/>
	
		<line clip-path="url(#SVGID_2_)" fill="none" stroke="#000000" stroke-width="1.5" stroke-linecap="round" stroke-linejoin="round" stroke-miterlimit="22.926" x1="249.833" y1="482.943" x2="249.833" y2="445.357"/>
	<path clip-path="url(#SVGID_2_)" fill="#FFFFFF" d="M216.167,499.811h-34.829c-2.931,0-5.329-2.398-5.329-5.329
		c0-2.932,2.398-5.329,5.329-5.329h34.829c2.931,0,5.329,2.397,5.329,5.329C221.496,497.412,219.097,499.811,216.167,499.811"/>
	
		<path clip-path="url(#SVGID_2_)" fill="none" stroke="#000000" stroke-width="1.5" stroke-linecap="round" stroke-linejoin="round" stroke-miterlimit="22.926" d="
		M216.167,499.811h-34.829c-2.931,0-5.329-2.398-5.329-5.329c0-2.932,2.398-5.329,5.329-5.329h34.829
		c2.931,0,5.329,2.397,5.329,5.329C221.496,497.412,219.097,499.811,216.167,499.811z"/>
	<path clip-path="url(#SVGID_2_)" fill="#FFFFFF" d="M216.167,510.304h-34.829c-2.931,0-5.329-2.397-5.329-5.329
		c0-2.931,2.398-5.329,5.329-5.329h34.829c2.931,0,5.329,2.398,5.329,5.329C221.496,507.906,219.097,510.304,216.167,510.304"/>
	
		<path clip-path="url(#SVGID_2_)" fill="none" stroke="#000000" stroke-width="1.5" stroke-linecap="round" stroke-linejoin="round" stroke-miterlimit="22.926" d="
		M216.167,510.304h-34.829c-2.931,0-5.329-2.397-5.329-5.329c0-2.931,2.398-5.329,5.329-5.329h34.829
		c2.931,0,5.329,2.398,5.329,5.329C221.496,507.906,219.097,510.304,216.167,510.304z"/>
	<path clip-path="url(#SVGID_2_)" fill="#FFFFFF" d="M218.791,544.766h-40.077c-1.488,0-2.705-1.217-2.705-2.705
		c0-1.487,1.217-2.704,2.705-2.704h40.077c1.488,0,2.705,1.217,2.705,2.704C221.495,543.549,220.278,544.766,218.791,544.766"/>
	
		<path clip-path="url(#SVGID_2_)" fill="none" stroke="#000000" stroke-width="1.5" stroke-linecap="round" stroke-linejoin="round" stroke-miterlimit="22.926" d="
		M218.791,544.766h-40.077c-1.488,0-2.705-1.217-2.705-2.705c0-1.487,1.217-2.704,2.705-2.704h40.077
		c1.488,0,2.705,1.217,2.705,2.704C221.495,543.549,220.278,544.766,218.791,544.766z"/>
	<path clip-path="url(#SVGID_2_)" fill="#FFFFFF" d="M218.791,570.541h-40.077c-1.488,0-2.705-1.217-2.705-2.705
		s1.217-2.705,2.705-2.705h40.077c1.488,0,2.705,1.217,2.705,2.705S220.278,570.541,218.791,570.541"/>
	
		<path clip-path="url(#SVGID_2_)" fill="none" stroke="#000000" stroke-width="1.5" stroke-linecap="round" stroke-linejoin="round" stroke-miterlimit="22.926" d="
		M218.791,570.541h-40.077c-1.488,0-2.705-1.217-2.705-2.705s1.217-2.705,2.705-2.705h40.077c1.488,0,2.705,1.217,2.705,2.705
		S220.278,570.541,218.791,570.541z"/>
	<rect x="186.687" y="584.553" clip-path="url(#SVGID_2_)" width="25.047" height="205.115"/>
	
		<rect x="186.687" y="584.553" clip-path="url(#SVGID_2_)" fill="none" stroke="#000000" stroke-width="1.5" stroke-linecap="round" stroke-linejoin="round" stroke-miterlimit="22.926" width="25.047" height="205.115"/>
	<path clip-path="url(#SVGID_2_)" fill="#FFFFFF" d="M219.052,812.101h-39.646c-1.617,0-2.634-1.457-2.271-3.185l5.702-27.12
		c0.194-0.926,1.283-1.665,2.422-1.665h27.94c1.14,0,2.228,0.739,2.423,1.665l5.701,27.12
		C221.688,810.644,220.67,812.101,219.052,812.101"/>
	
		<path clip-path="url(#SVGID_2_)" fill="none" stroke="#000000" stroke-width="1.5" stroke-linecap="round" stroke-linejoin="round" stroke-miterlimit="22.926" d="
		M219.052,812.101h-39.646c-1.617,0-2.634-1.457-2.271-3.185l5.702-27.12c0.194-0.926,1.283-1.665,2.422-1.665h27.94
		c1.14,0,2.228,0.739,2.423,1.665l5.701,27.12C221.688,810.644,220.67,812.101,219.052,812.101z"/>
	<path clip-path="url(#SVGID_2_)" fill="#FFFFFF" d="M193.249,451.92c0,2.718-2.203,4.921-4.92,4.921
		c-2.717,0-4.919-2.203-4.919-4.921c0-2.717,2.202-4.92,4.919-4.92C191.046,447,193.249,449.203,193.249,451.92"/>
	
		<circle clip-path="url(#SVGID_2_)" fill="none" stroke="#000000" stroke-width="1.5" stroke-linecap="round" stroke-linejoin="round" stroke-miterlimit="22.926" cx="188.329" cy="451.92" r="4.919"/>
	<path clip-path="url(#SVGID_2_)" fill="#FFFFFF" d="M188.329,494.022c0-1.116-1.865-2.021-4.165-2.021
		c-2.301,0-4.165,0.905-4.165,2.021c0,1.115,1.864,2.021,4.165,2.021C186.464,496.043,188.329,495.138,188.329,494.022"/>
	
		<ellipse clip-path="url(#SVGID_2_)" fill="none" stroke="#000000" stroke-width="1.5" stroke-linecap="round" stroke-linejoin="round" stroke-miterlimit="22.926" cx="184.164" cy="494.022" rx="4.165" ry="2.021"/>
	<path clip-path="url(#SVGID_2_)" fill="#FFFFFF" d="M189.499,504.251c0-1.105-2.239-2-5-2c-2.761,0-5,0.895-5,2
		c0,1.104,2.239,2,5,2C187.26,506.251,189.499,505.355,189.499,504.251"/>
	
		<ellipse clip-path="url(#SVGID_2_)" fill="none" stroke="#000000" stroke-width="1.5" stroke-linecap="round" stroke-linejoin="round" stroke-miterlimit="22.926" cx="184.499" cy="504.251" rx="5" ry="2"/>
	<path clip-path="url(#SVGID_2_)" fill="#FFFFFF" d="M189.467,513.634L189.467,513.634c-1.53,0-2.781,1.252-2.781,2.781v16.555
		c0,1.53,1.251,2.781,2.781,2.781c1.53,0,2.781-1.251,2.781-2.781v-16.555C192.249,514.886,190.998,513.634,189.467,513.634"/>
	
		<path clip-path="url(#SVGID_2_)" fill="none" stroke="#000000" stroke-width="1.5" stroke-linecap="round" stroke-linejoin="round" stroke-miterlimit="22.926" d="
		M189.467,513.634L189.467,513.634c-1.53,0-2.781,1.252-2.781,2.781v16.555c0,1.53,1.251,2.781,2.781,2.781
		c1.53,0,2.781-1.251,2.781-2.781v-16.555C192.249,514.886,190.998,513.634,189.467,513.634z"/>
	<path clip-path="url(#SVGID_2_)" fill="#FFFFFF" d="M189.467,546.501L189.467,546.501c-1.53,0-2.781,1.252-2.781,2.781v10.938
		c0,1.529,1.251,2.781,2.781,2.781c1.53,0,2.781-1.252,2.781-2.781v-10.938C192.249,547.753,190.998,546.501,189.467,546.501"/>
	
		<path clip-path="url(#SVGID_2_)" fill="none" stroke="#000000" stroke-width="1.5" stroke-linecap="round" stroke-linejoin="round" stroke-miterlimit="22.926" d="
		M189.467,546.501L189.467,546.501c-1.53,0-2.781,1.252-2.781,2.781v10.938c0,1.529,1.251,2.781,2.781,2.781
		c1.53,0,2.781-1.252,2.781-2.781v-10.938C192.249,547.753,190.998,546.501,189.467,546.501z"/>
	<path clip-path="url(#SVGID_2_)" fill="#FFFFFF" d="M188.842,573.001L188.842,573.001c-1.186,0-2.156,0.97-2.156,2.156v3.688
		c0,1.187,0.97,2.156,2.156,2.156s2.156-0.97,2.156-2.156v-3.688C190.999,573.971,190.028,573.001,188.842,573.001"/>
	
		<path clip-path="url(#SVGID_2_)" fill="none" stroke="#000000" stroke-width="1.5" stroke-linecap="round" stroke-linejoin="round" stroke-miterlimit="22.926" d="
		M188.842,573.001L188.842,573.001c-1.186,0-2.156,0.97-2.156,2.156v3.688c0,1.187,0.97,2.156,2.156,2.156s2.156-0.97,2.156-2.156
		v-3.688C190.999,573.971,190.028,573.001,188.842,573.001z"/>
	<g clip-path="url(#SVGID_2_)">
		<defs>
			<rect id="SVGID_3_" x="167.653" y="399.368" width="63.864" height="86.253"/>
		</defs>
		<clipPath id="SVGID_4_">
			<use xlink:href="#SVGID_3_"  overflow="visible"/>
		</clipPath>
		<path clip-path="url(#SVGID_4_)" fill="#FFFFFF" d="M174.537,441.408c-12.059-16.535-7.601-40.916,24.643-41.294
			c32.277-0.055,37.862,25.876,25.575,40.229c0.79,7.628,0.812,14.051-5.062,15.718c-2.397,10.079-1.499,16.429-2.931,19.715
			c-6.702,11.84-27.623,12.377-34.234,0.133c-1.525-3.843-0.231-10.133-3.194-20.424
			C175.239,453.91,174.021,449.013,174.537,441.408 M174.537,420.628c-1.641,3.798-0.854,6.227,0.692,10.271
			c0.966,2.509-0.206,7.534-0.692,10.51 M225.155,420.628c1.146,2.405,0.934,4.808-0.653,9.697
			c-1.081,2.842,0.009,7.176,0.253,10.018 M187.614,463.107c-0.982-3.283-4.898-6.565-8.279-7.623 M211.932,462.933
			c1.55-3.914,3.649-6.714,7.761-6.872"/>
		
			<path clip-path="url(#SVGID_4_)" fill="none" stroke="#000000" stroke-width="1.4919" stroke-linecap="round" stroke-linejoin="round" d="
			M174.537,441.408c-12.059-16.535-7.601-40.916,24.643-41.294c32.277-0.055,37.862,25.876,25.575,40.229
			c0.79,7.628,0.812,14.051-5.062,15.718c-2.397,10.079-1.499,16.429-2.931,19.715c-6.702,11.84-27.623,12.377-34.234,0.133
			c-1.525-3.843-0.231-10.133-3.194-20.424C175.239,453.91,174.021,449.013,174.537,441.408z M174.537,420.628
			c-1.641,3.798-0.854,6.227,0.692,10.271c0.966,2.509-0.206,7.534-0.692,10.51 M225.155,420.628
			c1.146,2.405,0.934,4.808-0.653,9.697c-1.081,2.842,0.009,7.176,0.253,10.018 M187.614,463.107
			c-0.982-3.283-4.898-6.565-8.279-7.623 M211.932,462.933c1.55-3.914,3.649-6.714,7.761-6.872"/>
		
			<path clip-path="url(#SVGID_4_)" fill="none" stroke="#000000" stroke-width="0.7459" stroke-linecap="round" stroke-linejoin="round" d="
			M182.529,456.78c1.959,4.469,3.007,9.302,3.73,14.266c4.489,5.683,19.964,7.359,26.574-0.279
			c0.448-4.747,2.111-9.359,3.637-13.986l-4.538,6.152c-0.532,3.845-23.622,3.599-24.318,0.175L182.529,456.78z M188.45,472.817
			v-8.578 M191.107,474.403l0.093-9.418 M193.951,475.056l0.047-9.604 M196.749,475.568c0-0.187,0.046-9.884,0.046-9.884
			 M199.639,475.895l-0.047-10.116 M202.53,475.521l-0.047-9.79 M205.187,475.103l-0.093-9.651 M208.217,473.983l-0.14-8.905
			 M210.875,472.445l-0.093-8.253 M210.688,468.389c-7.606,3.313-14.368,3.549-22.192,0"/>
		<path clip-path="url(#SVGID_4_)" d="M179.662,437.362c-0.531,1.951-0.167,4.445,0.536,6.644c0.88,2.756,2.881,4.392,6.248,4.662
			c3.888,0.098,6.365-2.156,8.019-5.781c0.458-1.094,0.745-2.923,0.28-4.942c-0.273-1.027-1.564-2.552-2.82-3.333
			C189.625,433.232,180.552,434.014,179.662,437.362 M219.807,437.113c0.53,1.951,0.167,4.445-0.536,6.644
			c-0.88,2.756-2.881,4.392-6.248,4.662c-3.888,0.098-6.365-2.156-8.019-5.781c-0.458-1.094-0.744-2.923-0.28-4.942
			c0.273-1.027,1.564-2.552,2.821-3.333C209.843,432.983,218.917,433.765,219.807,437.113 M198.707,446.15v11.003
			c-1.627,2.475-2.197,2.661-3.124,2.61c-1.221,0.004-2.044-1.821-1.818-3.916C194.363,449.208,196.377,447.841,198.707,446.15
			 M200.366,446.193v11.003c1.627,2.475,2.197,2.662,3.124,2.61c1.221,0.005,2.044-1.821,1.818-3.916
			C204.71,449.252,202.696,447.885,200.366,446.193"/>
	</g>
	
		<path clip-path="url(#SVGID_2_)" fill="none" stroke="#010101" stroke-width="1.5" stroke-linecap="round" stroke-linejoin="round" stroke-miterlimit="22.926" d="
		M501.796,625.237h-1.138c-0.747,1.291-1.823,2.367-3.114,3.114v1.138h-4.252h-4.252v-1.138c-1.29-0.747-2.367-1.823-3.114-3.114
		h-1.138v-4.252v-4.252h1.138c0.747-1.29,1.824-2.367,3.114-3.114v-1.138h4.252h4.252v1.138c1.291,0.747,2.367,1.824,3.114,3.114
		h1.138v4.252V625.237z"/>
	
		<rect x="456.442" y="616.733" clip-path="url(#SVGID_2_)" fill="none" stroke="#010101" stroke-width="1.5" stroke-linecap="round" stroke-linejoin="round" stroke-miterlimit="22.926" width="17.008" height="8.504"/>
	
		<rect x="399.749" y="616.733" clip-path="url(#SVGID_2_)" fill="none" stroke="#010101" stroke-width="1.5" stroke-linecap="round" stroke-linejoin="round" stroke-miterlimit="22.926" width="17.008" height="8.504"/>
	
		<path clip-path="url(#SVGID_2_)" fill="none" stroke="#010101" stroke-width="1.5" stroke-linecap="round" stroke-linejoin="round" stroke-miterlimit="22.926" d="
		M388.41,625.237h-1.138c-0.747,1.291-1.823,2.367-3.114,3.114v1.138h-4.252h-4.252v-1.138c-1.29-0.747-2.367-1.823-3.114-3.114
		h-1.138v-4.252v-4.252h1.138c0.747-1.29,1.824-2.367,3.114-3.114v-1.138h4.252h4.252v1.138c1.291,0.747,2.367,1.824,3.114,3.114
		h1.138v4.252V625.237z"/>
	
		<path clip-path="url(#SVGID_2_)" fill="none" stroke="#010101" stroke-width="1.5" stroke-linecap="round" stroke-linejoin="round" stroke-miterlimit="22.926" d="
		M445.104,625.237h-1.139c-0.747,1.291-1.823,2.367-3.113,3.114v1.138h-4.252h-4.252v-1.138c-1.29-0.747-2.367-1.823-3.114-3.114
		h-1.138v-4.252v-4.252h1.138c0.747-1.29,1.824-2.367,3.114-3.114v-1.138h4.252h4.252v1.138c1.29,0.747,2.366,1.824,3.113,3.114
		h1.139v4.252V625.237z"/>
	
		<line clip-path="url(#SVGID_2_)" fill="none" stroke="#231F20" stroke-width="1.5" stroke-linecap="round" stroke-linejoin="round" stroke-miterlimit="22.926" x1="415.028" y1="639.402" x2="459.168" y2="639.402"/>
	
		<line clip-path="url(#SVGID_2_)" fill="none" stroke="#231F20" stroke-width="1.5" stroke-linecap="round" stroke-linejoin="round" stroke-miterlimit="22.926" x1="378.174" y1="639.407" x2="415.024" y2="639.407"/>
	
		<line clip-path="url(#SVGID_2_)" fill="none" stroke="#231F20" stroke-width="1.5" stroke-linecap="round" stroke-linejoin="round" stroke-miterlimit="22.926" x1="459.164" y1="639.407" x2="495.805" y2="639.407"/>
	
		<path clip-path="url(#SVGID_2_)" fill="none" stroke="#010101" stroke-width="1.5" stroke-linecap="round" stroke-linejoin="round" stroke-miterlimit="22.926" d="
		M370.073,339.705h1.138c0.747-1.291,1.823-2.367,3.114-3.114v-1.138h4.252h4.252v1.138c1.291,0.747,2.367,1.823,3.114,3.114h1.138
		v4.252v4.252h-1.138c-0.747,1.291-1.823,2.367-3.114,3.114v1.138h-4.252h-4.252v-1.138c-1.291-0.747-2.367-1.823-3.114-3.114
		h-1.138v-4.252V339.705z"/>
	
		<rect x="398.42" y="339.705" clip-path="url(#SVGID_2_)" fill="none" stroke="#010101" stroke-width="1.5" stroke-linecap="round" stroke-linejoin="round" stroke-miterlimit="22.926" width="17.008" height="8.504"/>
	
		<rect x="455.113" y="339.705" clip-path="url(#SVGID_2_)" fill="none" stroke="#010101" stroke-width="1.5" stroke-linecap="round" stroke-linejoin="round" stroke-miterlimit="22.926" width="17.008" height="8.504"/>
	
		<path clip-path="url(#SVGID_2_)" fill="none" stroke="#010101" stroke-width="1.5" stroke-linecap="round" stroke-linejoin="round" stroke-miterlimit="22.926" d="
		M483.459,339.705h1.139c0.746-1.291,1.822-2.367,3.113-3.114v-1.138h4.252h4.252v1.138c1.29,0.747,2.367,1.823,3.114,3.114h1.138
		v4.252v4.252h-1.138c-0.747,1.291-1.824,2.367-3.114,3.114v1.138h-4.252h-4.252v-1.138c-1.291-0.747-2.367-1.823-3.113-3.114
		h-1.139v-4.252V339.705z"/>
	
		<path clip-path="url(#SVGID_2_)" fill="none" stroke="#010101" stroke-width="1.5" stroke-linecap="round" stroke-linejoin="round" stroke-miterlimit="22.926" d="
		M453.695,309.559v15.973h56.693v22.677c0,7.826-6.348,14.173-14.173,14.173H374.325c-7.826,0-14.173-6.347-14.173-14.173v-22.677
		h56.693v-15.973"/>
	
		<path clip-path="url(#SVGID_2_)" fill="none" stroke="#010101" stroke-width="1.5" stroke-linecap="round" stroke-linejoin="round" stroke-miterlimit="22.926" d="
		M426.766,339.705h1.138c0.747-1.291,1.823-2.367,3.114-3.114v-1.138h4.252h4.252v1.138c1.292,0.747,2.368,1.823,3.114,3.114h1.139
		v4.252v4.252h-1.139c-0.746,1.291-1.822,2.367-3.114,3.114v1.138h-4.252h-4.252v-1.138c-1.291-0.747-2.367-1.823-3.114-3.114
		h-1.138v-4.252V339.705z"/>
	
		<path clip-path="url(#SVGID_2_)" fill="none" stroke="#231F20" stroke-width="1.5" stroke-linecap="round" stroke-linejoin="round" stroke-miterlimit="22.926" d="
		M361.488,622.81v16.592h16.69c0,0,0,13.021,0.009,15.259c-1.682,16.208-16.006,30.222-20.52,45.878
		c-5.423,18.811-4.552,37.702,5.411,54.586c13.837,23.452,42.726,37.633,69.117,30.897c10.153-2.591,18.857-7.22,28.066-12.033
		c16.172-8.455,33.317-15.735,51.955-16.024c13.67-0.213,24.305,6.129,36.032,12.062c8.495,4.299,18.648,7.81,27.608,11.091
		c9.62,3.522,19.867,6.569,30.033,7.892c26.835,3.49,51.564-12.015,78.578-13.053c26.235-1.007,58.723,20.87,82.85,6.221
		c1.122-0.479,2.21-1.028,3.238-1.697c-3.595-1.06-7.594-0.508-11.37-1.555c-7.309-2.025-14.089-5.611-20.589-9.428
		c-13.525-7.943-24.957-19.196-37.459-28.617c-19.936-15.025-47.907-26.906-71.895-13.415
		c-12.095,6.803-21.555,13.897-36.089,10.449c-12.654-3.002-20.824-11.312-29.227-20.598c-7.091-7.837-13.922-17.584-24.221-21.34
		c-7.249-2.644-16.261-2.308-22.981-6.161c-7.735-4.435-13.498-5.275-16.515-13.414c-2.818-7.605-4.403-21.553-4.403-29.901v-7.099
		h15.909v-22.669c0-7.831-6.34-14.18-14.17-14.18h-121.89c-7.83,0-14.17,6.349-14.17,14.18V622.81z"/>
	
		<path clip-path="url(#SVGID_2_)" fill="none" stroke="#231F20" stroke-width="1.5" stroke-linecap="round" stroke-linejoin="round" stroke-miterlimit="22.926" d="
		M356.749,736.501c8.617,15.129,25.315,25.843,42.488,27.623c14.739,1.526,28.099-6.153,41.25-11.373
		c17.625-6.995,33.675-14.4,53.052-15.65c16.694-1.077,32.09,4.119,47.515,9.895c28.473,10.661,54.753,30.41,86.707,25.989
		c11.755-1.626,22.626-7.312,34.231-10.003c12.199-2.827,23.702-1.527,35.466,2.275c14.129,4.568,27.791,9.668,42.376,12.499
		c8.755,1.699,20.915,4.245,30.722,2.724"/>
	
		<path clip-path="url(#SVGID_2_)" fill="none" stroke="#231F20" stroke-width="1.5" stroke-linecap="round" stroke-linejoin="round" stroke-miterlimit="22.926" d="
		M514.186,200.659c-0.796,5.828-1.954,11.623-3.424,17.319c-8.739,33.866-28.66,78.431-62.028,94.309
		c-29.193,13.892-49.083-21.16-63.115-40.247c-4.256-5.789-7.561-11.132-10.818-17.49c-6.431-12.551-13.545-24.082-17.253-37.88
		c-12.505-46.536,0.465-91.314,45.058-114.255c14.519-7.47,31.342-11.01,47.423-8.188c15.258,2.679,29.218,10.967,40.108,21.984
		C512.659,138.997,518.337,170.276,514.186,200.659z"/>
	
		<path clip-path="url(#SVGID_2_)" fill="none" stroke="#010101" stroke-width="1.5" stroke-linecap="round" stroke-linejoin="round" stroke-miterlimit="22.926" d="
		M447.256,290.656L447.256,290.656c0,6.959-5.642,12.6-12.6,12.6h0.022c-6.959,0-12.6-5.641-12.6-12.6"/>
	<g clip-path="url(#SVGID_2_)">
		<defs>
			<rect id="SVGID_5_" x="362.792" y="194.152" width="64.412" height="81.329"/>
		</defs>
		<clipPath id="SVGID_6_">
			<use xlink:href="#SVGID_5_"  overflow="visible"/>
		</clipPath>
		<path clip-path="url(#SVGID_6_)" fill="#FFFFFF" d="M402.29,212.745c-6.16-6.851-15.087-13.679-23.878-16.592
			c-14.582-4.833-15.765,5.071-14.477,17.184c0.766,7.21,2.289,14.54,4.69,21.462c6.594,19.007,24.203,38.919,45.436,39.85
			c5.882,0.258,10.118,0.19,11.855-4.613c1.336-3.692-0.151-10.006-0.834-13.707C422.158,240.478,412.96,224.612,402.29,212.745"/>
		
			<path clip-path="url(#SVGID_6_)" fill="none" stroke="#000000" stroke-width="1.5" stroke-linecap="round" stroke-linejoin="round" stroke-miterlimit="22.926" d="
			M402.29,212.745c-6.16-6.851-15.087-13.679-23.878-16.592c-14.582-4.833-15.765,5.071-14.477,17.184
			c0.766,7.21,2.289,14.54,4.69,21.462c6.594,19.007,24.203,38.919,45.436,39.85c5.882,0.258,10.118,0.19,11.855-4.613
			c1.336-3.692-0.151-10.006-0.834-13.707C422.158,240.478,412.96,224.612,402.29,212.745z"/>
		<path clip-path="url(#SVGID_6_)" d="M396.127,239.723c0.108,1.506,0.596,3.073,1.204,4.35c0.845,1.773,2.048,3.39,3.421,4.757
			c2.086,2.076,5.438,5.692,8.505,3.133c1.627-1.357,1.429-3.673,0.973-5.535c-0.84-3.429-2.825-6.861-5.67-8.946
			c-2.453-1.797-7.55-4.211-8.36,0.463C396.102,238.512,396.083,239.112,396.127,239.723"/>
		
			<path clip-path="url(#SVGID_6_)" fill="none" stroke="#000000" stroke-width="1.5" stroke-linecap="round" stroke-linejoin="round" stroke-miterlimit="22.926" d="
			M396.127,239.723c0.108,1.506,0.596,3.073,1.204,4.35c0.845,1.773,2.048,3.39,3.421,4.757c2.086,2.076,5.438,5.692,8.505,3.133
			c1.627-1.357,1.429-3.673,0.973-5.535c-0.84-3.429-2.825-6.861-5.67-8.946c-2.453-1.797-7.55-4.211-8.36,0.463
			C396.102,238.512,396.083,239.112,396.127,239.723z"/>
		<path clip-path="url(#SVGID_6_)" fill="#FFFFFF" d="M401.226,241.615c0.211-1.356-0.985-3.396-2.109-3.581
			c-1.686-0.277-1.782,2.365-1.148,3.304c0.468,0.695,1.873,1.814,2.74,1.183C401.006,242.305,401.168,241.985,401.226,241.615"/>
	</g>
	<g clip-path="url(#SVGID_2_)">
		<defs>
			<rect id="SVGID_7_" x="441.792" y="194.152" width="64.411" height="81.329"/>
		</defs>
		<clipPath id="SVGID_8_">
			<use xlink:href="#SVGID_7_"  overflow="visible"/>
		</clipPath>
		<path clip-path="url(#SVGID_8_)" fill="#FFFFFF" d="M466.706,212.745c6.16-6.851,15.087-13.679,23.878-16.592
			c14.582-4.833,15.766,5.071,14.478,17.184c-0.767,7.21-2.289,14.54-4.69,21.462c-6.594,19.007-24.203,38.919-45.436,39.85
			c-5.882,0.258-10.118,0.19-11.855-4.613c-1.336-3.692,0.151-10.006,0.834-13.707C446.838,240.478,456.035,224.612,466.706,212.745
			"/>
		
			<path clip-path="url(#SVGID_8_)" fill="none" stroke="#000000" stroke-width="1.5" stroke-linecap="round" stroke-linejoin="round" stroke-miterlimit="22.926" d="
			M466.706,212.745c6.16-6.851,15.087-13.679,23.878-16.592c14.582-4.833,15.766,5.071,14.478,17.184
			c-0.767,7.21-2.289,14.54-4.69,21.462c-6.594,19.007-24.203,38.919-45.436,39.85c-5.882,0.258-10.118,0.19-11.855-4.613
			c-1.336-3.692,0.151-10.006,0.834-13.707C446.838,240.478,456.035,224.612,466.706,212.745z"/>
		<path clip-path="url(#SVGID_8_)" d="M472.869,239.723c-0.108,1.506-0.597,3.073-1.204,4.35c-0.845,1.773-2.048,3.39-3.421,4.757
			c-2.086,2.076-5.438,5.692-8.505,3.133c-1.628-1.357-1.43-3.673-0.974-5.535c0.84-3.429,2.825-6.861,5.67-8.946
			c2.453-1.797,7.55-4.211,8.36,0.463C472.894,238.512,472.913,239.112,472.869,239.723"/>
		
			<path clip-path="url(#SVGID_8_)" fill="none" stroke="#000000" stroke-width="1.5" stroke-linecap="round" stroke-linejoin="round" stroke-miterlimit="22.926" d="
			M472.869,239.723c-0.108,1.506-0.597,3.073-1.204,4.35c-0.845,1.773-2.048,3.39-3.421,4.757c-2.086,2.076-5.438,5.692-8.505,3.133
			c-1.628-1.357-1.43-3.673-0.974-5.535c0.84-3.429,2.825-6.861,5.67-8.946c2.453-1.797,7.55-4.211,8.36,0.463
			C472.894,238.512,472.913,239.112,472.869,239.723z"/>
		<path clip-path="url(#SVGID_8_)" fill="#FFFFFF" d="M467.77,241.615c-0.211-1.356,0.985-3.396,2.109-3.581
			c1.686-0.277,1.781,2.365,1.147,3.304c-0.468,0.695-1.873,1.814-2.739,1.183C467.989,242.305,467.827,241.985,467.77,241.615"/>
	</g>
</g>
</svg>
