<?xml version="1.0" encoding="utf-8"?>
<!-- Generator: Adobe Illustrator 15.1.0, SVG Export Plug-In . SVG Version: 6.00 Build 0)  -->
<!DOCTYPE svg PUBLIC "-//W3C//DTD SVG 1.1//EN" "http://www.w3.org/Graphics/SVG/1.1/DTD/svg11.dtd">
<svg version="1.1" id="Layer_1" xmlns="http://www.w3.org/2000/svg" xmlns:xlink="http://www.w3.org/1999/xlink" x="0px" y="0px"
	 width="878.582px" height="841.89px" viewBox="0 0 878.582 841.89" enable-background="new 0 0 878.582 841.89"
	 xml:space="preserve">
<path fill="none" stroke="#010101" stroke-width="1.5" stroke-linecap="round" stroke-linejoin="round" stroke-miterlimit="22.926" d="
	M609.158,505.091h-1.139c-0.747,1.291-1.823,2.367-3.113,3.114v1.138h-4.253h-4.252v-1.138c-1.291-0.747-2.366-1.823-3.113-3.114
	h-1.139v-4.252v-4.252h1.139c0.747-1.291,1.822-2.367,3.113-3.114v-1.138h4.252h4.253v1.138c1.29,0.747,2.366,1.823,3.113,3.114
	h1.139v4.252V505.091z"/>
<rect x="596.402" y="463.988" fill="none" stroke="#010101" stroke-width="1.5" stroke-linecap="round" stroke-linejoin="round" stroke-miterlimit="22.926" width="8.504" height="17.009"/>
<path fill="none" stroke="#010101" stroke-width="1.5" stroke-linecap="round" stroke-linejoin="round" stroke-miterlimit="22.926" d="
	M609.158,448.398h-1.139c-0.747,1.291-1.823,2.366-3.113,3.113v1.139h-4.253h-4.252v-1.139c-1.291-0.747-2.366-1.822-3.113-3.113
	h-1.139v-4.252v-4.253h1.139c0.747-1.29,1.822-2.366,3.113-3.113v-1.139h4.252h4.253v1.139c1.29,0.747,2.366,1.823,3.113,3.113
	h1.139v4.253V448.398z"/>
<path fill="none" stroke="#010101" stroke-width="1.5" stroke-linecap="round" stroke-linejoin="round" stroke-miterlimit="22.926" d="
	M361.569,331.841h1.138c0.747-1.291,1.823-2.367,3.114-3.114v-1.138h4.252h4.252v1.138c1.291,0.747,2.367,1.823,3.114,3.114h1.138
	v4.252v4.252h-1.138c-0.747,1.291-1.823,2.367-3.114,3.114v1.138h-4.252h-4.252v-1.138c-1.291-0.747-2.367-1.823-3.114-3.114h-1.138
	v-4.252V331.841z"/>
<rect x="389.916" y="331.842" fill="none" stroke="#010101" stroke-width="1.5" stroke-linecap="round" stroke-linejoin="round" stroke-miterlimit="22.926" width="17.008" height="8.504"/>
<rect x="446.609" y="331.842" fill="none" stroke="#010101" stroke-width="1.5" stroke-linecap="round" stroke-linejoin="round" stroke-miterlimit="22.926" width="17.008" height="8.504"/>
<path fill="none" stroke="#010101" stroke-width="1.5" stroke-linecap="round" stroke-linejoin="round" stroke-miterlimit="22.926" d="
	M474.955,331.841h1.139c0.746-1.291,1.822-2.367,3.113-3.114v-1.138h4.252h4.252v1.138c1.29,0.747,2.367,1.823,3.114,3.114h1.138
	v4.252v4.252h-1.138c-0.747,1.291-1.824,2.367-3.114,3.114v1.138h-4.252h-4.252v-1.138c-1.291-0.747-2.367-1.823-3.113-3.114h-1.139
	v-4.252V331.841z"/>
<path fill="none" stroke="#010101" stroke-width="1.5" stroke-linecap="round" stroke-linejoin="round" stroke-miterlimit="22.926" d="
	M445.191,301.695v15.973h56.693v22.677c0,7.826-6.348,14.173-14.173,14.173H365.821c-7.826,0-14.173-6.347-14.173-14.173v-22.677
	h56.693v-15.973"/>
<path fill="none" stroke="#010101" stroke-width="1.5" stroke-linecap="round" stroke-linejoin="round" stroke-miterlimit="22.926" d="
	M418.262,331.841h1.138c0.747-1.291,1.823-2.367,3.114-3.114v-1.138h4.252h4.252v1.138c1.291,0.747,2.367,1.823,3.114,3.114h1.138
	v4.252v4.252h-1.138c-0.747,1.291-1.823,2.367-3.114,3.114v1.138h-4.252h-4.252v-1.138c-1.291-0.747-2.367-1.823-3.114-3.114h-1.138
	v-4.252V331.841z"/>
<path fill="#FFFFFF" d="M513.484,190.119H338.267c-5.005,0-9.1,4.095-9.1,9.1v95.29c0,5.005,4.095,9.1,9.1,9.1h175.218
	c5.005,0,9.101-4.095,9.101-9.1v-95.29C522.585,194.214,518.489,190.119,513.484,190.119"/>
<path fill="none" stroke="#000000" stroke-width="1.5" stroke-linecap="round" stroke-linejoin="round" stroke-miterlimit="22.926" d="
	M513.484,190.119H338.267c-5.005,0-9.1,4.095-9.1,9.1v95.29c0,5.005,4.095,9.1,9.1,9.1h175.218c5.005,0,9.101-4.095,9.101-9.1
	v-95.29C522.585,194.214,518.489,190.119,513.484,190.119z"/>
<path d="M390.167,251.634c-2.985,2.139-6.979,0.028-7.571-3.463c-0.769-4.525,5.567-7.035,8.476-3.66
	C392.825,246.547,392.368,250.057,390.167,251.634"/>
<path fill="none" stroke="#000000" stroke-miterlimit="10" d="M390.167,251.634c-2.985,2.139-6.979,0.028-7.571-3.463
	c-0.769-4.525,5.567-7.035,8.476-3.66C392.825,246.547,392.368,250.057,390.167,251.634z"/>
<path fill="#FFFFFF" d="M387.309,245.971c-0.186-0.671-0.88-1.178-1.798-0.926c-1.854,0.509-1.219,3.236,0.708,2.865
	C387.095,247.74,387.521,246.735,387.309,245.971"/>
<path d="M470.818,249.035c-0.525,1.557-1.705,2.894-3.306,3.319c-3.491,0.928-7.397-2.906-6.053-6.474
	c1.091-3.656,6.522-4.341,8.739-1.487C471.214,245.7,471.343,247.478,470.818,249.035"/>
<path fill="none" stroke="#000000" stroke-miterlimit="10" d="M470.818,249.035c-0.525,1.557-1.705,2.894-3.306,3.319
	c-3.491,0.928-7.397-2.906-6.053-6.474c1.091-3.656,6.522-4.341,8.739-1.487C471.214,245.7,471.343,247.478,470.818,249.035z"/>
<path fill="#FFFFFF" d="M464.078,245.141c0.492-0.37,1.192-0.478,1.719-0.127c0.726,0.483,0.822,1.581,0.228,2.207
	c-0.46,0.484-1.269,0.588-1.836,0.237c-0.378-0.234-0.622-0.654-0.677-1.091C463.45,245.865,463.678,245.442,464.078,245.141"/>
<circle fill="none" stroke="#010101" stroke-width="1.5" stroke-linecap="round" stroke-linejoin="round" stroke-miterlimit="22.926" cx="386.002" cy="245.479" r="30.094"/>
<circle fill="none" stroke="#010101" stroke-width="1.5" stroke-linecap="round" stroke-linejoin="round" stroke-miterlimit="22.926" cx="466.154" cy="245.479" r="30.094"/>
<path fill="none" stroke="#010101" stroke-width="1.5" stroke-linecap="round" stroke-linejoin="round" stroke-miterlimit="22.926" d="
	M438.256,275.656L438.256,275.656c0,6.959-5.641,12.6-12.6,12.6h0.022c-6.959,0-12.6-5.641-12.6-12.6"/>
<path fill="none" stroke="#010101" stroke-width="1.5" stroke-linecap="round" stroke-linejoin="round" stroke-miterlimit="22.926" d="
	M500.118,620.296h-1.139c-0.747,1.291-1.822,2.367-3.113,3.114v1.138h-4.252h-4.252v-1.138c-1.29-0.747-2.367-1.823-3.114-3.114
	h-1.139v-4.252v-4.252h1.139c0.747-1.29,1.824-2.367,3.114-3.114v-1.138h4.252h4.252v1.138c1.291,0.747,2.366,1.824,3.113,3.114
	h1.139v4.252V620.296z"/>
<rect x="454.763" y="611.792" fill="none" stroke="#010101" stroke-width="1.5" stroke-linecap="round" stroke-linejoin="round" stroke-miterlimit="22.926" width="17.009" height="8.504"/>
<rect x="398.071" y="611.792" fill="none" stroke="#010101" stroke-width="1.5" stroke-linecap="round" stroke-linejoin="round" stroke-miterlimit="22.926" width="17.008" height="8.504"/>
<path fill="none" stroke="#010101" stroke-width="1.5" stroke-linecap="round" stroke-linejoin="round" stroke-miterlimit="22.926" d="
	M386.732,620.296h-1.138c-0.747,1.291-1.823,2.367-3.114,3.114v1.138h-4.252h-4.252v-1.138c-1.29-0.747-2.367-1.823-3.114-3.114
	h-1.138v-4.252v-4.252h1.138c0.747-1.29,1.824-2.367,3.114-3.114v-1.138h4.252h4.252v1.138c1.291,0.747,2.367,1.824,3.114,3.114
	h1.138v4.252V620.296z"/>
<path fill="none" stroke="#010101" stroke-width="1.5" stroke-linecap="round" stroke-linejoin="round" stroke-miterlimit="22.926" d="
	M443.425,620.296h-1.138c-0.747,1.291-1.823,2.367-3.114,3.114v1.138h-4.252h-4.252v-1.138c-1.29-0.747-2.367-1.823-3.114-3.114
	h-1.138v-4.252v-4.252h1.138c0.747-1.29,1.824-2.367,3.114-3.114v-1.138h4.252h4.252v1.138c1.291,0.747,2.367,1.824,3.114,3.114
	h1.138v4.252V620.296z"/>
<path fill="none" stroke="#231F20" stroke-width="1.5" stroke-linecap="round" stroke-linejoin="round" stroke-miterlimit="22.926" d="
	M494.13,649.721v-15.26h15.91v-22.67c0-7.83-6.34-14.181-14.17-14.181H373.98c-7.83,0-14.17,6.351-14.17,14.181v22.67h16.69v15.59
	h36.85v-15.59h44.14v15.015"/>
<line fill="none" stroke="#231F20" stroke-width="1.5" stroke-linecap="round" stroke-linejoin="round" stroke-miterlimit="22.926" x1="376.566" y1="650.056" x2="413.276" y2="650.056"/>
<line fill="none" stroke="#231F20" stroke-width="1.5" stroke-linecap="round" stroke-linejoin="round" stroke-miterlimit="22.926" x1="376.496" y1="634.466" x2="413.346" y2="634.466"/>
<line fill="none" stroke="#231F20" stroke-width="1.5" stroke-linecap="round" stroke-linejoin="round" stroke-miterlimit="22.926" x1="457.486" y1="634.466" x2="494.126" y2="634.466"/>
<path fill="none" stroke="#231F20" stroke-width="1.5" stroke-linecap="round" stroke-linejoin="round" stroke-miterlimit="22.926" d="
	M427.391,664.231v82.52h-124.28v-28.35c0-15.65,12.7-28.35,28.35-28.35h15.87v-25.82c0-7.83,6.35-14.18,14.18-14.18h51.84
	C421.121,650.132,427.391,656.451,427.391,664.231z"/>
<line fill="none" stroke="#231F20" stroke-width="1.5" stroke-linecap="round" stroke-linejoin="round" stroke-miterlimit="22.926" x1="347.331" y1="690.052" x2="427.391" y2="690.052"/>
<path fill="none" stroke="#231F20" stroke-width="1.5" stroke-linecap="round" stroke-linejoin="round" stroke-miterlimit="22.926" d="
	M427.388,719.242h-27.261c-7.05,0-12.766,5.716-12.766,12.767v14.743h40.027V719.242z"/>
<line fill="none" stroke="#231F20" stroke-width="1.5" stroke-linecap="round" stroke-linejoin="round" stroke-miterlimit="22.926" x1="347.331" y1="664.231" x2="427.388" y2="664.231"/>
<line fill="none" stroke="#231F20" stroke-width="1.5" stroke-linecap="round" stroke-linejoin="round" stroke-miterlimit="22.926" x1="303.11" y1="746.751" x2="303.11" y2="755.334"/>
<polyline fill="none" stroke="#231F20" stroke-width="1.5" stroke-linecap="round" stroke-linejoin="round" stroke-miterlimit="22.926" points="
	303.11,755.335 427.388,755.335 427.388,746.752 "/>
<polygon fill="none" stroke="#231F20" stroke-width="1.5" stroke-linecap="round" stroke-linejoin="round" stroke-miterlimit="22.926" points="
	427.833,771.686 380.646,771.686 384.646,755.557 423.833,755.557 "/>
<line fill="none" stroke="#231F20" stroke-width="1.5" stroke-linecap="round" stroke-linejoin="round" stroke-miterlimit="22.926" x1="382.646" y1="763.621" x2="425.5" y2="763.621"/>
<path fill="none" stroke="#231F20" stroke-width="1.5" stroke-linecap="round" stroke-linejoin="round" stroke-miterlimit="22.926" d="
	M388.264,771.783c0,0-9.696,13.875-9.304,13.625c0.392-0.25,9.304-2.625,9.304-2.625l-7.443,16.375l9.978-5.5l-5.925,17l12.694-9
	l5.485,17.375l5.191-17.875l9.108,9.375l-1.175-17.875l8.814,3.875l-7.737-16.625l10.284,3.375l-7.542-11.5"/>
<path fill="none" stroke="#231F20" stroke-width="1.5" stroke-linecap="round" stroke-linejoin="round" stroke-miterlimit="22.926" d="
	M394.625,772.658c-0.375,0.375-5.5,6.125-5.5,6.125h5.5l-5.5,10.125l6.875-2.5l-3.438,12.875l7.688-5.625l2.25,9.25l3.375-9.375
	l7.125,7.5l-1.25-13.688l5.732,3.281l-5.982-15.344l8.875,2.5l-3.5-6"/>
<path fill="none" stroke="#231F20" stroke-width="1.5" stroke-linecap="round" stroke-linejoin="round" stroke-miterlimit="22.926" d="
	M439.6,663.687v82.52h124.28v-28.35c0-15.65-12.7-28.35-28.351-28.35h-15.87v-25.82c0-7.83-6.35-14.18-14.18-14.18h-51.84
	C445.869,649.587,439.6,655.906,439.6,663.687z"/>
<line fill="none" stroke="#231F20" stroke-width="1.5" stroke-linecap="round" stroke-linejoin="round" stroke-miterlimit="22.926" x1="519.659" y1="689.507" x2="439.6" y2="689.507"/>
<path fill="none" stroke="#231F20" stroke-width="1.5" stroke-linecap="round" stroke-linejoin="round" stroke-miterlimit="22.926" d="
	M439.603,718.697h27.261c7.05,0,12.766,5.716,12.766,12.767v14.743h-40.027V718.697z"/>
<line fill="none" stroke="#231F20" stroke-width="1.5" stroke-linecap="round" stroke-linejoin="round" stroke-miterlimit="22.926" x1="519.659" y1="663.687" x2="439.603" y2="663.687"/>
<line fill="none" stroke="#231F20" stroke-width="1.5" stroke-linecap="round" stroke-linejoin="round" stroke-miterlimit="22.926" x1="563.88" y1="746.206" x2="563.88" y2="754.789"/>
<polyline fill="none" stroke="#231F20" stroke-width="1.5" stroke-linecap="round" stroke-linejoin="round" stroke-miterlimit="22.926" points="
	563.88,754.79 439.603,754.79 439.603,746.207 "/>
<polygon fill="none" stroke="#231F20" stroke-width="1.5" stroke-linecap="round" stroke-linejoin="round" stroke-miterlimit="22.926" points="
	439.158,771.141 486.345,771.141 482.345,755.012 443.158,755.012 "/>
<line fill="none" stroke="#231F20" stroke-width="1.5" stroke-linecap="round" stroke-linejoin="round" stroke-miterlimit="22.926" x1="484.345" y1="763.076" x2="441.49" y2="763.076"/>
<path fill="none" stroke="#231F20" stroke-width="1.5" stroke-linecap="round" stroke-linejoin="round" stroke-miterlimit="22.926" d="
	M478.727,771.237c0,0,9.696,13.875,9.304,13.625c-0.391-0.25-9.304-2.625-9.304-2.625l7.443,16.375l-9.979-5.5l5.926,17l-12.694-9
	l-5.485,17.375l-5.19-17.875l-9.108,9.375l1.175-17.875L442,795.987l7.736-16.625l-10.284,3.375l7.542-11.5"/>
<path fill="none" stroke="#231F20" stroke-width="1.5" stroke-linecap="round" stroke-linejoin="round" stroke-miterlimit="22.926" d="
	M472.365,772.112c0.375,0.375,5.5,6.125,5.5,6.125h-5.5l5.5,10.125l-6.875-2.5l3.438,12.875l-7.688-5.625l-2.25,9.25l-3.375-9.375
	l-7.125,7.5l1.25-13.687l-5.731,3.281l5.981-15.345l-8.875,2.5l3.5-6"/>
<path fill="none" stroke="#010101" stroke-width="1.5" stroke-linecap="round" stroke-linejoin="round" stroke-miterlimit="22.926" d="
	M790.048,620.296h-1.139c-0.747,1.291-1.823,2.367-3.114,3.114v1.138h-4.252h-4.252v-1.138c-1.29-0.747-2.366-1.823-3.113-3.114
	h-1.139v-4.252v-4.252h1.139c0.747-1.29,1.823-2.367,3.113-3.114v-1.138h4.252h4.252v1.138c1.291,0.747,2.367,1.824,3.114,3.114
	h1.139v4.252V620.296z"/>
<rect x="744.693" y="611.792" fill="none" stroke="#010101" stroke-width="1.5" stroke-linecap="round" stroke-linejoin="round" stroke-miterlimit="22.926" width="17.008" height="8.504"/>
<rect x="688" y="611.792" fill="none" stroke="#010101" stroke-width="1.5" stroke-linecap="round" stroke-linejoin="round" stroke-miterlimit="22.926" width="17.008" height="8.504"/>
<path fill="none" stroke="#010101" stroke-width="1.5" stroke-linecap="round" stroke-linejoin="round" stroke-miterlimit="22.926" d="
	M676.662,620.296h-1.139c-0.747,1.291-1.823,2.367-3.114,3.114v1.138h-4.252h-4.252v-1.138c-1.29-0.747-2.366-1.823-3.113-3.114
	h-1.139v-4.252v-4.252h1.139c0.747-1.29,1.823-2.367,3.113-3.114v-1.138h4.252h4.252v1.138c1.291,0.747,2.367,1.824,3.114,3.114
	h1.139v4.252V620.296z"/>
<path fill="none" stroke="#010101" stroke-width="1.5" stroke-linecap="round" stroke-linejoin="round" stroke-miterlimit="22.926" d="
	M733.354,620.296h-1.138c-0.747,1.291-1.823,2.367-3.114,3.114v1.138h-4.252h-4.252v-1.138c-1.291-0.747-2.367-1.823-3.114-3.114
	h-1.138v-4.252v-4.252h1.138c0.747-1.29,1.823-2.367,3.114-3.114v-1.138h4.252h4.252v1.138c1.291,0.747,2.367,1.824,3.114,3.114
	h1.138v4.252V620.296z"/>
<path fill="none" stroke="#231F20" stroke-width="1.5" stroke-linecap="round" stroke-linejoin="round" stroke-miterlimit="22.926" d="
	M784.06,649.721v-15.26h15.91v-22.67c0-7.83-6.341-14.18-14.17-14.18H663.909c-7.83,0-14.17,6.35-14.17,14.18v22.67h16.69v15.59
	h36.85v-15.59h44.14v15.015"/>
<line fill="none" stroke="#231F20" stroke-width="1.5" stroke-linecap="round" stroke-linejoin="round" stroke-miterlimit="22.926" x1="666.496" y1="650.056" x2="703.206" y2="650.056"/>
<line fill="none" stroke="#231F20" stroke-width="1.5" stroke-linecap="round" stroke-linejoin="round" stroke-miterlimit="22.926" x1="666.426" y1="634.466" x2="703.275" y2="634.466"/>
<line fill="none" stroke="#231F20" stroke-width="1.5" stroke-linecap="round" stroke-linejoin="round" stroke-miterlimit="22.926" x1="747.416" y1="634.466" x2="784.056" y2="634.466"/>
<path fill="none" stroke="#231F20" stroke-width="1.5" stroke-linecap="round" stroke-linejoin="round" stroke-miterlimit="22.926" d="
	M717.32,664.231v82.52H593.04v-28.35c0-15.65,12.7-28.35,28.351-28.35h15.87v-25.82c0-7.83,6.35-14.18,14.18-14.18h51.84
	C711.051,650.132,717.32,656.451,717.32,664.231z"/>
<line fill="none" stroke="#231F20" stroke-width="1.5" stroke-linecap="round" stroke-linejoin="round" stroke-miterlimit="22.926" x1="637.261" y1="690.052" x2="717.32" y2="690.052"/>
<path fill="none" stroke="#231F20" stroke-width="1.5" stroke-linecap="round" stroke-linejoin="round" stroke-miterlimit="22.926" d="
	M717.317,719.242h-27.262c-7.05,0-12.766,5.716-12.766,12.767v14.743h40.027V719.242z"/>
<line fill="none" stroke="#231F20" stroke-width="1.5" stroke-linecap="round" stroke-linejoin="round" stroke-miterlimit="22.926" x1="637.261" y1="664.231" x2="717.317" y2="664.231"/>
<line fill="none" stroke="#231F20" stroke-width="1.5" stroke-linecap="round" stroke-linejoin="round" stroke-miterlimit="22.926" x1="593.04" y1="746.751" x2="593.04" y2="755.334"/>
<polyline fill="none" stroke="#231F20" stroke-width="1.5" stroke-linecap="round" stroke-linejoin="round" stroke-miterlimit="22.926" points="
	593.04,755.335 717.317,755.335 717.317,746.752 "/>
<path fill="none" stroke="#231F20" stroke-width="1.5" stroke-linecap="round" stroke-linejoin="round" stroke-miterlimit="22.926" d="
	M729.529,663.687v82.52h124.279v-28.35c0-15.65-12.699-28.35-28.35-28.35h-15.87v-25.82c0-7.83-6.35-14.18-14.18-14.18h-51.84
	C735.799,649.587,729.529,655.906,729.529,663.687z"/>
<line fill="none" stroke="#231F20" stroke-width="1.5" stroke-linecap="round" stroke-linejoin="round" stroke-miterlimit="22.926" x1="809.589" y1="689.507" x2="729.529" y2="689.507"/>
<path fill="none" stroke="#231F20" stroke-width="1.5" stroke-linecap="round" stroke-linejoin="round" stroke-miterlimit="22.926" d="
	M729.532,718.697h27.261c7.051,0,12.767,5.716,12.767,12.767v14.743h-40.027V718.697z"/>
<line fill="none" stroke="#231F20" stroke-width="1.5" stroke-linecap="round" stroke-linejoin="round" stroke-miterlimit="22.926" x1="809.589" y1="663.687" x2="729.532" y2="663.687"/>
<line fill="none" stroke="#231F20" stroke-width="1.5" stroke-linecap="round" stroke-linejoin="round" stroke-miterlimit="22.926" x1="853.81" y1="746.206" x2="853.81" y2="754.789"/>
<polyline fill="none" stroke="#231F20" stroke-width="1.5" stroke-linecap="round" stroke-linejoin="round" stroke-miterlimit="22.926" points="
	853.81,754.79 729.532,754.79 729.532,746.207 "/>
<g>
	<defs>
		<rect id="SVGID_1_" x="685.262" y="754.79" width="30.95" height="30.95"/>
	</defs>
	<clipPath id="SVGID_2_">
		<use xlink:href="#SVGID_1_"  overflow="visible"/>
	</clipPath>
	<path clip-path="url(#SVGID_2_)" fill="#FFFFFF" d="M715.63,770.265c0,8.225-6.667,14.894-14.893,14.894
		s-14.894-6.669-14.894-14.894s6.668-14.894,14.894-14.894S715.63,762.04,715.63,770.265"/>
	
		<circle clip-path="url(#SVGID_2_)" fill="none" stroke="#231F20" stroke-width="1.1639" stroke-linecap="round" stroke-linejoin="round" stroke-miterlimit="22.926" cx="700.737" cy="770.265" r="14.893"/>
	<path clip-path="url(#SVGID_2_)" fill="#FFFFFF" d="M707.175,770.265c0,3.556-2.882,6.438-6.438,6.438s-6.438-2.882-6.438-6.438
		c0-3.555,2.882-6.437,6.438-6.437S707.175,766.71,707.175,770.265"/>
	
		<circle clip-path="url(#SVGID_2_)" fill="none" stroke="#231F20" stroke-width="1.1639" stroke-linecap="round" stroke-linejoin="round" stroke-miterlimit="22.926" cx="700.737" cy="770.265" r="6.438"/>
</g>
<g>
	<defs>
		<rect id="SVGID_3_" x="654.683" y="754.763" width="30.95" height="30.95"/>
	</defs>
	<clipPath id="SVGID_4_">
		<use xlink:href="#SVGID_3_"  overflow="visible"/>
	</clipPath>
	<path clip-path="url(#SVGID_4_)" fill="#FFFFFF" d="M685.051,770.237c0,8.226-6.668,14.894-14.894,14.894
		c-8.225,0-14.893-6.668-14.893-14.894c0-8.225,6.668-14.893,14.893-14.893C678.383,755.345,685.051,762.013,685.051,770.237"/>
	
		<circle clip-path="url(#SVGID_4_)" fill="none" stroke="#231F20" stroke-width="1.1639" stroke-linecap="round" stroke-linejoin="round" stroke-miterlimit="22.926" cx="670.158" cy="770.237" r="14.893"/>
	<path clip-path="url(#SVGID_4_)" fill="#FFFFFF" d="M676.595,770.237c0,3.556-2.882,6.438-6.437,6.438
		c-3.556,0-6.438-2.882-6.438-6.438c0-3.555,2.883-6.437,6.438-6.437C673.713,763.801,676.595,766.683,676.595,770.237"/>
	
		<circle clip-path="url(#SVGID_4_)" fill="none" stroke="#231F20" stroke-width="1.1639" stroke-linecap="round" stroke-linejoin="round" stroke-miterlimit="22.926" cx="670.157" cy="770.237" r="6.438"/>
</g>
<g>
	<defs>
		<rect id="SVGID_5_" x="624.314" y="754.776" width="30.95" height="30.95"/>
	</defs>
	<clipPath id="SVGID_6_">
		<use xlink:href="#SVGID_5_"  overflow="visible"/>
	</clipPath>
	<path clip-path="url(#SVGID_6_)" fill="#FFFFFF" d="M654.683,770.251c0,8.226-6.668,14.894-14.894,14.894
		c-8.225,0-14.893-6.668-14.893-14.894c0-8.225,6.668-14.893,14.893-14.893C648.015,755.358,654.683,762.026,654.683,770.251"/>
	
		<circle clip-path="url(#SVGID_6_)" fill="none" stroke="#231F20" stroke-width="1.1639" stroke-linecap="round" stroke-linejoin="round" stroke-miterlimit="22.926" cx="639.79" cy="770.251" r="14.893"/>
	<path clip-path="url(#SVGID_6_)" fill="#FFFFFF" d="M646.227,770.251c0,3.556-2.882,6.438-6.437,6.438
		c-3.556,0-6.438-2.882-6.438-6.438c0-3.555,2.883-6.437,6.438-6.437C643.345,763.814,646.227,766.696,646.227,770.251"/>
	
		<circle clip-path="url(#SVGID_6_)" fill="none" stroke="#231F20" stroke-width="1.1639" stroke-linecap="round" stroke-linejoin="round" stroke-miterlimit="22.926" cx="639.789" cy="770.251" r="6.438"/>
</g>
<g>
	<defs>
		<rect id="SVGID_7_" x="593.734" y="754.749" width="30.951" height="30.95"/>
	</defs>
	<clipPath id="SVGID_8_">
		<use xlink:href="#SVGID_7_"  overflow="visible"/>
	</clipPath>
	<path clip-path="url(#SVGID_8_)" fill="#FFFFFF" d="M624.104,770.224c0,8.226-6.668,14.894-14.894,14.894
		s-14.894-6.668-14.894-14.894c0-8.225,6.668-14.893,14.894-14.893S624.104,761.999,624.104,770.224"/>
	
		<circle clip-path="url(#SVGID_8_)" fill="none" stroke="#231F20" stroke-width="1.1639" stroke-linecap="round" stroke-linejoin="round" stroke-miterlimit="22.926" cx="609.21" cy="770.224" r="14.894"/>
	<path clip-path="url(#SVGID_8_)" fill="#FFFFFF" d="M615.647,770.224c0,3.556-2.882,6.438-6.438,6.438
		c-3.555,0-6.438-2.882-6.438-6.438c0-3.555,2.883-6.437,6.438-6.437C612.766,763.787,615.647,766.669,615.647,770.224"/>
	
		<circle clip-path="url(#SVGID_8_)" fill="none" stroke="#231F20" stroke-width="1.1639" stroke-linecap="round" stroke-linejoin="round" stroke-miterlimit="22.926" cx="609.21" cy="770.224" r="6.438"/>
</g>
<g>
	<defs>
		<rect id="SVGID_9_" x="819.446" y="754.77" width="30.95" height="30.95"/>
	</defs>
	<clipPath id="SVGID_10_">
		<use xlink:href="#SVGID_9_"  overflow="visible"/>
	</clipPath>
	<path clip-path="url(#SVGID_10_)" fill="#FFFFFF" d="M849.814,770.244c0,8.226-6.668,14.894-14.894,14.894
		c-8.225,0-14.894-6.668-14.894-14.894c0-8.225,6.669-14.893,14.894-14.893C843.146,755.352,849.814,762.02,849.814,770.244"/>
	
		<circle clip-path="url(#SVGID_10_)" fill="none" stroke="#231F20" stroke-width="1.1639" stroke-linecap="round" stroke-linejoin="round" stroke-miterlimit="22.926" cx="834.921" cy="770.244" r="14.894"/>
	<path clip-path="url(#SVGID_10_)" fill="#FFFFFF" d="M841.358,770.244c0,3.556-2.882,6.438-6.437,6.438
		c-3.556,0-6.438-2.882-6.438-6.438c0-3.555,2.883-6.437,6.438-6.437C838.477,763.808,841.358,766.689,841.358,770.244"/>
	
		<circle clip-path="url(#SVGID_10_)" fill="none" stroke="#231F20" stroke-width="1.1639" stroke-linecap="round" stroke-linejoin="round" stroke-miterlimit="22.926" cx="834.921" cy="770.244" r="6.438"/>
</g>
<g>
	<defs>
		<rect id="SVGID_11_" x="788.866" y="754.742" width="30.95" height="30.95"/>
	</defs>
	<clipPath id="SVGID_12_">
		<use xlink:href="#SVGID_11_"  overflow="visible"/>
	</clipPath>
	<path clip-path="url(#SVGID_12_)" fill="#FFFFFF" d="M819.234,770.217c0,8.226-6.667,14.894-14.893,14.894
		c-8.225,0-14.894-6.668-14.894-14.894c0-8.225,6.669-14.893,14.894-14.893C812.567,755.324,819.234,761.992,819.234,770.217"/>
	
		<circle clip-path="url(#SVGID_12_)" fill="none" stroke="#231F20" stroke-width="1.1639" stroke-linecap="round" stroke-linejoin="round" stroke-miterlimit="22.926" cx="804.341" cy="770.217" r="14.893"/>
	<path clip-path="url(#SVGID_12_)" fill="#FFFFFF" d="M810.779,770.217c0,3.556-2.882,6.438-6.438,6.438
		c-3.555,0-6.438-2.882-6.438-6.438c0-3.555,2.883-6.437,6.438-6.437C807.897,763.78,810.779,766.662,810.779,770.217"/>
	
		<circle clip-path="url(#SVGID_12_)" fill="none" stroke="#231F20" stroke-width="1.1639" stroke-linecap="round" stroke-linejoin="round" stroke-miterlimit="22.926" cx="804.342" cy="770.217" r="6.438"/>
</g>
<g>
	<defs>
		<rect id="SVGID_13_" x="758.498" y="754.756" width="30.95" height="30.95"/>
	</defs>
	<clipPath id="SVGID_14_">
		<use xlink:href="#SVGID_13_"  overflow="visible"/>
	</clipPath>
	<path clip-path="url(#SVGID_14_)" fill="#FFFFFF" d="M788.866,770.23c0,8.226-6.667,14.894-14.893,14.894
		s-14.894-6.668-14.894-14.894c0-8.225,6.668-14.893,14.894-14.893S788.866,762.006,788.866,770.23"/>
	
		<circle clip-path="url(#SVGID_14_)" fill="none" stroke="#231F20" stroke-width="1.1639" stroke-linecap="round" stroke-linejoin="round" stroke-miterlimit="22.926" cx="773.973" cy="770.23" r="14.893"/>
	<path clip-path="url(#SVGID_14_)" fill="#FFFFFF" d="M780.411,770.23c0,3.556-2.882,6.438-6.438,6.438s-6.438-2.882-6.438-6.438
		c0-3.555,2.882-6.437,6.438-6.437S780.411,766.676,780.411,770.23"/>
	
		<circle clip-path="url(#SVGID_14_)" fill="none" stroke="#231F20" stroke-width="1.1639" stroke-linecap="round" stroke-linejoin="round" stroke-miterlimit="22.926" cx="773.974" cy="770.23" r="6.438"/>
</g>
<g>
	<defs>
		<rect id="SVGID_15_" x="727.919" y="754.729" width="30.95" height="30.95"/>
	</defs>
	<clipPath id="SVGID_16_">
		<use xlink:href="#SVGID_15_"  overflow="visible"/>
	</clipPath>
	<path clip-path="url(#SVGID_16_)" fill="#FFFFFF" d="M758.287,770.204c0,8.225-6.668,14.893-14.894,14.893
		c-8.225,0-14.893-6.668-14.893-14.893c0-8.226,6.668-14.894,14.893-14.894C751.619,755.311,758.287,761.979,758.287,770.204"/>
	
		<circle clip-path="url(#SVGID_16_)" fill="none" stroke="#231F20" stroke-width="1.1639" stroke-linecap="round" stroke-linejoin="round" stroke-miterlimit="22.926" cx="743.394" cy="770.204" r="14.893"/>
	<path clip-path="url(#SVGID_16_)" fill="#FFFFFF" d="M749.831,770.204c0,3.555-2.882,6.437-6.437,6.437
		c-3.556,0-6.438-2.882-6.438-6.437c0-3.556,2.883-6.438,6.438-6.438C746.949,763.767,749.831,766.648,749.831,770.204"/>
	
		<circle clip-path="url(#SVGID_16_)" fill="none" stroke="#231F20" stroke-width="1.1639" stroke-linecap="round" stroke-linejoin="round" stroke-miterlimit="22.926" cx="743.394" cy="770.204" r="6.438"/>
</g>
<path fill="none" stroke="#010101" stroke-width="1.5" stroke-linecap="round" stroke-linejoin="round" stroke-miterlimit="22.926" d="
	M730.75,433.033c2.061,10.421,8.01,20.634,16.75,25.563"/>
<path fill="none" stroke="#010101" stroke-width="1.5" stroke-linecap="round" stroke-linejoin="round" stroke-miterlimit="22.926" d="
	M735.278,492.041c0-4.883,0.421-6.591,0.857-9.781c0.712-5.211,3.149-10.348,7.384-13.596"/>
<path fill="none" stroke="#010101" stroke-width="1.5" stroke-linecap="round" stroke-linejoin="round" stroke-miterlimit="22.926" d="
	M230.264,64.287h-1.138c-0.747,1.291-1.823,2.367-3.114,3.114v1.138h-4.252h-4.252V67.4c-1.29-0.747-2.367-1.823-3.114-3.114h-1.138
	v-4.252v-4.252h1.138c0.747-1.29,1.824-2.367,3.114-3.114V51.53h4.252h4.252v1.138c1.291,0.747,2.367,1.824,3.114,3.114h1.138v4.252
	V64.287z"/>
<rect x="184.909" y="55.783" fill="none" stroke="#010101" stroke-width="1.5" stroke-linecap="round" stroke-linejoin="round" stroke-miterlimit="22.926" width="17.008" height="8.504"/>
<rect x="128.216" y="55.783" fill="none" stroke="#010101" stroke-width="1.5" stroke-linecap="round" stroke-linejoin="round" stroke-miterlimit="22.926" width="17.008" height="8.504"/>
<path fill="none" stroke="#010101" stroke-width="1.5" stroke-linecap="round" stroke-linejoin="round" stroke-miterlimit="22.926" d="
	M116.878,64.287h-1.138c-0.747,1.291-1.823,2.367-3.114,3.114v1.138h-4.252h-4.252V67.4c-1.29-0.747-2.367-1.823-3.114-3.114H99.87
	v-4.252v-4.252h1.138c0.747-1.29,1.824-2.367,3.114-3.114V51.53h4.252h4.252v1.138c1.291,0.747,2.367,1.824,3.114,3.114h1.138v4.252
	V64.287z"/>
<path fill="none" stroke="#010101" stroke-width="1.5" stroke-linecap="round" stroke-linejoin="round" stroke-miterlimit="22.926" d="
	M173.571,64.287h-1.138c-0.747,1.291-1.823,2.367-3.114,3.114v1.138h-4.252h-4.252V67.4c-1.29-0.747-2.367-1.823-3.114-3.114h-1.138
	v-4.252v-4.252h1.138c0.747-1.29,1.824-2.367,3.114-3.114V51.53h4.252h4.252v1.138c1.291,0.747,2.367,1.824,3.114,3.114h1.138v4.252
	V64.287z"/>
<line fill="none" stroke="#231F20" stroke-width="1.5" stroke-linecap="round" stroke-linejoin="round" stroke-miterlimit="22.926" x1="106.642" y1="78.457" x2="143.492" y2="78.457"/>
<line fill="none" stroke="#231F20" stroke-width="1.5" stroke-linecap="round" stroke-linejoin="round" stroke-miterlimit="22.926" x1="187.632" y1="78.457" x2="224.272" y2="78.457"/>
<path fill="none" stroke="#231F20" stroke-width="1.5" stroke-linecap="round" stroke-linejoin="round" stroke-miterlimit="22.926" d="
	M143.496,78.452h44.14v13.691c-0.706,7.621,0.081,15.034-0.87,22.816c-1.723,14.098-4.833,30.84-0.223,44.582
	c4.683,13.963,14.979,25.24,24.2,36.377c-6.216,6.529-6.046,19.682,3.659,22.778c8.761,2.795,19.319-3.239,18.904-13.146
	c-0.092-2.198-0.008-4.719-0.908-6.75c-1.423-3.214-4.688-5.716-8.118-6.412c-3.887-0.789-5.578,0.178-8.295-3.483
	c-2.15-2.896-18.548-21.764-12.985-24.127c3.096-1.315,10.634,2.644,13.225,4.403c8.156,5.541,13.643,14.049,21.496,19.893
	c5.958,4.435,12.539,7.934,19.27,11.035c4.558,2.099,2.009,3.106,3.331,7.14c3.54,10.785,23.749,10.643,27.018-0.375
	c2.281-7.687-1.164-15.57-9.095-17.522c-2.479-0.611-3.829-0.586-6.189,0.359c-8.699,3.483-20.2-2.467-27.057-8.069
	c-2.537-2.073-12.591-10.446-9.963-14.692c2.142-3.464,13.688,5.05,16.132,6.565c5.748,3.563,12.377,5.64,19.083,6.359
	c3.291,0.353,6.621,0.378,9.915,0.053c2.799-0.277,7.629-2.628,10.172-2.232c1.928,0.301,2.69,2.411,4.638,3.698
	c1.966,1.298,4.41,1.914,6.739,2.065c4.445,0.287,9.822-1.268,11.709-5.717c1.423-3.355,0.604-9.737-1.157-12.965
	c-4.549-8.337-15.134-8.303-20.585-1.075c-1.712,2.27-1.907,3.604-4.815,4.518c-10.591,3.328-25.086-1.23-35.006-4.985
	c-2.059-0.78-6.097-2.161-5.766-4.886c5.04-2.129,10.724,0.619,15.856,0.986c6.627,0.472,13.671-0.925,19.673-3.876
	c0.441-0.217,0.877-0.442,1.307-0.676c3.588-1.953,7.387-6.228,11.361-7.184c3.57-0.859,6.918,0.982,10.747,0.015
	c3.561-0.899,6.334-2.171,8.284-5.469c2.288-3.87,2.987-8.541,1.705-12.844c-1.283-4.304-5.408-6.782-9.98-7.116
	c-9.624-0.704-9.623,7.873-13.904,13.928c-2.433,3.44-9.123,6.286-12.81,8.094c-4.551,2.231-9.527,4.02-14.653,4.049
	c-11.116,0.062-19.458-3.282-27.343-11.065c-7.85-7.748-10.664-18.383-11.483-29.078c-0.156-2.046-0.716-29.659-0.579-29.659h15.91
	v-22.67c0-7.83-6.34-14.18-14.17-14.18h-121.89c-7.83,0-14.17,6.35-14.17,14.18v22.67h16.69"/>
<path fill="none" stroke="#231F20" stroke-width="1.5" stroke-linecap="round" stroke-linejoin="round" stroke-miterlimit="22.926" d="
	M143.16,78.452v13.691c0.705,7.621-0.081,15.034,0.87,22.816c1.723,14.098,4.833,30.84,0.223,44.582
	c-4.684,13.963-14.979,25.24-24.2,36.377c6.216,6.529,6.046,19.682-3.659,22.778c-8.761,2.795-19.319-3.239-18.904-13.146
	c0.092-2.198,0.008-4.719,0.907-6.75c1.424-3.214,4.689-5.716,8.119-6.412c3.886-0.789,5.577,0.178,8.295-3.483
	c2.15-2.896,18.548-21.764,12.985-24.127c-3.096-1.315-10.635,2.644-13.225,4.403c-8.156,5.541-13.643,14.049-21.496,19.893
	c-5.958,4.435-12.539,7.934-19.27,11.035c-4.558,2.099-2.01,3.106-3.331,7.14c-3.54,10.785-23.749,10.643-27.018-0.375
	c-2.282-7.687,1.163-15.57,9.095-17.522c2.479-0.611,3.829-0.586,6.189,0.359c8.699,3.483,20.2-2.467,27.057-8.069
	c2.537-2.073,12.591-10.446,9.963-14.692c-2.143-3.464-13.688,5.05-16.132,6.565c-5.748,3.563-12.377,5.64-19.083,6.359
	c-3.291,0.353-6.621,0.378-9.915,0.053c-2.799-0.277-7.629-2.628-10.173-2.232c-1.927,0.301-2.689,2.411-4.637,3.698
	c-1.967,1.298-4.41,1.914-6.739,2.065c-4.445,0.287-9.822-1.268-11.709-5.717c-1.423-3.355-0.604-9.737,1.157-12.965
	c4.549-8.337,15.134-8.303,20.585-1.075c1.712,2.27,1.907,3.604,4.815,4.518c10.591,3.328,25.086-1.23,35.005-4.985
	c2.06-0.78,6.098-2.161,5.767-4.886c-5.04-2.129-10.724,0.619-15.857,0.986c-6.626,0.472-13.67-0.925-19.672-3.876
	c-0.441-0.217-0.877-0.442-1.307-0.676c-3.588-1.953-7.387-6.228-11.361-7.184c-3.57-0.859-6.918,0.982-10.747,0.015
	c-3.561-0.899-6.335-2.171-8.285-5.469c-2.287-3.87-2.986-8.541-1.704-12.844c1.283-4.304,5.408-6.782,9.98-7.116
	c9.623-0.704,9.622,7.873,13.904,13.928c2.433,3.44,9.123,6.286,12.81,8.094c4.551,2.231,9.527,4.02,14.653,4.049
	c11.116,0.062,19.458-3.282,27.343-11.065c7.85-7.748,10.664-18.383,11.483-29.078c0.156-2.046,0.715-29.659,0.579-29.659"/>
<path fill="none" stroke="#231F20" stroke-width="1.5" stroke-linecap="round" stroke-linejoin="round" stroke-miterlimit="22.926" d="
	M256.333,188.449c-1.019-6.129-2.125-9.905,5.318-10.285"/>
<path fill="none" stroke="#231F20" stroke-width="1.5" stroke-linecap="round" stroke-linejoin="round" stroke-miterlimit="22.926" d="
	M267.667,167.783c-0.485-2.153-2.416-3.883-1.424-6.258c0.544-1.3,2.549-2.319,3.882-2.525"/>
<path fill="none" stroke="#231F20" stroke-width="1.5" stroke-linecap="round" stroke-linejoin="round" stroke-miterlimit="22.926" d="
	M217.5,190.283c1.894-4.553,2.696-6.465,8.252-7.003c1.944-0.188,4.873-0.246,7.232,1.757"/>
<path fill="none" stroke="#231F20" stroke-width="1.5" stroke-linecap="round" stroke-linejoin="round" stroke-miterlimit="22.926" d="
	M74.292,188.449c1.019-6.129,2.125-9.905-5.318-10.285"/>
<path fill="none" stroke="#231F20" stroke-width="1.5" stroke-linecap="round" stroke-linejoin="round" stroke-miterlimit="22.926" d="
	M62.958,167.783c0.485-2.153,2.416-3.883,1.424-6.258c-0.544-1.3-2.549-2.319-3.882-2.525"/>
<path fill="none" stroke="#231F20" stroke-width="1.5" stroke-linecap="round" stroke-linejoin="round" stroke-miterlimit="22.926" d="
	M113.125,190.283c-1.894-4.553-2.696-6.465-8.252-7.003c-1.944-0.188-4.873-0.246-7.232,1.757"/>
<path fill="#FFFFFF" d="M437.101,155.155c-6.2,0.401-12.692,1.721-17.579,5.83c-3.046,2.567-6.155,5.305-8.373,8.622
	c-2.08,3.111-4.023,6.153-5.562,9.579c-2.802,6.236-3.147,12.316-0.291,18.536c2.485,5.412,6.576,9.915,12.333,11.829
	c3.942,1.311,8.642,1.657,12.651,0.382c1.707-0.542,3.321-1.149,4.867-2.064c2.736-1.62,4.36-3.744,5.713-6.592
	c0.947-1.995,1.764-4.522,1.665-6.763c-0.097-2.157-0.801-4.269-2.175-5.934c-1.47-1.781-3.354-2.917-2.745-5.544
	c0.603-2.595,2.867-4.767,4.762-6.495c-3.872,0.23-7.201,1.004-10.965,1.914c1.143-3.959,4.557-7.232,7.162-10.264
	c-3.73-1.027-7.903,0.486-11.05,2.423c0.274-2.167,1.637-4.483,2.621-6.409c0.957-1.874,2.335-3.664,3.814-5.169
	c1.073-1.091,3.646-2.477,4.018-3.928C437.682,155.122,437.393,155.136,437.101,155.155"/>
<path fill="none" stroke="#000000" stroke-width="1.5" stroke-linecap="round" stroke-linejoin="round" stroke-miterlimit="22.926" d="
	M437.101,155.155c-6.2,0.401-12.692,1.721-17.579,5.83c-3.046,2.567-6.155,5.305-8.373,8.622c-2.08,3.111-4.023,6.153-5.562,9.579
	c-2.802,6.236-3.147,12.316-0.291,18.536c2.485,5.412,6.576,9.915,12.333,11.829c3.942,1.311,8.642,1.657,12.651,0.382
	c1.707-0.542,3.321-1.149,4.867-2.064c2.736-1.62,4.36-3.744,5.713-6.592c0.947-1.995,1.764-4.522,1.665-6.763
	c-0.097-2.157-0.801-4.269-2.175-5.934c-1.47-1.781-3.354-2.917-2.745-5.544c0.603-2.595,2.867-4.767,4.762-6.495
	c-3.872,0.23-7.201,1.004-10.965,1.914c1.143-3.959,4.557-7.232,7.162-10.264c-3.73-1.027-7.903,0.486-11.05,2.423
	c0.274-2.167,1.637-4.483,2.621-6.409c0.957-1.874,2.335-3.664,3.814-5.169c1.073-1.091,3.646-2.477,4.018-3.928
	C437.682,155.122,437.393,155.136,437.101,155.155z"/>
<path fill="none" stroke="#010101" stroke-width="1.5" stroke-linecap="round" stroke-linejoin="round" stroke-miterlimit="22.926" d="
	M634.878,348.371h1.138c0.747-1.291,1.823-2.367,3.114-3.114v-1.138h4.252h4.252v1.138c1.291,0.747,2.367,1.823,3.114,3.114h1.138
	v4.252v4.252h-1.138c-0.747,1.291-1.823,2.367-3.114,3.114v1.138h-4.252h-4.252v-1.138c-1.291-0.747-2.367-1.823-3.114-3.114h-1.138
	v-4.252V348.371z"/>
<rect x="663.224" y="348.372" fill="none" stroke="#010101" stroke-width="1.5" stroke-linecap="round" stroke-linejoin="round" stroke-miterlimit="22.926" width="17.009" height="8.504"/>
<rect x="719.917" y="348.372" fill="none" stroke="#010101" stroke-width="1.5" stroke-linecap="round" stroke-linejoin="round" stroke-miterlimit="22.926" width="17.008" height="8.504"/>
<path fill="none" stroke="#010101" stroke-width="1.5" stroke-linecap="round" stroke-linejoin="round" stroke-miterlimit="22.926" d="
	M748.264,348.371h1.138c0.747-1.291,1.823-2.367,3.114-3.114v-1.138h4.252h4.252v1.138c1.291,0.747,2.367,1.823,3.114,3.114h1.138
	v4.252v4.252h-1.138c-0.747,1.291-1.823,2.367-3.114,3.114v1.138h-4.252h-4.252v-1.138c-1.291-0.747-2.367-1.823-3.114-3.114h-1.138
	v-4.252V348.371z"/>
<path fill="none" stroke="#010101" stroke-width="1.5" stroke-linecap="round" stroke-linejoin="round" stroke-miterlimit="22.926" d="
	M718.5,318.225v15.973h56.693v22.677c0,7.826-6.348,14.173-14.174,14.173H639.13c-7.826,0-14.173-6.347-14.173-14.173v-22.677
	h56.692v-15.973"/>
<path fill="none" stroke="#010101" stroke-width="1.5" stroke-linecap="round" stroke-linejoin="round" stroke-miterlimit="22.926" d="
	M691.57,348.371h1.139c0.747-1.291,1.822-2.367,3.113-3.114v-1.138h4.252h4.252v1.138c1.291,0.747,2.367,1.823,3.114,3.114h1.139
	v4.252v4.252h-1.139c-0.747,1.291-1.823,2.367-3.114,3.114v1.138h-4.252h-4.252v-1.138c-1.291-0.747-2.366-1.823-3.113-3.114h-1.139
	v-4.252V348.371z"/>
<path fill="#FFFFFF" d="M746.689,166.648h-93.012c-12.902,0-23.461,10.557-23.461,23.461v71.853c0,12.903,10.559,23.46,23.461,23.46
	h93.012c12.902,0,23.461-10.557,23.461-23.46v-71.853C770.15,177.206,759.592,166.648,746.689,166.648"/>
<path fill="none" stroke="#000000" stroke-width="1.5" stroke-linecap="round" stroke-linejoin="round" stroke-miterlimit="22.926" d="
	M746.689,166.648h-93.012c-12.902,0-23.461,10.557-23.461,23.461v71.853c0,12.903,10.559,23.46,23.461,23.46h93.012
	c12.902,0,23.461-10.557,23.461-23.46v-71.853C770.15,177.206,759.592,166.648,746.689,166.648z"/>
<path d="M673.476,228.164c-2.984,2.139-6.979,0.028-7.571-3.463c-0.769-4.525,5.568-7.035,8.477-3.66
	C676.134,223.077,675.677,226.586,673.476,228.164"/>
<path fill="none" stroke="#000000" stroke-miterlimit="10" d="M673.476,228.164c-2.984,2.139-6.979,0.028-7.571-3.463
	c-0.769-4.525,5.568-7.035,8.477-3.66C676.134,223.077,675.677,226.586,673.476,228.164z"/>
<path fill="#FFFFFF" d="M670.617,222.5c-0.186-0.671-0.88-1.178-1.798-0.926c-1.854,0.509-1.219,3.236,0.708,2.865
	C670.403,224.27,670.829,223.265,670.617,222.5"/>
<path d="M737.127,225.564c-0.525,1.557-1.705,2.894-3.306,3.319c-3.492,0.928-7.397-2.906-6.053-6.474
	c1.091-3.656,6.521-4.341,8.739-1.487C737.522,222.229,737.651,224.007,737.127,225.564"/>
<path fill="none" stroke="#000000" stroke-miterlimit="10" d="M737.127,225.564c-0.525,1.557-1.705,2.894-3.306,3.319
	c-3.492,0.928-7.397-2.906-6.053-6.474c1.091-3.656,6.521-4.341,8.739-1.487C737.522,222.229,737.651,224.007,737.127,225.564z"/>
<path fill="#FFFFFF" d="M730.387,221.67c0.492-0.37,1.192-0.478,1.719-0.127c0.726,0.483,0.822,1.581,0.228,2.207
	c-0.46,0.484-1.269,0.588-1.836,0.237c-0.378-0.234-0.622-0.654-0.677-1.091C729.759,222.395,729.986,221.972,730.387,221.67"/>
<circle fill="none" stroke="#010101" stroke-width="1.5" stroke-linecap="round" stroke-linejoin="round" stroke-miterlimit="22.926" cx="669.311" cy="222.009" r="30.094"/>
<circle fill="none" stroke="#010101" stroke-width="1.5" stroke-linecap="round" stroke-linejoin="round" stroke-miterlimit="22.926" cx="732.463" cy="222.009" r="30.094"/>
<path fill="none" stroke="#010101" stroke-width="1.5" stroke-linecap="round" stroke-linejoin="round" stroke-miterlimit="22.926" d="
	M712.564,259.186L712.564,259.186c0,6.959-5.642,12.6-12.601,12.6h0.022c-6.959,0-12.601-5.641-12.601-12.6"/>
<path fill="#FFFFFF" d="M630.809,243.312c-1.682-6.651-0.072-14.268,0.1-21.031c2.274,2.996,3.494,7.298,5.726,10.498
	c-2.565-12.04-2.17-25.593-0.595-37.741c0.656-5.054,1.043-10.813,2.757-15.637c1.154-3.25,4.691-6.005,5.536-9.101
	c1.677-6.142-5.9-4.943-10.585-3.743c-14.426,3.696-16.562,21.648-17.005,34.045c-0.266,7.469,0.191,14.936,0.617,22.391
	c0.4,6.985,1.907,17.329-0.598,23.775c1.842-4.74,5.393-8.41,7.684-12.865c1.469,3.831,2.832,8.363,4.214,11.905
	c0.559-1.532,1.222-3.397,1.651-4.642c0.554,0.367,0.721,0.916,0.498,1.646"/>
<path fill="none" stroke="#000000" stroke-width="1.5" stroke-linecap="round" stroke-linejoin="round" stroke-miterlimit="22.926" d="
	M630.809,243.312c-1.682-6.651-0.072-14.268,0.1-21.031c2.274,2.996,3.494,7.298,5.726,10.498
	c-2.565-12.04-2.17-25.593-0.595-37.741c0.656-5.054,1.043-10.813,2.757-15.637c1.154-3.25,4.691-6.005,5.536-9.101
	c1.677-6.142-5.9-4.943-10.585-3.743c-14.426,3.696-16.562,21.648-17.005,34.045c-0.266,7.469,0.191,14.936,0.617,22.391
	c0.4,6.985,1.907,17.329-0.598,23.775c1.842-4.74,5.393-8.41,7.684-12.865c1.469,3.831,2.832,8.363,4.214,11.905
	c0.559-1.532,1.222-3.397,1.651-4.642c0.554,0.367,0.721,0.916,0.498,1.646"/>
<path fill="#FFFFFF" d="M766.309,193.312c0.863,1.282,0,10.128,0,13.545v14.955c0,6.134-0.323,12.409,0.103,18.506
	c1.666-3.547,3.894-7.498,6.434-10.629c1.399,4.92,1.977,10.099,3.038,15.027c2.724-4.225,4.708-10.828,4.977-15.922
	c2.398,1.616,4.727,4.686,5.568,7.525c1.883-5.928-0.119-16.876-0.119-23.464c0-6.31,0.138-12.831-1.375-18.944
	c-1.688-6.811-4.164-14.257-8.828-19.56c-2.946-3.351-9.526-8.066-14.214-7.735c-10.143,0.717-2.67,11.068,0.187,15.691
	C766.097,188.812,766.208,193.485,766.309,193.312"/>
<path fill="none" stroke="#000000" stroke-width="1.5" stroke-linecap="round" stroke-linejoin="round" stroke-miterlimit="22.926" d="
	M766.309,193.312c0.863,1.282,0,10.128,0,13.545v14.955c0,6.134-0.323,12.409,0.103,18.506c1.666-3.547,3.894-7.498,6.434-10.629
	c1.399,4.92,1.977,10.099,3.038,15.027c2.724-4.225,4.708-10.828,4.977-15.922c2.398,1.616,4.727,4.686,5.568,7.525
	c1.883-5.928-0.119-16.876-0.119-23.464c0-6.31,0.138-12.831-1.375-18.944c-1.688-6.811-4.164-14.257-8.828-19.56
	c-2.946-3.351-9.526-8.066-14.214-7.735c-10.143,0.717-2.67,11.068,0.187,15.691C766.097,188.812,766.208,193.485,766.309,193.312z"
	/>
<path fill="#FFFFFF" d="M711.893,184.065c-1.024-1.403-3.708-7.525-3.708-7.525s11.402,3.277,13.594,4.005
	c10.079,3.35,21.218,5.993,31.835,5.592c-0.517-1.654-1.3-3.3-2.201-4.79c-1.072-1.775-2.404-3.523-3.153-5.472
	c-2.548-6.626,5.672-7.584,10.299-6.625c3.022,0.627-0.411-11.88-0.863-12.733c-1.92-3.618-4.834-6.025-7.966-8.548
	c-9.271-7.464-19.509-9.952-30.908-12.157c-5.826-1.127-11.384-0.709-17.28-0.556c-9.024,0.235-17.878,1.97-26.529,4.605
	c-7.34,2.235-14.111,5.687-20.684,9.595c-2.827,1.682-5.814,3.629-7.865,6.239c-7.339,9.344,0.542,17.661,9.013,21.832
	c4.014,1.976,8.264,3.488,11.377,4.725c6.144,2.443,11.886,3.528,18.229,4.299c-1.493-2.468-4.344-4.077-5.205-6.673
	c0.077,0.235,8.509,3.857,9.438,4.179c3.291,1.14,6.47,2.57,9.678,3.92c5.599,2.355,13.3,4.056,19.516,2.733
	C715.864,188.656,713.687,186.52,711.893,184.065"/>
<path fill="none" stroke="#000000" stroke-width="1.5" stroke-linecap="round" stroke-linejoin="round" stroke-miterlimit="22.926" d="
	M711.893,184.065c-1.024-1.403-3.708-7.525-3.708-7.525s11.402,3.277,13.594,4.005c10.079,3.35,21.218,5.993,31.835,5.592
	c-0.517-1.654-1.3-3.3-2.201-4.79c-1.072-1.775-2.404-3.523-3.153-5.472c-2.548-6.626,5.672-7.584,10.299-6.625
	c3.022,0.627-0.411-11.88-0.863-12.733c-1.92-3.618-4.834-6.025-7.966-8.548c-9.271-7.464-19.509-9.952-30.908-12.157
	c-5.826-1.127-11.384-0.709-17.28-0.556c-9.024,0.235-17.878,1.97-26.529,4.605c-7.34,2.235-14.111,5.687-20.684,9.595
	c-2.827,1.682-5.814,3.629-7.865,6.239c-7.339,9.344,0.542,17.661,9.013,21.832c4.014,1.976,8.264,3.488,11.377,4.725
	c6.144,2.443,11.886,3.528,18.229,4.299c-1.493-2.468-4.344-4.077-5.205-6.673c0.077,0.235,8.509,3.857,9.438,4.179
	c3.291,1.14,6.47,2.57,9.678,3.92c5.599,2.355,13.3,4.056,19.516,2.733C715.864,188.656,713.687,186.52,711.893,184.065z"/>
<path fill="#FFFFFF" d="M750.159,144.26c0.459-1.256,1.104-1.797,1.828-1.135c-2.401-2.246-4.373-6.181-5.878-9.076
	c-1.907-3.667-3.993-7.27-5.813-10.963c-3.855-7.821-7.041-16.098-11.393-23.688c-3.959-6.905-6.551-14.293-8.821-21.843
	c-2.468-8.208-3.789-16.795-0.221-24.954c3.277-7.49,14.505-10.745,22.111-7.064c4.661,2.255,8.303,16.028,11.878,5.491
	c4.251-12.529-8.163-24.218-19.142-28.548c-14.028-5.533-27.407-1.21-39.421,7.066c-17.183,11.837-27.462,32.221-35.245,50.518
	c-5.095,11.981-7.977,25.815-9.067,38.715c-0.474,5.603-0.806,11.265-1.302,16.824c-0.235,2.632,1.648,8.287-0.178,10.458
	c4.158,9.104,13.542,12.791,23.197,15.491c5.807,1.624,11.686,0.556,17.679,0.985c9.119,0.653,17.859-1.319,26.89-2.297
	c7.339-0.794,15.82-1.846,22.806-4.151c2.651-0.875,5.063-2.291,6.87-4.302c2.059-2.291,2.693-4.661,3.725-7.329
	C750.719,144.064,750.371,143.827,750.159,144.26"/>
<path fill="none" stroke="#000000" stroke-width="1.5" stroke-linecap="round" stroke-linejoin="round" stroke-miterlimit="22.926" d="
	M750.159,144.26c0.459-1.256,1.104-1.797,1.828-1.135c-2.401-2.246-4.373-6.181-5.878-9.076c-1.907-3.667-3.993-7.27-5.813-10.963
	c-3.855-7.821-7.041-16.098-11.393-23.688c-3.959-6.905-6.551-14.293-8.821-21.843c-2.468-8.208-3.789-16.795-0.221-24.954
	c3.277-7.49,14.505-10.745,22.111-7.064c4.661,2.255,8.303,16.028,11.878,5.491c4.251-12.529-8.163-24.218-19.142-28.548
	c-14.028-5.533-27.407-1.21-39.421,7.066c-17.183,11.837-27.462,32.221-35.245,50.518c-5.095,11.981-7.977,25.815-9.067,38.715
	c-0.474,5.603-0.806,11.265-1.302,16.824c-0.235,2.632,1.648,8.287-0.178,10.458c4.158,9.104,13.542,12.791,23.197,15.491
	c5.807,1.624,11.686,0.556,17.679,0.985c9.119,0.653,17.859-1.319,26.89-2.297c7.339-0.794,15.82-1.846,22.806-4.151
	c2.651-0.875,5.063-2.291,6.87-4.302c2.059-2.291,2.693-4.661,3.725-7.329C750.719,144.064,750.371,143.827,750.159,144.26z"/>
<path fill="#FFFFFF" d="M760.625,154.628c-0.695,4.048-5.145,6.913-8.457,8.788c-5.665,3.205-12.28,5.092-18.176,7.938
	c-12.596,6.083-30.645,9.708-44.434,8.43c-8.934-0.828-17.718-3.7-25.721-7.657c-5.615-2.776-14.376-5.958-18.373-11.029
	c-2.33-2.955-3.993-8.73-1.094-11.9c7.528-8.228,18.569,2.338,25.443,5.634c6.924,3.32,13.882,5.712,21.483,6.675
	c18.941,2.4,32.717-3.935,48.541-13.272c5.128-3.026,8.374-7.202,14.24-4.879C757.057,144.535,761.274,150.845,760.625,154.628"/>
<path fill="none" stroke="#000000" stroke-width="1.5" stroke-linecap="round" stroke-linejoin="round" stroke-miterlimit="22.926" d="
	M760.625,154.628c-0.695,4.048-5.145,6.913-8.457,8.788c-5.665,3.205-12.28,5.092-18.176,7.938
	c-12.596,6.083-30.645,9.708-44.434,8.43c-8.934-0.828-17.718-3.7-25.721-7.657c-5.615-2.776-14.376-5.958-18.373-11.029
	c-2.33-2.955-3.993-8.73-1.094-11.9c7.528-8.228,18.569,2.338,25.443,5.634c6.924,3.32,13.882,5.712,21.483,6.675
	c18.941,2.4,32.717-3.935,48.541-13.272c5.128-3.026,8.374-7.202,14.24-4.879C757.057,144.535,761.274,150.845,760.625,154.628z"/>
<path fill="#FFFFFF" d="M641.508,300.67c-0.719-1.086-1.258-1.914-1.4-2.167c-2.1-3.732-3.805-7.665-5.064-11.759
	c-2.569-8.353-6.047-16.378-6.043-25.305c0.003-6.721,0.851-20.119,6.996-24.619c5.078,5.351,4.811,15.203,11.254,19.659
	c1.176-2.158-0.37-5.761,1.738-7.418c6.901,6.14,9.921,16.209,17.58,21.75c1.181-1.28,4.403-8.549,6.309-8.774
	c2.086-0.246,5.225,4.834,6.097,5.867c2.405,2.851,4.413,5.949,6.618,8.944c0.832-1.657,1.781-3.169,2.186-5.015
	c4.944,1.099,8.744,8.222,12.475,11.434c0.924-1.398,2.935-7.193,4.848-7.838c2.226-0.75,6.596,5.346,8.354,6.604
	c2.232-4.118,3.475-9.676,6.323-13.29c2.712,1.845,5.811,3.516,7.998,5.99c0.024-0.025,0.052-0.045,0.083-0.062
	c1.259-4.18,3.005-8.217,5.104-12.043c1.785-3.258,4.928-6.665,6.014-10.284c2.808,2.82,5.116,5.627,6.978,9.156
	c0.511,0.101-0.152-0.502,0.165,0.163c0.933-3.306,3.961-6.573,5.856-9.43c1.031-1.553,2.103-3.947,3.587-4.923
	c1.996,1.948,4.07,5.546,4.664,8.201c2.84-3.62,5.103-8.14,8.054-11.509c5.794,6.157,6.646,13.1,6.105,21.482
	c-0.371,5.756-1.409,10.793-3.513,16.168c-1.666,4.255-4.104,8.174-5.602,12.5c-0.438,1.266-4.388,7.473-4.023,8.248
	c-2.19-4.064-2.262-10.092-5.459-13.767c-2.569,12.725-7.017,31.229-22.414,33.482c1.255-5.34,2.077-10.783,3.555-16.101
	c-6.193,6.621-9.162,20.037-20.406,20.057c-0.304-6.288,0.302-14.216-4.055-19.318c-5.555,5.481-6.146,14.414-11.615,20.042
	c-7.317-5.748-11.734-14.094-19.796-19.221c-0.344,6.654,1.485,13.104,1.338,19.705c-12.899-6.638-25.787-22.02-32.606-34.473
	c-1.988,4.93,1.109,12.044-2.776,16.01C646.992,308.835,643.534,303.731,641.508,300.67"/>
<path fill="none" stroke="#000000" stroke-width="1.5" stroke-linecap="round" stroke-linejoin="round" stroke-miterlimit="22.926" d="
	M641.508,300.67c-0.719-1.086-1.258-1.914-1.4-2.167c-2.1-3.732-3.805-7.665-5.064-11.759c-2.569-8.353-6.047-16.378-6.043-25.305
	c0.003-6.721,0.851-20.119,6.996-24.619c5.078,5.351,4.811,15.203,11.254,19.659c1.176-2.158-0.37-5.761,1.738-7.418
	c6.901,6.14,9.921,16.209,17.58,21.75c1.181-1.28,4.403-8.549,6.309-8.774c2.086-0.246,5.225,4.834,6.097,5.867
	c2.405,2.851,4.413,5.949,6.618,8.944c0.832-1.657,1.781-3.169,2.186-5.015c4.944,1.099,8.744,8.222,12.475,11.434
	c0.924-1.398,2.935-7.193,4.848-7.838c2.226-0.75,6.596,5.346,8.354,6.604c2.232-4.118,3.475-9.676,6.323-13.29
	c2.712,1.845,5.811,3.516,7.998,5.99c0.024-0.025,0.052-0.045,0.083-0.062c1.259-4.18,3.005-8.217,5.104-12.043
	c1.785-3.258,4.928-6.665,6.014-10.284c2.808,2.82,5.116,5.627,6.978,9.156c0.511,0.101-0.152-0.502,0.165,0.163
	c0.933-3.306,3.961-6.573,5.856-9.43c1.031-1.553,2.103-3.947,3.587-4.923c1.996,1.948,4.07,5.546,4.664,8.201
	c2.84-3.62,5.103-8.14,8.054-11.509c5.794,6.157,6.646,13.1,6.105,21.482c-0.371,5.756-1.409,10.793-3.513,16.168
	c-1.666,4.255-4.104,8.174-5.602,12.5c-0.438,1.266-4.388,7.473-4.023,8.248c-2.19-4.064-2.262-10.092-5.459-13.767
	c-2.569,12.725-7.017,31.229-22.414,33.482c1.255-5.34,2.077-10.783,3.555-16.101c-6.193,6.621-9.162,20.037-20.406,20.057
	c-0.304-6.288,0.302-14.216-4.055-19.318c-5.555,5.481-6.146,14.414-11.615,20.042c-7.317-5.748-11.734-14.094-19.796-19.221
	c-0.344,6.654,1.485,13.104,1.338,19.705c-12.899-6.638-25.787-22.02-32.606-34.473c-1.988,4.93,1.109,12.044-2.776,16.01
	C646.992,308.835,643.534,303.731,641.508,300.67z"/>
<path fill="#FFFFFF" d="M666.5,263.065c10.287-0.002,16.189-6.315,24.169-11.449c0.363,1.801-0.463,3.454-1.266,4.988
	c5.327,0.152,8.572-3.98,12.792-6.212c1.098,2.307,5.032,6.689,7.783,6.694c0.098-2.113-0.169-4.191-0.39-6.206
	c4.649,4.271,9.195,9.534,15.648,11.168c3.196,0.809,6.73,0.631,9.972,0.285c-6.438-1.187-10.852-10.24-15.348-14.395
	c-4.938-4.563-14.035-7.406-20.77-7.378c-6.912,0.029-13.034,3.212-18.074,7.731c-3.652,3.276-5.596,7.162-8.664,10.826
	c-1.3,1.554-3.082,3.451-5.135,3.905C667.296,263.958,667.223,264.889,666.5,263.065"/>
<path fill="none" stroke="#000000" stroke-width="1.5" stroke-linecap="round" stroke-linejoin="round" stroke-miterlimit="22.926" d="
	M666.5,263.065c10.287-0.002,16.189-6.315,24.169-11.449c0.363,1.801-0.463,3.454-1.266,4.988c5.327,0.152,8.572-3.98,12.792-6.212
	c1.098,2.307,5.032,6.689,7.783,6.694c0.098-2.113-0.169-4.191-0.39-6.206c4.649,4.271,9.195,9.534,15.648,11.168
	c3.196,0.809,6.73,0.631,9.972,0.285c-6.438-1.187-10.852-10.24-15.348-14.395c-4.938-4.563-14.035-7.406-20.77-7.378
	c-6.912,0.029-13.034,3.212-18.074,7.731c-3.652,3.276-5.596,7.162-8.664,10.826c-1.3,1.554-3.082,3.451-5.135,3.905
	C667.296,263.958,667.223,264.889,666.5,263.065z"/>
<path fill="none" stroke="#010101" stroke-width="1.5" stroke-linecap="round" stroke-linejoin="round" stroke-miterlimit="22.926" d="
	M720.744,495.446c-2.283-1.222-4.595-2.368-6.947-3.413c-3.255-1.447-6.604-2.867-10.114-3.713
	c-6.577-1.586-17.415-6.426-21.744,1.41c-1.738,3.148-0.842,7.387,0.13,10.693c1.612,5.479,4.545,10.415,7.687,15.14
	c2.59,3.893,5.132,8.99,8.697,12.076c2.441,2.112,2.602,1.554,5.339,0.668c3.357-1.085,6.831-0.2,9.595,1.896
	c5.594,4.243,8.103,12.982,3.865,18.993c-2.672,3.789-7.17,5.786-11.672,4.695c-3.562-0.861-7.006-3.398-8.798-6.532
	c-0.778-1.362-1.671-2.972-1.87-4.55c-0.162-1.28,0.743-2.853,0.438-3.938c-0.352-1.245-2.848-2.946-3.748-3.87
	c-5.512-5.65-9.38-13.163-13.865-19.604c-5.741-8.249-12.202-17.189-20.688-22.822c-6.947-4.613-13.828-4.002-21.733-4.002h-16.232
	v30.689h-22.68c-7.83,0-14.17-6.35-14.17-14.17v-65.89c0-7.83,6.34-14.18,14.17-14.18h22.68v26.699h71.101h0.631
	c7.492-5.688,14.428-11.668,21.458-17.972c5.952-5.338,12.432-10.547,19.076-14.926c-0.735,0.485-2.609-5.244-2.676-5.834
	c-0.25-2.25,0.312-4.509,1.38-6.487c2.107-3.908,6.402-6.954,10.9-7.185c9.733-0.5,18.394,6.574,15.42,16.821
	c-2.194,7.54-9.484,12.007-16.855,8.407c-0.926,1.642-3.625,2.75-5.131,4.107c-1.808,1.629-3.387,3.488-5.166,5.143
	c-3.797,3.53-7.37,7.293-11.215,10.772c-4.826,4.368-9.682,8.749-14.851,12.649c17.926-0.339,37.579,2.125,53.304,1.151
	c0.41-2.61,0.976-4.63,3.226-6.806c5.129-4.961,12.613-6.399,18.498-2.085c3.419,2.506,6.029,5.442,6.673,9.788
	c0.553,3.738,0.357,8.479-1.967,11.631c-4.43,6.005-11.359,8.104-18.395,5.892c-3.89-1.223-8.13-4.405-7.775-8.988
	c-3.117-0.077-6.264-0.019-9.39-0.019c-3.538-0.001-6.987-0.26-10.502,0.067c-5.26,0.492-10.088-0.38-15.175-0.336
	c-4.986,0.043-13.409-1.16-17.617,1.887c3.42,5.063,8.732,8.29,13.705,11.461c1.907,1.216,3.776,2.519,5.736,3.648
	c3.562,2.055,6.859,4.357,10.301,6.533c5.2,3.288,11.265,5.331,16.484,8.523c2.449-3.613,6.726-4.288,10.944-3.103
	c6.12,1.721,9.395,6.568,9.5,12.764c0.128,7.486-5.828,15.529-13.932,15.071c-4.261-0.242-8.379-2.084-10.698-5.786
	c-1.572-2.51-2.583-5.635-1.158-8.447c-3.895-2.966-8.44-5.203-12.584-7.804C728.521,499.87,724.676,497.548,720.744,495.446z"/>
<path fill="none" stroke="#010101" stroke-width="1.5" stroke-linecap="round" stroke-linejoin="round" stroke-miterlimit="22.926" d="
	M692,519.14c2.431-10.798,10.246-18.808,21.357-21.204c1.849-0.397,10.039-0.472,12.393,0.32"/>
<rect y="0" fill="none" width="878.582" height="841.89"/>
</svg>
