<?xml version="1.0" encoding="utf-8"?>
<!-- Generator: Adobe Illustrator 15.1.0, SVG Export Plug-In . SVG Version: 6.00 Build 0)  -->
<!DOCTYPE svg PUBLIC "-//W3C//DTD SVG 1.1//EN" "http://www.w3.org/Graphics/SVG/1.1/DTD/svg11.dtd">
<svg version="1.1" id="Layer_1" xmlns="http://www.w3.org/2000/svg" xmlns:xlink="http://www.w3.org/1999/xlink" x="0px" y="0px"
	 width="843.173px" height="841.89px" viewBox="0 0 843.173 841.89" enable-background="new 0 0 843.173 841.89"
	 xml:space="preserve">
<path fill="none" stroke="#010101" stroke-width="1.5" stroke-linecap="round" stroke-linejoin="round" stroke-miterlimit="22.926" d="
	M370.17,334.219h1.138c0.747-1.291,1.823-2.367,3.114-3.114v-1.138h4.252h4.252v1.138c1.291,0.747,2.367,1.823,3.114,3.114h1.138
	v4.252v4.252h-1.138c-0.747,1.291-1.823,2.367-3.114,3.114v1.138h-4.252h-4.252v-1.138c-1.291-0.747-2.367-1.823-3.114-3.114h-1.138
	v-4.252V334.219z"/>
<rect x="398.517" y="334.219" fill="none" stroke="#010101" stroke-width="1.5" stroke-linecap="round" stroke-linejoin="round" stroke-miterlimit="22.926" width="17.008" height="8.504"/>
<rect x="455.21" y="334.219" fill="none" stroke="#010101" stroke-width="1.5" stroke-linecap="round" stroke-linejoin="round" stroke-miterlimit="22.926" width="17.009" height="8.504"/>
<path fill="none" stroke="#010101" stroke-width="1.5" stroke-linecap="round" stroke-linejoin="round" stroke-miterlimit="22.926" d="
	M483.557,334.219h1.137c0.747-1.291,1.824-2.367,3.114-3.114v-1.138h4.253h4.252v1.138c1.29,0.747,2.367,1.823,3.114,3.114h1.138
	v4.252v4.252h-1.138c-0.747,1.291-1.824,2.367-3.114,3.114v1.138h-4.252h-4.253v-1.138c-1.29-0.747-2.367-1.823-3.114-3.114h-1.137
	v-4.252V334.219z"/>
<path fill="none" stroke="#010101" stroke-width="1.5" stroke-linecap="round" stroke-linejoin="round" stroke-miterlimit="22.926" d="
	M453.793,309.072v10.973h56.692v22.677c0,7.826-6.347,14.173-14.173,14.173h-121.89c-7.826,0-14.173-6.347-14.173-14.173v-22.677
	h56.693v-10.973"/>
<path fill="none" stroke="#010101" stroke-width="1.5" stroke-linecap="round" stroke-linejoin="round" stroke-miterlimit="22.926" d="
	M426.863,334.219h1.139c0.746-1.291,1.821-2.367,3.112-3.114v-1.138h4.253h4.252v1.138c1.291,0.747,2.366,1.823,3.113,3.114h1.139
	v4.252v4.252h-1.139c-0.747,1.291-1.822,2.367-3.113,3.114v1.138h-4.252h-4.253v-1.138c-1.291-0.747-2.366-1.823-3.112-3.114h-1.139
	v-4.252V334.219z"/>
<line fill="none" stroke="#010101" stroke-width="1.5" stroke-linecap="round" stroke-linejoin="round" stroke-miterlimit="22.926" x1="386.136" y1="286.781" x2="481.136" y2="286.781"/>
<path fill="none" stroke="#010101" stroke-width="1.5" stroke-linecap="round" stroke-linejoin="round" stroke-miterlimit="22.926" d="
	M392.943,286.751c-0.53-5.91,4.927-11.631,10.855-11.38c1.616,0.068,3.257,0.54,4.495,1.58c2.291,1.921,2.721,6.074,2.785,9.063"/>
<path fill="none" stroke="#010101" stroke-width="1.5" stroke-linecap="round" stroke-linejoin="round" stroke-miterlimit="22.926" d="
	M412.17,286.259c0.395-5.714,5.682-10.655,11.411-10.662c5.727-0.007,11.026,4.919,11.438,10.632
	c1.155-5.483,5.325-10.616,10.862-11.478c5.538-0.862,11.667,6.418,11.004,11.983c0.693-3.197,2.229-8.85,4.897-10.743
	c2.669-1.892,6.604-2.194,9.128-0.115c1.197,0.986,1.982,2.387,2.578,3.821c0.784,1.897,1.289,3.913,1.484,5.958"/>
<path d="M395.996,233.678c0.3,2.514,2.666,4.611,5.198,4.605c2.532-0.005,4.889-2.111,5.178-4.627"/>
<path fill="none" stroke="#010101" stroke-width="1.5" stroke-linecap="round" stroke-linejoin="round" stroke-miterlimit="22.926" d="
	M395.996,233.678c0.3,2.514,2.666,4.611,5.198,4.605c2.532-0.005,4.889-2.111,5.178-4.627"/>
<path fill="none" stroke="#010101" stroke-width="1.5" stroke-linecap="round" stroke-linejoin="round" stroke-miterlimit="22.926" d="
	M398.415,233.747c-8.216,0.01-16.432-0.128-24.644-0.416c0.733,4.166,2.109,8.241,4.305,11.854c2.003,3.294,4.705,6.193,7.959,8.249
	c6.535,3.493,14.181,5.527,21.478,4.187c2.393-0.479,4.734-1.225,6.961-2.225c4.185-2.846,5.98-4.027,8.969-8.114
	c2.989-4.09,4.873-9.165,4.363-14.205c-1.564,0.069-3.129,0.133-4.692,0.192c-4.645,0.174-9.292,0.301-13.94,0.38
	C405.588,233.71,402.001,233.743,398.415,233.747z"/>
<path d="M472.323,233.678c-0.301,2.514-2.667,4.611-5.199,4.605c-2.532-0.005-4.889-2.111-5.177-4.627"/>
<path fill="none" stroke="#010101" stroke-width="1.5" stroke-linecap="round" stroke-linejoin="round" stroke-miterlimit="22.926" d="
	M472.323,233.678c-0.301,2.514-2.667,4.611-5.199,4.605c-2.532-0.005-4.889-2.111-5.177-4.627"/>
<path fill="none" stroke="#010101" stroke-width="1.5" stroke-linecap="round" stroke-linejoin="round" stroke-miterlimit="22.926" d="
	M469.902,233.747c8.217,0.01,16.432-0.128,24.645-0.416c-0.732,4.166-2.108,8.241-4.305,11.854c-2.003,3.294-4.706,6.193-7.96,8.249
	c-6.534,3.493-14.18,5.527-21.478,4.187c-2.394-0.479-4.734-1.225-6.961-2.225c-4.186-2.846-5.979-4.027-8.97-8.114
	c-2.988-4.09-4.874-9.165-4.362-14.205c1.564,0.069,3.128,0.133,4.691,0.192c4.646,0.174,9.292,0.301,13.94,0.38
	C462.73,233.71,466.316,233.743,469.902,233.747z"/>
<g>
	<defs>
		<rect id="SVGID_1_" x="584.574" y="404.562" width="186.9" height="135.206"/>
	</defs>
	<clipPath id="SVGID_2_">
		<use xlink:href="#SVGID_1_"  overflow="visible"/>
	</clipPath>
	
		<path clip-path="url(#SVGID_2_)" fill="none" stroke="#000000" stroke-width="1.5" stroke-linecap="round" stroke-linejoin="round" stroke-miterlimit="22.926" d="
		M712.283,533.007c0.111-2.101,0.44-6.84-0.34-8.141c-0.08-0.069-0.02-0.25,0.15-0.37c2.35,0.171,7.529-1.149,8.729,1.7
		C722.404,529.967,715.043,533.717,712.283,533.007z"/>
	
		<path clip-path="url(#SVGID_2_)" fill="none" stroke="#000000" stroke-width="1.5" stroke-linecap="round" stroke-linejoin="round" stroke-miterlimit="22.926" d="
		M759.854,434.196c0.04,0.71-0.181,1.45-0.69,1.94c-0.341,0.31-0.77,0.5-1.199,0.66c-3.012,1.12-6.291,1.25-9.5,1.359
		c-0.342-3.18-0.371-6.399-0.102-9.6c1.621,0.3,3.23,0.6,4.852,0.89c1.449,0.271,2.93,0.55,4.219,1.271
		C758.715,431.446,759.783,432.727,759.854,434.196z"/>
	
		<path clip-path="url(#SVGID_2_)" fill="none" stroke="#000000" stroke-width="1.5" stroke-linecap="round" stroke-linejoin="round" stroke-miterlimit="22.926" d="
		M765.334,466.097c-0.4,0.54-1.02,0.88-1.621,1.18c-3.559,1.76-7.449,2.83-11.408,3.13c-0.07,0-0.15,0.011-0.221-0.04
		c-0.081-0.05-0.1-0.159-0.11-0.26c-0.39-2.82-0.56-5.68-0.5-8.53c2.831-0.729,5.771-1.01,8.681-0.84
		c1.529,0.09,3.129,0.34,4.33,1.29C765.674,462.986,766.244,464.866,765.334,466.097z"/>
	
		<path clip-path="url(#SVGID_2_)" fill="none" stroke="#000000" stroke-width="1.5" stroke-linecap="round" stroke-linejoin="round" stroke-miterlimit="22.926" d="
		M766.033,494.977c-0.379,1.33-1.85,1.96-3.17,2.38c-3.09,0.98-6.24,1.771-9.43,2.351c-0.48-0.32-0.549-0.98-0.59-1.561
		c-0.12-2.2-0.239-4.4-0.359-6.6c2.769-0.37,5.57-0.511,8.37-0.431c1.25,0.03,2.54,0.13,3.63,0.75
		C765.573,492.486,766.373,493.776,766.033,494.977z"/>
	
		<path clip-path="url(#SVGID_2_)" fill="none" stroke="#000000" stroke-width="1.5" stroke-linecap="round" stroke-linejoin="round" stroke-miterlimit="22.926" d="
		M766.033,494.977c-0.379,1.33-1.85,1.96-3.17,2.38c-3.09,0.98-6.24,1.771-9.43,2.351c-0.48-0.32-0.549-0.98-0.59-1.561
		c-0.12-2.2-0.239-4.4-0.359-6.6c2.769-0.37,5.57-0.511,8.37-0.431c1.25,0.03,2.54,0.13,3.63,0.75
		C765.573,492.486,766.373,493.776,766.033,494.977z"/>
	
		<path clip-path="url(#SVGID_2_)" fill="none" stroke="#000000" stroke-width="1.5" stroke-linecap="round" stroke-linejoin="round" stroke-miterlimit="22.926" d="
		M759.854,434.196c0.04,0.71-0.181,1.45-0.69,1.94c-0.341,0.31-0.77,0.5-1.199,0.66c-3.012,1.12-6.291,1.25-9.5,1.359
		c-0.342-3.18-0.371-6.399-0.102-9.6c1.621,0.3,3.23,0.6,4.852,0.89c1.449,0.271,2.93,0.55,4.219,1.271
		C758.715,431.446,759.783,432.727,759.854,434.196z"/>
	
		<path clip-path="url(#SVGID_2_)" fill="none" stroke="#000000" stroke-width="1.5" stroke-linecap="round" stroke-linejoin="round" stroke-miterlimit="22.926" d="
		M765.334,466.097c-0.4,0.54-1.02,0.88-1.621,1.18c-3.559,1.76-7.449,2.83-11.408,3.13c-0.07,0-0.15,0.011-0.221-0.04
		c-0.081-0.05-0.1-0.159-0.11-0.26c-0.39-2.82-0.56-5.68-0.5-8.53c2.831-0.729,5.771-1.01,8.681-0.84
		c1.529,0.09,3.129,0.34,4.33,1.29C765.674,462.986,766.244,464.866,765.334,466.097z"/>
	
		<path clip-path="url(#SVGID_2_)" fill="none" stroke="#000000" stroke-width="1.5" stroke-linecap="round" stroke-linejoin="round" stroke-miterlimit="22.926" d="
		M712.283,533.007c0.111-2.101,0.44-6.84-0.34-8.141c-0.08-0.069-0.02-0.25,0.15-0.37c2.35,0.171,7.529-1.149,8.729,1.7
		C722.404,529.967,715.043,533.717,712.283,533.007z"/>
	
		<path clip-path="url(#SVGID_2_)" fill="none" stroke="#010101" stroke-width="1.5" stroke-linecap="round" stroke-linejoin="round" stroke-miterlimit="22.926" d="
		M612.25,505.63h-1.14c-0.747,1.291-1.821,2.367-3.112,3.114v1.139h-4.252h-4.254v-1.139c-1.291-0.747-2.365-1.823-3.113-3.114
		h-1.139v-4.252v-4.252h1.139c0.748-1.291,1.822-2.366,3.113-3.113v-1.139h4.254h4.252v1.139c1.291,0.747,2.365,1.822,3.112,3.113
		h1.14v4.252V505.63z"/>
	
		<rect x="599.494" y="464.527" clip-path="url(#SVGID_2_)" fill="none" stroke="#010101" stroke-width="1.5" stroke-linecap="round" stroke-linejoin="round" stroke-miterlimit="22.926" width="8.504" height="17.008"/>
	
		<path clip-path="url(#SVGID_2_)" fill="none" stroke="#010101" stroke-width="1.5" stroke-linecap="round" stroke-linejoin="round" stroke-miterlimit="22.926" d="
		M612.25,448.938h-1.14c-0.747,1.291-1.821,2.367-3.112,3.114v1.138h-4.252h-4.254v-1.138c-1.291-0.747-2.365-1.823-3.113-3.114
		h-1.139v-4.252v-4.252h1.139c0.748-1.291,1.822-2.367,3.113-3.114v-1.138h4.254h4.252v1.138c1.291,0.747,2.365,1.823,3.112,3.114
		h1.14v4.252V448.938z"/>
	
		<path clip-path="url(#SVGID_2_)" fill="none" stroke="#000000" stroke-width="1.5" stroke-linecap="round" stroke-linejoin="round" stroke-miterlimit="22.926" d="
		M680.934,528.887c0.319,0.229,0.64,0.46,0.971,0.67c0.119-0.32-0.66-0.45-0.531-0.771
		C680.923,528.876,681.373,528.786,680.934,528.887z M720.823,526.196c-1.2-2.85-6.38-1.53-8.729-1.7
		c-0.171,0.12-0.23,0.301-0.15,0.37c0.78,1.3,0.451,6.04,0.34,8.141C715.043,533.717,722.404,529.967,720.823,526.196z
		 M757.434,430.717c-1.289-0.721-2.77-1-4.221-1.271c-1.619-0.29-3.229-0.59-4.85-0.89c-0.27,3.2-0.24,6.42,0.1,9.6
		c3.21-0.109,6.49-0.24,9.5-1.359c0.432-0.16,0.86-0.351,1.201-0.66c0.509-0.49,0.73-1.23,0.69-1.94
		C759.783,432.727,758.713,431.446,757.434,430.717z M764.484,462.026c-1.201-0.95-2.801-1.2-4.33-1.29
		c-2.91-0.17-5.85,0.11-8.681,0.84c-0.06,2.851,0.11,5.71,0.5,8.53c0.011,0.1,0.029,0.21,0.11,0.26c0.07,0.05,0.15,0.04,0.221,0.04
		c3.959-0.3,7.85-1.37,11.408-3.13c0.602-0.3,1.221-0.64,1.621-1.18C766.244,464.866,765.673,462.986,764.484,462.026z
		 M764.484,491.866c-1.09-0.62-2.38-0.72-3.63-0.75c-2.8-0.08-5.602,0.061-8.37,0.431c0.12,2.199,0.239,4.399,0.359,6.6
		c0.039,0.58,0.109,1.24,0.59,1.56c3.189-0.58,6.34-1.37,9.43-2.35c1.32-0.42,2.791-1.05,3.17-2.38
		C766.373,493.776,765.573,492.486,764.484,491.866z M764.484,462.026c-1.201-0.95-2.801-1.2-4.33-1.29
		c-2.91-0.17-5.85,0.11-8.681,0.84c-0.06,2.851,0.11,5.71,0.5,8.53c0.011,0.1,0.029,0.21,0.11,0.26c0.07,0.05,0.15,0.04,0.221,0.04
		c3.959-0.3,7.85-1.37,11.408-3.13c0.602-0.3,1.221-0.64,1.621-1.18C766.244,464.866,765.673,462.986,764.484,462.026z
		 M757.434,430.717c-1.289-0.721-2.77-1-4.221-1.271c-1.619-0.29-3.229-0.59-4.85-0.89c-0.27,3.2-0.24,6.42,0.1,9.6
		c3.21-0.109,6.49-0.24,9.5-1.359c0.432-0.16,0.86-0.351,1.201-0.66c0.509-0.49,0.73-1.23,0.69-1.94
		C759.783,432.727,758.713,431.446,757.434,430.717z M720.823,526.196c-1.2-2.85-6.38-1.53-8.729-1.7
		c-0.171,0.12-0.23,0.301-0.15,0.37c0.78,1.3,0.451,6.04,0.34,8.141C715.043,533.717,722.404,529.967,720.823,526.196z
		 M764.484,491.866c-1.09-0.62-2.38-0.72-3.63-0.75c-2.8-0.08-5.602,0.061-8.37,0.431c0.12,2.199,0.239,4.399,0.359,6.6
		c0.039,0.58,0.109,1.24,0.59,1.56c3.189-0.58,6.34-1.37,9.43-2.35c1.32-0.42,2.791-1.05,3.17-2.38
		C766.373,493.776,765.573,492.486,764.484,491.866z"/>
	
		<path clip-path="url(#SVGID_2_)" fill="none" stroke="#000000" stroke-width="1.5" stroke-linecap="round" stroke-linejoin="round" stroke-miterlimit="22.926" d="
		M711.963,422.967C712.043,423.576,712.253,422.437,711.963,422.967"/>
	
		<line clip-path="url(#SVGID_2_)" fill="none" stroke="#000000" stroke-width="1.5" stroke-linecap="round" stroke-linejoin="round" stroke-miterlimit="22.926" x1="656.273" y1="452.257" x2="655.773" y2="452.257"/>
	
		<path clip-path="url(#SVGID_2_)" fill="none" stroke="#000000" stroke-width="1.5" stroke-linecap="round" stroke-linejoin="round" stroke-miterlimit="22.926" d="
		M622.176,452.258v-0.73v-25.97h-22.68c-7.831,0-14.172,6.35-14.172,14.18v65.891c0,7.819,6.341,14.17,14.172,14.17h22.68v-30.69"/>
	
		<line clip-path="url(#SVGID_2_)" fill="none" stroke="#000000" stroke-width="1.5" stroke-linecap="round" stroke-linejoin="round" stroke-miterlimit="22.926" x1="622.176" y1="452.258" x2="622.176" y2="451.527"/>
	
		<path clip-path="url(#SVGID_2_)" fill="none" stroke="#000000" stroke-width="1.5" stroke-linecap="round" stroke-linejoin="round" stroke-miterlimit="22.926" d="
		M761.023,487.066c-3.689-0.42-7.389-0.6-11.1-0.67c-10.68-0.2-21.42,0.55-32.039-0.68c-0.852-0.09-1.762-0.23-2.432-0.771
		c-1.449-1.189-0.889-3.72,0.602-4.859c1.488-1.141,3.488-1.29,5.369-1.42c12.32-0.83,24.579-2.631,36.631-5.37
		c4.5-1.021,9.439-2.53,11.709-6.54c0.989-1.74,1.33-3.95,0.471-5.761c-0.891-1.85-2.83-2.97-4.761-3.68
		c-4.65-1.72-9.721-1.76-14.669-1.89c-12.25-0.33-24.49-1.33-36.631-3c-1.461-0.2-3.351-0.79-3.131-2.65
		c0.301-2.63,3.53-3.49,5.711-3.819c2.27-0.341,4.59-0.28,6.859-0.561c5.92-0.72,11.84-1.49,17.75-2.31
		c3.36-0.46,6.721-0.99,10.08-1.431c2.81-0.37,5.74-0.56,8.26-1.989c2.99-1.7,5.221-5.271,4.23-8.57
		c-1.029-3.43-4.891-5.101-8.4-5.851c-5.92-1.279-12.549-1.55-18.6-1.829c-5.4-0.25-10.799-0.391-16.199-0.431
		c-2.951-0.02-5.881,0.13-8.771-0.02c-0.309-2.58-3.408-5.63-4.699-7.28c-4.48-5.74-9.66-10.67-17.5-10.36
		c2.83,5.01,3.16,10.23,4.551,15.62c-8.061-5.51-17.43-9.65-27.591-8.89c2.19,6.01,6.45,13.63,3.97,20.34
		c-5.97-3.15-14.77-8-21.59-7.74c3.061,6.721,9.25,20.23,6.67,27.601h-33.6v36.85h32.26c-1.65,3.75-1.391,9.73-2.17,13.64
		c-0.98,4.9-2.84,10.36-3.221,15.25c4.311-1.55,9.012-2.569,13.381-3.869c3.73,5.18,0.631,14.159-0.7,19.609
		c6.681-0.77,12.931-3.399,19.21-4.85c0.439-0.101,0.52,0.76,0.971,0.67c-0.131,0.32,0.119-0.32,0,0
		c6.459,4.439,13.66,7.61,21.169,8.95c3.69,0.66,7.591,0.84,11.12-0.431c2.02-0.739,3.85-1.93,5.641-3.119
		c2.801-1.87,5.869-4.32,5.89-7.681c0.011-2.99-2.55-5.47-5.36-6.47c-2.809-1-5.869-0.89-8.85-1.04
		c-2.891-0.14-5.77-0.521-8.609-1.1c-2.76-0.561-5.66-1.391-7.551-3.49c-1.68-1.87-1.619-4.69-0.709-6.9
		c0.059-0.12,0.119-0.26,0.24-0.319c0.119-0.07,0.279-0.051,0.42-0.021c2.059,0.39,4.119,0.89,6.219,1.03
		c2.66,0.18,5.32,0.31,7.99,0.37c5.34,0.13,10.68,0.029,16-0.311c8.07-0.5,16.091-1.54,24.02-3.09c2.67-0.53,5.34-1.12,7.99-1.76
		c3.43-0.84,6.99-1.86,9.55-4.29c2.562-2.43,3.72-6.7,1.63-9.55C767.003,488.026,763.873,487.387,761.023,487.066z M751.474,461.576
		c2.831-0.729,5.771-1.01,8.681-0.84c1.529,0.09,3.129,0.34,4.33,1.29c1.189,0.96,1.76,2.84,0.85,4.07
		c-0.4,0.54-1.02,0.88-1.621,1.18c-3.559,1.76-7.449,2.83-11.408,3.13c-0.07,0-0.15,0.011-0.221-0.04
		c-0.081-0.05-0.1-0.159-0.11-0.26C751.584,467.286,751.414,464.427,751.474,461.576z M748.363,428.557
		c1.621,0.3,3.23,0.6,4.85,0.89c1.451,0.271,2.932,0.55,4.221,1.271c1.279,0.729,2.35,2.01,2.421,3.479
		c0.04,0.71-0.181,1.45-0.69,1.94c-0.341,0.31-0.77,0.5-1.201,0.66c-3.01,1.12-6.289,1.25-9.5,1.359
		C748.123,434.977,748.094,431.757,748.363,428.557z M712.094,524.496c2.35,0.171,7.529-1.149,8.729,1.7
		c1.581,3.771-5.78,7.521-8.54,6.811c0.111-2.101,0.44-6.84-0.34-8.141C711.863,524.797,711.924,524.616,712.094,524.496z
		 M766.033,494.977c-0.379,1.33-1.85,1.96-3.17,2.38c-3.09,0.98-6.24,1.771-9.43,2.351c-0.48-0.32-0.549-0.98-0.59-1.561
		c-0.12-2.2-0.239-4.4-0.359-6.6c2.769-0.37,5.57-0.511,8.37-0.431c1.25,0.03,2.54,0.13,3.63,0.75
		C765.573,492.486,766.373,493.776,766.033,494.977z"/>
</g>
<path fill="none" stroke="#010101" stroke-width="1.5" stroke-linecap="round" stroke-linejoin="round" stroke-miterlimit="22.926" d="
	M499.697,621.69h-1.139c-0.746,1.291-1.823,2.366-3.114,3.113v1.139h-4.251h-4.253v-1.139c-1.29-0.747-2.367-1.822-3.113-3.113
	h-1.138v-4.252v-4.252h1.138c0.746-1.29,1.823-2.367,3.113-3.114v-1.138h4.253h4.251v1.138c1.291,0.747,2.368,1.824,3.114,3.114
	h1.139v4.252V621.69z"/>
<rect x="454.342" y="613.186" fill="none" stroke="#010101" stroke-width="1.5" stroke-linecap="round" stroke-linejoin="round" stroke-miterlimit="22.926" width="17.008" height="8.504"/>
<rect x="397.649" y="613.186" fill="none" stroke="#010101" stroke-width="1.5" stroke-linecap="round" stroke-linejoin="round" stroke-miterlimit="22.926" width="17.008" height="8.504"/>
<path fill="none" stroke="#010101" stroke-width="1.5" stroke-linecap="round" stroke-linejoin="round" stroke-miterlimit="22.926" d="
	M386.311,621.69h-1.138c-0.747,1.291-1.823,2.366-3.114,3.113v1.139h-4.252h-4.252v-1.139c-1.29-0.747-2.367-1.822-3.114-3.113
	h-1.138v-4.252v-4.252h1.138c0.747-1.29,1.824-2.367,3.114-3.114v-1.138h4.252h4.252v1.138c1.291,0.747,2.367,1.824,3.114,3.114
	h1.138v4.252V621.69z"/>
<path fill="none" stroke="#010101" stroke-width="1.5" stroke-linecap="round" stroke-linejoin="round" stroke-miterlimit="22.926" d="
	M443.003,621.69h-1.138c-0.746,1.291-1.822,2.366-3.113,3.113v1.139h-4.253h-4.251v-1.139c-1.291-0.747-2.367-1.822-3.115-3.113
	h-1.138v-4.252v-4.252h1.138c0.748-1.29,1.824-2.367,3.115-3.114v-1.138h4.251h4.253v1.138c1.291,0.747,2.367,1.824,3.113,3.114
	h1.138v4.252V621.69z"/>
<path fill="none" stroke="#231F20" stroke-width="1.5" stroke-linecap="round" stroke-linejoin="round" stroke-miterlimit="22.926" d="
	M456.744,635.855"/>
<line fill="none" stroke="#231F20" stroke-width="1.5" stroke-linecap="round" stroke-linejoin="round" stroke-miterlimit="22.926" x1="376.075" y1="635.86" x2="412.925" y2="635.86"/>
<line fill="none" stroke="#231F20" stroke-width="1.5" stroke-linecap="round" stroke-linejoin="round" stroke-miterlimit="22.926" x1="457.064" y1="635.86" x2="493.706" y2="635.86"/>
<path fill="none" stroke="#231F20" stroke-width="1.5" stroke-linecap="round" stroke-linejoin="round" stroke-miterlimit="22.926" d="
	M579.225,661.866c-1.336,0.309-5.15,6.322-5.647,7.942c2.353,1.138,5.378,6.074,7.986,4.561
	C586.522,671.489,578.86,662.315,579.225,661.866"/>
<path fill="none" stroke="#231F20" stroke-width="1.5" stroke-linecap="round" stroke-linejoin="round" stroke-miterlimit="22.926" d="
	M564.633,689.825c0.182,0.169,5.479,8.56,0.066,11.028c-3.744,1.708-5.881-3.876-6.766-6.261
	C560.967,693.678,561.699,691.039,564.633,689.825"/>
<path fill="none" stroke="#231F20" stroke-width="1.5" stroke-linecap="round" stroke-linejoin="round" stroke-miterlimit="22.926" d="
	M525.988,701.78c-0.078-0.572,4.262-5.682,4.545-6.17C539.719,694.982,532.673,712.647,525.988,701.78"/>
<g>
	<defs>
		<rect id="SVGID_3_" x="441.074" y="192.98" width="66.633" height="33.831"/>
	</defs>
	<clipPath id="SVGID_4_">
		<use xlink:href="#SVGID_3_"  overflow="visible"/>
	</clipPath>
	
		<path clip-path="url(#SVGID_4_)" fill="none" stroke="#010101" stroke-width="1.5" stroke-linecap="round" stroke-linejoin="round" stroke-miterlimit="22.926" d="
		M441.824,225.44c3.232-0.864,3.232-0.864,4.754-1.112c1.789-0.291,3.546-0.777,5.286-1.275c4.15-1.187,8.208-2.701,12.122-4.518
		c6.607-3.067,12.816-6.996,18.403-11.673c5.667-4.742,11.103-9.71,17.724-13.132c-3.359,7.199-6.859,11.782-11.623,16.375
		c5.782,0.101,11.542,0.412,17.314,0.61c-5.717,4.964-7.383,5.547-14.299,8.329c5.881,0.347,10.611,2.087,15.451,6.472
		c-3.613,0.775-7.316,0.29-10.955,0.482c-4.721,0.249-9.34-0.319-14.153-0.319h-16.226h-12.459h-6.232
		C445.341,225.679,444.35,225.874,441.824,225.44z"/>
</g>
<g>
	<defs>
		<rect id="SVGID_5_" x="358.772" y="192.98" width="66.634" height="33.831"/>
	</defs>
	<clipPath id="SVGID_6_">
		<use xlink:href="#SVGID_5_"  overflow="visible"/>
	</clipPath>
	
		<path clip-path="url(#SVGID_6_)" fill="none" stroke="#010101" stroke-width="1.5" stroke-linecap="round" stroke-linejoin="round" stroke-miterlimit="22.926" d="
		M424.654,225.44c-3.232-0.864-3.232-0.864-4.753-1.112c-1.788-0.291-3.546-0.777-5.286-1.275c-4.15-1.187-8.207-2.701-12.122-4.518
		c-6.608-3.067-12.817-6.996-18.404-11.673c-5.666-4.742-11.102-9.71-17.722-13.132c3.358,7.199,6.858,11.782,11.622,16.375
		c-5.781,0.101-11.542,0.412-17.315,0.61c5.717,4.964,7.384,5.547,14.299,8.329c-5.881,0.347-10.61,2.087-15.451,6.472
		c3.613,0.775,7.316,0.29,10.956,0.482c4.721,0.249,9.339-0.319,14.152-0.319h16.227h12.459h6.231
		C421.138,225.679,422.129,225.874,424.654,225.44z"/>
</g>
<g>
	<defs>
		<rect id="SVGID_7_" x="95.758" y="408.783" width="186.9" height="135.206"/>
	</defs>
	<clipPath id="SVGID_8_">
		<use xlink:href="#SVGID_7_"  overflow="visible"/>
	</clipPath>
	
		<path clip-path="url(#SVGID_8_)" fill="none" stroke="#000000" stroke-width="1.5" stroke-linecap="round" stroke-linejoin="round" stroke-miterlimit="22.926" d="
		M154.949,537.228c-0.11-2.101-0.44-6.84,0.34-8.141c0.08-0.069,0.02-0.25-0.15-0.37c-2.35,0.171-7.53-1.149-8.73,1.7
		C144.829,534.188,152.189,537.938,154.949,537.228z"/>
	
		<path clip-path="url(#SVGID_8_)" fill="none" stroke="#000000" stroke-width="1.5" stroke-linecap="round" stroke-linejoin="round" stroke-miterlimit="22.926" d="
		M107.379,438.417c-0.04,0.71,0.18,1.45,0.69,1.94c0.34,0.31,0.77,0.5,1.2,0.66c3.01,1.12,6.29,1.25,9.5,1.359
		c0.34-3.18,0.37-6.399,0.1-9.6c-1.62,0.3-3.23,0.6-4.85,0.89c-1.45,0.271-2.93,0.55-4.22,1.271
		C108.519,435.667,107.449,436.947,107.379,438.417z"/>
	
		<path clip-path="url(#SVGID_8_)" fill="none" stroke="#000000" stroke-width="1.5" stroke-linecap="round" stroke-linejoin="round" stroke-miterlimit="22.926" d="
		M101.899,470.317c0.4,0.54,1.02,0.88,1.62,1.18c3.56,1.76,7.45,2.83,11.41,3.13c0.07,0,0.15,0.011,0.22-0.04
		c0.08-0.05,0.1-0.159,0.11-0.26c0.39-2.82,0.56-5.68,0.5-8.53c-2.83-0.729-5.77-1.01-8.68-0.84c-1.53,0.09-3.13,0.34-4.33,1.29
		C101.559,467.207,100.989,469.087,101.899,470.317z"/>
	
		<path clip-path="url(#SVGID_8_)" fill="none" stroke="#000000" stroke-width="1.5" stroke-linecap="round" stroke-linejoin="round" stroke-miterlimit="22.926" d="
		M101.199,499.197c0.38,1.33,1.85,1.96,3.17,2.38c3.09,0.98,6.24,1.771,9.43,2.351c0.48-0.32,0.55-0.98,0.59-1.561
		c0.12-2.2,0.24-4.4,0.36-6.6c-2.77-0.37-5.57-0.511-8.37-0.431c-1.25,0.03-2.54,0.13-3.63,0.75S100.859,497.997,101.199,499.197z"
		/>
	
		<path clip-path="url(#SVGID_8_)" fill="none" stroke="#000000" stroke-width="1.5" stroke-linecap="round" stroke-linejoin="round" stroke-miterlimit="22.926" d="
		M101.199,499.197c0.38,1.33,1.85,1.96,3.17,2.38c3.09,0.98,6.24,1.771,9.43,2.351c0.48-0.32,0.55-0.98,0.59-1.561
		c0.12-2.2,0.24-4.4,0.36-6.6c-2.77-0.37-5.57-0.511-8.37-0.431c-1.25,0.03-2.54,0.13-3.63,0.75S100.859,497.997,101.199,499.197z"
		/>
	
		<path clip-path="url(#SVGID_8_)" fill="none" stroke="#000000" stroke-width="1.5" stroke-linecap="round" stroke-linejoin="round" stroke-miterlimit="22.926" d="
		M107.379,438.417c-0.04,0.71,0.18,1.45,0.69,1.94c0.34,0.31,0.77,0.5,1.2,0.66c3.01,1.12,6.29,1.25,9.5,1.359
		c0.34-3.18,0.37-6.399,0.1-9.6c-1.62,0.3-3.23,0.6-4.85,0.89c-1.45,0.271-2.93,0.55-4.22,1.271
		C108.519,435.667,107.449,436.947,107.379,438.417z"/>
	
		<path clip-path="url(#SVGID_8_)" fill="none" stroke="#000000" stroke-width="1.5" stroke-linecap="round" stroke-linejoin="round" stroke-miterlimit="22.926" d="
		M101.899,470.317c0.4,0.54,1.02,0.88,1.62,1.18c3.56,1.76,7.45,2.83,11.41,3.13c0.07,0,0.15,0.011,0.22-0.04
		c0.08-0.05,0.1-0.159,0.11-0.26c0.39-2.82,0.56-5.68,0.5-8.53c-2.83-0.729-5.77-1.01-8.68-0.84c-1.53,0.09-3.13,0.34-4.33,1.29
		C101.559,467.207,100.989,469.087,101.899,470.317z"/>
	
		<path clip-path="url(#SVGID_8_)" fill="none" stroke="#000000" stroke-width="1.5" stroke-linecap="round" stroke-linejoin="round" stroke-miterlimit="22.926" d="
		M154.949,537.228c-0.11-2.101-0.44-6.84,0.34-8.141c0.08-0.069,0.02-0.25-0.15-0.37c-2.35,0.171-7.53-1.149-8.73,1.7
		C144.829,534.188,152.189,537.938,154.949,537.228z"/>
	
		<path clip-path="url(#SVGID_8_)" fill="none" stroke="#010101" stroke-width="1.5" stroke-linecap="round" stroke-linejoin="round" stroke-miterlimit="22.926" d="
		M254.984,509.852h1.138c0.747,1.291,1.823,2.366,3.114,3.113v1.139h4.252h4.252v-1.139c1.291-0.747,2.367-1.822,3.114-3.113h1.138
		v-4.253v-4.252h-1.138c-0.747-1.291-1.823-2.366-3.114-3.113v-1.139h-4.252h-4.252v1.139c-1.291,0.747-2.367,1.822-3.114,3.113
		h-1.138v4.252V509.852z"/>
	
		<rect x="259.235" y="468.748" clip-path="url(#SVGID_8_)" fill="none" stroke="#010101" stroke-width="1.5" stroke-linecap="round" stroke-linejoin="round" stroke-miterlimit="22.926" width="8.504" height="17.009"/>
	
		<path clip-path="url(#SVGID_8_)" fill="none" stroke="#010101" stroke-width="1.5" stroke-linecap="round" stroke-linejoin="round" stroke-miterlimit="22.926" d="
		M254.984,453.158h1.138c0.747,1.291,1.823,2.367,3.114,3.114v1.138h4.252h4.252v-1.138c1.291-0.747,2.367-1.823,3.114-3.114h1.138
		v-4.252v-4.252h-1.138c-0.747-1.291-1.823-2.367-3.114-3.114v-1.138h-4.252h-4.252v1.138c-1.291,0.747-2.367,1.823-3.114,3.114
		h-1.138v4.252V453.158z"/>
	
		<path clip-path="url(#SVGID_8_)" fill="none" stroke="#000000" stroke-width="1.5" stroke-linecap="round" stroke-linejoin="round" stroke-miterlimit="22.926" d="
		M186.299,533.107c-0.32,0.229-0.64,0.46-0.97,0.67c-0.12-0.32,0.66-0.45,0.53-0.771
		C186.309,533.098,185.859,533.007,186.299,533.107z M146.409,530.417c1.2-2.85,6.38-1.53,8.73-1.7c0.17,0.12,0.23,0.301,0.15,0.37
		c-0.78,1.3-0.45,6.04-0.34,8.141C152.189,537.938,144.829,534.188,146.409,530.417z M109.799,434.938c1.29-0.721,2.77-1,4.22-1.271
		c1.62-0.29,3.23-0.59,4.85-0.89c0.27,3.2,0.24,6.42-0.1,9.6c-3.21-0.109-6.49-0.24-9.5-1.359c-0.43-0.16-0.86-0.351-1.2-0.66
		c-0.51-0.49-0.73-1.23-0.69-1.94C107.449,436.947,108.519,435.667,109.799,434.938z M102.749,466.247c1.2-0.95,2.8-1.2,4.33-1.29
		c2.91-0.17,5.85,0.11,8.68,0.84c0.06,2.851-0.11,5.71-0.5,8.53c-0.01,0.1-0.03,0.21-0.11,0.26c-0.07,0.05-0.15,0.04-0.22,0.04
		c-3.96-0.3-7.85-1.37-11.41-3.13c-0.6-0.3-1.22-0.64-1.62-1.18C100.989,469.087,101.559,467.207,102.749,466.247z M102.749,496.087
		c1.09-0.62,2.38-0.72,3.63-0.75c2.8-0.08,5.6,0.061,8.37,0.431c-0.12,2.199-0.24,4.399-0.36,6.6c-0.04,0.58-0.11,1.24-0.59,1.56
		c-3.19-0.579-6.34-1.369-9.43-2.35c-1.32-0.42-2.79-1.05-3.17-2.38C100.859,497.997,101.659,496.707,102.749,496.087z
		 M102.749,466.247c1.2-0.95,2.8-1.2,4.33-1.29c2.91-0.17,5.85,0.11,8.68,0.84c0.06,2.851-0.11,5.71-0.5,8.53
		c-0.01,0.1-0.03,0.21-0.11,0.26c-0.07,0.05-0.15,0.04-0.22,0.04c-3.96-0.3-7.85-1.37-11.41-3.13c-0.6-0.3-1.22-0.64-1.62-1.18
		C100.989,469.087,101.559,467.207,102.749,466.247z M109.799,434.938c1.29-0.721,2.77-1,4.22-1.271c1.62-0.29,3.23-0.59,4.85-0.89
		c0.27,3.2,0.24,6.42-0.1,9.6c-3.21-0.109-6.49-0.24-9.5-1.359c-0.43-0.16-0.86-0.351-1.2-0.66c-0.51-0.49-0.73-1.23-0.69-1.94
		C107.449,436.947,108.519,435.667,109.799,434.938z M146.409,530.417c1.2-2.85,6.38-1.53,8.73-1.7c0.17,0.12,0.23,0.301,0.15,0.37
		c-0.78,1.3-0.45,6.04-0.34,8.141C152.189,537.938,144.829,534.188,146.409,530.417z M102.749,496.087
		c1.09-0.62,2.38-0.72,3.63-0.75c2.8-0.08,5.6,0.061,8.37,0.431c-0.12,2.199-0.24,4.399-0.36,6.6c-0.04,0.58-0.11,1.24-0.59,1.56
		c-3.19-0.579-6.34-1.369-9.43-2.35c-1.32-0.42-2.79-1.05-3.17-2.38C100.859,497.997,101.659,496.707,102.749,496.087z"/>
	
		<path clip-path="url(#SVGID_8_)" fill="none" stroke="#000000" stroke-width="1.5" stroke-linecap="round" stroke-linejoin="round" stroke-miterlimit="22.926" d="
		M155.269,427.188C155.189,427.797,154.979,426.657,155.269,427.188"/>
	
		<line clip-path="url(#SVGID_8_)" fill="none" stroke="#000000" stroke-width="1.5" stroke-linecap="round" stroke-linejoin="round" stroke-miterlimit="22.926" x1="210.959" y1="456.478" x2="211.459" y2="456.478"/>
	
		<path clip-path="url(#SVGID_8_)" fill="none" stroke="#000000" stroke-width="1.5" stroke-linecap="round" stroke-linejoin="round" stroke-miterlimit="22.926" d="
		M245.058,456.479v-0.73v-25.97h22.68c7.83,0,14.17,6.35,14.17,14.18v65.891c0,7.819-6.34,14.17-14.17,14.17h-22.68v-30.69"/>
	
		<line clip-path="url(#SVGID_8_)" fill="none" stroke="#000000" stroke-width="1.5" stroke-linecap="round" stroke-linejoin="round" stroke-miterlimit="22.926" x1="245.058" y1="456.479" x2="245.058" y2="455.748"/>
	
		<path clip-path="url(#SVGID_8_)" fill="none" stroke="#000000" stroke-width="1.5" stroke-linecap="round" stroke-linejoin="round" stroke-miterlimit="22.926" d="
		M106.209,491.287c3.69-0.42,7.39-0.6,11.1-0.67c10.68-0.2,21.42,0.55,32.04-0.68c0.85-0.09,1.76-0.23,2.43-0.771
		c1.45-1.189,0.89-3.72-0.6-4.859c-1.49-1.141-3.49-1.29-5.37-1.42c-12.32-0.83-24.58-2.631-36.63-5.37
		c-4.5-1.021-9.44-2.53-11.71-6.54c-0.99-1.74-1.33-3.95-0.47-5.761c0.89-1.85,2.83-2.97,4.76-3.68c4.65-1.72,9.72-1.76,14.67-1.89
		c12.25-0.33,24.49-1.33,36.63-3c1.46-0.2,3.35-0.79,3.13-2.65c-0.3-2.63-3.53-3.49-5.71-3.819c-2.27-0.341-4.59-0.28-6.86-0.561
		c-5.92-0.72-11.84-1.49-17.75-2.31c-3.36-0.46-6.72-0.99-10.08-1.431c-2.81-0.37-5.74-0.56-8.26-1.989
		c-2.99-1.7-5.22-5.271-4.23-8.57c1.03-3.43,4.89-5.101,8.4-5.851c5.92-1.279,12.55-1.55,18.6-1.829c5.4-0.25,10.8-0.391,16.2-0.431
		c2.95-0.02,5.88,0.13,8.77-0.02c0.31-2.58,3.41-5.63,4.7-7.28c4.48-5.74,9.66-10.67,17.5-10.36c-2.83,5.01-3.16,10.23-4.55,15.62
		c8.06-5.51,17.43-9.65,27.59-8.89c-2.19,6.01-6.45,13.63-3.97,20.34c5.97-3.15,14.77-8,21.59-7.74
		c-3.06,6.721-9.25,20.23-6.67,27.601h33.6v36.85h-32.26c1.65,3.75,1.39,9.73,2.17,13.64c0.98,4.9,2.84,10.36,3.22,15.25
		c-4.31-1.55-9.01-2.569-13.38-3.869c-3.73,5.18-0.63,14.159,0.7,19.609c-6.68-0.77-12.93-3.399-19.21-4.85
		c-0.44-0.101-0.52,0.76-0.97,0.67c0.13,0.32-0.12-0.32,0,0c-6.46,4.439-13.66,7.61-21.17,8.95c-3.69,0.66-7.59,0.84-11.12-0.431
		c-2.02-0.739-3.85-1.93-5.64-3.119c-2.8-1.87-5.87-4.32-5.89-7.681c-0.01-2.99,2.55-5.47,5.36-6.47s5.87-0.89,8.85-1.04
		c2.89-0.14,5.77-0.521,8.61-1.1c2.76-0.561,5.66-1.391,7.55-3.49c1.68-1.87,1.62-4.69,0.71-6.9c-0.06-0.12-0.12-0.26-0.24-0.319
		c-0.12-0.07-0.28-0.051-0.42-0.021c-2.06,0.39-4.12,0.89-6.22,1.03c-2.66,0.18-5.32,0.31-7.99,0.37
		c-5.34,0.13-10.68,0.029-16-0.311c-8.07-0.5-16.09-1.54-24.02-3.09c-2.67-0.53-5.34-1.12-7.99-1.76c-3.43-0.84-6.99-1.86-9.55-4.29
		s-3.72-6.7-1.63-9.55C100.229,492.247,103.359,491.607,106.209,491.287z M115.759,465.797c-2.83-0.729-5.77-1.01-8.68-0.84
		c-1.53,0.09-3.13,0.34-4.33,1.29c-1.19,0.96-1.76,2.84-0.85,4.07c0.4,0.54,1.02,0.88,1.62,1.18c3.56,1.76,7.45,2.83,11.41,3.13
		c0.07,0,0.15,0.011,0.22-0.04c0.08-0.05,0.1-0.159,0.11-0.26C115.649,471.507,115.819,468.647,115.759,465.797z M118.869,432.777
		c-1.62,0.3-3.23,0.6-4.85,0.89c-1.45,0.271-2.93,0.55-4.22,1.271c-1.28,0.729-2.35,2.01-2.42,3.479c-0.04,0.71,0.18,1.45,0.69,1.94
		c0.34,0.31,0.77,0.5,1.2,0.66c3.01,1.12,6.29,1.25,9.5,1.359C119.109,439.197,119.139,435.978,118.869,432.777z M155.139,528.717
		c-2.35,0.171-7.53-1.149-8.73,1.7c-1.58,3.771,5.78,7.521,8.54,6.811c-0.11-2.101-0.44-6.84,0.34-8.141
		C155.369,529.018,155.309,528.837,155.139,528.717z M101.199,499.197c0.38,1.33,1.85,1.96,3.17,2.38
		c3.09,0.98,6.24,1.771,9.43,2.351c0.48-0.32,0.55-0.98,0.59-1.561c0.12-2.2,0.24-4.4,0.36-6.6c-2.77-0.37-5.57-0.511-8.37-0.431
		c-1.25,0.03-2.54,0.13-3.63,0.75S100.859,497.997,101.199,499.197z"/>
</g>
<path fill="none" stroke="#231F20" stroke-width="1.5" stroke-linecap="round" stroke-linejoin="round" stroke-miterlimit="22.926" d="
	M584.504,662.945c-2.789-7.76-8.609-14.83-15.39-19.43c-3.429-2.33-7.509-4.12-11.78-5.15c0.021-3.96,2.551-9.27,5.691-11.67
	c-8.371-3.38-18.291,5.34-22.86,12.32c-0.301,0.46-0.581,0.92-0.831,1.36c-0.119-0.301-0.209-0.601-0.29-0.891
	c-1-3.79,1.04-7.6,2.57-10.95c-6.271-0.92-15.56,7.841-18.81,12.681c-1.69,2.53-3.551,6-4.619,8.88
	c-0.041,0.1-0.08,0.189-0.111,0.29c-0.01-0.08-0.02-0.16-0.02-0.24c-0.39-3.89-0.02-6.55,0.779-10.31
	c-5.309,0.16-9.939,3.16-13.76,6.569c-1.31,1.16-5.339,4.17-5.17,5.771c-0.83-2.84-1.02-6.93,0.42-9.29
	c-2.24-0.15-4.53-0.13-6.74,0.13c0-0.48,0.01-3.4,0.021-7.16h16.009v-22.67c0-7.83-6.339-14.18-14.17-14.18h-121.89
	c-7.83,0-14.17,6.35-14.17,14.18v22.67h16.69c-0.29,0.34,0,2.18,0,2.601c0.01,1.47,0.02,2.949,0.01,4.42
	c-2.21-0.261-4.5-0.28-6.74-0.13c1.44,2.359,1.25,6.449,0.42,9.289c0.17-1.6-3.86-4.609-5.17-5.77c-3.82-3.41-8.45-6.41-13.76-6.57
	c0.8,3.761,1.17,6.42,0.78,10.311c0,0.08-0.01,0.16-0.02,0.24c-0.03-0.101-0.07-0.19-0.11-0.29c-1.07-2.881-2.93-6.351-4.62-8.881
	c-3.25-4.84-12.54-13.6-18.81-12.68c1.53,3.351,3.57,7.16,2.57,10.95c-0.08,0.29-0.17,0.59-0.29,0.89
	c-0.25-0.439-0.53-0.899-0.83-1.359c-4.57-6.98-14.49-15.7-22.86-12.32c3.14,2.4,5.67,7.71,5.69,11.67
	c-4.27,1.03-8.35,2.82-11.78,5.15c-6.78,4.6-12.6,11.67-15.39,19.43c-1.31,3.62-2.34,7.3-1.02,11.08c0.9,2.57,1.86,5.5,4.88,5.88
	c5.37,0.66,8.83-4.28,12.72-7.08c3.06-2.21,6.22-3.83,9.6-5.479c1.81-0.881,8.68-4.32,9.75-0.75c0.58,1.92-2.28,3.649-3.48,4.51
	c-2.51,1.79-5.04,3.49-7.46,5.399c-1.76,1.391-3.15,2.7-4.54,4.49c-1.93,2.51-4.15,4.38-5.31,7.41c-1.33,3.46-1.38,7.17,0.08,10.61
	c1.65,3.89,5.63,7.71,10.2,6.979c3.65-0.58,6.58-4.899,8.99-7.479c3.32-3.54,5.74-7.57,10.39-9.48c1.28-0.53,8.58-2.47,8.65,0.39
	c0.03,1.301-2.24,1.62-3.18,2.211c-2.73,1.72-6.95,6.939-6.13,10.359c1.34,5.601,8.91,7.47,13.75,6.83
	c6.92-0.9,12.59-5.45,19.24-7.21c6.5-1.729,11.81-4.84,18.9-2.99c4.07,1.07,7.51,4.74,11.29,6.66c8.01,4.07,21.18,4.62,27.88-2.24
	c1.57-1.6,3.11-3.33,4.459-5.12c3.68-4.92,5.391-11.17,5.311-17.289c-0.12-9.561-4.211-20.53-11.41-27.011
	c-1.27-1.14-4.71-2.35-5.52-3.56c-0.79-1.17-0.28-3.86-0.28-5.23v-8.84h43.819v8.98c0,1.37,0.51,4.06-0.279,5.229
	c-0.811,1.21-4.25,2.42-5.521,3.561c-7.2,6.479-11.29,17.449-11.409,27.01c-0.08,6.12,1.63,12.37,5.309,17.29
	c1.351,1.79,2.892,3.52,4.461,5.12c6.699,6.859,19.869,6.31,27.881,2.239c3.779-1.92,7.219-5.59,11.289-6.659
	c7.09-1.851,12.399,1.26,18.899,2.989c6.651,1.761,12.32,6.311,19.24,7.21c4.841,0.641,12.411-1.229,13.75-6.829
	c0.821-3.421-3.399-8.641-6.13-10.36c-0.94-0.59-3.209-0.91-3.18-2.21c0.07-2.86,7.369-0.92,8.65-0.391
	c4.65,1.91,7.07,5.94,10.389,9.48c2.41,2.58,5.342,6.9,8.99,7.48c4.57,0.729,8.551-3.091,10.201-6.98
	c1.459-3.44,1.409-7.15,0.079-10.61c-1.159-3.029-3.38-4.899-5.31-7.409c-1.39-1.79-2.779-3.101-4.541-4.49
	c-2.42-1.91-4.949-3.61-7.459-5.4c-1.199-0.859-4.061-2.59-3.48-4.51c1.07-3.57,7.939-0.13,9.75,0.75
	c3.381,1.65,6.54,3.27,9.6,5.479c3.891,2.801,7.352,7.74,12.721,7.08c3.021-0.38,3.98-3.31,4.881-5.88
	C586.844,670.246,585.814,666.565,584.504,662.945z M288.104,674.365c-4.96-2.88,2.71-12.05,2.34-12.5
	c1.34,0.311,5.15,6.32,5.65,7.94C293.745,670.945,290.715,675.886,288.104,674.365z M304.975,700.855
	c-5.42-2.47-0.12-10.859,0.06-11.03c2.94,1.21,3.67,3.851,6.7,4.771C310.854,696.976,308.715,702.565,304.975,700.855z
	 M339.135,695.605c0.29,0.49,4.63,5.601,4.55,6.17C336.995,712.646,329.955,694.985,339.135,695.605z M525.984,701.916
	c-0.08-0.57,4.26-5.681,4.551-6.17C539.715,695.126,532.674,712.785,525.984,701.916z M564.635,689.966
	c0.18,0.17,5.479,8.56,0.06,11.03c-3.739,1.71-5.88-3.881-6.759-6.261C560.965,693.815,561.694,691.176,564.635,689.966z
	 M581.564,674.506c-2.609,1.52-5.641-3.42-7.99-4.561c0.5-1.62,4.311-7.63,5.65-7.939
	C578.855,662.456,586.525,671.626,581.564,674.506z"/>
<path fill="none" stroke="#010101" stroke-width="1.5" stroke-linecap="round" stroke-linejoin="round" stroke-miterlimit="22.926" d="
	M540.316,272.779c-9.748-3.749-19.256-8.457-28.311-14.04c12.764,20.597,21.037,44.186,23.895,68.382
	c-10.547-6.932-21.162-13.765-31.853-20.497c-1.45,0.833-3.133,1.308-4.917,1.308h-26.875h-55.424
	c-15.428,0-31.161-0.899-46.565,0.014c-2.244,0.134-5.745,0.172-6.985-2.253c0.411,0.804-3.415,4.809-4.017,5.404
	c-2.059,2.032-4.097,4.083-6.156,6.114c-4.313,4.256-8.787,8.319-13.638,11.96c-4.866-20.331,3.834-42.027,13.299-59.875
	c-7.899,5.191-21.856,10.424-29.871,15.698c-1.117-26.446,13.515-52.517,29.613-72.164c-8.649,2.816-23.039,6.49-31.005,10.981
	c3.191-23.354,20.298-45.609,38.004-60.157c4.741-3.9,9.165-7.174,15.023-9.249c12.673-4.283,26.021-6.641,39.469-6.999
	c-6.308-4.124-12.507-8.424-18.589-12.89c10.598,0.509,21.205,3.467,30.688,8.557c3.023-4.049,5.873-8.215,8.531-12.473
	c3.424,3.95,5.966,8.599,7.356,13.473c7.442-6.457,16.706-10.815,26.63-12.564c-2.999,5.207-6.015,10.448-9.049,15.714
	c19.639-0.717,40.136,7.357,54.859,21.538c17.488,16.848,26.162,40.544,34.252,63.424c-11.314-10.057-25.179-17.006-39.551-19.889
	c-0.326-0.066-0.65-0.133-0.977-0.191c0.326,0.375,0.659,0.741,0.977,1.125C523.886,230.294,534.734,250.932,540.316,272.779z"/>
<rect y="0" fill="none" width="843.173" height="841.89"/>
</svg>
