  0
SECTION
  2
HEADER
  9
$ACADVER
  1
AC1014
  9
$ACADMAINTVER
 70
     9
  9
$DWGCODEPAGE
  3
ANSI_932
  9
$INSBASE
 10
0.0
 20
0.0
 30
0.0
  9
$EXTMIN
 10
1.000000000000000E+20
 20
1.000000000000000E+20
 30
1.000000000000000E+20
  9
$EXTMAX
 10
-1.000000000000000E+20
 20
-1.000000000000000E+20
 30
-1.000000000000000E+20
  9
$LIMMIN
 10
0.0
 20
0.0
  9
$LIMMAX
 10
12.0
 20
9.0
  9
$ORTHOMODE
 70
     0
  9
$REGENMODE
 70
     1
  9
$FILLMODE
 70
     1
  9
$QTEXTMODE
 70
     0
  9
$MIRRTEXT
 70
     1
  9
$DRAGMODE
 70
     2
  9
$LTSCALE
 40
1.0
  9
$OSMODE
 70
    37
  9
$ATTMODE
 70
     1
  9
$TEXTSIZE
 40
0.2
  9
$TRACEWID
 40
0.05
  9
$TEXTSTYLE
  7
STANDARD
  9
$CLAYER
  8
0
  9
$CELTYPE
  6
BYLAYER
  9
$CECOLOR
 62
   256
  9
$CELTSCALE
 40
1.0
  9
$DELOBJ
 70
     1
  9
$DISPSILH
 70
     0
  9
$DIMSCALE
 40
1.0
  9
$DIMASZ
 40
0.18
  9
$DIMEXO
 40
0.0625
  9
$DIMDLI
 40
0.38
  9
$DIMRND
 40
0.0
  9
$DIMDLE
 40
0.0
  9
$DIMEXE
 40
0.18
  9
$DIMTP
 40
0.0
  9
$DIMTM
 40
0.0
  9
$DIMTXT
 40
0.18
  9
$DIMCEN
 40
0.09
  9
$DIMTSZ
 40
0.0
  9
$DIMTOL
 70
     0
  9
$DIMLIM
 70
     0
  9
$DIMTIH
 70
     1
  9
$DIMTOH
 70
     1
  9
$DIMSE1
 70
     0
  9
$DIMSE2
 70
     0
  9
$DIMTAD
 70
     0
  9
$DIMZIN
 70
     0
  9
$DIMBLK
  1

  9
$DIMASO
 70
     1
  9
$DIMSHO
 70
     1
  9
$DIMPOST
  1

  9
$DIMAPOST
  1

  9
$DIMALT
 70
     0
  9
$DIMALTD
 70
     2
  9
$DIMALTF
 40
25.4
  9
$DIMLFAC
 40
1.0
  9
$DIMTOFL
 70
     0
  9
$DIMTVP
 40
0.0
  9
$DIMTIX
 70
     0
  9
$DIMSOXD
 70
     0
  9
$DIMSAH
 70
     0
  9
$DIMBLK1
  1

  9
$DIMBLK2
  1

  9
$DIMSTYLE
  2
STANDARD
  9
$DIMCLRD
 70
     0
  9
$DIMCLRE
 70
     0
  9
$DIMCLRT
 70
     0
  9
$DIMTFAC
 40
1.0
  9
$DIMGAP
 40
0.09
  9
$DIMJUST
 70
     0
  9
$DIMSD1
 70
     0
  9
$DIMSD2
 70
     0
  9
$DIMTOLJ
 70
     1
  9
$DIMTZIN
 70
     0
  9
$DIMALTZ
 70
     0
  9
$DIMALTTZ
 70
     0
  9
$DIMFIT
 70
     3
  9
$DIMUPT
 70
     0
  9
$DIMUNIT
 70
     2
  9
$DIMDEC
 70
     4
  9
$DIMTDEC
 70
     4
  9
$DIMALTU
 70
     2
  9
$DIMALTTD
 70
     2
  9
$DIMTXSTY
  7
STANDARD
  9
$DIMAUNIT
 70
     0
  9
$LUNITS
 70
     2
  9
$LUPREC
 70
     4
  9
$SKETCHINC
 40
0.1
  9
$FILLETRAD
 40
0.5
  9
$AUNITS
 70
     0
  9
$AUPREC
 70
     0
  9
$MENU
  1
.
  9
$ELEVATION
 40
0.0
  9
$PELEVATION
 40
0.0
  9
$THICKNESS
 40
0.0
  9
$LIMCHECK
 70
     0
  9
$CHAMFERA
 40
0.5
  9
$CHAMFERB
 40
0.5
  9
$CHAMFERC
 40
1.0
  9
$CHAMFERD
 40
0.0
  9
$SKPOLY
 70
     0
  9
$TDCREATE
 40
2457137.69150463
  9
$TDUPDATE
 40
2457137.691504641
  9
$TDINDWG
 40
0.0000000116
  9
$TDUSRTIMER
 40
0.0000000116
  9
$USRTIMER
 70
     1
  9
$ANGBASE
 50
0.0
  9
$ANGDIR
 70
     0
  9
$PDMODE
 70
     0
  9
$PDSIZE
 40
0.0
  9
$PLINEWID
 40
0.0
  9
$COORDS
 70
     1
  9
$SPLFRAME
 70
     0
  9
$SPLINETYPE
 70
     6
  9
$SPLINESEGS
 70
     8
  9
$ATTDIA
 70
     0
  9
$ATTREQ
 70
     1
  9
$HANDLING
 70
     1
  9
$HANDSEED
  5
1C7
  9
$SURFTAB1
 70
     6
  9
$SURFTAB2
 70
     6
  9
$SURFTYPE
 70
     6
  9
$SURFU
 70
     6
  9
$SURFV
 70
     6
  9
$UCSNAME
  2

  9
$UCSORG
 10
0.0
 20
0.0
 30
0.0
  9
$UCSXDIR
 10
1.0
 20
0.0
 30
0.0
  9
$UCSYDIR
 10
0.0
 20
1.0
 30
0.0
  9
$PUCSNAME
  2

  9
$PUCSORG
 10
0.0
 20
0.0
 30
0.0
  9
$PUCSXDIR
 10
1.0
 20
0.0
 30
0.0
  9
$PUCSYDIR
 10
0.0
 20
1.0
 30
0.0
  9
$USERI1
 70
     0
  9
$USERI2
 70
     0
  9
$USERI3
 70
     0
  9
$USERI4
 70
     0
  9
$USERI5
 70
     0
  9
$USERR1
 40
0.0
  9
$USERR2
 40
0.0
  9
$USERR3
 40
0.0
  9
$USERR4
 40
0.0
  9
$USERR5
 40
0.0
  9
$WORLDVIEW
 70
     1
  9
$SHADEDGE
 70
     3
  9
$SHADEDIF
 70
    70
  9
$TILEMODE
 70
     1
  9
$MAXACTVP
 70
    64
  9
$PINSBASE
 10
0.0
 20
0.0
 30
0.0
  9
$PLIMCHECK
 70
     0
  9
$PEXTMIN
 10
1.000000000000000E+20
 20
1.000000000000000E+20
 30
1.000000000000000E+20
  9
$PEXTMAX
 10
-1.000000000000000E+20
 20
-1.000000000000000E+20
 30
-1.000000000000000E+20
  9
$PLIMMIN
 10
0.0
 20
0.0
  9
$PLIMMAX
 10
12.0
 20
9.0
  9
$UNITMODE
 70
     0
  9
$VISRETAIN
 70
     1
  9
$PLINEGEN
 70
     0
  9
$PSLTSCALE
 70
     1
  9
$TREEDEPTH
 70
  3020
  9
$PICKSTYLE
 70
     1
  9
$CMLSTYLE
  2
STANDARD
  9
$CMLJUST
 70
     0
  9
$CMLSCALE
 40
1.0
  9
$PROXYGRAPHICS
 70
     1
  9
$MEASUREMENT
 70
     0
  0
ENDSEC
  0
SECTION
  2
CLASSES
  0
CLASS
  1
ACDBDICTIONARYWDFLT
  2
AcDbDictionaryWithDefault
  3
ObjectDBX Classes
 90
        0
280
     0
281
     0
  0
CLASS
  1
VISUALSTYLE
  2
AcDbVisualStyle
  3
ObjectDBX Classes
 90
     4095
280
     0
281
     0
  0
CLASS
  1
XRECORD
  2
AcDbXrecord
  3
AutoCAD 2000
 90
        0
280
     0
281
     0
  0
CLASS
  1
LWPOLYLINE
  2
AcDbPolyline
  3
AutoCAD 2000
 90
        0
280
     0
281
     1
  0
CLASS
  1
HATCH
  2
AcDbHatch
  3
AutoCAD 2000
 90
        0
280
     0
281
     1
  0
CLASS
  1
ACDBPLACEHOLDER
  2
AcDbPlaceHolder
  3
ObjectDBX Classes
 90
        0
280
     0
281
     0
  0
CLASS
  1
LAYOUT
  2
AcDbLayout
  3
ObjectDBX Classes
 90
        0
280
     0
281
     0
  0
ENDSEC
  0
SECTION
  2
TABLES
  0
TABLE
  2
VPORT
  5
8
330
0
100
AcDbSymbolTable
 70
     1
  0
VPORT
  5
29
330
8
100
AcDbSymbolTableRecord
100
AcDbViewportTableRecord
  2
*ACTIVE
 70
     0
 10
0.0
 20
0.0
 11
1.0
 21
1.0
 12
0.0
 22
0.0
 13
0.0
 23
0.0
 14
0.5
 24
0.5
 15
0.5
 25
0.5
 16
0.0
 26
0.0
 36
1.0
 17
421.58642578125
 27
420.94580078125
 37
0.0
 40
841.8896484375
 41
1.001524193969342
 42
50.0
 43
0.0
 44
0.0
 50
0.0
 51
0.0
 71
     0
 72
   100
 73
     1
 74
     3
 75
     0
 76
     0
 77
     0
 78
     0
  0
ENDTAB
  0
TABLE
  2
LTYPE
  5
5
330
0
100
AcDbSymbolTable
 70
     1
  0
LTYPE
  5
14
330
5
100
AcDbSymbolTableRecord
100
AcDbLinetypeTableRecord
  2
BYBLOCK
 70
     0
  3

 72
    65
 73
     0
 40
0.0
  0
LTYPE
  5
15
330
5
100
AcDbSymbolTableRecord
100
AcDbLinetypeTableRecord
  2
BYLAYER
 70
     0
  3

 72
    65
 73
     0
 40
0.0
  0
LTYPE
  5
16
330
5
100
AcDbSymbolTableRecord
100
AcDbLinetypeTableRecord
  2
CONTINUOUS
 70
     0
  3
Solid line
 72
    65
 73
     0
 40
0.0
  0
ENDTAB
  0
TABLE
  2
LAYER
  5
2
330
0
100
AcDbSymbolTable
 70
     2
  0
LAYER
  5
10
330
2
100
AcDbSymbolTableRecord
100
AcDbLayerTableRecord
  2
0
 70
     0
 62
     7
  6
CONTINUOUS
  0
LAYER
  5
3B
330
2
100
AcDbSymbolTableRecord
100
AcDbLayerTableRecord
  2
LAYER_1
 70
     0
 62
     7
  6
CONTINUOUS
  0
ENDTAB
  0
TABLE
  2
STYLE
  5
3
330
0
100
AcDbSymbolTable
 70
     1
  0
STYLE
  5
11
330
3
100
AcDbSymbolTableRecord
100
AcDbTextStyleTableRecord
  2
STANDARD
 70
     0
 40
0.0
 41
1.0
 50
0.0
 71
     0
 42
0.2
  3
txt
  4

  0
ENDTAB
  0
TABLE
  2
VIEW
  5
6
330
0
100
AcDbSymbolTable
 70
     0
  0
ENDTAB
  0
TABLE
  2
UCS
  5
7
330
0
100
AcDbSymbolTable
 70
     0
  0
ENDTAB
  0
TABLE
  2
APPID
  5
9
330
0
100
AcDbSymbolTable
 70
     1
  0
APPID
  5
12
330
9
100
AcDbSymbolTableRecord
100
AcDbRegAppTableRecord
  2
ACAD
 70
     0
  0
ENDTAB
  0
TABLE
  2
DIMSTYLE
  5
A
330
0
100
AcDbSymbolTable
 70
     1
  0
DIMSTYLE
105
27
330
A
100
AcDbSymbolTableRecord
100
AcDbDimStyleTableRecord
  2
STANDARD
 70
     0
  3

  4

  5

  6

  7

 40
1.0
 41
0.18
 42
0.0625
 43
0.38
 44
0.18
 45
0.0
 46
0.0
 47
0.0
 48
0.0
140
0.18
141
0.09
142
0.0
143
25.4
144
1.0
145
0.0
146
1.0
147
0.09
 71
     0
 72
     0
 73
     1
 74
     1
 75
     0
 76
     0
 77
     0
 78
     0
170
     0
171
     2
172
     0
173
     0
174
     0
175
     0
176
     0
177
     0
178
     0
270
     2
271
     4
272
     4
273
     2
274
     2
340
11
275
     0
280
     0
281
     0
282
     0
283
     1
284
     0
285
     0
286
     0
287
     3
288
     0
  0
ENDTAB
  0
TABLE
  2
BLOCK_RECORD
  5
1
330
0
100
AcDbSymbolTable
 70
    15
  0
BLOCK_RECORD
  5
1F
330
1
100
AcDbSymbolTableRecord
100
AcDbBlockTableRecord
  2
*MODEL_SPACE
  0
BLOCK_RECORD
  5
1B
330
1
100
AcDbSymbolTableRecord
100
AcDbBlockTableRecord
  2
*PAPER_SPACE
  0
BLOCK_RECORD
  5
3C
330
1
100
AcDbSymbolTableRecord
100
AcDbBlockTableRecord
  2
BLOCK_2
  0
BLOCK_RECORD
  5
50
330
1
100
AcDbSymbolTableRecord
100
AcDbBlockTableRecord
  2
BLOCK_3
  0
BLOCK_RECORD
  5
7A
330
1
100
AcDbSymbolTableRecord
100
AcDbBlockTableRecord
  2
BLOCK_4
  0
BLOCK_RECORD
  5
96
330
1
100
AcDbSymbolTableRecord
100
AcDbBlockTableRecord
  2
BLOCK_5
  0
BLOCK_RECORD
  5
B1
330
1
100
AcDbSymbolTableRecord
100
AcDbBlockTableRecord
  2
BLOCK_6
  0
BLOCK_RECORD
  5
CD
330
1
100
AcDbSymbolTableRecord
100
AcDbBlockTableRecord
  2
BLOCK_7
  0
BLOCK_RECORD
  5
121
330
1
100
AcDbSymbolTableRecord
100
AcDbBlockTableRecord
  2
BLOCK_8
  0
BLOCK_RECORD
  5
12D
330
1
100
AcDbSymbolTableRecord
100
AcDbBlockTableRecord
  2
BLOCK_9
  0
BLOCK_RECORD
  5
139
330
1
100
AcDbSymbolTableRecord
100
AcDbBlockTableRecord
  2
BLOCK_10
  0
BLOCK_RECORD
  5
145
330
1
100
AcDbSymbolTableRecord
100
AcDbBlockTableRecord
  2
BLOCK_11
  0
BLOCK_RECORD
  5
151
330
1
100
AcDbSymbolTableRecord
100
AcDbBlockTableRecord
  2
BLOCK_12
  0
BLOCK_RECORD
  5
15D
330
1
100
AcDbSymbolTableRecord
100
AcDbBlockTableRecord
  2
BLOCK_13
  0
BLOCK_RECORD
  5
169
330
1
100
AcDbSymbolTableRecord
100
AcDbBlockTableRecord
  2
BLOCK_14
  0
BLOCK_RECORD
  5
175
330
1
100
AcDbSymbolTableRecord
100
AcDbBlockTableRecord
  2
BLOCK_15
  0
ENDTAB
  0
ENDSEC
  0
SECTION
  2
BLOCKS
  0
BLOCK
  5
20
330
1F
100
AcDbEntity
  8
0
100
AcDbBlockBegin
  2
*MODEL_SPACE
 70
     0
 71
     0
 10
0.0
 20
0.0
 30
0.0
  3
*MODEL_SPACE
  1

  0
ENDBLK
  5
21
330
1F
100
AcDbEntity
  8
0
100
AcDbBlockEnd
  0
BLOCK
  5
1C
330
1B
100
AcDbEntity
 67
     1
  8
0
100
AcDbBlockBegin
  2
*PAPER_SPACE
 70
     0
 71
     0
 10
0.0
 20
0.0
 30
0.0
  3
*PAPER_SPACE
  1

  0
ENDBLK
  5
1D
330
1B
100
AcDbEntity
 67
     1
  8
0
100
AcDbBlockEnd
  0
BLOCK
  5
3E
330
3C
100
AcDbEntity
  8
0
100
AcDbBlockBegin
  2
BLOCK_2
 70
     0
 71
     0
 10
0.0
 20
0.0
 30
0.0
  3
BLOCK_2
  1

  0
POLYLINE
  5
40
330
3C
100
AcDbEntity
  8
LAYER_1
 62
   250
100
AcDb2dPolyline
 66
     1
 10
0.0
 20
0.0
 30
0.0
  0
VERTEX
  5
41
330
40
100
AcDbEntity
  8
LAYER_1
 62
   250
100
AcDbVertex
100
AcDb2dVertex
 10
396.52197265625
 20
648.544921875
 30
0.0
  0
VERTEX
  5
42
330
40
100
AcDbEntity
  8
LAYER_1
 62
   250
100
AcDbVertex
100
AcDb2dVertex
 10
349.7939453125
 20
648.544921875
 30
0.0
  0
VERTEX
  5
43
330
40
100
AcDbEntity
  8
LAYER_1
 62
   250
100
AcDbVertex
100
AcDb2dVertex
 10
349.7939453125
 20
695.8779296875
 30
0.0
  0
VERTEX
  5
44
330
40
100
AcDbEntity
  8
LAYER_1
 62
   250
100
AcDbVertex
100
AcDb2dVertex
 10
396.52197265625
 20
695.8779296875
 30
0.0
  0
VERTEX
  5
45
330
40
100
AcDbEntity
  8
LAYER_1
 62
   250
100
AcDbVertex
100
AcDb2dVertex
 10
396.52197265625
 20
648.544921875
 30
0.0
  0
SEQEND
  5
46
330
40
100
AcDbEntity
  8
LAYER_1
  0
SPLINE
  5
47
330
3C
100
AcDbEntity
  8
LAYER_1
100
AcDbSpline
210
0.0
220
0.0
230
1.0
 70
    11
 71
     3
 72
    26
 73
    22
 74
     0
 42
0.0000000001
 43
0.0000000001
 40
0.0
 40
0.0
 40
0.0
 40
0.0
 40
1.0
 40
1.0
 40
1.0
 40
2.0
 40
2.0
 40
2.0
 40
3.0
 40
3.0
 40
3.0
 40
4.0
 40
4.0
 40
4.0
 40
5.0
 40
5.0
 40
5.0
 40
6.0
 40
6.0
 40
6.0
 40
7.0
 40
7.0
 40
7.0
 40
7.0
 10
396.521484375
 20
694.75439453125
 30
0.0
 10
396.521484375
 20
684.07470703125
 30
0.0
 10
389.4013671875
 20
675.064453125
 30
0.0
 10
379.6513671875
 20
672.21435546875
 30
0.0
 10
379.6513671875
 20
672.21435546875
 30
0.0
 10
379.6513671875
 20
652.91455078125
 30
0.0
 10
379.6513671875
 20
652.91455078125
 30
0.0
 10
379.6513671875
 20
652.91455078125
 30
0.0
 10
365.66162109375
 20
652.91455078125
 30
0.0
 10
365.66162109375
 20
652.91455078125
 30
0.0
 10
365.66162109375
 20
652.91455078125
 30
0.0
 10
365.66162109375
 20
672.4443359375
 30
0.0
 10
365.66162109375
 20
672.4443359375
 30
0.0
 10
356.29150390625
 20
675.5244140625
 30
0.0
 10
349.53125
 20
684.3447265625
 30
0.0
 10
349.53125
 20
694.75439453125
 30
0.0
 10
349.53125
 20
707.734375
 30
0.0
 10
360.05126953125
 20
718.25439453125
 30
0.0
 10
373.021484375
 20
718.25439453125
 30
0.0
 10
386.00146484375
 20
718.25439453125
 30
0.0
 10
396.521484375
 20
707.734375
 30
0.0
 10
396.521484375
 20
694.75439453125
 30
0.0
  0
SPLINE
  5
48
330
3C
100
AcDbEntity
  8
LAYER_1
 62
     7
100
AcDbSpline
210
0.0
220
0.0
230
1.0
 70
    11
 71
     3
 72
    26
 73
    22
 74
     0
 42
0.0000000001
 43
0.0000000001
 40
0.0
 40
0.0
 40
0.0
 40
0.0
 40
1.0
 40
1.0
 40
1.0
 40
2.0
 40
2.0
 40
2.0
 40
3.0
 40
3.0
 40
3.0
 40
4.0
 40
4.0
 40
4.0
 40
5.0
 40
5.0
 40
5.0
 40
6.0
 40
6.0
 40
6.0
 40
7.0
 40
7.0
 40
7.0
 40
7.0
 10
396.521484375
 20
694.75439453125
 30
0.0
 10
396.521484375
 20
684.07470703125
 30
0.0
 10
389.4013671875
 20
675.064453125
 30
0.0
 10
379.6513671875
 20
672.21435546875
 30
0.0
 10
379.6513671875
 20
672.21435546875
 30
0.0
 10
379.6513671875
 20
652.91455078125
 30
0.0
 10
379.6513671875
 20
652.91455078125
 30
0.0
 10
379.6513671875
 20
652.91455078125
 30
0.0
 10
365.66162109375
 20
652.91455078125
 30
0.0
 10
365.66162109375
 20
652.91455078125
 30
0.0
 10
365.66162109375
 20
652.91455078125
 30
0.0
 10
365.66162109375
 20
672.4443359375
 30
0.0
 10
365.66162109375
 20
672.4443359375
 30
0.0
 10
356.29150390625
 20
675.5244140625
 30
0.0
 10
349.53125
 20
684.3447265625
 30
0.0
 10
349.53125
 20
694.75439453125
 30
0.0
 10
349.53125
 20
707.734375
 30
0.0
 10
360.05126953125
 20
718.25439453125
 30
0.0
 10
373.021484375
 20
718.25439453125
 30
0.0
 10
386.00146484375
 20
718.25439453125
 30
0.0
 10
396.521484375
 20
707.734375
 30
0.0
 10
396.521484375
 20
694.75439453125
 30
0.0
  0
POLYLINE
  5
49
330
3C
100
AcDbEntity
  8
LAYER_1
100
AcDb2dPolyline
 66
     1
 10
0.0
 20
0.0
 30
0.0
  0
VERTEX
  5
4A
330
49
100
AcDbEntity
  8
LAYER_1
100
AcDbVertex
100
AcDb2dVertex
 10
348.78125
 20
719.0048828125
 30
0.0
  0
VERTEX
  5
4B
330
49
100
AcDbEntity
  8
LAYER_1
100
AcDbVertex
100
AcDb2dVertex
 10
397.271484375
 20
719.0048828125
 30
0.0
  0
VERTEX
  5
4C
330
49
100
AcDbEntity
  8
LAYER_1
100
AcDbVertex
100
AcDb2dVertex
 10
397.271484375
 20
647.794921875
 30
0.0
  0
VERTEX
  5
4D
330
49
100
AcDbEntity
  8
LAYER_1
100
AcDbVertex
100
AcDb2dVertex
 10
348.78125
 20
647.794921875
 30
0.0
  0
VERTEX
  5
4E
330
49
100
AcDbEntity
  8
LAYER_1
100
AcDbVertex
100
AcDb2dVertex
 10
348.78125
 20
719.0048828125
 30
0.0
  0
SEQEND
  5
4F
330
49
100
AcDbEntity
  8
LAYER_1
  0
ENDBLK
  5
3F
330
3C
100
AcDbEntity
  8
0
100
AcDbBlockEnd
  0
BLOCK
  5
52
330
50
100
AcDbEntity
  8
0
100
AcDbBlockBegin
  2
BLOCK_3
 70
     0
 71
     0
 10
0.0
 20
0.0
 30
0.0
  3
BLOCK_3
  1

  0
POLYLINE
  5
54
330
50
100
AcDbEntity
  8
LAYER_1
 62
   250
100
AcDb2dPolyline
 66
     1
 10
0.0
 20
0.0
 30
0.0
  0
VERTEX
  5
55
330
54
100
AcDbEntity
  8
LAYER_1
 62
   250
100
AcDbVertex
100
AcDb2dVertex
 10
468.71875
 20
649.294921875
 30
0.0
  0
VERTEX
  5
56
330
54
100
AcDbEntity
  8
LAYER_1
 62
   250
100
AcDbVertex
100
AcDb2dVertex
 10
421.9912109375
 20
649.294921875
 30
0.0
  0
VERTEX
  5
57
330
54
100
AcDbEntity
  8
LAYER_1
 62
   250
100
AcDbVertex
100
AcDb2dVertex
 10
421.9912109375
 20
696.6279296875
 30
0.0
  0
VERTEX
  5
58
330
54
100
AcDbEntity
  8
LAYER_1
 62
   250
100
AcDbVertex
100
AcDb2dVertex
 10
468.71875
 20
696.6279296875
 30
0.0
  0
VERTEX
  5
59
330
54
100
AcDbEntity
  8
LAYER_1
 62
   250
100
AcDbVertex
100
AcDb2dVertex
 10
468.71875
 20
649.294921875
 30
0.0
  0
SEQEND
  5
5A
330
54
100
AcDbEntity
  8
LAYER_1
  0
SPLINE
  5
5B
330
50
100
AcDbEntity
  8
LAYER_1
100
AcDbSpline
210
0.0
220
0.0
230
1.0
 70
    11
 71
     3
 72
    26
 73
    22
 74
     0
 42
0.0000000001
 43
0.0000000001
 40
0.0
 40
0.0
 40
0.0
 40
0.0
 40
1.0
 40
1.0
 40
1.0
 40
2.0
 40
2.0
 40
2.0
 40
3.0
 40
3.0
 40
3.0
 40
4.0
 40
4.0
 40
4.0
 40
5.0
 40
5.0
 40
5.0
 40
6.0
 40
6.0
 40
6.0
 40
7.0
 40
7.0
 40
7.0
 40
7.0
 10
468.7177734375
 20
695.50439453125
 30
0.0
 10
468.7177734375
 20
684.82470703125
 30
0.0
 10
461.59765625
 20
675.814453125
 30
0.0
 10
451.84765625
 20
672.96435546875
 30
0.0
 10
451.84765625
 20
672.96435546875
 30
0.0
 10
451.84765625
 20
653.66455078125
 30
0.0
 10
451.84765625
 20
653.66455078125
 30
0.0
 10
451.84765625
 20
653.66455078125
 30
0.0
 10
437.8583984375
 20
653.66455078125
 30
0.0
 10
437.8583984375
 20
653.66455078125
 30
0.0
 10
437.8583984375
 20
653.66455078125
 30
0.0
 10
437.8583984375
 20
673.1943359375
 30
0.0
 10
437.8583984375
 20
673.1943359375
 30
0.0
 10
428.48828125
 20
676.2744140625
 30
0.0
 10
421.7294921875
 20
685.0947265625
 30
0.0
 10
421.7294921875
 20
695.50439453125
 30
0.0
 10
421.7294921875
 20
708.484375
 30
0.0
 10
432.248046875
 20
719.00439453125
 30
0.0
 10
445.2177734375
 20
719.00439453125
 30
0.0
 10
458.19921875
 20
719.00439453125
 30
0.0
 10
468.7177734375
 20
708.484375
 30
0.0
 10
468.7177734375
 20
695.50439453125
 30
0.0
  0
SPLINE
  5
5C
330
50
100
AcDbEntity
  8
LAYER_1
 62
     7
100
AcDbSpline
210
0.0
220
0.0
230
1.0
 70
    11
 71
     3
 72
    26
 73
    22
 74
     0
 42
0.0000000001
 43
0.0000000001
 40
0.0
 40
0.0
 40
0.0
 40
0.0
 40
1.0
 40
1.0
 40
1.0
 40
2.0
 40
2.0
 40
2.0
 40
3.0
 40
3.0
 40
3.0
 40
4.0
 40
4.0
 40
4.0
 40
5.0
 40
5.0
 40
5.0
 40
6.0
 40
6.0
 40
6.0
 40
7.0
 40
7.0
 40
7.0
 40
7.0
 10
468.7177734375
 20
695.50439453125
 30
0.0
 10
468.7177734375
 20
684.82470703125
 30
0.0
 10
461.59765625
 20
675.814453125
 30
0.0
 10
451.84765625
 20
672.96435546875
 30
0.0
 10
451.84765625
 20
672.96435546875
 30
0.0
 10
451.84765625
 20
653.66455078125
 30
0.0
 10
451.84765625
 20
653.66455078125
 30
0.0
 10
451.84765625
 20
653.66455078125
 30
0.0
 10
437.8583984375
 20
653.66455078125
 30
0.0
 10
437.8583984375
 20
653.66455078125
 30
0.0
 10
437.8583984375
 20
653.66455078125
 30
0.0
 10
437.8583984375
 20
673.1943359375
 30
0.0
 10
437.8583984375
 20
673.1943359375
 30
0.0
 10
428.48828125
 20
676.2744140625
 30
0.0
 10
421.7294921875
 20
685.0947265625
 30
0.0
 10
421.7294921875
 20
695.50439453125
 30
0.0
 10
421.7294921875
 20
708.484375
 30
0.0
 10
432.248046875
 20
719.00439453125
 30
0.0
 10
445.2177734375
 20
719.00439453125
 30
0.0
 10
458.19921875
 20
719.00439453125
 30
0.0
 10
468.7177734375
 20
708.484375
 30
0.0
 10
468.7177734375
 20
695.50439453125
 30
0.0
  0
POLYLINE
  5
5D
330
50
100
AcDbEntity
  8
LAYER_1
100
AcDb2dPolyline
 66
     1
 10
0.0
 20
0.0
 30
0.0
  0
VERTEX
  5
5E
330
5D
100
AcDbEntity
  8
LAYER_1
100
AcDbVertex
100
AcDb2dVertex
 10
420.9794921875
 20
719.7548828125
 30
0.0
  0
VERTEX
  5
5F
330
5D
100
AcDbEntity
  8
LAYER_1
100
AcDbVertex
100
AcDb2dVertex
 10
469.4677734375
 20
719.7548828125
 30
0.0
  0
VERTEX
  5
60
330
5D
100
AcDbEntity
  8
LAYER_1
100
AcDbVertex
100
AcDb2dVertex
 10
469.4677734375
 20
648.544921875
 30
0.0
  0
VERTEX
  5
61
330
5D
100
AcDbEntity
  8
LAYER_1
100
AcDbVertex
100
AcDb2dVertex
 10
420.9794921875
 20
648.544921875
 30
0.0
  0
VERTEX
  5
62
330
5D
100
AcDbEntity
  8
LAYER_1
100
AcDbVertex
100
AcDb2dVertex
 10
420.9794921875
 20
719.7548828125
 30
0.0
  0
SEQEND
  5
63
330
5D
100
AcDbEntity
  8
LAYER_1
  0
ENDBLK
  5
53
330
50
100
AcDbEntity
  8
0
100
AcDbBlockEnd
  0
BLOCK
  5
7C
330
7A
100
AcDbEntity
  8
0
100
AcDbBlockBegin
  2
BLOCK_4
 70
     0
 71
     0
 10
0.0
 20
0.0
 30
0.0
  3
BLOCK_4
  1

  0
SPLINE
  5
7E
330
7A
100
AcDbEntity
  8
LAYER_1
 62
   250
100
AcDbSpline
210
0.0
220
0.0
230
1.0
 70
     8
 71
     3
 72
    32
 73
    28
 74
     0
 42
0.0000000001
 43
0.0000000001
 40
0.0
 40
0.0
 40
0.0
 40
0.0
 40
1.0
 40
1.0
 40
1.0
 40
2.0
 40
2.0
 40
2.0
 40
3.0
 40
3.0
 40
3.0
 40
4.0
 40
4.0
 40
4.0
 40
5.0
 40
5.0
 40
5.0
 40
6.0
 40
6.0
 40
6.0
 40
7.0
 40
7.0
 40
7.0
 40
8.0
 40
8.0
 40
8.0
 40
9.0
 40
9.0
 40
9.0
 40
9.0
 10
626.3994140625
 20
361.037109375
 30
0.0
 10
633.1494140625
 20
346.4765625
 30
0.0
 10
647.890625
 20
336.38671875
 30
0.0
 10
664.990234375
 20
336.38671875
 30
0.0
 10
664.990234375
 20
336.38671875
 30
0.0
 10
721.6796875
 20
336.38671875
 30
0.0
 10
721.6796875
 20
336.38671875
 30
0.0
 10
721.6796875
 20
336.38671875
 30
0.0
 10
721.681640625
 20
364.73046875
 30
0.0
 10
721.681640625
 20
364.73046875
 30
0.0
 10
721.681640625
 20
364.73046875
 30
0.0
 10
658.076171875
 20
364.73046875
 30
0.0
 10
658.076171875
 20
364.73046875
 30
0.0
 10
644.78515625
 20
369.330078125
 30
0.0
 10
646.01953125
 20
390.08984375
 30
0.0
 10
659.076171875
 20
393.0771484375
 30
0.0
 10
659.076171875
 20
393.0771484375
 30
0.0
 10
721.681640625
 20
393.0771484375
 30
0.0
 10
721.681640625
 20
393.0771484375
 30
0.0
 10
721.681640625
 20
393.0771484375
 30
0.0
 10
721.6796875
 20
421.4267578125
 30
0.0
 10
721.6796875
 20
421.4267578125
 30
0.0
 10
721.6796875
 20
421.4267578125
 30
0.0
 10
664.990234375
 20
421.4267578125
 30
0.0
 10
664.990234375
 20
421.4267578125
 30
0.0
 10
647.890625
 20
421.4267578125
 30
0.0
 10
633.1494140625
 20
411.3271484375
 30
0.0
 10
626.3994140625
 20
396.7763671875
 30
0.0
  0
SPLINE
  5
7F
330
7A
100
AcDbEntity
  8
LAYER_1
 62
     7
100
AcDbSpline
210
0.0
220
0.0
230
1.0
 70
    11
 71
     3
 72
    65
 73
    61
 74
     0
 42
0.0000000001
 43
0.0000000001
 40
0.0
 40
0.0
 40
0.0
 40
0.0
 40
1.0
 40
1.0
 40
1.0
 40
2.0
 40
2.0
 40
2.0
 40
3.0
 40
3.0
 40
3.0
 40
4.0
 40
4.0
 40
4.0
 40
5.0
 40
5.0
 40
5.0
 40
6.0
 40
6.0
 40
6.0
 40
7.0
 40
7.0
 40
7.0
 40
8.0
 40
8.0
 40
8.0
 40
9.0
 40
9.0
 40
9.0
 40
10.0
 40
10.0
 40
10.0
 40
11.0
 40
11.0
 40
11.0
 40
12.0
 40
12.0
 40
12.0
 40
13.0
 40
13.0
 40
13.0
 40
14.0
 40
14.0
 40
14.0
 40
15.0
 40
15.0
 40
15.0
 40
16.0
 40
16.0
 40
16.0
 40
17.0
 40
17.0
 40
17.0
 40
18.0
 40
18.0
 40
18.0
 40
19.0
 40
19.0
 40
19.0
 40
20.0
 40
20.0
 40
20.0
 40
20.0
 10
582.375
 20
343.958984375
 30
0.0
 10
582.375
 20
343.958984375
 30
0.0
 10
581.236328125
 20
343.958984375
 30
0.0
 10
581.236328125
 20
343.958984375
 30
0.0
 10
580.490234375
 20
342.66796875
 30
0.0
 10
579.4130859375
 20
341.591796875
 30
0.0
 10
578.123046875
 20
340.8447265625
 30
0.0
 10
578.123046875
 20
340.8447265625
 30
0.0
 10
578.123046875
 20
339.70703125
 30
0.0
 10
578.123046875
 20
339.70703125
 30
0.0
 10
578.123046875
 20
339.70703125
 30
0.0
 10
573.87109375
 20
339.70703125
 30
0.0
 10
573.87109375
 20
339.70703125
 30
0.0
 10
573.87109375
 20
339.70703125
 30
0.0
 10
569.619140625
 20
339.70703125
 30
0.0
 10
569.619140625
 20
339.70703125
 30
0.0
 10
569.619140625
 20
339.70703125
 30
0.0
 10
569.619140625
 20
340.8447265625
 30
0.0
 10
569.619140625
 20
340.8447265625
 30
0.0
 10
568.328125
 20
341.591796875
 30
0.0
 10
567.251953125
 20
342.66796875
 30
0.0
 10
566.50390625
 20
343.958984375
 30
0.0
 10
566.50390625
 20
343.958984375
 30
0.0
 10
565.3662109375
 20
343.958984375
 30
0.0
 10
565.3662109375
 20
343.958984375
 30
0.0
 10
565.3662109375
 20
343.958984375
 30
0.0
 10
565.3662109375
 20
348.2109375
 30
0.0
 10
565.3662109375
 20
348.2109375
 30
0.0
 10
565.3662109375
 20
348.2109375
 30
0.0
 10
565.3662109375
 20
352.462890625
 30
0.0
 10
565.3662109375
 20
352.462890625
 30
0.0
 10
565.3662109375
 20
352.462890625
 30
0.0
 10
566.50390625
 20
352.462890625
 30
0.0
 10
566.50390625
 20
352.462890625
 30
0.0
 10
567.251953125
 20
353.75390625
 30
0.0
 10
568.328125
 20
354.830078125
 30
0.0
 10
569.619140625
 20
355.5771484375
 30
0.0
 10
569.619140625
 20
355.5771484375
 30
0.0
 10
569.619140625
 20
356.71484375
 30
0.0
 10
569.619140625
 20
356.71484375
 30
0.0
 10
569.619140625
 20
356.71484375
 30
0.0
 10
573.87109375
 20
356.71484375
 30
0.0
 10
573.87109375
 20
356.71484375
 30
0.0
 10
573.87109375
 20
356.71484375
 30
0.0
 10
578.123046875
 20
356.71484375
 30
0.0
 10
578.123046875
 20
356.71484375
 30
0.0
 10
578.123046875
 20
356.71484375
 30
0.0
 10
578.123046875
 20
355.5771484375
 30
0.0
 10
578.123046875
 20
355.5771484375
 30
0.0
 10
579.4130859375
 20
354.830078125
 30
0.0
 10
580.490234375
 20
353.75390625
 30
0.0
 10
581.236328125
 20
352.462890625
 30
0.0
 10
581.236328125
 20
352.462890625
 30
0.0
 10
582.375
 20
352.462890625
 30
0.0
 10
582.375
 20
352.462890625
 30
0.0
 10
582.375
 20
352.462890625
 30
0.0
 10
582.375
 20
348.2109375
 30
0.0
 10
582.375
 20
348.2109375
 30
0.0
 10
582.375
 20
348.2109375
 30
0.0
 10
582.375
 20
343.958984375
 30
0.0
 10
582.375
 20
343.958984375
 30
0.0
  0
POLYLINE
  5
80
330
7A
100
AcDbEntity
  8
LAYER_1
 62
     7
100
AcDb2dPolyline
 66
     1
 10
0.0
 20
0.0
 30
0.0
  0
VERTEX
  5
81
330
80
100
AcDbEntity
  8
LAYER_1
 62
     7
100
AcDbVertex
100
AcDb2dVertex
 10
578.123046875
 20
368.052734375
 30
0.0
  0
VERTEX
  5
82
330
80
100
AcDbEntity
  8
LAYER_1
 62
     7
100
AcDbVertex
100
AcDb2dVertex
 10
569.619140625
 20
368.052734375
 30
0.0
  0
VERTEX
  5
83
330
80
100
AcDbEntity
  8
LAYER_1
 62
     7
100
AcDbVertex
100
AcDb2dVertex
 10
569.619140625
 20
385.060546875
 30
0.0
  0
VERTEX
  5
84
330
80
100
AcDbEntity
  8
LAYER_1
 62
     7
100
AcDbVertex
100
AcDb2dVertex
 10
578.123046875
 20
385.060546875
 30
0.0
  0
VERTEX
  5
85
330
80
100
AcDbEntity
  8
LAYER_1
 62
     7
100
AcDbVertex
100
AcDb2dVertex
 10
578.123046875
 20
368.052734375
 30
0.0
  0
SEQEND
  5
86
330
80
100
AcDbEntity
  8
LAYER_1
  0
SPLINE
  5
87
330
7A
100
AcDbEntity
  8
LAYER_1
 62
     7
100
AcDbSpline
210
0.0
220
0.0
230
1.0
 70
    11
 71
     3
 72
    65
 73
    61
 74
     0
 42
0.0000000001
 43
0.0000000001
 40
0.0
 40
0.0
 40
0.0
 40
0.0
 40
1.0
 40
1.0
 40
1.0
 40
2.0
 40
2.0
 40
2.0
 40
3.0
 40
3.0
 40
3.0
 40
4.0
 40
4.0
 40
4.0
 40
5.0
 40
5.0
 40
5.0
 40
6.0
 40
6.0
 40
6.0
 40
7.0
 40
7.0
 40
7.0
 40
8.0
 40
8.0
 40
8.0
 40
9.0
 40
9.0
 40
9.0
 40
10.0
 40
10.0
 40
10.0
 40
11.0
 40
11.0
 40
11.0
 40
12.0
 40
12.0
 40
12.0
 40
13.0
 40
13.0
 40
13.0
 40
14.0
 40
14.0
 40
14.0
 40
15.0
 40
15.0
 40
15.0
 40
16.0
 40
16.0
 40
16.0
 40
17.0
 40
17.0
 40
17.0
 40
18.0
 40
18.0
 40
18.0
 40
19.0
 40
19.0
 40
19.0
 40
20.0
 40
20.0
 40
20.0
 40
20.0
 10
582.375
 20
400.6513671875
 30
0.0
 10
582.375
 20
400.6513671875
 30
0.0
 10
581.236328125
 20
400.6513671875
 30
0.0
 10
581.236328125
 20
400.6513671875
 30
0.0
 10
580.490234375
 20
399.3603515625
 30
0.0
 10
579.4130859375
 20
398.28515625
 30
0.0
 10
578.123046875
 20
397.5380859375
 30
0.0
 10
578.123046875
 20
397.5380859375
 30
0.0
 10
578.123046875
 20
396.3994140625
 30
0.0
 10
578.123046875
 20
396.3994140625
 30
0.0
 10
578.123046875
 20
396.3994140625
 30
0.0
 10
573.87109375
 20
396.3994140625
 30
0.0
 10
573.87109375
 20
396.3994140625
 30
0.0
 10
573.87109375
 20
396.3994140625
 30
0.0
 10
569.619140625
 20
396.3994140625
 30
0.0
 10
569.619140625
 20
396.3994140625
 30
0.0
 10
569.619140625
 20
396.3994140625
 30
0.0
 10
569.619140625
 20
397.5380859375
 30
0.0
 10
569.619140625
 20
397.5380859375
 30
0.0
 10
568.328125
 20
398.28515625
 30
0.0
 10
567.251953125
 20
399.3603515625
 30
0.0
 10
566.50390625
 20
400.6513671875
 30
0.0
 10
566.50390625
 20
400.6513671875
 30
0.0
 10
565.3662109375
 20
400.6513671875
 30
0.0
 10
565.3662109375
 20
400.6513671875
 30
0.0
 10
565.3662109375
 20
400.6513671875
 30
0.0
 10
565.3662109375
 20
404.9033203125
 30
0.0
 10
565.3662109375
 20
404.9033203125
 30
0.0
 10
565.3662109375
 20
404.9033203125
 30
0.0
 10
565.3662109375
 20
409.1552734375
 30
0.0
 10
565.3662109375
 20
409.1552734375
 30
0.0
 10
565.3662109375
 20
409.1552734375
 30
0.0
 10
566.50390625
 20
409.1552734375
 30
0.0
 10
566.50390625
 20
409.1552734375
 30
0.0
 10
567.251953125
 20
410.4462890625
 30
0.0
 10
568.328125
 20
411.5224609375
 30
0.0
 10
569.619140625
 20
412.26953125
 30
0.0
 10
569.619140625
 20
412.26953125
 30
0.0
 10
569.619140625
 20
413.408203125
 30
0.0
 10
569.619140625
 20
413.408203125
 30
0.0
 10
569.619140625
 20
413.408203125
 30
0.0
 10
573.87109375
 20
413.408203125
 30
0.0
 10
573.87109375
 20
413.408203125
 30
0.0
 10
573.87109375
 20
413.408203125
 30
0.0
 10
578.123046875
 20
413.408203125
 30
0.0
 10
578.123046875
 20
413.408203125
 30
0.0
 10
578.123046875
 20
413.408203125
 30
0.0
 10
578.123046875
 20
412.26953125
 30
0.0
 10
578.123046875
 20
412.26953125
 30
0.0
 10
579.4130859375
 20
411.5224609375
 30
0.0
 10
580.490234375
 20
410.4462890625
 30
0.0
 10
581.236328125
 20
409.1552734375
 30
0.0
 10
581.236328125
 20
409.1552734375
 30
0.0
 10
582.375
 20
409.1552734375
 30
0.0
 10
582.375
 20
409.1552734375
 30
0.0
 10
582.375
 20
409.1552734375
 30
0.0
 10
582.375
 20
404.9033203125
 30
0.0
 10
582.375
 20
404.9033203125
 30
0.0
 10
582.375
 20
404.9033203125
 30
0.0
 10
582.375
 20
400.6513671875
 30
0.0
 10
582.375
 20
400.6513671875
 30
0.0
  0
SPLINE
  5
88
330
7A
100
AcDbEntity
  8
LAYER_1
 62
   250
100
AcDbSpline
210
0.0
220
0.0
230
1.0
 70
     8
 71
     3
 72
     8
 73
     4
 74
     0
 42
0.0000000001
 43
0.0000000001
 40
0.0
 40
0.0
 40
0.0
 40
0.0
 40
1.0
 40
1.0
 40
1.0
 40
1.0
 10
626.236328125
 20
361.2138671875
 30
0.0
 10
620.0703125
 20
374.0458984375
 30
0.0
 10
620.447265625
 20
385.748046875
 30
0.0
 10
626.236328125
 20
396.3994140625
 30
0.0
  0
POLYLINE
  5
89
330
7A
100
AcDbEntity
  8
LAYER_1
 62
   250
100
AcDb2dPolyline
 66
     1
 10
0.0
 20
0.0
 30
0.0
  0
VERTEX
  5
8A
330
89
100
AcDbEntity
  8
LAYER_1
 62
   250
100
AcDbVertex
100
AcDb2dVertex
 10
603.236328125
 20
361.1416015625
 30
0.0
  0
VERTEX
  5
8B
330
89
100
AcDbEntity
  8
LAYER_1
 62
   250
100
AcDbVertex
100
AcDb2dVertex
 10
603.236328125
 20
396.400390625
 30
0.0
  0
SEQEND
  5
8C
330
89
100
AcDbEntity
  8
LAYER_1
  0
POLYLINE
  5
8D
330
7A
100
AcDbEntity
  8
LAYER_1
 62
   250
100
AcDb2dPolyline
 66
     1
 10
0.0
 20
0.0
 30
0.0
  0
VERTEX
  5
8E
330
8D
100
AcDbEntity
  8
LAYER_1
 62
   250
100
AcDbVertex
100
AcDb2dVertex
 10
614.236328125
 20
361.1416015625
 30
0.0
  0
VERTEX
  5
8F
330
8D
100
AcDbEntity
  8
LAYER_1
 62
   250
100
AcDbVertex
100
AcDb2dVertex
 10
614.236328125
 20
396.400390625
 30
0.0
  0
SEQEND
  5
90
330
8D
100
AcDbEntity
  8
LAYER_1
  0
SPLINE
  5
91
330
7A
100
AcDbEntity
  8
LAYER_1
 62
   250
100
AcDbSpline
210
0.0
220
0.0
230
1.0
 70
     8
 71
     3
 72
    32
 73
    28
 74
     0
 42
0.0000000001
 43
0.0000000001
 40
0.0
 40
0.0
 40
0.0
 40
0.0
 40
1.0
 40
1.0
 40
1.0
 40
2.0
 40
2.0
 40
2.0
 40
3.0
 40
3.0
 40
3.0
 40
4.0
 40
4.0
 40
4.0
 40
5.0
 40
5.0
 40
5.0
 40
6.0
 40
6.0
 40
6.0
 40
7.0
 40
7.0
 40
7.0
 40
8.0
 40
8.0
 40
8.0
 40
9.0
 40
9.0
 40
9.0
 40
9.0
 10
626.3994140625
 20
360.4765625
 30
0.0
 10
626.3994140625
 20
360.4765625
 30
0.0
 10
592.2998046875
 20
360.4765625
 30
0.0
 10
592.2998046875
 20
360.4765625
 30
0.0
 10
592.2998046875
 20
360.4765625
 30
0.0
 10
592.2998046875
 20
329.787109375
 30
0.0
 10
592.2998046875
 20
329.787109375
 30
0.0
 10
592.2998046875
 20
329.787109375
 30
0.0
 10
569.62109375
 20
329.787109375
 30
0.0
 10
569.62109375
 20
329.787109375
 30
0.0
 10
561.791015625
 20
329.787109375
 30
0.0
 10
555.4501953125
 20
336.13671875
 30
0.0
 10
555.4501953125
 20
343.95703125
 30
0.0
 10
555.4501953125
 20
343.95703125
 30
0.0
 10
555.4501953125
 20
409.8466796875
 30
0.0
 10
555.4501953125
 20
409.8466796875
 30
0.0
 10
555.4501953125
 20
417.6767578125
 30
0.0
 10
561.791015625
 20
424.02685546875
 30
0.0
 10
569.62109375
 20
424.02685546875
 30
0.0
 10
569.62109375
 20
424.02685546875
 30
0.0
 10
592.2998046875
 20
424.02685546875
 30
0.0
 10
592.2998046875
 20
424.02685546875
 30
0.0
 10
592.2998046875
 20
424.02685546875
 30
0.0
 10
592.2998046875
 20
397.3271484375
 30
0.0
 10
592.2998046875
 20
397.3271484375
 30
0.0
 10
592.2998046875
 20
397.3271484375
 30
0.0
 10
626.3994140625
 20
397.3271484375
 30
0.0
 10
626.3994140625
 20
397.3271484375
 30
0.0
  0
POLYLINE
  5
92
330
7A
100
AcDbEntity
  8
LAYER_1
 62
   250
100
AcDb2dPolyline
 66
     1
 10
0.0
 20
0.0
 30
0.0
  0
VERTEX
  5
93
330
92
100
AcDbEntity
  8
LAYER_1
 62
   250
100
AcDbVertex
100
AcDb2dVertex
 10
592.2998046875
 20
360.4765625
 30
0.0
  0
VERTEX
  5
94
330
92
100
AcDbEntity
  8
LAYER_1
 62
   250
100
AcDbVertex
100
AcDb2dVertex
 10
592.2998046875
 20
398.0625
 30
0.0
  0
SEQEND
  5
95
330
92
100
AcDbEntity
  8
LAYER_1
  0
INSERT
  5
97
330
7A
100
AcDbEntity
  8
LAYER_1
100
AcDbBlockReference
  2
BLOCK_5
 10
0.0
 20
0.0
 30
0.0
  0
POLYLINE
  5
A2
330
7A
100
AcDbEntity
  8
LAYER_1
 62
     7
100
AcDb2dPolyline
 66
     1
 10
0.0
 20
0.0
 30
0.0
  0
VERTEX
  5
A3
330
A2
100
AcDbEntity
  8
LAYER_1
 62
     7
100
AcDbVertex
100
AcDb2dVertex
 10
708.81640625
 20
393.0771484375
 30
0.0
  0
VERTEX
  5
A4
330
A2
100
AcDbEntity
  8
LAYER_1
 62
     7
100
AcDbVertex
100
AcDb2dVertex
 10
708.81640625
 20
421.4267578125
 30
0.0
  0
SEQEND
  5
A5
330
A2
100
AcDbEntity
  8
LAYER_1
  0
POLYLINE
  5
A6
330
7A
100
AcDbEntity
  8
LAYER_1
 62
     7
100
AcDb2dPolyline
 66
     1
 10
0.0
 20
0.0
 30
0.0
  0
VERTEX
  5
A7
330
A6
100
AcDbEntity
  8
LAYER_1
 62
     7
100
AcDbVertex
100
AcDb2dVertex
 10
708.81640625
 20
364.73046875
 30
0.0
  0
VERTEX
  5
A8
330
A6
100
AcDbEntity
  8
LAYER_1
 62
     7
100
AcDbVertex
100
AcDb2dVertex
 10
708.81640625
 20
336.38671875
 30
0.0
  0
SEQEND
  5
A9
330
A6
100
AcDbEntity
  8
LAYER_1
  0
POLYLINE
  5
AA
330
7A
100
AcDbEntity
  8
LAYER_1
100
AcDb2dPolyline
 66
     1
 10
0.0
 20
0.0
 30
0.0
  0
VERTEX
  5
AB
330
AA
100
AcDbEntity
  8
LAYER_1
100
AcDbVertex
100
AcDb2dVertex
 10
554.7001953125
 20
424.77685546875
 30
0.0
  0
VERTEX
  5
AC
330
AA
100
AcDbEntity
  8
LAYER_1
100
AcDbVertex
100
AcDb2dVertex
 10
722.431640625
 20
424.77685546875
 30
0.0
  0
VERTEX
  5
AD
330
AA
100
AcDbEntity
  8
LAYER_1
100
AcDbVertex
100
AcDb2dVertex
 10
722.431640625
 20
329.037109375
 30
0.0
  0
VERTEX
  5
AE
330
AA
100
AcDbEntity
  8
LAYER_1
100
AcDbVertex
100
AcDb2dVertex
 10
554.7001953125
 20
329.037109375
 30
0.0
  0
VERTEX
  5
AF
330
AA
100
AcDbEntity
  8
LAYER_1
100
AcDbVertex
100
AcDb2dVertex
 10
554.7001953125
 20
424.77685546875
 30
0.0
  0
SEQEND
  5
B0
330
AA
100
AcDbEntity
  8
LAYER_1
  0
ENDBLK
  5
7D
330
7A
100
AcDbEntity
  8
0
100
AcDbBlockEnd
  0
BLOCK
  5
98
330
96
100
AcDbEntity
  8
0
100
AcDbBlockBegin
  2
BLOCK_5
 70
     0
 71
     0
 10
0.0
 20
0.0
 30
0.0
  3
BLOCK_5
  1

  0
SPLINE
  5
9A
330
96
100
AcDbEntity
  8
LAYER_1
 62
     7
100
AcDbSpline
210
0.0
220
0.0
230
1.0
 70
    11
 71
     3
 72
    17
 73
    13
 74
     0
 42
0.0000000001
 43
0.0000000001
 40
0.0
 40
0.0
 40
0.0
 40
0.0
 40
1.0
 40
1.0
 40
1.0
 40
2.0
 40
2.0
 40
2.0
 40
3.0
 40
3.0
 40
3.0
 40
4.0
 40
4.0
 40
4.0
 40
4.0
 10
638.8173828125
 20
381.0537109375
 30
0.0
 10
638.8173828125
 20
378.568359375
 30
0.0
 10
636.802734375
 20
376.5537109375
 30
0.0
 10
634.3173828125
 20
376.5537109375
 30
0.0
 10
631.83203125
 20
376.5537109375
 30
0.0
 10
629.8173828125
 20
378.568359375
 30
0.0
 10
629.8173828125
 20
381.0537109375
 30
0.0
 10
629.8173828125
 20
383.5380859375
 30
0.0
 10
631.83203125
 20
385.5537109375
 30
0.0
 10
634.3173828125
 20
385.5537109375
 30
0.0
 10
636.802734375
 20
385.5537109375
 30
0.0
 10
638.8173828125
 20
383.5380859375
 30
0.0
 10
638.8173828125
 20
381.0537109375
 30
0.0
  0
POLYLINE
  5
9B
330
96
100
AcDbEntity
  8
LAYER_1
100
AcDb2dPolyline
 66
     1
 10
0.0
 20
0.0
 30
0.0
  0
VERTEX
  5
9C
330
9B
100
AcDbEntity
  8
LAYER_1
100
AcDbVertex
100
AcDb2dVertex
 10
629.0673828125
 20
386.3037109375
 30
0.0
  0
VERTEX
  5
9D
330
9B
100
AcDbEntity
  8
LAYER_1
100
AcDbVertex
100
AcDb2dVertex
 10
639.5673828125
 20
386.3037109375
 30
0.0
  0
VERTEX
  5
9E
330
9B
100
AcDbEntity
  8
LAYER_1
100
AcDbVertex
100
AcDb2dVertex
 10
639.5673828125
 20
375.8037109375
 30
0.0
  0
VERTEX
  5
9F
330
9B
100
AcDbEntity
  8
LAYER_1
100
AcDbVertex
100
AcDb2dVertex
 10
629.0673828125
 20
375.8037109375
 30
0.0
  0
VERTEX
  5
A0
330
9B
100
AcDbEntity
  8
LAYER_1
100
AcDbVertex
100
AcDb2dVertex
 10
629.0673828125
 20
386.3037109375
 30
0.0
  0
SEQEND
  5
A1
330
9B
100
AcDbEntity
  8
LAYER_1
  0
ENDBLK
  5
99
330
96
100
AcDbEntity
  8
0
100
AcDbBlockEnd
  0
BLOCK
  5
B3
330
B1
100
AcDbEntity
  8
0
100
AcDbBlockBegin
  2
BLOCK_6
 70
     0
 71
     0
 10
0.0
 20
0.0
 30
0.0
  3
BLOCK_6
  1

  0
SPLINE
  5
B5
330
B1
100
AcDbEntity
  8
LAYER_1
 62
   250
100
AcDbSpline
210
0.0
220
0.0
230
1.0
 70
     8
 71
     3
 72
    32
 73
    28
 74
     0
 42
0.0000000001
 43
0.0000000001
 40
0.0
 40
0.0
 40
0.0
 40
0.0
 40
1.0
 40
1.0
 40
1.0
 40
2.0
 40
2.0
 40
2.0
 40
3.0
 40
3.0
 40
3.0
 40
4.0
 40
4.0
 40
4.0
 40
5.0
 40
5.0
 40
5.0
 40
6.0
 40
6.0
 40
6.0
 40
7.0
 40
7.0
 40
7.0
 40
8.0
 40
8.0
 40
8.0
 40
9.0
 40
9.0
 40
9.0
 40
9.0
 10
189.90185546875
 20
361.0361328125
 30
0.0
 10
183.15185546875
 20
346.4765625
 30
0.0
 10
168.412109375
 20
336.38671875
 30
0.0
 10
151.31201171875
 20
336.38671875
 30
0.0
 10
151.31201171875
 20
336.38671875
 30
0.0
 10
94.6220703125
 20
336.38671875
 30
0.0
 10
94.6220703125
 20
336.38671875
 30
0.0
 10
94.6220703125
 20
336.38671875
 30
0.0
 10
94.6201171875
 20
364.73046875
 30
0.0
 10
94.6201171875
 20
364.73046875
 30
0.0
 10
94.6201171875
 20
364.73046875
 30
0.0
 10
158.22509765625
 20
364.73046875
 30
0.0
 10
158.22509765625
 20
364.73046875
 30
0.0
 10
171.51708984375
 20
369.330078125
 30
0.0
 10
170.28173828125
 20
390.08984375
 30
0.0
 10
157.22509765625
 20
393.076171875
 30
0.0
 10
157.22509765625
 20
393.076171875
 30
0.0
 10
94.6201171875
 20
393.076171875
 30
0.0
 10
94.6201171875
 20
393.076171875
 30
0.0
 10
94.6201171875
 20
393.076171875
 30
0.0
 10
94.6220703125
 20
421.4267578125
 30
0.0
 10
94.6220703125
 20
421.4267578125
 30
0.0
 10
94.6220703125
 20
421.4267578125
 30
0.0
 10
151.31201171875
 20
421.4267578125
 30
0.0
 10
151.31201171875
 20
421.4267578125
 30
0.0
 10
168.412109375
 20
421.4267578125
 30
0.0
 10
183.15185546875
 20
411.326171875
 30
0.0
 10
189.90185546875
 20
396.7763671875
 30
0.0
  0
SPLINE
  5
B6
330
B1
100
AcDbEntity
  8
LAYER_1
 62
     7
100
AcDbSpline
210
0.0
220
0.0
230
1.0
 70
    11
 71
     3
 72
    65
 73
    61
 74
     0
 42
0.0000000001
 43
0.0000000001
 40
0.0
 40
0.0
 40
0.0
 40
0.0
 40
1.0
 40
1.0
 40
1.0
 40
2.0
 40
2.0
 40
2.0
 40
3.0
 40
3.0
 40
3.0
 40
4.0
 40
4.0
 40
4.0
 40
5.0
 40
5.0
 40
5.0
 40
6.0
 40
6.0
 40
6.0
 40
7.0
 40
7.0
 40
7.0
 40
8.0
 40
8.0
 40
8.0
 40
9.0
 40
9.0
 40
9.0
 40
10.0
 40
10.0
 40
10.0
 40
11.0
 40
11.0
 40
11.0
 40
12.0
 40
12.0
 40
12.0
 40
13.0
 40
13.0
 40
13.0
 40
14.0
 40
14.0
 40
14.0
 40
15.0
 40
15.0
 40
15.0
 40
16.0
 40
16.0
 40
16.0
 40
17.0
 40
17.0
 40
17.0
 40
18.0
 40
18.0
 40
18.0
 40
19.0
 40
19.0
 40
19.0
 40
20.0
 40
20.0
 40
20.0
 40
20.0
 10
233.92724609375
 20
343.958984375
 30
0.0
 10
233.92724609375
 20
343.958984375
 30
0.0
 10
235.0654296875
 20
343.958984375
 30
0.0
 10
235.0654296875
 20
343.958984375
 30
0.0
 10
235.8125
 20
342.66796875
 30
0.0
 10
236.88818359375
 20
341.591796875
 30
0.0
 10
238.17919921875
 20
340.8447265625
 30
0.0
 10
238.17919921875
 20
340.8447265625
 30
0.0
 10
238.17919921875
 20
339.70703125
 30
0.0
 10
238.17919921875
 20
339.70703125
 30
0.0
 10
238.17919921875
 20
339.70703125
 30
0.0
 10
242.43115234375
 20
339.70703125
 30
0.0
 10
242.43115234375
 20
339.70703125
 30
0.0
 10
242.43115234375
 20
339.70703125
 30
0.0
 10
246.68359375
 20
339.70703125
 30
0.0
 10
246.68359375
 20
339.70703125
 30
0.0
 10
246.68359375
 20
339.70703125
 30
0.0
 10
246.68359375
 20
340.8447265625
 30
0.0
 10
246.68359375
 20
340.8447265625
 30
0.0
 10
247.97412109375
 20
341.591796875
 30
0.0
 10
249.05029296875
 20
342.66796875
 30
0.0
 10
249.79736328125
 20
343.958984375
 30
0.0
 10
249.79736328125
 20
343.958984375
 30
0.0
 10
250.935546875
 20
343.958984375
 30
0.0
 10
250.935546875
 20
343.958984375
 30
0.0
 10
250.935546875
 20
343.958984375
 30
0.0
 10
250.935546875
 20
348.2109375
 30
0.0
 10
250.935546875
 20
348.2109375
 30
0.0
 10
250.935546875
 20
348.2109375
 30
0.0
 10
250.935546875
 20
352.462890625
 30
0.0
 10
250.935546875
 20
352.462890625
 30
0.0
 10
250.935546875
 20
352.462890625
 30
0.0
 10
249.79736328125
 20
352.462890625
 30
0.0
 10
249.79736328125
 20
352.462890625
 30
0.0
 10
249.05029296875
 20
353.75390625
 30
0.0
 10
247.97412109375
 20
354.830078125
 30
0.0
 10
246.68359375
 20
355.576171875
 30
0.0
 10
246.68359375
 20
355.576171875
 30
0.0
 10
246.68359375
 20
356.71484375
 30
0.0
 10
246.68359375
 20
356.71484375
 30
0.0
 10
246.68359375
 20
356.71484375
 30
0.0
 10
242.43115234375
 20
356.71484375
 30
0.0
 10
242.43115234375
 20
356.71484375
 30
0.0
 10
242.43115234375
 20
356.71484375
 30
0.0
 10
238.17919921875
 20
356.71484375
 30
0.0
 10
238.17919921875
 20
356.71484375
 30
0.0
 10
238.17919921875
 20
356.71484375
 30
0.0
 10
238.17919921875
 20
355.576171875
 30
0.0
 10
238.17919921875
 20
355.576171875
 30
0.0
 10
236.88818359375
 20
354.830078125
 30
0.0
 10
235.8125
 20
353.75390625
 30
0.0
 10
235.0654296875
 20
352.462890625
 30
0.0
 10
235.0654296875
 20
352.462890625
 30
0.0
 10
233.92724609375
 20
352.462890625
 30
0.0
 10
233.92724609375
 20
352.462890625
 30
0.0
 10
233.92724609375
 20
352.462890625
 30
0.0
 10
233.92724609375
 20
348.2109375
 30
0.0
 10
233.92724609375
 20
348.2109375
 30
0.0
 10
233.92724609375
 20
348.2109375
 30
0.0
 10
233.92724609375
 20
343.958984375
 30
0.0
 10
233.92724609375
 20
343.958984375
 30
0.0
  0
POLYLINE
  5
B7
330
B1
100
AcDbEntity
  8
LAYER_1
 62
     7
100
AcDb2dPolyline
 66
     1
 10
0.0
 20
0.0
 30
0.0
  0
VERTEX
  5
B8
330
B7
100
AcDbEntity
  8
LAYER_1
 62
     7
100
AcDbVertex
100
AcDb2dVertex
 10
238.17919921875
 20
368.052734375
 30
0.0
  0
VERTEX
  5
B9
330
B7
100
AcDbEntity
  8
LAYER_1
 62
     7
100
AcDbVertex
100
AcDb2dVertex
 10
246.68310546875
 20
368.052734375
 30
0.0
  0
VERTEX
  5
BA
330
B7
100
AcDbEntity
  8
LAYER_1
 62
     7
100
AcDbVertex
100
AcDb2dVertex
 10
246.68310546875
 20
385.060546875
 30
0.0
  0
VERTEX
  5
BB
330
B7
100
AcDbEntity
  8
LAYER_1
 62
     7
100
AcDbVertex
100
AcDb2dVertex
 10
238.17919921875
 20
385.060546875
 30
0.0
  0
VERTEX
  5
BC
330
B7
100
AcDbEntity
  8
LAYER_1
 62
     7
100
AcDbVertex
100
AcDb2dVertex
 10
238.17919921875
 20
368.052734375
 30
0.0
  0
SEQEND
  5
BD
330
B7
100
AcDbEntity
  8
LAYER_1
  0
SPLINE
  5
BE
330
B1
100
AcDbEntity
  8
LAYER_1
 62
     7
100
AcDbSpline
210
0.0
220
0.0
230
1.0
 70
    11
 71
     3
 72
    65
 73
    61
 74
     0
 42
0.0000000001
 43
0.0000000001
 40
0.0
 40
0.0
 40
0.0
 40
0.0
 40
1.0
 40
1.0
 40
1.0
 40
2.0
 40
2.0
 40
2.0
 40
3.0
 40
3.0
 40
3.0
 40
4.0
 40
4.0
 40
4.0
 40
5.0
 40
5.0
 40
5.0
 40
6.0
 40
6.0
 40
6.0
 40
7.0
 40
7.0
 40
7.0
 40
8.0
 40
8.0
 40
8.0
 40
9.0
 40
9.0
 40
9.0
 40
10.0
 40
10.0
 40
10.0
 40
11.0
 40
11.0
 40
11.0
 40
12.0
 40
12.0
 40
12.0
 40
13.0
 40
13.0
 40
13.0
 40
14.0
 40
14.0
 40
14.0
 40
15.0
 40
15.0
 40
15.0
 40
16.0
 40
16.0
 40
16.0
 40
17.0
 40
17.0
 40
17.0
 40
18.0
 40
18.0
 40
18.0
 40
19.0
 40
19.0
 40
19.0
 40
20.0
 40
20.0
 40
20.0
 40
20.0
 10
233.92724609375
 20
400.6513671875
 30
0.0
 10
233.92724609375
 20
400.6513671875
 30
0.0
 10
235.0654296875
 20
400.6513671875
 30
0.0
 10
235.0654296875
 20
400.6513671875
 30
0.0
 10
235.8125
 20
399.3603515625
 30
0.0
 10
236.88818359375
 20
398.2841796875
 30
0.0
 10
238.17919921875
 20
397.537109375
 30
0.0
 10
238.17919921875
 20
397.537109375
 30
0.0
 10
238.17919921875
 20
396.3994140625
 30
0.0
 10
238.17919921875
 20
396.3994140625
 30
0.0
 10
238.17919921875
 20
396.3994140625
 30
0.0
 10
242.43115234375
 20
396.3994140625
 30
0.0
 10
242.43115234375
 20
396.3994140625
 30
0.0
 10
242.43115234375
 20
396.3994140625
 30
0.0
 10
246.68359375
 20
396.3994140625
 30
0.0
 10
246.68359375
 20
396.3994140625
 30
0.0
 10
246.68359375
 20
396.3994140625
 30
0.0
 10
246.68359375
 20
397.537109375
 30
0.0
 10
246.68359375
 20
397.537109375
 30
0.0
 10
247.97412109375
 20
398.2841796875
 30
0.0
 10
249.05029296875
 20
399.3603515625
 30
0.0
 10
249.79736328125
 20
400.6513671875
 30
0.0
 10
249.79736328125
 20
400.6513671875
 30
0.0
 10
250.935546875
 20
400.6513671875
 30
0.0
 10
250.935546875
 20
400.6513671875
 30
0.0
 10
250.935546875
 20
400.6513671875
 30
0.0
 10
250.935546875
 20
404.9033203125
 30
0.0
 10
250.935546875
 20
404.9033203125
 30
0.0
 10
250.935546875
 20
404.9033203125
 30
0.0
 10
250.935546875
 20
409.1552734375
 30
0.0
 10
250.935546875
 20
409.1552734375
 30
0.0
 10
250.935546875
 20
409.1552734375
 30
0.0
 10
249.79736328125
 20
409.1552734375
 30
0.0
 10
249.79736328125
 20
409.1552734375
 30
0.0
 10
249.05029296875
 20
410.4462890625
 30
0.0
 10
247.97412109375
 20
411.5224609375
 30
0.0
 10
246.68359375
 20
412.26953125
 30
0.0
 10
246.68359375
 20
412.26953125
 30
0.0
 10
246.68359375
 20
413.4072265625
 30
0.0
 10
246.68359375
 20
413.4072265625
 30
0.0
 10
246.68359375
 20
413.4072265625
 30
0.0
 10
242.43115234375
 20
413.4072265625
 30
0.0
 10
242.43115234375
 20
413.4072265625
 30
0.0
 10
242.43115234375
 20
413.4072265625
 30
0.0
 10
238.17919921875
 20
413.4072265625
 30
0.0
 10
238.17919921875
 20
413.4072265625
 30
0.0
 10
238.17919921875
 20
413.4072265625
 30
0.0
 10
238.17919921875
 20
412.26953125
 30
0.0
 10
238.17919921875
 20
412.26953125
 30
0.0
 10
236.88818359375
 20
411.5224609375
 30
0.0
 10
235.8125
 20
410.4462890625
 30
0.0
 10
235.0654296875
 20
409.1552734375
 30
0.0
 10
235.0654296875
 20
409.1552734375
 30
0.0
 10
233.92724609375
 20
409.1552734375
 30
0.0
 10
233.92724609375
 20
409.1552734375
 30
0.0
 10
233.92724609375
 20
409.1552734375
 30
0.0
 10
233.92724609375
 20
404.9033203125
 30
0.0
 10
233.92724609375
 20
404.9033203125
 30
0.0
 10
233.92724609375
 20
404.9033203125
 30
0.0
 10
233.92724609375
 20
400.6513671875
 30
0.0
 10
233.92724609375
 20
400.6513671875
 30
0.0
  0
SPLINE
  5
BF
330
B1
100
AcDbEntity
  8
LAYER_1
 62
   250
100
AcDbSpline
210
0.0
220
0.0
230
1.0
 70
     8
 71
     3
 72
     8
 73
     4
 74
     0
 42
0.0000000001
 43
0.0000000001
 40
0.0
 40
0.0
 40
0.0
 40
0.0
 40
1.0
 40
1.0
 40
1.0
 40
1.0
 10
190.06591796875
 20
361.2138671875
 30
0.0
 10
196.2314453125
 20
374.0458984375
 30
0.0
 10
195.8544921875
 20
385.748046875
 30
0.0
 10
190.06591796875
 20
396.3994140625
 30
0.0
  0
POLYLINE
  5
C0
330
B1
100
AcDbEntity
  8
LAYER_1
 62
   250
100
AcDb2dPolyline
 66
     1
 10
0.0
 20
0.0
 30
0.0
  0
VERTEX
  5
C1
330
C0
100
AcDbEntity
  8
LAYER_1
 62
   250
100
AcDbVertex
100
AcDb2dVertex
 10
213.06591796875
 20
361.1416015625
 30
0.0
  0
VERTEX
  5
C2
330
C0
100
AcDbEntity
  8
LAYER_1
 62
   250
100
AcDbVertex
100
AcDb2dVertex
 10
213.06591796875
 20
396.400390625
 30
0.0
  0
SEQEND
  5
C3
330
C0
100
AcDbEntity
  8
LAYER_1
  0
POLYLINE
  5
C4
330
B1
100
AcDbEntity
  8
LAYER_1
 62
   250
100
AcDb2dPolyline
 66
     1
 10
0.0
 20
0.0
 30
0.0
  0
VERTEX
  5
C5
330
C4
100
AcDbEntity
  8
LAYER_1
 62
   250
100
AcDbVertex
100
AcDb2dVertex
 10
202.06591796875
 20
361.1416015625
 30
0.0
  0
VERTEX
  5
C6
330
C4
100
AcDbEntity
  8
LAYER_1
 62
   250
100
AcDbVertex
100
AcDb2dVertex
 10
202.06591796875
 20
396.400390625
 30
0.0
  0
SEQEND
  5
C7
330
C4
100
AcDbEntity
  8
LAYER_1
  0
SPLINE
  5
C8
330
B1
100
AcDbEntity
  8
LAYER_1
 62
   250
100
AcDbSpline
210
0.0
220
0.0
230
1.0
 70
     8
 71
     3
 72
    32
 73
    28
 74
     0
 42
0.0000000001
 43
0.0000000001
 40
0.0
 40
0.0
 40
0.0
 40
0.0
 40
1.0
 40
1.0
 40
1.0
 40
2.0
 40
2.0
 40
2.0
 40
3.0
 40
3.0
 40
3.0
 40
4.0
 40
4.0
 40
4.0
 40
5.0
 40
5.0
 40
5.0
 40
6.0
 40
6.0
 40
6.0
 40
7.0
 40
7.0
 40
7.0
 40
8.0
 40
8.0
 40
8.0
 40
9.0
 40
9.0
 40
9.0
 40
9.0
 10
189.90185546875
 20
360.4765625
 30
0.0
 10
189.90185546875
 20
360.4765625
 30
0.0
 10
224.001953125
 20
360.4765625
 30
0.0
 10
224.001953125
 20
360.4765625
 30
0.0
 10
224.001953125
 20
360.4765625
 30
0.0
 10
224.001953125
 20
329.7861328125
 30
0.0
 10
224.001953125
 20
329.7861328125
 30
0.0
 10
224.001953125
 20
329.7861328125
 30
0.0
 10
246.68212890625
 20
329.7861328125
 30
0.0
 10
246.68212890625
 20
329.7861328125
 30
0.0
 10
254.51220703125
 20
329.7861328125
 30
0.0
 10
260.85205078125
 20
336.13671875
 30
0.0
 10
260.85205078125
 20
343.95703125
 30
0.0
 10
260.85205078125
 20
343.95703125
 30
0.0
 10
260.85205078125
 20
409.8466796875
 30
0.0
 10
260.85205078125
 20
409.8466796875
 30
0.0
 10
260.85205078125
 20
417.6767578125
 30
0.0
 10
254.51220703125
 20
424.0263671875
 30
0.0
 10
246.68212890625
 20
424.0263671875
 30
0.0
 10
246.68212890625
 20
424.0263671875
 30
0.0
 10
224.001953125
 20
424.0263671875
 30
0.0
 10
224.001953125
 20
424.0263671875
 30
0.0
 10
224.001953125
 20
424.0263671875
 30
0.0
 10
224.001953125
 20
397.326171875
 30
0.0
 10
224.001953125
 20
397.326171875
 30
0.0
 10
224.001953125
 20
397.326171875
 30
0.0
 10
189.90185546875
 20
397.326171875
 30
0.0
 10
189.90185546875
 20
397.326171875
 30
0.0
  0
POLYLINE
  5
C9
330
B1
100
AcDbEntity
  8
LAYER_1
 62
   250
100
AcDb2dPolyline
 66
     1
 10
0.0
 20
0.0
 30
0.0
  0
VERTEX
  5
CA
330
C9
100
AcDbEntity
  8
LAYER_1
 62
   250
100
AcDbVertex
100
AcDb2dVertex
 10
224.001953125
 20
360.4765625
 30
0.0
  0
VERTEX
  5
CB
330
C9
100
AcDbEntity
  8
LAYER_1
 62
   250
100
AcDbVertex
100
AcDb2dVertex
 10
224.001953125
 20
398.0625
 30
0.0
  0
SEQEND
  5
CC
330
C9
100
AcDbEntity
  8
LAYER_1
  0
INSERT
  5
CE
330
B1
100
AcDbEntity
  8
LAYER_1
100
AcDbBlockReference
  2
BLOCK_7
 10
0.0
 20
0.0
 30
0.0
  0
POLYLINE
  5
D9
330
B1
100
AcDbEntity
  8
LAYER_1
 62
     7
100
AcDb2dPolyline
 66
     1
 10
0.0
 20
0.0
 30
0.0
  0
VERTEX
  5
DA
330
D9
100
AcDbEntity
  8
LAYER_1
 62
     7
100
AcDbVertex
100
AcDb2dVertex
 10
107.48486328125
 20
393.0771484375
 30
0.0
  0
VERTEX
  5
DB
330
D9
100
AcDbEntity
  8
LAYER_1
 62
     7
100
AcDbVertex
100
AcDb2dVertex
 10
107.48486328125
 20
421.4267578125
 30
0.0
  0
SEQEND
  5
DC
330
D9
100
AcDbEntity
  8
LAYER_1
  0
POLYLINE
  5
DD
330
B1
100
AcDbEntity
  8
LAYER_1
 62
     7
100
AcDb2dPolyline
 66
     1
 10
0.0
 20
0.0
 30
0.0
  0
VERTEX
  5
DE
330
DD
100
AcDbEntity
  8
LAYER_1
 62
     7
100
AcDbVertex
100
AcDb2dVertex
 10
107.48486328125
 20
364.73046875
 30
0.0
  0
VERTEX
  5
DF
330
DD
100
AcDbEntity
  8
LAYER_1
 62
     7
100
AcDbVertex
100
AcDb2dVertex
 10
107.48486328125
 20
336.38671875
 30
0.0
  0
SEQEND
  5
E0
330
DD
100
AcDbEntity
  8
LAYER_1
  0
POLYLINE
  5
E1
330
B1
100
AcDbEntity
  8
LAYER_1
100
AcDb2dPolyline
 66
     1
 10
0.0
 20
0.0
 30
0.0
  0
VERTEX
  5
E2
330
E1
100
AcDbEntity
  8
LAYER_1
100
AcDbVertex
100
AcDb2dVertex
 10
261.60205078125
 20
424.7763671875
 30
0.0
  0
VERTEX
  5
E3
330
E1
100
AcDbEntity
  8
LAYER_1
100
AcDbVertex
100
AcDb2dVertex
 10
93.8701171875
 20
424.7763671875
 30
0.0
  0
VERTEX
  5
E4
330
E1
100
AcDbEntity
  8
LAYER_1
100
AcDbVertex
100
AcDb2dVertex
 10
93.8701171875
 20
329.0361328125
 30
0.0
  0
VERTEX
  5
E5
330
E1
100
AcDbEntity
  8
LAYER_1
100
AcDbVertex
100
AcDb2dVertex
 10
261.60205078125
 20
329.0361328125
 30
0.0
  0
VERTEX
  5
E6
330
E1
100
AcDbEntity
  8
LAYER_1
100
AcDbVertex
100
AcDb2dVertex
 10
261.60205078125
 20
424.7763671875
 30
0.0
  0
SEQEND
  5
E7
330
E1
100
AcDbEntity
  8
LAYER_1
  0
ENDBLK
  5
B4
330
B1
100
AcDbEntity
  8
0
100
AcDbBlockEnd
  0
BLOCK
  5
CF
330
CD
100
AcDbEntity
  8
0
100
AcDbBlockBegin
  2
BLOCK_7
 70
     0
 71
     0
 10
0.0
 20
0.0
 30
0.0
  3
BLOCK_7
  1

  0
SPLINE
  5
D1
330
CD
100
AcDbEntity
  8
LAYER_1
 62
     7
100
AcDbSpline
210
0.0
220
0.0
230
1.0
 70
    11
 71
     3
 72
    17
 73
    13
 74
     0
 42
0.0000000001
 43
0.0000000001
 40
0.0
 40
0.0
 40
0.0
 40
0.0
 40
1.0
 40
1.0
 40
1.0
 40
2.0
 40
2.0
 40
2.0
 40
3.0
 40
3.0
 40
3.0
 40
4.0
 40
4.0
 40
4.0
 40
4.0
 10
177.48486328125
 20
381.0537109375
 30
0.0
 10
177.48486328125
 20
378.568359375
 30
0.0
 10
179.49951171875
 20
376.5537109375
 30
0.0
 10
181.98486328125
 20
376.5537109375
 30
0.0
 10
184.4697265625
 20
376.5537109375
 30
0.0
 10
186.48486328125
 20
378.568359375
 30
0.0
 10
186.48486328125
 20
381.0537109375
 30
0.0
 10
186.48486328125
 20
383.5380859375
 30
0.0
 10
184.4697265625
 20
385.5537109375
 30
0.0
 10
181.98486328125
 20
385.5537109375
 30
0.0
 10
179.49951171875
 20
385.5537109375
 30
0.0
 10
177.48486328125
 20
383.5380859375
 30
0.0
 10
177.48486328125
 20
381.0537109375
 30
0.0
  0
POLYLINE
  5
D2
330
CD
100
AcDbEntity
  8
LAYER_1
100
AcDb2dPolyline
 66
     1
 10
0.0
 20
0.0
 30
0.0
  0
VERTEX
  5
D3
330
D2
100
AcDbEntity
  8
LAYER_1
100
AcDbVertex
100
AcDb2dVertex
 10
187.23486328125
 20
386.3037109375
 30
0.0
  0
VERTEX
  5
D4
330
D2
100
AcDbEntity
  8
LAYER_1
100
AcDbVertex
100
AcDb2dVertex
 10
176.734375
 20
386.3037109375
 30
0.0
  0
VERTEX
  5
D5
330
D2
100
AcDbEntity
  8
LAYER_1
100
AcDbVertex
100
AcDb2dVertex
 10
176.734375
 20
375.8037109375
 30
0.0
  0
VERTEX
  5
D6
330
D2
100
AcDbEntity
  8
LAYER_1
100
AcDbVertex
100
AcDb2dVertex
 10
187.23486328125
 20
375.8037109375
 30
0.0
  0
VERTEX
  5
D7
330
D2
100
AcDbEntity
  8
LAYER_1
100
AcDbVertex
100
AcDb2dVertex
 10
187.23486328125
 20
386.3037109375
 30
0.0
  0
SEQEND
  5
D8
330
D2
100
AcDbEntity
  8
LAYER_1
  0
ENDBLK
  5
D0
330
CD
100
AcDbEntity
  8
0
100
AcDbBlockEnd
  0
BLOCK
  5
123
330
121
100
AcDbEntity
  8
0
100
AcDbBlockBegin
  2
BLOCK_8
 70
     0
 71
     0
 10
0.0
 20
0.0
 30
0.0
  3
BLOCK_8
  1

  0
SPLINE
  5
125
330
121
100
AcDbEntity
  8
LAYER_1
 62
     7
100
AcDbSpline
210
0.0
220
0.0
230
1.0
 70
    11
 71
     3
 72
    17
 73
    13
 74
     0
 42
0.0000000001
 43
0.0000000001
 40
0.0
 40
0.0
 40
0.0
 40
0.0
 40
1.0
 40
1.0
 40
1.0
 40
2.0
 40
2.0
 40
2.0
 40
3.0
 40
3.0
 40
3.0
 40
4.0
 40
4.0
 40
4.0
 40
4.0
 10
393.9541015625
 20
173.044921875
 30
0.0
 10
393.9541015625
 20
170.5595703125
 30
0.0
 10
391.939453125
 20
168.544921875
 30
0.0
 10
389.4541015625
 20
168.544921875
 30
0.0
 10
386.96923828125
 20
168.544921875
 30
0.0
 10
384.9541015625
 20
170.5595703125
 30
0.0
 10
384.9541015625
 20
173.044921875
 30
0.0
 10
384.9541015625
 20
175.5302734375
 30
0.0
 10
386.96923828125
 20
177.544921875
 30
0.0
 10
389.4541015625
 20
177.544921875
 30
0.0
 10
391.939453125
 20
177.544921875
 30
0.0
 10
393.9541015625
 20
175.5302734375
 30
0.0
 10
393.9541015625
 20
173.044921875
 30
0.0
  0
POLYLINE
  5
126
330
121
100
AcDbEntity
  8
LAYER_1
100
AcDb2dPolyline
 66
     1
 10
0.0
 20
0.0
 30
0.0
  0
VERTEX
  5
127
330
126
100
AcDbEntity
  8
LAYER_1
100
AcDbVertex
100
AcDb2dVertex
 10
384.2041015625
 20
178.294921875
 30
0.0
  0
VERTEX
  5
128
330
126
100
AcDbEntity
  8
LAYER_1
100
AcDbVertex
100
AcDb2dVertex
 10
394.7041015625
 20
178.294921875
 30
0.0
  0
VERTEX
  5
129
330
126
100
AcDbEntity
  8
LAYER_1
100
AcDbVertex
100
AcDb2dVertex
 10
394.7041015625
 20
167.794921875
 30
0.0
  0
VERTEX
  5
12A
330
126
100
AcDbEntity
  8
LAYER_1
100
AcDbVertex
100
AcDb2dVertex
 10
384.2041015625
 20
167.794921875
 30
0.0
  0
VERTEX
  5
12B
330
126
100
AcDbEntity
  8
LAYER_1
100
AcDbVertex
100
AcDb2dVertex
 10
384.2041015625
 20
178.294921875
 30
0.0
  0
SEQEND
  5
12C
330
126
100
AcDbEntity
  8
LAYER_1
  0
ENDBLK
  5
124
330
121
100
AcDbEntity
  8
0
100
AcDbBlockEnd
  0
BLOCK
  5
12F
330
12D
100
AcDbEntity
  8
0
100
AcDbBlockBegin
  2
BLOCK_9
 70
     0
 71
     0
 10
0.0
 20
0.0
 30
0.0
  3
BLOCK_9
  1

  0
SPLINE
  5
131
330
12D
100
AcDbEntity
  8
LAYER_1
 62
     7
100
AcDbSpline
210
0.0
220
0.0
230
1.0
 70
    11
 71
     3
 72
    17
 73
    13
 74
     0
 42
0.0000000001
 43
0.0000000001
 40
0.0
 40
0.0
 40
0.0
 40
0.0
 40
1.0
 40
1.0
 40
1.0
 40
2.0
 40
2.0
 40
2.0
 40
3.0
 40
3.0
 40
3.0
 40
4.0
 40
4.0
 40
4.0
 40
4.0
 10
393.9541015625
 20
136.544921875
 30
0.0
 10
393.9541015625
 20
134.0595703125
 30
0.0
 10
391.939453125
 20
132.044921875
 30
0.0
 10
389.4541015625
 20
132.044921875
 30
0.0
 10
386.96923828125
 20
132.044921875
 30
0.0
 10
384.9541015625
 20
134.0595703125
 30
0.0
 10
384.9541015625
 20
136.544921875
 30
0.0
 10
384.9541015625
 20
139.0302734375
 30
0.0
 10
386.96923828125
 20
141.044921875
 30
0.0
 10
389.4541015625
 20
141.044921875
 30
0.0
 10
391.939453125
 20
141.044921875
 30
0.0
 10
393.9541015625
 20
139.0302734375
 30
0.0
 10
393.9541015625
 20
136.544921875
 30
0.0
  0
POLYLINE
  5
132
330
12D
100
AcDbEntity
  8
LAYER_1
100
AcDb2dPolyline
 66
     1
 10
0.0
 20
0.0
 30
0.0
  0
VERTEX
  5
133
330
132
100
AcDbEntity
  8
LAYER_1
100
AcDbVertex
100
AcDb2dVertex
 10
384.2041015625
 20
141.794921875
 30
0.0
  0
VERTEX
  5
134
330
132
100
AcDbEntity
  8
LAYER_1
100
AcDbVertex
100
AcDb2dVertex
 10
394.7041015625
 20
141.794921875
 30
0.0
  0
VERTEX
  5
135
330
132
100
AcDbEntity
  8
LAYER_1
100
AcDbVertex
100
AcDb2dVertex
 10
394.7041015625
 20
131.294921875
 30
0.0
  0
VERTEX
  5
136
330
132
100
AcDbEntity
  8
LAYER_1
100
AcDbVertex
100
AcDb2dVertex
 10
384.2041015625
 20
131.294921875
 30
0.0
  0
VERTEX
  5
137
330
132
100
AcDbEntity
  8
LAYER_1
100
AcDbVertex
100
AcDb2dVertex
 10
384.2041015625
 20
141.794921875
 30
0.0
  0
SEQEND
  5
138
330
132
100
AcDbEntity
  8
LAYER_1
  0
ENDBLK
  5
130
330
12D
100
AcDbEntity
  8
0
100
AcDbBlockEnd
  0
BLOCK
  5
13B
330
139
100
AcDbEntity
  8
0
100
AcDbBlockBegin
  2
BLOCK_10
 70
     0
 71
     0
 10
0.0
 20
0.0
 30
0.0
  3
BLOCK_10
  1

  0
SPLINE
  5
13D
330
139
100
AcDbEntity
  8
LAYER_1
 62
     7
100
AcDbSpline
210
0.0
220
0.0
230
1.0
 70
    11
 71
     3
 72
    17
 73
    13
 74
     0
 42
0.0000000001
 43
0.0000000001
 40
0.0
 40
0.0
 40
0.0
 40
0.0
 40
1.0
 40
1.0
 40
1.0
 40
2.0
 40
2.0
 40
2.0
 40
3.0
 40
3.0
 40
3.0
 40
4.0
 40
4.0
 40
4.0
 40
4.0
 10
288.0
 20
135.794921875
 30
0.0
 10
288.0
 20
133.3095703125
 30
0.0
 10
285.98486328125
 20
131.294921875
 30
0.0
 10
283.5
 20
131.294921875
 30
0.0
 10
281.01513671875
 20
131.294921875
 30
0.0
 10
279.0
 20
133.3095703125
 30
0.0
 10
279.0
 20
135.794921875
 30
0.0
 10
279.0
 20
138.2802734375
 30
0.0
 10
281.01513671875
 20
140.294921875
 30
0.0
 10
283.5
 20
140.294921875
 30
0.0
 10
285.98486328125
 20
140.294921875
 30
0.0
 10
288.0
 20
138.2802734375
 30
0.0
 10
288.0
 20
135.794921875
 30
0.0
  0
POLYLINE
  5
13E
330
139
100
AcDbEntity
  8
LAYER_1
100
AcDb2dPolyline
 66
     1
 10
0.0
 20
0.0
 30
0.0
  0
VERTEX
  5
13F
330
13E
100
AcDbEntity
  8
LAYER_1
100
AcDbVertex
100
AcDb2dVertex
 10
278.25
 20
141.044921875
 30
0.0
  0
VERTEX
  5
140
330
13E
100
AcDbEntity
  8
LAYER_1
100
AcDbVertex
100
AcDb2dVertex
 10
288.75
 20
141.044921875
 30
0.0
  0
VERTEX
  5
141
330
13E
100
AcDbEntity
  8
LAYER_1
100
AcDbVertex
100
AcDb2dVertex
 10
288.75
 20
130.544921875
 30
0.0
  0
VERTEX
  5
142
330
13E
100
AcDbEntity
  8
LAYER_1
100
AcDbVertex
100
AcDb2dVertex
 10
278.25
 20
130.544921875
 30
0.0
  0
VERTEX
  5
143
330
13E
100
AcDbEntity
  8
LAYER_1
100
AcDbVertex
100
AcDb2dVertex
 10
278.25
 20
141.044921875
 30
0.0
  0
SEQEND
  5
144
330
13E
100
AcDbEntity
  8
LAYER_1
  0
ENDBLK
  5
13C
330
139
100
AcDbEntity
  8
0
100
AcDbBlockEnd
  0
BLOCK
  5
147
330
145
100
AcDbEntity
  8
0
100
AcDbBlockBegin
  2
BLOCK_11
 70
     0
 71
     0
 10
0.0
 20
0.0
 30
0.0
  3
BLOCK_11
  1

  0
SPLINE
  5
149
330
145
100
AcDbEntity
  8
LAYER_1
 62
     7
100
AcDbSpline
210
0.0
220
0.0
230
1.0
 70
    11
 71
     3
 72
    17
 73
    13
 74
     0
 42
0.0000000001
 43
0.0000000001
 40
0.0
 40
0.0
 40
0.0
 40
0.0
 40
1.0
 40
1.0
 40
1.0
 40
2.0
 40
2.0
 40
2.0
 40
3.0
 40
3.0
 40
3.0
 40
4.0
 40
4.0
 40
4.0
 40
4.0
 10
297.501953125
 20
173.044921875
 30
0.0
 10
297.501953125
 20
170.5595703125
 30
0.0
 10
295.4873046875
 20
168.544921875
 30
0.0
 10
293.001953125
 20
168.544921875
 30
0.0
 10
290.51708984375
 20
168.544921875
 30
0.0
 10
288.501953125
 20
170.5595703125
 30
0.0
 10
288.501953125
 20
173.044921875
 30
0.0
 10
288.501953125
 20
175.5302734375
 30
0.0
 10
290.51708984375
 20
177.544921875
 30
0.0
 10
293.001953125
 20
177.544921875
 30
0.0
 10
295.4873046875
 20
177.544921875
 30
0.0
 10
297.501953125
 20
175.5302734375
 30
0.0
 10
297.501953125
 20
173.044921875
 30
0.0
  0
POLYLINE
  5
14A
330
145
100
AcDbEntity
  8
LAYER_1
100
AcDb2dPolyline
 66
     1
 10
0.0
 20
0.0
 30
0.0
  0
VERTEX
  5
14B
330
14A
100
AcDbEntity
  8
LAYER_1
100
AcDbVertex
100
AcDb2dVertex
 10
287.751953125
 20
178.294921875
 30
0.0
  0
VERTEX
  5
14C
330
14A
100
AcDbEntity
  8
LAYER_1
100
AcDbVertex
100
AcDb2dVertex
 10
298.251953125
 20
178.294921875
 30
0.0
  0
VERTEX
  5
14D
330
14A
100
AcDbEntity
  8
LAYER_1
100
AcDbVertex
100
AcDb2dVertex
 10
298.251953125
 20
167.794921875
 30
0.0
  0
VERTEX
  5
14E
330
14A
100
AcDbEntity
  8
LAYER_1
100
AcDbVertex
100
AcDb2dVertex
 10
287.751953125
 20
167.794921875
 30
0.0
  0
VERTEX
  5
14F
330
14A
100
AcDbEntity
  8
LAYER_1
100
AcDbVertex
100
AcDb2dVertex
 10
287.751953125
 20
178.294921875
 30
0.0
  0
SEQEND
  5
150
330
14A
100
AcDbEntity
  8
LAYER_1
  0
ENDBLK
  5
148
330
145
100
AcDbEntity
  8
0
100
AcDbBlockEnd
  0
BLOCK
  5
153
330
151
100
AcDbEntity
  8
0
100
AcDbBlockBegin
  2
BLOCK_12
 70
     0
 71
     0
 10
0.0
 20
0.0
 30
0.0
  3
BLOCK_12
  1

  0
SPLINE
  5
155
330
151
100
AcDbEntity
  8
LAYER_1
 62
     7
100
AcDbSpline
210
0.0
220
0.0
230
1.0
 70
    11
 71
     3
 72
    17
 73
    13
 74
     0
 42
0.0000000001
 43
0.0000000001
 40
0.0
 40
0.0
 40
0.0
 40
0.0
 40
1.0
 40
1.0
 40
1.0
 40
2.0
 40
2.0
 40
2.0
 40
3.0
 40
3.0
 40
3.0
 40
4.0
 40
4.0
 40
4.0
 40
4.0
 10
420.0
 20
173.044921875
 30
0.0
 10
420.0
 20
170.5595703125
 30
0.0
 10
422.015625
 20
168.544921875
 30
0.0
 10
424.5
 20
168.544921875
 30
0.0
 10
426.984375
 20
168.544921875
 30
0.0
 10
429.0
 20
170.5595703125
 30
0.0
 10
429.0
 20
173.044921875
 30
0.0
 10
429.0
 20
175.5302734375
 30
0.0
 10
426.984375
 20
177.544921875
 30
0.0
 10
424.5
 20
177.544921875
 30
0.0
 10
422.015625
 20
177.544921875
 30
0.0
 10
420.0
 20
175.5302734375
 30
0.0
 10
420.0
 20
173.044921875
 30
0.0
  0
POLYLINE
  5
156
330
151
100
AcDbEntity
  8
LAYER_1
100
AcDb2dPolyline
 66
     1
 10
0.0
 20
0.0
 30
0.0
  0
VERTEX
  5
157
330
156
100
AcDbEntity
  8
LAYER_1
100
AcDbVertex
100
AcDb2dVertex
 10
429.75
 20
178.294921875
 30
0.0
  0
VERTEX
  5
158
330
156
100
AcDbEntity
  8
LAYER_1
100
AcDbVertex
100
AcDb2dVertex
 10
419.25
 20
178.294921875
 30
0.0
  0
VERTEX
  5
159
330
156
100
AcDbEntity
  8
LAYER_1
100
AcDbVertex
100
AcDb2dVertex
 10
419.25
 20
167.794921875
 30
0.0
  0
VERTEX
  5
15A
330
156
100
AcDbEntity
  8
LAYER_1
100
AcDbVertex
100
AcDb2dVertex
 10
429.75
 20
167.794921875
 30
0.0
  0
VERTEX
  5
15B
330
156
100
AcDbEntity
  8
LAYER_1
100
AcDbVertex
100
AcDb2dVertex
 10
429.75
 20
178.294921875
 30
0.0
  0
SEQEND
  5
15C
330
156
100
AcDbEntity
  8
LAYER_1
  0
ENDBLK
  5
154
330
151
100
AcDbEntity
  8
0
100
AcDbBlockEnd
  0
BLOCK
  5
15F
330
15D
100
AcDbEntity
  8
0
100
AcDbBlockBegin
  2
BLOCK_13
 70
     0
 71
     0
 10
0.0
 20
0.0
 30
0.0
  3
BLOCK_13
  1

  0
SPLINE
  5
161
330
15D
100
AcDbEntity
  8
LAYER_1
 62
     7
100
AcDbSpline
210
0.0
220
0.0
230
1.0
 70
    11
 71
     3
 72
    17
 73
    13
 74
     0
 42
0.0000000001
 43
0.0000000001
 40
0.0
 40
0.0
 40
0.0
 40
0.0
 40
1.0
 40
1.0
 40
1.0
 40
2.0
 40
2.0
 40
2.0
 40
3.0
 40
3.0
 40
3.0
 40
4.0
 40
4.0
 40
4.0
 40
4.0
 10
420.0
 20
136.544921875
 30
0.0
 10
420.0
 20
134.0595703125
 30
0.0
 10
422.015625
 20
132.044921875
 30
0.0
 10
424.5
 20
132.044921875
 30
0.0
 10
426.984375
 20
132.044921875
 30
0.0
 10
429.0
 20
134.0595703125
 30
0.0
 10
429.0
 20
136.544921875
 30
0.0
 10
429.0
 20
139.0302734375
 30
0.0
 10
426.984375
 20
141.044921875
 30
0.0
 10
424.5
 20
141.044921875
 30
0.0
 10
422.015625
 20
141.044921875
 30
0.0
 10
420.0
 20
139.0302734375
 30
0.0
 10
420.0
 20
136.544921875
 30
0.0
  0
POLYLINE
  5
162
330
15D
100
AcDbEntity
  8
LAYER_1
100
AcDb2dPolyline
 66
     1
 10
0.0
 20
0.0
 30
0.0
  0
VERTEX
  5
163
330
162
100
AcDbEntity
  8
LAYER_1
100
AcDbVertex
100
AcDb2dVertex
 10
429.75
 20
141.794921875
 30
0.0
  0
VERTEX
  5
164
330
162
100
AcDbEntity
  8
LAYER_1
100
AcDbVertex
100
AcDb2dVertex
 10
419.25
 20
141.794921875
 30
0.0
  0
VERTEX
  5
165
330
162
100
AcDbEntity
  8
LAYER_1
100
AcDbVertex
100
AcDb2dVertex
 10
419.25
 20
131.294921875
 30
0.0
  0
VERTEX
  5
166
330
162
100
AcDbEntity
  8
LAYER_1
100
AcDbVertex
100
AcDb2dVertex
 10
429.75
 20
131.294921875
 30
0.0
  0
VERTEX
  5
167
330
162
100
AcDbEntity
  8
LAYER_1
100
AcDbVertex
100
AcDb2dVertex
 10
429.75
 20
141.794921875
 30
0.0
  0
SEQEND
  5
168
330
162
100
AcDbEntity
  8
LAYER_1
  0
ENDBLK
  5
160
330
15D
100
AcDbEntity
  8
0
100
AcDbBlockEnd
  0
BLOCK
  5
16B
330
169
100
AcDbEntity
  8
0
100
AcDbBlockBegin
  2
BLOCK_14
 70
     0
 71
     0
 10
0.0
 20
0.0
 30
0.0
  3
BLOCK_14
  1

  0
SPLINE
  5
16D
330
169
100
AcDbEntity
  8
LAYER_1
 62
     7
100
AcDbSpline
210
0.0
220
0.0
230
1.0
 70
    11
 71
     3
 72
    17
 73
    13
 74
     0
 42
0.0000000001
 43
0.0000000001
 40
0.0
 40
0.0
 40
0.0
 40
0.0
 40
1.0
 40
1.0
 40
1.0
 40
2.0
 40
2.0
 40
2.0
 40
3.0
 40
3.0
 40
3.0
 40
4.0
 40
4.0
 40
4.0
 40
4.0
 10
525.9541015625
 20
135.794921875
 30
0.0
 10
525.9541015625
 20
133.3095703125
 30
0.0
 10
527.96875
 20
131.294921875
 30
0.0
 10
530.4541015625
 20
131.294921875
 30
0.0
 10
532.939453125
 20
131.294921875
 30
0.0
 10
534.9541015625
 20
133.3095703125
 30
0.0
 10
534.9541015625
 20
135.794921875
 30
0.0
 10
534.9541015625
 20
138.2802734375
 30
0.0
 10
532.939453125
 20
140.294921875
 30
0.0
 10
530.4541015625
 20
140.294921875
 30
0.0
 10
527.96875
 20
140.294921875
 30
0.0
 10
525.9541015625
 20
138.2802734375
 30
0.0
 10
525.9541015625
 20
135.794921875
 30
0.0
  0
POLYLINE
  5
16E
330
169
100
AcDbEntity
  8
LAYER_1
100
AcDb2dPolyline
 66
     1
 10
0.0
 20
0.0
 30
0.0
  0
VERTEX
  5
16F
330
16E
100
AcDbEntity
  8
LAYER_1
100
AcDbVertex
100
AcDb2dVertex
 10
535.7041015625
 20
141.044921875
 30
0.0
  0
VERTEX
  5
170
330
16E
100
AcDbEntity
  8
LAYER_1
100
AcDbVertex
100
AcDb2dVertex
 10
525.2041015625
 20
141.044921875
 30
0.0
  0
VERTEX
  5
171
330
16E
100
AcDbEntity
  8
LAYER_1
100
AcDbVertex
100
AcDb2dVertex
 10
525.2041015625
 20
130.544921875
 30
0.0
  0
VERTEX
  5
172
330
16E
100
AcDbEntity
  8
LAYER_1
100
AcDbVertex
100
AcDb2dVertex
 10
535.7041015625
 20
130.544921875
 30
0.0
  0
VERTEX
  5
173
330
16E
100
AcDbEntity
  8
LAYER_1
100
AcDbVertex
100
AcDb2dVertex
 10
535.7041015625
 20
141.044921875
 30
0.0
  0
SEQEND
  5
174
330
16E
100
AcDbEntity
  8
LAYER_1
  0
ENDBLK
  5
16C
330
169
100
AcDbEntity
  8
0
100
AcDbBlockEnd
  0
BLOCK
  5
177
330
175
100
AcDbEntity
  8
0
100
AcDbBlockBegin
  2
BLOCK_15
 70
     0
 71
     0
 10
0.0
 20
0.0
 30
0.0
  3
BLOCK_15
  1

  0
SPLINE
  5
179
330
175
100
AcDbEntity
  8
LAYER_1
 62
     7
100
AcDbSpline
210
0.0
220
0.0
230
1.0
 70
    11
 71
     3
 72
    17
 73
    13
 74
     0
 42
0.0000000001
 43
0.0000000001
 40
0.0
 40
0.0
 40
0.0
 40
0.0
 40
1.0
 40
1.0
 40
1.0
 40
2.0
 40
2.0
 40
2.0
 40
3.0
 40
3.0
 40
3.0
 40
4.0
 40
4.0
 40
4.0
 40
4.0
 10
516.453125
 20
173.044921875
 30
0.0
 10
516.453125
 20
170.5595703125
 30
0.0
 10
518.466796875
 20
168.544921875
 30
0.0
 10
520.953125
 20
168.544921875
 30
0.0
 10
523.4375
 20
168.544921875
 30
0.0
 10
525.453125
 20
170.5595703125
 30
0.0
 10
525.453125
 20
173.044921875
 30
0.0
 10
525.453125
 20
175.5302734375
 30
0.0
 10
523.4375
 20
177.544921875
 30
0.0
 10
520.953125
 20
177.544921875
 30
0.0
 10
518.466796875
 20
177.544921875
 30
0.0
 10
516.453125
 20
175.5302734375
 30
0.0
 10
516.453125
 20
173.044921875
 30
0.0
  0
POLYLINE
  5
17A
330
175
100
AcDbEntity
  8
LAYER_1
100
AcDb2dPolyline
 66
     1
 10
0.0
 20
0.0
 30
0.0
  0
VERTEX
  5
17B
330
17A
100
AcDbEntity
  8
LAYER_1
100
AcDbVertex
100
AcDb2dVertex
 10
526.203125
 20
178.294921875
 30
0.0
  0
VERTEX
  5
17C
330
17A
100
AcDbEntity
  8
LAYER_1
100
AcDbVertex
100
AcDb2dVertex
 10
515.703125
 20
178.294921875
 30
0.0
  0
VERTEX
  5
17D
330
17A
100
AcDbEntity
  8
LAYER_1
100
AcDbVertex
100
AcDb2dVertex
 10
515.703125
 20
167.794921875
 30
0.0
  0
VERTEX
  5
17E
330
17A
100
AcDbEntity
  8
LAYER_1
100
AcDbVertex
100
AcDb2dVertex
 10
526.203125
 20
167.794921875
 30
0.0
  0
VERTEX
  5
17F
330
17A
100
AcDbEntity
  8
LAYER_1
100
AcDbVertex
100
AcDb2dVertex
 10
526.203125
 20
178.294921875
 30
0.0
  0
SEQEND
  5
180
330
17A
100
AcDbEntity
  8
LAYER_1
  0
ENDBLK
  5
178
330
175
100
AcDbEntity
  8
0
100
AcDbBlockEnd
  0
ENDSEC
  0
SECTION
  2
ENTITIES
  0
INSERT
  5
3D
330
1F
100
AcDbEntity
  8
LAYER_1
100
AcDbBlockReference
  2
BLOCK_2
 10
0.0
 20
0.0
 30
0.0
  0
INSERT
  5
51
330
1F
100
AcDbEntity
  8
LAYER_1
100
AcDbBlockReference
  2
BLOCK_3
 10
0.0
 20
0.0
 30
0.0
  0
SPLINE
  5
64
330
1F
100
AcDbEntity
  8
LAYER_1
100
AcDbSpline
210
0.0
220
0.0
230
1.0
 70
    11
 71
     3
 72
    29
 73
    25
 74
     0
 42
0.0000000001
 43
0.0000000001
 40
0.0
 40
0.0
 40
0.0
 40
0.0
 40
1.0
 40
1.0
 40
1.0
 40
2.0
 40
2.0
 40
2.0
 40
3.0
 40
3.0
 40
3.0
 40
4.0
 40
4.0
 40
4.0
 40
5.0
 40
5.0
 40
5.0
 40
6.0
 40
6.0
 40
6.0
 40
7.0
 40
7.0
 40
7.0
 40
8.0
 40
8.0
 40
8.0
 40
8.0
 10
471.388671875
 20
654.2548828125
 30
0.0
 10
471.388671875
 20
654.2548828125
 30
0.0
 10
345.82861328125
 20
654.2548828125
 30
0.0
 10
345.82861328125
 20
654.2548828125
 30
0.0
 10
339.228515625
 20
654.2548828125
 30
0.0
 10
333.82861328125
 20
648.85498046875
 30
0.0
 10
333.82861328125
 20
642.2548828125
 30
0.0
 10
333.82861328125
 20
642.2548828125
 30
0.0
 10
333.82861328125
 20
540.7548828125
 30
0.0
 10
333.82861328125
 20
540.7548828125
 30
0.0
 10
333.82861328125
 20
534.15478515625
 30
0.0
 10
339.228515625
 20
528.7548828125
 30
0.0
 10
345.82861328125
 20
528.7548828125
 30
0.0
 10
345.82861328125
 20
528.7548828125
 30
0.0
 10
471.388671875
 20
528.7548828125
 30
0.0
 10
471.388671875
 20
528.7548828125
 30
0.0
 10
477.990234375
 20
528.7548828125
 30
0.0
 10
483.388671875
 20
534.15478515625
 30
0.0
 10
483.388671875
 20
540.7548828125
 30
0.0
 10
483.388671875
 20
540.7548828125
 30
0.0
 10
483.388671875
 20
642.2548828125
 30
0.0
 10
483.388671875
 20
642.2548828125
 30
0.0
 10
483.388671875
 20
648.85498046875
 30
0.0
 10
477.990234375
 20
654.2548828125
 30
0.0
 10
471.388671875
 20
654.2548828125
 30
0.0
  0
SPLINE
  5
65
330
1F
100
AcDbEntity
  8
LAYER_1
 62
     7
100
AcDbSpline
210
0.0
220
0.0
230
1.0
 70
    11
 71
     3
 72
    29
 73
    25
 74
     0
 42
0.0000000001
 43
0.0000000001
 40
0.0
 40
0.0
 40
0.0
 40
0.0
 40
1.0
 40
1.0
 40
1.0
 40
2.0
 40
2.0
 40
2.0
 40
3.0
 40
3.0
 40
3.0
 40
4.0
 40
4.0
 40
4.0
 40
5.0
 40
5.0
 40
5.0
 40
6.0
 40
6.0
 40
6.0
 40
7.0
 40
7.0
 40
7.0
 40
8.0
 40
8.0
 40
8.0
 40
8.0
 10
471.388671875
 20
654.2548828125
 30
0.0
 10
471.388671875
 20
654.2548828125
 30
0.0
 10
345.82861328125
 20
654.2548828125
 30
0.0
 10
345.82861328125
 20
654.2548828125
 30
0.0
 10
339.228515625
 20
654.2548828125
 30
0.0
 10
333.82861328125
 20
648.85498046875
 30
0.0
 10
333.82861328125
 20
642.2548828125
 30
0.0
 10
333.82861328125
 20
642.2548828125
 30
0.0
 10
333.82861328125
 20
540.7548828125
 30
0.0
 10
333.82861328125
 20
540.7548828125
 30
0.0
 10
333.82861328125
 20
534.15478515625
 30
0.0
 10
339.228515625
 20
528.7548828125
 30
0.0
 10
345.82861328125
 20
528.7548828125
 30
0.0
 10
345.82861328125
 20
528.7548828125
 30
0.0
 10
471.388671875
 20
528.7548828125
 30
0.0
 10
471.388671875
 20
528.7548828125
 30
0.0
 10
477.990234375
 20
528.7548828125
 30
0.0
 10
483.388671875
 20
534.15478515625
 30
0.0
 10
483.388671875
 20
540.7548828125
 30
0.0
 10
483.388671875
 20
540.7548828125
 30
0.0
 10
483.388671875
 20
642.2548828125
 30
0.0
 10
483.388671875
 20
642.2548828125
 30
0.0
 10
483.388671875
 20
648.85498046875
 30
0.0
 10
477.990234375
 20
654.2548828125
 30
0.0
 10
471.388671875
 20
654.2548828125
 30
0.0
  0
SPLINE
  5
66
330
1F
100
AcDbEntity
  8
LAYER_1
100
AcDbSpline
210
0.0
220
0.0
230
1.0
 70
    11
 71
     3
 72
    11
 73
     7
 74
     0
 42
0.0000000001
 43
0.0000000001
 40
0.0
 40
0.0
 40
0.0
 40
0.0
 40
1.0
 40
1.0
 40
1.0
 40
2.0
 40
2.0
 40
2.0
 40
2.0
 10
373.19384765625
 20
603.0400390625
 30
0.0
 10
373.1298828125
 20
603.0400390625
 30
0.0
 10
373.1298828125
 20
602.93994140625
 30
0.0
 10
373.19384765625
 20
602.93994140625
 30
0.0
 10
373.2578125
 20
602.93994140625
 30
0.0
 10
373.2578125
 20
603.0400390625
 30
0.0
 10
373.19384765625
 20
603.0400390625
 30
0.0
  0
HATCH
  5
67
330
1F
100
AcDbEntity
  8
LAYER_1
 62
   250
100
AcDbHatch
 10
0.0
 20
0.0
 30
0.0
210
0.0
220
0.0
230
1.0
  2
SOLID
 70
     1
 71
     0
 91
        1
 92
        1
 93
        2
 72
     4
 94
        3
 73
     0
 74
     0
 95
       11
 96
        7
 40
0.0
 40
0.0
 40
0.0
 40
0.0
 40
1.0
 40
1.0
 40
1.0
 40
2.0
 40
2.0
 40
2.0
 40
2.0
 10
373.19384765625
 20
603.0400390625
 10
373.1298828125
 20
603.0400390625
 10
373.1298828125
 20
602.93994140625
 10
373.19384765625
 20
602.93994140625
 10
373.2578125
 20
602.93994140625
 10
373.2578125
 20
603.0400390625
 10
373.19384765625
 20
603.0400390625
 72
     1
 10
373.19384765625
 20
603.0400390625
 11
373.19384765625
 21
603.0400390625
 97
        0
 75
     2
 76
     1
 98
        0
  0
SPLINE
  5
68
330
1F
100
AcDbEntity
  8
LAYER_1
 62
     7
100
AcDbSpline
210
0.0
220
0.0
230
1.0
 70
    11
 71
     3
 72
    65
 73
    61
 74
     0
 42
0.0000000001
 43
0.0000000001
 40
0.0
 40
0.0
 40
0.0
 40
0.0
 40
1.0
 40
1.0
 40
1.0
 40
2.0
 40
2.0
 40
2.0
 40
3.0
 40
3.0
 40
3.0
 40
4.0
 40
4.0
 40
4.0
 40
5.0
 40
5.0
 40
5.0
 40
6.0
 40
6.0
 40
6.0
 40
7.0
 40
7.0
 40
7.0
 40
8.0
 40
8.0
 40
8.0
 40
9.0
 40
9.0
 40
9.0
 40
10.0
 40
10.0
 40
10.0
 40
11.0
 40
11.0
 40
11.0
 40
12.0
 40
12.0
 40
12.0
 40
13.0
 40
13.0
 40
13.0
 40
14.0
 40
14.0
 40
14.0
 40
15.0
 40
15.0
 40
15.0
 40
16.0
 40
16.0
 40
16.0
 40
17.0
 40
17.0
 40
17.0
 40
18.0
 40
18.0
 40
18.0
 40
19.0
 40
19.0
 40
19.0
 40
20.0
 40
20.0
 40
20.0
 40
20.0
 10
341.2890625
 20
503.19287109375
 30
0.0
 10
341.2890625
 20
503.19287109375
 30
0.0
 10
342.4267578125
 20
503.19287109375
 30
0.0
 10
342.4267578125
 20
503.19287109375
 30
0.0
 10
343.173828125
 20
504.48388671875
 30
0.0
 10
344.25
 20
505.5595703125
 30
0.0
 10
345.541015625
 20
506.306640625
 30
0.0
 10
345.541015625
 20
506.306640625
 30
0.0
 10
345.541015625
 20
507.44482421875
 30
0.0
 10
345.541015625
 20
507.44482421875
 30
0.0
 10
345.541015625
 20
507.44482421875
 30
0.0
 10
349.79296875
 20
507.44482421875
 30
0.0
 10
349.79296875
 20
507.44482421875
 30
0.0
 10
349.79296875
 20
507.44482421875
 30
0.0
 10
354.044921875
 20
507.44482421875
 30
0.0
 10
354.044921875
 20
507.44482421875
 30
0.0
 10
354.044921875
 20
507.44482421875
 30
0.0
 10
354.044921875
 20
506.306640625
 30
0.0
 10
354.044921875
 20
506.306640625
 30
0.0
 10
355.3359375
 20
505.5595703125
 30
0.0
 10
356.41162109375
 20
504.48388671875
 30
0.0
 10
357.15869140625
 20
503.19287109375
 30
0.0
 10
357.15869140625
 20
503.19287109375
 30
0.0
 10
358.296875
 20
503.19287109375
 30
0.0
 10
358.296875
 20
503.19287109375
 30
0.0
 10
358.296875
 20
503.19287109375
 30
0.0
 10
358.296875
 20
498.94091796875
 30
0.0
 10
358.296875
 20
498.94091796875
 30
0.0
 10
358.296875
 20
498.94091796875
 30
0.0
 10
358.296875
 20
494.68896484375
 30
0.0
 10
358.296875
 20
494.68896484375
 30
0.0
 10
358.296875
 20
494.68896484375
 30
0.0
 10
357.15869140625
 20
494.68896484375
 30
0.0
 10
357.15869140625
 20
494.68896484375
 30
0.0
 10
356.41162109375
 20
493.39794921875
 30
0.0
 10
355.3359375
 20
492.32177734375
 30
0.0
 10
354.044921875
 20
491.57470703125
 30
0.0
 10
354.044921875
 20
491.57470703125
 30
0.0
 10
354.044921875
 20
490.43701171875
 30
0.0
 10
354.044921875
 20
490.43701171875
 30
0.0
 10
354.044921875
 20
490.43701171875
 30
0.0
 10
349.79296875
 20
490.43701171875
 30
0.0
 10
349.79296875
 20
490.43701171875
 30
0.0
 10
349.79296875
 20
490.43701171875
 30
0.0
 10
345.541015625
 20
490.43701171875
 30
0.0
 10
345.541015625
 20
490.43701171875
 30
0.0
 10
345.541015625
 20
490.43701171875
 30
0.0
 10
345.541015625
 20
491.57470703125
 30
0.0
 10
345.541015625
 20
491.57470703125
 30
0.0
 10
344.25
 20
492.32177734375
 30
0.0
 10
343.173828125
 20
493.39794921875
 30
0.0
 10
342.4267578125
 20
494.68896484375
 30
0.0
 10
342.4267578125
 20
494.68896484375
 30
0.0
 10
341.2890625
 20
494.68896484375
 30
0.0
 10
341.2890625
 20
494.68896484375
 30
0.0
 10
341.2890625
 20
494.68896484375
 30
0.0
 10
341.2890625
 20
498.94091796875
 30
0.0
 10
341.2890625
 20
498.94091796875
 30
0.0
 10
341.2890625
 20
498.94091796875
 30
0.0
 10
341.2890625
 20
503.19287109375
 30
0.0
 10
341.2890625
 20
503.19287109375
 30
0.0
  0
POLYLINE
  5
69
330
1F
100
AcDbEntity
  8
LAYER_1
 62
     7
100
AcDb2dPolyline
 66
     1
 10
0.0
 20
0.0
 30
0.0
  0
VERTEX
  5
6A
330
69
100
AcDbEntity
  8
LAYER_1
 62
     7
100
AcDbVertex
100
AcDb2dVertex
 10
369.63525390625
 20
503.19287109375
 30
0.0
  0
VERTEX
  5
6B
330
69
100
AcDbEntity
  8
LAYER_1
 62
     7
100
AcDbVertex
100
AcDb2dVertex
 10
386.6435546875
 20
503.19287109375
 30
0.0
  0
VERTEX
  5
6C
330
69
100
AcDbEntity
  8
LAYER_1
 62
     7
100
AcDbVertex
100
AcDb2dVertex
 10
386.6435546875
 20
494.68896484375
 30
0.0
  0
VERTEX
  5
6D
330
69
100
AcDbEntity
  8
LAYER_1
 62
     7
100
AcDbVertex
100
AcDb2dVertex
 10
369.63525390625
 20
494.68896484375
 30
0.0
  0
VERTEX
  5
6E
330
69
100
AcDbEntity
  8
LAYER_1
 62
     7
100
AcDbVertex
100
AcDb2dVertex
 10
369.63525390625
 20
503.19287109375
 30
0.0
  0
SEQEND
  5
6F
330
69
100
AcDbEntity
  8
LAYER_1
  0
POLYLINE
  5
70
330
1F
100
AcDbEntity
  8
LAYER_1
 62
     7
100
AcDb2dPolyline
 66
     1
 10
0.0
 20
0.0
 30
0.0
  0
VERTEX
  5
71
330
70
100
AcDbEntity
  8
LAYER_1
 62
     7
100
AcDbVertex
100
AcDb2dVertex
 10
426.3291015625
 20
503.19287109375
 30
0.0
  0
VERTEX
  5
72
330
70
100
AcDbEntity
  8
LAYER_1
 62
     7
100
AcDbVertex
100
AcDb2dVertex
 10
443.3369140625
 20
503.19287109375
 30
0.0
  0
VERTEX
  5
73
330
70
100
AcDbEntity
  8
LAYER_1
 62
     7
100
AcDbVertex
100
AcDb2dVertex
 10
443.3369140625
 20
494.68896484375
 30
0.0
  0
VERTEX
  5
74
330
70
100
AcDbEntity
  8
LAYER_1
 62
     7
100
AcDbVertex
100
AcDb2dVertex
 10
426.3291015625
 20
494.68896484375
 30
0.0
  0
VERTEX
  5
75
330
70
100
AcDbEntity
  8
LAYER_1
 62
     7
100
AcDbVertex
100
AcDb2dVertex
 10
426.3291015625
 20
503.19287109375
 30
0.0
  0
SEQEND
  5
76
330
70
100
AcDbEntity
  8
LAYER_1
  0
SPLINE
  5
77
330
1F
100
AcDbEntity
  8
LAYER_1
 62
     7
100
AcDbSpline
210
0.0
220
0.0
230
1.0
 70
    11
 71
     3
 72
    65
 73
    61
 74
     0
 42
0.0000000001
 43
0.0000000001
 40
0.0
 40
0.0
 40
0.0
 40
0.0
 40
1.0
 40
1.0
 40
1.0
 40
2.0
 40
2.0
 40
2.0
 40
3.0
 40
3.0
 40
3.0
 40
4.0
 40
4.0
 40
4.0
 40
5.0
 40
5.0
 40
5.0
 40
6.0
 40
6.0
 40
6.0
 40
7.0
 40
7.0
 40
7.0
 40
8.0
 40
8.0
 40
8.0
 40
9.0
 40
9.0
 40
9.0
 40
10.0
 40
10.0
 40
10.0
 40
11.0
 40
11.0
 40
11.0
 40
12.0
 40
12.0
 40
12.0
 40
13.0
 40
13.0
 40
13.0
 40
14.0
 40
14.0
 40
14.0
 40
15.0
 40
15.0
 40
15.0
 40
16.0
 40
16.0
 40
16.0
 40
17.0
 40
17.0
 40
17.0
 40
18.0
 40
18.0
 40
18.0
 40
19.0
 40
19.0
 40
19.0
 40
20.0
 40
20.0
 40
20.0
 40
20.0
 10
454.6748046875
 20
503.19287109375
 30
0.0
 10
454.6748046875
 20
503.19287109375
 30
0.0
 10
455.8125
 20
503.19287109375
 30
0.0
 10
455.8125
 20
503.19287109375
 30
0.0
 10
456.5595703125
 20
504.48388671875
 30
0.0
 10
457.634765625
 20
505.5595703125
 30
0.0
 10
458.92578125
 20
506.306640625
 30
0.0
 10
458.92578125
 20
506.306640625
 30
0.0
 10
458.92578125
 20
507.44482421875
 30
0.0
 10
458.92578125
 20
507.44482421875
 30
0.0
 10
458.92578125
 20
507.44482421875
 30
0.0
 10
463.1787109375
 20
507.44482421875
 30
0.0
 10
463.1787109375
 20
507.44482421875
 30
0.0
 10
463.1787109375
 20
507.44482421875
 30
0.0
 10
467.431640625
 20
507.44482421875
 30
0.0
 10
467.431640625
 20
507.44482421875
 30
0.0
 10
467.431640625
 20
507.44482421875
 30
0.0
 10
467.431640625
 20
506.306640625
 30
0.0
 10
467.431640625
 20
506.306640625
 30
0.0
 10
468.720703125
 20
505.5595703125
 30
0.0
 10
469.796875
 20
504.48388671875
 30
0.0
 10
470.544921875
 20
503.19287109375
 30
0.0
 10
470.544921875
 20
503.19287109375
 30
0.0
 10
471.68359375
 20
503.19287109375
 30
0.0
 10
471.68359375
 20
503.19287109375
 30
0.0
 10
471.68359375
 20
503.19287109375
 30
0.0
 10
471.68359375
 20
498.94091796875
 30
0.0
 10
471.68359375
 20
498.94091796875
 30
0.0
 10
471.68359375
 20
498.94091796875
 30
0.0
 10
471.68359375
 20
494.68896484375
 30
0.0
 10
471.68359375
 20
494.68896484375
 30
0.0
 10
471.68359375
 20
494.68896484375
 30
0.0
 10
470.544921875
 20
494.68896484375
 30
0.0
 10
470.544921875
 20
494.68896484375
 30
0.0
 10
469.796875
 20
493.39794921875
 30
0.0
 10
468.720703125
 20
492.32177734375
 30
0.0
 10
467.431640625
 20
491.57470703125
 30
0.0
 10
467.431640625
 20
491.57470703125
 30
0.0
 10
467.431640625
 20
490.43701171875
 30
0.0
 10
467.431640625
 20
490.43701171875
 30
0.0
 10
467.431640625
 20
490.43701171875
 30
0.0
 10
463.1787109375
 20
490.43701171875
 30
0.0
 10
463.1787109375
 20
490.43701171875
 30
0.0
 10
463.1787109375
 20
490.43701171875
 30
0.0
 10
458.92578125
 20
490.43701171875
 30
0.0
 10
458.92578125
 20
490.43701171875
 30
0.0
 10
458.92578125
 20
490.43701171875
 30
0.0
 10
458.92578125
 20
491.57470703125
 30
0.0
 10
458.92578125
 20
491.57470703125
 30
0.0
 10
457.634765625
 20
492.32177734375
 30
0.0
 10
456.5595703125
 20
493.39794921875
 30
0.0
 10
455.8125
 20
494.68896484375
 30
0.0
 10
455.8125
 20
494.68896484375
 30
0.0
 10
454.6748046875
 20
494.68896484375
 30
0.0
 10
454.6748046875
 20
494.68896484375
 30
0.0
 10
454.6748046875
 20
494.68896484375
 30
0.0
 10
454.6748046875
 20
498.94091796875
 30
0.0
 10
454.6748046875
 20
498.94091796875
 30
0.0
 10
454.6748046875
 20
498.94091796875
 30
0.0
 10
454.6748046875
 20
503.19287109375
 30
0.0
 10
454.6748046875
 20
503.19287109375
 30
0.0
  0
SPLINE
  5
78
330
1F
100
AcDbEntity
  8
LAYER_1
 62
     7
100
AcDbSpline
210
0.0
220
0.0
230
1.0
 70
     8
 71
     3
 72
    32
 73
    28
 74
     0
 42
0.0000000001
 43
0.0000000001
 40
0.0
 40
0.0
 40
0.0
 40
0.0
 40
1.0
 40
1.0
 40
1.0
 40
2.0
 40
2.0
 40
2.0
 40
3.0
 40
3.0
 40
3.0
 40
4.0
 40
4.0
 40
4.0
 40
5.0
 40
5.0
 40
5.0
 40
6.0
 40
6.0
 40
6.0
 40
7.0
 40
7.0
 40
7.0
 40
8.0
 40
8.0
 40
8.0
 40
9.0
 40
9.0
 40
9.0
 40
9.0
 10
424.91015625
 20
528.3388671875
 30
0.0
 10
424.91015625
 20
528.3388671875
 30
0.0
 10
424.91015625
 20
517.36572265625
 30
0.0
 10
424.91015625
 20
517.36572265625
 30
0.0
 10
424.91015625
 20
517.36572265625
 30
0.0
 10
481.6044921875
 20
517.36572265625
 30
0.0
 10
481.6044921875
 20
517.36572265625
 30
0.0
 10
481.6044921875
 20
517.36572265625
 30
0.0
 10
481.6044921875
 20
494.68896484375
 30
0.0
 10
481.6044921875
 20
494.68896484375
 30
0.0
 10
481.6044921875
 20
486.86279296875
 30
0.0
 10
475.2578125
 20
480.515625
 30
0.0
 10
467.431640625
 20
480.515625
 30
0.0
 10
467.431640625
 20
480.515625
 30
0.0
 10
345.541015625
 20
480.515625
 30
0.0
 10
345.541015625
 20
480.515625
 30
0.0
 10
337.71484375
 20
480.515625
 30
0.0
 10
331.3681640625
 20
486.86279296875
 30
0.0
 10
331.3681640625
 20
494.68896484375
 30
0.0
 10
331.3681640625
 20
494.68896484375
 30
0.0
 10
331.3681640625
 20
517.36572265625
 30
0.0
 10
331.3681640625
 20
517.36572265625
 30
0.0
 10
331.3681640625
 20
517.36572265625
 30
0.0
 10
388.06103515625
 20
517.36572265625
 30
0.0
 10
388.06103515625
 20
517.36572265625
 30
0.0
 10
388.06103515625
 20
517.36572265625
 30
0.0
 10
388.06103515625
 20
528.3388671875
 30
0.0
 10
388.06103515625
 20
528.3388671875
 30
0.0
  0
SPLINE
  5
79
330
1F
100
AcDbEntity
  8
LAYER_1
 62
     7
100
AcDbSpline
210
0.0
220
0.0
230
1.0
 70
    11
 71
     3
 72
    65
 73
    61
 74
     0
 42
0.0000000001
 43
0.0000000001
 40
0.0
 40
0.0
 40
0.0
 40
0.0
 40
1.0
 40
1.0
 40
1.0
 40
2.0
 40
2.0
 40
2.0
 40
3.0
 40
3.0
 40
3.0
 40
4.0
 40
4.0
 40
4.0
 40
5.0
 40
5.0
 40
5.0
 40
6.0
 40
6.0
 40
6.0
 40
7.0
 40
7.0
 40
7.0
 40
8.0
 40
8.0
 40
8.0
 40
9.0
 40
9.0
 40
9.0
 40
10.0
 40
10.0
 40
10.0
 40
11.0
 40
11.0
 40
11.0
 40
12.0
 40
12.0
 40
12.0
 40
13.0
 40
13.0
 40
13.0
 40
14.0
 40
14.0
 40
14.0
 40
15.0
 40
15.0
 40
15.0
 40
16.0
 40
16.0
 40
16.0
 40
17.0
 40
17.0
 40
17.0
 40
18.0
 40
18.0
 40
18.0
 40
19.0
 40
19.0
 40
19.0
 40
20.0
 40
20.0
 40
20.0
 40
20.0
 10
397.98193359375
 20
503.19287109375
 30
0.0
 10
397.98193359375
 20
503.19287109375
 30
0.0
 10
399.11962890625
 20
503.19287109375
 30
0.0
 10
399.11962890625
 20
503.19287109375
 30
0.0
 10
399.86669921875
 20
504.48388671875
 30
0.0
 10
400.94287109375
 20
505.5595703125
 30
0.0
 10
402.23388671875
 20
506.306640625
 30
0.0
 10
402.23388671875
 20
506.306640625
 30
0.0
 10
402.23388671875
 20
507.44482421875
 30
0.0
 10
402.23388671875
 20
507.44482421875
 30
0.0
 10
402.23388671875
 20
507.44482421875
 30
0.0
 10
406.48583984375
 20
507.44482421875
 30
0.0
 10
406.48583984375
 20
507.44482421875
 30
0.0
 10
406.48583984375
 20
507.44482421875
 30
0.0
 10
410.7373046875
 20
507.44482421875
 30
0.0
 10
410.7373046875
 20
507.44482421875
 30
0.0
 10
410.7373046875
 20
507.44482421875
 30
0.0
 10
410.7373046875
 20
506.306640625
 30
0.0
 10
410.7373046875
 20
506.306640625
 30
0.0
 10
412.029296875
 20
505.5595703125
 30
0.0
 10
413.1044921875
 20
504.48388671875
 30
0.0
 10
413.8515625
 20
503.19287109375
 30
0.0
 10
413.8515625
 20
503.19287109375
 30
0.0
 10
414.990234375
 20
503.19287109375
 30
0.0
 10
414.990234375
 20
503.19287109375
 30
0.0
 10
414.990234375
 20
503.19287109375
 30
0.0
 10
414.990234375
 20
498.94091796875
 30
0.0
 10
414.990234375
 20
498.94091796875
 30
0.0
 10
414.990234375
 20
498.94091796875
 30
0.0
 10
414.990234375
 20
494.68896484375
 30
0.0
 10
414.990234375
 20
494.68896484375
 30
0.0
 10
414.990234375
 20
494.68896484375
 30
0.0
 10
413.8515625
 20
494.68896484375
 30
0.0
 10
413.8515625
 20
494.68896484375
 30
0.0
 10
413.1044921875
 20
493.39794921875
 30
0.0
 10
412.029296875
 20
492.32177734375
 30
0.0
 10
410.7373046875
 20
491.57470703125
 30
0.0
 10
410.7373046875
 20
491.57470703125
 30
0.0
 10
410.7373046875
 20
490.43701171875
 30
0.0
 10
410.7373046875
 20
490.43701171875
 30
0.0
 10
410.7373046875
 20
490.43701171875
 30
0.0
 10
406.48583984375
 20
490.43701171875
 30
0.0
 10
406.48583984375
 20
490.43701171875
 30
0.0
 10
406.48583984375
 20
490.43701171875
 30
0.0
 10
402.23388671875
 20
490.43701171875
 30
0.0
 10
402.23388671875
 20
490.43701171875
 30
0.0
 10
402.23388671875
 20
490.43701171875
 30
0.0
 10
402.23388671875
 20
491.57470703125
 30
0.0
 10
402.23388671875
 20
491.57470703125
 30
0.0
 10
400.94287109375
 20
492.32177734375
 30
0.0
 10
399.86669921875
 20
493.39794921875
 30
0.0
 10
399.11962890625
 20
494.68896484375
 30
0.0
 10
399.11962890625
 20
494.68896484375
 30
0.0
 10
397.98193359375
 20
494.68896484375
 30
0.0
 10
397.98193359375
 20
494.68896484375
 30
0.0
 10
397.98193359375
 20
494.68896484375
 30
0.0
 10
397.98193359375
 20
498.94091796875
 30
0.0
 10
397.98193359375
 20
498.94091796875
 30
0.0
 10
397.98193359375
 20
498.94091796875
 30
0.0
 10
397.98193359375
 20
503.19287109375
 30
0.0
 10
397.98193359375
 20
503.19287109375
 30
0.0
  0
INSERT
  5
7B
330
1F
100
AcDbEntity
  8
LAYER_1
100
AcDbBlockReference
  2
BLOCK_4
 10
0.0
 20
0.0
 30
0.0
  0
INSERT
  5
B2
330
1F
100
AcDbEntity
  8
LAYER_1
100
AcDbBlockReference
  2
BLOCK_6
 10
0.0
 20
0.0
 30
0.0
  0
SPLINE
  5
E8
330
1F
100
AcDbEntity
  8
LAYER_1
 62
     7
100
AcDbSpline
210
0.0
220
0.0
230
1.0
 70
    11
 71
     3
 72
    65
 73
    61
 74
     0
 42
0.0000000001
 43
0.0000000001
 40
0.0
 40
0.0
 40
0.0
 40
0.0
 40
1.0
 40
1.0
 40
1.0
 40
2.0
 40
2.0
 40
2.0
 40
3.0
 40
3.0
 40
3.0
 40
4.0
 40
4.0
 40
4.0
 40
5.0
 40
5.0
 40
5.0
 40
6.0
 40
6.0
 40
6.0
 40
7.0
 40
7.0
 40
7.0
 40
8.0
 40
8.0
 40
8.0
 40
9.0
 40
9.0
 40
9.0
 40
10.0
 40
10.0
 40
10.0
 40
11.0
 40
11.0
 40
11.0
 40
12.0
 40
12.0
 40
12.0
 40
13.0
 40
13.0
 40
13.0
 40
14.0
 40
14.0
 40
14.0
 40
15.0
 40
15.0
 40
15.0
 40
16.0
 40
16.0
 40
16.0
 40
17.0
 40
17.0
 40
17.0
 40
18.0
 40
18.0
 40
18.0
 40
19.0
 40
19.0
 40
19.0
 40
20.0
 40
20.0
 40
20.0
 40
20.0
 10
471.681640625
 20
213.5947265625
 30
0.0
 10
471.681640625
 20
213.5947265625
 30
0.0
 10
470.544921875
 20
213.5947265625
 30
0.0
 10
470.544921875
 20
213.5947265625
 30
0.0
 10
469.796875
 20
212.3037109375
 30
0.0
 10
468.720703125
 20
211.2275390625
 30
0.0
 10
467.4296875
 20
210.48046875
 30
0.0
 10
467.4296875
 20
210.48046875
 30
0.0
 10
467.4296875
 20
209.3427734375
 30
0.0
 10
467.4296875
 20
209.3427734375
 30
0.0
 10
467.4296875
 20
209.3427734375
 30
0.0
 10
463.1787109375
 20
209.3427734375
 30
0.0
 10
463.1787109375
 20
209.3427734375
 30
0.0
 10
463.1787109375
 20
209.3427734375
 30
0.0
 10
458.92578125
 20
209.3427734375
 30
0.0
 10
458.92578125
 20
209.3427734375
 30
0.0
 10
458.92578125
 20
209.3427734375
 30
0.0
 10
458.92578125
 20
210.48046875
 30
0.0
 10
458.92578125
 20
210.48046875
 30
0.0
 10
457.63671875
 20
211.2275390625
 30
0.0
 10
456.55859375
 20
212.3037109375
 30
0.0
 10
455.8125
 20
213.5947265625
 30
0.0
 10
455.8125
 20
213.5947265625
 30
0.0
 10
454.6748046875
 20
213.5947265625
 30
0.0
 10
454.6748046875
 20
213.5947265625
 30
0.0
 10
454.6748046875
 20
213.5947265625
 30
0.0
 10
454.6748046875
 20
217.8466796875
 30
0.0
 10
454.6748046875
 20
217.8466796875
 30
0.0
 10
454.6748046875
 20
217.8466796875
 30
0.0
 10
454.6748046875
 20
222.0986328125
 30
0.0
 10
454.6748046875
 20
222.0986328125
 30
0.0
 10
454.6748046875
 20
222.0986328125
 30
0.0
 10
455.8125
 20
222.0986328125
 30
0.0
 10
455.8125
 20
222.0986328125
 30
0.0
 10
456.55859375
 20
223.388671875
 30
0.0
 10
457.63671875
 20
224.4658203125
 30
0.0
 10
458.92578125
 20
225.212890625
 30
0.0
 10
458.92578125
 20
225.212890625
 30
0.0
 10
458.92578125
 20
226.3505859375
 30
0.0
 10
458.92578125
 20
226.3505859375
 30
0.0
 10
458.92578125
 20
226.3505859375
 30
0.0
 10
463.1787109375
 20
226.3505859375
 30
0.0
 10
463.1787109375
 20
226.3505859375
 30
0.0
 10
463.1787109375
 20
226.3505859375
 30
0.0
 10
467.4296875
 20
226.3505859375
 30
0.0
 10
467.4296875
 20
226.3505859375
 30
0.0
 10
467.4296875
 20
226.3505859375
 30
0.0
 10
467.4296875
 20
225.212890625
 30
0.0
 10
467.4296875
 20
225.212890625
 30
0.0
 10
468.720703125
 20
224.4658203125
 30
0.0
 10
469.796875
 20
223.388671875
 30
0.0
 10
470.544921875
 20
222.0986328125
 30
0.0
 10
470.544921875
 20
222.0986328125
 30
0.0
 10
471.681640625
 20
222.0986328125
 30
0.0
 10
471.681640625
 20
222.0986328125
 30
0.0
 10
471.681640625
 20
222.0986328125
 30
0.0
 10
471.681640625
 20
217.8466796875
 30
0.0
 10
471.681640625
 20
217.8466796875
 30
0.0
 10
471.681640625
 20
217.8466796875
 30
0.0
 10
471.681640625
 20
213.5947265625
 30
0.0
 10
471.681640625
 20
213.5947265625
 30
0.0
  0
POLYLINE
  5
E9
330
1F
100
AcDbEntity
  8
LAYER_1
 62
     7
100
AcDb2dPolyline
 66
     1
 10
0.0
 20
0.0
 30
0.0
  0
VERTEX
  5
EA
330
E9
100
AcDbEntity
  8
LAYER_1
 62
     7
100
AcDbVertex
100
AcDb2dVertex
 10
443.3369140625
 20
213.5947265625
 30
0.0
  0
VERTEX
  5
EB
330
E9
100
AcDbEntity
  8
LAYER_1
 62
     7
100
AcDbVertex
100
AcDb2dVertex
 10
426.3291015625
 20
213.5947265625
 30
0.0
  0
VERTEX
  5
EC
330
E9
100
AcDbEntity
  8
LAYER_1
 62
     7
100
AcDbVertex
100
AcDb2dVertex
 10
426.3291015625
 20
222.0986328125
 30
0.0
  0
VERTEX
  5
ED
330
E9
100
AcDbEntity
  8
LAYER_1
 62
     7
100
AcDbVertex
100
AcDb2dVertex
 10
443.3369140625
 20
222.0986328125
 30
0.0
  0
VERTEX
  5
EE
330
E9
100
AcDbEntity
  8
LAYER_1
 62
     7
100
AcDbVertex
100
AcDb2dVertex
 10
443.3369140625
 20
213.5947265625
 30
0.0
  0
SEQEND
  5
EF
330
E9
100
AcDbEntity
  8
LAYER_1
  0
POLYLINE
  5
F0
330
1F
100
AcDbEntity
  8
LAYER_1
 62
     7
100
AcDb2dPolyline
 66
     1
 10
0.0
 20
0.0
 30
0.0
  0
VERTEX
  5
F1
330
F0
100
AcDbEntity
  8
LAYER_1
 62
     7
100
AcDbVertex
100
AcDb2dVertex
 10
386.6435546875
 20
213.5947265625
 30
0.0
  0
VERTEX
  5
F2
330
F0
100
AcDbEntity
  8
LAYER_1
 62
     7
100
AcDbVertex
100
AcDb2dVertex
 10
369.63525390625
 20
213.5947265625
 30
0.0
  0
VERTEX
  5
F3
330
F0
100
AcDbEntity
  8
LAYER_1
 62
     7
100
AcDbVertex
100
AcDb2dVertex
 10
369.63525390625
 20
222.0986328125
 30
0.0
  0
VERTEX
  5
F4
330
F0
100
AcDbEntity
  8
LAYER_1
 62
     7
100
AcDbVertex
100
AcDb2dVertex
 10
386.6435546875
 20
222.0986328125
 30
0.0
  0
VERTEX
  5
F5
330
F0
100
AcDbEntity
  8
LAYER_1
 62
     7
100
AcDbVertex
100
AcDb2dVertex
 10
386.6435546875
 20
213.5947265625
 30
0.0
  0
SEQEND
  5
F6
330
F0
100
AcDbEntity
  8
LAYER_1
  0
SPLINE
  5
F7
330
1F
100
AcDbEntity
  8
LAYER_1
 62
     7
100
AcDbSpline
210
0.0
220
0.0
230
1.0
 70
    11
 71
     3
 72
    65
 73
    61
 74
     0
 42
0.0000000001
 43
0.0000000001
 40
0.0
 40
0.0
 40
0.0
 40
0.0
 40
1.0
 40
1.0
 40
1.0
 40
2.0
 40
2.0
 40
2.0
 40
3.0
 40
3.0
 40
3.0
 40
4.0
 40
4.0
 40
4.0
 40
5.0
 40
5.0
 40
5.0
 40
6.0
 40
6.0
 40
6.0
 40
7.0
 40
7.0
 40
7.0
 40
8.0
 40
8.0
 40
8.0
 40
9.0
 40
9.0
 40
9.0
 40
10.0
 40
10.0
 40
10.0
 40
11.0
 40
11.0
 40
11.0
 40
12.0
 40
12.0
 40
12.0
 40
13.0
 40
13.0
 40
13.0
 40
14.0
 40
14.0
 40
14.0
 40
15.0
 40
15.0
 40
15.0
 40
16.0
 40
16.0
 40
16.0
 40
17.0
 40
17.0
 40
17.0
 40
18.0
 40
18.0
 40
18.0
 40
19.0
 40
19.0
 40
19.0
 40
20.0
 40
20.0
 40
20.0
 40
20.0
 10
358.296875
 20
213.5947265625
 30
0.0
 10
358.296875
 20
213.5947265625
 30
0.0
 10
357.15869140625
 20
213.5947265625
 30
0.0
 10
357.15869140625
 20
213.5947265625
 30
0.0
 10
356.41162109375
 20
212.3037109375
 30
0.0
 10
355.33544921875
 20
211.2275390625
 30
0.0
 10
354.04443359375
 20
210.48046875
 30
0.0
 10
354.04443359375
 20
210.48046875
 30
0.0
 10
354.04443359375
 20
209.3427734375
 30
0.0
 10
354.04443359375
 20
209.3427734375
 30
0.0
 10
354.04443359375
 20
209.3427734375
 30
0.0
 10
349.79248046875
 20
209.3427734375
 30
0.0
 10
349.79248046875
 20
209.3427734375
 30
0.0
 10
349.79248046875
 20
209.3427734375
 30
0.0
 10
345.54052734375
 20
209.3427734375
 30
0.0
 10
345.54052734375
 20
209.3427734375
 30
0.0
 10
345.54052734375
 20
209.3427734375
 30
0.0
 10
345.54052734375
 20
210.48046875
 30
0.0
 10
345.54052734375
 20
210.48046875
 30
0.0
 10
344.25048828125
 20
211.2275390625
 30
0.0
 10
343.173828125
 20
212.3037109375
 30
0.0
 10
342.4267578125
 20
213.5947265625
 30
0.0
 10
342.4267578125
 20
213.5947265625
 30
0.0
 10
341.28857421875
 20
213.5947265625
 30
0.0
 10
341.28857421875
 20
213.5947265625
 30
0.0
 10
341.28857421875
 20
213.5947265625
 30
0.0
 10
341.28857421875
 20
217.8466796875
 30
0.0
 10
341.28857421875
 20
217.8466796875
 30
0.0
 10
341.28857421875
 20
217.8466796875
 30
0.0
 10
341.28857421875
 20
222.0986328125
 30
0.0
 10
341.28857421875
 20
222.0986328125
 30
0.0
 10
341.28857421875
 20
222.0986328125
 30
0.0
 10
342.4267578125
 20
222.0986328125
 30
0.0
 10
342.4267578125
 20
222.0986328125
 30
0.0
 10
343.173828125
 20
223.388671875
 30
0.0
 10
344.25048828125
 20
224.4658203125
 30
0.0
 10
345.54052734375
 20
225.212890625
 30
0.0
 10
345.54052734375
 20
225.212890625
 30
0.0
 10
345.54052734375
 20
226.3505859375
 30
0.0
 10
345.54052734375
 20
226.3505859375
 30
0.0
 10
345.54052734375
 20
226.3505859375
 30
0.0
 10
349.79248046875
 20
226.3505859375
 30
0.0
 10
349.79248046875
 20
226.3505859375
 30
0.0
 10
349.79248046875
 20
226.3505859375
 30
0.0
 10
354.04443359375
 20
226.3505859375
 30
0.0
 10
354.04443359375
 20
226.3505859375
 30
0.0
 10
354.04443359375
 20
226.3505859375
 30
0.0
 10
354.04443359375
 20
225.212890625
 30
0.0
 10
354.04443359375
 20
225.212890625
 30
0.0
 10
355.33544921875
 20
224.4658203125
 30
0.0
 10
356.41162109375
 20
223.388671875
 30
0.0
 10
357.15869140625
 20
222.0986328125
 30
0.0
 10
357.15869140625
 20
222.0986328125
 30
0.0
 10
358.296875
 20
222.0986328125
 30
0.0
 10
358.296875
 20
222.0986328125
 30
0.0
 10
358.296875
 20
222.0986328125
 30
0.0
 10
358.296875
 20
217.8466796875
 30
0.0
 10
358.296875
 20
217.8466796875
 30
0.0
 10
358.296875
 20
217.8466796875
 30
0.0
 10
358.296875
 20
213.5947265625
 30
0.0
 10
358.296875
 20
213.5947265625
 30
0.0
  0
SPLINE
  5
F8
330
1F
100
AcDbEntity
  8
LAYER_1
 62
     7
100
AcDbSpline
210
0.0
220
0.0
230
1.0
 70
    11
 71
     3
 72
    65
 73
    61
 74
     0
 42
0.0000000001
 43
0.0000000001
 40
0.0
 40
0.0
 40
0.0
 40
0.0
 40
1.0
 40
1.0
 40
1.0
 40
2.0
 40
2.0
 40
2.0
 40
3.0
 40
3.0
 40
3.0
 40
4.0
 40
4.0
 40
4.0
 40
5.0
 40
5.0
 40
5.0
 40
6.0
 40
6.0
 40
6.0
 40
7.0
 40
7.0
 40
7.0
 40
8.0
 40
8.0
 40
8.0
 40
9.0
 40
9.0
 40
9.0
 40
10.0
 40
10.0
 40
10.0
 40
11.0
 40
11.0
 40
11.0
 40
12.0
 40
12.0
 40
12.0
 40
13.0
 40
13.0
 40
13.0
 40
14.0
 40
14.0
 40
14.0
 40
15.0
 40
15.0
 40
15.0
 40
16.0
 40
16.0
 40
16.0
 40
17.0
 40
17.0
 40
17.0
 40
18.0
 40
18.0
 40
18.0
 40
19.0
 40
19.0
 40
19.0
 40
20.0
 40
20.0
 40
20.0
 40
20.0
 10
414.990234375
 20
213.5947265625
 30
0.0
 10
414.990234375
 20
213.5947265625
 30
0.0
 10
413.8515625
 20
213.5947265625
 30
0.0
 10
413.8515625
 20
213.5947265625
 30
0.0
 10
413.1044921875
 20
212.3037109375
 30
0.0
 10
412.029296875
 20
211.2275390625
 30
0.0
 10
410.7373046875
 20
210.48046875
 30
0.0
 10
410.7373046875
 20
210.48046875
 30
0.0
 10
410.7373046875
 20
209.3427734375
 30
0.0
 10
410.7373046875
 20
209.3427734375
 30
0.0
 10
410.7373046875
 20
209.3427734375
 30
0.0
 10
406.4853515625
 20
209.3427734375
 30
0.0
 10
406.4853515625
 20
209.3427734375
 30
0.0
 10
406.4853515625
 20
209.3427734375
 30
0.0
 10
402.2333984375
 20
209.3427734375
 30
0.0
 10
402.2333984375
 20
209.3427734375
 30
0.0
 10
402.2333984375
 20
209.3427734375
 30
0.0
 10
402.2333984375
 20
210.48046875
 30
0.0
 10
402.2333984375
 20
210.48046875
 30
0.0
 10
400.943359375
 20
211.2275390625
 30
0.0
 10
399.86669921875
 20
212.3037109375
 30
0.0
 10
399.11962890625
 20
213.5947265625
 30
0.0
 10
399.11962890625
 20
213.5947265625
 30
0.0
 10
397.9814453125
 20
213.5947265625
 30
0.0
 10
397.9814453125
 20
213.5947265625
 30
0.0
 10
397.9814453125
 20
213.5947265625
 30
0.0
 10
397.9814453125
 20
217.8466796875
 30
0.0
 10
397.9814453125
 20
217.8466796875
 30
0.0
 10
397.9814453125
 20
217.8466796875
 30
0.0
 10
397.9814453125
 20
222.0986328125
 30
0.0
 10
397.9814453125
 20
222.0986328125
 30
0.0
 10
397.9814453125
 20
222.0986328125
 30
0.0
 10
399.11962890625
 20
222.0986328125
 30
0.0
 10
399.11962890625
 20
222.0986328125
 30
0.0
 10
399.86669921875
 20
223.388671875
 30
0.0
 10
400.943359375
 20
224.4658203125
 30
0.0
 10
402.2333984375
 20
225.212890625
 30
0.0
 10
402.2333984375
 20
225.212890625
 30
0.0
 10
402.2333984375
 20
226.3505859375
 30
0.0
 10
402.2333984375
 20
226.3505859375
 30
0.0
 10
402.2333984375
 20
226.3505859375
 30
0.0
 10
406.4853515625
 20
226.3505859375
 30
0.0
 10
406.4853515625
 20
226.3505859375
 30
0.0
 10
406.4853515625
 20
226.3505859375
 30
0.0
 10
410.7373046875
 20
226.3505859375
 30
0.0
 10
410.7373046875
 20
226.3505859375
 30
0.0
 10
410.7373046875
 20
226.3505859375
 30
0.0
 10
410.7373046875
 20
225.212890625
 30
0.0
 10
410.7373046875
 20
225.212890625
 30
0.0
 10
412.029296875
 20
224.4658203125
 30
0.0
 10
413.1044921875
 20
223.388671875
 30
0.0
 10
413.8515625
 20
222.0986328125
 30
0.0
 10
413.8515625
 20
222.0986328125
 30
0.0
 10
414.990234375
 20
222.0986328125
 30
0.0
 10
414.990234375
 20
222.0986328125
 30
0.0
 10
414.990234375
 20
222.0986328125
 30
0.0
 10
414.990234375
 20
217.8466796875
 30
0.0
 10
414.990234375
 20
217.8466796875
 30
0.0
 10
414.990234375
 20
217.8466796875
 30
0.0
 10
414.990234375
 20
213.5947265625
 30
0.0
 10
414.990234375
 20
213.5947265625
 30
0.0
  0
SPLINE
  5
F9
330
1F
100
AcDbEntity
  8
LAYER_1
 62
   250
100
AcDbSpline
210
0.0
220
0.0
230
1.0
 70
    11
 71
     3
 72
    83
 73
    79
 74
     0
 42
0.0000000001
 43
0.0000000001
 40
0.0
 40
0.0
 40
0.0
 40
0.0
 40
1.0
 40
1.0
 40
1.0
 40
2.0
 40
2.0
 40
2.0
 40
3.0
 40
3.0
 40
3.0
 40
4.0
 40
4.0
 40
4.0
 40
5.0
 40
5.0
 40
5.0
 40
6.0
 40
6.0
 40
6.0
 40
7.0
 40
7.0
 40
7.0
 40
8.0
 40
8.0
 40
8.0
 40
9.0
 40
9.0
 40
9.0
 40
10.0
 40
10.0
 40
10.0
 40
11.0
 40
11.0
 40
11.0
 40
12.0
 40
12.0
 40
12.0
 40
13.0
 40
13.0
 40
13.0
 40
14.0
 40
14.0
 40
14.0
 40
15.0
 40
15.0
 40
15.0
 40
16.0
 40
16.0
 40
16.0
 40
17.0
 40
17.0
 40
17.0
 40
18.0
 40
18.0
 40
18.0
 40
19.0
 40
19.0
 40
19.0
 40
20.0
 40
20.0
 40
20.0
 40
21.0
 40
21.0
 40
21.0
 40
22.0
 40
22.0
 40
22.0
 40
23.0
 40
23.0
 40
23.0
 40
24.0
 40
24.0
 40
24.0
 40
25.0
 40
25.0
 40
25.0
 40
26.0
 40
26.0
 40
26.0
 40
26.0
 10
509.9501953125
 20
183.8349609375
 30
0.0
 10
509.9501953125
 20
183.8349609375
 30
0.0
 10
465.69140625
 20
183.8349609375
 30
0.0
 10
465.69140625
 20
183.8349609375
 30
0.0
 10
465.69140625
 20
183.8349609375
 30
0.0
 10
465.69140625
 20
199.4248046875
 30
0.0
 10
465.69140625
 20
199.4248046875
 30
0.0
 10
465.69140625
 20
199.4248046875
 30
0.0
 10
481.6005859375
 20
199.4248046875
 30
0.0
 10
481.6005859375
 20
199.4248046875
 30
0.0
 10
481.6005859375
 20
199.4248046875
 30
0.0
 10
481.6005859375
 20
222.0947265625
 30
0.0
 10
481.6005859375
 20
222.0947265625
 30
0.0
 10
481.6005859375
 20
229.9248046875
 30
0.0
 10
475.26171875
 20
236.2744140625
 30
0.0
 10
467.431640625
 20
236.2744140625
 30
0.0
 10
467.431640625
 20
236.2744140625
 30
0.0
 10
345.541015625
 20
236.2744140625
 30
0.0
 10
345.541015625
 20
236.2744140625
 30
0.0
 10
337.7109375
 20
236.2744140625
 30
0.0
 10
331.37060546875
 20
229.9248046875
 30
0.0
 10
331.37060546875
 20
222.0947265625
 30
0.0
 10
331.37060546875
 20
222.0947265625
 30
0.0
 10
331.37060546875
 20
199.4248046875
 30
0.0
 10
331.37060546875
 20
199.4248046875
 30
0.0
 10
331.37060546875
 20
199.4248046875
 30
0.0
 10
348.06103515625
 20
199.4248046875
 30
0.0
 10
348.06103515625
 20
199.4248046875
 30
0.0
 10
348.06103515625
 20
199.4248046875
 30
0.0
 10
348.06103515625
 20
185.2451171875
 30
0.0
 10
348.06103515625
 20
185.2451171875
 30
0.0
 10
348.06103515625
 20
184.7744140625
 30
0.0
 10
348.0810546875
 20
184.294921875
 30
0.0
 10
348.130859375
 20
183.8349609375
 30
0.0
 10
348.130859375
 20
183.8349609375
 30
0.0
 10
303.02099609375
 20
183.8349609375
 30
0.0
 10
303.02099609375
 20
183.8349609375
 30
0.0
 10
287.37060546875
 20
183.8349609375
 30
0.0
 10
274.6708984375
 20
171.134765625
 30
0.0
 10
274.6708984375
 20
155.4853515625
 30
0.0
 10
274.6708984375
 20
155.4853515625
 30
0.0
 10
274.6708984375
 20
127.134765625
 30
0.0
 10
274.6708984375
 20
127.134765625
 30
0.0
 10
274.6708984375
 20
127.134765625
 30
0.0
 10
398.95068359375
 20
127.134765625
 30
0.0
 10
398.95068359375
 20
127.134765625
 30
0.0
 10
398.95068359375
 20
127.134765625
 30
0.0
 10
398.95068359375
 20
183.8349609375
 30
0.0
 10
398.95068359375
 20
183.8349609375
 30
0.0
 10
398.95068359375
 20
183.8349609375
 30
0.0
 10
384.8408203125
 20
183.8349609375
 30
0.0
 10
384.8408203125
 20
183.8349609375
 30
0.0
 10
384.89111328125
 20
184.294921875
 30
0.0
 10
384.91064453125
 20
184.7744140625
 30
0.0
 10
384.91064453125
 20
185.2451171875
 30
0.0
 10
384.91064453125
 20
185.2451171875
 30
0.0
 10
384.91064453125
 20
199.4248046875
 30
0.0
 10
384.91064453125
 20
199.4248046875
 30
0.0
 10
384.91064453125
 20
199.4248046875
 30
0.0
 10
429.05078125
 20
199.4248046875
 30
0.0
 10
429.05078125
 20
199.4248046875
 30
0.0
 10
429.05078125
 20
199.4248046875
 30
0.0
 10
429.05078125
 20
183.8349609375
 30
0.0
 10
429.05078125
 20
183.8349609375
 30
0.0
 10
429.05078125
 20
183.8349609375
 30
0.0
 10
414.9912109375
 20
183.8349609375
 30
0.0
 10
414.9912109375
 20
183.8349609375
 30
0.0
 10
414.9912109375
 20
183.8349609375
 30
0.0
 10
414.9912109375
 20
127.134765625
 30
0.0
 10
414.9912109375
 20
127.134765625
 30
0.0
 10
414.9912109375
 20
127.134765625
 30
0.0
 10
538.30078125
 20
127.134765625
 30
0.0
 10
538.30078125
 20
127.134765625
 30
0.0
 10
538.30078125
 20
127.134765625
 30
0.0
 10
538.30078125
 20
155.4853515625
 30
0.0
 10
538.30078125
 20
155.4853515625
 30
0.0
 10
538.30078125
 20
171.134765625
 30
0.0
 10
525.6005859375
 20
183.8349609375
 30
0.0
 10
509.9501953125
 20
183.8349609375
 30
0.0
  0
SPLINE
  5
FA
330
1F
100
AcDbEntity
  8
LAYER_1
 62
     7
100
AcDbSpline
210
0.0
220
0.0
230
1.0
 70
    11
 71
     3
 72
    29
 73
    25
 74
     0
 42
0.0000000001
 43
0.0000000001
 40
0.0
 40
0.0
 40
0.0
 40
0.0
 40
1.0
 40
1.0
 40
1.0
 40
2.0
 40
2.0
 40
2.0
 40
3.0
 40
3.0
 40
3.0
 40
4.0
 40
4.0
 40
4.0
 40
5.0
 40
5.0
 40
5.0
 40
6.0
 40
6.0
 40
6.0
 40
7.0
 40
7.0
 40
7.0
 40
8.0
 40
8.0
 40
8.0
 40
8.0
 10
446.0205078125
 20
566.5048828125
 30
0.0
 10
446.0205078125
 20
566.5048828125
 30
0.0
 10
373.623046875
 20
566.5048828125
 30
0.0
 10
373.623046875
 20
566.5048828125
 30
0.0
 10
367.02294921875
 20
566.5048828125
 30
0.0
 10
361.623046875
 20
561.10498046875
 30
0.0
 10
361.623046875
 20
554.5048828125
 30
0.0
 10
361.623046875
 20
554.5048828125
 30
0.0
 10
361.623046875
 20
549.7548828125
 30
0.0
 10
361.623046875
 20
549.7548828125
 30
0.0
 10
361.623046875
 20
543.15478515625
 30
0.0
 10
367.02294921875
 20
537.7548828125
 30
0.0
 10
373.623046875
 20
537.7548828125
 30
0.0
 10
373.623046875
 20
537.7548828125
 30
0.0
 10
446.0205078125
 20
537.7548828125
 30
0.0
 10
446.0205078125
 20
537.7548828125
 30
0.0
 10
452.62109375
 20
537.7548828125
 30
0.0
 10
458.0205078125
 20
543.15478515625
 30
0.0
 10
458.0205078125
 20
549.7548828125
 30
0.0
 10
458.0205078125
 20
549.7548828125
 30
0.0
 10
458.0205078125
 20
554.5048828125
 30
0.0
 10
458.0205078125
 20
554.5048828125
 30
0.0
 10
458.0205078125
 20
561.10498046875
 30
0.0
 10
452.62109375
 20
566.5048828125
 30
0.0
 10
446.0205078125
 20
566.5048828125
 30
0.0
  0
POLYLINE
  5
FB
330
1F
100
AcDbEntity
  8
LAYER_1
 62
     7
100
AcDb2dPolyline
 66
     1
 10
0.0
 20
0.0
 30
0.0
  0
VERTEX
  5
FC
330
FB
100
AcDbEntity
  8
LAYER_1
 62
     7
100
AcDbVertex
100
AcDb2dVertex
 10
379.77099609375
 20
537.7548828125
 30
0.0
  0
VERTEX
  5
FD
330
FB
100
AcDbEntity
  8
LAYER_1
 62
     7
100
AcDbVertex
100
AcDb2dVertex
 10
379.77099609375
 20
566.5048828125
 30
0.0
  0
SEQEND
  5
FE
330
FB
100
AcDbEntity
  8
LAYER_1
  0
POLYLINE
  5
FF
330
1F
100
AcDbEntity
  8
LAYER_1
 62
     7
100
AcDb2dPolyline
 66
     1
 10
0.0
 20
0.0
 30
0.0
  0
VERTEX
  5
100
330
FF
100
AcDbEntity
  8
LAYER_1
 62
     7
100
AcDbVertex
100
AcDb2dVertex
 10
400.10400390625
 20
537.7548828125
 30
0.0
  0
VERTEX
  5
101
330
FF
100
AcDbEntity
  8
LAYER_1
 62
     7
100
AcDbVertex
100
AcDb2dVertex
 10
400.10400390625
 20
566.5048828125
 30
0.0
  0
SEQEND
  5
102
330
FF
100
AcDbEntity
  8
LAYER_1
  0
POLYLINE
  5
103
330
1F
100
AcDbEntity
  8
LAYER_1
 62
     7
100
AcDb2dPolyline
 66
     1
 10
0.0
 20
0.0
 30
0.0
  0
VERTEX
  5
104
330
103
100
AcDbEntity
  8
LAYER_1
 62
     7
100
AcDbVertex
100
AcDb2dVertex
 10
420.4375
 20
537.7548828125
 30
0.0
  0
VERTEX
  5
105
330
103
100
AcDbEntity
  8
LAYER_1
 62
     7
100
AcDbVertex
100
AcDb2dVertex
 10
420.4375
 20
566.5048828125
 30
0.0
  0
SEQEND
  5
106
330
103
100
AcDbEntity
  8
LAYER_1
  0
POLYLINE
  5
107
330
1F
100
AcDbEntity
  8
LAYER_1
 62
     7
100
AcDb2dPolyline
 66
     1
 10
0.0
 20
0.0
 30
0.0
  0
VERTEX
  5
108
330
107
100
AcDbEntity
  8
LAYER_1
 62
     7
100
AcDbVertex
100
AcDb2dVertex
 10
440.7705078125
 20
537.7548828125
 30
0.0
  0
VERTEX
  5
109
330
107
100
AcDbEntity
  8
LAYER_1
 62
     7
100
AcDbVertex
100
AcDb2dVertex
 10
440.7705078125
 20
566.5048828125
 30
0.0
  0
SEQEND
  5
10A
330
107
100
AcDbEntity
  8
LAYER_1
  0
SPLINE
  5
10B
330
1F
100
AcDbEntity
  8
LAYER_1
 62
     7
100
AcDbSpline
210
0.0
220
0.0
230
1.0
 70
    11
 71
     3
 72
    17
 73
    13
 74
     0
 42
0.0000000001
 43
0.0000000001
 40
0.0
 40
0.0
 40
0.0
 40
0.0
 40
1.0
 40
1.0
 40
1.0
 40
2.0
 40
2.0
 40
2.0
 40
3.0
 40
3.0
 40
3.0
 40
4.0
 40
4.0
 40
4.0
 40
4.0
 10
402.66015625
 20
604.41162109375
 30
0.0
 10
402.66015625
 20
621.03125
 30
0.0
 10
389.1875
 20
634.50439453125
 30
0.0
 10
372.5673828125
 20
634.50439453125
 30
0.0
 10
355.947265625
 20
634.50439453125
 30
0.0
 10
342.47314453125
 20
621.03125
 30
0.0
 10
342.47314453125
 20
604.41162109375
 30
0.0
 10
342.47314453125
 20
587.79150390625
 30
0.0
 10
355.947265625
 20
574.318359375
 30
0.0
 10
372.5673828125
 20
574.318359375
 30
0.0
 10
389.1875
 20
574.318359375
 30
0.0
 10
402.66015625
 20
587.79150390625
 30
0.0
 10
402.66015625
 20
604.41162109375
 30
0.0
  0
SPLINE
  5
10C
330
1F
100
AcDbEntity
  8
LAYER_1
 62
     7
100
AcDbSpline
210
0.0
220
0.0
230
1.0
 70
    11
 71
     3
 72
    17
 73
    13
 74
     0
 42
0.0000000001
 43
0.0000000001
 40
0.0
 40
0.0
 40
0.0
 40
0.0
 40
1.0
 40
1.0
 40
1.0
 40
2.0
 40
2.0
 40
2.0
 40
3.0
 40
3.0
 40
3.0
 40
4.0
 40
4.0
 40
4.0
 40
4.0
 10
472.8125
 20
604.41162109375
 30
0.0
 10
472.8125
 20
621.03125
 30
0.0
 10
459.33984375
 20
634.50439453125
 30
0.0
 10
442.71875
 20
634.50439453125
 30
0.0
 10
426.099609375
 20
634.50439453125
 30
0.0
 10
412.625
 20
621.03125
 30
0.0
 10
412.625
 20
604.41162109375
 30
0.0
 10
412.625
 20
587.79150390625
 30
0.0
 10
426.099609375
 20
574.318359375
 30
0.0
 10
442.71875
 20
574.318359375
 30
0.0
 10
459.33984375
 20
574.318359375
 30
0.0
 10
472.8125
 20
587.79150390625
 30
0.0
 10
472.8125
 20
604.41162109375
 30
0.0
  0
POLYLINE
  5
10D
330
1F
100
AcDbEntity
  8
LAYER_1
 62
   250
100
AcDb2dPolyline
 66
     1
 10
0.0
 20
0.0
 30
0.0
  0
VERTEX
  5
10E
330
10D
100
AcDbEntity
  8
LAYER_1
 62
   250
100
AcDbVertex
100
AcDb2dVertex
 10
348.130859375
 20
183.8349609375
 30
0.0
  0
VERTEX
  5
10F
330
10D
100
AcDbEntity
  8
LAYER_1
 62
   250
100
AcDbVertex
100
AcDb2dVertex
 10
384.8408203125
 20
183.8349609375
 30
0.0
  0
SEQEND
  5
110
330
10D
100
AcDbEntity
  8
LAYER_1
  0
POLYLINE
  5
111
330
1F
100
AcDbEntity
  8
LAYER_1
 62
   250
100
AcDb2dPolyline
 66
     1
 10
0.0
 20
0.0
 30
0.0
  0
VERTEX
  5
112
330
111
100
AcDbEntity
  8
LAYER_1
 62
   250
100
AcDbVertex
100
AcDb2dVertex
 10
348.06103515625
 20
199.4248046875
 30
0.0
  0
VERTEX
  5
113
330
111
100
AcDbEntity
  8
LAYER_1
 62
   250
100
AcDbVertex
100
AcDb2dVertex
 10
384.91064453125
 20
199.4248046875
 30
0.0
  0
SEQEND
  5
114
330
111
100
AcDbEntity
  8
LAYER_1
  0
POLYLINE
  5
115
330
1F
100
AcDbEntity
  8
LAYER_1
 62
   250
100
AcDb2dPolyline
 66
     1
 10
0.0
 20
0.0
 30
0.0
  0
VERTEX
  5
116
330
115
100
AcDbEntity
  8
LAYER_1
 62
   250
100
AcDbVertex
100
AcDb2dVertex
 10
429.05078125
 20
183.8349609375
 30
0.0
  0
VERTEX
  5
117
330
115
100
AcDbEntity
  8
LAYER_1
 62
   250
100
AcDbVertex
100
AcDb2dVertex
 10
465.69140625
 20
183.8349609375
 30
0.0
  0
SEQEND
  5
118
330
115
100
AcDbEntity
  8
LAYER_1
  0
POLYLINE
  5
119
330
1F
100
AcDbEntity
  8
LAYER_1
 62
   250
100
AcDb2dPolyline
 66
     1
 10
0.0
 20
0.0
 30
0.0
  0
VERTEX
  5
11A
330
119
100
AcDbEntity
  8
LAYER_1
 62
   250
100
AcDbVertex
100
AcDb2dVertex
 10
429.05078125
 20
199.4248046875
 30
0.0
  0
VERTEX
  5
11B
330
119
100
AcDbEntity
  8
LAYER_1
 62
   250
100
AcDbVertex
100
AcDb2dVertex
 10
465.69140625
 20
199.4248046875
 30
0.0
  0
SEQEND
  5
11C
330
119
100
AcDbEntity
  8
LAYER_1
  0
POLYLINE
  5
11D
330
1F
100
AcDbEntity
  8
LAYER_1
 62
     7
100
AcDb2dPolyline
 66
     1
 10
0.0
 20
0.0
 30
0.0
  0
VERTEX
  5
11E
330
11D
100
AcDbEntity
  8
LAYER_1
 62
     7
100
AcDbVertex
100
AcDb2dVertex
 10
388.060546875
 20
517.36572265625
 30
0.0
  0
VERTEX
  5
11F
330
11D
100
AcDbEntity
  8
LAYER_1
 62
     7
100
AcDbVertex
100
AcDb2dVertex
 10
424.91015625
 20
517.36572265625
 30
0.0
  0
SEQEND
  5
120
330
11D
100
AcDbEntity
  8
LAYER_1
  0
INSERT
  5
122
330
1F
100
AcDbEntity
  8
LAYER_1
100
AcDbBlockReference
  2
BLOCK_8
 10
0.0
 20
0.0
 30
0.0
  0
INSERT
  5
12E
330
1F
100
AcDbEntity
  8
LAYER_1
100
AcDbBlockReference
  2
BLOCK_9
 10
0.0
 20
0.0
 30
0.0
  0
INSERT
  5
13A
330
1F
100
AcDbEntity
  8
LAYER_1
100
AcDbBlockReference
  2
BLOCK_10
 10
0.0
 20
0.0
 30
0.0
  0
INSERT
  5
146
330
1F
100
AcDbEntity
  8
LAYER_1
100
AcDbBlockReference
  2
BLOCK_11
 10
0.0
 20
0.0
 30
0.0
  0
INSERT
  5
152
330
1F
100
AcDbEntity
  8
LAYER_1
100
AcDbBlockReference
  2
BLOCK_12
 10
0.0
 20
0.0
 30
0.0
  0
INSERT
  5
15E
330
1F
100
AcDbEntity
  8
LAYER_1
100
AcDbBlockReference
  2
BLOCK_13
 10
0.0
 20
0.0
 30
0.0
  0
INSERT
  5
16A
330
1F
100
AcDbEntity
  8
LAYER_1
100
AcDbBlockReference
  2
BLOCK_14
 10
0.0
 20
0.0
 30
0.0
  0
INSERT
  5
176
330
1F
100
AcDbEntity
  8
LAYER_1
100
AcDbBlockReference
  2
BLOCK_15
 10
0.0
 20
0.0
 30
0.0
  0
POLYLINE
  5
181
330
1F
100
AcDbEntity
  8
LAYER_1
 62
   250
100
AcDb2dPolyline
 66
     1
 10
0.0
 20
0.0
 30
0.0
  0
VERTEX
  5
182
330
181
100
AcDbEntity
  8
LAYER_1
 62
   250
100
AcDbVertex
100
AcDb2dVertex
 10
274.57958984375
 20
144.8779296875
 30
0.0
  0
VERTEX
  5
183
330
181
100
AcDbEntity
  8
LAYER_1
 62
   250
100
AcDbVertex
100
AcDb2dVertex
 10
398.95166015625
 20
144.8779296875
 30
0.0
  0
SEQEND
  5
184
330
181
100
AcDbEntity
  8
LAYER_1
  0
POLYLINE
  5
185
330
1F
100
AcDbEntity
  8
LAYER_1
 62
   250
100
AcDb2dPolyline
 66
     1
 10
0.0
 20
0.0
 30
0.0
  0
VERTEX
  5
186
330
185
100
AcDbEntity
  8
LAYER_1
 62
   250
100
AcDbVertex
100
AcDb2dVertex
 10
414.9912109375
 20
144.8779296875
 30
0.0
  0
VERTEX
  5
187
330
185
100
AcDbEntity
  8
LAYER_1
 62
   250
100
AcDbVertex
100
AcDb2dVertex
 10
538.2001953125
 20
144.8779296875
 30
0.0
  0
SEQEND
  5
188
330
185
100
AcDbEntity
  8
LAYER_1
  0
POLYLINE
  5
189
330
1F
100
AcDbEntity
  8
LAYER_1
 62
     7
100
AcDb2dPolyline
 66
     1
 10
0.0
 20
0.0
 30
0.0
  0
VERTEX
  5
18A
330
189
100
AcDbEntity
  8
LAYER_1
 62
     7
100
AcDbVertex
100
AcDb2dVertex
 10
483.388671875
 20
626.81103515625
 30
0.0
  0
VERTEX
  5
18B
330
189
100
AcDbEntity
  8
LAYER_1
 62
     7
100
AcDbVertex
100
AcDb2dVertex
 10
492.173828125
 20
626.81103515625
 30
0.0
  0
VERTEX
  5
18C
330
189
100
AcDbEntity
  8
LAYER_1
 62
     7
100
AcDbVertex
100
AcDb2dVertex
 10
492.173828125
 20
566.5048828125
 30
0.0
  0
VERTEX
  5
18D
330
189
100
AcDbEntity
  8
LAYER_1
 62
     7
100
AcDbVertex
100
AcDb2dVertex
 10
483.388671875
 20
566.5048828125
 30
0.0
  0
VERTEX
  5
18E
330
189
100
AcDbEntity
  8
LAYER_1
 62
     7
100
AcDbVertex
100
AcDb2dVertex
 10
483.388671875
 20
626.81103515625
 30
0.0
  0
SEQEND
  5
18F
330
189
100
AcDbEntity
  8
LAYER_1
  0
POLYLINE
  5
190
330
1F
100
AcDbEntity
  8
LAYER_1
 62
     7
100
AcDb2dPolyline
 66
     1
 10
0.0
 20
0.0
 30
0.0
  0
VERTEX
  5
191
330
190
100
AcDbEntity
  8
LAYER_1
 62
     7
100
AcDbVertex
100
AcDb2dVertex
 10
324.83544921875
 20
626.81103515625
 30
0.0
  0
VERTEX
  5
192
330
190
100
AcDbEntity
  8
LAYER_1
 62
     7
100
AcDbVertex
100
AcDb2dVertex
 10
333.61962890625
 20
626.81103515625
 30
0.0
  0
VERTEX
  5
193
330
190
100
AcDbEntity
  8
LAYER_1
 62
     7
100
AcDbVertex
100
AcDb2dVertex
 10
333.61962890625
 20
566.5048828125
 30
0.0
  0
VERTEX
  5
194
330
190
100
AcDbEntity
  8
LAYER_1
 62
     7
100
AcDbVertex
100
AcDb2dVertex
 10
324.83544921875
 20
566.5048828125
 30
0.0
  0
VERTEX
  5
195
330
190
100
AcDbEntity
  8
LAYER_1
 62
     7
100
AcDbVertex
100
AcDb2dVertex
 10
324.83544921875
 20
626.81103515625
 30
0.0
  0
SEQEND
  5
196
330
190
100
AcDbEntity
  8
LAYER_1
  0
SPLINE
  5
197
330
1F
100
AcDbEntity
  8
LAYER_1
100
AcDbSpline
210
0.0
220
0.0
230
1.0
 70
    11
 71
     3
 72
    17
 73
    13
 74
     0
 42
0.0000000001
 43
0.0000000001
 40
0.0
 40
0.0
 40
0.0
 40
0.0
 40
1.0
 40
1.0
 40
1.0
 40
2.0
 40
2.0
 40
2.0
 40
3.0
 40
3.0
 40
3.0
 40
4.0
 40
4.0
 40
4.0
 40
4.0
 10
447.40234375
 20
600.85595703125
 30
0.0
 10
446.876953125
 20
599.298828125
 30
0.0
 10
445.6962890625
 20
597.9619140625
 30
0.0
 10
444.095703125
 20
597.537109375
 30
0.0
 10
440.6044921875
 20
596.60888671875
 30
0.0
 10
436.69921875
 20
600.44287109375
 30
0.0
 10
438.0439453125
 20
604.0107421875
 30
0.0
 10
439.1337890625
 20
607.6669921875
 30
0.0
 10
444.56640625
 20
608.35205078125
 30
0.0
 10
446.783203125
 20
605.498046875
 30
0.0
 10
447.796875
 20
604.19091796875
 30
0.0
 10
447.92578125
 20
602.4130859375
 30
0.0
 10
447.40234375
 20
600.85595703125
 30
0.0
  0
HATCH
  5
198
330
1F
100
AcDbEntity
  8
LAYER_1
 62
   250
100
AcDbHatch
 10
0.0
 20
0.0
 30
0.0
210
0.0
220
0.0
230
1.0
  2
SOLID
 70
     1
 71
     0
 91
        1
 92
        1
 93
        2
 72
     4
 94
        3
 73
     0
 74
     0
 95
       17
 96
       13
 40
0.0
 40
0.0
 40
0.0
 40
0.0
 40
1.0
 40
1.0
 40
1.0
 40
2.0
 40
2.0
 40
2.0
 40
3.0
 40
3.0
 40
3.0
 40
4.0
 40
4.0
 40
4.0
 40
4.0
 10
447.40234375
 20
600.85595703125
 10
446.876953125
 20
599.298828125
 10
445.6962890625
 20
597.9619140625
 10
444.095703125
 20
597.537109375
 10
440.6044921875
 20
596.60888671875
 10
436.69921875
 20
600.44287109375
 10
438.0439453125
 20
604.0107421875
 10
439.1337890625
 20
607.6669921875
 10
444.56640625
 20
608.35205078125
 10
446.783203125
 20
605.498046875
 10
447.796875
 20
604.19091796875
 10
447.92578125
 20
602.4130859375
 10
447.40234375
 20
600.85595703125
 72
     1
 10
447.40234375
 20
600.85595703125
 11
447.40234375
 21
600.85595703125
 97
        0
 75
     2
 76
     1
 98
        0
  0
SPLINE
  5
199
330
1F
100
AcDbEntity
  8
LAYER_1
 62
   250
100
AcDbSpline
210
0.0
220
0.0
230
1.0
 70
    11
 71
     3
 72
    17
 73
    13
 74
     0
 42
0.0000000001
 43
0.0000000001
 40
0.0
 40
0.0
 40
0.0
 40
0.0
 40
1.0
 40
1.0
 40
1.0
 40
2.0
 40
2.0
 40
2.0
 40
3.0
 40
3.0
 40
3.0
 40
4.0
 40
4.0
 40
4.0
 40
4.0
 10
447.40234375
 20
600.85595703125
 30
0.0
 10
446.876953125
 20
599.298828125
 30
0.0
 10
445.6962890625
 20
597.9619140625
 30
0.0
 10
444.095703125
 20
597.537109375
 30
0.0
 10
440.6044921875
 20
596.60888671875
 30
0.0
 10
436.69921875
 20
600.44287109375
 30
0.0
 10
438.0439453125
 20
604.0107421875
 30
0.0
 10
439.1337890625
 20
607.6669921875
 30
0.0
 10
444.56640625
 20
608.35205078125
 30
0.0
 10
446.783203125
 20
605.498046875
 30
0.0
 10
447.796875
 20
604.19091796875
 30
0.0
 10
447.92578125
 20
602.4130859375
 30
0.0
 10
447.40234375
 20
600.85595703125
 30
0.0
  0
SPLINE
  5
19A
330
1F
100
AcDbEntity
  8
LAYER_1
100
AcDbSpline
210
0.0
220
0.0
230
1.0
 70
    11
 71
     3
 72
    20
 73
    16
 74
     0
 42
0.0000000001
 43
0.0000000001
 40
0.0
 40
0.0
 40
0.0
 40
0.0
 40
1.0
 40
1.0
 40
1.0
 40
2.0
 40
2.0
 40
2.0
 40
3.0
 40
3.0
 40
3.0
 40
4.0
 40
4.0
 40
4.0
 40
5.0
 40
5.0
 40
5.0
 40
5.0
 10
440.662109375
 20
604.75
 30
0.0
 10
441.154296875
 20
605.11962890625
 30
0.0
 10
441.8544921875
 20
605.2275390625
 30
0.0
 10
442.3798828125
 20
604.876953125
 30
0.0
 10
443.10546875
 20
604.3935546875
 30
0.0
 10
443.203125
 20
603.2958984375
 30
0.0
 10
442.6083984375
 20
602.669921875
 30
0.0
 10
442.1484375
 20
602.185546875
 30
0.0
 10
441.33984375
 20
602.08203125
 30
0.0
 10
440.771484375
 20
602.4326171875
 30
0.0
 10
440.39453125
 20
602.6669921875
 30
0.0
 10
440.1494140625
 20
603.0869140625
 30
0.0
 10
440.095703125
 20
603.52392578125
 30
0.0
 10
440.033203125
 20
604.02587890625
 30
0.0
 10
440.26171875
 20
604.44873046875
 30
0.0
 10
440.662109375
 20
604.75
 30
0.0
  0
SPLINE
  5
19B
330
1F
100
AcDbEntity
  8
LAYER_1
100
AcDbSpline
210
0.0
220
0.0
230
1.0
 70
    11
 71
     3
 72
    14
 73
    10
 74
     0
 42
0.0000000001
 43
0.0000000001
 40
0.0
 40
0.0
 40
0.0
 40
0.0
 40
1.0
 40
1.0
 40
1.0
 40
2.0
 40
2.0
 40
2.0
 40
3.0
 40
3.0
 40
3.0
 40
3.0
 10
376.73193359375
 20
598.314453125
 30
0.0
 10
373.7470703125
 20
596.17529296875
 30
0.0
 10
369.7529296875
 20
598.28662109375
 30
0.0
 10
369.1611328125
 20
601.77734375
 30
0.0
 10
368.39208984375
 20
606.302734375
 30
0.0
 10
374.72802734375
 20
608.8125
 30
0.0
 10
377.63720703125
 20
605.4375
 30
0.0
 10
379.39013671875
 20
603.4013671875
 30
0.0
 10
378.93310546875
 20
599.892578125
 30
0.0
 10
376.73193359375
 20
598.314453125
 30
0.0
  0
HATCH
  5
19C
330
1F
100
AcDbEntity
  8
LAYER_1
 62
   250
100
AcDbHatch
 10
0.0
 20
0.0
 30
0.0
210
0.0
220
0.0
230
1.0
  2
SOLID
 70
     1
 71
     0
 91
        1
 92
        1
 93
        2
 72
     4
 94
        3
 73
     0
 74
     0
 95
       14
 96
       10
 40
0.0
 40
0.0
 40
0.0
 40
0.0
 40
1.0
 40
1.0
 40
1.0
 40
2.0
 40
2.0
 40
2.0
 40
3.0
 40
3.0
 40
3.0
 40
3.0
 10
376.73193359375
 20
598.314453125
 10
373.7470703125
 20
596.17529296875
 10
369.7529296875
 20
598.28662109375
 10
369.1611328125
 20
601.77734375
 10
368.39208984375
 20
606.302734375
 10
374.72802734375
 20
608.8125
 10
377.63720703125
 20
605.4375
 10
379.39013671875
 20
603.4013671875
 10
378.93310546875
 20
599.892578125
 10
376.73193359375
 20
598.314453125
 72
     1
 10
376.73193359375
 20
598.314453125
 11
376.73193359375
 21
598.314453125
 97
        0
 75
     2
 76
     1
 98
        0
  0
SPLINE
  5
19D
330
1F
100
AcDbEntity
  8
LAYER_1
 62
   250
100
AcDbSpline
210
0.0
220
0.0
230
1.0
 70
    11
 71
     3
 72
    14
 73
    10
 74
     0
 42
0.0000000001
 43
0.0000000001
 40
0.0
 40
0.0
 40
0.0
 40
0.0
 40
1.0
 40
1.0
 40
1.0
 40
2.0
 40
2.0
 40
2.0
 40
3.0
 40
3.0
 40
3.0
 40
3.0
 10
376.73193359375
 20
598.314453125
 30
0.0
 10
373.7470703125
 20
596.17529296875
 30
0.0
 10
369.7529296875
 20
598.28662109375
 30
0.0
 10
369.1611328125
 20
601.77734375
 30
0.0
 10
368.39208984375
 20
606.302734375
 30
0.0
 10
374.72802734375
 20
608.8125
 30
0.0
 10
377.63720703125
 20
605.4375
 30
0.0
 10
379.39013671875
 20
603.4013671875
 30
0.0
 10
378.93310546875
 20
599.892578125
 30
0.0
 10
376.73193359375
 20
598.314453125
 30
0.0
  0
SPLINE
  5
19E
330
1F
100
AcDbEntity
  8
LAYER_1
100
AcDbSpline
210
0.0
220
0.0
230
1.0
 70
    11
 71
     3
 72
    14
 73
    10
 74
     0
 42
0.0000000001
 43
0.0000000001
 40
0.0
 40
0.0
 40
0.0
 40
0.0
 40
1.0
 40
1.0
 40
1.0
 40
2.0
 40
2.0
 40
2.0
 40
3.0
 40
3.0
 40
3.0
 40
3.0
 10
373.87353515625
 20
603.97802734375
 30
0.0
 10
373.6875
 20
604.64892578125
 30
0.0
 10
372.99365234375
 20
605.15625
 30
0.0
 10
372.07568359375
 20
604.904296875
 30
0.0
 10
370.2216796875
 20
604.39501953125
 30
0.0
 10
370.8564453125
 20
601.66796875
 30
0.0
 10
372.78369140625
 20
602.0390625
 30
0.0
 10
373.65966796875
 20
602.208984375
 30
0.0
 10
374.08544921875
 20
603.2138671875
 30
0.0
 10
373.87353515625
 20
603.97802734375
 30
0.0
  0
POLYLINE
  5
19F
330
1F
100
AcDbEntity
  8
LAYER_1
100
AcDb2dPolyline
 66
     1
 10
0.0
 20
0.0
 30
0.0
  0
VERTEX
  5
1A0
330
19F
100
AcDbEntity
  8
LAYER_1
100
AcDbVertex
100
AcDb2dVertex
 10
-13.435546875
 20
841.89013671875
 30
0.0
  0
VERTEX
  5
1A1
330
19F
100
AcDbEntity
  8
LAYER_1
100
AcDbVertex
100
AcDb2dVertex
 10
829.7373046875
 20
841.89013671875
 30
0.0
  0
VERTEX
  5
1A2
330
19F
100
AcDbEntity
  8
LAYER_1
100
AcDbVertex
100
AcDb2dVertex
 10
829.7373046875
 20
0.0
 30
0.0
  0
VERTEX
  5
1A3
330
19F
100
AcDbEntity
  8
LAYER_1
100
AcDbVertex
100
AcDb2dVertex
 10
-13.435546875
 20
0.0
 30
0.0
  0
VERTEX
  5
1A4
330
19F
100
AcDbEntity
  8
LAYER_1
100
AcDbVertex
100
AcDb2dVertex
 10
-13.435546875
 20
841.89013671875
 30
0.0
  0
SEQEND
  5
1A5
330
19F
100
AcDbEntity
  8
LAYER_1
  0
ENDSEC
  0
SECTION
  2
OBJECTS
  0
DICTIONARY
  5
C
330
0
100
AcDbDictionary
  3
ACAD_GROUP
350
D
  3
ACAD_LAYOUT
350
1A
  3
ACAD_MLINESTYLE
350
17
  3
ACAD_PLOTSETTINGS
350
19
  3
ACAD_TABLESTYLE
350
1C6
  3
ACAD_VISUALSTYLE
350
2A
  3
ACDBHEADERROUNDTRIPXREC
350
1A6
  0
DICTIONARY
  5
D
102
{ACAD_REACTORS
330
C
102
}
330
C
100
AcDbDictionary
  0
DICTIONARY
  5
1A
102
{ACAD_REACTORS
330
C
102
}
330
C
100
AcDbDictionary
  0
DICTIONARY
  5
17
102
{ACAD_REACTORS
330
C
102
}
330
C
100
AcDbDictionary
  3
STANDARD
350
18
  0
DICTIONARY
  5
19
102
{ACAD_REACTORS
330
C
102
}
330
C
100
AcDbDictionary
  0
DICTIONARY
  5
1C6
102
{ACAD_REACTORS
330
C
102
}
330
C
100
AcDbDictionary
  0
DICTIONARY
  5
2A
102
{ACAD_REACTORS
330
C
102
}
330
C
100
AcDbDictionary
  3
2DWIREFRAME
350
2F
  3
3DWIREFRAME
350
30
  3
3D_HIDDEN
350
31
  3
BASIC
350
32
  3
BRIGHTEN
350
36
  3
COLORCHANGE
350
3A
  3
CONCEPTUAL
350
34
  3
DIM
350
35
  3
FACEPATTERN
350
39
  3
FLAT
350
2B
  3
FLATWITHEDGES
350
2C
  3
GOURAUD
350
2D
  3
GOURAUDWITHEDGES
350
2E
  3
LINEPATTERN
350
38
  3
REALISTIC
350
33
  3
THICKEN
350
37
  0
DICTIONARY
  5
1A6
102
{ACAD_REACTORS
330
C
102
}
330
C
100
AcDbDictionary
  3
CEPSNTYPE
350
1AF
  3
DIMSTYLEDATA
350
1C5
  3
FINGERPRINTGUID
350
1B0
  3
HYPERLINKBASE
350
1A9
  3
INSUNITS
350
1AE
  3
LAYOUTDICT
350
1AB
  3
LWETCUNION
350
1AD
  3
PLOTSETDICT
350
1AC
  3
PSVPSCALE
350
1B2
  3
PUCSBASE
350
1B5
  3
PUCSORGBACK
350
1BB
  3
PUCSORGBOTTOM
350
1B7
  3
PUCSORGFRONT
350
1BA
  3
PUCSORGLEFT
350
1B8
  3
PUCSORGRIGHT
350
1B9
  3
PUCSORGTOP
350
1B6
  3
PUCSORTHOREF
350
1B3
  3
PUCSORTHOVIEW
350
1B4
  3
STYLESHEET
350
1AA
  3
TSTACKALIGN
350
1A7
  3
TSTACKSIZE
350
1A8
  3
UCSBASE
350
1BE
  3
UCSORGBACK
350
1C4
  3
UCSORGBOTTOM
350
1C0
  3
UCSORGFRONT
350
1C3
  3
UCSORGLEFT
350
1C1
  3
UCSORGRIGHT
350
1C2
  3
UCSORGTOP
350
1BF
  3
UCSORTHOREF
350
1BC
  3
UCSORTHOVIEW
350
1BD
  3
VERSIONGUID
350
1B1
  0
MLINESTYLE
  5
18
102
{ACAD_REACTORS
330
17
102
}
330
17
100
AcDbMlineStyle
  2
Standard
 70
     0
  3

 62
   256
 51
90.0
 52
90.0
 71
     2
 49
0.5
 62
   256
  6
BYLAYER
 49
-0.5
 62
   256
  6
BYLAYER
  0
VISUALSTYLE
  5
2F
102
{ACAD_REACTORS
330
2A
102
}
330
2A
100
AcDbVisualStyle
  2
2dWireframe
 70
     4
 71
     0
 72
     2
 73
     0
 90
        0
 40
-0.6
 41
-30.0
 62
     5
 63
     7
 74
     1
 91
        4
 64
     7
 65
   257
 75
     1
175
     1
 42
1.0
 92
        0
 66
   257
 43
1.0
 76
     1
 77
     6
 78
     2
 67
     7
 79
     5
170
     0
171
     0
290
     0
174
     0
 93
        1
 44
0.0
173
     0
291
     0
 45
0.0
1001
ACAD
1000
AcDbSavedByObjectVersion
1070
     0
  0
VISUALSTYLE
  5
30
102
{ACAD_REACTORS
330
2A
102
}
330
2A
100
AcDbVisualStyle
  2
3dWireframe
 70
     5
 71
     0
 72
     2
 73
     0
 90
        0
 40
-0.6
 41
-30.0
 62
     5
 63
     7
 74
     1
 91
        4
 64
     7
 65
   257
 75
     1
175
     1
 42
1.0
 92
        0
 66
   257
 43
1.0
 76
     1
 77
     6
 78
     2
 67
     7
 79
     5
170
     0
171
     0
290
     0
174
     0
 93
        1
 44
0.0
173
     0
291
     0
 45
0.0
1001
ACAD
1000
AcDbSavedByObjectVersion
1070
     0
  0
VISUALSTYLE
  5
31
102
{ACAD_REACTORS
330
2A
102
}
330
2A
100
AcDbVisualStyle
  2
3D Hidden
 70
     6
 71
     1
 72
     2
 73
     2
 90
        0
 40
-0.6
 41
-30.0
 62
     5
 63
     7
 74
     2
 91
        2
 64
     7
 65
   257
 75
     2
175
     1
 42
40.0
 92
        0
 66
   257
 43
1.0
 76
     1
 77
     6
 78
     2
 67
     7
 79
     3
170
     0
171
     0
290
     0
174
     0
 93
        1
 44
0.0
173
     0
291
     0
 45
0.0
1001
ACAD
1000
AcDbSavedByObjectVersion
1070
     0
  0
VISUALSTYLE
  5
32
102
{ACAD_REACTORS
330
2A
102
}
330
2A
100
AcDbVisualStyle
  2
Basic
 70
     7
 71
     1
 72
     0
 73
     1
 90
        0
 40
-0.6
 41
-30.0
 62
     5
 63
     7
 74
     0
 91
        4
 64
     7
 65
   257
 75
     1
175
     1
 42
1.0
 92
        8
 66
     7
 43
1.0
 76
     1
 77
     6
 78
     2
 67
     7
 79
     5
170
     0
171
     0
290
     0
174
     0
 93
        1
 44
0.0
173
     0
291
     1
 45
0.0
1001
ACAD
1000
AcDbSavedByObjectVersion
1070
     0
  0
VISUALSTYLE
  5
36
102
{ACAD_REACTORS
330
2A
102
}
330
2A
100
AcDbVisualStyle
  2
Brighten
 70
    12
 71
     2
 72
     2
 73
     0
 90
        0
 40
-0.6
 41
-30.0
 62
     5
 63
     7
 74
     1
 91
        4
 64
     7
 65
   257
 75
     1
175
     1
 42
1.0
 92
        8
 66
     7
 43
1.0
 76
     1
 77
     6
 78
     2
 67
     7
 79
     5
170
     0
171
     0
290
     0
174
     0
 93
        1
 44
50.0
173
     0
291
     1
 45
0.0
1001
ACAD
1000
AcDbSavedByObjectVersion
1070
     0
  0
VISUALSTYLE
  5
3A
102
{ACAD_REACTORS
330
2A
102
}
330
2A
100
AcDbVisualStyle
  2
ColorChange
 70
    16
 71
     2
 72
     2
 73
     3
 90
        0
 40
-0.6
 41
-30.0
 62
     5
 63
     8
 74
     1
 91
        4
 64
     7
 65
   257
 75
     1
175
     1
 42
1.0
 92
        8
 66
     8
 43
1.0
 76
     1
 77
     6
 78
     2
 67
     7
 79
     5
170
     0
171
     0
290
     0
174
     0
 93
        1
 44
0.0
173
     0
291
     1
 45
0.0
1001
ACAD
1000
AcDbSavedByObjectVersion
1070
     0
  0
VISUALSTYLE
  5
34
102
{ACAD_REACTORS
330
2A
102
}
330
2A
100
AcDbVisualStyle
  2
Conceptual
 70
     9
 71
     3
 72
     2
 73
     0
 90
        0
 40
-0.6
 41
-30.0
 62
     5
 63
     7
 74
     2
 91
        2
 64
     7
 65
   257
 75
     1
175
     1
 42
40.0
 92
        8
 66
     7
 43
1.0
 76
     1
 77
     6
 78
     2
 67
     7
 79
     3
170
     0
171
     0
290
     0
174
     0
 93
        1
 44
0.0
173
     0
291
     0
 45
0.0
1001
ACAD
1000
AcDbSavedByObjectVersion
1070
     0
  0
VISUALSTYLE
  5
35
102
{ACAD_REACTORS
330
2A
102
}
330
2A
100
AcDbVisualStyle
  2
Dim
 70
    11
 71
     2
 72
     2
 73
     0
 90
        0
 40
-0.6
 41
-30.0
 62
     5
 63
     7
 74
     1
 91
        4
 64
     7
 65
   257
 75
     1
175
     1
 42
1.0
 92
        8
 66
     7
 43
1.0
 76
     1
 77
     6
 78
     2
 67
     7
 79
     5
170
     0
171
     0
290
     0
174
     0
 93
        1
 44
-50.0
173
     0
291
     1
 45
0.0
1001
ACAD
1000
AcDbSavedByObjectVersion
1070
     0
  0
VISUALSTYLE
  5
39
102
{ACAD_REACTORS
330
2A
102
}
330
2A
100
AcDbVisualStyle
  2
Facepattern
 70
    15
 71
     2
 72
     2
 73
     0
 90
        0
 40
-0.6
 41
-30.0
 62
     5
 63
     7
 74
     1
 91
        4
 64
     7
 65
   257
 75
     1
175
     1
 42
1.0
 92
        8
 66
     7
 43
1.0
 76
     1
 77
     6
 78
     2
 67
     7
 79
     5
170
     0
171
     0
290
     0
174
     0
 93
        1
 44
0.0
173
     0
291
     1
 45
0.0
1001
ACAD
1000
AcDbSavedByObjectVersion
1070
     0
  0
VISUALSTYLE
  5
2B
102
{ACAD_REACTORS
330
2A
102
}
330
2A
100
AcDbVisualStyle
  2
Flat
 70
     0
 71
     2
 72
     1
 73
     1
 90
        2
 40
-0.6
 41
30.0
 62
     5
 63
     7
 74
     0
 91
        4
 64
     7
 65
   257
 75
     1
175
     1
 42
1.0
 92
        8
 66
     7
 43
1.0
 76
     1
 77
     6
 78
     2
 67
     7
 79
     5
170
     0
171
     0
290
     0
174
     0
 93
       13
 44
0.0
173
     0
291
     1
 45
0.0
1001
ACAD
1000
AcDbSavedByObjectVersion
1070
     0
  0
VISUALSTYLE
  5
2C
102
{ACAD_REACTORS
330
2A
102
}
330
2A
100
AcDbVisualStyle
  2
FlatWithEdges
 70
     1
 71
     2
 72
     1
 73
     1
 90
        2
 40
-0.6
 41
30.0
 62
     5
 63
     7
 74
     1
 91
        4
 64
     7
 65
   257
 75
     1
175
     1
 42
1.0
 92
        0
 66
   257
 43
1.0
 76
     1
 77
     6
 78
     2
 67
     7
 79
     5
170
     0
171
     0
290
     0
174
     0
 93
       13
 44
0.0
173
     0
291
     1
 45
0.0
1001
ACAD
1000
AcDbSavedByObjectVersion
1070
     0
  0
VISUALSTYLE
  5
2D
102
{ACAD_REACTORS
330
2A
102
}
330
2A
100
AcDbVisualStyle
  2
Gouraud
 70
     2
 71
     2
 72
     2
 73
     1
 90
        2
 40
-0.6
 41
30.0
 62
     5
 63
     7
 74
     0
 91
        4
 64
     7
 65
   257
 75
     1
175
     1
 42
1.0
 92
        0
 66
     7
 43
1.0
 76
     1
 77
     6
 78
     2
 67
     7
 79
     5
170
     0
171
     0
290
     0
174
     0
 93
       13
 44
0.0
173
     0
291
     1
 45
0.0
1001
ACAD
1000
AcDbSavedByObjectVersion
1070
     0
  0
VISUALSTYLE
  5
2E
102
{ACAD_REACTORS
330
2A
102
}
330
2A
100
AcDbVisualStyle
  2
GouraudWithEdges
 70
     3
 71
     2
 72
     2
 73
     1
 90
        2
 40
-0.6
 41
30.0
 62
     5
 63
     7
 74
     1
 91
        4
 64
     7
 65
   257
 75
     1
175
     1
 42
1.0
 92
        0
 66
   257
 43
1.0
 76
     1
 77
     6
 78
     2
 67
     7
 79
     5
170
     0
171
     0
290
     0
174
     0
 93
       13
 44
0.0
173
     0
291
     1
 45
0.0
1001
ACAD
1000
AcDbSavedByObjectVersion
1070
     0
  0
VISUALSTYLE
  5
38
102
{ACAD_REACTORS
330
2A
102
}
330
2A
100
AcDbVisualStyle
  2
Linepattern
 70
    14
 71
     2
 72
     2
 73
     0
 90
        0
 40
-0.6
 41
-30.0
 62
     5
 63
     7
 74
     1
 91
        4
 64
     7
 65
   257
 75
     7
175
     7
 42
1.0
 92
        8
 66
     7
 43
1.0
 76
     1
 77
     6
 78
     2
 67
     7
 79
     5
170
     0
171
     0
290
     0
174
     0
 93
        1
 44
0.0
173
     0
291
     1
 45
0.0
1001
ACAD
1000
AcDbSavedByObjectVersion
1070
     0
  0
VISUALSTYLE
  5
33
102
{ACAD_REACTORS
330
2A
102
}
330
2A
100
AcDbVisualStyle
  2
Realistic
 70
     8
 71
     2
 72
     2
 73
     0
 90
        0
 40
-0.6
 41
-30.0
 62
     5
 63
     7
 74
     1
 91
        0
 64
     7
 65
   257
 75
     1
175
     1
 42
1.0
 92
        8
 66
     8
 43
1.0
 76
     1
 77
     6
 78
     2
 67
     7
 79
     5
170
     0
171
     0
290
     0
174
     0
 93
       13
 44
0.0
173
     0
291
     0
 45
0.0
1001
ACAD
1000
AcDbSavedByObjectVersion
1070
     0
  0
VISUALSTYLE
  5
37
102
{ACAD_REACTORS
330
2A
102
}
330
2A
100
AcDbVisualStyle
  2
Thicken
 70
    13
 71
     2
 72
     2
 73
     0
 90
        0
 40
-0.6
 41
-30.0
 62
     5
 63
     7
 74
     1
 91
        4
 64
     7
 65
   257
 75
     1
175
     1
 42
1.0
 92
       12
 66
     7
 43
1.0
 76
     1
 77
     6
 78
     2
 67
     7
 79
     5
170
     0
171
     0
290
     0
174
     0
 93
        1
 44
0.0
173
     0
291
     1
 45
0.0
1001
ACAD
1000
AcDbSavedByObjectVersion
1070
     0
  0
XRECORD
  5
1AF
102
{ACAD_REACTORS
330
1A6
102
}
330
1A6
100
AcDbXrecord
 90
        0
  0
XRECORD
  5
1C5
102
{ACAD_REACTORS
330
1A6
102
}
330
1A6
100
AcDbXrecord
1000
DSTYLE
1002
{
1070
   340
340
11
1002
}
  0
XRECORD
  5
1B0
102
{ACAD_REACTORS
330
1A6
102
}
330
1A6
100
AcDbXrecord
  1
{A75D473F-C09B-954B-E071-DCACDA288473}
  0
XRECORD
  5
1A9
102
{ACAD_REACTORS
330
1A6
102
}
330
1A6
100
AcDbXrecord
  1

  0
XRECORD
  5
1AE
102
{ACAD_REACTORS
330
1A6
102
}
330
1A6
100
AcDbXrecord
 90
        1
  0
XRECORD
  5
1AB
102
{ACAD_REACTORS
330
1A6
102
}
330
1A6
100
AcDbXrecord
340
1A
  0
XRECORD
  5
1AD
102
{ACAD_REACTORS
330
1A6
102
}
330
1A6
100
AcDbXrecord
 90
    10269
  0
XRECORD
  5
1AC
102
{ACAD_REACTORS
330
1A6
102
}
330
1A6
100
AcDbXrecord
340
19
  0
XRECORD
  5
1B2
102
{ACAD_REACTORS
330
1A6
102
}
330
1A6
100
AcDbXrecord
 40
0.0
  0
XRECORD
  5
1B5
102
{ACAD_REACTORS
330
1A6
102
}
330
1A6
100
AcDbXrecord
340
0
  0
XRECORD
  5
1BB
102
{ACAD_REACTORS
330
1A6
102
}
330
1A6
100
AcDbXrecord
 10
0.0
 20
0.0
 30
0.0
  0
XRECORD
  5
1B7
102
{ACAD_REACTORS
330
1A6
102
}
330
1A6
100
AcDbXrecord
 10
0.0
 20
0.0
 30
0.0
  0
XRECORD
  5
1BA
102
{ACAD_REACTORS
330
1A6
102
}
330
1A6
100
AcDbXrecord
 10
0.0
 20
0.0
 30
0.0
  0
XRECORD
  5
1B8
102
{ACAD_REACTORS
330
1A6
102
}
330
1A6
100
AcDbXrecord
 10
0.0
 20
0.0
 30
0.0
  0
XRECORD
  5
1B9
102
{ACAD_REACTORS
330
1A6
102
}
330
1A6
100
AcDbXrecord
 10
0.0
 20
0.0
 30
0.0
  0
XRECORD
  5
1B6
102
{ACAD_REACTORS
330
1A6
102
}
330
1A6
100
AcDbXrecord
 10
0.0
 20
0.0
 30
0.0
  0
XRECORD
  5
1B3
102
{ACAD_REACTORS
330
1A6
102
}
330
1A6
100
AcDbXrecord
340
0
  0
XRECORD
  5
1B4
102
{ACAD_REACTORS
330
1A6
102
}
330
1A6
100
AcDbXrecord
 70
     0
  0
XRECORD
  5
1AA
102
{ACAD_REACTORS
330
1A6
102
}
330
1A6
100
AcDbXrecord
  1

  0
XRECORD
  5
1A7
102
{ACAD_REACTORS
330
1A6
102
}
330
1A6
100
AcDbXrecord
 90
        1
  0
XRECORD
  5
1A8
102
{ACAD_REACTORS
330
1A6
102
}
330
1A6
100
AcDbXrecord
 90
       70
  0
XRECORD
  5
1BE
102
{ACAD_REACTORS
330
1A6
102
}
330
1A6
100
AcDbXrecord
340
0
  0
XRECORD
  5
1C4
102
{ACAD_REACTORS
330
1A6
102
}
330
1A6
100
AcDbXrecord
 10
0.0
 20
0.0
 30
0.0
  0
XRECORD
  5
1C0
102
{ACAD_REACTORS
330
1A6
102
}
330
1A6
100
AcDbXrecord
 10
0.0
 20
0.0
 30
0.0
  0
XRECORD
  5
1C3
102
{ACAD_REACTORS
330
1A6
102
}
330
1A6
100
AcDbXrecord
 10
0.0
 20
0.0
 30
0.0
  0
XRECORD
  5
1C1
102
{ACAD_REACTORS
330
1A6
102
}
330
1A6
100
AcDbXrecord
 10
0.0
 20
0.0
 30
0.0
  0
XRECORD
  5
1C2
102
{ACAD_REACTORS
330
1A6
102
}
330
1A6
100
AcDbXrecord
 10
0.0
 20
0.0
 30
0.0
  0
XRECORD
  5
1BF
102
{ACAD_REACTORS
330
1A6
102
}
330
1A6
100
AcDbXrecord
 10
0.0
 20
0.0
 30
0.0
  0
XRECORD
  5
1BC
102
{ACAD_REACTORS
330
1A6
102
}
330
1A6
100
AcDbXrecord
340
0
  0
XRECORD
  5
1BD
102
{ACAD_REACTORS
330
1A6
102
}
330
1A6
100
AcDbXrecord
 70
     0
  0
XRECORD
  5
1B1
102
{ACAD_REACTORS
330
1A6
102
}
330
1A6
100
AcDbXrecord
  1
{FAEB1C32-E019-11D5-929B-00C0DF256EC4}
  0
ENDSEC
  0
EOF
