<?xml version="1.0" encoding="utf-8"?>
<!-- Generator: Adobe Illustrator 15.1.0, SVG Export Plug-In . SVG Version: 6.00 Build 0)  -->
<!DOCTYPE svg PUBLIC "-//W3C//DTD SVG 1.1//EN" "http://www.w3.org/Graphics/SVG/1.1/DTD/svg11.dtd">
<svg version="1.1" id="Layer_1" xmlns="http://www.w3.org/2000/svg" xmlns:xlink="http://www.w3.org/1999/xlink" x="0px" y="0px"
	 width="878.582px" height="841.89px" viewBox="0 0 878.582 841.89" enable-background="new 0 0 878.582 841.89"
	 xml:space="preserve">
<path d="M407.66,213.692c-2.069,1.482-4.836,0.019-5.246-2.399c-0.533-3.136,3.858-4.875,5.873-2.536
	C409.502,210.167,409.185,212.598,407.66,213.692"/>
<path fill="none" stroke="#000000" stroke-miterlimit="10" d="M407.66,213.692c-2.069,1.482-4.836,0.019-5.246-2.399
	c-0.533-3.136,3.858-4.875,5.873-2.536C409.502,210.167,409.185,212.598,407.66,213.692z"/>
<path fill="#FFFFFF" d="M405.683,209.802c-0.012-0.047-0.013-0.094-0.033-0.141c-0.195-0.453-0.752-0.663-1.217-0.535
	c-0.579,0.159-0.89,0.78-0.757,1.349c0.131,0.559,0.589,0.848,1.098,1.03c0.462,0.166,1.005-0.149,1.178-0.578
	C406.113,210.526,406.001,210.084,405.683,209.802"/>
<path d="M456.614,211.891c-0.364,1.079-1.181,2.005-2.29,2.3c-2.42,0.643-5.126-2.014-4.194-4.486
	c0.757-2.533,4.52-3.008,6.056-1.031C456.89,209.58,456.979,210.812,456.614,211.891"/>
<path fill="none" stroke="#000000" stroke-miterlimit="10" d="M456.614,211.891c-0.364,1.079-1.181,2.005-2.29,2.3
	c-2.42,0.643-5.126-2.014-4.194-4.486c0.757-2.533,4.52-3.008,6.056-1.031C456.89,209.58,456.979,210.812,456.614,211.891z"/>
<path fill="#FFFFFF" d="M452.68,208.932c-0.55-0.027-0.934,0.316-1.114,0.805c-0.1,0.267,0.002,0.58,0.199,0.802
	c0.144,0.225,0.402,0.388,0.658,0.387c0.346-0.002,0.595-0.162,0.788-0.39c0.003-0.004,0.007-0.006,0.009-0.011
	c0.12-0.144,0.222-0.308,0.298-0.493C453.742,209.479,453.183,208.957,452.68,208.932"/>
<circle fill="none" stroke="#010101" stroke-width="1.5" stroke-linecap="round" stroke-linejoin="round" stroke-miterlimit="22.926" cx="404.774" cy="209.427" r="20.852"/>
<circle fill="none" stroke="#010101" stroke-width="1.5" stroke-linecap="round" stroke-linejoin="round" stroke-miterlimit="22.926" cx="453.383" cy="209.427" r="20.852"/>
<path fill="none" stroke="#010101" stroke-width="1.5" stroke-linecap="round" stroke-linejoin="round" stroke-miterlimit="22.926" d="
	M438.209,230.337L438.209,230.337c0,4.822-3.909,8.731-8.731,8.731h0.016c-4.822,0-8.731-3.909-8.731-8.731"/>
<path fill="#FFFFFF" d="M463.568,112.16v15.026c-2.218,2.747-15.802,16.487-36.258,17.082c-12.157,0.354-30.231-5.187-36.442-17.125
	c0,0-0.572-10.006-0.944-13.462"/>
<path fill="none" stroke="#000000" stroke-width="1.5" stroke-linecap="round" stroke-linejoin="round" stroke-miterlimit="22.926" d="
	M463.568,112.16v15.026c-2.218,2.747-15.802,16.487-36.258,17.082c-12.157,0.354-30.231-5.187-36.442-17.125
	c0,0-0.572-10.006-0.944-13.462"/>
<path fill="none" stroke="#010101" stroke-width="1.5" stroke-linecap="round" stroke-linejoin="round" stroke-miterlimit="22.926" d="
	M609.158,505.091h-1.139c-0.747,1.291-1.823,2.367-3.113,3.114v1.138h-4.253h-4.252v-1.138c-1.291-0.747-2.366-1.823-3.113-3.114
	h-1.139v-4.252v-4.252h1.139c0.747-1.291,1.822-2.367,3.113-3.114v-1.138h4.252h4.253v1.138c1.29,0.747,2.366,1.823,3.113,3.114
	h1.139v4.252V505.091z"/>
<rect x="596.402" y="463.988" fill="none" stroke="#010101" stroke-width="1.5" stroke-linecap="round" stroke-linejoin="round" stroke-miterlimit="22.926" width="8.504" height="17.009"/>
<path fill="none" stroke="#010101" stroke-width="1.5" stroke-linecap="round" stroke-linejoin="round" stroke-miterlimit="22.926" d="
	M609.158,448.398h-1.139c-0.747,1.291-1.823,2.366-3.113,3.113v1.139h-4.253h-4.252v-1.139c-1.291-0.747-2.366-1.822-3.113-3.113
	h-1.139v-4.252v-4.253h1.139c0.747-1.29,1.822-2.366,3.113-3.113v-1.139h4.252h4.253v1.139c1.29,0.747,2.366,1.823,3.113,3.113
	h1.139v4.253V448.398z"/>
<path fill="none" stroke="#000000" stroke-width="1.5" stroke-linecap="round" stroke-linejoin="round" stroke-miterlimit="22.926" d="
	M653.184,488.573h-34.101v30.689h-22.68c-7.83,0-14.17-6.35-14.17-14.17v-65.89c0-7.83,6.34-14.18,14.17-14.18h22.68v26.699h34.101"
	/>
<path fill="none" stroke="#010101" stroke-width="1.5" stroke-linecap="round" stroke-linejoin="round" stroke-miterlimit="22.926" d="
	M361.569,336.841h1.138c0.747-1.291,1.823-2.367,3.114-3.114v-1.138h4.252h4.252v1.138c1.291,0.747,2.367,1.823,3.114,3.114h1.138
	v4.252v4.252h-1.138c-0.747,1.291-1.823,2.367-3.114,3.114v1.138h-4.252h-4.252v-1.138c-1.291-0.747-2.367-1.823-3.114-3.114h-1.138
	v-4.252V336.841z"/>
<rect x="389.916" y="336.842" fill="none" stroke="#010101" stroke-width="1.5" stroke-linecap="round" stroke-linejoin="round" stroke-miterlimit="22.926" width="17.008" height="8.504"/>
<rect x="446.609" y="336.842" fill="none" stroke="#010101" stroke-width="1.5" stroke-linecap="round" stroke-linejoin="round" stroke-miterlimit="22.926" width="17.008" height="8.504"/>
<path fill="none" stroke="#010101" stroke-width="1.5" stroke-linecap="round" stroke-linejoin="round" stroke-miterlimit="22.926" d="
	M474.955,336.841h1.139c0.746-1.291,1.822-2.367,3.113-3.114v-1.138h4.252h4.252v1.138c1.29,0.747,2.367,1.823,3.114,3.114h1.138
	v4.252v4.252h-1.138c-0.747,1.291-1.824,2.367-3.114,3.114v1.138h-4.252h-4.252v-1.138c-1.291-0.747-2.367-1.823-3.113-3.114h-1.139
	v-4.252V336.841z"/>
<path fill="none" stroke="#010101" stroke-width="1.5" stroke-linecap="round" stroke-linejoin="round" stroke-miterlimit="22.926" d="
	M445.191,306.695v15.973h56.693v22.677c0,7.826-6.348,14.173-14.173,14.173H365.821c-7.826,0-14.173-6.347-14.173-14.173v-22.677
	h56.693v-15.973"/>
<path fill="none" stroke="#010101" stroke-width="1.5" stroke-linecap="round" stroke-linejoin="round" stroke-miterlimit="22.926" d="
	M418.262,336.841h1.138c0.747-1.291,1.823-2.367,3.114-3.114v-1.138h4.252h4.252v1.138c1.291,0.747,2.367,1.823,3.114,3.114h1.138
	v4.252v4.252h-1.138c-0.747,1.291-1.823,2.367-3.114,3.114v1.138h-4.252h-4.252v-1.138c-1.291-0.747-2.367-1.823-3.114-3.114h-1.138
	v-4.252V336.841z"/>
<path fill="none" stroke="#010101" stroke-width="1.5" stroke-linecap="round" stroke-linejoin="round" stroke-miterlimit="22.926" d="
	M500.118,620.296h-1.139c-0.747,1.291-1.822,2.367-3.113,3.114v1.138h-4.253h-4.252v-1.138c-1.289-0.747-2.366-1.823-3.113-3.114
	h-1.139v-4.252v-4.252h1.139c0.747-1.29,1.824-2.367,3.113-3.114v-1.138h4.252h4.253v1.138c1.291,0.747,2.366,1.824,3.113,3.114
	h1.139v4.252V620.296z"/>
<rect x="454.763" y="611.792" fill="none" stroke="#010101" stroke-width="1.5" stroke-linecap="round" stroke-linejoin="round" stroke-miterlimit="22.926" width="17.009" height="8.504"/>
<rect x="398.071" y="611.792" fill="none" stroke="#010101" stroke-width="1.5" stroke-linecap="round" stroke-linejoin="round" stroke-miterlimit="22.926" width="17.008" height="8.504"/>
<path fill="none" stroke="#010101" stroke-width="1.5" stroke-linecap="round" stroke-linejoin="round" stroke-miterlimit="22.926" d="
	M386.732,620.296h-1.138c-0.747,1.291-1.823,2.367-3.114,3.114v1.138h-4.252h-4.252v-1.138c-1.29-0.747-2.367-1.823-3.114-3.114
	h-1.138v-4.252v-4.252h1.138c0.747-1.29,1.824-2.367,3.114-3.114v-1.138h4.252h4.252v1.138c1.291,0.747,2.367,1.824,3.114,3.114
	h1.138v4.252V620.296z"/>
<path fill="none" stroke="#010101" stroke-width="1.5" stroke-linecap="round" stroke-linejoin="round" stroke-miterlimit="22.926" d="
	M443.425,620.296h-1.138c-0.747,1.291-1.823,2.367-3.114,3.114v1.138h-4.252h-4.252v-1.138c-1.29-0.747-2.367-1.823-3.114-3.114
	h-1.138v-4.252v-4.252h1.138c0.747-1.29,1.824-2.367,3.114-3.114v-1.138h4.252h4.252v1.138c1.291,0.747,2.367,1.824,3.114,3.114
	h1.138v4.252V620.296z"/>
<path fill="none" stroke="#231F20" stroke-width="1.5" stroke-linecap="round" stroke-linejoin="round" stroke-miterlimit="22.926" d="
	M362.302,603.756c-1.572,2.284-2.492,5.052-2.492,8.035v22.67h16.69v15.015h36.85v-15.015h44.14v15.015h36.64v-15.015h15.91v-22.67
	c0-7.83-6.34-14.18-14.17-14.18H373.98C369.133,597.611,364.857,600.044,362.302,603.756z"/>
<path fill="none" stroke="#010101" stroke-width="1.5" stroke-linecap="round" stroke-linejoin="round" stroke-miterlimit="22.926" d="
	M255.258,515.091h1.138c0.747,1.291,1.823,2.367,3.114,3.114v1.138h4.252h4.252v-1.138c1.291-0.747,2.367-1.823,3.114-3.114h1.138
	v-4.252v-4.252h-1.138c-0.747-1.291-1.823-2.367-3.114-3.114v-1.138h-4.252h-4.252v1.138c-1.291,0.747-2.367,1.823-3.114,3.114
	h-1.138v4.252V515.091z"/>
<rect x="259.51" y="473.988" fill="none" stroke="#010101" stroke-width="1.5" stroke-linecap="round" stroke-linejoin="round" stroke-miterlimit="22.926" width="8.504" height="17.009"/>
<path fill="none" stroke="#010101" stroke-width="1.5" stroke-linecap="round" stroke-linejoin="round" stroke-miterlimit="22.926" d="
	M255.258,458.398h1.138c0.747,1.291,1.823,2.366,3.114,3.113v1.139h4.252h4.252v-1.139c1.291-0.747,2.367-1.822,3.114-3.113h1.138
	v-4.252v-4.253h-1.138c-0.747-1.29-1.823-2.366-3.114-3.113v-1.139h-4.252h-4.252v1.139c-1.291,0.747-2.367,1.823-3.114,3.113
	h-1.138v4.253V458.398z"/>
<path fill="none" stroke="#000000" stroke-width="1.5" stroke-linecap="round" stroke-linejoin="round" stroke-miterlimit="22.926" d="
	M191.233,498.573h54.1v30.689h22.68c7.83,0,14.17-6.35,14.17-14.17v-65.89c0-7.83-6.34-14.18-14.17-14.18h-22.68v26.699h-54.1"/>
<path fill="none" stroke="#000000" stroke-width="1.5" stroke-linecap="round" stroke-linejoin="round" stroke-miterlimit="22.926" d="
	M466.95,210.099c0,20.6-16.71,37.31-37.32,37.31c-20.6,0-37.31-16.71-37.31-37.31c0-20.61,16.71-37.32,37.31-37.32
	C450.24,172.779,466.95,189.489,466.95,210.099z"/>
<path fill="#FFFFFF" d="M501.544,283.882c1.496,0.716,2.671,1.668,2.95,2.951c0.28,1.282-0.515,2.057,0,2.952
	c0.68,1.177,2.473,0.564,3.489,1.61c0.639,0.658,1.107,2.112-0.234,5.772c-18.52,10.888-46.997,13.776-81.871,14.351
	c-35.073,0.579-62.707-3.756-82.641-11.805c-1.39-3.782-1.023-5.42-0.268-6.172c0.957-0.953,2.511-0.451,3.219-1.61
	c0.607-0.991-0.206-1.891,0-3.488c0.144-1.112,0.79-2.627,3.08-4.264c20.076,4.144,45.518,7.622,75,7.484
	c30.313-0.142,56.355-4.068,76.738-8.586"/>
<path fill="none" stroke="#000000" stroke-width="1.5" stroke-linecap="round" stroke-linejoin="round" stroke-miterlimit="22.926" d="
	M501.544,283.882c1.496,0.716,2.671,1.668,2.95,2.951c0.28,1.282-0.515,2.057,0,2.952c0.68,1.177,2.473,0.564,3.489,1.61
	c0.639,0.658,1.107,2.112-0.234,5.772c-18.52,10.888-46.997,13.776-81.871,14.351c-35.073,0.579-62.707-3.756-82.641-11.805
	c-1.39-3.782-1.023-5.42-0.268-6.172c0.957-0.953,2.511-0.451,3.219-1.61c0.607-0.991-0.206-1.891,0-3.488
	c0.144-1.112,0.79-2.627,3.08-4.264c20.076,4.144,45.518,7.622,75,7.484c30.313-0.142,56.355-4.068,76.738-8.586"/>
<path fill="none" stroke="#000000" stroke-width="1.5" stroke-linecap="round" stroke-linejoin="round" stroke-miterlimit="22.926" d="
	M344.579,293.273c19.855,9.258,46.745,12.837,78.616,12.611c33.239-0.236,69.226-5.098,82.374-14.489"/>
<path fill="none" stroke="#000000" stroke-width="1.5" stroke-linecap="round" stroke-linejoin="round" stroke-miterlimit="22.926" d="
	M346.726,290.322c22.27,6.708,48.095,9.994,81.299,9.391c30.92-0.561,59.298-3.22,76.202-11.001"/>
<path fill="none" stroke="#000000" stroke-width="1.5" stroke-linecap="round" stroke-linejoin="round" stroke-miterlimit="22.926" d="
	M349.677,283.614c-7.803-45.077-33.761-88.878-12.879-128.255c2.295-4.328,32.544-59.159,89.617-58.492
	c53.442,0.624,83.588,48.78,85.324,54.736c12.676,43.467-0.684,77.811-10.732,130.938"/>
<path fill="#FFFFFF" d="M463.568,112.16c0-13.04-16.589-23.612-37.051-23.612s-37.05,10.572-37.05,23.612
	s16.588,23.612,37.05,23.612S463.568,125.2,463.568,112.16"/>
<ellipse fill="none" stroke="#000000" stroke-width="1.5" stroke-linecap="round" stroke-linejoin="round" stroke-miterlimit="22.926" cx="426.518" cy="112.16" rx="37.051" ry="23.612"/>
<path fill="#FFFFFF" d="M451.905,111.355c0-8.743-11.367-15.831-25.388-15.831s-25.388,7.088-25.388,15.831
	s11.367,15.831,25.388,15.831S451.905,120.099,451.905,111.355"/>
<ellipse fill="none" stroke="#000000" stroke-width="1.5" stroke-linecap="round" stroke-linejoin="round" stroke-miterlimit="22.926" cx="426.517" cy="111.355" rx="25.388" ry="15.831"/>
<path fill="#FFFFFF" d="M339.43,241.175l12.662-1.028c19.229-20.392,8.945-58.493-7.041-68.205c0,0-9.381-1.004-14.961,1.394"/>
<path fill="none" stroke="#000000" stroke-width="1.5" stroke-linecap="round" stroke-linejoin="round" stroke-miterlimit="22.926" d="
	M339.43,241.175l12.662-1.028c19.229-20.392,8.945-58.493-7.041-68.205c0,0-9.381-1.004-14.961,1.394"/>
<path fill="#FFFFFF" d="M349.203,204.956c2.834,18.76-1.542,34.975-9.772,36.219c-8.231,1.243-17.201-12.957-20.035-31.717
	c-2.833-18.759,1.542-34.975,9.773-36.218C337.4,171.996,346.369,186.196,349.203,204.956"/>
<ellipse transform="matrix(0.9888 -0.1494 0.1494 0.9888 -27.1983 52.2545)" fill="none" stroke="#000000" stroke-width="1.5" stroke-linecap="round" stroke-linejoin="round" stroke-miterlimit="22.926" cx="334.299" cy="207.207" rx="15.073" ry="34.353"/>
<path fill="#FFFFFF" d="M324.153,208.899c-2.321-14.59,0.757-27.207,6.873-28.18c6.117-0.972,12.956,10.067,15.277,24.657
	c2.32,14.59-0.757,27.207-6.873,28.18C333.312,234.528,326.474,223.489,324.153,208.899"/>
<ellipse transform="matrix(-0.9876 0.1571 -0.1571 -0.9876 698.8306 359.0474)" fill="none" stroke="#000000" stroke-width="1.5" stroke-linecap="round" stroke-linejoin="round" stroke-miterlimit="22.926" cx="335.228" cy="207.137" rx="11.214" ry="26.75"/>
<path fill="#FFFFFF" d="M378.681,156.815c1.716-6.315-0.989-12.548-6.042-13.92c-5.053-1.373-10.54,2.633-12.256,8.949
	c-1.715,6.315,0.99,12.547,6.042,13.92C371.478,167.137,376.965,163.13,378.681,156.815"/>
<ellipse transform="matrix(0.965 0.2622 -0.2622 0.965 53.3882 -91.4848)" fill="none" stroke="#000000" stroke-width="1.5" stroke-linecap="round" stroke-linejoin="round" stroke-miterlimit="22.926" cx="369.532" cy="154.329" rx="9.481" ry="11.849"/>
<path fill="#FFFFFF" d="M476.653,155.384c-1.716-6.315,0.989-12.548,6.042-13.92c5.053-1.373,10.54,2.633,12.256,8.949
	c1.715,6.315-0.989,12.547-6.042,13.92S478.369,161.699,476.653,155.384"/>
<ellipse transform="matrix(-0.965 0.2622 -0.2622 -0.965 994.697 173.0944)" fill="none" stroke="#000000" stroke-width="1.5" stroke-linecap="round" stroke-linejoin="round" stroke-miterlimit="22.926" cx="485.802" cy="152.898" rx="9.48" ry="11.849"/>
<path fill="none" stroke="#000000" stroke-width="1.5" stroke-linecap="round" stroke-linejoin="round" stroke-miterlimit="22.926" d="
	M466.95,210.099c0,20.6-16.71,37.31-37.32,37.31c-20.6,0-37.31-16.71-37.31-37.31c0-20.61,16.71-37.32,37.31-37.32
	C450.24,172.779,466.95,189.489,466.95,210.099z"/>
<path fill="#FFFFFF" d="M429.63,157.549c-29.02,0-52.54,23.53-52.54,52.55s23.52,52.54,52.54,52.54c29.03,0,52.55-23.52,52.55-52.54
	S458.66,157.549,429.63,157.549 M429.63,247.409c-20.6,0-37.31-16.71-37.31-37.31c0-20.61,16.71-37.32,37.31-37.32
	c20.61,0,37.32,16.71,37.32,37.32C466.95,230.699,450.24,247.409,429.63,247.409"/>
<path fill="none" stroke="#000000" stroke-width="1.5" stroke-linecap="round" stroke-linejoin="round" stroke-miterlimit="22.926" d="
	M429.63,157.549c-29.02,0-52.54,23.53-52.54,52.55s23.52,52.54,52.54,52.54c29.03,0,52.55-23.52,52.55-52.54
	S458.66,157.549,429.63,157.549z M429.63,247.409c-20.6,0-37.31-16.71-37.31-37.31c0-20.61,16.71-37.32,37.31-37.32
	c20.61,0,37.32,16.71,37.32,37.32C466.95,230.699,450.24,247.409,429.63,247.409z"/>
<path fill="#FFFFFF" d="M815.334,449.556c-18-6.417-26.855-14.839-35.334-15.333c-5.299-0.309-5.391,2.148-11.885,0.418
	c-12.25-3.265-6.365-11.002-26.115-12.085c-11.308-0.619-19.258,8.067-27.334,11c-10.707,3.889-46.298-26.573-79.332,14.667
	c-14.848,18.535,3.195,67.019,21.166,73.166c19,6.5,26.5-10.55,26.5-10.55s4.5-4.45,9-3.95s30,5.399,37,3.95
	c7-1.45,32.5-4.142,40-14.796"/>
<path fill="none" stroke="#000000" stroke-width="1.5" stroke-linecap="round" stroke-linejoin="round" stroke-miterlimit="22.926" d="
	M815.334,449.556c-18-6.417-26.855-14.839-35.334-15.333c-5.299-0.309-5.391,2.148-11.885,0.418
	c-12.25-3.265-6.365-11.002-26.115-12.085c-11.308-0.619-19.258,8.067-27.334,11c-10.707,3.889-46.298-26.573-79.332,14.667
	c-14.848,18.535,3.195,67.019,21.166,73.166c19,6.5,26.5-10.55,26.5-10.55s4.5-4.45,9-3.95s30,5.399,37,3.95
	c7-1.45,32.5-4.142,40-14.796"/>
<path fill="none" stroke="#000000" stroke-width="1.5" stroke-linecap="round" stroke-linejoin="round" stroke-miterlimit="22.926" d="
	M693.167,480.723c3.448-6.357,3.64-9.626,5.167-16.734c1.676-7.805,7.166-19.843,15.73-27.344c1.593-1.395,4.006-3.422,4.936-5.255"
	/>
<path fill="#FFFFFF" d="M511.739,242.324l-11.448-3.072c-10.912-18.424-1.859-62.51,11.091-68.152c0,0,6.694-1.859,12.879,0.179"/>
<path fill="none" stroke="#000000" stroke-width="1.5" stroke-linecap="round" stroke-linejoin="round" stroke-miterlimit="22.926" d="
	M511.739,242.324l-11.448-3.072c-10.912-18.424-1.859-62.51,11.091-68.152c0,0,6.694-1.859,12.879,0.179"/>
<path fill="#FFFFFF" d="M507.053,205.236c-3.34,19.475-0.753,36.17,5.776,37.289c6.53,1.12,14.531-13.759,17.87-33.234
	c3.34-19.475,0.754-36.17-5.776-37.29C518.393,170.882,510.394,185.761,507.053,205.236"/>
<ellipse transform="matrix(-0.9856 -0.169 0.169 -0.9856 995.2538 499.2473)" fill="none" stroke="#000000" stroke-width="1.5" stroke-linecap="round" stroke-linejoin="round" stroke-miterlimit="22.926" cx="518.876" cy="207.263" rx="11.996" ry="35.776"/>
<path fill="#FFFFFF" d="M509.717,205.693c-2.53,14.752-0.791,27.36,3.882,28.161c4.674,0.802,10.514-10.507,13.043-25.259
	c2.53-14.751,0.792-27.359-3.882-28.161C518.085,179.633,512.246,190.942,509.717,205.693"/>
<ellipse transform="matrix(-0.9856 -0.169 0.169 -0.9856 993.9006 498.8755)" fill="none" stroke="#000000" stroke-width="1.5" stroke-linecap="round" stroke-linejoin="round" stroke-miterlimit="22.926" cx="518.179" cy="207.144" rx="8.586" ry="27.1"/>
<path fill="none" stroke="#000000" stroke-width="1.5" stroke-linecap="round" stroke-linejoin="round" stroke-miterlimit="22.926" d="
	M668.667,514.263c0,0,1.333-26.2,21.333-42.12"/>
<path fill="none" stroke="#000000" stroke-width="1.5" stroke-linecap="round" stroke-linejoin="round" stroke-miterlimit="22.926" d="
	M710.5,497.89c0,0,50.5-19,50.5-47.125"/>
<path fill="none" stroke="#000000" stroke-width="1.5" stroke-linecap="round" stroke-linejoin="round" stroke-miterlimit="22.926" d="
	M722.5,511.051c0,0,22.5,4.237,38.5-0.212c15.771-4.386,40.771-17.529,50.103-20.557c9.758-1.578,16.929-4.884,21.397-7.393
	c14.056-7.892,23.275-20.196,24-28.5c0.098-1.117,0.346-3.956-1-7c-1.615-3.654-5.84-4.738-6-6.5c-0.25-2.75,0.5-4.517-2.25-9.5
	c-1.714-3.107-6.024-6.097-6.75-8.5c-5.485-18.176-32.727-42.737-43-52c-14.79-13.335-22.135-16.647-36.5-32.5
	c-5.183-5.719-5.665-6.876-9-9.5c-9.379-7.38-17.613-7.715-41.5-16c-3.039-1.054-5.495-1.946-7-2.5c1.822-0.54-3.62,1.227-5.5,1.5
	c-3.025,0.439-3.477-0.426-5.5,0c-2.49,0.524-4.075,2.311-5.5,4c-7.744,9.177-11.643,13.92-13,21.5c-0.663,3.705-0.179,5.056,0,5.5
	c1.826,4.544,7.893,4.472,8.5,8c0.413,2.399-2.263,3.18-2,6.5c0.173,2.194,1.542,4.384,3.5,5.5c0.437,0.249,2.154,1.158,6,0.5
	c5-0.855,6.012-3.06,9.5-4c5.161-1.39,6.071,2.595,12.5,2.5c3.535-0.052,3.95-1.267,18-7c3.235-1.32,5.46-0.335,6,0
	c5.414,3.358,7.25,7,19,19.5c10.111,10.757,11.605,23.067,12,24c3.561,8.443,5.25,29.334,13.5,35.5"/>
<path fill="none" stroke="#000000" stroke-width="1.5" stroke-linecap="round" stroke-linejoin="round" stroke-miterlimit="22.926" d="
	M772.25,489.89c2.321-2.058,4.89-5.921,9-6c13-0.25,18.75,2.268,30.75-2"/>
<path fill="none" stroke="#000000" stroke-width="1.5" stroke-linecap="round" stroke-linejoin="round" stroke-miterlimit="22.926" d="
	M832,458.39c7.248-1.973,11.677-6.451,11.25-15.25"/>
<path fill="none" stroke="#000000" stroke-width="1.5" stroke-linecap="round" stroke-linejoin="round" stroke-miterlimit="22.926" d="
	M714.5,338.64c2.411,6.381,14.249,8.559,20.402,7.732c-0.251,0.205-0.026,0.261,0.098,0.518"/>
<path fill="none" stroke="#000000" stroke-width="1.5" stroke-linecap="round" stroke-linejoin="round" stroke-miterlimit="22.926" d="
	M707.25,346.39c1.047-1.583-0.643-3.139-0.38-4.594c0.247-1.367,1.789-2.203,2.73-3.372c2.166-2.689,3.327-6.089,3.456-9.526"/>
<path fill="none" stroke="#000000" stroke-width="1.5" stroke-linecap="round" stroke-linejoin="round" stroke-miterlimit="22.926" d="
	M695.5,339.39c1.094,2.623,4.283,12.336,7.695,12.756c2.191,0.269,4.964-0.96,6.47-2.393c2.324-2.213,5.826-11.907-0.415-10.613"/>
<path fill="none" stroke="#000000" stroke-width="1.5" stroke-linecap="round" stroke-linejoin="round" stroke-miterlimit="22.926" d="
	M688,348.14c0.25-0.228,1.9,2.092,1.945,1.626c-1.379-1.962-5.235-7.925-5.197-10.51c0.046-3.123,2.723-7.59,4.246-10.312
	c1.178-2.105,3.227-4.025,4.206-6.11c1.17-2.491,0.306-5.669,3.8-6.694"/>
<path fill="none" stroke="#000000" stroke-width="1.5" stroke-linecap="round" stroke-linejoin="round" stroke-miterlimit="22.926" d="
	M679.75,347.64c0.693-0.994-2.611-5.087-3.007-7c-0.611-2.955,2.041-5.959,3.379-8.497c1.083-2.055,5.129-7.92,7.185-11.27"/>
<path fill="none" stroke="#000000" stroke-width="1.5" stroke-linecap="round" stroke-linejoin="round" stroke-miterlimit="22.926" d="
	M695.5,339.39c0-0.126-0.696-2.951-0.516-3.716c0.345-1.463,2.145-2.793,2.965-4.025c1.538-2.308,3.262-4.626,4.668-7.002
	c0.72-1.216,2.475-8.675,3.383-7.757"/>
<path fill="none" stroke="#000000" stroke-width="1.5" stroke-linecap="round" stroke-linejoin="round" stroke-miterlimit="22.926" d="
	M693.5,362.64c1.562-3.773,2.093-9.401-2.231-11.563c-1.533-0.767-6.521-1.02-8.853,1.106"/>
<path fill="none" stroke="#000000" stroke-width="1.5" stroke-linecap="round" stroke-linejoin="round" stroke-miterlimit="22.926" d="
	M694,353.39c2.71-0.092,4.705-0.787,6.949-2.624"/>
<path fill="none" stroke="#000000" stroke-width="1.5" stroke-linecap="round" stroke-linejoin="round" stroke-miterlimit="22.926" d="
	M710.75,336.39c3.807,3.151,9.291-1.873,10.762-5.21"/>
<path fill="none" stroke="#000000" stroke-width="1.5" stroke-linecap="round" stroke-linejoin="round" stroke-miterlimit="22.926" d="
	M683.875,357.14c1.618,2.221,3.057,3.228,6.1,3.113c-0.917-1.804-1.582-3.632-2.221-5.544c-0.273-0.819-0.34-2.311-1.335-2.434
	C684.155,351.995,683.294,356.014,683.875,357.14z"/>
<path fill="none" stroke="#000000" stroke-width="1.5" stroke-linecap="round" stroke-linejoin="round" stroke-miterlimit="22.926" d="
	M744.324,350.766c7.267,10.063,15.51,19.934,24.676,29.624"/>
<path fill="none" stroke="#000000" stroke-width="1.5" stroke-linecap="round" stroke-linejoin="round" stroke-miterlimit="22.926" d="
	M773.664,422.524c-0.111-3.382-0.038-6.578,0.336-9.468"/>
<path fill="none" stroke="#231F20" stroke-width="1.5" stroke-linecap="round" stroke-linejoin="round" stroke-miterlimit="22.926" d="
	M457.833,778.056c-0.677,0.079-1.425,2.258-0.93,3.096c0.351,0.595,2.077,1.027,2.716,1.08c0.544,0.044,1.534-0.012,1.968-0.385
	c0.615-0.526,0.589-1.812,0.746-1.791"/>
<path fill="none" stroke="#231F20" stroke-width="1.5" stroke-linecap="round" stroke-linejoin="round" stroke-miterlimit="22.926" d="
	M448.5,782.056c0.564-0.089,1.276,0.746,2.09,0.508c0.405-0.118,1.624-1.508,1.95-1.835c1.573-1.583,1.198-1.9,0.256-3.654
	c-0.26-0.096-0.233,0.072-0.463,0.148"/>
<path fill="none" stroke="#231F20" stroke-width="1.5" stroke-linecap="round" stroke-linejoin="round" stroke-miterlimit="22.926" d="
	M449.5,785.89c2.722-1.656,3.466,0.358,4.004,2.675c0.442,1.9,0.238,2.268-1.674,2.946c0.053-0.188,0.166-0.338,0.337-0.454"/>
<path fill="none" stroke="#231F20" stroke-width="1.5" stroke-linecap="round" stroke-linejoin="round" stroke-miterlimit="22.926" d="
	M454,794.056c1.04-2.909,2.448-1.833,4.346-0.541c1.611,1.096,2.737,1.838,1.62,3.79c0.069-0.225,0.191-0.419,0.367-0.582"/>
<path fill="none" stroke="#231F20" stroke-width="1.5" stroke-linecap="round" stroke-linejoin="round" stroke-miterlimit="22.926" d="
	M464.333,798.39c-0.759-2.954-0.3-3.577,2.639-4.462c2.249-0.679,2.005,0.201,3.194,1.295"/>
<path fill="none" stroke="#231F20" stroke-width="1.5" stroke-linecap="round" stroke-linejoin="round" stroke-miterlimit="22.926" d="
	M473.5,793.723c-1.602-2.251-1.581-2.78,0.037-5.13c1.207-1.752,1.783-2.121,3.805-1.711c0.053,0.169,0.105,0.338,0.158,0.508"/>
<path fill="none" stroke="#231F20" stroke-width="1.5" stroke-linecap="round" stroke-linejoin="round" stroke-miterlimit="22.926" d="
	M478.5,784.223c-2.405-1.674-2.487-2.336-2.037-5.616c0.316-2.3,1.148-3.597,3.537-3.217"/>
<path fill="none" stroke="#231F20" stroke-width="1.5" stroke-linecap="round" stroke-linejoin="round" stroke-miterlimit="22.926" d="
	M479,772.223c-2.344-0.007-3.357-0.264-3.506-2.902c-0.104-1.814,0.605-3.339,2.522-3.776c0.272,0.136,0.378,0.361,0.316,0.679"/>
<path fill="none" stroke="#231F20" stroke-width="1.5" stroke-linecap="round" stroke-linejoin="round" stroke-miterlimit="22.926" d="
	M476.167,762.723c-2.417,1.054-3.125-0.335-4.234-2.588c-0.581-1.181-1.053-4.341,0.734-4.245"/>
<path fill="none" stroke="#231F20" stroke-width="1.5" stroke-linecap="round" stroke-linejoin="round" stroke-miterlimit="22.926" d="
	M469.833,752.556c-2.626,2.898-7.879-2.05-5.565-5.253c0.141,0.611-0.003,1.196-0.435,1.753"/>
<path fill="none" stroke="#231F20" stroke-width="1.5" stroke-linecap="round" stroke-linejoin="round" stroke-miterlimit="22.926" d="
	M461,745.556c0.041,0.135-0.524,1.38-1.289,1.54c-0.891,0.188-2-0.902-2.719-1.54c-1.596-1.416-2.104-2.422-0.825-4.333"/>
<path fill="none" stroke="#231F20" stroke-width="1.5" stroke-linecap="round" stroke-linejoin="round" stroke-miterlimit="22.926" d="
	M453.5,739.39c-3.503,3.561-7.665-3.834-4.667-4.833"/>
<path fill="none" stroke="#231F20" stroke-width="1.5" stroke-linecap="round" stroke-linejoin="round" stroke-miterlimit="22.926" d="
	M447.5,732.556c-2.696,0.278-2.67,2.291-4.607-1.339c-0.449-0.844-1.195-2.222-1.066-3.214c0.126-0.962,1.991-2.694,2.007-1.947"/>
<path fill="none" stroke="#231F20" stroke-width="1.5" stroke-linecap="round" stroke-linejoin="round" stroke-miterlimit="22.926" d="
	M443.167,722.723c-1.238-0.356-2.164-0.072-2.927-1.27c-0.768-1.208-0.63-3.249-0.443-4.569c0.265-1.877,0.895-2.234,2.703-2.828"/>
<path fill="none" stroke="#231F20" stroke-width="1.5" stroke-linecap="round" stroke-linejoin="round" stroke-miterlimit="22.926" d="
	M443.167,711.223c-2.561,0.38-2.938-1.855-2.634-3.879c0.352-2.341,1.262-3.574,3.301-4.454"/>
<path fill="none" stroke="#231F20" stroke-width="1.5" stroke-linecap="round" stroke-linejoin="round" stroke-miterlimit="22.926" d="
	M445,699.723c-3.123-0.005-3.295-2.977-2.669-5.256c0.63-2.292,2.224-2.578,4.336-3.298c0.223,0.173,0.334,0.414,0.333,0.721"/>
<path fill="none" stroke="#231F20" stroke-width="1.5" stroke-linecap="round" stroke-linejoin="round" stroke-miterlimit="22.926" d="
	M286.5,787.056c1.721,1.838,2.69,1.905,5.252,1.253c2.592-0.661,0.687-2.04,2.248-3.253"/>
<path fill="none" stroke="#231F20" stroke-width="1.5" stroke-linecap="round" stroke-linejoin="round" stroke-miterlimit="22.926" d="
	M297.333,787.556c-2.138-0.2-1.267,2.773-0.912,3.916c0.65,2.098,1.357,1.564,3.279,2.188c0.124,0.122,0.113,0.254-0.034,0.396"/>
<path fill="none" stroke="#231F20" stroke-width="1.5" stroke-linecap="round" stroke-linejoin="round" stroke-miterlimit="22.926" d="
	M297.667,796.556c-0.352-0.078-1.322-1.166-2.155-1.136c-0.915,0.033-2.163,1.143-2.762,1.803c-1.322,1.458-0.153,2.625-0.416,3.333
	"/>
<path fill="none" stroke="#231F20" stroke-width="1.5" stroke-linecap="round" stroke-linejoin="round" stroke-miterlimit="22.926" d="
	M290,801.89c-1.067-2.688-1.897-3.092-4.752-2.314c-0.649,0.176-1.653,0.356-2.149,0.87c-1.027,1.064-0.25,2.166-0.599,3.444"/>
<path fill="none" stroke="#231F20" stroke-width="1.5" stroke-linecap="round" stroke-linejoin="round" stroke-miterlimit="22.926" d="
	M279.333,804.056c-0.36-0.896,0.151-1.931-0.694-2.648c-0.681-0.579-2.638-0.668-3.525-0.81c-3.166-0.503-2.401-0.751-3.424,1.938"
	/>
<path fill="none" stroke="#231F20" stroke-width="1.5" stroke-linecap="round" stroke-linejoin="round" stroke-miterlimit="22.926" d="
	M269.833,801.223c-0.147-2.627,0.99-2.814-1.329-5.074c-1.526-1.485-1.958-1.232-4.004-0.593"/>
<path fill="none" stroke="#231F20" stroke-width="1.5" stroke-linecap="round" stroke-linejoin="round" stroke-miterlimit="22.926" d="
	M263.833,792.723c0.638-0.616,1.815-0.752,2.296-1.534c0.513-0.833,0.204-2.421,0.204-3.344c0-2.103,0.363-3.761-2.167-4.122"/>
<path fill="none" stroke="#231F20" stroke-width="1.5" stroke-linecap="round" stroke-linejoin="round" stroke-miterlimit="22.926" d="
	M265.5,780.39c0.867,0.092,1.479,0.639,2.417,0.236c0.941-0.403,2.008-2.107,2.595-2.911c1.248-1.707,2.347-3.454-0.046-4.775
	c-0.181,0.222-0.203-0.3,0,0"/>
<path fill="none" stroke="#231F20" stroke-width="1.5" stroke-linecap="round" stroke-linejoin="round" stroke-miterlimit="22.926" d="
	M272.833,770.223c1.985,2.031,3.21,1.695,5.36-0.165c1.623-1.404,2.908-2.636,1.307-4.668"/>
<path fill="none" stroke="#231F20" stroke-width="1.5" stroke-linecap="round" stroke-linejoin="round" stroke-miterlimit="22.926" d="
	M282.5,763.89c2.715,4.622,8.66-3.011,6.667-4.333"/>
<path fill="none" stroke="#231F20" stroke-width="1.5" stroke-linecap="round" stroke-linejoin="round" stroke-miterlimit="22.926" d="
	M291.833,758.056c0.978,0.661,1.044,1.426,2.379,1.301c0.894-0.083,1.919-0.93,2.56-1.487c1.866-1.628,2.285-2.575,0.666-4.683
	c-0.087,0.284-0.067,0.574,0.062,0.869"/>
<path fill="none" stroke="#231F20" stroke-width="1.5" stroke-linecap="round" stroke-linejoin="round" stroke-miterlimit="22.926" d="
	M299.333,751.223c0.673,0.099,1.306,1.59,2.316,1.528c0.953-0.06,2.344-1.902,2.854-2.552c1.123-1.432,3.056-4.654,0.219-4.977"/>
<path fill="none" stroke="#231F20" stroke-width="1.5" stroke-linecap="round" stroke-linejoin="round" stroke-miterlimit="22.926" d="
	M306.833,742.723c0.75,0.18,1.706,1.426,2.796,0.974c0.653-0.27,1.656-2.163,2-2.77c0.599-1.058,1.73-4.98-0.796-3.871"/>
<path fill="none" stroke="#231F20" stroke-width="1.5" stroke-linecap="round" stroke-linejoin="round" stroke-miterlimit="22.926" d="
	M313,734.056c2.401,2.256,3.829-1.453,4.671-3.202c0.498-1.034,0.872-4.774-1.338-3.465"/>
<path fill="none" stroke="#231F20" stroke-width="1.5" stroke-linecap="round" stroke-linejoin="round" stroke-miterlimit="22.926" d="
	M318.167,724.223c2.378,2.031,3.506-1.016,4.508-3.008c0.924-1.837,1.314-3.735-1.175-4.325"/>
<path fill="none" stroke="#231F20" stroke-width="1.5" stroke-linecap="round" stroke-linejoin="round" stroke-miterlimit="22.926" d="
	M323.5,714.39c2.524,1.968,3.423-0.233,4.471-2.64c0.794-1.82,1.419-3.506-0.804-4.36"/>
<path fill="none" stroke="#231F20" stroke-width="1.5" stroke-linecap="round" stroke-linejoin="round" stroke-miterlimit="22.926" d="
	M329.167,705.056c0.946,0.431,1.222,0.838,2.082,0.504c0.654-0.255,1.522-1.663,1.996-2.206c1.475-1.689,1.905-2.938-0.282-4.352
	c-0.191-0.02-0.179,0.109,0.037,0.387"/>
<path fill="none" stroke="#231F20" stroke-width="1.5" stroke-linecap="round" stroke-linejoin="round" stroke-miterlimit="22.926" d="
	M379.167,774.556c1.086-1.426,1.098-2.565,0.166-4.12c-0.566-0.945-2.013-2.073-2.999-0.88"/>
<path fill="none" stroke="#231F20" stroke-width="1.5" stroke-linecap="round" stroke-linejoin="round" stroke-miterlimit="22.926" d="
	M379.833,766.056c0.43,2.289,5.825,2.53,5.517,0.146c0.239-0.118,0.4,0,0.483,0.354"/>
<path fill="none" stroke="#231F20" stroke-width="1.5" stroke-linecap="round" stroke-linejoin="round" stroke-miterlimit="22.926" d="
	M388.667,768.223c-2.989,0.804-1.275,3.28,0.091,4.844c1.201,1.375,1.751,1.41,3.462,0.777c0.248,0.077,0.341,0.259,0.28,0.546"/>
<path fill="none" stroke="#231F20" stroke-width="1.5" stroke-linecap="round" stroke-linejoin="round" stroke-miterlimit="22.926" d="
	M393.667,777.556c-2.674-0.398-2.135,2.207-2.37,4.041c-0.308,2.4,0.118,2.021,2.037,2.959"/>
<path fill="none" stroke="#231F20" stroke-width="1.5" stroke-linecap="round" stroke-linejoin="round" stroke-miterlimit="22.926" d="
	M393,787.556c0.127-0.489-1.451-1.199-2.171-1.004c-0.551,0.15-0.613,0.633-0.996,1.081c-0.886,1.038-1.634,2.283-2.275,3.451
	c0.459,0.771,1.133,1.438,1.929,1.847c-0.064,0.173-0.176,0.132-0.32,0.292"/>
<path fill="none" stroke="#231F20" stroke-width="1.5" stroke-linecap="round" stroke-linejoin="round" stroke-miterlimit="22.926" d="
	M387.833,795.39c-1.483-2.081-3.009-1.129-4.667-0.037c-2.144,1.413-1.982,1.716-1.309,4.154c-0.336,0.142-0.677,0.27-1.024,0.383"
	/>
<path fill="none" stroke="#231F20" stroke-width="1.5" stroke-linecap="round" stroke-linejoin="round" stroke-miterlimit="22.926" d="
	M378.667,800.89c0.651-3.146-3.013-2.969-5.239-2.833c-2.716,0.166-2.088,1.129-2.761,3.333"/>
<path fill="none" stroke="#231F20" stroke-width="1.5" stroke-linecap="round" stroke-linejoin="round" stroke-miterlimit="22.926" d="
	M367.833,800.89c0.717-2.675-0.128-4.307-2.999-4.796c-1.887-0.323-2.155,1.097-3.334,2.296"/>
<path fill="none" stroke="#231F20" stroke-width="1.5" stroke-linecap="round" stroke-linejoin="round" stroke-miterlimit="22.926" d="
	M359.5,796.056c-0.067-0.631,0.964-1.524,0.804-2.463c-0.069-0.402-1.104-1.632-1.385-2.037c-1.356-1.951-1.794-1.468-3.919-1.167"
	/>
<path fill="none" stroke="#231F20" stroke-width="1.5" stroke-linecap="round" stroke-linejoin="round" stroke-miterlimit="22.926" d="
	M354,787.89c2.13-1.336,2.993-0.668,2.687-3.679c-0.224-2.204-0.056-4.628-2.854-4.321"/>
<path fill="none" stroke="#231F20" stroke-width="1.5" stroke-linecap="round" stroke-linejoin="round" stroke-miterlimit="22.926" d="
	M353.833,777.223c0.85-0.612,2.168-0.137,2.937-0.902c0.755-0.75,0.884-3.069,1.03-4.076c0.358-2.475-0.829-1.599-1.967-3.188"/>
<path fill="none" stroke="#231F20" stroke-width="1.5" stroke-linecap="round" stroke-linejoin="round" stroke-miterlimit="22.926" d="
	M356.667,766.89c0.758-0.12,1.795,0.707,2.671,0.382c0.919-0.341,1.874-2.114,2.249-2.893c1.06-2.204,0.117-3.722-2.087-4.656"/>
<path fill="none" stroke="#231F20" stroke-width="1.5" stroke-linecap="round" stroke-linejoin="round" stroke-miterlimit="22.926" d="
	M362,756.89c0.81,0.38,1.354,1.372,2.575,1.174c0.741-0.12,2.148-1.212,2.754-1.657c1.905-1.399,1.829-2.68,0.671-4.684"/>
<path fill="none" stroke="#231F20" stroke-width="1.5" stroke-linecap="round" stroke-linejoin="round" stroke-miterlimit="22.926" d="
	M371,749.89c0.626,2.968,3.255,1.81,5.171,1.037c0.789-0.318,1.964-0.458,2.341-1.222c0.445-0.899-0.587-2.765-0.512-2.815"/>
<path fill="none" stroke="#231F20" stroke-width="1.5" stroke-linecap="round" stroke-linejoin="round" stroke-miterlimit="22.926" d="
	M380.167,745.89c0.404,0.166,0.654,1.799,1.363,2.141c0.737,0.355,1.904-0.229,2.571-0.479c2.212-0.829,2.997-1.482,2.054-3.816
	c-0.145-0.199-0.196-0.147-0.155,0.154"/>
<path fill="none" stroke="#231F20" stroke-width="1.5" stroke-linecap="round" stroke-linejoin="round" stroke-miterlimit="22.926" d="
	M387.667,742.556c0.844,0.755,0.753,1.647,2.334,1.546c1.056-0.068,2.037-0.83,2.87-1.379c1.68-1.106,2.734-2.497,0.629-4"/>
<path fill="none" stroke="#231F20" stroke-width="1.5" stroke-linecap="round" stroke-linejoin="round" stroke-miterlimit="22.926" d="
	M396.5,737.223c1.722,2.004,2.971,0.891,4.835-0.748c0.547-0.48,1.452-1.252,1.585-2.015c0.163-0.935-1.283-2.77-1.253-2.237"/>
<path fill="none" stroke="#231F20" stroke-width="1.5" stroke-linecap="round" stroke-linejoin="round" stroke-miterlimit="22.926" d="
	M403.667,730.39c2.277,2.002,3.761,0.767,4.981-1.745c0.985-2.029,0.194-3.634-1.981-4.422"/>
<path fill="none" stroke="#231F20" stroke-width="1.5" stroke-linecap="round" stroke-linejoin="round" stroke-miterlimit="22.926" d="
	M409,721.89c2.766,0.13,3.388-0.751,3.912-3.392c0.293-1.479,0.206-5.052-2.412-3.941"/>
<path fill="none" stroke="#231F20" stroke-width="1.5" stroke-linecap="round" stroke-linejoin="round" stroke-miterlimit="22.926" d="
	M410.833,711.223c2.77,1.325,2.841-1.946,2.667-3.639c-0.272-2.632-0.219-3.606-3-3.528"/>
<path fill="none" stroke="#231F20" stroke-width="1.5" stroke-linecap="round" stroke-linejoin="round" stroke-miterlimit="22.926" d="
	M410.167,701.223c2.359-0.592,2.752-2.557,1.75-4.978c-0.587-1.418-1.738-1.699-3.417-1.522"/>
<path fill="none" stroke="#231F20" stroke-width="1.5" stroke-linecap="round" stroke-linejoin="round" stroke-miterlimit="22.926" d="
	M556.333,779.39c-0.707,2.255-1.238,1.883-3.37,1.459c-0.553-0.11-1.505-0.078-1.972-0.409c-0.512-0.363-1.202-1.708-0.658-1.55"/>
<path fill="none" stroke="#231F20" stroke-width="1.5" stroke-linecap="round" stroke-linejoin="round" stroke-miterlimit="22.926" d="
	M548,780.723c2.466-0.086,1.392,3.596,0.421,4.748c-0.71,0.844-0.463,0.697-1.584,0.919c-0.936,0.186-2.11-0.495-2.504,0.666"/>
<path fill="none" stroke="#231F20" stroke-width="1.5" stroke-linecap="round" stroke-linejoin="round" stroke-miterlimit="22.926" d="
	M544.167,788.89c2.978-0.904,2.706,0.976,3.329,3.337c0.194,0.74,0.742,1.571,0.319,2.293c-0.474,0.81-2.164,0.768-2.148,1.037"/>
<path fill="none" stroke="#231F20" stroke-width="1.5" stroke-linecap="round" stroke-linejoin="round" stroke-miterlimit="22.926" d="
	M547,797.723c1.594-2.563,3.033-1.046,4.829,0.463c1.411,1.185,2.901,2.627,0.538,3.866c-0.056-0.161-0.066-0.326-0.034-0.496"/>
<path fill="none" stroke="#231F20" stroke-width="1.5" stroke-linecap="round" stroke-linejoin="round" stroke-miterlimit="22.926" d="
	M555.167,803.723c-0.353-3.006,1.715-2.787,3.788-2.333c2.215,0.485,3.478,0.646,3.379,3.261v-0.595"/>
<path fill="none" stroke="#231F20" stroke-width="1.5" stroke-linecap="round" stroke-linejoin="round" stroke-miterlimit="22.926" d="
	M564.833,804.39c0.809-2.075-1.328-2.568,1.533-3.621c0.632-0.233,1.745-0.913,2.435-0.845c0.828,0.083,1.666,1.294,1.865,1.133
	c0.232,0.346,0.789,0.736,1.167,1"/>
<path fill="none" stroke="#231F20" stroke-width="1.5" stroke-linecap="round" stroke-linejoin="round" stroke-miterlimit="22.926" d="
	M574,800.223c-1.811-2.331-1.61-2.2,0.181-4.679c0.541-0.749,1.132-2.391,1.986-2.832c0.699-0.363,1.558,0.015,2.333,0.011"/>
<path fill="none" stroke="#231F20" stroke-width="1.5" stroke-linecap="round" stroke-linejoin="round" stroke-miterlimit="22.926" d="
	M579.167,790.89c-2.808-1.184-1.979-3.121-1.338-5.703c0.425-1.715,1.122-2.796,3.171-2.63"/>
<path fill="none" stroke="#231F20" stroke-width="1.5" stroke-linecap="round" stroke-linejoin="round" stroke-miterlimit="22.926" d="
	M581.5,780.223c-1.062-0.361-1.652-0.076-2.208-1.001c-0.432-0.72-0.237-2.884-0.278-3.751c-0.114-2.47,0.08-3.016,2.153-4.081"/>
<path fill="none" stroke="#231F20" stroke-width="1.5" stroke-linecap="round" stroke-linejoin="round" stroke-miterlimit="22.926" d="
	M580.833,768.223c-1.969,1.095-2.831,0.692-3.287-1.648c-0.434-2.23-0.511-4.597,2.62-4.352"/>
<path fill="none" stroke="#231F20" stroke-width="1.5" stroke-linecap="round" stroke-linejoin="round" stroke-miterlimit="22.926" d="
	M578.5,759.723c-0.708,0.075-1.79,0.995-2.464,0.794c-0.589-0.175-1.563-1.877-1.954-2.393c-0.582-0.767-2.29-4.91,0.251-4.068"/>
<path fill="none" stroke="#231F20" stroke-width="1.5" stroke-linecap="round" stroke-linejoin="round" stroke-miterlimit="22.926" d="
	M572.333,751.556c-1.83,2.415-2.683,1.871-5.174,0.101c-1.297-0.922-2.813-4.177-0.326-4.768"/>
<path fill="none" stroke="#231F20" stroke-width="1.5" stroke-linecap="round" stroke-linejoin="round" stroke-miterlimit="22.926" d="
	M563.5,744.556c0.01,0.03-0.196,1.956-0.996,2.3c-0.838,0.358-2.679-0.852-3.392-1.201c-0.58-0.286-1.935-0.789-2.286-1.339
	c-0.505-0.788-0.139-3.46,1.007-2.927"/>
<path fill="none" stroke="#231F20" stroke-width="1.5" stroke-linecap="round" stroke-linejoin="round" stroke-miterlimit="22.926" d="
	M554.333,739.723c0.108,3.214-3.172,1.341-4.577,0.734c-1.293-0.559-5.616-2.599-2.064-4.258c0.136,0.275,0.153-0.296,0,0"/>
<path fill="none" stroke="#231F20" stroke-width="1.5" stroke-linecap="round" stroke-linejoin="round" stroke-miterlimit="22.926" d="
	M544.5,734.89c-1.048,2.007-1.203,2.523-3.338,1.292c-1.796-1.037-4.587-2.105-2.283-4.611c-0.071,0.218,0.071-0.217,0,0"/>
<path fill="none" stroke="#231F20" stroke-width="1.5" stroke-linecap="round" stroke-linejoin="round" stroke-miterlimit="22.926" d="
	M536.167,729.89c0.01,0.015-0.261,1.57-0.911,1.841c-1.041,0.431-2.475-0.828-3.259-1.312c-1.77-1.089-2.241-2.261-0.507-3.914
	c0.06,0.129-0.058-0.13,0,0"/>
<path fill="none" stroke="#231F20" stroke-width="1.5" stroke-linecap="round" stroke-linejoin="round" stroke-miterlimit="22.926" d="
	M529.474,724.223c-0.123,3.227-4.511,0.885-5.722-0.102c-1.7-1.385-2.831-2.901-0.418-4.397c0.154,0.135,1.266-0.699,1.333-0.501"/>
<path fill="none" stroke="#231F20" stroke-width="1.5" stroke-linecap="round" stroke-linejoin="round" stroke-miterlimit="22.926" d="
	M522.5,716.89c-2.235,2.573-3.706-0.369-4.402-2.398c-0.154-0.45-0.729-1.896-0.605-2.352c0.314-1.148,1.738-0.899,2.175-1.917"/>
<path fill="none" stroke="#231F20" stroke-width="1.5" stroke-linecap="round" stroke-linejoin="round" stroke-miterlimit="22.926" d="
	M518.667,707.89c-0.719-0.771-1.841,0.349-2.68-0.788c-0.456-0.62-0.452-2.695-0.493-3.467c-0.13-2.373,0.438-4.112,3.197-4.153
	c0.378,0.237,0.592,0.595,0.643,1.075"/>
<path fill="#FFFFFF" d="M435.271,630.89c-9.878,0.29-19.144-1.456-28.697-0.665c-13.683,1.133-28.346,0.665-38.184,10.827
	c-15.559,16.069-46.277,12.349-60.348,31.117c-4.603,6.139-7.769,13.678-10.358,20.924c-3.765,10.541-3.512,21.133-12.2,29.429
	c-7.488,7.15-18.997,8.779-28.078,13.118c-20.011,9.561-34.99,34.813-30.165,57.428c6.408,30.027,38.515,37.008,64.463,29.523
	c15.689-4.525,29.342-25.821,20.637-41.456c-2.692-4.837-7.74-8.812-13.415-8.582c-4.563,0.185-9.583,2.481-12.928,5.663
	c-1.829,1.739-4.782,6.211-2.123,8.558c2.228,1.967,5.416-1.226,7.823-1.606c6.448-1.019,10.223,4.602,7.143,10.236
	c-2.29,4.188-8.77,6.924-13.152,8.137c-10.093,2.793-20.762-0.619-22.029-12.218c-1.845-16.884,13.479-24.849,25.839-32.422
	c27.76-17.021,32.219-55.269,56.592-74.819c9.169-7.354,17.325-9.759,25.891-0.664c4.575,4.856,8.548,10.705,9.229,17.451
	c0.395,3.911-0.215,8.586-1.987,12.139c-2.735,5.483-8.534,8.544-13.839,11.058c-4.816,2.282-9.578,4.771-13.896,7.915
	c-3.776,2.748-6.267,6.254-8.598,10.28c-4.749,8.205-7.249,17.453-8.481,26.801c-2.441,18.521,2.03,41.156,19.354,51.147
	c27.186,15.683,58.049-5.189,62.148-34.489c2.882-20.601-23.038-41.093-41.612-29.008c-4.402,2.863-8.421,8.053-8.783,13.44
	c-0.355,5.304,3.692,9.84,9.183,9.413c1.328-0.104,5.989-1.175,5.384-3.252c-0.222-0.761-2.17-1.605-2.759-2.192
	c-0.667-0.663-1.212-1.425-1.512-2.295c-0.989-2.874,2.551-5.717,5.118-6.585c3.961-1.338,7.606,1.287,9.751,4.451
	c9.887,14.583-1.682,32.109-17.88,31.86c-25.181-0.389-22.364-30.167-10.495-44.527c4.975-6.019,11.294-8.787,18.436-11.422
	c9.731-3.588,19.964-10.934,25.456-19.844c3.299-5.353,4.845-11.654,4.552-17.921c-0.3-6.408-3.117-13.075-1.595-19.481
	c0.805-3.386,2.511-6.079,4.771-8.099c8.751-7.82,25.818-5.555,31.135,5.603c3.519,7.383-1.526,17.567-1.917,25.353
	c-0.43,8.565,0.615,17.931,6.862,24.388c9.836,10.166,22.261,13.585,27.401,27.946c3.902,10.897,3.819,28.374-8.725,33.84
	c-10.331,4.501-18.753-3.846-19.951-13.679c-1.037-8.514,4.86-8.508,12.293-4.549c2.062,1.099,3.267,4.831,6.004,2.377
	c2.287-2.051-0.812-8.641-2.02-10.629c-5.337-8.785-16.21-8.805-24.212-3.367c-20.558,13.971-6.186,41.858,9.086,53.853
	c13.813,10.85,40.702,0.519,49.979-12.375c11.808-16.409,14.676-44.585,4.142-62.46c-6.429-10.906-18.247-16.716-24.364-27.7
	c-4.352-7.814-1.843-13.304,0.597-21.042c1.84-5.834,1.782-11.511,6.411-16.142c9.304-9.307,22.972-5.907,29.41,4.799
	c6.853,11.396-0.573,14.212,4.446,25.929c4.291,10.016,15.058,17.228,24.383,22.055c12.314,6.374,31.483,13.899,35.205,28.835
	c3.73,14.983,2.019,41.551-18.588,42.012c-6.151,0.137-15.247-5.9-17.218-12.053c-1.654-5.168,2.514-15.55,8.937-15.201
	c1.743,0.094,3.61,1.645,5.275,1.508c3.321-0.274-1.555-6.942-3.035-7.854c-2.911-1.79-6.82-2.279-10.115-1.438
	c-4.641,1.185-8.576,3.395-11.37,7.384c-5.303,7.572-6.667,19.378-2.426,27.7c4.239,8.319,12.488,14.432,20.762,18.354
	c12.725,6.034,26.549,2.975,38.683-3.393c16.559-8.688,23.365-25.616,23.349-43.852c-0.021-20.568-6.476-49.616-25.493-60.927
	c-9.302-5.533-20.432-6.732-29.927-11.987c-20.918-11.576-4.43-25.812-13.455-41.637c-8.004-14.032-28.066-13.353-42.088-22.504
	C485.549,627.766,457.082,630.249,435.271,630.89"/>
<path fill="none" stroke="#231F20" stroke-width="1.5" stroke-linecap="round" stroke-linejoin="round" stroke-miterlimit="22.926" d="
	M435.271,630.89c-9.878,0.29-19.144-1.456-28.697-0.665c-13.683,1.133-28.346,0.665-38.184,10.827
	c-15.559,16.069-46.277,12.349-60.348,31.117c-4.603,6.139-7.769,13.678-10.358,20.924c-3.765,10.541-3.512,21.133-12.2,29.429
	c-7.488,7.15-18.997,8.779-28.078,13.118c-20.011,9.561-34.99,34.813-30.165,57.428c6.408,30.027,38.515,37.008,64.463,29.523
	c15.689-4.525,29.342-25.821,20.637-41.456c-2.692-4.837-7.74-8.812-13.415-8.582c-4.563,0.185-9.583,2.481-12.928,5.663
	c-1.829,1.739-4.782,6.211-2.123,8.558c2.228,1.967,5.416-1.226,7.823-1.606c6.448-1.019,10.223,4.602,7.143,10.236
	c-2.29,4.188-8.77,6.924-13.152,8.137c-10.093,2.793-20.762-0.619-22.029-12.218c-1.845-16.884,13.479-24.849,25.839-32.422
	c27.76-17.021,32.219-55.269,56.592-74.819c9.169-7.354,17.325-9.759,25.891-0.664c4.575,4.856,8.548,10.705,9.229,17.451
	c0.395,3.911-0.215,8.586-1.987,12.139c-2.735,5.483-8.534,8.544-13.839,11.058c-4.816,2.282-9.578,4.771-13.896,7.915
	c-3.776,2.748-6.267,6.254-8.598,10.28c-4.749,8.205-7.249,17.453-8.481,26.801c-2.441,18.521,2.03,41.156,19.354,51.147
	c27.186,15.683,58.049-5.189,62.148-34.489c2.882-20.601-23.038-41.093-41.612-29.008c-4.402,2.863-8.421,8.053-8.783,13.44
	c-0.355,5.304,3.692,9.84,9.183,9.413c1.328-0.104,5.989-1.175,5.384-3.252c-0.222-0.761-2.17-1.605-2.759-2.192
	c-0.667-0.663-1.212-1.425-1.512-2.295c-0.989-2.874,2.551-5.717,5.118-6.585c3.961-1.338,7.606,1.287,9.751,4.451
	c9.887,14.583-1.682,32.109-17.88,31.86c-25.181-0.389-22.364-30.167-10.495-44.527c4.975-6.019,11.294-8.787,18.436-11.422
	c9.731-3.588,19.964-10.934,25.456-19.844c3.299-5.353,4.845-11.654,4.552-17.921c-0.3-6.408-3.117-13.075-1.595-19.481
	c0.805-3.386,2.511-6.079,4.771-8.099c8.751-7.82,25.818-5.555,31.135,5.603c3.519,7.383-1.526,17.567-1.917,25.353
	c-0.43,8.565,0.615,17.931,6.862,24.388c9.836,10.166,22.261,13.585,27.401,27.946c3.902,10.897,3.819,28.374-8.725,33.84
	c-10.331,4.501-18.753-3.846-19.951-13.679c-1.037-8.514,4.86-8.508,12.293-4.549c2.062,1.099,3.267,4.831,6.004,2.377
	c2.287-2.051-0.812-8.641-2.02-10.629c-5.337-8.785-16.21-8.805-24.212-3.367c-20.558,13.971-6.186,41.858,9.086,53.853
	c13.813,10.85,40.702,0.519,49.979-12.375c11.808-16.409,14.676-44.585,4.142-62.46c-6.429-10.906-18.247-16.716-24.364-27.7
	c-4.352-7.814-1.843-13.304,0.597-21.042c1.84-5.834,1.782-11.511,6.411-16.142c9.304-9.307,22.972-5.907,29.41,4.799
	c6.853,11.396-0.573,14.212,4.446,25.929c4.291,10.016,15.058,17.228,24.383,22.055c12.314,6.374,31.483,13.899,35.205,28.835
	c3.73,14.983,2.019,41.551-18.588,42.012c-6.151,0.137-15.247-5.9-17.218-12.053c-1.654-5.168,2.514-15.55,8.937-15.201
	c1.743,0.094,3.61,1.645,5.275,1.508c3.321-0.274-1.555-6.942-3.035-7.854c-2.911-1.79-6.82-2.279-10.115-1.438
	c-4.641,1.185-8.576,3.395-11.37,7.384c-5.303,7.572-6.667,19.378-2.426,27.7c4.239,8.319,12.488,14.432,20.762,18.354
	c12.725,6.034,26.549,2.975,38.683-3.393c16.559-8.688,23.365-25.616,23.349-43.852c-0.021-20.568-6.476-49.616-25.493-60.927
	c-9.302-5.533-20.432-6.732-29.927-11.987c-20.918-11.576-4.43-25.812-13.455-41.637c-8.004-14.032-28.066-13.353-42.088-22.504
	C485.549,627.766,457.082,630.249,435.271,630.89z"/>
<path fill="#FFFFFF" d="M202.62,475.796c0.284-0.629,0.09-1.312,0.252-1.97c0.427-1.731,1.977-3.869,3.487-4.979
	c-1.363-0.078-2.091-1.227-2.798-2.306c-0.671-1.025-0.913-2.237-0.924-3.467c-0.021-2.472-0.071-4.942-0.154-7.413
	c-0.239-7.097-0.084-14.2-0.319-21.295c-0.269-8.116-0.14-16.236-0.401-24.348c-0.236-7.341-0.155-14.684-0.364-22.023
	c-0.253-8.842-0.19-17.689-0.439-26.528c-0.207-7.341-0.145-14.684-0.358-22.023c-0.256-8.842-0.189-17.689-0.438-26.528
	c-0.21-7.414-0.144-14.83-0.362-22.241c-0.258-8.769-0.183-17.543-0.435-26.31c-0.212-7.414-0.158-14.829-0.361-22.241
	c-0.164-5.983-0.251-11.967-0.325-17.952c-0.012-0.899-0.472-1.702-0.76-2.531c-1.162-3.344-2.391-6.665-3.577-10
	c-2.229-6.275-4.445-12.554-6.669-18.83c-0.343-0.968-0.71-1.927-1.041-2.899c-0.175-0.512-0.365-0.985-0.99-1.186
	c-0.095,0.379-0.21,0.76-0.344,1.148c-2.318,6.721-4.472,13.499-6.674,20.26c-1.213,3.723-2.386,7.458-3.659,11.162
	c-0.341,0.992-0.724,1.986-0.957,2.997c-0.287,1.247-0.126,2.564-0.121,3.845c0.031,8.795,0.198,17.59,0.125,26.387
	c-0.061,7.341,0.156,14.681,0.101,22.025c-0.066,8.794,0.184,17.589,0.113,26.386c-0.06,7.341,0.156,14.682,0.101,22.026
	c-0.066,8.794,0.184,17.589,0.113,26.386c-0.06,7.341,0.159,14.681,0.1,22.025c-0.071,8.698,0.187,17.396,0.112,26.096
	c-0.065,7.438,0.147,14.875,0.104,22.316c-0.052,9.133,0.204,18.268,0.109,27.403c-0.052,4.943,0.287,9.887,0.004,14.829
	c-0.107,1.87-0.759,3.487-2.275,4.677c-0.724,0.566-0.776,0.735-0.2,1.157c1.243,0.912,1.866,2.178,2.307,3.612
	c0.274,0.887,0.247,1.826,0.588,2.69"/>
<path fill="none" stroke="#000000" stroke-width="2" stroke-linecap="round" stroke-linejoin="round" stroke-miterlimit="10" d="
	M202.62,475.796c0.284-0.629,0.09-1.312,0.252-1.97c0.427-1.731,1.977-3.869,3.487-4.979c-1.363-0.078-2.091-1.227-2.798-2.306
	c-0.671-1.025-0.913-2.237-0.924-3.467c-0.021-2.472-0.071-4.942-0.154-7.413c-0.239-7.097-0.084-14.2-0.319-21.295
	c-0.269-8.116-0.14-16.236-0.401-24.348c-0.236-7.341-0.155-14.684-0.364-22.023c-0.253-8.842-0.19-17.689-0.439-26.528
	c-0.207-7.341-0.145-14.684-0.358-22.023c-0.256-8.842-0.189-17.689-0.438-26.528c-0.21-7.414-0.144-14.83-0.362-22.241
	c-0.258-8.769-0.183-17.543-0.435-26.31c-0.212-7.414-0.158-14.829-0.361-22.241c-0.164-5.983-0.251-11.967-0.325-17.952
	c-0.012-0.899-0.472-1.702-0.76-2.531c-1.162-3.344-2.391-6.665-3.577-10c-2.229-6.275-4.445-12.554-6.669-18.83
	c-0.343-0.968-0.71-1.927-1.041-2.899c-0.175-0.512-0.365-0.985-0.99-1.186c-0.095,0.379-0.21,0.76-0.344,1.148
	c-2.318,6.721-4.472,13.499-6.674,20.26c-1.213,3.723-2.386,7.458-3.659,11.162c-0.341,0.992-0.724,1.986-0.957,2.997
	c-0.287,1.247-0.126,2.564-0.121,3.845c0.031,8.795,0.198,17.59,0.125,26.387c-0.061,7.341,0.156,14.681,0.101,22.025
	c-0.066,8.794,0.184,17.589,0.113,26.386c-0.06,7.341,0.156,14.682,0.101,22.026c-0.066,8.794,0.184,17.589,0.113,26.386
	c-0.06,7.341,0.159,14.681,0.1,22.025c-0.071,8.698,0.187,17.396,0.112,26.096c-0.065,7.438,0.147,14.875,0.104,22.316
	c-0.052,9.133,0.204,18.268,0.109,27.403c-0.052,4.943,0.287,9.887,0.004,14.829c-0.107,1.87-0.759,3.487-2.275,4.677
	c-0.724,0.566-0.776,0.735-0.2,1.157c1.243,0.912,1.866,2.178,2.307,3.612c0.274,0.887,0.247,1.826,0.588,2.69"/>
<path fill="none" stroke="#000000" stroke-width="2" stroke-linecap="round" stroke-linejoin="round" stroke-miterlimit="10" d="
	M186.291,220.376c0.846,81.166,1.692,162.331,2.532,243.497c0.006,0.642,0.137,1.129,0.569,1.692c1.305,1.7,2.682,3.317,4.224,4.806
	c1.517,1.462,3.208,2.674,4.974,3.816c1.565,1.015,3.297,1.632,4.996,2.289c2.787,1.079,5.753,1.53,8.728,1.662
	c2.882,0.128,5.777,0.028,8.644-0.364c2.312-0.315,4.607-0.755,6.893-1.228c0.965-0.2,1.901-0.473,2.535-1.328
	c0.282-0.381,0.707-0.433,1.154-0.457c1.666-0.088,2.836,0.841,3.672,2.267c-0.265,0.569-0.801,0.79-1.309,1.062
	c-2.697,1.443-5.445,2.773-8.237,4.031c-4.054,1.823-8.214,3.344-12.469,4.599c-3.023,0.892-6.09,1.626-9.203,2.161
	c-1.412,0.243-2.809,0.602-4.215,0.869c-1.084,0.205-2.184,0.812-3.34,0.221c-0.115-0.058-0.293-0.031-0.431,0.001
	c-1.365,0.309-2.764,0.183-4.144,0.294c-2.705,0.217-5.426,0.021-8.14-0.028c-0.121-0.002-0.249-0.032-0.366-0.05
	c-0.8-0.112-1.618-0.212-2.39,0.096c-0.345,0.137-0.635,0.064-0.951-0.005c-0.631-0.137-1.26-0.288-1.894-0.413
	c-2.617-0.513-5.256-0.897-7.867-1.443c-4.055-0.848-8.034-1.95-11.96-3.281c-4.96-1.682-9.746-3.76-14.452-6.041
	c-0.595-0.288-1.142-0.607-1.258-1.352c0.889-1.323,2-2.202,3.548-2.236c0.407-0.009,0.857,0.071,1.077,0.365
	c0.968,1.299,2.426,1.365,3.814,1.618c1.403,0.255,2.815,0.492,4.227,0.65c1.178,0.131,2.367,0.251,3.559,0.316
	c1.843,0.102,3.684,0.288,5.528,0.194c3.439-0.175,6.85-0.623,10.075-1.867c2.194-0.847,4.318-1.873,6.239-3.294
	c2.217-1.64,4.174-3.528,5.885-5.678c0.561-0.705,1.102-1.426,1.596-2.184c0.159-0.245,0.326-0.574,0.707-0.598"/>
<path fill="none" stroke="#000000" stroke-width="2" stroke-linecap="round" stroke-linejoin="round" stroke-miterlimit="10" d="
	M182.746,542.881c-0.5-0.447-1.161-0.409-1.754-0.55c-1.098-0.263-2.19-0.543-3.278-0.847c-0.424-0.118-0.603-0.326-0.6-0.798
	c0.011-1.769-0.025-3.537-0.044-5.307c-0.004-0.408-0.009-0.815,0.5-0.946c0.091-0.023,0.224-0.047,0.286,0
	c1.15,0.856,2.558,0.881,3.872,1.175c2.487,0.557,5.023,0.73,7.565,0.728c3.587-0.005,7.093-0.591,10.521-1.638
	c0.282-0.086,0.527-0.298,0.774-0.442c0.682,0.242,0.788,0.741,0.777,1.38c-0.024,1.453,0.018,2.907,0.033,4.361
	c0.008,0.754-0.268,1.161-1.004,1.387c-1.034,0.319-2.078,0.604-3.115,0.911c-1.28,0.38-2.612,0.421-3.919,0.625
	c-1.301,0.202-2.618,0.313-3.922,0.3c-1.994-0.021-4.001-0.047-5.968-0.485c-0.472-0.106-0.672,0.154-0.651,0.654
	c0.125,3.113,2.156,5.289,5.163,5.948c3.736,0.818,7.872-1.29,8.532-5.433c0.068-0.425,0.133-0.822,0.042-1.24"/>
<path fill="none" stroke="#000000" stroke-width="2" stroke-linecap="round" stroke-linejoin="round" stroke-miterlimit="10" d="
	M177.859,534.354c0.411-0.852,1.363-0.961,2.022-1.474c0.153-0.119,0.354-0.156,0.507-0.295c0.816-0.737,1.776-0.689,2.754-0.465
	c1.174,0.27,2.368,0.326,3.564,0.425c0.926,0.076,1.846,0.126,2.766,0.078c2.375-0.123,4.757-0.231,7.042-1.003
	c0.151-0.051,0.292,0.041,0.441,0.126c0.99,0.564,1.994,1.104,2.993,1.65c0.324,0.177,0.677,0.331,0.662,0.793"/>
<path fill="none" stroke="#000000" stroke-width="2" stroke-linecap="round" stroke-linejoin="round" stroke-miterlimit="10" d="
	M181.758,531.77c-0.265-1.019-0.012-1.968,0.498-2.829c0.255-0.431,0.271-0.676-0.013-1.113c-1.276-1.958-0.888-4.148,0.13-6.1
	c0.093-0.181,0.22-0.187,0.368-0.219c4.126-0.919,8.215-1.99,12.329-2.957c0.429-0.101,0.847-0.285,1.305-0.237"/>
<path fill="none" stroke="#000000" stroke-width="2" stroke-linecap="round" stroke-linejoin="round" stroke-miterlimit="10" d="
	M182.594,528.271c2.327-0.4,4.587-1.09,6.886-1.613c2.085-0.475,4.141-1.076,6.238-1.508c0.542-0.111,0.913-0.413,1.166-0.947
	c0.845-1.782,0.738-3.527-0.155-5.229c-0.267-0.509-0.244-0.817,0.048-1.333c1.071-1.891,0.851-3.799-0.179-5.652
	c-0.085-0.152-0.195-0.29-0.294-0.434"/>
<path fill="none" stroke="#000000" stroke-width="2" stroke-linecap="round" stroke-linejoin="round" stroke-miterlimit="10" d="
	M182.453,514.752c2.638-0.49,5.227-1.194,7.833-1.822c1.88-0.453,3.767-0.883,5.659-1.284c0.314-0.065,0.436-0.233,0.574-0.457
	c1.052-1.689,0.981-3.45,0.301-5.233c-0.146-0.383-0.388-0.727-0.586-1.088"/>
<path fill="none" stroke="#000000" stroke-width="2" stroke-linecap="round" stroke-linejoin="round" stroke-miterlimit="10" d="
	M182.313,501.378c2.601-0.444,5.12-1.236,7.689-1.812c1.888-0.423,3.739-1.004,5.653-1.316c0.275-0.045,0.479-0.196,0.672-0.492
	c1.124-1.726,1.016-3.508,0.34-5.318c-0.127-0.338-0.295-0.675-0.428-1.02"/>
<path fill="none" stroke="#000000" stroke-width="2" stroke-linecap="round" stroke-linejoin="round" stroke-miterlimit="10" d="
	M182.451,521.513c-1.36-1.81-1.38-3.753-0.477-5.729c0.303-0.661,0.363-1.078-0.066-1.779c-0.847-1.384-0.718-2.935-0.254-4.483
	c0.331-1.104,0.962-1.545,2.099-1.8c3.882-0.868,7.755-1.784,11.62-2.732c0.682-0.167,1.02-0.408,1.299-0.993
	c0.914-1.92,0.72-3.744-0.349-5.532c-0.062-0.102-0.225-0.187-0.159-0.355"/>
<path fill="none" stroke="#000000" stroke-width="2" stroke-linecap="round" stroke-linejoin="round" stroke-miterlimit="10" d="
	M189.187,498.181c-0.339-1.348,0.389-2.302,1.205-3.209c1.381-1.536,3.098-2.603,4.984-3.383c0.745-0.307,1.537-0.475,1.943-1.271"
	/>
<path fill="none" stroke="#000000" stroke-width="2" stroke-linecap="round" stroke-linejoin="round" stroke-miterlimit="10" d="
	M182.31,507.993c-1.37-1.783-1.35-3.721-0.462-5.65c0.302-0.658,0.345-1.07-0.029-1.699c-0.916-1.54-0.796-3.17-0.14-4.783
	c0.154-0.38,0.357-0.74,0.558-1.152c-0.492-0.727-0.861-1.559-1.042-2.478c-0.153-0.776,0.074-1.044,0.795-0.803
	c1.149,0.386,2.245,0.899,3.213,1.638c0.554,0.422,0.526,0.682-0.135,0.931c-0.906,0.341-1.846,0.585-2.825,0.622"/>
<path fill="none" stroke="#000000" stroke-width="2" stroke-linecap="round" stroke-linejoin="round" stroke-miterlimit="10" d="
	M196.73,531.541c0.023-0.146,0.005-0.315,0.074-0.434c1.172-1.987,0.835-3.914-0.21-5.818c-0.063-0.113-0.101-0.239-0.151-0.36"/>
<path fill="none" stroke="#000000" stroke-width="2" stroke-linecap="round" stroke-linejoin="round" stroke-miterlimit="10" d="
	M189.096,496.509c-0.704-0.438-1.05-1.221-1.683-1.735c-0.549-0.447-0.958-1.094-1.764-1.137"/>
<circle fill="none" stroke="#000000" stroke-width="1.5" stroke-linecap="round" stroke-linejoin="round" stroke-miterlimit="22.926" cx="402.896" cy="171.916" r="5.542"/>
<circle fill="none" stroke="#000000" stroke-width="1.5" stroke-linecap="round" stroke-linejoin="round" stroke-miterlimit="22.926" cx="450.087" cy="250.803" r="5.542"/>
<rect y="0" fill="none" width="878.582" height="841.89"/>
</svg>
