  0
SECTION
  2
HEADER
  9
$ACADVER
  1
AC1014
  9
$ACADMAINTVER
 70
     9
  9
$DWGCODEPAGE
  3
ANSI_932
  9
$INSBASE
 10
0.0
 20
0.0
 30
0.0
  9
$EXTMIN
 10
1.000000000000000E+20
 20
1.000000000000000E+20
 30
1.000000000000000E+20
  9
$EXTMAX
 10
-1.000000000000000E+20
 20
-1.000000000000000E+20
 30
-1.000000000000000E+20
  9
$LIMMIN
 10
0.0
 20
0.0
  9
$LIMMAX
 10
12.0
 20
9.0
  9
$ORTHOMODE
 70
     0
  9
$REGENMODE
 70
     1
  9
$FILLMODE
 70
     1
  9
$QTEXTMODE
 70
     0
  9
$MIRRTEXT
 70
     1
  9
$DRAGMODE
 70
     2
  9
$LTSCALE
 40
1.0
  9
$OSMODE
 70
    37
  9
$ATTMODE
 70
     1
  9
$TEXTSIZE
 40
0.2
  9
$TRACEWID
 40
0.05
  9
$TEXTSTYLE
  7
STANDARD
  9
$CLAYER
  8
0
  9
$CELTYPE
  6
BYLAYER
  9
$CECOLOR
 62
   256
  9
$CELTSCALE
 40
1.0
  9
$DELOBJ
 70
     1
  9
$DISPSILH
 70
     0
  9
$DIMSCALE
 40
1.0
  9
$DIMASZ
 40
0.18
  9
$DIMEXO
 40
0.0625
  9
$DIMDLI
 40
0.38
  9
$DIMRND
 40
0.0
  9
$DIMDLE
 40
0.0
  9
$DIMEXE
 40
0.18
  9
$DIMTP
 40
0.0
  9
$DIMTM
 40
0.0
  9
$DIMTXT
 40
0.18
  9
$DIMCEN
 40
0.09
  9
$DIMTSZ
 40
0.0
  9
$DIMTOL
 70
     0
  9
$DIMLIM
 70
     0
  9
$DIMTIH
 70
     1
  9
$DIMTOH
 70
     1
  9
$DIMSE1
 70
     0
  9
$DIMSE2
 70
     0
  9
$DIMTAD
 70
     0
  9
$DIMZIN
 70
     0
  9
$DIMBLK
  1

  9
$DIMASO
 70
     1
  9
$DIMSHO
 70
     1
  9
$DIMPOST
  1

  9
$DIMAPOST
  1

  9
$DIMALT
 70
     0
  9
$DIMALTD
 70
     2
  9
$DIMALTF
 40
25.4
  9
$DIMLFAC
 40
1.0
  9
$DIMTOFL
 70
     0
  9
$DIMTVP
 40
0.0
  9
$DIMTIX
 70
     0
  9
$DIMSOXD
 70
     0
  9
$DIMSAH
 70
     0
  9
$DIMBLK1
  1

  9
$DIMBLK2
  1

  9
$DIMSTYLE
  2
STANDARD
  9
$DIMCLRD
 70
     0
  9
$DIMCLRE
 70
     0
  9
$DIMCLRT
 70
     0
  9
$DIMTFAC
 40
1.0
  9
$DIMGAP
 40
0.09
  9
$DIMJUST
 70
     0
  9
$DIMSD1
 70
     0
  9
$DIMSD2
 70
     0
  9
$DIMTOLJ
 70
     1
  9
$DIMTZIN
 70
     0
  9
$DIMALTZ
 70
     0
  9
$DIMALTTZ
 70
     0
  9
$DIMFIT
 70
     3
  9
$DIMUPT
 70
     0
  9
$DIMUNIT
 70
     2
  9
$DIMDEC
 70
     4
  9
$DIMTDEC
 70
     4
  9
$DIMALTU
 70
     2
  9
$DIMALTTD
 70
     2
  9
$DIMTXSTY
  7
STANDARD
  9
$DIMAUNIT
 70
     0
  9
$LUNITS
 70
     2
  9
$LUPREC
 70
     4
  9
$SKETCHINC
 40
0.1
  9
$FILLETRAD
 40
0.5
  9
$AUNITS
 70
     0
  9
$AUPREC
 70
     0
  9
$MENU
  1
.
  9
$ELEVATION
 40
0.0
  9
$PELEVATION
 40
0.0
  9
$THICKNESS
 40
0.0
  9
$LIMCHECK
 70
     0
  9
$CHAMFERA
 40
0.5
  9
$CHAMFERB
 40
0.5
  9
$CHAMFERC
 40
1.0
  9
$CHAMFERD
 40
0.0
  9
$SKPOLY
 70
     0
  9
$TDCREATE
 40
2457137.698171296
  9
$TDUPDATE
 40
2457137.698171308
  9
$TDINDWG
 40
0.0000000116
  9
$TDUSRTIMER
 40
0.0000000116
  9
$USRTIMER
 70
     1
  9
$ANGBASE
 50
0.0
  9
$ANGDIR
 70
     0
  9
$PDMODE
 70
     0
  9
$PDSIZE
 40
0.0
  9
$PLINEWID
 40
0.0
  9
$COORDS
 70
     1
  9
$SPLFRAME
 70
     0
  9
$SPLINETYPE
 70
     6
  9
$SPLINESEGS
 70
     8
  9
$ATTDIA
 70
     0
  9
$ATTREQ
 70
     1
  9
$HANDLING
 70
     1
  9
$HANDSEED
  5
156
  9
$SURFTAB1
 70
     6
  9
$SURFTAB2
 70
     6
  9
$SURFTYPE
 70
     6
  9
$SURFU
 70
     6
  9
$SURFV
 70
     6
  9
$UCSNAME
  2

  9
$UCSORG
 10
0.0
 20
0.0
 30
0.0
  9
$UCSXDIR
 10
1.0
 20
0.0
 30
0.0
  9
$UCSYDIR
 10
0.0
 20
1.0
 30
0.0
  9
$PUCSNAME
  2

  9
$PUCSORG
 10
0.0
 20
0.0
 30
0.0
  9
$PUCSXDIR
 10
1.0
 20
0.0
 30
0.0
  9
$PUCSYDIR
 10
0.0
 20
1.0
 30
0.0
  9
$USERI1
 70
     0
  9
$USERI2
 70
     0
  9
$USERI3
 70
     0
  9
$USERI4
 70
     0
  9
$USERI5
 70
     0
  9
$USERR1
 40
0.0
  9
$USERR2
 40
0.0
  9
$USERR3
 40
0.0
  9
$USERR4
 40
0.0
  9
$USERR5
 40
0.0
  9
$WORLDVIEW
 70
     1
  9
$SHADEDGE
 70
     3
  9
$SHADEDIF
 70
    70
  9
$TILEMODE
 70
     1
  9
$MAXACTVP
 70
    64
  9
$PINSBASE
 10
0.0
 20
0.0
 30
0.0
  9
$PLIMCHECK
 70
     0
  9
$PEXTMIN
 10
1.000000000000000E+20
 20
1.000000000000000E+20
 30
1.000000000000000E+20
  9
$PEXTMAX
 10
-1.000000000000000E+20
 20
-1.000000000000000E+20
 30
-1.000000000000000E+20
  9
$PLIMMIN
 10
0.0
 20
0.0
  9
$PLIMMAX
 10
12.0
 20
9.0
  9
$UNITMODE
 70
     0
  9
$VISRETAIN
 70
     1
  9
$PLINEGEN
 70
     0
  9
$PSLTSCALE
 70
     1
  9
$TREEDEPTH
 70
  3020
  9
$PICKSTYLE
 70
     1
  9
$CMLSTYLE
  2
STANDARD
  9
$CMLJUST
 70
     0
  9
$CMLSCALE
 40
1.0
  9
$PROXYGRAPHICS
 70
     1
  9
$MEASUREMENT
 70
     0
  0
ENDSEC
  0
SECTION
  2
CLASSES
  0
CLASS
  1
ACDBDICTIONARYWDFLT
  2
AcDbDictionaryWithDefault
  3
ObjectDBX Classes
 90
        0
280
     0
281
     0
  0
CLASS
  1
VISUALSTYLE
  2
AcDbVisualStyle
  3
ObjectDBX Classes
 90
     4095
280
     0
281
     0
  0
CLASS
  1
XRECORD
  2
AcDbXrecord
  3
AutoCAD 2000
 90
        0
280
     0
281
     0
  0
CLASS
  1
LWPOLYLINE
  2
AcDbPolyline
  3
AutoCAD 2000
 90
        0
280
     0
281
     1
  0
CLASS
  1
HATCH
  2
AcDbHatch
  3
AutoCAD 2000
 90
        0
280
     0
281
     1
  0
CLASS
  1
ACDBPLACEHOLDER
  2
AcDbPlaceHolder
  3
ObjectDBX Classes
 90
        0
280
     0
281
     0
  0
CLASS
  1
LAYOUT
  2
AcDbLayout
  3
ObjectDBX Classes
 90
        0
280
     0
281
     0
  0
ENDSEC
  0
SECTION
  2
TABLES
  0
TABLE
  2
VPORT
  5
8
330
0
100
AcDbSymbolTable
 70
     1
  0
VPORT
  5
29
330
8
100
AcDbSymbolTableRecord
100
AcDbViewportTableRecord
  2
*ACTIVE
 70
     0
 10
0.0
 20
0.0
 11
1.0
 21
1.0
 12
0.0
 22
0.0
 13
0.0
 23
0.0
 14
0.5
 24
0.5
 15
0.5
 25
0.5
 16
0.0
 26
0.0
 36
1.0
 17
421.58642578125
 27
420.94580078125
 37
0.0
 40
841.8896484375
 41
1.001524193969342
 42
50.0
 43
0.0
 44
0.0
 50
0.0
 51
0.0
 71
     0
 72
   100
 73
     1
 74
     3
 75
     0
 76
     0
 77
     0
 78
     0
  0
ENDTAB
  0
TABLE
  2
LTYPE
  5
5
330
0
100
AcDbSymbolTable
 70
     1
  0
LTYPE
  5
14
330
5
100
AcDbSymbolTableRecord
100
AcDbLinetypeTableRecord
  2
BYBLOCK
 70
     0
  3

 72
    65
 73
     0
 40
0.0
  0
LTYPE
  5
15
330
5
100
AcDbSymbolTableRecord
100
AcDbLinetypeTableRecord
  2
BYLAYER
 70
     0
  3

 72
    65
 73
     0
 40
0.0
  0
LTYPE
  5
16
330
5
100
AcDbSymbolTableRecord
100
AcDbLinetypeTableRecord
  2
CONTINUOUS
 70
     0
  3
Solid line
 72
    65
 73
     0
 40
0.0
  0
ENDTAB
  0
TABLE
  2
LAYER
  5
2
330
0
100
AcDbSymbolTable
 70
     2
  0
LAYER
  5
10
330
2
100
AcDbSymbolTableRecord
100
AcDbLayerTableRecord
  2
0
 70
     0
 62
     7
  6
CONTINUOUS
  0
LAYER
  5
3B
330
2
100
AcDbSymbolTableRecord
100
AcDbLayerTableRecord
  2
LAYER_1
 70
     0
 62
     7
  6
CONTINUOUS
  0
ENDTAB
  0
TABLE
  2
STYLE
  5
3
330
0
100
AcDbSymbolTable
 70
     1
  0
STYLE
  5
11
330
3
100
AcDbSymbolTableRecord
100
AcDbTextStyleTableRecord
  2
STANDARD
 70
     0
 40
0.0
 41
1.0
 50
0.0
 71
     0
 42
0.2
  3
txt
  4

  0
ENDTAB
  0
TABLE
  2
VIEW
  5
6
330
0
100
AcDbSymbolTable
 70
     0
  0
ENDTAB
  0
TABLE
  2
UCS
  5
7
330
0
100
AcDbSymbolTable
 70
     0
  0
ENDTAB
  0
TABLE
  2
APPID
  5
9
330
0
100
AcDbSymbolTable
 70
     1
  0
APPID
  5
12
330
9
100
AcDbSymbolTableRecord
100
AcDbRegAppTableRecord
  2
ACAD
 70
     0
  0
ENDTAB
  0
TABLE
  2
DIMSTYLE
  5
A
330
0
100
AcDbSymbolTable
 70
     1
  0
DIMSTYLE
105
27
330
A
100
AcDbSymbolTableRecord
100
AcDbDimStyleTableRecord
  2
STANDARD
 70
     0
  3

  4

  5

  6

  7

 40
1.0
 41
0.18
 42
0.0625
 43
0.38
 44
0.18
 45
0.0
 46
0.0
 47
0.0
 48
0.0
140
0.18
141
0.09
142
0.0
143
25.4
144
1.0
145
0.0
146
1.0
147
0.09
 71
     0
 72
     0
 73
     1
 74
     1
 75
     0
 76
     0
 77
     0
 78
     0
170
     0
171
     2
172
     0
173
     0
174
     0
175
     0
176
     0
177
     0
178
     0
270
     2
271
     4
272
     4
273
     2
274
     2
340
11
275
     0
280
     0
281
     0
282
     0
283
     1
284
     0
285
     0
286
     0
287
     3
288
     0
  0
ENDTAB
  0
TABLE
  2
BLOCK_RECORD
  5
1
330
0
100
AcDbSymbolTable
 70
     5
  0
BLOCK_RECORD
  5
1F
330
1
100
AcDbSymbolTableRecord
100
AcDbBlockTableRecord
  2
*MODEL_SPACE
  0
BLOCK_RECORD
  5
1B
330
1
100
AcDbSymbolTableRecord
100
AcDbBlockTableRecord
  2
*PAPER_SPACE
  0
BLOCK_RECORD
  5
68
330
1
100
AcDbSymbolTableRecord
100
AcDbBlockTableRecord
  2
BLOCK_2
  0
BLOCK_RECORD
  5
9D
330
1
100
AcDbSymbolTableRecord
100
AcDbBlockTableRecord
  2
BLOCK_3
  0
BLOCK_RECORD
  5
EA
330
1
100
AcDbSymbolTableRecord
100
AcDbBlockTableRecord
  2
BLOCK_4
  0
BLOCK_RECORD
  5
108
330
1
100
AcDbSymbolTableRecord
100
AcDbBlockTableRecord
  2
BLOCK_5
  0
ENDTAB
  0
ENDSEC
  0
SECTION
  2
BLOCKS
  0
BLOCK
  5
20
330
1F
100
AcDbEntity
  8
0
100
AcDbBlockBegin
  2
*MODEL_SPACE
 70
     0
 71
     0
 10
0.0
 20
0.0
 30
0.0
  3
*MODEL_SPACE
  1

  0
ENDBLK
  5
21
330
1F
100
AcDbEntity
  8
0
100
AcDbBlockEnd
  0
BLOCK
  5
1C
330
1B
100
AcDbEntity
 67
     1
  8
0
100
AcDbBlockBegin
  2
*PAPER_SPACE
 70
     0
 71
     0
 10
0.0
 20
0.0
 30
0.0
  3
*PAPER_SPACE
  1

  0
ENDBLK
  5
1D
330
1B
100
AcDbEntity
 67
     1
  8
0
100
AcDbBlockEnd
  0
BLOCK
  5
6A
330
68
100
AcDbEntity
  8
0
100
AcDbBlockBegin
  2
BLOCK_2
 70
     0
 71
     0
 10
0.0
 20
0.0
 30
0.0
  3
BLOCK_2
  1

  0
SPLINE
  5
6C
330
68
100
AcDbEntity
  8
LAYER_1
 62
   250
100
AcDbSpline
210
0.0
220
0.0
230
1.0
 70
    11
 71
     3
 72
    29
 73
    25
 74
     0
 42
0.0000000001
 43
0.0000000001
 40
0.0
 40
0.0
 40
0.0
 40
0.0
 40
1.0
 40
1.0
 40
1.0
 40
2.0
 40
2.0
 40
2.0
 40
3.0
 40
3.0
 40
3.0
 40
4.0
 40
4.0
 40
4.0
 40
5.0
 40
5.0
 40
5.0
 40
6.0
 40
6.0
 40
6.0
 40
7.0
 40
7.0
 40
7.0
 40
8.0
 40
8.0
 40
8.0
 40
8.0
 10
750.7197265625
 20
357.185546875
 30
0.0
 10
750.7197265625
 20
357.185546875
 30
0.0
 10
711.705078125
 20
357.185546875
 30
0.0
 10
711.705078125
 20
357.185546875
 30
0.0
 10
706.0517578125
 20
357.185546875
 30
0.0
 10
701.42578125
 20
352.5595703125
 30
0.0
 10
701.42578125
 20
346.90625
 30
0.0
 10
701.42578125
 20
346.90625
 30
0.0
 10
701.42578125
 20
346.666015625
 30
0.0
 10
701.42578125
 20
346.666015625
 30
0.0
 10
701.42578125
 20
341.01171875
 30
0.0
 10
706.0517578125
 20
336.3857421875
 30
0.0
 10
711.705078125
 20
336.3857421875
 30
0.0
 10
711.705078125
 20
336.3857421875
 30
0.0
 10
750.7197265625
 20
336.3857421875
 30
0.0
 10
750.7197265625
 20
336.3857421875
 30
0.0
 10
756.373046875
 20
336.3857421875
 30
0.0
 10
760.9990234375
 20
341.01171875
 30
0.0
 10
760.9990234375
 20
346.666015625
 30
0.0
 10
760.9990234375
 20
346.666015625
 30
0.0
 10
760.9990234375
 20
346.90625
 30
0.0
 10
760.9990234375
 20
346.90625
 30
0.0
 10
760.9990234375
 20
352.5595703125
 30
0.0
 10
756.373046875
 20
357.185546875
 30
0.0
 10
750.7197265625
 20
357.185546875
 30
0.0
  0
SPLINE
  5
6D
330
68
100
AcDbEntity
  8
LAYER_1
 62
   250
100
AcDbSpline
210
0.0
220
0.0
230
1.0
 70
    11
 71
     3
 72
    29
 73
    25
 74
     0
 42
0.0000000001
 43
0.0000000001
 40
0.0
 40
0.0
 40
0.0
 40
0.0
 40
1.0
 40
1.0
 40
1.0
 40
2.0
 40
2.0
 40
2.0
 40
3.0
 40
3.0
 40
3.0
 40
4.0
 40
4.0
 40
4.0
 40
5.0
 40
5.0
 40
5.0
 40
6.0
 40
6.0
 40
6.0
 40
7.0
 40
7.0
 40
7.0
 40
8.0
 40
8.0
 40
8.0
 40
8.0
 10
750.7197265625
 20
387.185546875
 30
0.0
 10
750.7197265625
 20
387.185546875
 30
0.0
 10
711.705078125
 20
387.185546875
 30
0.0
 10
711.705078125
 20
387.185546875
 30
0.0
 10
706.0517578125
 20
387.185546875
 30
0.0
 10
701.42578125
 20
382.5595703125
 30
0.0
 10
701.42578125
 20
376.90625
 30
0.0
 10
701.42578125
 20
376.90625
 30
0.0
 10
701.42578125
 20
376.666015625
 30
0.0
 10
701.42578125
 20
376.666015625
 30
0.0
 10
701.42578125
 20
371.01171875
 30
0.0
 10
706.0517578125
 20
366.3857421875
 30
0.0
 10
711.705078125
 20
366.3857421875
 30
0.0
 10
711.705078125
 20
366.3857421875
 30
0.0
 10
750.7197265625
 20
366.3857421875
 30
0.0
 10
750.7197265625
 20
366.3857421875
 30
0.0
 10
756.373046875
 20
366.3857421875
 30
0.0
 10
760.9990234375
 20
371.01171875
 30
0.0
 10
760.9990234375
 20
376.666015625
 30
0.0
 10
760.9990234375
 20
376.666015625
 30
0.0
 10
760.9990234375
 20
376.90625
 30
0.0
 10
760.9990234375
 20
376.90625
 30
0.0
 10
760.9990234375
 20
382.5595703125
 30
0.0
 10
756.373046875
 20
387.185546875
 30
0.0
 10
750.7197265625
 20
387.185546875
 30
0.0
  0
SPLINE
  5
6E
330
68
100
AcDbEntity
  8
LAYER_1
 62
   250
100
AcDbSpline
210
0.0
220
0.0
230
1.0
 70
    11
 71
     3
 72
    29
 73
    25
 74
     0
 42
0.0000000001
 43
0.0000000001
 40
0.0
 40
0.0
 40
0.0
 40
0.0
 40
1.0
 40
1.0
 40
1.0
 40
2.0
 40
2.0
 40
2.0
 40
3.0
 40
3.0
 40
3.0
 40
4.0
 40
4.0
 40
4.0
 40
5.0
 40
5.0
 40
5.0
 40
6.0
 40
6.0
 40
6.0
 40
7.0
 40
7.0
 40
7.0
 40
8.0
 40
8.0
 40
8.0
 40
8.0
 10
750.7197265625
 20
417.185546875
 30
0.0
 10
750.7197265625
 20
417.185546875
 30
0.0
 10
711.705078125
 20
417.185546875
 30
0.0
 10
711.705078125
 20
417.185546875
 30
0.0
 10
706.0517578125
 20
417.185546875
 30
0.0
 10
701.42578125
 20
412.5595703125
 30
0.0
 10
701.42578125
 20
406.90625
 30
0.0
 10
701.42578125
 20
406.90625
 30
0.0
 10
701.42578125
 20
406.666015625
 30
0.0
 10
701.42578125
 20
406.666015625
 30
0.0
 10
701.42578125
 20
401.01171875
 30
0.0
 10
706.0517578125
 20
396.3857421875
 30
0.0
 10
711.705078125
 20
396.3857421875
 30
0.0
 10
711.705078125
 20
396.3857421875
 30
0.0
 10
750.7197265625
 20
396.3857421875
 30
0.0
 10
750.7197265625
 20
396.3857421875
 30
0.0
 10
756.373046875
 20
396.3857421875
 30
0.0
 10
760.9990234375
 20
401.01171875
 30
0.0
 10
760.9990234375
 20
406.666015625
 30
0.0
 10
760.9990234375
 20
406.666015625
 30
0.0
 10
760.9990234375
 20
406.90625
 30
0.0
 10
760.9990234375
 20
406.90625
 30
0.0
 10
760.9990234375
 20
412.5595703125
 30
0.0
 10
756.373046875
 20
417.185546875
 30
0.0
 10
750.7197265625
 20
417.185546875
 30
0.0
  0
SPLINE
  5
6F
330
68
100
AcDbEntity
  8
LAYER_1
 62
     7
100
AcDbSpline
210
0.0
220
0.0
230
1.0
 70
    11
 71
     3
 72
    65
 73
    61
 74
     0
 42
0.0000000001
 43
0.0000000001
 40
0.0
 40
0.0
 40
0.0
 40
0.0
 40
1.0
 40
1.0
 40
1.0
 40
2.0
 40
2.0
 40
2.0
 40
3.0
 40
3.0
 40
3.0
 40
4.0
 40
4.0
 40
4.0
 40
5.0
 40
5.0
 40
5.0
 40
6.0
 40
6.0
 40
6.0
 40
7.0
 40
7.0
 40
7.0
 40
8.0
 40
8.0
 40
8.0
 40
9.0
 40
9.0
 40
9.0
 40
10.0
 40
10.0
 40
10.0
 40
11.0
 40
11.0
 40
11.0
 40
12.0
 40
12.0
 40
12.0
 40
13.0
 40
13.0
 40
13.0
 40
14.0
 40
14.0
 40
14.0
 40
15.0
 40
15.0
 40
15.0
 40
16.0
 40
16.0
 40
16.0
 40
17.0
 40
17.0
 40
17.0
 40
18.0
 40
18.0
 40
18.0
 40
19.0
 40
19.0
 40
19.0
 40
20.0
 40
20.0
 40
20.0
 40
20.0
 10
616.810546875
 20
343.9580078125
 30
0.0
 10
616.810546875
 20
343.9580078125
 30
0.0
 10
615.671875
 20
343.9580078125
 30
0.0
 10
615.671875
 20
343.9580078125
 30
0.0
 10
614.92578125
 20
342.6669921875
 30
0.0
 10
613.8486328125
 20
341.591796875
 30
0.0
 10
612.55859375
 20
340.8447265625
 30
0.0
 10
612.55859375
 20
340.8447265625
 30
0.0
 10
612.55859375
 20
339.7060546875
 30
0.0
 10
612.55859375
 20
339.7060546875
 30
0.0
 10
612.55859375
 20
339.7060546875
 30
0.0
 10
608.306640625
 20
339.7060546875
 30
0.0
 10
608.306640625
 20
339.7060546875
 30
0.0
 10
608.306640625
 20
339.7060546875
 30
0.0
 10
604.0546875
 20
339.7060546875
 30
0.0
 10
604.0546875
 20
339.7060546875
 30
0.0
 10
604.0546875
 20
339.7060546875
 30
0.0
 10
604.0546875
 20
340.8447265625
 30
0.0
 10
604.0546875
 20
340.8447265625
 30
0.0
 10
602.763671875
 20
341.591796875
 30
0.0
 10
601.6875
 20
342.6669921875
 30
0.0
 10
600.939453125
 20
343.9580078125
 30
0.0
 10
600.939453125
 20
343.9580078125
 30
0.0
 10
599.8017578125
 20
343.9580078125
 30
0.0
 10
599.8017578125
 20
343.9580078125
 30
0.0
 10
599.8017578125
 20
343.9580078125
 30
0.0
 10
599.8017578125
 20
348.2099609375
 30
0.0
 10
599.8017578125
 20
348.2099609375
 30
0.0
 10
599.8017578125
 20
348.2099609375
 30
0.0
 10
599.8017578125
 20
352.4619140625
 30
0.0
 10
599.8017578125
 20
352.4619140625
 30
0.0
 10
599.8017578125
 20
352.4619140625
 30
0.0
 10
600.939453125
 20
352.4619140625
 30
0.0
 10
600.939453125
 20
352.4619140625
 30
0.0
 10
601.6875
 20
353.7529296875
 30
0.0
 10
602.763671875
 20
354.8291015625
 30
0.0
 10
604.0546875
 20
355.576171875
 30
0.0
 10
604.0546875
 20
355.576171875
 30
0.0
 10
604.0546875
 20
356.71484375
 30
0.0
 10
604.0546875
 20
356.71484375
 30
0.0
 10
604.0546875
 20
356.71484375
 30
0.0
 10
608.306640625
 20
356.71484375
 30
0.0
 10
608.306640625
 20
356.71484375
 30
0.0
 10
608.306640625
 20
356.71484375
 30
0.0
 10
612.55859375
 20
356.71484375
 30
0.0
 10
612.55859375
 20
356.71484375
 30
0.0
 10
612.55859375
 20
356.71484375
 30
0.0
 10
612.55859375
 20
355.576171875
 30
0.0
 10
612.55859375
 20
355.576171875
 30
0.0
 10
613.8486328125
 20
354.8291015625
 30
0.0
 10
614.92578125
 20
353.7529296875
 30
0.0
 10
615.671875
 20
352.4619140625
 30
0.0
 10
615.671875
 20
352.4619140625
 30
0.0
 10
616.810546875
 20
352.4619140625
 30
0.0
 10
616.810546875
 20
352.4619140625
 30
0.0
 10
616.810546875
 20
352.4619140625
 30
0.0
 10
616.810546875
 20
348.2099609375
 30
0.0
 10
616.810546875
 20
348.2099609375
 30
0.0
 10
616.810546875
 20
348.2099609375
 30
0.0
 10
616.810546875
 20
343.9580078125
 30
0.0
 10
616.810546875
 20
343.9580078125
 30
0.0
  0
POLYLINE
  5
70
330
68
100
AcDbEntity
  8
LAYER_1
 62
     7
100
AcDb2dPolyline
 66
     1
 10
0.0
 20
0.0
 30
0.0
  0
VERTEX
  5
71
330
70
100
AcDbEntity
  8
LAYER_1
 62
     7
100
AcDbVertex
100
AcDb2dVertex
 10
612.55859375
 20
368.052734375
 30
0.0
  0
VERTEX
  5
72
330
70
100
AcDbEntity
  8
LAYER_1
 62
     7
100
AcDbVertex
100
AcDb2dVertex
 10
604.0546875
 20
368.052734375
 30
0.0
  0
VERTEX
  5
73
330
70
100
AcDbEntity
  8
LAYER_1
 62
     7
100
AcDbVertex
100
AcDb2dVertex
 10
604.0546875
 20
385.0615234375
 30
0.0
  0
VERTEX
  5
74
330
70
100
AcDbEntity
  8
LAYER_1
 62
     7
100
AcDbVertex
100
AcDb2dVertex
 10
612.55859375
 20
385.0615234375
 30
0.0
  0
VERTEX
  5
75
330
70
100
AcDbEntity
  8
LAYER_1
 62
     7
100
AcDbVertex
100
AcDb2dVertex
 10
612.55859375
 20
368.052734375
 30
0.0
  0
SEQEND
  5
76
330
70
100
AcDbEntity
  8
LAYER_1
  0
SPLINE
  5
77
330
68
100
AcDbEntity
  8
LAYER_1
 62
     7
100
AcDbSpline
210
0.0
220
0.0
230
1.0
 70
    11
 71
     3
 72
    65
 73
    61
 74
     0
 42
0.0000000001
 43
0.0000000001
 40
0.0
 40
0.0
 40
0.0
 40
0.0
 40
1.0
 40
1.0
 40
1.0
 40
2.0
 40
2.0
 40
2.0
 40
3.0
 40
3.0
 40
3.0
 40
4.0
 40
4.0
 40
4.0
 40
5.0
 40
5.0
 40
5.0
 40
6.0
 40
6.0
 40
6.0
 40
7.0
 40
7.0
 40
7.0
 40
8.0
 40
8.0
 40
8.0
 40
9.0
 40
9.0
 40
9.0
 40
10.0
 40
10.0
 40
10.0
 40
11.0
 40
11.0
 40
11.0
 40
12.0
 40
12.0
 40
12.0
 40
13.0
 40
13.0
 40
13.0
 40
14.0
 40
14.0
 40
14.0
 40
15.0
 40
15.0
 40
15.0
 40
16.0
 40
16.0
 40
16.0
 40
17.0
 40
17.0
 40
17.0
 40
18.0
 40
18.0
 40
18.0
 40
19.0
 40
19.0
 40
19.0
 40
20.0
 40
20.0
 40
20.0
 40
20.0
 10
616.810546875
 20
400.6513671875
 30
0.0
 10
616.810546875
 20
400.6513671875
 30
0.0
 10
615.671875
 20
400.6513671875
 30
0.0
 10
615.671875
 20
400.6513671875
 30
0.0
 10
614.92578125
 20
399.3603515625
 30
0.0
 10
613.8486328125
 20
398.2841796875
 30
0.0
 10
612.55859375
 20
397.537109375
 30
0.0
 10
612.55859375
 20
397.537109375
 30
0.0
 10
612.55859375
 20
396.3994140625
 30
0.0
 10
612.55859375
 20
396.3994140625
 30
0.0
 10
612.55859375
 20
396.3994140625
 30
0.0
 10
608.306640625
 20
396.3994140625
 30
0.0
 10
608.306640625
 20
396.3994140625
 30
0.0
 10
608.306640625
 20
396.3994140625
 30
0.0
 10
604.0546875
 20
396.3994140625
 30
0.0
 10
604.0546875
 20
396.3994140625
 30
0.0
 10
604.0546875
 20
396.3994140625
 30
0.0
 10
604.0546875
 20
397.537109375
 30
0.0
 10
604.0546875
 20
397.537109375
 30
0.0
 10
602.763671875
 20
398.2841796875
 30
0.0
 10
601.6875
 20
399.3603515625
 30
0.0
 10
600.939453125
 20
400.6513671875
 30
0.0
 10
600.939453125
 20
400.6513671875
 30
0.0
 10
599.8017578125
 20
400.6513671875
 30
0.0
 10
599.8017578125
 20
400.6513671875
 30
0.0
 10
599.8017578125
 20
400.6513671875
 30
0.0
 10
599.8017578125
 20
404.9033203125
 30
0.0
 10
599.8017578125
 20
404.9033203125
 30
0.0
 10
599.8017578125
 20
404.9033203125
 30
0.0
 10
599.8017578125
 20
409.1552734375
 30
0.0
 10
599.8017578125
 20
409.1552734375
 30
0.0
 10
599.8017578125
 20
409.1552734375
 30
0.0
 10
600.939453125
 20
409.1552734375
 30
0.0
 10
600.939453125
 20
409.1552734375
 30
0.0
 10
601.6875
 20
410.4462890625
 30
0.0
 10
602.763671875
 20
411.5224609375
 30
0.0
 10
604.0546875
 20
412.26953125
 30
0.0
 10
604.0546875
 20
412.26953125
 30
0.0
 10
604.0546875
 20
413.4072265625
 30
0.0
 10
604.0546875
 20
413.4072265625
 30
0.0
 10
604.0546875
 20
413.4072265625
 30
0.0
 10
608.306640625
 20
413.4072265625
 30
0.0
 10
608.306640625
 20
413.4072265625
 30
0.0
 10
608.306640625
 20
413.4072265625
 30
0.0
 10
612.55859375
 20
413.4072265625
 30
0.0
 10
612.55859375
 20
413.4072265625
 30
0.0
 10
612.55859375
 20
413.4072265625
 30
0.0
 10
612.55859375
 20
412.26953125
 30
0.0
 10
612.55859375
 20
412.26953125
 30
0.0
 10
613.8486328125
 20
411.5224609375
 30
0.0
 10
614.92578125
 20
410.4462890625
 30
0.0
 10
615.671875
 20
409.1552734375
 30
0.0
 10
615.671875
 20
409.1552734375
 30
0.0
 10
616.810546875
 20
409.1552734375
 30
0.0
 10
616.810546875
 20
409.1552734375
 30
0.0
 10
616.810546875
 20
409.1552734375
 30
0.0
 10
616.810546875
 20
404.9033203125
 30
0.0
 10
616.810546875
 20
404.9033203125
 30
0.0
 10
616.810546875
 20
404.9033203125
 30
0.0
 10
616.810546875
 20
400.6513671875
 30
0.0
 10
616.810546875
 20
400.6513671875
 30
0.0
  0
POLYLINE
  5
78
330
68
100
AcDbEntity
  8
LAYER_1
 62
   250
100
AcDb2dPolyline
 66
     1
 10
0.0
 20
0.0
 30
0.0
  0
VERTEX
  5
79
330
78
100
AcDbEntity
  8
LAYER_1
 62
   250
100
AcDbVertex
100
AcDb2dVertex
 10
637.671875
 20
361.1416015625
 30
0.0
  0
VERTEX
  5
7A
330
78
100
AcDbEntity
  8
LAYER_1
 62
   250
100
AcDbVertex
100
AcDb2dVertex
 10
637.671875
 20
396.3994140625
 30
0.0
  0
SEQEND
  5
7B
330
78
100
AcDbEntity
  8
LAYER_1
  0
POLYLINE
  5
7C
330
68
100
AcDbEntity
  8
LAYER_1
 62
   250
100
AcDb2dPolyline
 66
     1
 10
0.0
 20
0.0
 30
0.0
  0
VERTEX
  5
7D
330
7C
100
AcDbEntity
  8
LAYER_1
 62
   250
100
AcDbVertex
100
AcDb2dVertex
 10
648.671875
 20
361.1416015625
 30
0.0
  0
VERTEX
  5
7E
330
7C
100
AcDbEntity
  8
LAYER_1
 62
   250
100
AcDbVertex
100
AcDb2dVertex
 10
648.671875
 20
396.3994140625
 30
0.0
  0
SEQEND
  5
7F
330
7C
100
AcDbEntity
  8
LAYER_1
  0
SPLINE
  5
80
330
68
100
AcDbEntity
  8
LAYER_1
 62
   250
100
AcDbSpline
210
0.0
220
0.0
230
1.0
 70
     8
 71
     3
 72
    32
 73
    28
 74
     0
 42
0.0000000001
 43
0.0000000001
 40
0.0
 40
0.0
 40
0.0
 40
0.0
 40
1.0
 40
1.0
 40
1.0
 40
2.0
 40
2.0
 40
2.0
 40
3.0
 40
3.0
 40
3.0
 40
4.0
 40
4.0
 40
4.0
 40
5.0
 40
5.0
 40
5.0
 40
6.0
 40
6.0
 40
6.0
 40
7.0
 40
7.0
 40
7.0
 40
8.0
 40
8.0
 40
8.0
 40
9.0
 40
9.0
 40
9.0
 40
9.0
 10
660.8349609375
 20
360.4765625
 30
0.0
 10
660.8349609375
 20
360.4765625
 30
0.0
 10
626.7353515625
 20
360.4765625
 30
0.0
 10
626.7353515625
 20
360.4765625
 30
0.0
 10
626.7353515625
 20
360.4765625
 30
0.0
 10
626.7353515625
 20
329.7861328125
 30
0.0
 10
626.7353515625
 20
329.7861328125
 30
0.0
 10
626.7353515625
 20
329.7861328125
 30
0.0
 10
604.0546875
 20
329.7861328125
 30
0.0
 10
604.0546875
 20
329.7861328125
 30
0.0
 10
596.2265625
 20
329.7861328125
 30
0.0
 10
589.8857421875
 20
336.13671875
 30
0.0
 10
589.8857421875
 20
343.9560546875
 30
0.0
 10
589.8857421875
 20
343.9560546875
 30
0.0
 10
589.8857421875
 20
409.8466796875
 30
0.0
 10
589.8857421875
 20
409.8466796875
 30
0.0
 10
589.8857421875
 20
417.67578125
 30
0.0
 10
596.2265625
 20
424.0263671875
 30
0.0
 10
604.0546875
 20
424.0263671875
 30
0.0
 10
604.0546875
 20
424.0263671875
 30
0.0
 10
626.7353515625
 20
424.0263671875
 30
0.0
 10
626.7353515625
 20
424.0263671875
 30
0.0
 10
626.7353515625
 20
424.0263671875
 30
0.0
 10
626.7353515625
 20
397.326171875
 30
0.0
 10
626.7353515625
 20
397.326171875
 30
0.0
 10
626.7353515625
 20
397.326171875
 30
0.0
 10
660.8349609375
 20
397.326171875
 30
0.0
 10
660.8349609375
 20
397.326171875
 30
0.0
  0
POLYLINE
  5
81
330
68
100
AcDbEntity
  8
LAYER_1
 62
   250
100
AcDb2dPolyline
 66
     1
 10
0.0
 20
0.0
 30
0.0
  0
VERTEX
  5
82
330
81
100
AcDbEntity
  8
LAYER_1
 62
   250
100
AcDbVertex
100
AcDb2dVertex
 10
626.7353515625
 20
360.4765625
 30
0.0
  0
VERTEX
  5
83
330
81
100
AcDbEntity
  8
LAYER_1
 62
   250
100
AcDbVertex
100
AcDb2dVertex
 10
626.7353515625
 20
398.0625
 30
0.0
  0
SEQEND
  5
84
330
81
100
AcDbEntity
  8
LAYER_1
  0
SPLINE
  5
85
330
68
100
AcDbEntity
  8
LAYER_1
 62
   250
100
AcDbSpline
210
0.0
220
0.0
230
1.0
 70
    11
 71
     3
 72
    29
 73
    25
 74
     0
 42
0.0000000001
 43
0.0000000001
 40
0.0
 40
0.0
 40
0.0
 40
0.0
 40
1.0
 40
1.0
 40
1.0
 40
2.0
 40
2.0
 40
2.0
 40
3.0
 40
3.0
 40
3.0
 40
4.0
 40
4.0
 40
4.0
 40
5.0
 40
5.0
 40
5.0
 40
6.0
 40
6.0
 40
6.0
 40
7.0
 40
7.0
 40
7.0
 40
8.0
 40
8.0
 40
8.0
 40
8.0
 10
672.15625
 20
302.8896484375
 30
0.0
 10
672.15625
 20
302.8896484375
 30
0.0
 10
671.888671875
 20
302.8896484375
 30
0.0
 10
671.888671875
 20
302.8896484375
 30
0.0
 10
666.3779296875
 20
302.8896484375
 30
0.0
 10
661.869140625
 20
307.3984375
 30
0.0
 10
661.869140625
 20
312.908203125
 30
0.0
 10
661.869140625
 20
312.908203125
 30
0.0
 10
661.869140625
 20
347.1669921875
 30
0.0
 10
661.869140625
 20
347.1669921875
 30
0.0
 10
661.869140625
 20
352.677734375
 30
0.0
 10
666.3779296875
 20
357.185546875
 30
0.0
 10
671.888671875
 20
357.185546875
 30
0.0
 10
671.888671875
 20
357.185546875
 30
0.0
 10
672.15625
 20
357.185546875
 30
0.0
 10
672.15625
 20
357.185546875
 30
0.0
 10
677.666015625
 20
357.185546875
 30
0.0
 10
682.17578125
 20
352.677734375
 30
0.0
 10
682.17578125
 20
347.1669921875
 30
0.0
 10
682.17578125
 20
347.1669921875
 30
0.0
 10
682.17578125
 20
312.908203125
 30
0.0
 10
682.17578125
 20
312.908203125
 30
0.0
 10
682.17578125
 20
307.3984375
 30
0.0
 10
677.666015625
 20
302.8896484375
 30
0.0
 10
672.15625
 20
302.8896484375
 30
0.0
  0
SPLINE
  5
86
330
68
100
AcDbEntity
  8
LAYER_1
100
AcDbSpline
210
0.0
220
0.0
230
1.0
 70
    11
 71
     3
 72
    29
 73
    25
 74
     0
 42
0.0000000001
 43
0.0000000001
 40
0.0
 40
0.0
 40
0.0
 40
0.0
 40
1.0
 40
1.0
 40
1.0
 40
2.0
 40
2.0
 40
2.0
 40
3.0
 40
3.0
 40
3.0
 40
4.0
 40
4.0
 40
4.0
 40
5.0
 40
5.0
 40
5.0
 40
6.0
 40
6.0
 40
6.0
 40
7.0
 40
7.0
 40
7.0
 40
8.0
 40
8.0
 40
8.0
 40
8.0
 10
709.0
 20
336.38671875
 30
0.0
 10
709.0
 20
336.38671875
 30
0.0
 10
672.4296875
 20
336.38671875
 30
0.0
 10
672.4296875
 20
336.38671875
 30
0.0
 10
665.830078125
 20
336.38671875
 30
0.0
 10
660.4296875
 20
341.7861328125
 30
0.0
 10
660.4296875
 20
348.38671875
 30
0.0
 10
660.4296875
 20
348.38671875
 30
0.0
 10
660.4296875
 20
405.8896484375
 30
0.0
 10
660.4296875
 20
405.8896484375
 30
0.0
 10
660.4296875
 20
412.4892578125
 30
0.0
 10
665.830078125
 20
417.8896484375
 30
0.0
 10
672.4296875
 20
417.8896484375
 30
0.0
 10
672.4296875
 20
417.8896484375
 30
0.0
 10
709.0
 20
417.8896484375
 30
0.0
 10
709.0
 20
417.8896484375
 30
0.0
 10
715.599609375
 20
417.8896484375
 30
0.0
 10
721.0
 20
412.4892578125
 30
0.0
 10
721.0
 20
405.8896484375
 30
0.0
 10
721.0
 20
405.8896484375
 30
0.0
 10
721.0
 20
348.38671875
 30
0.0
 10
721.0
 20
348.38671875
 30
0.0
 10
721.0
 20
341.7861328125
 30
0.0
 10
715.599609375
 20
336.38671875
 30
0.0
 10
709.0
 20
336.38671875
 30
0.0
  0
SPLINE
  5
87
330
68
100
AcDbEntity
  8
LAYER_1
 62
   250
100
AcDbSpline
210
0.0
220
0.0
230
1.0
 70
    11
 71
     3
 72
    29
 73
    25
 74
     0
 42
0.0000000001
 43
0.0000000001
 40
0.0
 40
0.0
 40
0.0
 40
0.0
 40
1.0
 40
1.0
 40
1.0
 40
2.0
 40
2.0
 40
2.0
 40
3.0
 40
3.0
 40
3.0
 40
4.0
 40
4.0
 40
4.0
 40
5.0
 40
5.0
 40
5.0
 40
6.0
 40
6.0
 40
6.0
 40
7.0
 40
7.0
 40
7.0
 40
8.0
 40
8.0
 40
8.0
 40
8.0
 10
709.0
 20
336.38671875
 30
0.0
 10
709.0
 20
336.38671875
 30
0.0
 10
672.4296875
 20
336.38671875
 30
0.0
 10
672.4296875
 20
336.38671875
 30
0.0
 10
665.830078125
 20
336.38671875
 30
0.0
 10
660.4296875
 20
341.7861328125
 30
0.0
 10
660.4296875
 20
348.38671875
 30
0.0
 10
660.4296875
 20
348.38671875
 30
0.0
 10
660.4296875
 20
405.8896484375
 30
0.0
 10
660.4296875
 20
405.8896484375
 30
0.0
 10
660.4296875
 20
412.4892578125
 30
0.0
 10
665.830078125
 20
417.8896484375
 30
0.0
 10
672.4296875
 20
417.8896484375
 30
0.0
 10
672.4296875
 20
417.8896484375
 30
0.0
 10
709.0
 20
417.8896484375
 30
0.0
 10
709.0
 20
417.8896484375
 30
0.0
 10
715.599609375
 20
417.8896484375
 30
0.0
 10
721.0
 20
412.4892578125
 30
0.0
 10
721.0
 20
405.8896484375
 30
0.0
 10
721.0
 20
405.8896484375
 30
0.0
 10
721.0
 20
348.38671875
 30
0.0
 10
721.0
 20
348.38671875
 30
0.0
 10
721.0
 20
341.7861328125
 30
0.0
 10
715.599609375
 20
336.38671875
 30
0.0
 10
709.0
 20
336.38671875
 30
0.0
  0
SPLINE
  5
88
330
68
100
AcDbEntity
  8
LAYER_1
 62
     7
100
AcDbSpline
210
0.0
220
0.0
230
1.0
 70
    11
 71
     3
 72
    23
 73
    19
 74
     0
 42
0.0000000001
 43
0.0000000001
 40
0.0
 40
0.0
 40
0.0
 40
0.0
 40
1.0
 40
1.0
 40
1.0
 40
2.0
 40
2.0
 40
2.0
 40
3.0
 40
3.0
 40
3.0
 40
4.0
 40
4.0
 40
4.0
 40
5.0
 40
5.0
 40
5.0
 40
6.0
 40
6.0
 40
6.0
 40
6.0
 10
685.326171875
 20
402.5400390625
 30
0.0
 10
685.326171875
 20
402.5400390625
 30
0.0
 10
660.4296875
 20
402.5400390625
 30
0.0
 10
660.4296875
 20
402.5400390625
 30
0.0
 10
660.4296875
 20
402.5400390625
 30
0.0
 10
660.4296875
 20
353.3896484375
 30
0.0
 10
660.4296875
 20
353.3896484375
 30
0.0
 10
660.4296875
 20
353.3896484375
 30
0.0
 10
685.326171875
 20
353.3896484375
 30
0.0
 10
685.326171875
 20
353.3896484375
 30
0.0
 10
693.154296875
 20
353.3896484375
 30
0.0
 10
699.5
 20
359.7353515625
 30
0.0
 10
699.5
 20
367.5625
 30
0.0
 10
699.5
 20
367.5625
 30
0.0
 10
699.5
 20
388.3671875
 30
0.0
 10
699.5
 20
388.3671875
 30
0.0
 10
699.5
 20
396.1943359375
 30
0.0
 10
693.154296875
 20
402.5400390625
 30
0.0
 10
685.326171875
 20
402.5400390625
 30
0.0
  0
POLYLINE
  5
89
330
68
100
AcDbEntity
  8
LAYER_1
100
AcDb2dPolyline
 66
     1
 10
0.0
 20
0.0
 30
0.0
  0
VERTEX
  5
8A
330
89
100
AcDbEntity
  8
LAYER_1
100
AcDbVertex
100
AcDb2dVertex
 10
589.1357421875
 20
424.7763671875
 30
0.0
  0
VERTEX
  5
8B
330
89
100
AcDbEntity
  8
LAYER_1
100
AcDbVertex
100
AcDb2dVertex
 10
761.7490234375
 20
424.7763671875
 30
0.0
  0
VERTEX
  5
8C
330
89
100
AcDbEntity
  8
LAYER_1
100
AcDbVertex
100
AcDb2dVertex
 10
761.7490234375
 20
302.1396484375
 30
0.0
  0
VERTEX
  5
8D
330
89
100
AcDbEntity
  8
LAYER_1
100
AcDbVertex
100
AcDb2dVertex
 10
589.1357421875
 20
302.1396484375
 30
0.0
  0
VERTEX
  5
8E
330
89
100
AcDbEntity
  8
LAYER_1
100
AcDbVertex
100
AcDb2dVertex
 10
589.1357421875
 20
424.7763671875
 30
0.0
  0
SEQEND
  5
8F
330
89
100
AcDbEntity
  8
LAYER_1
  0
ENDBLK
  5
6B
330
68
100
AcDbEntity
  8
0
100
AcDbBlockEnd
  0
BLOCK
  5
9F
330
9D
100
AcDbEntity
  8
0
100
AcDbBlockBegin
  2
BLOCK_3
 70
     0
 71
     0
 10
0.0
 20
0.0
 30
0.0
  3
BLOCK_3
  1

  0
SPLINE
  5
A1
330
9D
100
AcDbEntity
  8
LAYER_1
 62
   250
100
AcDbSpline
210
0.0
220
0.0
230
1.0
 70
    11
 71
     3
 72
    29
 73
    25
 74
     0
 42
0.0000000001
 43
0.0000000001
 40
0.0
 40
0.0
 40
0.0
 40
0.0
 40
1.0
 40
1.0
 40
1.0
 40
2.0
 40
2.0
 40
2.0
 40
3.0
 40
3.0
 40
3.0
 40
4.0
 40
4.0
 40
4.0
 40
5.0
 40
5.0
 40
5.0
 40
6.0
 40
6.0
 40
6.0
 40
7.0
 40
7.0
 40
7.0
 40
8.0
 40
8.0
 40
8.0
 40
8.0
 10
116.220703125
 20
346.3779296875
 30
0.0
 10
116.220703125
 20
346.3779296875
 30
0.0
 10
155.2353515625
 20
346.3779296875
 30
0.0
 10
155.2353515625
 20
346.3779296875
 30
0.0
 10
160.888671875
 20
346.3779296875
 30
0.0
 10
165.5146484375
 20
341.751953125
 30
0.0
 10
165.5146484375
 20
336.0986328125
 30
0.0
 10
165.5146484375
 20
336.0986328125
 30
0.0
 10
165.5146484375
 20
335.8583984375
 30
0.0
 10
165.5146484375
 20
335.8583984375
 30
0.0
 10
165.5146484375
 20
330.2041015625
 30
0.0
 10
160.888671875
 20
325.578125
 30
0.0
 10
155.2353515625
 20
325.578125
 30
0.0
 10
155.2353515625
 20
325.578125
 30
0.0
 10
116.220703125
 20
325.578125
 30
0.0
 10
116.220703125
 20
325.578125
 30
0.0
 10
110.56640625
 20
325.578125
 30
0.0
 10
105.9404296875
 20
330.2041015625
 30
0.0
 10
105.9404296875
 20
335.8583984375
 30
0.0
 10
105.9404296875
 20
335.8583984375
 30
0.0
 10
105.9404296875
 20
336.0986328125
 30
0.0
 10
105.9404296875
 20
336.0986328125
 30
0.0
 10
105.9404296875
 20
341.751953125
 30
0.0
 10
110.56640625
 20
346.3779296875
 30
0.0
 10
116.220703125
 20
346.3779296875
 30
0.0
  0
SPLINE
  5
A2
330
9D
100
AcDbEntity
  8
LAYER_1
 62
   250
100
AcDbSpline
210
0.0
220
0.0
230
1.0
 70
    11
 71
     3
 72
    29
 73
    25
 74
     0
 42
0.0000000001
 43
0.0000000001
 40
0.0
 40
0.0
 40
0.0
 40
0.0
 40
1.0
 40
1.0
 40
1.0
 40
2.0
 40
2.0
 40
2.0
 40
3.0
 40
3.0
 40
3.0
 40
4.0
 40
4.0
 40
4.0
 40
5.0
 40
5.0
 40
5.0
 40
6.0
 40
6.0
 40
6.0
 40
7.0
 40
7.0
 40
7.0
 40
8.0
 40
8.0
 40
8.0
 40
8.0
 10
116.220703125
 20
376.3779296875
 30
0.0
 10
116.220703125
 20
376.3779296875
 30
0.0
 10
155.2353515625
 20
376.3779296875
 30
0.0
 10
155.2353515625
 20
376.3779296875
 30
0.0
 10
160.888671875
 20
376.3779296875
 30
0.0
 10
165.5146484375
 20
371.751953125
 30
0.0
 10
165.5146484375
 20
366.0986328125
 30
0.0
 10
165.5146484375
 20
366.0986328125
 30
0.0
 10
165.5146484375
 20
365.8583984375
 30
0.0
 10
165.5146484375
 20
365.8583984375
 30
0.0
 10
165.5146484375
 20
360.2041015625
 30
0.0
 10
160.888671875
 20
355.578125
 30
0.0
 10
155.2353515625
 20
355.578125
 30
0.0
 10
155.2353515625
 20
355.578125
 30
0.0
 10
116.220703125
 20
355.578125
 30
0.0
 10
116.220703125
 20
355.578125
 30
0.0
 10
110.56640625
 20
355.578125
 30
0.0
 10
105.9404296875
 20
360.2041015625
 30
0.0
 10
105.9404296875
 20
365.8583984375
 30
0.0
 10
105.9404296875
 20
365.8583984375
 30
0.0
 10
105.9404296875
 20
366.0986328125
 30
0.0
 10
105.9404296875
 20
366.0986328125
 30
0.0
 10
105.9404296875
 20
371.751953125
 30
0.0
 10
110.56640625
 20
376.3779296875
 30
0.0
 10
116.220703125
 20
376.3779296875
 30
0.0
  0
SPLINE
  5
A3
330
9D
100
AcDbEntity
  8
LAYER_1
 62
   250
100
AcDbSpline
210
0.0
220
0.0
230
1.0
 70
    11
 71
     3
 72
    29
 73
    25
 74
     0
 42
0.0000000001
 43
0.0000000001
 40
0.0
 40
0.0
 40
0.0
 40
0.0
 40
1.0
 40
1.0
 40
1.0
 40
2.0
 40
2.0
 40
2.0
 40
3.0
 40
3.0
 40
3.0
 40
4.0
 40
4.0
 40
4.0
 40
5.0
 40
5.0
 40
5.0
 40
6.0
 40
6.0
 40
6.0
 40
7.0
 40
7.0
 40
7.0
 40
8.0
 40
8.0
 40
8.0
 40
8.0
 10
116.220703125
 20
406.3779296875
 30
0.0
 10
116.220703125
 20
406.3779296875
 30
0.0
 10
155.2353515625
 20
406.3779296875
 30
0.0
 10
155.2353515625
 20
406.3779296875
 30
0.0
 10
160.888671875
 20
406.3779296875
 30
0.0
 10
165.5146484375
 20
401.751953125
 30
0.0
 10
165.5146484375
 20
396.0986328125
 30
0.0
 10
165.5146484375
 20
396.0986328125
 30
0.0
 10
165.5146484375
 20
395.8583984375
 30
0.0
 10
165.5146484375
 20
395.8583984375
 30
0.0
 10
165.5146484375
 20
390.2041015625
 30
0.0
 10
160.888671875
 20
385.578125
 30
0.0
 10
155.2353515625
 20
385.578125
 30
0.0
 10
155.2353515625
 20
385.578125
 30
0.0
 10
116.220703125
 20
385.578125
 30
0.0
 10
116.220703125
 20
385.578125
 30
0.0
 10
110.56640625
 20
385.578125
 30
0.0
 10
105.9404296875
 20
390.2041015625
 30
0.0
 10
105.9404296875
 20
395.8583984375
 30
0.0
 10
105.9404296875
 20
395.8583984375
 30
0.0
 10
105.9404296875
 20
396.0986328125
 30
0.0
 10
105.9404296875
 20
396.0986328125
 30
0.0
 10
105.9404296875
 20
401.751953125
 30
0.0
 10
110.56640625
 20
406.3779296875
 30
0.0
 10
116.220703125
 20
406.3779296875
 30
0.0
  0
SPLINE
  5
A4
330
9D
100
AcDbEntity
  8
LAYER_1
 62
     7
100
AcDbSpline
210
0.0
220
0.0
230
1.0
 70
    11
 71
     3
 72
    65
 73
    61
 74
     0
 42
0.0000000001
 43
0.0000000001
 40
0.0
 40
0.0
 40
0.0
 40
0.0
 40
1.0
 40
1.0
 40
1.0
 40
2.0
 40
2.0
 40
2.0
 40
3.0
 40
3.0
 40
3.0
 40
4.0
 40
4.0
 40
4.0
 40
5.0
 40
5.0
 40
5.0
 40
6.0
 40
6.0
 40
6.0
 40
7.0
 40
7.0
 40
7.0
 40
8.0
 40
8.0
 40
8.0
 40
9.0
 40
9.0
 40
9.0
 40
10.0
 40
10.0
 40
10.0
 40
11.0
 40
11.0
 40
11.0
 40
12.0
 40
12.0
 40
12.0
 40
13.0
 40
13.0
 40
13.0
 40
14.0
 40
14.0
 40
14.0
 40
15.0
 40
15.0
 40
15.0
 40
16.0
 40
16.0
 40
16.0
 40
17.0
 40
17.0
 40
17.0
 40
18.0
 40
18.0
 40
18.0
 40
19.0
 40
19.0
 40
19.0
 40
20.0
 40
20.0
 40
20.0
 40
20.0
 10
250.13037109375
 20
333.150390625
 30
0.0
 10
250.13037109375
 20
333.150390625
 30
0.0
 10
251.26806640625
 20
333.150390625
 30
0.0
 10
251.26806640625
 20
333.150390625
 30
0.0
 10
252.01513671875
 20
331.859375
 30
0.0
 10
253.09130859375
 20
330.783203125
 30
0.0
 10
254.38232421875
 20
330.0361328125
 30
0.0
 10
254.38232421875
 20
330.0361328125
 30
0.0
 10
254.38232421875
 20
328.8984375
 30
0.0
 10
254.38232421875
 20
328.8984375
 30
0.0
 10
254.38232421875
 20
328.8984375
 30
0.0
 10
258.63427734375
 20
328.8984375
 30
0.0
 10
258.63427734375
 20
328.8984375
 30
0.0
 10
258.63427734375
 20
328.8984375
 30
0.0
 10
262.88623046875
 20
328.8984375
 30
0.0
 10
262.88623046875
 20
328.8984375
 30
0.0
 10
262.88623046875
 20
328.8984375
 30
0.0
 10
262.88623046875
 20
330.0361328125
 30
0.0
 10
262.88623046875
 20
330.0361328125
 30
0.0
 10
264.17724609375
 20
330.783203125
 30
0.0
 10
265.25341796875
 20
331.859375
 30
0.0
 10
266.0
 20
333.150390625
 30
0.0
 10
266.0
 20
333.150390625
 30
0.0
 10
267.13818359375
 20
333.150390625
 30
0.0
 10
267.13818359375
 20
333.150390625
 30
0.0
 10
267.13818359375
 20
333.150390625
 30
0.0
 10
267.13818359375
 20
337.40234375
 30
0.0
 10
267.13818359375
 20
337.40234375
 30
0.0
 10
267.13818359375
 20
337.40234375
 30
0.0
 10
267.13818359375
 20
341.654296875
 30
0.0
 10
267.13818359375
 20
341.654296875
 30
0.0
 10
267.13818359375
 20
341.654296875
 30
0.0
 10
266.0
 20
341.654296875
 30
0.0
 10
266.0
 20
341.654296875
 30
0.0
 10
265.25341796875
 20
342.9453125
 30
0.0
 10
264.17724609375
 20
344.021484375
 30
0.0
 10
262.88623046875
 20
344.7685546875
 30
0.0
 10
262.88623046875
 20
344.7685546875
 30
0.0
 10
262.88623046875
 20
345.90625
 30
0.0
 10
262.88623046875
 20
345.90625
 30
0.0
 10
262.88623046875
 20
345.90625
 30
0.0
 10
258.63427734375
 20
345.90625
 30
0.0
 10
258.63427734375
 20
345.90625
 30
0.0
 10
258.63427734375
 20
345.90625
 30
0.0
 10
254.38232421875
 20
345.90625
 30
0.0
 10
254.38232421875
 20
345.90625
 30
0.0
 10
254.38232421875
 20
345.90625
 30
0.0
 10
254.38232421875
 20
344.7685546875
 30
0.0
 10
254.38232421875
 20
344.7685546875
 30
0.0
 10
253.09130859375
 20
344.021484375
 30
0.0
 10
252.01513671875
 20
342.9453125
 30
0.0
 10
251.26806640625
 20
341.654296875
 30
0.0
 10
251.26806640625
 20
341.654296875
 30
0.0
 10
250.13037109375
 20
341.654296875
 30
0.0
 10
250.13037109375
 20
341.654296875
 30
0.0
 10
250.13037109375
 20
341.654296875
 30
0.0
 10
250.13037109375
 20
337.40234375
 30
0.0
 10
250.13037109375
 20
337.40234375
 30
0.0
 10
250.13037109375
 20
337.40234375
 30
0.0
 10
250.13037109375
 20
333.150390625
 30
0.0
 10
250.13037109375
 20
333.150390625
 30
0.0
  0
POLYLINE
  5
A5
330
9D
100
AcDbEntity
  8
LAYER_1
 62
     7
100
AcDb2dPolyline
 66
     1
 10
0.0
 20
0.0
 30
0.0
  0
VERTEX
  5
A6
330
A5
100
AcDbEntity
  8
LAYER_1
 62
     7
100
AcDbVertex
100
AcDb2dVertex
 10
254.38232421875
 20
357.2451171875
 30
0.0
  0
VERTEX
  5
A7
330
A5
100
AcDbEntity
  8
LAYER_1
 62
     7
100
AcDbVertex
100
AcDb2dVertex
 10
262.88623046875
 20
357.2451171875
 30
0.0
  0
VERTEX
  5
A8
330
A5
100
AcDbEntity
  8
LAYER_1
 62
     7
100
AcDbVertex
100
AcDb2dVertex
 10
262.88623046875
 20
374.2529296875
 30
0.0
  0
VERTEX
  5
A9
330
A5
100
AcDbEntity
  8
LAYER_1
 62
     7
100
AcDbVertex
100
AcDb2dVertex
 10
254.38232421875
 20
374.2529296875
 30
0.0
  0
VERTEX
  5
AA
330
A5
100
AcDbEntity
  8
LAYER_1
 62
     7
100
AcDbVertex
100
AcDb2dVertex
 10
254.38232421875
 20
357.2451171875
 30
0.0
  0
SEQEND
  5
AB
330
A5
100
AcDbEntity
  8
LAYER_1
  0
SPLINE
  5
AC
330
9D
100
AcDbEntity
  8
LAYER_1
 62
     7
100
AcDbSpline
210
0.0
220
0.0
230
1.0
 70
    11
 71
     3
 72
    65
 73
    61
 74
     0
 42
0.0000000001
 43
0.0000000001
 40
0.0
 40
0.0
 40
0.0
 40
0.0
 40
1.0
 40
1.0
 40
1.0
 40
2.0
 40
2.0
 40
2.0
 40
3.0
 40
3.0
 40
3.0
 40
4.0
 40
4.0
 40
4.0
 40
5.0
 40
5.0
 40
5.0
 40
6.0
 40
6.0
 40
6.0
 40
7.0
 40
7.0
 40
7.0
 40
8.0
 40
8.0
 40
8.0
 40
9.0
 40
9.0
 40
9.0
 40
10.0
 40
10.0
 40
10.0
 40
11.0
 40
11.0
 40
11.0
 40
12.0
 40
12.0
 40
12.0
 40
13.0
 40
13.0
 40
13.0
 40
14.0
 40
14.0
 40
14.0
 40
15.0
 40
15.0
 40
15.0
 40
16.0
 40
16.0
 40
16.0
 40
17.0
 40
17.0
 40
17.0
 40
18.0
 40
18.0
 40
18.0
 40
19.0
 40
19.0
 40
19.0
 40
20.0
 40
20.0
 40
20.0
 40
20.0
 10
250.13037109375
 20
389.84375
 30
0.0
 10
250.13037109375
 20
389.84375
 30
0.0
 10
251.26806640625
 20
389.84375
 30
0.0
 10
251.26806640625
 20
389.84375
 30
0.0
 10
252.01513671875
 20
388.552734375
 30
0.0
 10
253.09130859375
 20
387.4765625
 30
0.0
 10
254.38232421875
 20
386.7294921875
 30
0.0
 10
254.38232421875
 20
386.7294921875
 30
0.0
 10
254.38232421875
 20
385.591796875
 30
0.0
 10
254.38232421875
 20
385.591796875
 30
0.0
 10
254.38232421875
 20
385.591796875
 30
0.0
 10
258.63427734375
 20
385.591796875
 30
0.0
 10
258.63427734375
 20
385.591796875
 30
0.0
 10
258.63427734375
 20
385.591796875
 30
0.0
 10
262.88623046875
 20
385.591796875
 30
0.0
 10
262.88623046875
 20
385.591796875
 30
0.0
 10
262.88623046875
 20
385.591796875
 30
0.0
 10
262.88623046875
 20
386.7294921875
 30
0.0
 10
262.88623046875
 20
386.7294921875
 30
0.0
 10
264.17724609375
 20
387.4765625
 30
0.0
 10
265.25341796875
 20
388.552734375
 30
0.0
 10
266.0
 20
389.84375
 30
0.0
 10
266.0
 20
389.84375
 30
0.0
 10
267.13818359375
 20
389.84375
 30
0.0
 10
267.13818359375
 20
389.84375
 30
0.0
 10
267.13818359375
 20
389.84375
 30
0.0
 10
267.13818359375
 20
394.095703125
 30
0.0
 10
267.13818359375
 20
394.095703125
 30
0.0
 10
267.13818359375
 20
394.095703125
 30
0.0
 10
267.13818359375
 20
398.34765625
 30
0.0
 10
267.13818359375
 20
398.34765625
 30
0.0
 10
267.13818359375
 20
398.34765625
 30
0.0
 10
266.0
 20
398.34765625
 30
0.0
 10
266.0
 20
398.34765625
 30
0.0
 10
265.25341796875
 20
399.638671875
 30
0.0
 10
264.17724609375
 20
400.71484375
 30
0.0
 10
262.88623046875
 20
401.4619140625
 30
0.0
 10
262.88623046875
 20
401.4619140625
 30
0.0
 10
262.88623046875
 20
402.599609375
 30
0.0
 10
262.88623046875
 20
402.599609375
 30
0.0
 10
262.88623046875
 20
402.599609375
 30
0.0
 10
258.63427734375
 20
402.599609375
 30
0.0
 10
258.63427734375
 20
402.599609375
 30
0.0
 10
258.63427734375
 20
402.599609375
 30
0.0
 10
254.38232421875
 20
402.599609375
 30
0.0
 10
254.38232421875
 20
402.599609375
 30
0.0
 10
254.38232421875
 20
402.599609375
 30
0.0
 10
254.38232421875
 20
401.4619140625
 30
0.0
 10
254.38232421875
 20
401.4619140625
 30
0.0
 10
253.09130859375
 20
400.71484375
 30
0.0
 10
252.01513671875
 20
399.638671875
 30
0.0
 10
251.26806640625
 20
398.34765625
 30
0.0
 10
251.26806640625
 20
398.34765625
 30
0.0
 10
250.13037109375
 20
398.34765625
 30
0.0
 10
250.13037109375
 20
398.34765625
 30
0.0
 10
250.13037109375
 20
398.34765625
 30
0.0
 10
250.13037109375
 20
394.095703125
 30
0.0
 10
250.13037109375
 20
394.095703125
 30
0.0
 10
250.13037109375
 20
394.095703125
 30
0.0
 10
250.13037109375
 20
389.84375
 30
0.0
 10
250.13037109375
 20
389.84375
 30
0.0
  0
POLYLINE
  5
AD
330
9D
100
AcDbEntity
  8
LAYER_1
 62
   250
100
AcDb2dPolyline
 66
     1
 10
0.0
 20
0.0
 30
0.0
  0
VERTEX
  5
AE
330
AD
100
AcDbEntity
  8
LAYER_1
 62
   250
100
AcDbVertex
100
AcDb2dVertex
 10
229.2685546875
 20
350.333984375
 30
0.0
  0
VERTEX
  5
AF
330
AD
100
AcDbEntity
  8
LAYER_1
 62
   250
100
AcDbVertex
100
AcDb2dVertex
 10
229.2685546875
 20
385.591796875
 30
0.0
  0
SEQEND
  5
B0
330
AD
100
AcDbEntity
  8
LAYER_1
  0
POLYLINE
  5
B1
330
9D
100
AcDbEntity
  8
LAYER_1
 62
   250
100
AcDb2dPolyline
 66
     1
 10
0.0
 20
0.0
 30
0.0
  0
VERTEX
  5
B2
330
B1
100
AcDbEntity
  8
LAYER_1
 62
   250
100
AcDbVertex
100
AcDb2dVertex
 10
218.2685546875
 20
350.333984375
 30
0.0
  0
VERTEX
  5
B3
330
B1
100
AcDbEntity
  8
LAYER_1
 62
   250
100
AcDbVertex
100
AcDb2dVertex
 10
218.2685546875
 20
385.591796875
 30
0.0
  0
SEQEND
  5
B4
330
B1
100
AcDbEntity
  8
LAYER_1
  0
SPLINE
  5
B5
330
9D
100
AcDbEntity
  8
LAYER_1
 62
   250
100
AcDbSpline
210
0.0
220
0.0
230
1.0
 70
     8
 71
     3
 72
    32
 73
    28
 74
     0
 42
0.0000000001
 43
0.0000000001
 40
0.0
 40
0.0
 40
0.0
 40
0.0
 40
1.0
 40
1.0
 40
1.0
 40
2.0
 40
2.0
 40
2.0
 40
3.0
 40
3.0
 40
3.0
 40
4.0
 40
4.0
 40
4.0
 40
5.0
 40
5.0
 40
5.0
 40
6.0
 40
6.0
 40
6.0
 40
7.0
 40
7.0
 40
7.0
 40
8.0
 40
8.0
 40
8.0
 40
9.0
 40
9.0
 40
9.0
 40
9.0
 10
206.10498046875
 20
349.66796875
 30
0.0
 10
206.10498046875
 20
349.66796875
 30
0.0
 10
240.20458984375
 20
349.66796875
 30
0.0
 10
240.20458984375
 20
349.66796875
 30
0.0
 10
240.20458984375
 20
349.66796875
 30
0.0
 10
240.20458984375
 20
318.978515625
 30
0.0
 10
240.20458984375
 20
318.978515625
 30
0.0
 10
240.20458984375
 20
318.978515625
 30
0.0
 10
262.884765625
 20
318.978515625
 30
0.0
 10
262.884765625
 20
318.978515625
 30
0.0
 10
270.71484375
 20
318.978515625
 30
0.0
 10
277.0546875
 20
325.328125
 30
0.0
 10
277.0546875
 20
333.1484375
 30
0.0
 10
277.0546875
 20
333.1484375
 30
0.0
 10
277.0546875
 20
399.0380859375
 30
0.0
 10
277.0546875
 20
399.0380859375
 30
0.0
 10
277.0546875
 20
406.8681640625
 30
0.0
 10
270.71484375
 20
413.21875
 30
0.0
 10
262.884765625
 20
413.21875
 30
0.0
 10
262.884765625
 20
413.21875
 30
0.0
 10
240.20458984375
 20
413.21875
 30
0.0
 10
240.20458984375
 20
413.21875
 30
0.0
 10
240.20458984375
 20
413.21875
 30
0.0
 10
240.20458984375
 20
386.5185546875
 30
0.0
 10
240.20458984375
 20
386.5185546875
 30
0.0
 10
240.20458984375
 20
386.5185546875
 30
0.0
 10
206.10498046875
 20
386.5185546875
 30
0.0
 10
206.10498046875
 20
386.5185546875
 30
0.0
  0
POLYLINE
  5
B6
330
9D
100
AcDbEntity
  8
LAYER_1
 62
   250
100
AcDb2dPolyline
 66
     1
 10
0.0
 20
0.0
 30
0.0
  0
VERTEX
  5
B7
330
B6
100
AcDbEntity
  8
LAYER_1
 62
   250
100
AcDbVertex
100
AcDb2dVertex
 10
240.205078125
 20
349.66796875
 30
0.0
  0
VERTEX
  5
B8
330
B6
100
AcDbEntity
  8
LAYER_1
 62
   250
100
AcDbVertex
100
AcDb2dVertex
 10
240.205078125
 20
387.2548828125
 30
0.0
  0
SEQEND
  5
B9
330
B6
100
AcDbEntity
  8
LAYER_1
  0
SPLINE
  5
BA
330
9D
100
AcDbEntity
  8
LAYER_1
 62
   250
100
AcDbSpline
210
0.0
220
0.0
230
1.0
 70
    11
 71
     3
 72
    29
 73
    25
 74
     0
 42
0.0000000001
 43
0.0000000001
 40
0.0
 40
0.0
 40
0.0
 40
0.0
 40
1.0
 40
1.0
 40
1.0
 40
2.0
 40
2.0
 40
2.0
 40
3.0
 40
3.0
 40
3.0
 40
4.0
 40
4.0
 40
4.0
 40
5.0
 40
5.0
 40
5.0
 40
6.0
 40
6.0
 40
6.0
 40
7.0
 40
7.0
 40
7.0
 40
8.0
 40
8.0
 40
8.0
 40
8.0
 10
194.7841796875
 20
292.08203125
 30
0.0
 10
194.7841796875
 20
292.08203125
 30
0.0
 10
195.0517578125
 20
292.08203125
 30
0.0
 10
195.0517578125
 20
292.08203125
 30
0.0
 10
200.56201171875
 20
292.08203125
 30
0.0
 10
205.07080078125
 20
296.5908203125
 30
0.0
 10
205.07080078125
 20
302.1005859375
 30
0.0
 10
205.07080078125
 20
302.1005859375
 30
0.0
 10
205.07080078125
 20
336.3583984375
 30
0.0
 10
205.07080078125
 20
336.3583984375
 30
0.0
 10
205.07080078125
 20
341.8701171875
 30
0.0
 10
200.56201171875
 20
346.3779296875
 30
0.0
 10
195.0517578125
 20
346.3779296875
 30
0.0
 10
195.0517578125
 20
346.3779296875
 30
0.0
 10
194.7841796875
 20
346.3779296875
 30
0.0
 10
194.7841796875
 20
346.3779296875
 30
0.0
 10
189.27392578125
 20
346.3779296875
 30
0.0
 10
184.76513671875
 20
341.8701171875
 30
0.0
 10
184.76513671875
 20
336.3583984375
 30
0.0
 10
184.76513671875
 20
336.3583984375
 30
0.0
 10
184.76513671875
 20
302.1005859375
 30
0.0
 10
184.76513671875
 20
302.1005859375
 30
0.0
 10
184.76513671875
 20
296.5908203125
 30
0.0
 10
189.27392578125
 20
292.08203125
 30
0.0
 10
194.7841796875
 20
292.08203125
 30
0.0
  0
SPLINE
  5
BB
330
9D
100
AcDbEntity
  8
LAYER_1
100
AcDbSpline
210
0.0
220
0.0
230
1.0
 70
    11
 71
     3
 72
    29
 73
    25
 74
     0
 42
0.0000000001
 43
0.0000000001
 40
0.0
 40
0.0
 40
0.0
 40
0.0
 40
1.0
 40
1.0
 40
1.0
 40
2.0
 40
2.0
 40
2.0
 40
3.0
 40
3.0
 40
3.0
 40
4.0
 40
4.0
 40
4.0
 40
5.0
 40
5.0
 40
5.0
 40
6.0
 40
6.0
 40
6.0
 40
7.0
 40
7.0
 40
7.0
 40
8.0
 40
8.0
 40
8.0
 40
8.0
 10
157.94091796875
 20
325.578125
 30
0.0
 10
157.94091796875
 20
325.578125
 30
0.0
 10
194.5107421875
 20
325.578125
 30
0.0
 10
194.5107421875
 20
325.578125
 30
0.0
 10
201.11083984375
 20
325.578125
 30
0.0
 10
206.5107421875
 20
330.978515625
 30
0.0
 10
206.5107421875
 20
337.578125
 30
0.0
 10
206.5107421875
 20
337.578125
 30
0.0
 10
206.5107421875
 20
395.0810546875
 30
0.0
 10
206.5107421875
 20
395.0810546875
 30
0.0
 10
206.5107421875
 20
401.681640625
 30
0.0
 10
201.11083984375
 20
407.0810546875
 30
0.0
 10
194.5107421875
 20
407.0810546875
 30
0.0
 10
194.5107421875
 20
407.0810546875
 30
0.0
 10
157.94091796875
 20
407.0810546875
 30
0.0
 10
157.94091796875
 20
407.0810546875
 30
0.0
 10
151.3408203125
 20
407.0810546875
 30
0.0
 10
145.94091796875
 20
401.681640625
 30
0.0
 10
145.94091796875
 20
395.0810546875
 30
0.0
 10
145.94091796875
 20
395.0810546875
 30
0.0
 10
145.94091796875
 20
337.578125
 30
0.0
 10
145.94091796875
 20
337.578125
 30
0.0
 10
145.94091796875
 20
330.978515625
 30
0.0
 10
151.3408203125
 20
325.578125
 30
0.0
 10
157.94091796875
 20
325.578125
 30
0.0
  0
SPLINE
  5
BC
330
9D
100
AcDbEntity
  8
LAYER_1
 62
   250
100
AcDbSpline
210
0.0
220
0.0
230
1.0
 70
    11
 71
     3
 72
    29
 73
    25
 74
     0
 42
0.0000000001
 43
0.0000000001
 40
0.0
 40
0.0
 40
0.0
 40
0.0
 40
1.0
 40
1.0
 40
1.0
 40
2.0
 40
2.0
 40
2.0
 40
3.0
 40
3.0
 40
3.0
 40
4.0
 40
4.0
 40
4.0
 40
5.0
 40
5.0
 40
5.0
 40
6.0
 40
6.0
 40
6.0
 40
7.0
 40
7.0
 40
7.0
 40
8.0
 40
8.0
 40
8.0
 40
8.0
 10
157.94091796875
 20
325.578125
 30
0.0
 10
157.94091796875
 20
325.578125
 30
0.0
 10
194.5107421875
 20
325.578125
 30
0.0
 10
194.5107421875
 20
325.578125
 30
0.0
 10
201.11083984375
 20
325.578125
 30
0.0
 10
206.5107421875
 20
330.978515625
 30
0.0
 10
206.5107421875
 20
337.578125
 30
0.0
 10
206.5107421875
 20
337.578125
 30
0.0
 10
206.5107421875
 20
395.0810546875
 30
0.0
 10
206.5107421875
 20
395.0810546875
 30
0.0
 10
206.5107421875
 20
401.681640625
 30
0.0
 10
201.11083984375
 20
407.0810546875
 30
0.0
 10
194.5107421875
 20
407.0810546875
 30
0.0
 10
194.5107421875
 20
407.0810546875
 30
0.0
 10
157.94091796875
 20
407.0810546875
 30
0.0
 10
157.94091796875
 20
407.0810546875
 30
0.0
 10
151.3408203125
 20
407.0810546875
 30
0.0
 10
145.94091796875
 20
401.681640625
 30
0.0
 10
145.94091796875
 20
395.0810546875
 30
0.0
 10
145.94091796875
 20
395.0810546875
 30
0.0
 10
145.94091796875
 20
337.578125
 30
0.0
 10
145.94091796875
 20
337.578125
 30
0.0
 10
145.94091796875
 20
330.978515625
 30
0.0
 10
151.3408203125
 20
325.578125
 30
0.0
 10
157.94091796875
 20
325.578125
 30
0.0
  0
SPLINE
  5
BD
330
9D
100
AcDbEntity
  8
LAYER_1
 62
     7
100
AcDbSpline
210
0.0
220
0.0
230
1.0
 70
    11
 71
     3
 72
    23
 73
    19
 74
     0
 42
0.0000000001
 43
0.0000000001
 40
0.0
 40
0.0
 40
0.0
 40
0.0
 40
1.0
 40
1.0
 40
1.0
 40
2.0
 40
2.0
 40
2.0
 40
3.0
 40
3.0
 40
3.0
 40
4.0
 40
4.0
 40
4.0
 40
5.0
 40
5.0
 40
5.0
 40
6.0
 40
6.0
 40
6.0
 40
6.0
 10
181.6142578125
 20
391.732421875
 30
0.0
 10
181.6142578125
 20
391.732421875
 30
0.0
 10
206.51123046875
 20
391.732421875
 30
0.0
 10
206.51123046875
 20
391.732421875
 30
0.0
 10
206.51123046875
 20
391.732421875
 30
0.0
 10
206.51123046875
 20
342.58203125
 30
0.0
 10
206.51123046875
 20
342.58203125
 30
0.0
 10
206.51123046875
 20
342.58203125
 30
0.0
 10
181.6142578125
 20
342.58203125
 30
0.0
 10
181.6142578125
 20
342.58203125
 30
0.0
 10
173.7861328125
 20
342.58203125
 30
0.0
 10
167.44091796875
 20
348.927734375
 30
0.0
 10
167.44091796875
 20
356.7548828125
 30
0.0
 10
167.44091796875
 20
356.7548828125
 30
0.0
 10
167.44091796875
 20
377.5595703125
 30
0.0
 10
167.44091796875
 20
377.5595703125
 30
0.0
 10
167.44091796875
 20
385.38671875
 30
0.0
 10
173.7861328125
 20
391.732421875
 30
0.0
 10
181.6142578125
 20
391.732421875
 30
0.0
  0
POLYLINE
  5
BE
330
9D
100
AcDbEntity
  8
LAYER_1
100
AcDb2dPolyline
 66
     1
 10
0.0
 20
0.0
 30
0.0
  0
VERTEX
  5
BF
330
BE
100
AcDbEntity
  8
LAYER_1
100
AcDbVertex
100
AcDb2dVertex
 10
277.8046875
 20
413.96875
 30
0.0
  0
VERTEX
  5
C0
330
BE
100
AcDbEntity
  8
LAYER_1
100
AcDbVertex
100
AcDb2dVertex
 10
105.19091796875
 20
413.96875
 30
0.0
  0
VERTEX
  5
C1
330
BE
100
AcDbEntity
  8
LAYER_1
100
AcDbVertex
100
AcDb2dVertex
 10
105.19091796875
 20
291.33203125
 30
0.0
  0
VERTEX
  5
C2
330
BE
100
AcDbEntity
  8
LAYER_1
100
AcDbVertex
100
AcDb2dVertex
 10
277.8046875
 20
291.33203125
 30
0.0
  0
VERTEX
  5
C3
330
BE
100
AcDbEntity
  8
LAYER_1
100
AcDbVertex
100
AcDb2dVertex
 10
277.8046875
 20
413.96875
 30
0.0
  0
SEQEND
  5
C4
330
BE
100
AcDbEntity
  8
LAYER_1
  0
ENDBLK
  5
A0
330
9D
100
AcDbEntity
  8
0
100
AcDbBlockEnd
  0
BLOCK
  5
EC
330
EA
100
AcDbEntity
  8
0
100
AcDbBlockBegin
  2
BLOCK_4
 70
     0
 71
     0
 10
0.0
 20
0.0
 30
0.0
  3
BLOCK_4
  1

  0
SPLINE
  5
EE
330
EA
100
AcDbEntity
  8
LAYER_1
 62
   250
100
AcDbSpline
210
0.0
220
0.0
230
1.0
 70
    11
 71
     3
 72
    32
 73
    28
 74
     0
 42
0.0000000001
 43
0.0000000001
 40
0.0
 40
0.0
 40
0.0
 40
0.0
 40
1.0
 40
1.0
 40
1.0
 40
2.0
 40
2.0
 40
2.0
 40
3.0
 40
3.0
 40
3.0
 40
4.0
 40
4.0
 40
4.0
 40
5.0
 40
5.0
 40
5.0
 40
6.0
 40
6.0
 40
6.0
 40
7.0
 40
7.0
 40
7.0
 40
8.0
 40
8.0
 40
8.0
 40
9.0
 40
9.0
 40
9.0
 40
9.0
 10
427.390625
 20
177.6591796875
 30
0.0
 10
427.390625
 20
177.6591796875
 30
0.0
 10
427.390625
 20
95.1396484375
 30
0.0
 10
427.390625
 20
95.1396484375
 30
0.0
 10
427.390625
 20
95.1396484375
 30
0.0
 10
303.11083984375
 20
95.1396484375
 30
0.0
 10
303.11083984375
 20
95.1396484375
 30
0.0
 10
303.11083984375
 20
95.1396484375
 30
0.0
 10
303.11083984375
 20
123.4892578125
 30
0.0
 10
303.11083984375
 20
123.4892578125
 30
0.0
 10
303.11083984375
 20
139.1396484375
 30
0.0
 10
315.81103515625
 20
151.8388671875
 30
0.0
 10
331.4609375
 20
151.8388671875
 30
0.0
 10
331.4609375
 20
151.8388671875
 30
0.0
 10
347.3310546875
 20
151.8388671875
 30
0.0
 10
347.3310546875
 20
151.8388671875
 30
0.0
 10
347.3310546875
 20
151.8388671875
 30
0.0
 10
347.3310546875
 20
177.6591796875
 30
0.0
 10
347.3310546875
 20
177.6591796875
 30
0.0
 10
347.3310546875
 20
185.4892578125
 30
0.0
 10
353.68115234375
 20
191.8388671875
 30
0.0
 10
361.5107421875
 20
191.8388671875
 30
0.0
 10
361.5107421875
 20
191.8388671875
 30
0.0
 10
413.35107421875
 20
191.8388671875
 30
0.0
 10
413.35107421875
 20
191.8388671875
 30
0.0
 10
421.12109375
 20
191.7587890625
 30
0.0
 10
427.390625
 20
185.439453125
 30
0.0
 10
427.390625
 20
177.6591796875
 30
0.0
  0
SPLINE
  5
EF
330
EA
100
AcDbEntity
  8
LAYER_1
 62
   250
100
AcDbSpline
210
0.0
220
0.0
230
1.0
 70
     8
 71
     3
 72
    53
 73
    49
 74
     0
 42
0.0000000001
 43
0.0000000001
 40
0.0
 40
0.0
 40
0.0
 40
0.0
 40
1.0
 40
1.0
 40
1.0
 40
2.0
 40
2.0
 40
2.0
 40
3.0
 40
3.0
 40
3.0
 40
4.0
 40
4.0
 40
4.0
 40
5.0
 40
5.0
 40
5.0
 40
6.0
 40
6.0
 40
6.0
 40
7.0
 40
7.0
 40
7.0
 40
8.0
 40
8.0
 40
8.0
 40
9.0
 40
9.0
 40
9.0
 40
10.0
 40
10.0
 40
10.0
 40
11.0
 40
11.0
 40
11.0
 40
12.0
 40
12.0
 40
12.0
 40
13.0
 40
13.0
 40
13.0
 40
14.0
 40
14.0
 40
14.0
 40
15.0
 40
15.0
 40
15.0
 40
16.0
 40
16.0
 40
16.0
 40
16.0
 10
303.01611328125
 20
86.5478515625
 30
0.0
 10
306.90087890625
 20
86.5478515625
 30
0.0
 10
306.90087890625
 20
84.5634765625
 30
0.0
 10
310.78515625
 20
84.5634765625
 30
0.0
 10
314.6708984375
 20
84.5634765625
 30
0.0
 10
314.6708984375
 20
86.5478515625
 30
0.0
 10
318.55712890625
 20
86.5478515625
 30
0.0
 10
322.44287109375
 20
86.5478515625
 30
0.0
 10
322.44287109375
 20
84.5634765625
 30
0.0
 10
326.3291015625
 20
84.5634765625
 30
0.0
 10
330.21484375
 20
84.5634765625
 30
0.0
 10
330.21484375
 20
86.5478515625
 30
0.0
 10
334.10107421875
 20
86.5478515625
 30
0.0
 10
337.98681640625
 20
86.5478515625
 30
0.0
 10
337.98681640625
 20
84.5634765625
 30
0.0
 10
341.873046875
 20
84.5634765625
 30
0.0
 10
345.75927734375
 20
84.5634765625
 30
0.0
 10
345.75927734375
 20
86.5478515625
 30
0.0
 10
349.64501953125
 20
86.5478515625
 30
0.0
 10
353.5322265625
 20
86.5478515625
 30
0.0
 10
353.5322265625
 20
84.5634765625
 30
0.0
 10
357.4189453125
 20
84.5634765625
 30
0.0
 10
361.30322265625
 20
84.5634765625
 30
0.0
 10
361.30322265625
 20
86.5478515625
 30
0.0
 10
365.18701171875
 20
86.5478515625
 30
0.0
 10
369.0732421875
 20
86.5478515625
 30
0.0
 10
369.0732421875
 20
84.5634765625
 30
0.0
 10
372.958984375
 20
84.5634765625
 30
0.0
 10
376.84521484375
 20
84.5634765625
 30
0.0
 10
376.84521484375
 20
86.5478515625
 30
0.0
 10
380.73095703125
 20
86.5478515625
 30
0.0
 10
384.6171875
 20
86.5478515625
 30
0.0
 10
384.6171875
 20
84.5634765625
 30
0.0
 10
388.5029296875
 20
84.5634765625
 30
0.0
 10
392.39013671875
 20
84.5634765625
 30
0.0
 10
392.39013671875
 20
86.5478515625
 30
0.0
 10
396.27685546875
 20
86.5478515625
 30
0.0
 10
400.166015625
 20
86.5478515625
 30
0.0
 10
400.166015625
 20
84.5634765625
 30
0.0
 10
404.05419921875
 20
84.5634765625
 30
0.0
 10
407.94091796875
 20
84.5634765625
 30
0.0
 10
407.94091796875
 20
86.5478515625
 30
0.0
 10
411.828125
 20
86.5478515625
 30
0.0
 10
415.71826171875
 20
86.5478515625
 30
0.0
 10
415.71826171875
 20
84.5634765625
 30
0.0
 10
419.60791015625
 20
84.5634765625
 30
0.0
 10
423.498046875
 20
84.5634765625
 30
0.0
 10
423.498046875
 20
86.5478515625
 30
0.0
 10
427.388671875
 20
86.5478515625
 30
0.0
  0
POLYLINE
  5
F0
330
EA
100
AcDbEntity
  8
LAYER_1
 62
   250
100
AcDb2dPolyline
 66
     1
 10
0.0
 20
0.0
 30
0.0
  0
VERTEX
  5
F1
330
F0
100
AcDbEntity
  8
LAYER_1
 62
   250
100
AcDbVertex
100
AcDb2dVertex
 10
427.38671875
 20
86.5556640625
 30
0.0
  0
VERTEX
  5
F2
330
F0
100
AcDbEntity
  8
LAYER_1
 62
   250
100
AcDbVertex
100
AcDb2dVertex
 10
427.38671875
 20
95.138671875
 30
0.0
  0
SEQEND
  5
F3
330
F0
100
AcDbEntity
  8
LAYER_1
  0
POLYLINE
  5
F4
330
EA
100
AcDbEntity
  8
LAYER_1
 62
   250
100
AcDb2dPolyline
 66
     1
 10
0.0
 20
0.0
 30
0.0
  0
VERTEX
  5
F5
330
F4
100
AcDbEntity
  8
LAYER_1
 62
   250
100
AcDbVertex
100
AcDb2dVertex
 10
347.3310546875
 20
151.8388671875
 30
0.0
  0
VERTEX
  5
F6
330
F4
100
AcDbEntity
  8
LAYER_1
 62
   250
100
AcDbVertex
100
AcDb2dVertex
 10
427.390625
 20
151.8388671875
 30
0.0
  0
SEQEND
  5
F7
330
F4
100
AcDbEntity
  8
LAYER_1
  0
SPLINE
  5
F8
330
EA
100
AcDbEntity
  8
LAYER_1
 62
   250
100
AcDbSpline
210
0.0
220
0.0
230
1.0
 70
    11
 71
     3
 72
    20
 73
    16
 74
     0
 42
0.0000000001
 43
0.0000000001
 40
0.0
 40
0.0
 40
0.0
 40
0.0
 40
1.0
 40
1.0
 40
1.0
 40
2.0
 40
2.0
 40
2.0
 40
3.0
 40
3.0
 40
3.0
 40
4.0
 40
4.0
 40
4.0
 40
5.0
 40
5.0
 40
5.0
 40
5.0
 10
427.38671875
 20
122.6484375
 30
0.0
 10
427.38671875
 20
122.6484375
 30
0.0
 10
400.12646484375
 20
122.6484375
 30
0.0
 10
400.12646484375
 20
122.6484375
 30
0.0
 10
393.07666015625
 20
122.6484375
 30
0.0
 10
387.36083984375
 20
116.931640625
 30
0.0
 10
387.36083984375
 20
109.8818359375
 30
0.0
 10
387.36083984375
 20
109.8818359375
 30
0.0
 10
387.36083984375
 20
95.138671875
 30
0.0
 10
387.36083984375
 20
95.138671875
 30
0.0
 10
387.36083984375
 20
95.138671875
 30
0.0
 10
427.38671875
 20
95.138671875
 30
0.0
 10
427.38671875
 20
95.138671875
 30
0.0
 10
427.38671875
 20
95.138671875
 30
0.0
 10
427.38671875
 20
122.6484375
 30
0.0
 10
427.38671875
 20
122.6484375
 30
0.0
  0
POLYLINE
  5
F9
330
EA
100
AcDbEntity
  8
LAYER_1
 62
   250
100
AcDb2dPolyline
 66
     1
 10
0.0
 20
0.0
 30
0.0
  0
VERTEX
  5
FA
330
F9
100
AcDbEntity
  8
LAYER_1
 62
   250
100
AcDbVertex
100
AcDb2dVertex
 10
347.3310546875
 20
177.6591796875
 30
0.0
  0
VERTEX
  5
FB
330
F9
100
AcDbEntity
  8
LAYER_1
 62
   250
100
AcDbVertex
100
AcDb2dVertex
 10
427.388671875
 20
177.6591796875
 30
0.0
  0
SEQEND
  5
FC
330
F9
100
AcDbEntity
  8
LAYER_1
  0
POLYLINE
  5
FD
330
EA
100
AcDbEntity
  8
LAYER_1
 62
   250
100
AcDb2dPolyline
 66
     1
 10
0.0
 20
0.0
 30
0.0
  0
VERTEX
  5
FE
330
FD
100
AcDbEntity
  8
LAYER_1
 62
   250
100
AcDbVertex
100
AcDb2dVertex
 10
303.1103515625
 20
95.1396484375
 30
0.0
  0
VERTEX
  5
FF
330
FD
100
AcDbEntity
  8
LAYER_1
 62
   250
100
AcDbVertex
100
AcDb2dVertex
 10
303.1103515625
 20
86.556640625
 30
0.0
  0
SEQEND
  5
100
330
FD
100
AcDbEntity
  8
LAYER_1
  0
POLYLINE
  5
101
330
EA
100
AcDbEntity
  8
LAYER_1
100
AcDb2dPolyline
 66
     1
 10
0.0
 20
0.0
 30
0.0
  0
VERTEX
  5
102
330
101
100
AcDbEntity
  8
LAYER_1
100
AcDbVertex
100
AcDb2dVertex
 10
302.26611328125
 20
192.5888671875
 30
0.0
  0
VERTEX
  5
103
330
101
100
AcDbEntity
  8
LAYER_1
100
AcDbVertex
100
AcDb2dVertex
 10
434.921875
 20
192.5888671875
 30
0.0
  0
VERTEX
  5
104
330
101
100
AcDbEntity
  8
LAYER_1
100
AcDbVertex
100
AcDb2dVertex
 10
434.921875
 20
83.8134765625
 30
0.0
  0
VERTEX
  5
105
330
101
100
AcDbEntity
  8
LAYER_1
100
AcDbVertex
100
AcDb2dVertex
 10
302.26611328125
 20
83.8134765625
 30
0.0
  0
VERTEX
  5
106
330
101
100
AcDbEntity
  8
LAYER_1
100
AcDbVertex
100
AcDb2dVertex
 10
302.26611328125
 20
192.5888671875
 30
0.0
  0
SEQEND
  5
107
330
101
100
AcDbEntity
  8
LAYER_1
  0
ENDBLK
  5
ED
330
EA
100
AcDbEntity
  8
0
100
AcDbBlockEnd
  0
BLOCK
  5
10A
330
108
100
AcDbEntity
  8
0
100
AcDbBlockBegin
  2
BLOCK_5
 70
     0
 71
     0
 10
0.0
 20
0.0
 30
0.0
  3
BLOCK_5
  1

  0
SPLINE
  5
10C
330
108
100
AcDbEntity
  8
LAYER_1
 62
   250
100
AcDbSpline
210
0.0
220
0.0
230
1.0
 70
    11
 71
     3
 72
    32
 73
    28
 74
     0
 42
0.0000000001
 43
0.0000000001
 40
0.0
 40
0.0
 40
0.0
 40
0.0
 40
1.0
 40
1.0
 40
1.0
 40
2.0
 40
2.0
 40
2.0
 40
3.0
 40
3.0
 40
3.0
 40
4.0
 40
4.0
 40
4.0
 40
5.0
 40
5.0
 40
5.0
 40
6.0
 40
6.0
 40
6.0
 40
7.0
 40
7.0
 40
7.0
 40
8.0
 40
8.0
 40
8.0
 40
9.0
 40
9.0
 40
9.0
 40
9.0
 10
439.794921875
 20
177.6591796875
 30
0.0
 10
439.794921875
 20
177.6591796875
 30
0.0
 10
439.794921875
 20
95.1396484375
 30
0.0
 10
439.794921875
 20
95.1396484375
 30
0.0
 10
439.794921875
 20
95.1396484375
 30
0.0
 10
564.076171875
 20
95.1396484375
 30
0.0
 10
564.076171875
 20
95.1396484375
 30
0.0
 10
564.076171875
 20
95.1396484375
 30
0.0
 10
564.076171875
 20
123.4892578125
 30
0.0
 10
564.076171875
 20
123.4892578125
 30
0.0
 10
564.076171875
 20
139.1396484375
 30
0.0
 10
551.375
 20
151.8388671875
 30
0.0
 10
535.724609375
 20
151.8388671875
 30
0.0
 10
535.724609375
 20
151.8388671875
 30
0.0
 10
519.8564453125
 20
151.8388671875
 30
0.0
 10
519.8564453125
 20
151.8388671875
 30
0.0
 10
519.8564453125
 20
151.8388671875
 30
0.0
 10
519.8564453125
 20
177.6591796875
 30
0.0
 10
519.8564453125
 20
177.6591796875
 30
0.0
 10
519.8564453125
 20
185.4892578125
 30
0.0
 10
513.505859375
 20
191.8388671875
 30
0.0
 10
505.67578125
 20
191.8388671875
 30
0.0
 10
505.67578125
 20
191.8388671875
 30
0.0
 10
453.8349609375
 20
191.8388671875
 30
0.0
 10
453.8349609375
 20
191.8388671875
 30
0.0
 10
446.0654296875
 20
191.7587890625
 30
0.0
 10
439.794921875
 20
185.439453125
 30
0.0
 10
439.794921875
 20
177.6591796875
 30
0.0
  0
SPLINE
  5
10D
330
108
100
AcDbEntity
  8
LAYER_1
 62
   250
100
AcDbSpline
210
0.0
220
0.0
230
1.0
 70
     8
 71
     3
 72
    53
 73
    49
 74
     0
 42
0.0000000001
 43
0.0000000001
 40
0.0
 40
0.0
 40
0.0
 40
0.0
 40
1.0
 40
1.0
 40
1.0
 40
2.0
 40
2.0
 40
2.0
 40
3.0
 40
3.0
 40
3.0
 40
4.0
 40
4.0
 40
4.0
 40
5.0
 40
5.0
 40
5.0
 40
6.0
 40
6.0
 40
6.0
 40
7.0
 40
7.0
 40
7.0
 40
8.0
 40
8.0
 40
8.0
 40
9.0
 40
9.0
 40
9.0
 40
10.0
 40
10.0
 40
10.0
 40
11.0
 40
11.0
 40
11.0
 40
12.0
 40
12.0
 40
12.0
 40
13.0
 40
13.0
 40
13.0
 40
14.0
 40
14.0
 40
14.0
 40
15.0
 40
15.0
 40
15.0
 40
16.0
 40
16.0
 40
16.0
 40
16.0
 10
564.169921875
 20
86.5478515625
 30
0.0
 10
560.28515625
 20
86.5478515625
 30
0.0
 10
560.28515625
 20
84.5634765625
 30
0.0
 10
556.40234375
 20
84.5634765625
 30
0.0
 10
552.5146484375
 20
84.5634765625
 30
0.0
 10
552.5146484375
 20
86.5478515625
 30
0.0
 10
548.62890625
 20
86.5478515625
 30
0.0
 10
544.744140625
 20
86.5478515625
 30
0.0
 10
544.744140625
 20
84.5634765625
 30
0.0
 10
540.857421875
 20
84.5634765625
 30
0.0
 10
536.970703125
 20
84.5634765625
 30
0.0
 10
536.970703125
 20
86.5478515625
 30
0.0
 10
533.0849609375
 20
86.5478515625
 30
0.0
 10
529.19921875
 20
86.5478515625
 30
0.0
 10
529.19921875
 20
84.5634765625
 30
0.0
 10
525.3134765625
 20
84.5634765625
 30
0.0
 10
521.4267578125
 20
84.5634765625
 30
0.0
 10
521.4267578125
 20
86.5478515625
 30
0.0
 10
517.541015625
 20
86.5478515625
 30
0.0
 10
513.654296875
 20
86.5478515625
 30
0.0
 10
513.654296875
 20
84.5634765625
 30
0.0
 10
509.767578125
 20
84.5634765625
 30
0.0
 10
505.8828125
 20
84.5634765625
 30
0.0
 10
505.8828125
 20
86.5478515625
 30
0.0
 10
501.9990234375
 20
86.5478515625
 30
0.0
 10
498.1142578125
 20
86.5478515625
 30
0.0
 10
498.1142578125
 20
84.5634765625
 30
0.0
 10
494.2275390625
 20
84.5634765625
 30
0.0
 10
490.3408203125
 20
84.5634765625
 30
0.0
 10
490.3408203125
 20
86.5478515625
 30
0.0
 10
486.4560546875
 20
86.5478515625
 30
0.0
 10
482.5693359375
 20
86.5478515625
 30
0.0
 10
482.5693359375
 20
84.5634765625
 30
0.0
 10
478.6826171875
 20
84.5634765625
 30
0.0
 10
474.796875
 20
84.5634765625
 30
0.0
 10
474.796875
 20
86.5478515625
 30
0.0
 10
470.91015625
 20
86.5478515625
 30
0.0
 10
467.01953125
 20
86.5478515625
 30
0.0
 10
467.01953125
 20
84.5634765625
 30
0.0
 10
463.1318359375
 20
84.5634765625
 30
0.0
 10
459.2451171875
 20
84.5634765625
 30
0.0
 10
459.2451171875
 20
86.5478515625
 30
0.0
 10
455.359375
 20
86.5478515625
 30
0.0
 10
451.46875
 20
86.5478515625
 30
0.0
 10
451.46875
 20
84.5634765625
 30
0.0
 10
447.578125
 20
84.5634765625
 30
0.0
 10
443.6884765625
 20
84.5634765625
 30
0.0
 10
443.6884765625
 20
86.5478515625
 30
0.0
 10
439.7978515625
 20
86.5478515625
 30
0.0
  0
POLYLINE
  5
10E
330
108
100
AcDbEntity
  8
LAYER_1
 62
   250
100
AcDb2dPolyline
 66
     1
 10
0.0
 20
0.0
 30
0.0
  0
VERTEX
  5
10F
330
10E
100
AcDbEntity
  8
LAYER_1
 62
   250
100
AcDbVertex
100
AcDb2dVertex
 10
439.798828125
 20
86.5556640625
 30
0.0
  0
VERTEX
  5
110
330
10E
100
AcDbEntity
  8
LAYER_1
 62
   250
100
AcDbVertex
100
AcDb2dVertex
 10
439.798828125
 20
95.138671875
 30
0.0
  0
SEQEND
  5
111
330
10E
100
AcDbEntity
  8
LAYER_1
  0
POLYLINE
  5
112
330
108
100
AcDbEntity
  8
LAYER_1
 62
   250
100
AcDb2dPolyline
 66
     1
 10
0.0
 20
0.0
 30
0.0
  0
VERTEX
  5
113
330
112
100
AcDbEntity
  8
LAYER_1
 62
   250
100
AcDbVertex
100
AcDb2dVertex
 10
519.8564453125
 20
151.8388671875
 30
0.0
  0
VERTEX
  5
114
330
112
100
AcDbEntity
  8
LAYER_1
 62
   250
100
AcDbVertex
100
AcDb2dVertex
 10
439.794921875
 20
151.8388671875
 30
0.0
  0
SEQEND
  5
115
330
112
100
AcDbEntity
  8
LAYER_1
  0
SPLINE
  5
116
330
108
100
AcDbEntity
  8
LAYER_1
 62
   250
100
AcDbSpline
210
0.0
220
0.0
230
1.0
 70
    11
 71
     3
 72
    20
 73
    16
 74
     0
 42
0.0000000001
 43
0.0000000001
 40
0.0
 40
0.0
 40
0.0
 40
0.0
 40
1.0
 40
1.0
 40
1.0
 40
2.0
 40
2.0
 40
2.0
 40
3.0
 40
3.0
 40
3.0
 40
4.0
 40
4.0
 40
4.0
 40
5.0
 40
5.0
 40
5.0
 40
5.0
 10
439.798828125
 20
122.6484375
 30
0.0
 10
439.798828125
 20
122.6484375
 30
0.0
 10
467.060546875
 20
122.6484375
 30
0.0
 10
467.060546875
 20
122.6484375
 30
0.0
 10
474.1103515625
 20
122.6484375
 30
0.0
 10
479.826171875
 20
116.931640625
 30
0.0
 10
479.826171875
 20
109.8818359375
 30
0.0
 10
479.826171875
 20
109.8818359375
 30
0.0
 10
479.826171875
 20
95.138671875
 30
0.0
 10
479.826171875
 20
95.138671875
 30
0.0
 10
479.826171875
 20
95.138671875
 30
0.0
 10
439.798828125
 20
95.138671875
 30
0.0
 10
439.798828125
 20
95.138671875
 30
0.0
 10
439.798828125
 20
95.138671875
 30
0.0
 10
439.798828125
 20
122.6484375
 30
0.0
 10
439.798828125
 20
122.6484375
 30
0.0
  0
POLYLINE
  5
117
330
108
100
AcDbEntity
  8
LAYER_1
 62
   250
100
AcDb2dPolyline
 66
     1
 10
0.0
 20
0.0
 30
0.0
  0
VERTEX
  5
118
330
117
100
AcDbEntity
  8
LAYER_1
 62
   250
100
AcDbVertex
100
AcDb2dVertex
 10
519.8564453125
 20
177.6591796875
 30
0.0
  0
VERTEX
  5
119
330
117
100
AcDbEntity
  8
LAYER_1
 62
   250
100
AcDbVertex
100
AcDb2dVertex
 10
439.7978515625
 20
177.6591796875
 30
0.0
  0
SEQEND
  5
11A
330
117
100
AcDbEntity
  8
LAYER_1
  0
POLYLINE
  5
11B
330
108
100
AcDbEntity
  8
LAYER_1
 62
   250
100
AcDb2dPolyline
 66
     1
 10
0.0
 20
0.0
 30
0.0
  0
VERTEX
  5
11C
330
11B
100
AcDbEntity
  8
LAYER_1
 62
   250
100
AcDbVertex
100
AcDb2dVertex
 10
564.076171875
 20
95.1396484375
 30
0.0
  0
VERTEX
  5
11D
330
11B
100
AcDbEntity
  8
LAYER_1
 62
   250
100
AcDbVertex
100
AcDb2dVertex
 10
564.076171875
 20
86.556640625
 30
0.0
  0
SEQEND
  5
11E
330
11B
100
AcDbEntity
  8
LAYER_1
  0
POLYLINE
  5
11F
330
108
100
AcDbEntity
  8
LAYER_1
100
AcDb2dPolyline
 66
     1
 10
0.0
 20
0.0
 30
0.0
  0
VERTEX
  5
120
330
11F
100
AcDbEntity
  8
LAYER_1
100
AcDbVertex
100
AcDb2dVertex
 10
564.919921875
 20
192.5888671875
 30
0.0
  0
VERTEX
  5
121
330
11F
100
AcDbEntity
  8
LAYER_1
100
AcDbVertex
100
AcDb2dVertex
 10
432.2646484375
 20
192.5888671875
 30
0.0
  0
VERTEX
  5
122
330
11F
100
AcDbEntity
  8
LAYER_1
100
AcDbVertex
100
AcDb2dVertex
 10
432.2646484375
 20
83.8134765625
 30
0.0
  0
VERTEX
  5
123
330
11F
100
AcDbEntity
  8
LAYER_1
100
AcDbVertex
100
AcDb2dVertex
 10
564.919921875
 20
83.8134765625
 30
0.0
  0
VERTEX
  5
124
330
11F
100
AcDbEntity
  8
LAYER_1
100
AcDbVertex
100
AcDb2dVertex
 10
564.919921875
 20
192.5888671875
 30
0.0
  0
SEQEND
  5
125
330
11F
100
AcDbEntity
  8
LAYER_1
  0
ENDBLK
  5
10B
330
108
100
AcDbEntity
  8
0
100
AcDbBlockEnd
  0
ENDSEC
  0
SECTION
  2
ENTITIES
  0
SPLINE
  5
3C
330
1F
100
AcDbEntity
  8
LAYER_1
 62
     7
100
AcDbSpline
210
0.0
220
0.0
230
1.0
 70
    11
 71
     3
 72
    65
 73
    61
 74
     0
 42
0.0000000001
 43
0.0000000001
 40
0.0
 40
0.0
 40
0.0
 40
0.0
 40
1.0
 40
1.0
 40
1.0
 40
2.0
 40
2.0
 40
2.0
 40
3.0
 40
3.0
 40
3.0
 40
4.0
 40
4.0
 40
4.0
 40
5.0
 40
5.0
 40
5.0
 40
6.0
 40
6.0
 40
6.0
 40
7.0
 40
7.0
 40
7.0
 40
8.0
 40
8.0
 40
8.0
 40
9.0
 40
9.0
 40
9.0
 40
10.0
 40
10.0
 40
10.0
 40
11.0
 40
11.0
 40
11.0
 40
12.0
 40
12.0
 40
12.0
 40
13.0
 40
13.0
 40
13.0
 40
14.0
 40
14.0
 40
14.0
 40
15.0
 40
15.0
 40
15.0
 40
16.0
 40
16.0
 40
16.0
 40
17.0
 40
17.0
 40
17.0
 40
18.0
 40
18.0
 40
18.0
 40
19.0
 40
19.0
 40
19.0
 40
20.0
 40
20.0
 40
20.0
 40
20.0
 10
370.17041015625
 20
507.671875
 30
0.0
 10
370.17041015625
 20
507.671875
 30
0.0
 10
371.30810546875
 20
507.671875
 30
0.0
 10
371.30810546875
 20
507.671875
 30
0.0
 10
372.05517578125
 20
508.962890625
 30
0.0
 10
373.13134765625
 20
510.0390625
 30
0.0
 10
374.42236328125
 20
510.7861328125
 30
0.0
 10
374.42236328125
 20
510.7861328125
 30
0.0
 10
374.42236328125
 20
511.923828125
 30
0.0
 10
374.42236328125
 20
511.923828125
 30
0.0
 10
374.42236328125
 20
511.923828125
 30
0.0
 10
378.67431640625
 20
511.923828125
 30
0.0
 10
378.67431640625
 20
511.923828125
 30
0.0
 10
378.67431640625
 20
511.923828125
 30
0.0
 10
382.92626953125
 20
511.923828125
 30
0.0
 10
382.92626953125
 20
511.923828125
 30
0.0
 10
382.92626953125
 20
511.923828125
 30
0.0
 10
382.92626953125
 20
510.7861328125
 30
0.0
 10
382.92626953125
 20
510.7861328125
 30
0.0
 10
384.21728515625
 20
510.0390625
 30
0.0
 10
385.29296875
 20
508.962890625
 30
0.0
 10
386.0400390625
 20
507.671875
 30
0.0
 10
386.0400390625
 20
507.671875
 30
0.0
 10
387.17822265625
 20
507.671875
 30
0.0
 10
387.17822265625
 20
507.671875
 30
0.0
 10
387.17822265625
 20
507.671875
 30
0.0
 10
387.17822265625
 20
503.419921875
 30
0.0
 10
387.17822265625
 20
503.419921875
 30
0.0
 10
387.17822265625
 20
503.419921875
 30
0.0
 10
387.17822265625
 20
499.16796875
 30
0.0
 10
387.17822265625
 20
499.16796875
 30
0.0
 10
387.17822265625
 20
499.16796875
 30
0.0
 10
386.0400390625
 20
499.16796875
 30
0.0
 10
386.0400390625
 20
499.16796875
 30
0.0
 10
385.29296875
 20
497.876953125
 30
0.0
 10
384.21728515625
 20
496.80126953125
 30
0.0
 10
382.92626953125
 20
496.05419921875
 30
0.0
 10
382.92626953125
 20
496.05419921875
 30
0.0
 10
382.92626953125
 20
494.916015625
 30
0.0
 10
382.92626953125
 20
494.916015625
 30
0.0
 10
382.92626953125
 20
494.916015625
 30
0.0
 10
378.67431640625
 20
494.916015625
 30
0.0
 10
378.67431640625
 20
494.916015625
 30
0.0
 10
378.67431640625
 20
494.916015625
 30
0.0
 10
374.42236328125
 20
494.916015625
 30
0.0
 10
374.42236328125
 20
494.916015625
 30
0.0
 10
374.42236328125
 20
494.916015625
 30
0.0
 10
374.42236328125
 20
496.05419921875
 30
0.0
 10
374.42236328125
 20
496.05419921875
 30
0.0
 10
373.13134765625
 20
496.80126953125
 30
0.0
 10
372.05517578125
 20
497.876953125
 30
0.0
 10
371.30810546875
 20
499.16796875
 30
0.0
 10
371.30810546875
 20
499.16796875
 30
0.0
 10
370.17041015625
 20
499.16796875
 30
0.0
 10
370.17041015625
 20
499.16796875
 30
0.0
 10
370.17041015625
 20
499.16796875
 30
0.0
 10
370.17041015625
 20
503.419921875
 30
0.0
 10
370.17041015625
 20
503.419921875
 30
0.0
 10
370.17041015625
 20
503.419921875
 30
0.0
 10
370.17041015625
 20
507.671875
 30
0.0
 10
370.17041015625
 20
507.671875
 30
0.0
  0
POLYLINE
  5
3D
330
1F
100
AcDbEntity
  8
LAYER_1
 62
     7
100
AcDb2dPolyline
 66
     1
 10
0.0
 20
0.0
 30
0.0
  0
VERTEX
  5
3E
330
3D
100
AcDbEntity
  8
LAYER_1
 62
     7
100
AcDbVertex
100
AcDb2dVertex
 10
398.51708984375
 20
507.671875
 30
0.0
  0
VERTEX
  5
3F
330
3D
100
AcDbEntity
  8
LAYER_1
 62
     7
100
AcDbVertex
100
AcDb2dVertex
 10
415.52490234375
 20
507.671875
 30
0.0
  0
VERTEX
  5
40
330
3D
100
AcDbEntity
  8
LAYER_1
 62
     7
100
AcDbVertex
100
AcDb2dVertex
 10
415.52490234375
 20
499.16796875
 30
0.0
  0
VERTEX
  5
41
330
3D
100
AcDbEntity
  8
LAYER_1
 62
     7
100
AcDbVertex
100
AcDb2dVertex
 10
398.51708984375
 20
499.16796875
 30
0.0
  0
VERTEX
  5
42
330
3D
100
AcDbEntity
  8
LAYER_1
 62
     7
100
AcDbVertex
100
AcDb2dVertex
 10
398.51708984375
 20
507.671875
 30
0.0
  0
SEQEND
  5
43
330
3D
100
AcDbEntity
  8
LAYER_1
  0
POLYLINE
  5
44
330
1F
100
AcDbEntity
  8
LAYER_1
 62
     7
100
AcDb2dPolyline
 66
     1
 10
0.0
 20
0.0
 30
0.0
  0
VERTEX
  5
45
330
44
100
AcDbEntity
  8
LAYER_1
 62
     7
100
AcDbVertex
100
AcDb2dVertex
 10
455.2099609375
 20
507.671875
 30
0.0
  0
VERTEX
  5
46
330
44
100
AcDbEntity
  8
LAYER_1
 62
     7
100
AcDbVertex
100
AcDb2dVertex
 10
472.21875
 20
507.671875
 30
0.0
  0
VERTEX
  5
47
330
44
100
AcDbEntity
  8
LAYER_1
 62
     7
100
AcDbVertex
100
AcDb2dVertex
 10
472.21875
 20
499.16796875
 30
0.0
  0
VERTEX
  5
48
330
44
100
AcDbEntity
  8
LAYER_1
 62
     7
100
AcDbVertex
100
AcDb2dVertex
 10
455.2099609375
 20
499.16796875
 30
0.0
  0
VERTEX
  5
49
330
44
100
AcDbEntity
  8
LAYER_1
 62
     7
100
AcDbVertex
100
AcDb2dVertex
 10
455.2099609375
 20
507.671875
 30
0.0
  0
SEQEND
  5
4A
330
44
100
AcDbEntity
  8
LAYER_1
  0
SPLINE
  5
4B
330
1F
100
AcDbEntity
  8
LAYER_1
 62
     7
100
AcDbSpline
210
0.0
220
0.0
230
1.0
 70
    11
 71
     3
 72
    65
 73
    61
 74
     0
 42
0.0000000001
 43
0.0000000001
 40
0.0
 40
0.0
 40
0.0
 40
0.0
 40
1.0
 40
1.0
 40
1.0
 40
2.0
 40
2.0
 40
2.0
 40
3.0
 40
3.0
 40
3.0
 40
4.0
 40
4.0
 40
4.0
 40
5.0
 40
5.0
 40
5.0
 40
6.0
 40
6.0
 40
6.0
 40
7.0
 40
7.0
 40
7.0
 40
8.0
 40
8.0
 40
8.0
 40
9.0
 40
9.0
 40
9.0
 40
10.0
 40
10.0
 40
10.0
 40
11.0
 40
11.0
 40
11.0
 40
12.0
 40
12.0
 40
12.0
 40
13.0
 40
13.0
 40
13.0
 40
14.0
 40
14.0
 40
14.0
 40
15.0
 40
15.0
 40
15.0
 40
16.0
 40
16.0
 40
16.0
 40
17.0
 40
17.0
 40
17.0
 40
18.0
 40
18.0
 40
18.0
 40
19.0
 40
19.0
 40
19.0
 40
20.0
 40
20.0
 40
20.0
 40
20.0
 10
483.556640625
 20
507.671875
 30
0.0
 10
483.556640625
 20
507.671875
 30
0.0
 10
484.693359375
 20
507.671875
 30
0.0
 10
484.693359375
 20
507.671875
 30
0.0
 10
485.4404296875
 20
508.962890625
 30
0.0
 10
486.517578125
 20
510.0390625
 30
0.0
 10
487.8076171875
 20
510.7861328125
 30
0.0
 10
487.8076171875
 20
510.7861328125
 30
0.0
 10
487.8076171875
 20
511.923828125
 30
0.0
 10
487.8076171875
 20
511.923828125
 30
0.0
 10
487.8076171875
 20
511.923828125
 30
0.0
 10
492.060546875
 20
511.923828125
 30
0.0
 10
492.060546875
 20
511.923828125
 30
0.0
 10
492.060546875
 20
511.923828125
 30
0.0
 10
496.3125
 20
511.923828125
 30
0.0
 10
496.3125
 20
511.923828125
 30
0.0
 10
496.3125
 20
511.923828125
 30
0.0
 10
496.3125
 20
510.7861328125
 30
0.0
 10
496.3125
 20
510.7861328125
 30
0.0
 10
497.6025390625
 20
510.0390625
 30
0.0
 10
498.6796875
 20
508.962890625
 30
0.0
 10
499.4267578125
 20
507.671875
 30
0.0
 10
499.4267578125
 20
507.671875
 30
0.0
 10
500.564453125
 20
507.671875
 30
0.0
 10
500.564453125
 20
507.671875
 30
0.0
 10
500.564453125
 20
507.671875
 30
0.0
 10
500.564453125
 20
503.419921875
 30
0.0
 10
500.564453125
 20
503.419921875
 30
0.0
 10
500.564453125
 20
503.419921875
 30
0.0
 10
500.564453125
 20
499.16796875
 30
0.0
 10
500.564453125
 20
499.16796875
 30
0.0
 10
500.564453125
 20
499.16796875
 30
0.0
 10
499.4267578125
 20
499.16796875
 30
0.0
 10
499.4267578125
 20
499.16796875
 30
0.0
 10
498.6796875
 20
497.876953125
 30
0.0
 10
497.6025390625
 20
496.80126953125
 30
0.0
 10
496.3125
 20
496.05419921875
 30
0.0
 10
496.3125
 20
496.05419921875
 30
0.0
 10
496.3125
 20
494.916015625
 30
0.0
 10
496.3125
 20
494.916015625
 30
0.0
 10
496.3125
 20
494.916015625
 30
0.0
 10
492.060546875
 20
494.916015625
 30
0.0
 10
492.060546875
 20
494.916015625
 30
0.0
 10
492.060546875
 20
494.916015625
 30
0.0
 10
487.8076171875
 20
494.916015625
 30
0.0
 10
487.8076171875
 20
494.916015625
 30
0.0
 10
487.8076171875
 20
494.916015625
 30
0.0
 10
487.8076171875
 20
496.05419921875
 30
0.0
 10
487.8076171875
 20
496.05419921875
 30
0.0
 10
486.517578125
 20
496.80126953125
 30
0.0
 10
485.4404296875
 20
497.876953125
 30
0.0
 10
484.693359375
 20
499.16796875
 30
0.0
 10
484.693359375
 20
499.16796875
 30
0.0
 10
483.556640625
 20
499.16796875
 30
0.0
 10
483.556640625
 20
499.16796875
 30
0.0
 10
483.556640625
 20
499.16796875
 30
0.0
 10
483.556640625
 20
503.419921875
 30
0.0
 10
483.556640625
 20
503.419921875
 30
0.0
 10
483.556640625
 20
503.419921875
 30
0.0
 10
483.556640625
 20
507.671875
 30
0.0
 10
483.556640625
 20
507.671875
 30
0.0
  0
SPLINE
  5
4C
330
1F
100
AcDbEntity
  8
LAYER_1
 62
     7
100
AcDbSpline
210
0.0
220
0.0
230
1.0
 70
     8
 71
     3
 72
    32
 73
    28
 74
     0
 42
0.0000000001
 43
0.0000000001
 40
0.0
 40
0.0
 40
0.0
 40
0.0
 40
1.0
 40
1.0
 40
1.0
 40
2.0
 40
2.0
 40
2.0
 40
3.0
 40
3.0
 40
3.0
 40
4.0
 40
4.0
 40
4.0
 40
5.0
 40
5.0
 40
5.0
 40
6.0
 40
6.0
 40
6.0
 40
7.0
 40
7.0
 40
7.0
 40
8.0
 40
8.0
 40
8.0
 40
9.0
 40
9.0
 40
9.0
 40
9.0
 10
453.79296875
 20
532.818359375
 30
0.0
 10
453.79296875
 20
532.818359375
 30
0.0
 10
453.79296875
 20
521.84521484375
 30
0.0
 10
453.79296875
 20
521.84521484375
 30
0.0
 10
453.79296875
 20
521.84521484375
 30
0.0
 10
510.4853515625
 20
521.84521484375
 30
0.0
 10
510.4853515625
 20
521.84521484375
 30
0.0
 10
510.4853515625
 20
521.84521484375
 30
0.0
 10
510.4853515625
 20
499.16796875
 30
0.0
 10
510.4853515625
 20
499.16796875
 30
0.0
 10
510.4853515625
 20
491.34228515625
 30
0.0
 10
504.138671875
 20
484.9951171875
 30
0.0
 10
496.3125
 20
484.9951171875
 30
0.0
 10
496.3125
 20
484.9951171875
 30
0.0
 10
374.42236328125
 20
484.9951171875
 30
0.0
 10
374.42236328125
 20
484.9951171875
 30
0.0
 10
366.59619140625
 20
484.9951171875
 30
0.0
 10
360.24951171875
 20
491.34228515625
 30
0.0
 10
360.24951171875
 20
499.16796875
 30
0.0
 10
360.24951171875
 20
499.16796875
 30
0.0
 10
360.24951171875
 20
521.84521484375
 30
0.0
 10
360.24951171875
 20
521.84521484375
 30
0.0
 10
360.24951171875
 20
521.84521484375
 30
0.0
 10
416.9423828125
 20
521.84521484375
 30
0.0
 10
416.9423828125
 20
521.84521484375
 30
0.0
 10
416.9423828125
 20
521.84521484375
 30
0.0
 10
416.9423828125
 20
532.818359375
 30
0.0
 10
416.9423828125
 20
532.818359375
 30
0.0
  0
SPLINE
  5
4D
330
1F
100
AcDbEntity
  8
LAYER_1
 62
     7
100
AcDbSpline
210
0.0
220
0.0
230
1.0
 70
    11
 71
     3
 72
    65
 73
    61
 74
     0
 42
0.0000000001
 43
0.0000000001
 40
0.0
 40
0.0
 40
0.0
 40
0.0
 40
1.0
 40
1.0
 40
1.0
 40
2.0
 40
2.0
 40
2.0
 40
3.0
 40
3.0
 40
3.0
 40
4.0
 40
4.0
 40
4.0
 40
5.0
 40
5.0
 40
5.0
 40
6.0
 40
6.0
 40
6.0
 40
7.0
 40
7.0
 40
7.0
 40
8.0
 40
8.0
 40
8.0
 40
9.0
 40
9.0
 40
9.0
 40
10.0
 40
10.0
 40
10.0
 40
11.0
 40
11.0
 40
11.0
 40
12.0
 40
12.0
 40
12.0
 40
13.0
 40
13.0
 40
13.0
 40
14.0
 40
14.0
 40
14.0
 40
15.0
 40
15.0
 40
15.0
 40
16.0
 40
16.0
 40
16.0
 40
17.0
 40
17.0
 40
17.0
 40
18.0
 40
18.0
 40
18.0
 40
19.0
 40
19.0
 40
19.0
 40
20.0
 40
20.0
 40
20.0
 40
20.0
 10
426.86328125
 20
507.671875
 30
0.0
 10
426.86328125
 20
507.671875
 30
0.0
 10
428.001953125
 20
507.671875
 30
0.0
 10
428.001953125
 20
507.671875
 30
0.0
 10
428.748046875
 20
508.962890625
 30
0.0
 10
429.8232421875
 20
510.0390625
 30
0.0
 10
431.1142578125
 20
510.7861328125
 30
0.0
 10
431.1142578125
 20
510.7861328125
 30
0.0
 10
431.1142578125
 20
511.923828125
 30
0.0
 10
431.1142578125
 20
511.923828125
 30
0.0
 10
431.1142578125
 20
511.923828125
 30
0.0
 10
435.3671875
 20
511.923828125
 30
0.0
 10
435.3671875
 20
511.923828125
 30
0.0
 10
435.3671875
 20
511.923828125
 30
0.0
 10
439.619140625
 20
511.923828125
 30
0.0
 10
439.619140625
 20
511.923828125
 30
0.0
 10
439.619140625
 20
511.923828125
 30
0.0
 10
439.619140625
 20
510.7861328125
 30
0.0
 10
439.619140625
 20
510.7861328125
 30
0.0
 10
440.91015625
 20
510.0390625
 30
0.0
 10
441.9853515625
 20
508.962890625
 30
0.0
 10
442.732421875
 20
507.671875
 30
0.0
 10
442.732421875
 20
507.671875
 30
0.0
 10
443.87109375
 20
507.671875
 30
0.0
 10
443.87109375
 20
507.671875
 30
0.0
 10
443.87109375
 20
507.671875
 30
0.0
 10
443.87109375
 20
503.419921875
 30
0.0
 10
443.87109375
 20
503.419921875
 30
0.0
 10
443.87109375
 20
503.419921875
 30
0.0
 10
443.87109375
 20
499.16796875
 30
0.0
 10
443.87109375
 20
499.16796875
 30
0.0
 10
443.87109375
 20
499.16796875
 30
0.0
 10
442.732421875
 20
499.16796875
 30
0.0
 10
442.732421875
 20
499.16796875
 30
0.0
 10
441.9853515625
 20
497.876953125
 30
0.0
 10
440.91015625
 20
496.80126953125
 30
0.0
 10
439.619140625
 20
496.05419921875
 30
0.0
 10
439.619140625
 20
496.05419921875
 30
0.0
 10
439.619140625
 20
494.916015625
 30
0.0
 10
439.619140625
 20
494.916015625
 30
0.0
 10
439.619140625
 20
494.916015625
 30
0.0
 10
435.3671875
 20
494.916015625
 30
0.0
 10
435.3671875
 20
494.916015625
 30
0.0
 10
435.3671875
 20
494.916015625
 30
0.0
 10
431.1142578125
 20
494.916015625
 30
0.0
 10
431.1142578125
 20
494.916015625
 30
0.0
 10
431.1142578125
 20
494.916015625
 30
0.0
 10
431.1142578125
 20
496.05419921875
 30
0.0
 10
431.1142578125
 20
496.05419921875
 30
0.0
 10
429.8232421875
 20
496.80126953125
 30
0.0
 10
428.748046875
 20
497.876953125
 30
0.0
 10
428.001953125
 20
499.16796875
 30
0.0
 10
428.001953125
 20
499.16796875
 30
0.0
 10
426.86328125
 20
499.16796875
 30
0.0
 10
426.86328125
 20
499.16796875
 30
0.0
 10
426.86328125
 20
499.16796875
 30
0.0
 10
426.86328125
 20
503.419921875
 30
0.0
 10
426.86328125
 20
503.419921875
 30
0.0
 10
426.86328125
 20
503.419921875
 30
0.0
 10
426.86328125
 20
507.671875
 30
0.0
 10
426.86328125
 20
507.671875
 30
0.0
  0
SPLINE
  5
4E
330
1F
100
AcDbEntity
  8
LAYER_1
 62
     7
100
AcDbSpline
210
0.0
220
0.0
230
1.0
 70
    11
 71
     3
 72
    29
 73
    25
 74
     0
 42
0.0000000001
 43
0.0000000001
 40
0.0
 40
0.0
 40
0.0
 40
0.0
 40
1.0
 40
1.0
 40
1.0
 40
2.0
 40
2.0
 40
2.0
 40
3.0
 40
3.0
 40
3.0
 40
4.0
 40
4.0
 40
4.0
 40
5.0
 40
5.0
 40
5.0
 40
6.0
 40
6.0
 40
6.0
 40
7.0
 40
7.0
 40
7.0
 40
8.0
 40
8.0
 40
8.0
 40
8.0
 10
384.18896484375
 20
696.8896484375
 30
0.0
 10
384.18896484375
 20
696.8896484375
 30
0.0
 10
486.7685546875
 20
696.8896484375
 30
0.0
 10
486.7685546875
 20
696.8896484375
 30
0.0
 10
513.3818359375
 20
696.8896484375
 30
0.0
 10
534.9560546875
 20
675.31494140625
 30
0.0
 10
534.9560546875
 20
648.70068359375
 30
0.0
 10
534.9560546875
 20
648.70068359375
 30
0.0
 10
534.9560546875
 20
544.15673828125
 30
0.0
 10
534.9560546875
 20
544.15673828125
 30
0.0
 10
534.9560546875
 20
537.89453125
 30
0.0
 10
529.880859375
 20
532.81787109375
 30
0.0
 10
523.619140625
 20
532.81787109375
 30
0.0
 10
523.619140625
 20
532.81787109375
 30
0.0
 10
347.3388671875
 20
532.81787109375
 30
0.0
 10
347.3388671875
 20
532.81787109375
 30
0.0
 10
341.076171875
 20
532.81787109375
 30
0.0
 10
336.0
 20
537.89453125
 30
0.0
 10
336.0
 20
544.15673828125
 30
0.0
 10
336.0
 20
544.15673828125
 30
0.0
 10
336.0
 20
648.70068359375
 30
0.0
 10
336.0
 20
648.70068359375
 30
0.0
 10
336.0
 20
675.31494140625
 30
0.0
 10
357.5751953125
 20
696.8896484375
 30
0.0
 10
384.18896484375
 20
696.8896484375
 30
0.0
  0
POLYLINE
  5
4F
330
1F
100
AcDbEntity
  8
LAYER_1
 62
     7
100
AcDb2dPolyline
 66
     1
 10
0.0
 20
0.0
 30
0.0
  0
VERTEX
  5
50
330
4F
100
AcDbEntity
  8
LAYER_1
 62
     7
100
AcDbVertex
100
AcDb2dVertex
 10
511.806640625
 20
655.89013671875
 30
0.0
  0
VERTEX
  5
51
330
4F
100
AcDbEntity
  8
LAYER_1
 62
     7
100
AcDbVertex
100
AcDb2dVertex
 10
360.2490234375
 20
655.89013671875
 30
0.0
  0
VERTEX
  5
52
330
4F
100
AcDbEntity
  8
LAYER_1
 62
     7
100
AcDbVertex
100
AcDb2dVertex
 10
360.2490234375
 20
561.8720703125
 30
0.0
  0
VERTEX
  5
53
330
4F
100
AcDbEntity
  8
LAYER_1
 62
     7
100
AcDbVertex
100
AcDb2dVertex
 10
511.806640625
 20
561.8720703125
 30
0.0
  0
VERTEX
  5
54
330
4F
100
AcDbEntity
  8
LAYER_1
 62
     7
100
AcDbVertex
100
AcDb2dVertex
 10
511.806640625
 20
655.89013671875
 30
0.0
  0
SEQEND
  5
55
330
4F
100
AcDbEntity
  8
LAYER_1
  0
SPLINE
  5
56
330
1F
100
AcDbEntity
  8
LAYER_1
 62
     7
100
AcDbSpline
210
0.0
220
0.0
230
1.0
 70
    11
 71
     3
 72
    17
 73
    13
 74
     0
 42
0.0000000001
 43
0.0000000001
 40
0.0
 40
0.0
 40
0.0
 40
0.0
 40
1.0
 40
1.0
 40
1.0
 40
2.0
 40
2.0
 40
2.0
 40
3.0
 40
3.0
 40
3.0
 40
4.0
 40
4.0
 40
4.0
 40
4.0
 10
430.095703125
 20
609.41162109375
 30
0.0
 10
430.095703125
 20
626.03125
 30
0.0
 10
416.62255859375
 20
639.50439453125
 30
0.0
 10
400.0029296875
 20
639.50439453125
 30
0.0
 10
383.3828125
 20
639.50439453125
 30
0.0
 10
369.90869140625
 20
626.03125
 30
0.0
 10
369.90869140625
 20
609.41162109375
 30
0.0
 10
369.90869140625
 20
592.79150390625
 30
0.0
 10
383.3828125
 20
579.318359375
 30
0.0
 10
400.0029296875
 20
579.318359375
 30
0.0
 10
416.62255859375
 20
579.318359375
 30
0.0
 10
430.095703125
 20
592.79150390625
 30
0.0
 10
430.095703125
 20
609.41162109375
 30
0.0
  0
SPLINE
  5
57
330
1F
100
AcDbEntity
  8
LAYER_1
 62
     7
100
AcDbSpline
210
0.0
220
0.0
230
1.0
 70
    11
 71
     3
 72
    17
 73
    13
 74
     0
 42
0.0000000001
 43
0.0000000001
 40
0.0
 40
0.0
 40
0.0
 40
0.0
 40
1.0
 40
1.0
 40
1.0
 40
2.0
 40
2.0
 40
2.0
 40
3.0
 40
3.0
 40
3.0
 40
4.0
 40
4.0
 40
4.0
 40
4.0
 10
500.248046875
 20
609.41162109375
 30
0.0
 10
500.248046875
 20
626.03125
 30
0.0
 10
486.775390625
 20
639.50439453125
 30
0.0
 10
470.154296875
 20
639.50439453125
 30
0.0
 10
453.53515625
 20
639.50439453125
 30
0.0
 10
440.060546875
 20
626.03125
 30
0.0
 10
440.060546875
 20
609.41162109375
 30
0.0
 10
440.060546875
 20
592.79150390625
 30
0.0
 10
453.53515625
 20
579.318359375
 30
0.0
 10
470.154296875
 20
579.318359375
 30
0.0
 10
486.775390625
 20
579.318359375
 30
0.0
 10
500.248046875
 20
592.79150390625
 30
0.0
 10
500.248046875
 20
609.41162109375
 30
0.0
  0
SPLINE
  5
58
330
1F
100
AcDbEntity
  8
LAYER_1
 62
     7
100
AcDbSpline
210
0.0
220
0.0
230
1.0
 70
     8
 71
     3
 72
    17
 73
    13
 74
     0
 42
0.0000000001
 43
0.0000000001
 40
0.0
 40
0.0
 40
0.0
 40
0.0
 40
1.0
 40
1.0
 40
1.0
 40
2.0
 40
2.0
 40
2.0
 40
3.0
 40
3.0
 40
3.0
 40
4.0
 40
4.0
 40
4.0
 40
4.0
 10
448.255859375
 20
579.234375
 30
0.0
 10
448.255859375
 20
579.234375
 30
0.0
 10
448.255859375
 20
579.234375
 30
0.0
 10
448.255859375
 20
579.234375
 30
0.0
 10
448.255859375
 20
572.275390625
 30
0.0
 10
442.6142578125
 20
566.63427734375
 30
0.0
 10
435.65625
 20
566.63427734375
 30
0.0
 10
435.65625
 20
566.63427734375
 30
0.0
 10
435.6767578125
 20
566.63427734375
 30
0.0
 10
435.6767578125
 20
566.63427734375
 30
0.0
 10
428.71875
 20
566.63427734375
 30
0.0
 10
423.0771484375
 20
572.275390625
 30
0.0
 10
423.0771484375
 20
579.234375
 30
0.0
  0
POLYLINE
  5
59
330
1F
100
AcDbEntity
  8
LAYER_1
 62
     7
100
AcDb2dPolyline
 66
     1
 10
0.0
 20
0.0
 30
0.0
  0
VERTEX
  5
5A
330
59
100
AcDbEntity
  8
LAYER_1
 62
     7
100
AcDbVertex
100
AcDb2dVertex
 10
348.0
 20
640.5087890625
 30
0.0
  0
VERTEX
  5
5B
330
59
100
AcDbEntity
  8
LAYER_1
 62
     7
100
AcDbVertex
100
AcDb2dVertex
 10
336.0
 20
640.5087890625
 30
0.0
  0
VERTEX
  5
5C
330
59
100
AcDbEntity
  8
LAYER_1
 62
     7
100
AcDbVertex
100
AcDb2dVertex
 10
336.0
 20
561.8720703125
 30
0.0
  0
VERTEX
  5
5D
330
59
100
AcDbEntity
  8
LAYER_1
 62
     7
100
AcDbVertex
100
AcDb2dVertex
 10
348.0
 20
561.8720703125
 30
0.0
  0
VERTEX
  5
5E
330
59
100
AcDbEntity
  8
LAYER_1
 62
     7
100
AcDbVertex
100
AcDb2dVertex
 10
348.0
 20
640.5087890625
 30
0.0
  0
SEQEND
  5
5F
330
59
100
AcDbEntity
  8
LAYER_1
  0
POLYLINE
  5
60
330
1F
100
AcDbEntity
  8
LAYER_1
 62
     7
100
AcDb2dPolyline
 66
     1
 10
0.0
 20
0.0
 30
0.0
  0
VERTEX
  5
61
330
60
100
AcDbEntity
  8
LAYER_1
 62
     7
100
AcDbVertex
100
AcDb2dVertex
 10
535.0
 20
640.5087890625
 30
0.0
  0
VERTEX
  5
62
330
60
100
AcDbEntity
  8
LAYER_1
 62
     7
100
AcDbVertex
100
AcDb2dVertex
 10
523.0
 20
640.5087890625
 30
0.0
  0
VERTEX
  5
63
330
60
100
AcDbEntity
  8
LAYER_1
 62
     7
100
AcDbVertex
100
AcDb2dVertex
 10
523.0
 20
561.8720703125
 30
0.0
  0
VERTEX
  5
64
330
60
100
AcDbEntity
  8
LAYER_1
 62
     7
100
AcDbVertex
100
AcDb2dVertex
 10
535.0
 20
561.8720703125
 30
0.0
  0
VERTEX
  5
65
330
60
100
AcDbEntity
  8
LAYER_1
 62
     7
100
AcDbVertex
100
AcDb2dVertex
 10
535.0
 20
640.5087890625
 30
0.0
  0
SEQEND
  5
66
330
60
100
AcDbEntity
  8
LAYER_1
  0
SPLINE
  5
67
330
1F
100
AcDbEntity
  8
LAYER_1
 62
     7
100
AcDbSpline
210
0.0
220
0.0
230
1.0
 70
     8
 71
     3
 72
    32
 73
    28
 74
     0
 42
0.0000000001
 43
0.0000000001
 40
0.0
 40
0.0
 40
0.0
 40
0.0
 40
1.0
 40
1.0
 40
1.0
 40
2.0
 40
2.0
 40
2.0
 40
3.0
 40
3.0
 40
3.0
 40
4.0
 40
4.0
 40
4.0
 40
5.0
 40
5.0
 40
5.0
 40
6.0
 40
6.0
 40
6.0
 40
7.0
 40
7.0
 40
7.0
 40
8.0
 40
8.0
 40
8.0
 40
9.0
 40
9.0
 40
9.0
 40
9.0
 10
391.5
 20
655.8896484375
 30
0.0
 10
394.44775390625
 20
653.94970703125
 30
0.0
 10
386.97021484375
 20
646.36962890625
 30
0.0
 10
385.71923828125
 20
643.9189453125
 30
0.0
 10
398.90283203125
 20
645.7919921875
 30
0.0
 10
412.10693359375
 20
651.1337890625
 30
0.0
 10
424.93359375
 20
654.33984375
 30
0.0
 10
425.337890625
 20
648.8515625
 30
0.0
 10
422.62744140625
 20
643.5888671875
 30
0.0
 10
422.12255859375
 20
638.40576171875
 30
0.0
 10
429.3818359375
 20
639.9228515625
 30
0.0
 10
437.66015625
 20
641.3330078125
 30
0.0
 10
444.181640625
 20
645.0634765625
 30
0.0
 10
447.62109375
 20
647.03173828125
 30
0.0
 10
449.7783203125
 20
648.40087890625
 30
0.0
 10
453.435546875
 20
649.31591796875
 30
0.0
 10
454.0908203125
 20
649.4794921875
 30
0.0
 10
451.787109375
 20
641.27685546875
 30
0.0
 10
451.5546875
 20
640.7080078125
 30
0.0
 10
458.181640625
 20
640.1435546875
 30
0.0
 10
465.7353515625
 20
642.23486328125
 30
0.0
 10
471.0
 20
646.36181640625
 30
0.0
 10
474.001953125
 20
648.7158203125
 30
0.0
 10
478.01171875
 20
652.3955078125
 30
0.0
 10
479.94921875
 20
655.599609375
 30
0.0
 10
479.642578125
 20
655.18994140625
 30
0.0
 10
479.32421875
 20
654.78662109375
 30
0.0
 10
479.0
 20
654.3896484375
 30
0.0
  0
INSERT
  5
69
330
1F
100
AcDbEntity
  8
LAYER_1
100
AcDbBlockReference
  2
BLOCK_2
 10
0.0
 20
0.0
 30
0.0
  0
POLYLINE
  5
90
330
1F
100
AcDbEntity
  8
LAYER_1
 62
     7
100
AcDb2dPolyline
 66
     1
 10
0.0
 20
0.0
 30
0.0
  0
VERTEX
  5
91
330
90
100
AcDbEntity
  8
LAYER_1
 62
     7
100
AcDbVertex
100
AcDb2dVertex
 10
436.578125
 20
691.818359375
 30
0.0
  0
VERTEX
  5
92
330
90
100
AcDbEntity
  8
LAYER_1
 62
     7
100
AcDbVertex
100
AcDb2dVertex
 10
441.583984375
 20
681.68017578125
 30
0.0
  0
VERTEX
  5
93
330
90
100
AcDbEntity
  8
LAYER_1
 62
     7
100
AcDbVertex
100
AcDb2dVertex
 10
452.771484375
 20
680.05419921875
 30
0.0
  0
VERTEX
  5
94
330
90
100
AcDbEntity
  8
LAYER_1
 62
     7
100
AcDbVertex
100
AcDb2dVertex
 10
444.67578125
 20
672.162109375
 30
0.0
  0
VERTEX
  5
95
330
90
100
AcDbEntity
  8
LAYER_1
 62
     7
100
AcDbVertex
100
AcDb2dVertex
 10
446.5859375
 20
661.01904296875
 30
0.0
  0
VERTEX
  5
96
330
90
100
AcDbEntity
  8
LAYER_1
 62
     7
100
AcDbVertex
100
AcDb2dVertex
 10
436.578125
 20
666.2802734375
 30
0.0
  0
VERTEX
  5
97
330
90
100
AcDbEntity
  8
LAYER_1
 62
     7
100
AcDbVertex
100
AcDb2dVertex
 10
426.572265625
 20
661.01904296875
 30
0.0
  0
VERTEX
  5
98
330
90
100
AcDbEntity
  8
LAYER_1
 62
     7
100
AcDbVertex
100
AcDb2dVertex
 10
428.482421875
 20
672.162109375
 30
0.0
  0
VERTEX
  5
99
330
90
100
AcDbEntity
  8
LAYER_1
 62
     7
100
AcDbVertex
100
AcDb2dVertex
 10
420.38720703125
 20
680.05419921875
 30
0.0
  0
VERTEX
  5
9A
330
90
100
AcDbEntity
  8
LAYER_1
 62
     7
100
AcDbVertex
100
AcDb2dVertex
 10
431.57421875
 20
681.68017578125
 30
0.0
  0
VERTEX
  5
9B
330
90
100
AcDbEntity
  8
LAYER_1
 62
     7
100
AcDbVertex
100
AcDb2dVertex
 10
436.578125
 20
691.818359375
 30
0.0
  0
SEQEND
  5
9C
330
90
100
AcDbEntity
  8
LAYER_1
  0
INSERT
  5
9E
330
1F
100
AcDbEntity
  8
LAYER_1
100
AcDbBlockReference
  2
BLOCK_3
 10
0.0
 20
0.0
 30
0.0
  0
POLYLINE
  5
C5
330
1F
100
AcDbEntity
  8
LAYER_1
 62
   250
100
AcDb2dPolyline
 66
     1
 10
0.0
 20
0.0
 30
0.0
  0
VERTEX
  5
C6
330
C5
100
AcDbEntity
  8
LAYER_1
 62
   250
100
AcDbVertex
100
AcDb2dVertex
 10
512.271484375
 20
551.89013671875
 30
0.0
  0
VERTEX
  5
C7
330
C5
100
AcDbEntity
  8
LAYER_1
 62
   250
100
AcDbVertex
100
AcDb2dVertex
 10
360.2490234375
 20
551.89013671875
 30
0.0
  0
VERTEX
  5
C8
330
C5
100
AcDbEntity
  8
LAYER_1
 62
   250
100
AcDbVertex
100
AcDb2dVertex
 10
360.2490234375
 20
532.81787109375
 30
0.0
  0
VERTEX
  5
C9
330
C5
100
AcDbEntity
  8
LAYER_1
 62
   250
100
AcDbVertex
100
AcDb2dVertex
 10
512.271484375
 20
532.81787109375
 30
0.0
  0
VERTEX
  5
CA
330
C5
100
AcDbEntity
  8
LAYER_1
 62
   250
100
AcDbVertex
100
AcDb2dVertex
 10
512.271484375
 20
551.89013671875
 30
0.0
  0
SEQEND
  5
CB
330
C5
100
AcDbEntity
  8
LAYER_1
  0
SPLINE
  5
CC
330
1F
100
AcDbEntity
  8
LAYER_1
 62
     7
100
AcDbSpline
210
0.0
220
0.0
230
1.0
 70
    11
 71
     3
 72
    65
 73
    61
 74
     0
 42
0.0000000001
 43
0.0000000001
 40
0.0
 40
0.0
 40
0.0
 40
0.0
 40
1.0
 40
1.0
 40
1.0
 40
2.0
 40
2.0
 40
2.0
 40
3.0
 40
3.0
 40
3.0
 40
4.0
 40
4.0
 40
4.0
 40
5.0
 40
5.0
 40
5.0
 40
6.0
 40
6.0
 40
6.0
 40
7.0
 40
7.0
 40
7.0
 40
8.0
 40
8.0
 40
8.0
 40
9.0
 40
9.0
 40
9.0
 40
10.0
 40
10.0
 40
10.0
 40
11.0
 40
11.0
 40
11.0
 40
12.0
 40
12.0
 40
12.0
 40
13.0
 40
13.0
 40
13.0
 40
14.0
 40
14.0
 40
14.0
 40
15.0
 40
15.0
 40
15.0
 40
16.0
 40
16.0
 40
16.0
 40
17.0
 40
17.0
 40
17.0
 40
18.0
 40
18.0
 40
18.0
 40
19.0
 40
19.0
 40
19.0
 40
20.0
 40
20.0
 40
20.0
 40
20.0
 10
500.1171875
 20
221.5947265625
 30
0.0
 10
500.1171875
 20
221.5947265625
 30
0.0
 10
498.98046875
 20
221.5947265625
 30
0.0
 10
498.98046875
 20
221.5947265625
 30
0.0
 10
498.232421875
 20
220.3037109375
 30
0.0
 10
497.15625
 20
219.2275390625
 30
0.0
 10
495.865234375
 20
218.48046875
 30
0.0
 10
495.865234375
 20
218.48046875
 30
0.0
 10
495.865234375
 20
217.3427734375
 30
0.0
 10
495.865234375
 20
217.3427734375
 30
0.0
 10
495.865234375
 20
217.3427734375
 30
0.0
 10
491.6142578125
 20
217.3427734375
 30
0.0
 10
491.6142578125
 20
217.3427734375
 30
0.0
 10
491.6142578125
 20
217.3427734375
 30
0.0
 10
487.361328125
 20
217.3427734375
 30
0.0
 10
487.361328125
 20
217.3427734375
 30
0.0
 10
487.361328125
 20
217.3427734375
 30
0.0
 10
487.361328125
 20
218.48046875
 30
0.0
 10
487.361328125
 20
218.48046875
 30
0.0
 10
486.072265625
 20
219.2275390625
 30
0.0
 10
484.994140625
 20
220.3037109375
 30
0.0
 10
484.248046875
 20
221.5947265625
 30
0.0
 10
484.248046875
 20
221.5947265625
 30
0.0
 10
483.1103515625
 20
221.5947265625
 30
0.0
 10
483.1103515625
 20
221.5947265625
 30
0.0
 10
483.1103515625
 20
221.5947265625
 30
0.0
 10
483.1103515625
 20
225.8466796875
 30
0.0
 10
483.1103515625
 20
225.8466796875
 30
0.0
 10
483.1103515625
 20
225.8466796875
 30
0.0
 10
483.1103515625
 20
230.0986328125
 30
0.0
 10
483.1103515625
 20
230.0986328125
 30
0.0
 10
483.1103515625
 20
230.0986328125
 30
0.0
 10
484.248046875
 20
230.0986328125
 30
0.0
 10
484.248046875
 20
230.0986328125
 30
0.0
 10
484.994140625
 20
231.388671875
 30
0.0
 10
486.072265625
 20
232.4658203125
 30
0.0
 10
487.361328125
 20
233.212890625
 30
0.0
 10
487.361328125
 20
233.212890625
 30
0.0
 10
487.361328125
 20
234.3505859375
 30
0.0
 10
487.361328125
 20
234.3505859375
 30
0.0
 10
487.361328125
 20
234.3505859375
 30
0.0
 10
491.6142578125
 20
234.3505859375
 30
0.0
 10
491.6142578125
 20
234.3505859375
 30
0.0
 10
491.6142578125
 20
234.3505859375
 30
0.0
 10
495.865234375
 20
234.3505859375
 30
0.0
 10
495.865234375
 20
234.3505859375
 30
0.0
 10
495.865234375
 20
234.3505859375
 30
0.0
 10
495.865234375
 20
233.212890625
 30
0.0
 10
495.865234375
 20
233.212890625
 30
0.0
 10
497.15625
 20
232.4658203125
 30
0.0
 10
498.232421875
 20
231.388671875
 30
0.0
 10
498.98046875
 20
230.0986328125
 30
0.0
 10
498.98046875
 20
230.0986328125
 30
0.0
 10
500.1171875
 20
230.0986328125
 30
0.0
 10
500.1171875
 20
230.0986328125
 30
0.0
 10
500.1171875
 20
230.0986328125
 30
0.0
 10
500.1171875
 20
225.8466796875
 30
0.0
 10
500.1171875
 20
225.8466796875
 30
0.0
 10
500.1171875
 20
225.8466796875
 30
0.0
 10
500.1171875
 20
221.5947265625
 30
0.0
 10
500.1171875
 20
221.5947265625
 30
0.0
  0
POLYLINE
  5
CD
330
1F
100
AcDbEntity
  8
LAYER_1
 62
     7
100
AcDb2dPolyline
 66
     1
 10
0.0
 20
0.0
 30
0.0
  0
VERTEX
  5
CE
330
CD
100
AcDbEntity
  8
LAYER_1
 62
     7
100
AcDbVertex
100
AcDb2dVertex
 10
471.771484375
 20
221.5947265625
 30
0.0
  0
VERTEX
  5
CF
330
CD
100
AcDbEntity
  8
LAYER_1
 62
     7
100
AcDbVertex
100
AcDb2dVertex
 10
454.763671875
 20
221.5947265625
 30
0.0
  0
VERTEX
  5
D0
330
CD
100
AcDbEntity
  8
LAYER_1
 62
     7
100
AcDbVertex
100
AcDb2dVertex
 10
454.763671875
 20
230.0986328125
 30
0.0
  0
VERTEX
  5
D1
330
CD
100
AcDbEntity
  8
LAYER_1
 62
     7
100
AcDbVertex
100
AcDb2dVertex
 10
471.771484375
 20
230.0986328125
 30
0.0
  0
VERTEX
  5
D2
330
CD
100
AcDbEntity
  8
LAYER_1
 62
     7
100
AcDbVertex
100
AcDb2dVertex
 10
471.771484375
 20
221.5947265625
 30
0.0
  0
SEQEND
  5
D3
330
CD
100
AcDbEntity
  8
LAYER_1
  0
POLYLINE
  5
D4
330
1F
100
AcDbEntity
  8
LAYER_1
 62
     7
100
AcDb2dPolyline
 66
     1
 10
0.0
 20
0.0
 30
0.0
  0
VERTEX
  5
D5
330
D4
100
AcDbEntity
  8
LAYER_1
 62
     7
100
AcDbVertex
100
AcDb2dVertex
 10
415.0791015625
 20
221.5947265625
 30
0.0
  0
VERTEX
  5
D6
330
D4
100
AcDbEntity
  8
LAYER_1
 62
     7
100
AcDbVertex
100
AcDb2dVertex
 10
398.07080078125
 20
221.5947265625
 30
0.0
  0
VERTEX
  5
D7
330
D4
100
AcDbEntity
  8
LAYER_1
 62
     7
100
AcDbVertex
100
AcDb2dVertex
 10
398.07080078125
 20
230.0986328125
 30
0.0
  0
VERTEX
  5
D8
330
D4
100
AcDbEntity
  8
LAYER_1
 62
     7
100
AcDbVertex
100
AcDb2dVertex
 10
415.0791015625
 20
230.0986328125
 30
0.0
  0
VERTEX
  5
D9
330
D4
100
AcDbEntity
  8
LAYER_1
 62
     7
100
AcDbVertex
100
AcDb2dVertex
 10
415.0791015625
 20
221.5947265625
 30
0.0
  0
SEQEND
  5
DA
330
D4
100
AcDbEntity
  8
LAYER_1
  0
SPLINE
  5
DB
330
1F
100
AcDbEntity
  8
LAYER_1
 62
     7
100
AcDbSpline
210
0.0
220
0.0
230
1.0
 70
    11
 71
     3
 72
    65
 73
    61
 74
     0
 42
0.0000000001
 43
0.0000000001
 40
0.0
 40
0.0
 40
0.0
 40
0.0
 40
1.0
 40
1.0
 40
1.0
 40
2.0
 40
2.0
 40
2.0
 40
3.0
 40
3.0
 40
3.0
 40
4.0
 40
4.0
 40
4.0
 40
5.0
 40
5.0
 40
5.0
 40
6.0
 40
6.0
 40
6.0
 40
7.0
 40
7.0
 40
7.0
 40
8.0
 40
8.0
 40
8.0
 40
9.0
 40
9.0
 40
9.0
 40
10.0
 40
10.0
 40
10.0
 40
11.0
 40
11.0
 40
11.0
 40
12.0
 40
12.0
 40
12.0
 40
13.0
 40
13.0
 40
13.0
 40
14.0
 40
14.0
 40
14.0
 40
15.0
 40
15.0
 40
15.0
 40
16.0
 40
16.0
 40
16.0
 40
17.0
 40
17.0
 40
17.0
 40
18.0
 40
18.0
 40
18.0
 40
19.0
 40
19.0
 40
19.0
 40
20.0
 40
20.0
 40
20.0
 40
20.0
 10
386.73193359375
 20
221.5947265625
 30
0.0
 10
386.73193359375
 20
221.5947265625
 30
0.0
 10
385.59423828125
 20
221.5947265625
 30
0.0
 10
385.59423828125
 20
221.5947265625
 30
0.0
 10
384.84716796875
 20
220.3037109375
 30
0.0
 10
383.77099609375
 20
219.2275390625
 30
0.0
 10
382.47998046875
 20
218.48046875
 30
0.0
 10
382.47998046875
 20
218.48046875
 30
0.0
 10
382.47998046875
 20
217.3427734375
 30
0.0
 10
382.47998046875
 20
217.3427734375
 30
0.0
 10
382.47998046875
 20
217.3427734375
 30
0.0
 10
378.22802734375
 20
217.3427734375
 30
0.0
 10
378.22802734375
 20
217.3427734375
 30
0.0
 10
378.22802734375
 20
217.3427734375
 30
0.0
 10
373.97607421875
 20
217.3427734375
 30
0.0
 10
373.97607421875
 20
217.3427734375
 30
0.0
 10
373.97607421875
 20
217.3427734375
 30
0.0
 10
373.97607421875
 20
218.48046875
 30
0.0
 10
373.97607421875
 20
218.48046875
 30
0.0
 10
372.68603515625
 20
219.2275390625
 30
0.0
 10
371.60888671875
 20
220.3037109375
 30
0.0
 10
370.86181640625
 20
221.5947265625
 30
0.0
 10
370.86181640625
 20
221.5947265625
 30
0.0
 10
369.72412109375
 20
221.5947265625
 30
0.0
 10
369.72412109375
 20
221.5947265625
 30
0.0
 10
369.72412109375
 20
221.5947265625
 30
0.0
 10
369.72412109375
 20
225.8466796875
 30
0.0
 10
369.72412109375
 20
225.8466796875
 30
0.0
 10
369.72412109375
 20
225.8466796875
 30
0.0
 10
369.72412109375
 20
230.0986328125
 30
0.0
 10
369.72412109375
 20
230.0986328125
 30
0.0
 10
369.72412109375
 20
230.0986328125
 30
0.0
 10
370.86181640625
 20
230.0986328125
 30
0.0
 10
370.86181640625
 20
230.0986328125
 30
0.0
 10
371.60888671875
 20
231.388671875
 30
0.0
 10
372.68603515625
 20
232.4658203125
 30
0.0
 10
373.97607421875
 20
233.212890625
 30
0.0
 10
373.97607421875
 20
233.212890625
 30
0.0
 10
373.97607421875
 20
234.3505859375
 30
0.0
 10
373.97607421875
 20
234.3505859375
 30
0.0
 10
373.97607421875
 20
234.3505859375
 30
0.0
 10
378.22802734375
 20
234.3505859375
 30
0.0
 10
378.22802734375
 20
234.3505859375
 30
0.0
 10
378.22802734375
 20
234.3505859375
 30
0.0
 10
382.47998046875
 20
234.3505859375
 30
0.0
 10
382.47998046875
 20
234.3505859375
 30
0.0
 10
382.47998046875
 20
234.3505859375
 30
0.0
 10
382.47998046875
 20
233.212890625
 30
0.0
 10
382.47998046875
 20
233.212890625
 30
0.0
 10
383.77099609375
 20
232.4658203125
 30
0.0
 10
384.84716796875
 20
231.388671875
 30
0.0
 10
385.59423828125
 20
230.0986328125
 30
0.0
 10
385.59423828125
 20
230.0986328125
 30
0.0
 10
386.73193359375
 20
230.0986328125
 30
0.0
 10
386.73193359375
 20
230.0986328125
 30
0.0
 10
386.73193359375
 20
230.0986328125
 30
0.0
 10
386.73193359375
 20
225.8466796875
 30
0.0
 10
386.73193359375
 20
225.8466796875
 30
0.0
 10
386.73193359375
 20
225.8466796875
 30
0.0
 10
386.73193359375
 20
221.5947265625
 30
0.0
 10
386.73193359375
 20
221.5947265625
 30
0.0
  0
SPLINE
  5
DC
330
1F
100
AcDbEntity
  8
LAYER_1
 62
     7
100
AcDbSpline
210
0.0
220
0.0
230
1.0
 70
    11
 71
     3
 72
    65
 73
    61
 74
     0
 42
0.0000000001
 43
0.0000000001
 40
0.0
 40
0.0
 40
0.0
 40
0.0
 40
1.0
 40
1.0
 40
1.0
 40
2.0
 40
2.0
 40
2.0
 40
3.0
 40
3.0
 40
3.0
 40
4.0
 40
4.0
 40
4.0
 40
5.0
 40
5.0
 40
5.0
 40
6.0
 40
6.0
 40
6.0
 40
7.0
 40
7.0
 40
7.0
 40
8.0
 40
8.0
 40
8.0
 40
9.0
 40
9.0
 40
9.0
 40
10.0
 40
10.0
 40
10.0
 40
11.0
 40
11.0
 40
11.0
 40
12.0
 40
12.0
 40
12.0
 40
13.0
 40
13.0
 40
13.0
 40
14.0
 40
14.0
 40
14.0
 40
15.0
 40
15.0
 40
15.0
 40
16.0
 40
16.0
 40
16.0
 40
17.0
 40
17.0
 40
17.0
 40
18.0
 40
18.0
 40
18.0
 40
19.0
 40
19.0
 40
19.0
 40
20.0
 40
20.0
 40
20.0
 40
20.0
 10
443.42578125
 20
221.5947265625
 30
0.0
 10
443.42578125
 20
221.5947265625
 30
0.0
 10
442.2861328125
 20
221.5947265625
 30
0.0
 10
442.2861328125
 20
221.5947265625
 30
0.0
 10
441.5400390625
 20
220.3037109375
 30
0.0
 10
440.46484375
 20
219.2275390625
 30
0.0
 10
439.1728515625
 20
218.48046875
 30
0.0
 10
439.1728515625
 20
218.48046875
 30
0.0
 10
439.1728515625
 20
217.3427734375
 30
0.0
 10
439.1728515625
 20
217.3427734375
 30
0.0
 10
439.1728515625
 20
217.3427734375
 30
0.0
 10
434.921875
 20
217.3427734375
 30
0.0
 10
434.921875
 20
217.3427734375
 30
0.0
 10
434.921875
 20
217.3427734375
 30
0.0
 10
430.6689453125
 20
217.3427734375
 30
0.0
 10
430.6689453125
 20
217.3427734375
 30
0.0
 10
430.6689453125
 20
217.3427734375
 30
0.0
 10
430.6689453125
 20
218.48046875
 30
0.0
 10
430.6689453125
 20
218.48046875
 30
0.0
 10
429.37890625
 20
219.2275390625
 30
0.0
 10
428.3017578125
 20
220.3037109375
 30
0.0
 10
427.5546875
 20
221.5947265625
 30
0.0
 10
427.5546875
 20
221.5947265625
 30
0.0
 10
426.416015625
 20
221.5947265625
 30
0.0
 10
426.416015625
 20
221.5947265625
 30
0.0
 10
426.416015625
 20
221.5947265625
 30
0.0
 10
426.416015625
 20
225.8466796875
 30
0.0
 10
426.416015625
 20
225.8466796875
 30
0.0
 10
426.416015625
 20
225.8466796875
 30
0.0
 10
426.416015625
 20
230.0986328125
 30
0.0
 10
426.416015625
 20
230.0986328125
 30
0.0
 10
426.416015625
 20
230.0986328125
 30
0.0
 10
427.5546875
 20
230.0986328125
 30
0.0
 10
427.5546875
 20
230.0986328125
 30
0.0
 10
428.3017578125
 20
231.388671875
 30
0.0
 10
429.37890625
 20
232.4658203125
 30
0.0
 10
430.6689453125
 20
233.212890625
 30
0.0
 10
430.6689453125
 20
233.212890625
 30
0.0
 10
430.6689453125
 20
234.3505859375
 30
0.0
 10
430.6689453125
 20
234.3505859375
 30
0.0
 10
430.6689453125
 20
234.3505859375
 30
0.0
 10
434.921875
 20
234.3505859375
 30
0.0
 10
434.921875
 20
234.3505859375
 30
0.0
 10
434.921875
 20
234.3505859375
 30
0.0
 10
439.1728515625
 20
234.3505859375
 30
0.0
 10
439.1728515625
 20
234.3505859375
 30
0.0
 10
439.1728515625
 20
234.3505859375
 30
0.0
 10
439.1728515625
 20
233.212890625
 30
0.0
 10
439.1728515625
 20
233.212890625
 30
0.0
 10
440.46484375
 20
232.4658203125
 30
0.0
 10
441.5400390625
 20
231.388671875
 30
0.0
 10
442.2861328125
 20
230.0986328125
 30
0.0
 10
442.2861328125
 20
230.0986328125
 30
0.0
 10
443.42578125
 20
230.0986328125
 30
0.0
 10
443.42578125
 20
230.0986328125
 30
0.0
 10
443.42578125
 20
230.0986328125
 30
0.0
 10
443.42578125
 20
225.8466796875
 30
0.0
 10
443.42578125
 20
225.8466796875
 30
0.0
 10
443.42578125
 20
225.8466796875
 30
0.0
 10
443.42578125
 20
221.5947265625
 30
0.0
 10
443.42578125
 20
221.5947265625
 30
0.0
  0
SPLINE
  5
DD
330
1F
100
AcDbEntity
  8
LAYER_1
 62
   250
100
AcDbSpline
210
0.0
220
0.0
230
1.0
 70
     8
 71
     3
 72
    44
 73
    40
 74
     0
 42
0.0000000001
 43
0.0000000001
 40
0.0
 40
0.0
 40
0.0
 40
0.0
 40
1.0
 40
1.0
 40
1.0
 40
2.0
 40
2.0
 40
2.0
 40
3.0
 40
3.0
 40
3.0
 40
4.0
 40
4.0
 40
4.0
 40
5.0
 40
5.0
 40
5.0
 40
6.0
 40
6.0
 40
6.0
 40
7.0
 40
7.0
 40
7.0
 40
8.0
 40
8.0
 40
8.0
 40
9.0
 40
9.0
 40
9.0
 40
10.0
 40
10.0
 40
10.0
 40
11.0
 40
11.0
 40
11.0
 40
12.0
 40
12.0
 40
12.0
 40
13.0
 40
13.0
 40
13.0
 40
13.0
 10
494.130859375
 20
192.169921875
 30
0.0
 10
494.130859375
 20
192.169921875
 30
0.0
 10
494.130859375
 20
207.4296875
 30
0.0
 10
494.130859375
 20
207.4296875
 30
0.0
 10
494.130859375
 20
207.4296875
 30
0.0
 10
510.0400390625
 20
207.4296875
 30
0.0
 10
510.0400390625
 20
207.4296875
 30
0.0
 10
510.0400390625
 20
207.4296875
 30
0.0
 10
510.0400390625
 20
230.099609375
 30
0.0
 10
510.0400390625
 20
230.099609375
 30
0.0
 10
510.0400390625
 20
237.9296875
 30
0.0
 10
503.69921875
 20
244.279296875
 30
0.0
 10
495.869140625
 20
244.279296875
 30
0.0
 10
495.869140625
 20
244.279296875
 30
0.0
 10
373.97998046875
 20
244.279296875
 30
0.0
 10
373.97998046875
 20
244.279296875
 30
0.0
 10
366.14990234375
 20
244.279296875
 30
0.0
 10
359.81005859375
 20
237.9296875
 30
0.0
 10
359.81005859375
 20
230.099609375
 30
0.0
 10
359.81005859375
 20
230.099609375
 30
0.0
 10
359.81005859375
 20
207.4296875
 30
0.0
 10
359.81005859375
 20
207.4296875
 30
0.0
 10
359.81005859375
 20
207.4296875
 30
0.0
 10
376.5
 20
207.4296875
 30
0.0
 10
376.5
 20
207.4296875
 30
0.0
 10
376.5
 20
207.4296875
 30
0.0
 10
376.5
 20
191.83984375
 30
0.0
 10
376.5
 20
191.83984375
 30
0.0
 10
376.5
 20
191.83984375
 30
0.0
 10
413.35009765625
 20
191.83984375
 30
0.0
 10
413.35009765625
 20
191.83984375
 30
0.0
 10
413.35009765625
 20
191.83984375
 30
0.0
 10
413.35009765625
 20
207.4296875
 30
0.0
 10
413.35009765625
 20
207.4296875
 30
0.0
 10
413.35009765625
 20
207.4296875
 30
0.0
 10
457.4892578125
 20
207.4296875
 30
0.0
 10
457.4892578125
 20
207.4296875
 30
0.0
 10
457.4892578125
 20
207.4296875
 30
0.0
 10
457.4892578125
 20
192.4150390625
 30
0.0
 10
457.4892578125
 20
192.4150390625
 30
0.0
  0
POLYLINE
  5
DE
330
1F
100
AcDbEntity
  8
LAYER_1
 62
   250
100
AcDb2dPolyline
 66
     1
 10
0.0
 20
0.0
 30
0.0
  0
VERTEX
  5
DF
330
DE
100
AcDbEntity
  8
LAYER_1
 62
   250
100
AcDbVertex
100
AcDb2dVertex
 10
376.56640625
 20
191.8349609375
 30
0.0
  0
VERTEX
  5
E0
330
DE
100
AcDbEntity
  8
LAYER_1
 62
   250
100
AcDbVertex
100
AcDb2dVertex
 10
413.2763671875
 20
191.8349609375
 30
0.0
  0
SEQEND
  5
E1
330
DE
100
AcDbEntity
  8
LAYER_1
  0
POLYLINE
  5
E2
330
1F
100
AcDbEntity
  8
LAYER_1
 62
   250
100
AcDb2dPolyline
 66
     1
 10
0.0
 20
0.0
 30
0.0
  0
VERTEX
  5
E3
330
E2
100
AcDbEntity
  8
LAYER_1
 62
   250
100
AcDbVertex
100
AcDb2dVertex
 10
376.49609375
 20
207.4248046875
 30
0.0
  0
VERTEX
  5
E4
330
E2
100
AcDbEntity
  8
LAYER_1
 62
   250
100
AcDbVertex
100
AcDb2dVertex
 10
413.34619140625
 20
207.4248046875
 30
0.0
  0
SEQEND
  5
E5
330
E2
100
AcDbEntity
  8
LAYER_1
  0
POLYLINE
  5
E6
330
1F
100
AcDbEntity
  8
LAYER_1
 62
   250
100
AcDb2dPolyline
 66
     1
 10
0.0
 20
0.0
 30
0.0
  0
VERTEX
  5
E7
330
E6
100
AcDbEntity
  8
LAYER_1
 62
   250
100
AcDbVertex
100
AcDb2dVertex
 10
457.486328125
 20
207.4248046875
 30
0.0
  0
VERTEX
  5
E8
330
E6
100
AcDbEntity
  8
LAYER_1
 62
   250
100
AcDbVertex
100
AcDb2dVertex
 10
494.126953125
 20
207.4248046875
 30
0.0
  0
SEQEND
  5
E9
330
E6
100
AcDbEntity
  8
LAYER_1
  0
INSERT
  5
EB
330
1F
100
AcDbEntity
  8
LAYER_1
100
AcDbBlockReference
  2
BLOCK_4
 10
0.0
 20
0.0
 30
0.0
  0
INSERT
  5
109
330
1F
100
AcDbEntity
  8
LAYER_1
100
AcDbBlockReference
  2
BLOCK_5
 10
0.0
 20
0.0
 30
0.0
  0
SPLINE
  5
126
330
1F
100
AcDbEntity
  8
LAYER_1
100
AcDbSpline
210
0.0
220
0.0
230
1.0
 70
    11
 71
     3
 72
    14
 73
    10
 74
     0
 42
0.0000000001
 43
0.0000000001
 40
0.0
 40
0.0
 40
0.0
 40
0.0
 40
1.0
 40
1.0
 40
1.0
 40
2.0
 40
2.0
 40
2.0
 40
3.0
 40
3.0
 40
3.0
 40
3.0
 10
404.16748046875
 20
603.25634765625
 30
0.0
 10
401.18212890625
 20
601.1171875
 30
0.0
 10
397.1884765625
 20
603.22802734375
 30
0.0
 10
396.59619140625
 20
606.71923828125
 30
0.0
 10
395.8271484375
 20
611.244140625
 30
0.0
 10
402.16357421875
 20
613.75439453125
 30
0.0
 10
405.072265625
 20
610.37939453125
 30
0.0
 10
406.8251953125
 20
608.34326171875
 30
0.0
 10
406.3681640625
 20
604.833984375
 30
0.0
 10
404.16748046875
 20
603.25634765625
 30
0.0
  0
HATCH
  5
127
330
1F
100
AcDbEntity
  8
LAYER_1
 62
   250
100
AcDbHatch
 10
0.0
 20
0.0
 30
0.0
210
0.0
220
0.0
230
1.0
  2
SOLID
 70
     1
 71
     0
 91
        1
 92
        1
 93
        2
 72
     4
 94
        3
 73
     0
 74
     0
 95
       14
 96
       10
 40
0.0
 40
0.0
 40
0.0
 40
0.0
 40
1.0
 40
1.0
 40
1.0
 40
2.0
 40
2.0
 40
2.0
 40
3.0
 40
3.0
 40
3.0
 40
3.0
 10
404.16748046875
 20
603.25634765625
 10
401.18212890625
 20
601.1171875
 10
397.1884765625
 20
603.22802734375
 10
396.59619140625
 20
606.71923828125
 10
395.8271484375
 20
611.244140625
 10
402.16357421875
 20
613.75439453125
 10
405.072265625
 20
610.37939453125
 10
406.8251953125
 20
608.34326171875
 10
406.3681640625
 20
604.833984375
 10
404.16748046875
 20
603.25634765625
 72
     1
 10
404.16748046875
 20
603.25634765625
 11
404.16748046875
 21
603.25634765625
 97
        0
 75
     2
 76
     1
 98
        0
  0
SPLINE
  5
128
330
1F
100
AcDbEntity
  8
LAYER_1
 62
   250
100
AcDbSpline
210
0.0
220
0.0
230
1.0
 70
    11
 71
     3
 72
    14
 73
    10
 74
     0
 42
0.0000000001
 43
0.0000000001
 40
0.0
 40
0.0
 40
0.0
 40
0.0
 40
1.0
 40
1.0
 40
1.0
 40
2.0
 40
2.0
 40
2.0
 40
3.0
 40
3.0
 40
3.0
 40
3.0
 10
404.16748046875
 20
603.25634765625
 30
0.0
 10
401.18212890625
 20
601.1171875
 30
0.0
 10
397.1884765625
 20
603.22802734375
 30
0.0
 10
396.59619140625
 20
606.71923828125
 30
0.0
 10
395.8271484375
 20
611.244140625
 30
0.0
 10
402.16357421875
 20
613.75439453125
 30
0.0
 10
405.072265625
 20
610.37939453125
 30
0.0
 10
406.8251953125
 20
608.34326171875
 30
0.0
 10
406.3681640625
 20
604.833984375
 30
0.0
 10
404.16748046875
 20
603.25634765625
 30
0.0
  0
SPLINE
  5
129
330
1F
100
AcDbEntity
  8
LAYER_1
100
AcDbSpline
210
0.0
220
0.0
230
1.0
 70
    11
 71
     3
 72
    14
 73
    10
 74
     0
 42
0.0000000001
 43
0.0000000001
 40
0.0
 40
0.0
 40
0.0
 40
0.0
 40
1.0
 40
1.0
 40
1.0
 40
2.0
 40
2.0
 40
2.0
 40
3.0
 40
3.0
 40
3.0
 40
3.0
 10
401.30908203125
 20
608.919921875
 30
0.0
 10
401.123046875
 20
609.5908203125
 30
0.0
 10
400.42919921875
 20
610.09765625
 30
0.0
 10
399.51123046875
 20
609.845703125
 30
0.0
 10
397.6572265625
 20
609.3369140625
 30
0.0
 10
398.2919921875
 20
606.60986328125
 30
0.0
 10
400.21923828125
 20
606.98095703125
 30
0.0
 10
401.09521484375
 20
607.15087890625
 30
0.0
 10
401.52099609375
 20
608.15576171875
 30
0.0
 10
401.30908203125
 20
608.919921875
 30
0.0
  0
SPLINE
  5
12A
330
1F
100
AcDbEntity
  8
LAYER_1
100
AcDbSpline
210
0.0
220
0.0
230
1.0
 70
    11
 71
     3
 72
    17
 73
    13
 74
     0
 42
0.0000000001
 43
0.0000000001
 40
0.0
 40
0.0
 40
0.0
 40
0.0
 40
1.0
 40
1.0
 40
1.0
 40
2.0
 40
2.0
 40
2.0
 40
3.0
 40
3.0
 40
3.0
 40
4.0
 40
4.0
 40
4.0
 40
4.0
 10
474.818359375
 20
605.85595703125
 30
0.0
 10
474.2939453125
 20
604.298828125
 30
0.0
 10
473.11328125
 20
602.9619140625
 30
0.0
 10
471.513671875
 20
602.537109375
 30
0.0
 10
468.021484375
 20
601.60888671875
 30
0.0
 10
464.1142578125
 20
605.44287109375
 30
0.0
 10
465.4599609375
 20
609.0107421875
 30
0.0
 10
466.5517578125
 20
612.6669921875
 30
0.0
 10
471.9814453125
 20
613.35205078125
 30
0.0
 10
474.1982421875
 20
610.498046875
 30
0.0
 10
475.21484375
 20
609.19091796875
 30
0.0
 10
475.34375
 20
607.4130859375
 30
0.0
 10
474.818359375
 20
605.85595703125
 30
0.0
  0
HATCH
  5
12B
330
1F
100
AcDbEntity
  8
LAYER_1
 62
   250
100
AcDbHatch
 10
0.0
 20
0.0
 30
0.0
210
0.0
220
0.0
230
1.0
  2
SOLID
 70
     1
 71
     0
 91
        1
 92
        1
 93
        2
 72
     4
 94
        3
 73
     0
 74
     0
 95
       17
 96
       13
 40
0.0
 40
0.0
 40
0.0
 40
0.0
 40
1.0
 40
1.0
 40
1.0
 40
2.0
 40
2.0
 40
2.0
 40
3.0
 40
3.0
 40
3.0
 40
4.0
 40
4.0
 40
4.0
 40
4.0
 10
474.818359375
 20
605.85595703125
 10
474.2939453125
 20
604.298828125
 10
473.11328125
 20
602.9619140625
 10
471.513671875
 20
602.537109375
 10
468.021484375
 20
601.60888671875
 10
464.1142578125
 20
605.44287109375
 10
465.4599609375
 20
609.0107421875
 10
466.5517578125
 20
612.6669921875
 10
471.9814453125
 20
613.35205078125
 10
474.1982421875
 20
610.498046875
 10
475.21484375
 20
609.19091796875
 10
475.34375
 20
607.4130859375
 10
474.818359375
 20
605.85595703125
 72
     1
 10
474.818359375
 20
605.85595703125
 11
474.818359375
 21
605.85595703125
 97
        0
 75
     2
 76
     1
 98
        0
  0
SPLINE
  5
12C
330
1F
100
AcDbEntity
  8
LAYER_1
 62
   250
100
AcDbSpline
210
0.0
220
0.0
230
1.0
 70
    11
 71
     3
 72
    17
 73
    13
 74
     0
 42
0.0000000001
 43
0.0000000001
 40
0.0
 40
0.0
 40
0.0
 40
0.0
 40
1.0
 40
1.0
 40
1.0
 40
2.0
 40
2.0
 40
2.0
 40
3.0
 40
3.0
 40
3.0
 40
4.0
 40
4.0
 40
4.0
 40
4.0
 10
474.818359375
 20
605.85595703125
 30
0.0
 10
474.2939453125
 20
604.298828125
 30
0.0
 10
473.11328125
 20
602.9619140625
 30
0.0
 10
471.513671875
 20
602.537109375
 30
0.0
 10
468.021484375
 20
601.60888671875
 30
0.0
 10
464.1142578125
 20
605.44287109375
 30
0.0
 10
465.4599609375
 20
609.0107421875
 30
0.0
 10
466.5517578125
 20
612.6669921875
 30
0.0
 10
471.9814453125
 20
613.35205078125
 30
0.0
 10
474.1982421875
 20
610.498046875
 30
0.0
 10
475.21484375
 20
609.19091796875
 30
0.0
 10
475.34375
 20
607.4130859375
 30
0.0
 10
474.818359375
 20
605.85595703125
 30
0.0
  0
SPLINE
  5
12D
330
1F
100
AcDbEntity
  8
LAYER_1
100
AcDbSpline
210
0.0
220
0.0
230
1.0
 70
    11
 71
     3
 72
    20
 73
    16
 74
     0
 42
0.0000000001
 43
0.0000000001
 40
0.0
 40
0.0
 40
0.0
 40
0.0
 40
1.0
 40
1.0
 40
1.0
 40
2.0
 40
2.0
 40
2.0
 40
3.0
 40
3.0
 40
3.0
 40
4.0
 40
4.0
 40
4.0
 40
5.0
 40
5.0
 40
5.0
 40
5.0
 10
468.078125
 20
609.75
 30
0.0
 10
468.5693359375
 20
610.11962890625
 30
0.0
 10
469.26953125
 20
610.2275390625
 30
0.0
 10
469.7978515625
 20
609.876953125
 30
0.0
 10
470.5224609375
 20
609.3935546875
 30
0.0
 10
470.619140625
 20
608.2958984375
 30
0.0
 10
470.0234375
 20
607.669921875
 30
0.0
 10
469.564453125
 20
607.185546875
 30
0.0
 10
468.755859375
 20
607.08203125
 30
0.0
 10
468.1884765625
 20
607.4326171875
 30
0.0
 10
467.810546875
 20
607.6669921875
 30
0.0
 10
467.5654296875
 20
608.0869140625
 30
0.0
 10
467.51171875
 20
608.52392578125
 30
0.0
 10
467.44921875
 20
609.02587890625
 30
0.0
 10
467.677734375
 20
609.44873046875
 30
0.0
 10
468.078125
 20
609.75
 30
0.0
  0
POLYLINE
  5
12E
330
1F
100
AcDbEntity
  8
LAYER_1
100
AcDb2dPolyline
 66
     1
 10
0.0
 20
0.0
 30
0.0
  0
VERTEX
  5
12F
330
12E
100
AcDbEntity
  8
LAYER_1
100
AcDbVertex
100
AcDb2dVertex
 10
0.0
 20
841.89013671875
 30
0.0
  0
VERTEX
  5
130
330
12E
100
AcDbEntity
  8
LAYER_1
100
AcDbVertex
100
AcDb2dVertex
 10
843.1728515625
 20
841.89013671875
 30
0.0
  0
VERTEX
  5
131
330
12E
100
AcDbEntity
  8
LAYER_1
100
AcDbVertex
100
AcDb2dVertex
 10
843.1728515625
 20
0.0
 30
0.0
  0
VERTEX
  5
132
330
12E
100
AcDbEntity
  8
LAYER_1
100
AcDbVertex
100
AcDb2dVertex
 10
0.0
 20
0.0
 30
0.0
  0
VERTEX
  5
133
330
12E
100
AcDbEntity
  8
LAYER_1
100
AcDbVertex
100
AcDb2dVertex
 10
0.0
 20
841.89013671875
 30
0.0
  0
SEQEND
  5
134
330
12E
100
AcDbEntity
  8
LAYER_1
  0
ENDSEC
  0
SECTION
  2
OBJECTS
  0
DICTIONARY
  5
C
330
0
100
AcDbDictionary
  3
ACAD_GROUP
350
D
  3
ACAD_LAYOUT
350
1A
  3
ACAD_MLINESTYLE
350
17
  3
ACAD_PLOTSETTINGS
350
19
  3
ACAD_TABLESTYLE
350
155
  3
ACAD_VISUALSTYLE
350
2A
  3
ACDBHEADERROUNDTRIPXREC
350
135
  0
DICTIONARY
  5
D
102
{ACAD_REACTORS
330
C
102
}
330
C
100
AcDbDictionary
  0
DICTIONARY
  5
1A
102
{ACAD_REACTORS
330
C
102
}
330
C
100
AcDbDictionary
  0
DICTIONARY
  5
17
102
{ACAD_REACTORS
330
C
102
}
330
C
100
AcDbDictionary
  3
STANDARD
350
18
  0
DICTIONARY
  5
19
102
{ACAD_REACTORS
330
C
102
}
330
C
100
AcDbDictionary
  0
DICTIONARY
  5
155
102
{ACAD_REACTORS
330
C
102
}
330
C
100
AcDbDictionary
  0
DICTIONARY
  5
2A
102
{ACAD_REACTORS
330
C
102
}
330
C
100
AcDbDictionary
  3
2DWIREFRAME
350
2F
  3
3DWIREFRAME
350
30
  3
3D_HIDDEN
350
31
  3
BASIC
350
32
  3
BRIGHTEN
350
36
  3
COLORCHANGE
350
3A
  3
CONCEPTUAL
350
34
  3
DIM
350
35
  3
FACEPATTERN
350
39
  3
FLAT
350
2B
  3
FLATWITHEDGES
350
2C
  3
GOURAUD
350
2D
  3
GOURAUDWITHEDGES
350
2E
  3
LINEPATTERN
350
38
  3
REALISTIC
350
33
  3
THICKEN
350
37
  0
DICTIONARY
  5
135
102
{ACAD_REACTORS
330
C
102
}
330
C
100
AcDbDictionary
  3
CEPSNTYPE
350
13E
  3
DIMSTYLEDATA
350
154
  3
FINGERPRINTGUID
350
13F
  3
HYPERLINKBASE
350
138
  3
INSUNITS
350
13D
  3
LAYOUTDICT
350
13A
  3
LWETCUNION
350
13C
  3
PLOTSETDICT
350
13B
  3
PSVPSCALE
350
141
  3
PUCSBASE
350
144
  3
PUCSORGBACK
350
14A
  3
PUCSORGBOTTOM
350
146
  3
PUCSORGFRONT
350
149
  3
PUCSORGLEFT
350
147
  3
PUCSORGRIGHT
350
148
  3
PUCSORGTOP
350
145
  3
PUCSORTHOREF
350
142
  3
PUCSORTHOVIEW
350
143
  3
STYLESHEET
350
139
  3
TSTACKALIGN
350
136
  3
TSTACKSIZE
350
137
  3
UCSBASE
350
14D
  3
UCSORGBACK
350
153
  3
UCSORGBOTTOM
350
14F
  3
UCSORGFRONT
350
152
  3
UCSORGLEFT
350
150
  3
UCSORGRIGHT
350
151
  3
UCSORGTOP
350
14E
  3
UCSORTHOREF
350
14B
  3
UCSORTHOVIEW
350
14C
  3
VERSIONGUID
350
140
  0
MLINESTYLE
  5
18
102
{ACAD_REACTORS
330
17
102
}
330
17
100
AcDbMlineStyle
  2
Standard
 70
     0
  3

 62
   256
 51
90.0
 52
90.0
 71
     2
 49
0.5
 62
   256
  6
BYLAYER
 49
-0.5
 62
   256
  6
BYLAYER
  0
VISUALSTYLE
  5
2F
102
{ACAD_REACTORS
330
2A
102
}
330
2A
100
AcDbVisualStyle
  2
2dWireframe
 70
     4
 71
     0
 72
     2
 73
     0
 90
        0
 40
-0.6
 41
-30.0
 62
     5
 63
     7
 74
     1
 91
        4
 64
     7
 65
   257
 75
     1
175
     1
 42
1.0
 92
        0
 66
   257
 43
1.0
 76
     1
 77
     6
 78
     2
 67
     7
 79
     5
170
     0
171
     0
290
     0
174
     0
 93
        1
 44
0.0
173
     0
291
     0
 45
0.0
1001
ACAD
1000
AcDbSavedByObjectVersion
1070
     0
  0
VISUALSTYLE
  5
30
102
{ACAD_REACTORS
330
2A
102
}
330
2A
100
AcDbVisualStyle
  2
3dWireframe
 70
     5
 71
     0
 72
     2
 73
     0
 90
        0
 40
-0.6
 41
-30.0
 62
     5
 63
     7
 74
     1
 91
        4
 64
     7
 65
   257
 75
     1
175
     1
 42
1.0
 92
        0
 66
   257
 43
1.0
 76
     1
 77
     6
 78
     2
 67
     7
 79
     5
170
     0
171
     0
290
     0
174
     0
 93
        1
 44
0.0
173
     0
291
     0
 45
0.0
1001
ACAD
1000
AcDbSavedByObjectVersion
1070
     0
  0
VISUALSTYLE
  5
31
102
{ACAD_REACTORS
330
2A
102
}
330
2A
100
AcDbVisualStyle
  2
3D Hidden
 70
     6
 71
     1
 72
     2
 73
     2
 90
        0
 40
-0.6
 41
-30.0
 62
     5
 63
     7
 74
     2
 91
        2
 64
     7
 65
   257
 75
     2
175
     1
 42
40.0
 92
        0
 66
   257
 43
1.0
 76
     1
 77
     6
 78
     2
 67
     7
 79
     3
170
     0
171
     0
290
     0
174
     0
 93
        1
 44
0.0
173
     0
291
     0
 45
0.0
1001
ACAD
1000
AcDbSavedByObjectVersion
1070
     0
  0
VISUALSTYLE
  5
32
102
{ACAD_REACTORS
330
2A
102
}
330
2A
100
AcDbVisualStyle
  2
Basic
 70
     7
 71
     1
 72
     0
 73
     1
 90
        0
 40
-0.6
 41
-30.0
 62
     5
 63
     7
 74
     0
 91
        4
 64
     7
 65
   257
 75
     1
175
     1
 42
1.0
 92
        8
 66
     7
 43
1.0
 76
     1
 77
     6
 78
     2
 67
     7
 79
     5
170
     0
171
     0
290
     0
174
     0
 93
        1
 44
0.0
173
     0
291
     1
 45
0.0
1001
ACAD
1000
AcDbSavedByObjectVersion
1070
     0
  0
VISUALSTYLE
  5
36
102
{ACAD_REACTORS
330
2A
102
}
330
2A
100
AcDbVisualStyle
  2
Brighten
 70
    12
 71
     2
 72
     2
 73
     0
 90
        0
 40
-0.6
 41
-30.0
 62
     5
 63
     7
 74
     1
 91
        4
 64
     7
 65
   257
 75
     1
175
     1
 42
1.0
 92
        8
 66
     7
 43
1.0
 76
     1
 77
     6
 78
     2
 67
     7
 79
     5
170
     0
171
     0
290
     0
174
     0
 93
        1
 44
50.0
173
     0
291
     1
 45
0.0
1001
ACAD
1000
AcDbSavedByObjectVersion
1070
     0
  0
VISUALSTYLE
  5
3A
102
{ACAD_REACTORS
330
2A
102
}
330
2A
100
AcDbVisualStyle
  2
ColorChange
 70
    16
 71
     2
 72
     2
 73
     3
 90
        0
 40
-0.6
 41
-30.0
 62
     5
 63
     8
 74
     1
 91
        4
 64
     7
 65
   257
 75
     1
175
     1
 42
1.0
 92
        8
 66
     8
 43
1.0
 76
     1
 77
     6
 78
     2
 67
     7
 79
     5
170
     0
171
     0
290
     0
174
     0
 93
        1
 44
0.0
173
     0
291
     1
 45
0.0
1001
ACAD
1000
AcDbSavedByObjectVersion
1070
     0
  0
VISUALSTYLE
  5
34
102
{ACAD_REACTORS
330
2A
102
}
330
2A
100
AcDbVisualStyle
  2
Conceptual
 70
     9
 71
     3
 72
     2
 73
     0
 90
        0
 40
-0.6
 41
-30.0
 62
     5
 63
     7
 74
     2
 91
        2
 64
     7
 65
   257
 75
     1
175
     1
 42
40.0
 92
        8
 66
     7
 43
1.0
 76
     1
 77
     6
 78
     2
 67
     7
 79
     3
170
     0
171
     0
290
     0
174
     0
 93
        1
 44
0.0
173
     0
291
     0
 45
0.0
1001
ACAD
1000
AcDbSavedByObjectVersion
1070
     0
  0
VISUALSTYLE
  5
35
102
{ACAD_REACTORS
330
2A
102
}
330
2A
100
AcDbVisualStyle
  2
Dim
 70
    11
 71
     2
 72
     2
 73
     0
 90
        0
 40
-0.6
 41
-30.0
 62
     5
 63
     7
 74
     1
 91
        4
 64
     7
 65
   257
 75
     1
175
     1
 42
1.0
 92
        8
 66
     7
 43
1.0
 76
     1
 77
     6
 78
     2
 67
     7
 79
     5
170
     0
171
     0
290
     0
174
     0
 93
        1
 44
-50.0
173
     0
291
     1
 45
0.0
1001
ACAD
1000
AcDbSavedByObjectVersion
1070
     0
  0
VISUALSTYLE
  5
39
102
{ACAD_REACTORS
330
2A
102
}
330
2A
100
AcDbVisualStyle
  2
Facepattern
 70
    15
 71
     2
 72
     2
 73
     0
 90
        0
 40
-0.6
 41
-30.0
 62
     5
 63
     7
 74
     1
 91
        4
 64
     7
 65
   257
 75
     1
175
     1
 42
1.0
 92
        8
 66
     7
 43
1.0
 76
     1
 77
     6
 78
     2
 67
     7
 79
     5
170
     0
171
     0
290
     0
174
     0
 93
        1
 44
0.0
173
     0
291
     1
 45
0.0
1001
ACAD
1000
AcDbSavedByObjectVersion
1070
     0
  0
VISUALSTYLE
  5
2B
102
{ACAD_REACTORS
330
2A
102
}
330
2A
100
AcDbVisualStyle
  2
Flat
 70
     0
 71
     2
 72
     1
 73
     1
 90
        2
 40
-0.6
 41
30.0
 62
     5
 63
     7
 74
     0
 91
        4
 64
     7
 65
   257
 75
     1
175
     1
 42
1.0
 92
        8
 66
     7
 43
1.0
 76
     1
 77
     6
 78
     2
 67
     7
 79
     5
170
     0
171
     0
290
     0
174
     0
 93
       13
 44
0.0
173
     0
291
     1
 45
0.0
1001
ACAD
1000
AcDbSavedByObjectVersion
1070
     0
  0
VISUALSTYLE
  5
2C
102
{ACAD_REACTORS
330
2A
102
}
330
2A
100
AcDbVisualStyle
  2
FlatWithEdges
 70
     1
 71
     2
 72
     1
 73
     1
 90
        2
 40
-0.6
 41
30.0
 62
     5
 63
     7
 74
     1
 91
        4
 64
     7
 65
   257
 75
     1
175
     1
 42
1.0
 92
        0
 66
   257
 43
1.0
 76
     1
 77
     6
 78
     2
 67
     7
 79
     5
170
     0
171
     0
290
     0
174
     0
 93
       13
 44
0.0
173
     0
291
     1
 45
0.0
1001
ACAD
1000
AcDbSavedByObjectVersion
1070
     0
  0
VISUALSTYLE
  5
2D
102
{ACAD_REACTORS
330
2A
102
}
330
2A
100
AcDbVisualStyle
  2
Gouraud
 70
     2
 71
     2
 72
     2
 73
     1
 90
        2
 40
-0.6
 41
30.0
 62
     5
 63
     7
 74
     0
 91
        4
 64
     7
 65
   257
 75
     1
175
     1
 42
1.0
 92
        0
 66
     7
 43
1.0
 76
     1
 77
     6
 78
     2
 67
     7
 79
     5
170
     0
171
     0
290
     0
174
     0
 93
       13
 44
0.0
173
     0
291
     1
 45
0.0
1001
ACAD
1000
AcDbSavedByObjectVersion
1070
     0
  0
VISUALSTYLE
  5
2E
102
{ACAD_REACTORS
330
2A
102
}
330
2A
100
AcDbVisualStyle
  2
GouraudWithEdges
 70
     3
 71
     2
 72
     2
 73
     1
 90
        2
 40
-0.6
 41
30.0
 62
     5
 63
     7
 74
     1
 91
        4
 64
     7
 65
   257
 75
     1
175
     1
 42
1.0
 92
        0
 66
   257
 43
1.0
 76
     1
 77
     6
 78
     2
 67
     7
 79
     5
170
     0
171
     0
290
     0
174
     0
 93
       13
 44
0.0
173
     0
291
     1
 45
0.0
1001
ACAD
1000
AcDbSavedByObjectVersion
1070
     0
  0
VISUALSTYLE
  5
38
102
{ACAD_REACTORS
330
2A
102
}
330
2A
100
AcDbVisualStyle
  2
Linepattern
 70
    14
 71
     2
 72
     2
 73
     0
 90
        0
 40
-0.6
 41
-30.0
 62
     5
 63
     7
 74
     1
 91
        4
 64
     7
 65
   257
 75
     7
175
     7
 42
1.0
 92
        8
 66
     7
 43
1.0
 76
     1
 77
     6
 78
     2
 67
     7
 79
     5
170
     0
171
     0
290
     0
174
     0
 93
        1
 44
0.0
173
     0
291
     1
 45
0.0
1001
ACAD
1000
AcDbSavedByObjectVersion
1070
     0
  0
VISUALSTYLE
  5
33
102
{ACAD_REACTORS
330
2A
102
}
330
2A
100
AcDbVisualStyle
  2
Realistic
 70
     8
 71
     2
 72
     2
 73
     0
 90
        0
 40
-0.6
 41
-30.0
 62
     5
 63
     7
 74
     1
 91
        0
 64
     7
 65
   257
 75
     1
175
     1
 42
1.0
 92
        8
 66
     8
 43
1.0
 76
     1
 77
     6
 78
     2
 67
     7
 79
     5
170
     0
171
     0
290
     0
174
     0
 93
       13
 44
0.0
173
     0
291
     0
 45
0.0
1001
ACAD
1000
AcDbSavedByObjectVersion
1070
     0
  0
VISUALSTYLE
  5
37
102
{ACAD_REACTORS
330
2A
102
}
330
2A
100
AcDbVisualStyle
  2
Thicken
 70
    13
 71
     2
 72
     2
 73
     0
 90
        0
 40
-0.6
 41
-30.0
 62
     5
 63
     7
 74
     1
 91
        4
 64
     7
 65
   257
 75
     1
175
     1
 42
1.0
 92
       12
 66
     7
 43
1.0
 76
     1
 77
     6
 78
     2
 67
     7
 79
     5
170
     0
171
     0
290
     0
174
     0
 93
        1
 44
0.0
173
     0
291
     1
 45
0.0
1001
ACAD
1000
AcDbSavedByObjectVersion
1070
     0
  0
XRECORD
  5
13E
102
{ACAD_REACTORS
330
135
102
}
330
135
100
AcDbXrecord
 90
        0
  0
XRECORD
  5
154
102
{ACAD_REACTORS
330
135
102
}
330
135
100
AcDbXrecord
1000
DSTYLE
1002
{
1070
   340
340
11
1002
}
  0
XRECORD
  5
13F
102
{ACAD_REACTORS
330
135
102
}
330
135
100
AcDbXrecord
  1
{2C79143E-9EE1-50CC-00C0-6EDA947B9D3A}
  0
XRECORD
  5
138
102
{ACAD_REACTORS
330
135
102
}
330
135
100
AcDbXrecord
  1

  0
XRECORD
  5
13D
102
{ACAD_REACTORS
330
135
102
}
330
135
100
AcDbXrecord
 90
        1
  0
XRECORD
  5
13A
102
{ACAD_REACTORS
330
135
102
}
330
135
100
AcDbXrecord
340
1A
  0
XRECORD
  5
13C
102
{ACAD_REACTORS
330
135
102
}
330
135
100
AcDbXrecord
 90
    10269
  0
XRECORD
  5
13B
102
{ACAD_REACTORS
330
135
102
}
330
135
100
AcDbXrecord
340
19
  0
XRECORD
  5
141
102
{ACAD_REACTORS
330
135
102
}
330
135
100
AcDbXrecord
 40
0.0
  0
XRECORD
  5
144
102
{ACAD_REACTORS
330
135
102
}
330
135
100
AcDbXrecord
340
0
  0
XRECORD
  5
14A
102
{ACAD_REACTORS
330
135
102
}
330
135
100
AcDbXrecord
 10
0.0
 20
0.0
 30
0.0
  0
XRECORD
  5
146
102
{ACAD_REACTORS
330
135
102
}
330
135
100
AcDbXrecord
 10
0.0
 20
0.0
 30
0.0
  0
XRECORD
  5
149
102
{ACAD_REACTORS
330
135
102
}
330
135
100
AcDbXrecord
 10
0.0
 20
0.0
 30
0.0
  0
XRECORD
  5
147
102
{ACAD_REACTORS
330
135
102
}
330
135
100
AcDbXrecord
 10
0.0
 20
0.0
 30
0.0
  0
XRECORD
  5
148
102
{ACAD_REACTORS
330
135
102
}
330
135
100
AcDbXrecord
 10
0.0
 20
0.0
 30
0.0
  0
XRECORD
  5
145
102
{ACAD_REACTORS
330
135
102
}
330
135
100
AcDbXrecord
 10
0.0
 20
0.0
 30
0.0
  0
XRECORD
  5
142
102
{ACAD_REACTORS
330
135
102
}
330
135
100
AcDbXrecord
340
0
  0
XRECORD
  5
143
102
{ACAD_REACTORS
330
135
102
}
330
135
100
AcDbXrecord
 70
     0
  0
XRECORD
  5
139
102
{ACAD_REACTORS
330
135
102
}
330
135
100
AcDbXrecord
  1

  0
XRECORD
  5
136
102
{ACAD_REACTORS
330
135
102
}
330
135
100
AcDbXrecord
 90
        1
  0
XRECORD
  5
137
102
{ACAD_REACTORS
330
135
102
}
330
135
100
AcDbXrecord
 90
       70
  0
XRECORD
  5
14D
102
{ACAD_REACTORS
330
135
102
}
330
135
100
AcDbXrecord
340
0
  0
XRECORD
  5
153
102
{ACAD_REACTORS
330
135
102
}
330
135
100
AcDbXrecord
 10
0.0
 20
0.0
 30
0.0
  0
XRECORD
  5
14F
102
{ACAD_REACTORS
330
135
102
}
330
135
100
AcDbXrecord
 10
0.0
 20
0.0
 30
0.0
  0
XRECORD
  5
152
102
{ACAD_REACTORS
330
135
102
}
330
135
100
AcDbXrecord
 10
0.0
 20
0.0
 30
0.0
  0
XRECORD
  5
150
102
{ACAD_REACTORS
330
135
102
}
330
135
100
AcDbXrecord
 10
0.0
 20
0.0
 30
0.0
  0
XRECORD
  5
151
102
{ACAD_REACTORS
330
135
102
}
330
135
100
AcDbXrecord
 10
0.0
 20
0.0
 30
0.0
  0
XRECORD
  5
14E
102
{ACAD_REACTORS
330
135
102
}
330
135
100
AcDbXrecord
 10
0.0
 20
0.0
 30
0.0
  0
XRECORD
  5
14B
102
{ACAD_REACTORS
330
135
102
}
330
135
100
AcDbXrecord
340
0
  0
XRECORD
  5
14C
102
{ACAD_REACTORS
330
135
102
}
330
135
100
AcDbXrecord
 70
     0
  0
XRECORD
  5
140
102
{ACAD_REACTORS
330
135
102
}
330
135
100
AcDbXrecord
  1
{FAEB1C32-E019-11D5-929B-00C0DF256EC4}
  0
ENDSEC
  0
EOF
