<?xml version="1.0" encoding="utf-8"?>
<!-- Generator: Adobe Illustrator 15.1.0, SVG Export Plug-In . SVG Version: 6.00 Build 0)  -->
<!DOCTYPE svg PUBLIC "-//W3C//DTD SVG 1.1//EN" "http://www.w3.org/Graphics/SVG/1.1/DTD/svg11.dtd">
<svg version="1.1" id="Layer_1" xmlns="http://www.w3.org/2000/svg" xmlns:xlink="http://www.w3.org/1999/xlink" x="0px" y="0px"
	 width="878.582px" height="841.89px" viewBox="0 0 878.582 841.89" enable-background="new 0 0 878.582 841.89"
	 xml:space="preserve">
<path fill="none" stroke="#010101" stroke-width="1.5" stroke-linecap="round" stroke-linejoin="round" stroke-miterlimit="22.926" d="
	M236.798,612.612h1.138c0.747,1.291,1.823,2.367,3.114,3.114v1.138h4.252h4.252v-1.138c1.291-0.747,2.367-1.823,3.114-3.114h1.138
	v-4.252v-4.252h-1.138c-0.747-1.291-1.823-2.367-3.114-3.114v-1.138h-4.252h-4.252v1.138c-1.291,0.747-2.367,1.823-3.114,3.114
	h-1.138v4.252V612.612z"/>
<rect x="241.05" y="571.51" fill="none" stroke="#010101" stroke-width="1.5" stroke-linecap="round" stroke-linejoin="round" stroke-miterlimit="22.926" width="8.504" height="17.008"/>
<path fill="none" stroke="#010101" stroke-width="1.5" stroke-linecap="round" stroke-linejoin="round" stroke-miterlimit="22.926" d="
	M236.798,555.92h1.138c0.747,1.291,1.823,2.366,3.114,3.113v1.139h4.252h4.252v-1.139c1.291-0.747,2.367-1.822,3.114-3.113h1.138
	v-4.252v-4.252h-1.138c-0.747-1.291-1.823-2.367-3.114-3.114v-1.139h-4.252h-4.252v1.139c-1.291,0.747-2.367,1.823-3.114,3.114
	h-1.138v4.252V555.92z"/>
<path fill="none" stroke="#000000" stroke-width="1.5" stroke-linecap="round" stroke-linejoin="round" stroke-miterlimit="22.926" d="
	M192.773,596.095h34.1v30.689h22.68c7.83,0,14.17-6.35,14.17-14.17v-65.89c0-7.83-6.34-14.18-14.17-14.18h-22.68v26.699h-34.1"/>
<path fill="none" stroke="#010101" stroke-width="1.5" stroke-linecap="round" stroke-linejoin="round" stroke-miterlimit="22.926" d="
	M637.978,594.242h-1.138c-0.747,1.291-1.823,2.367-3.114,3.114v1.138h-4.252h-4.252v-1.138c-1.291-0.747-2.367-1.823-3.114-3.114
	h-1.138v-4.252v-4.252h1.138c0.747-1.291,1.823-2.367,3.114-3.114v-1.138h4.252h4.252v1.138c1.291,0.747,2.367,1.823,3.114,3.114
	h1.138v4.252V594.242z"/>
<rect x="625.222" y="553.14" fill="none" stroke="#010101" stroke-width="1.5" stroke-linecap="round" stroke-linejoin="round" stroke-miterlimit="22.926" width="8.504" height="17.008"/>
<path fill="none" stroke="#010101" stroke-width="1.5" stroke-linecap="round" stroke-linejoin="round" stroke-miterlimit="22.926" d="
	M637.978,537.55h-1.138c-0.747,1.291-1.823,2.366-3.114,3.113v1.139h-4.252h-4.252v-1.139c-1.291-0.747-2.367-1.822-3.114-3.113
	h-1.138v-4.252v-4.252h1.138c0.747-1.291,1.823-2.367,3.114-3.114v-1.139h4.252h4.252v1.139c1.291,0.747,2.367,1.823,3.114,3.114
	h1.138v4.252V537.55z"/>
<path fill="none" stroke="#000000" stroke-width="1.5" stroke-linecap="round" stroke-linejoin="round" stroke-miterlimit="22.926" d="
	M682.003,577.725h-34.1v30.689h-22.681c-7.829,0-14.17-6.35-14.17-14.17v-65.89c0-7.83,6.341-14.18,14.17-14.18h22.681v26.699h34.1"
	/>
<g>
	<defs>
		<rect id="SVGID_1_" x="654.441" y="381.013" width="182.28" height="239.653"/>
	</defs>
	<clipPath id="SVGID_2_">
		<use xlink:href="#SVGID_1_"  overflow="visible"/>
	</clipPath>
	<path clip-path="url(#SVGID_2_)" fill="#FFFFFF" d="M690.49,506.834c-1,0.52-2.006,1.027-3.019,1.521
		c-5.331,2.602-10.494,4.705-16.208,6.095c-3.317,0.806-10.287,2.331-11.618,6.084c-1.188,3.359,0.017,9.352,0.008,12.903
		c-0.016,7.46,0.84,15.322-0.13,22.667c-0.767,5.814-1.814,11.667-2.641,17.5c-0.89,6.275-2.067,12.445-1.575,18.716
		c0.193,2.452-0.571,7.451,0.372,9.613c1.667,3.824,8.712,6.028,12.229,7.59c5.774,2.568,12.077,3.532,18.064,5.455
		c13.29,4.269,37.85,8.096,50.609,0.973c-3.327-3.143-7.09-5.799-11.02-8.133c-1.938-1.152-3.933-2.194-5.934-3.232
		c-1.332-0.692-2.799-1.122-4.223-1.581c2.325,0.276,4.57,1.086,6.928,1.195c5.053,0.234,10.199,0.169,15.24-0.317
		c8.965-0.864,17.291-3.847,25.76-6.647c3.781-1.251,7.305-2.52,10.902-4.226c5.116-2.425,9.812-4.667,13.986-8.638
		c-0.428,0.407-6.153-1.102-7.033-1.209c-2.492-0.306-4.995-0.504-7.496-0.707c-5.014-0.406-10.381-0.562-15.221-2.025
		c0.903-0.792,2.325-0.889,3.34-1.571c1.306-0.879,2.606-1.76,3.906-2.645c3.581-2.436,7.155-4.884,10.677-7.404
		c5.297-3.791,10.46-7.765,15.624-11.727c3.581-2.748,7.092-5.59,10.476-8.58c1.741-1.539,3.449-3.116,5.12-4.734
		c1.425-1.381,3.712-3.057,4.543-4.815c-0.828-0.038-1.625,0.275-2.469,0.336c-1.267,0.091-2.511,0.084-3.775,0.037
		c-2.858-0.107-5.86-0.257-8.697-0.537c-2.461-0.243-4.916-0.075-7.417-0.198c2.493-1.498,4.744-3.388,7.215-4.919
		c3.11-1.927,6.448-3.578,9.179-6.053c5.035-4.562,9.82-9.434,14.492-14.352c5.863-6.17,11.51-12.653,14.879-20.479
		c-8.19,0.285-18.427,5.014-26.862,5.998c5.943-6.701,18.336-25.156,18.095-38.262c0.006,0.341-5.706,3.283-6.335,3.697
		c-2.293,1.508-4.529,3.104-6.844,4.577c-4.801,3.056-9.248,4.612-14.762,5.675c7.371-5.667,12.85-13.631,16.138-22.284
		c1.658-4.365,2.773-8.945,3.257-13.594c0.464-4.464-0.36-8.797-0.171-13.203c-0.104,2.434-3.191,5.696-4.525,7.624
		c-1.982,2.864-4.095,5.638-6.329,8.311c-6.473,7.744-13.752,14.328-22.205,19.824c0.91-0.593,1.211-3.052,1.578-4.016
		c0.745-1.956,1.461-3.924,2.146-5.901c1.327-3.832,2.542-7.704,3.64-11.608c1.646-5.852,3.034-11.775,4.155-17.748
		c0.526-2.803,0.943-5.607,1.333-8.428c0.203-1.474,0.402-2.949,0.591-4.426c0.114-0.897-0.029-3.8,0.541-4.441
		c-2.792,2.431-4.427,5.55-6.351,8.639c-2.114,3.398-4.348,6.722-6.694,9.964c-6.798,9.393-15.261,17.351-22.129,26.651
		c12.077-19.283,19.708-46.9,8.684-68.484c0.918,1.797-1.856,6.204-2.514,7.799c-1.4,3.4-2.78,6.807-4.143,10.222
		c-2.521,6.323-4.886,12.704-7.364,19.042c-1.125,2.877-2.342,5.726-3.552,8.57c-0.628,1.476-1.265,2.947-1.911,4.415
		c-0.492,1.118-1.97,3.194-1.97,4.39c-7.903,17.277-17.393,34.101-30.259,48.202C712.202,493.421,701.779,500.96,690.49,506.834"/>
	<path clip-path="url(#SVGID_2_)" fill="none" stroke="#000000" stroke-width="1.5" stroke-miterlimit="10" d="M690.49,506.834
		c-1,0.52-2.006,1.027-3.019,1.521c-5.331,2.602-10.494,4.705-16.208,6.095c-3.317,0.806-10.287,2.331-11.618,6.084
		c-1.188,3.359,0.017,9.352,0.008,12.903c-0.016,7.46,0.84,15.322-0.13,22.667c-0.767,5.814-1.814,11.667-2.641,17.5
		c-0.89,6.275-2.067,12.445-1.575,18.716c0.193,2.452-0.571,7.451,0.372,9.613c1.667,3.824,8.712,6.028,12.229,7.59
		c5.774,2.568,12.077,3.532,18.064,5.455c13.29,4.269,37.85,8.096,50.609,0.973c-3.327-3.143-7.09-5.799-11.02-8.133
		c-1.938-1.152-3.933-2.194-5.934-3.232c-1.332-0.692-2.799-1.122-4.223-1.581c2.325,0.276,4.57,1.086,6.928,1.195
		c5.053,0.234,10.199,0.169,15.24-0.317c8.965-0.864,17.291-3.847,25.76-6.647c3.781-1.251,7.305-2.52,10.902-4.226
		c5.116-2.425,9.812-4.667,13.986-8.638c-0.428,0.407-6.153-1.102-7.033-1.209c-2.492-0.306-4.995-0.504-7.496-0.707
		c-5.014-0.406-10.381-0.562-15.221-2.025c0.903-0.792,2.325-0.889,3.34-1.571c1.306-0.879,2.606-1.76,3.906-2.645
		c3.581-2.436,7.155-4.884,10.677-7.404c5.297-3.791,10.46-7.765,15.624-11.727c3.581-2.748,7.092-5.59,10.476-8.58
		c1.741-1.539,3.449-3.116,5.12-4.734c1.425-1.381,3.712-3.057,4.543-4.815c-0.828-0.038-1.625,0.275-2.469,0.336
		c-1.267,0.091-2.511,0.084-3.775,0.037c-2.858-0.107-5.86-0.257-8.697-0.537c-2.461-0.243-4.916-0.075-7.417-0.198
		c2.493-1.498,4.744-3.388,7.215-4.919c3.11-1.927,6.448-3.578,9.179-6.053c5.035-4.562,9.82-9.434,14.492-14.352
		c5.863-6.17,11.51-12.653,14.879-20.479c-8.19,0.285-18.427,5.014-26.862,5.998c5.943-6.701,18.336-25.156,18.095-38.262
		c0.006,0.341-5.706,3.283-6.335,3.697c-2.293,1.508-4.529,3.104-6.844,4.577c-4.801,3.056-9.248,4.612-14.762,5.675
		c7.371-5.667,12.85-13.631,16.138-22.284c1.658-4.365,2.773-8.945,3.257-13.594c0.464-4.464-0.36-8.797-0.171-13.203
		c-0.104,2.434-3.191,5.696-4.525,7.624c-1.982,2.864-4.095,5.638-6.329,8.311c-6.473,7.744-13.752,14.328-22.205,19.824
		c0.91-0.593,1.211-3.052,1.578-4.016c0.745-1.956,1.461-3.924,2.146-5.901c1.327-3.832,2.542-7.704,3.64-11.608
		c1.646-5.852,3.034-11.775,4.155-17.748c0.526-2.803,0.943-5.607,1.333-8.428c0.203-1.474,0.402-2.949,0.591-4.426
		c0.114-0.897-0.029-3.8,0.541-4.441c-2.792,2.431-4.427,5.55-6.351,8.639c-2.114,3.398-4.348,6.722-6.694,9.964
		c-6.798,9.393-15.261,17.351-22.129,26.651c12.077-19.283,19.708-46.9,8.684-68.484c0.918,1.797-1.856,6.204-2.514,7.799
		c-1.4,3.4-2.78,6.807-4.143,10.222c-2.521,6.323-4.886,12.704-7.364,19.042c-1.125,2.877-2.342,5.726-3.552,8.57
		c-0.628,1.476-1.265,2.947-1.911,4.415c-0.492,1.118-1.97,3.194-1.97,4.39c-7.903,17.277-17.393,34.101-30.259,48.202
		C712.202,493.421,701.779,500.96,690.49,506.834z"/>
	<path clip-path="url(#SVGID_2_)" fill="none" stroke="#000000" stroke-width="1.5" stroke-miterlimit="10" d="M655.618,582.627
		c1.405,11.172,29.418,14.346,39.856,11.852c-4.082-2.085-7.705-4.921-10.967-8.125c-1.603-1.575-3.124-3.232-4.611-4.916
		c-1.22-1.38-2.844-3.383-4.041-4.402c1.197,1.02,2.984,2.249,4.532,3.04c8.062,4.12,18.05,3.074,26.438,0.596
		c8.21-2.426,16.849-6.646,22.486-13.277c-13.404-0.518-32.942-2.39-45.296-8.128c20.78,0.381,51.961-9.82,58.706-32.657
		c-15.837,3.901-29.866,7.489-46.28,8.067c11.404-0.081,22.633-13.715,29.594-21.349c7.198-7.896,12.466-15.292,15.822-25.46
		c-13.432,10.493-32.306,18.366-49.305,17.68"/>
	<path clip-path="url(#SVGID_2_)" fill="none" stroke="#000000" stroke-width="1.5" stroke-miterlimit="10" d="M798.654,474.615
		c-6.223,5.238-11.925,13.294-17.72,19.331c-6.727,7.008-13.719,13.734-21.184,19.979c-5.113,4.275-10.332,10.691-17.029,12.684"/>
	<path clip-path="url(#SVGID_2_)" fill="none" stroke="#000000" stroke-width="1.5" stroke-miterlimit="10" d="M764.271,449.245
		c-3.805,6.975-7.208,17.312-12.201,24.439c-3.314,4.73-6.617,9.607-10.167,14.183"/>
	<path clip-path="url(#SVGID_2_)" fill="none" stroke="#000000" stroke-width="1.5" stroke-miterlimit="10" d="M726.377,512.951
		c15.176-0.381,34.041-20.648,43.698-32.01c5.311-6.244,9.446-14.905,15.528-20.173"/>
	<path clip-path="url(#SVGID_2_)" fill="none" stroke="#000000" stroke-width="1.5" stroke-miterlimit="10" d="M789.987,538.615
		c-4.763,2.167-8.907,5.104-13.293,7.94c-10.657,6.893-22.181,12.363-34.115,16.652c-2.878,1.034-5.688,2.224-8.638,3.066
		c-1.527,0.437-3.07,0.817-4.63,1.119"/>
	<path clip-path="url(#SVGID_2_)" fill="none" stroke="#000000" stroke-width="1.5" stroke-miterlimit="10" d="M758.473,580.431
		c-14.777,3.02-39.519,7.326-54.292,0.952"/>
	<path clip-path="url(#SVGID_2_)" fill="none" stroke="#000000" stroke-width="1.5" stroke-miterlimit="10" d="M715.406,603.005
		c-8.771,0.567-20.418-5-26.834-7.75"/>
	<path clip-path="url(#SVGID_2_)" fill="none" stroke="#000000" stroke-width="1.5" stroke-miterlimit="10" d="M808.702,498.787
		c-9.774,8.351-19.363,17.036-29.675,24.736c-8.146,6.084-17.121,10.98-26.444,15.006c-4.613,1.991-9.314,3.771-14.068,5.398
		c-4.593,1.571-10.058,2.399-14.369,4.573"/>
</g>
<g>
	<defs>
		<rect id="SVGID_3_" x="623.919" y="170.033" width="54.162" height="139.964"/>
	</defs>
	<clipPath id="SVGID_4_">
		<use xlink:href="#SVGID_3_"  overflow="visible"/>
	</clipPath>
	<path clip-path="url(#SVGID_4_)" fill="#FFFFFF" d="M661.667,170.783c-15.873,1.556-27.59,18.147-32.965,31.777
		c-2.376,6.027-4.016,12.228-4.033,18.715c-0.018,6.127,1.941,15.37,7.652,18.834c0.096-4.946-0.331-11.756,4.035-15.189
		c2.005-1.576,6.055-2.903,8.04-0.518c-3.826,7.199-8.839,15.709-10.037,23.869c-1.12,7.631,3.687,19.973,10.946,23.376
		c-0.644-3.493-0.845-9.744,3.194-11.495c1.851-0.802,4.251-0.289,5.525,1.29c3.161,3.913,0.285,10.104-1.395,14.046
		c-2.45,5.749-4.976,11.293-5.137,17.683c-0.341,13.347,15.078,21.197,25.585,12.261c-7.021-2.941-13.445-13.771-4.701-19.012
		c3.809-2.283,5.909-1.075,8.953,1.495"/>
	
		<path clip-path="url(#SVGID_4_)" fill="none" stroke="#010101" stroke-width="1.5" stroke-linecap="round" stroke-linejoin="round" stroke-miterlimit="22.926" d="
		M661.667,170.783c-15.873,1.556-27.59,18.147-32.965,31.777c-2.376,6.027-4.016,12.228-4.033,18.715
		c-0.018,6.127,1.941,15.37,7.652,18.834c0.096-4.946-0.331-11.756,4.035-15.189c2.005-1.576,6.055-2.903,8.04-0.518
		c-3.826,7.199-8.839,15.709-10.037,23.869c-1.12,7.631,3.687,19.973,10.946,23.376c-0.644-3.493-0.845-9.744,3.194-11.495
		c1.851-0.802,4.251-0.289,5.525,1.29c3.161,3.913,0.285,10.104-1.395,14.046c-2.45,5.749-4.976,11.293-5.137,17.683
		c-0.341,13.347,15.078,21.197,25.585,12.261c-7.021-2.941-13.445-13.771-4.701-19.012c3.809-2.283,5.909-1.075,8.953,1.495"/>
</g>
<path fill="none" stroke="#010101" stroke-width="1.5" stroke-linecap="round" stroke-linejoin="round" stroke-miterlimit="22.926" d="
	M361.569,331.841h1.138c0.747-1.291,1.823-2.367,3.114-3.114v-1.138h4.252h4.252v1.138c1.291,0.747,2.367,1.823,3.114,3.114h1.138
	v4.252v4.252h-1.138c-0.747,1.291-1.823,2.367-3.114,3.114v1.138h-4.252h-4.252v-1.138c-1.291-0.747-2.367-1.823-3.114-3.114h-1.138
	v-4.252V331.841z"/>
<rect x="389.916" y="331.842" fill="none" stroke="#010101" stroke-width="1.5" stroke-linecap="round" stroke-linejoin="round" stroke-miterlimit="22.926" width="17.008" height="8.504"/>
<rect x="446.609" y="331.842" fill="none" stroke="#010101" stroke-width="1.5" stroke-linecap="round" stroke-linejoin="round" stroke-miterlimit="22.926" width="17.008" height="8.504"/>
<path fill="none" stroke="#010101" stroke-width="1.5" stroke-linecap="round" stroke-linejoin="round" stroke-miterlimit="22.926" d="
	M474.955,331.841h1.139c0.746-1.291,1.822-2.367,3.113-3.114v-1.138h4.252h4.252v1.138c1.29,0.747,2.367,1.823,3.114,3.114h1.138
	v4.252v4.252h-1.138c-0.747,1.291-1.824,2.367-3.114,3.114v1.138h-4.252h-4.252v-1.138c-1.291-0.747-2.367-1.823-3.113-3.114h-1.139
	v-4.252V331.841z"/>
<path fill="none" stroke="#010101" stroke-width="1.5" stroke-linecap="round" stroke-linejoin="round" stroke-miterlimit="22.926" d="
	M445.191,301.695v15.973h56.693v22.677c0,7.826-6.348,14.173-14.173,14.173H365.821c-7.826,0-14.173-6.347-14.173-14.173v-22.677
	h56.693v-15.973"/>
<path fill="none" stroke="#010101" stroke-width="1.5" stroke-linecap="round" stroke-linejoin="round" stroke-miterlimit="22.926" d="
	M418.262,331.841h1.138c0.747-1.291,1.823-2.367,3.114-3.114v-1.138h4.252h4.252v1.138c1.291,0.747,2.367,1.823,3.114,3.114h1.138
	v4.252v4.252h-1.138c-0.747,1.291-1.823,2.367-3.114,3.114v1.138h-4.252h-4.252v-1.138c-1.291-0.747-2.367-1.823-3.114-3.114h-1.138
	v-4.252V331.841z"/>
<path fill="none" stroke="#010101" stroke-width="1.5" stroke-linecap="round" stroke-linejoin="round" stroke-miterlimit="22.926" d="
	M500.118,620.296h-1.139c-0.747,1.291-1.822,2.367-3.113,3.114v1.138h-4.252h-4.252v-1.138c-1.29-0.747-2.367-1.823-3.114-3.114
	h-1.139v-4.252v-4.252h1.139c0.747-1.29,1.824-2.367,3.114-3.114v-1.138h4.252h4.252v1.138c1.291,0.747,2.366,1.824,3.113,3.114
	h1.139v4.252V620.296z"/>
<rect x="454.763" y="611.792" fill="none" stroke="#010101" stroke-width="1.5" stroke-linecap="round" stroke-linejoin="round" stroke-miterlimit="22.926" width="17.009" height="8.504"/>
<rect x="398.071" y="611.792" fill="none" stroke="#010101" stroke-width="1.5" stroke-linecap="round" stroke-linejoin="round" stroke-miterlimit="22.926" width="17.008" height="8.504"/>
<path fill="none" stroke="#010101" stroke-width="1.5" stroke-linecap="round" stroke-linejoin="round" stroke-miterlimit="22.926" d="
	M386.732,620.296h-1.138c-0.747,1.291-1.823,2.367-3.114,3.114v1.138h-4.252h-4.252v-1.138c-1.29-0.747-2.367-1.823-3.114-3.114
	h-1.138v-4.252v-4.252h1.138c0.747-1.29,1.824-2.367,3.114-3.114v-1.138h4.252h4.252v1.138c1.291,0.747,2.367,1.824,3.114,3.114
	h1.138v4.252V620.296z"/>
<path fill="none" stroke="#010101" stroke-width="1.5" stroke-linecap="round" stroke-linejoin="round" stroke-miterlimit="22.926" d="
	M443.425,620.296h-1.138c-0.747,1.291-1.823,2.367-3.114,3.114v1.138h-4.252h-4.252v-1.138c-1.29-0.747-2.367-1.823-3.114-3.114
	h-1.138v-4.252v-4.252h1.138c0.747-1.29,1.824-2.367,3.114-3.114v-1.138h4.252h4.252v1.138c1.291,0.747,2.367,1.824,3.114,3.114
	h1.138v4.252V620.296z"/>
<path fill="none" stroke="#231F20" stroke-width="1.5" stroke-linecap="round" stroke-linejoin="round" stroke-miterlimit="22.926" d="
	M494.13,649.721v-15.26h15.91v-22.67c0-7.83-6.34-14.181-14.17-14.181H373.98c-7.83,0-14.17,6.351-14.17,14.181v22.67h16.69v15.59
	h36.85v-15.59h44.14v15.015"/>
<path fill="#FFFFFF" d="M472.909,190.119h-94.067c-12.613,0-22.933,10.32-22.933,22.933v67.624c0,12.613,10.32,22.933,22.933,22.933
	h94.067c12.612,0,22.933-10.32,22.933-22.933v-67.624C495.842,200.438,485.521,190.119,472.909,190.119"/>
<path fill="none" stroke="#000000" stroke-width="1.5" stroke-linecap="round" stroke-linejoin="round" stroke-miterlimit="22.926" d="
	M472.909,190.119h-94.067c-12.613,0-22.933,10.32-22.933,22.933v67.624c0,12.613,10.32,22.933,22.933,22.933h94.067
	c12.612,0,22.933-10.32,22.933-22.933v-67.624C495.842,200.438,485.521,190.119,472.909,190.119z"/>
<path d="M399.167,247.634c-2.985,2.139-6.979,0.028-7.571-3.463c-0.769-4.525,5.567-7.035,8.476-3.66
	C401.825,242.547,401.368,246.057,399.167,247.634"/>
<path fill="none" stroke="#000000" stroke-miterlimit="10" d="M399.167,247.634c-2.985,2.139-6.979,0.028-7.571-3.463
	c-0.769-4.525,5.567-7.035,8.476-3.66C401.825,242.547,401.368,246.057,399.167,247.634z"/>
<path fill="#FFFFFF" d="M396.309,241.971c-0.186-0.671-0.88-1.178-1.798-0.926c-1.854,0.509-1.219,3.236,0.708,2.865
	C396.095,243.74,396.521,242.735,396.309,241.971"/>
<path d="M462.818,245.035c-0.525,1.557-1.705,2.894-3.306,3.319c-3.491,0.928-7.397-2.906-6.053-6.474
	c1.091-3.656,6.522-4.341,8.739-1.487C463.214,241.7,463.343,243.478,462.818,245.035"/>
<path fill="none" stroke="#000000" stroke-miterlimit="10" d="M462.818,245.035c-0.525,1.557-1.705,2.894-3.306,3.319
	c-3.491,0.928-7.397-2.906-6.053-6.474c1.091-3.656,6.522-4.341,8.739-1.487C463.214,241.7,463.343,243.478,462.818,245.035z"/>
<path fill="#FFFFFF" d="M456.078,241.141c0.492-0.37,1.192-0.478,1.719-0.127c0.726,0.483,0.822,1.581,0.228,2.207
	c-0.46,0.484-1.269,0.588-1.836,0.237c-0.378-0.234-0.622-0.654-0.677-1.091C455.45,241.865,455.678,241.442,456.078,241.141"/>
<circle fill="none" stroke="#010101" stroke-width="1.5" stroke-linecap="round" stroke-linejoin="round" stroke-miterlimit="22.926" cx="395.002" cy="241.479" r="30.094"/>
<circle fill="none" stroke="#010101" stroke-width="1.5" stroke-linecap="round" stroke-linejoin="round" stroke-miterlimit="22.926" cx="458.154" cy="241.479" r="30.094"/>
<path fill="none" stroke="#010101" stroke-width="1.5" stroke-linecap="round" stroke-linejoin="round" stroke-miterlimit="22.926" d="
	M438.256,282.656L438.256,282.656c0,6.959-5.641,12.6-12.6,12.6h0.022c-6.959,0-12.6-5.641-12.6-12.6"/>
<path fill="#FFFFFF" d="M356.5,266.783c-1.681-6.651-0.072-14.268,0.1-21.031c2.274,2.996,3.494,7.298,5.725,10.498
	c-2.565-12.04-2.17-25.593-0.594-37.741c0.656-5.054,1.043-10.813,2.756-15.637c1.155-3.25,4.692-6.005,5.537-9.101
	c1.676-6.142-5.901-4.943-10.585-3.743c-14.426,3.696-16.563,21.648-17.005,34.045c-0.266,7.469,0.191,14.936,0.617,22.391
	c0.4,6.985,1.907,17.329-0.598,23.775c1.842-4.74,5.393-8.41,7.684-12.865c1.469,3.831,2.832,8.363,4.214,11.905
	c0.558-1.532,1.221-3.397,1.651-4.642c0.554,0.367,0.721,0.916,0.498,1.646"/>
<path fill="none" stroke="#000000" stroke-width="1.5" stroke-linecap="round" stroke-linejoin="round" stroke-miterlimit="22.926" d="
	M356.5,266.783c-1.681-6.651-0.072-14.268,0.1-21.031c2.274,2.996,3.494,7.298,5.725,10.498c-2.565-12.04-2.17-25.593-0.594-37.741
	c0.656-5.054,1.043-10.813,2.756-15.637c1.155-3.25,4.692-6.005,5.537-9.101c1.676-6.142-5.901-4.943-10.585-3.743
	c-14.426,3.696-16.563,21.648-17.005,34.045c-0.266,7.469,0.191,14.936,0.617,22.391c0.4,6.985,1.907,17.329-0.598,23.775
	c1.842-4.74,5.393-8.41,7.684-12.865c1.469,3.831,2.832,8.363,4.214,11.905c0.558-1.532,1.221-3.397,1.651-4.642
	c0.554,0.367,0.721,0.916,0.498,1.646"/>
<path fill="#FFFFFF" d="M492,214.783c0.863,1.282,0,10.128,0,13.545v14.955c0,6.134-0.323,12.409,0.103,18.505
	c1.666-3.546,3.894-7.497,6.434-10.628c1.399,4.92,1.977,10.099,3.038,15.027c2.724-4.225,4.708-10.828,4.978-15.922
	c2.397,1.615,4.726,4.686,5.567,7.525c1.883-5.928-0.119-16.876-0.119-23.464c0-6.31,0.138-12.831-1.375-18.944
	c-1.688-6.811-4.164-14.257-8.827-19.56c-2.947-3.351-9.526-8.066-14.215-7.735c-10.142,0.717-2.67,11.068,0.187,15.691
	C491.788,210.282,491.9,214.956,492,214.783"/>
<path fill="none" stroke="#000000" stroke-width="1.5" stroke-linecap="round" stroke-linejoin="round" stroke-miterlimit="22.926" d="
	M492,214.783c0.863,1.282,0,10.128,0,13.545v14.955c0,6.134-0.323,12.409,0.103,18.505c1.666-3.546,3.894-7.497,6.434-10.628
	c1.399,4.92,1.977,10.099,3.038,15.027c2.724-4.225,4.708-10.828,4.978-15.922c2.397,1.615,4.726,4.686,5.567,7.525
	c1.883-5.928-0.119-16.876-0.119-23.464c0-6.31,0.138-12.831-1.375-18.944c-1.688-6.811-4.164-14.257-8.827-19.56
	c-2.947-3.351-9.526-8.066-14.215-7.735c-10.142,0.717-2.67,11.068,0.187,15.691C491.788,210.282,491.9,214.956,492,214.783z"/>
<path fill="#FFFFFF" d="M437.584,207.536c-1.024-1.402-3.708-7.525-3.708-7.525s11.402,3.277,13.594,4.005
	c10.079,3.35,21.218,5.993,31.835,5.592c-0.517-1.654-1.3-3.3-2.201-4.79c-1.072-1.775-2.404-3.523-3.153-5.472
	c-2.548-6.626,5.672-7.583,10.299-6.625c3.023,0.627-0.411-11.88-0.863-12.733c-1.92-3.618-4.834-6.025-7.966-8.548
	c-9.271-7.464-19.508-9.952-30.908-12.157c-5.826-1.127-11.384-0.709-17.28-0.556c-9.025,0.235-17.878,1.97-26.53,4.605
	c-7.34,2.235-14.111,5.687-20.683,9.595c-2.828,1.682-5.815,3.629-7.866,6.239c-7.338,9.344,0.542,17.661,9.013,21.832
	c4.014,1.976,8.264,3.488,11.377,4.726c6.144,2.442,11.886,3.527,18.229,4.298c-1.494-2.468-4.343-4.077-5.206-6.673
	c0.078,0.235,8.509,3.857,9.439,4.179c3.291,1.14,6.471,2.57,9.678,3.92c5.598,2.355,13.3,4.056,19.515,2.733
	C441.556,212.126,439.378,209.99,437.584,207.536"/>
<path fill="none" stroke="#000000" stroke-width="1.5" stroke-linecap="round" stroke-linejoin="round" stroke-miterlimit="22.926" d="
	M437.584,207.536c-1.024-1.402-3.708-7.525-3.708-7.525s11.402,3.277,13.594,4.005c10.079,3.35,21.218,5.993,31.835,5.592
	c-0.517-1.654-1.3-3.3-2.201-4.79c-1.072-1.775-2.404-3.523-3.153-5.472c-2.548-6.626,5.672-7.583,10.299-6.625
	c3.023,0.627-0.411-11.88-0.863-12.733c-1.92-3.618-4.834-6.025-7.966-8.548c-9.271-7.464-19.508-9.952-30.908-12.157
	c-5.826-1.127-11.384-0.709-17.28-0.556c-9.025,0.235-17.878,1.97-26.53,4.605c-7.34,2.235-14.111,5.687-20.683,9.595
	c-2.828,1.682-5.815,3.629-7.866,6.239c-7.338,9.344,0.542,17.661,9.013,21.832c4.014,1.976,8.264,3.488,11.377,4.726
	c6.144,2.442,11.886,3.527,18.229,4.298c-1.494-2.468-4.343-4.077-5.206-6.673c0.078,0.235,8.509,3.857,9.439,4.179
	c3.291,1.14,6.471,2.57,9.678,3.92c5.598,2.355,13.3,4.056,19.515,2.733C441.556,212.126,439.378,209.99,437.584,207.536z"/>
<path fill="#FFFFFF" d="M492.826,265.104c0,8.203-6.65,14.853-14.854,14.853s-14.852-6.65-14.852-14.853
	c0-8.203,6.648-14.853,14.852-14.853S492.826,256.901,492.826,265.104"/>
<circle fill="none" stroke="#000000" stroke-width="3" stroke-linecap="round" stroke-linejoin="round" stroke-miterlimit="22.926" cx="477.974" cy="265.104" r="14.853"/>
<path fill="none" stroke="#010101" stroke-width="1.5" stroke-linecap="round" stroke-linejoin="round" stroke-miterlimit="22.926" d="
	M101.569,331.841h1.138c0.747-1.291,1.823-2.367,3.114-3.114v-1.138h4.252h4.252v1.138c1.291,0.747,2.367,1.823,3.114,3.114h1.138
	v4.252v4.252h-1.138c-0.747,1.291-1.823,2.367-3.114,3.114v1.138h-4.252h-4.252v-1.138c-1.291-0.747-2.367-1.823-3.114-3.114h-1.138
	v-4.252V331.841z"/>
<rect x="129.916" y="331.842" fill="none" stroke="#010101" stroke-width="1.5" stroke-linecap="round" stroke-linejoin="round" stroke-miterlimit="22.926" width="17.008" height="8.504"/>
<rect x="186.609" y="331.842" fill="none" stroke="#010101" stroke-width="1.5" stroke-linecap="round" stroke-linejoin="round" stroke-miterlimit="22.926" width="17.008" height="8.504"/>
<path fill="none" stroke="#010101" stroke-width="1.5" stroke-linecap="round" stroke-linejoin="round" stroke-miterlimit="22.926" d="
	M214.955,331.841h1.138c0.747-1.291,1.823-2.367,3.114-3.114v-1.138h4.252h4.252v1.138c1.29,0.747,2.367,1.823,3.114,3.114h1.138
	v4.252v4.252h-1.138c-0.747,1.291-1.824,2.367-3.114,3.114v1.138h-4.252h-4.252v-1.138c-1.291-0.747-2.367-1.823-3.114-3.114h-1.138
	v-4.252V331.841z"/>
<path fill="none" stroke="#010101" stroke-width="1.5" stroke-linecap="round" stroke-linejoin="round" stroke-miterlimit="22.926" d="
	M185.191,301.695v15.973h56.693v22.677c0,7.826-6.347,14.173-14.173,14.173h-121.89c-7.826,0-14.173-6.347-14.173-14.173v-22.677
	h56.693v-15.973"/>
<path fill="none" stroke="#010101" stroke-width="1.5" stroke-linecap="round" stroke-linejoin="round" stroke-miterlimit="22.926" d="
	M158.262,331.841h1.138c0.747-1.291,1.823-2.367,3.114-3.114v-1.138h4.252h4.252v1.138c1.291,0.747,2.367,1.823,3.114,3.114h1.138
	v4.252v4.252h-1.138c-0.747,1.291-1.823,2.367-3.114,3.114v1.138h-4.252h-4.252v-1.138c-1.291-0.747-2.367-1.823-3.114-3.114h-1.138
	v-4.252V331.841z"/>
<path fill="#FFFFFF" d="M212.909,190.119h-94.067c-12.613,0-22.933,10.32-22.933,22.933v67.624c0,12.613,10.32,22.933,22.933,22.933
	h94.067c12.613,0,22.933-10.32,22.933-22.933v-67.624C235.842,200.438,225.522,190.119,212.909,190.119"/>
<path fill="none" stroke="#000000" stroke-width="1.5" stroke-linecap="round" stroke-linejoin="round" stroke-miterlimit="22.926" d="
	M212.909,190.119h-94.067c-12.613,0-22.933,10.32-22.933,22.933v67.624c0,12.613,10.32,22.933,22.933,22.933h94.067
	c12.613,0,22.933-10.32,22.933-22.933v-67.624C235.842,200.438,225.522,190.119,212.909,190.119z"/>
<path d="M139.167,251.634c-2.985,2.139-6.979,0.028-7.571-3.463c-0.769-4.525,5.567-7.035,8.476-3.66
	C141.825,246.547,141.368,250.057,139.167,251.634"/>
<path fill="none" stroke="#000000" stroke-miterlimit="10" d="M139.167,251.634c-2.985,2.139-6.979,0.028-7.571-3.463
	c-0.769-4.525,5.567-7.035,8.476-3.66C141.825,246.547,141.368,250.057,139.167,251.634z"/>
<path fill="#FFFFFF" d="M136.309,245.971c-0.186-0.671-0.88-1.178-1.798-0.926c-1.854,0.509-1.219,3.236,0.708,2.865
	C136.095,247.74,136.521,246.735,136.309,245.971"/>
<path d="M202.818,249.035c-0.525,1.557-1.705,2.894-3.305,3.319c-3.492,0.928-7.398-2.906-6.053-6.474
	c1.091-3.656,6.522-4.341,8.739-1.487C203.214,245.7,203.343,247.478,202.818,249.035"/>
<path fill="none" stroke="#000000" stroke-miterlimit="10" d="M202.818,249.035c-0.525,1.557-1.705,2.894-3.305,3.319
	c-3.492,0.928-7.398-2.906-6.053-6.474c1.091-3.656,6.522-4.341,8.739-1.487C203.214,245.7,203.343,247.478,202.818,249.035z"/>
<path fill="#FFFFFF" d="M196.078,245.141c0.492-0.37,1.192-0.478,1.719-0.127c0.725,0.483,0.822,1.581,0.227,2.207
	c-0.46,0.484-1.268,0.588-1.836,0.237c-0.378-0.234-0.622-0.654-0.676-1.091C195.45,245.865,195.678,245.442,196.078,245.141"/>
<circle fill="none" stroke="#010101" stroke-width="1.5" stroke-linecap="round" stroke-linejoin="round" stroke-miterlimit="22.926" cx="135.002" cy="245.479" r="30.094"/>
<circle fill="none" stroke="#010101" stroke-width="1.5" stroke-linecap="round" stroke-linejoin="round" stroke-miterlimit="22.926" cx="198.154" cy="245.479" r="30.094"/>
<path fill="none" stroke="#010101" stroke-width="1.5" stroke-linecap="round" stroke-linejoin="round" stroke-miterlimit="22.926" d="
	M178.256,282.656L178.256,282.656c0,6.959-5.641,12.6-12.6,12.6h0.022c-6.959,0-12.6-5.641-12.6-12.6"/>
<g>
	<defs>
		<rect id="SVGID_5_" x="741.919" y="170.033" width="54.162" height="139.964"/>
	</defs>
	<clipPath id="SVGID_6_">
		<use xlink:href="#SVGID_5_"  overflow="visible"/>
	</clipPath>
	<path clip-path="url(#SVGID_6_)" fill="#FFFFFF" d="M758.333,170.783c15.873,1.556,27.59,18.147,32.965,31.777
		c2.376,6.027,4.016,12.228,4.033,18.715c0.018,6.127-1.941,15.37-7.652,18.834c-0.096-4.946,0.331-11.756-4.035-15.189
		c-2.005-1.576-6.055-2.903-8.04-0.518c3.826,7.199,8.839,15.709,10.037,23.869c1.12,7.631-3.687,19.973-10.946,23.376
		c0.644-3.493,0.845-9.744-3.194-11.495c-1.851-0.802-4.251-0.289-5.525,1.29c-3.161,3.913-0.285,10.104,1.395,14.046
		c2.45,5.749,4.976,11.293,5.137,17.683c0.341,13.347-15.078,21.197-25.585,12.261c7.021-2.941,13.445-13.771,4.701-19.012
		c-3.809-2.283-5.909-1.075-8.953,1.495"/>
	
		<path clip-path="url(#SVGID_6_)" fill="none" stroke="#010101" stroke-width="1.5" stroke-linecap="round" stroke-linejoin="round" stroke-miterlimit="22.926" d="
		M758.333,170.783c15.873,1.556,27.59,18.147,32.965,31.777c2.376,6.027,4.016,12.228,4.033,18.715
		c0.018,6.127-1.941,15.37-7.652,18.834c-0.096-4.946,0.331-11.756-4.035-15.189c-2.005-1.576-6.055-2.903-8.04-0.518
		c3.826,7.199,8.839,15.709,10.037,23.869c1.12,7.631-3.687,19.973-10.946,23.376c0.644-3.493,0.845-9.744-3.194-11.495
		c-1.851-0.802-4.251-0.289-5.525,1.29c-3.161,3.913-0.285,10.104,1.395,14.046c2.45,5.749,4.976,11.293,5.137,17.683
		c0.341,13.347-15.078,21.197-25.585,12.261c7.021-2.941,13.445-13.771,4.701-19.012c-3.809-2.283-5.909-1.075-8.953,1.495"/>
</g>
<path fill="#FFFFFF" d="M96.5,266.783c-1.681-6.651-0.072-14.268,0.1-21.031c2.274,2.996,3.494,7.298,5.725,10.498
	c-2.565-12.04-2.17-25.593-0.594-37.741c0.656-5.054,1.043-10.813,2.756-15.637c1.155-3.25,4.692-6.005,5.537-9.101
	c1.676-6.142-5.901-4.943-10.585-3.743c-14.426,3.696-16.563,21.648-17.005,34.045c-0.266,7.469,0.191,14.936,0.617,22.391
	c0.4,6.985,1.907,17.329-0.598,23.775c1.842-4.74,5.393-8.41,7.684-12.865c1.469,3.831,2.832,8.363,4.214,11.905
	c0.558-1.532,1.221-3.397,1.651-4.642c0.554,0.367,0.721,0.916,0.498,1.646"/>
<path fill="none" stroke="#000000" stroke-width="1.5" stroke-linecap="round" stroke-linejoin="round" stroke-miterlimit="22.926" d="
	M96.5,266.783c-1.681-6.651-0.072-14.268,0.1-21.031c2.274,2.996,3.494,7.298,5.725,10.498c-2.565-12.04-2.17-25.593-0.594-37.741
	c0.656-5.054,1.043-10.813,2.756-15.637c1.155-3.25,4.692-6.005,5.537-9.101c1.676-6.142-5.901-4.943-10.585-3.743
	c-14.426,3.696-16.563,21.648-17.005,34.045c-0.266,7.469,0.191,14.936,0.617,22.391c0.4,6.985,1.907,17.329-0.598,23.775
	c1.842-4.74,5.393-8.41,7.684-12.865c1.469,3.831,2.832,8.363,4.214,11.905c0.558-1.532,1.221-3.397,1.651-4.642
	c0.554,0.367,0.721,0.916,0.498,1.646"/>
<path fill="#FFFFFF" d="M232,214.783c0.863,1.282,0,10.128,0,13.545v14.955c0,6.134-0.323,12.409,0.103,18.505
	c1.666-3.546,3.893-7.497,6.433-10.628c1.4,4.92,1.977,10.099,3.038,15.027c2.724-4.225,4.708-10.828,4.977-15.922
	c2.398,1.615,4.726,4.686,5.568,7.525c1.883-5.928-0.119-16.876-0.119-23.464c0-6.31,0.138-12.831-1.375-18.944
	c-1.687-6.811-4.164-14.257-8.827-19.56c-2.947-3.351-9.527-8.066-14.215-7.735c-10.142,0.717-2.67,11.068,0.187,15.691
	C231.788,210.282,231.9,214.956,232,214.783"/>
<path fill="none" stroke="#000000" stroke-width="1.5" stroke-linecap="round" stroke-linejoin="round" stroke-miterlimit="22.926" d="
	M232,214.783c0.863,1.282,0,10.128,0,13.545v14.955c0,6.134-0.323,12.409,0.103,18.505c1.666-3.546,3.893-7.497,6.433-10.628
	c1.4,4.92,1.977,10.099,3.038,15.027c2.724-4.225,4.708-10.828,4.977-15.922c2.398,1.615,4.726,4.686,5.568,7.525
	c1.883-5.928-0.119-16.876-0.119-23.464c0-6.31,0.138-12.831-1.375-18.944c-1.687-6.811-4.164-14.257-8.827-19.56
	c-2.947-3.351-9.527-8.066-14.215-7.735c-10.142,0.717-2.67,11.068,0.187,15.691C231.788,210.282,231.9,214.956,232,214.783z"/>
<path fill="#FFFFFF" d="M177.584,207.536c-1.024-1.402-3.708-7.525-3.708-7.525s11.402,3.277,13.594,4.005
	c10.079,3.35,21.218,5.993,31.835,5.592c-0.517-1.654-1.3-3.3-2.201-4.79c-1.073-1.775-2.405-3.523-3.154-5.472
	c-2.548-6.626,5.672-7.583,10.299-6.625c3.023,0.627-0.411-11.88-0.863-12.733c-1.92-3.618-4.834-6.025-7.966-8.548
	c-9.271-7.464-19.509-9.952-30.908-12.157c-5.826-1.127-11.384-0.709-17.28-0.556c-9.025,0.235-17.878,1.97-26.53,4.605
	c-7.34,2.235-14.111,5.687-20.683,9.595c-2.828,1.682-5.815,3.629-7.866,6.239c-7.338,9.344,0.542,17.661,9.013,21.832
	c4.014,1.976,8.264,3.488,11.377,4.726c6.144,2.442,11.886,3.527,18.228,4.298c-1.493-2.468-4.342-4.077-5.205-6.673
	c0.078,0.235,8.509,3.857,9.439,4.179c3.291,1.14,6.471,2.57,9.678,3.92c5.598,2.355,13.3,4.056,19.515,2.733
	C181.556,212.126,179.378,209.99,177.584,207.536"/>
<path fill="none" stroke="#000000" stroke-width="1.5" stroke-linecap="round" stroke-linejoin="round" stroke-miterlimit="22.926" d="
	M177.584,207.536c-1.024-1.402-3.708-7.525-3.708-7.525s11.402,3.277,13.594,4.005c10.079,3.35,21.218,5.993,31.835,5.592
	c-0.517-1.654-1.3-3.3-2.201-4.79c-1.073-1.775-2.405-3.523-3.154-5.472c-2.548-6.626,5.672-7.583,10.299-6.625
	c3.023,0.627-0.411-11.88-0.863-12.733c-1.92-3.618-4.834-6.025-7.966-8.548c-9.271-7.464-19.509-9.952-30.908-12.157
	c-5.826-1.127-11.384-0.709-17.28-0.556c-9.025,0.235-17.878,1.97-26.53,4.605c-7.34,2.235-14.111,5.687-20.683,9.595
	c-2.828,1.682-5.815,3.629-7.866,6.239c-7.338,9.344,0.542,17.661,9.013,21.832c4.014,1.976,8.264,3.488,11.377,4.726
	c6.144,2.442,11.886,3.527,18.228,4.298c-1.493-2.468-4.342-4.077-5.205-6.673c0.078,0.235,8.509,3.857,9.439,4.179
	c3.291,1.14,6.471,2.57,9.678,3.92c5.598,2.355,13.3,4.056,19.515,2.733C181.556,212.126,179.378,209.99,177.584,207.536z"/>
<path fill="none" stroke="#010101" stroke-width="1.5" stroke-linecap="round" stroke-linejoin="round" stroke-miterlimit="22.926" d="
	M646.569,334.841h1.138c0.747-1.291,1.823-2.367,3.114-3.114v-1.138h4.252h4.252v1.138c1.291,0.747,2.367,1.823,3.114,3.114h1.138
	v4.252v4.252h-1.138c-0.747,1.291-1.823,2.367-3.114,3.114v1.138h-4.252h-4.252v-1.138c-1.291-0.747-2.367-1.823-3.114-3.114h-1.138
	v-4.252V334.841z"/>
<rect x="674.916" y="334.842" fill="none" stroke="#010101" stroke-width="1.5" stroke-linecap="round" stroke-linejoin="round" stroke-miterlimit="22.926" width="17.008" height="8.504"/>
<rect x="731.609" y="334.842" fill="none" stroke="#010101" stroke-width="1.5" stroke-linecap="round" stroke-linejoin="round" stroke-miterlimit="22.926" width="17.008" height="8.504"/>
<path fill="none" stroke="#010101" stroke-width="1.5" stroke-linecap="round" stroke-linejoin="round" stroke-miterlimit="22.926" d="
	M759.955,334.841h1.139c0.746-1.291,1.822-2.367,3.113-3.114v-1.138h4.252h4.252v1.138c1.29,0.747,2.367,1.823,3.114,3.114h1.138
	v4.252v4.252h-1.138c-0.747,1.291-1.824,2.367-3.114,3.114v1.138h-4.252h-4.252v-1.138c-1.291-0.747-2.367-1.823-3.113-3.114h-1.139
	v-4.252V334.841z"/>
<path fill="none" stroke="#010101" stroke-width="1.5" stroke-linecap="round" stroke-linejoin="round" stroke-miterlimit="22.926" d="
	M730.191,304.695v15.973h56.693v22.677c0,7.826-6.348,14.173-14.173,14.173H650.821c-7.826,0-14.173-6.347-14.173-14.173v-22.677
	h56.693v-15.973"/>
<path fill="none" stroke="#010101" stroke-width="1.5" stroke-linecap="round" stroke-linejoin="round" stroke-miterlimit="22.926" d="
	M703.263,334.841h1.138c0.747-1.291,1.823-2.367,3.114-3.114v-1.138h4.252h4.252v1.138c1.291,0.747,2.367,1.823,3.114,3.114h1.138
	v4.252v4.252h-1.138c-0.747,1.291-1.823,2.367-3.114,3.114v1.138h-4.252h-4.252v-1.138c-1.291-0.747-2.367-1.823-3.114-3.114h-1.138
	v-4.252V334.841z"/>
<g>
	<defs>
		<rect id="SVGID_7_" x="737.668" y="140.327" width="41.597" height="41.931"/>
	</defs>
	<clipPath id="SVGID_8_">
		<use xlink:href="#SVGID_7_"  overflow="visible"/>
	</clipPath>
	<path clip-path="url(#SVGID_8_)" fill="#FFFFFF" d="M757.589,181.508c1.548-4.882,12.387-13.534,15.916-20.506
		c2.445-4.833,5.712-12.032,4.877-17.6c-0.646-4.306-2.985-1.569-5.575-0.201c-2.623,1.384-5.446,2.334-8.112,3.625
		c-4.403,2.131-8.841,4.047-13.345,5.944c-4.287,1.806-8.508,3.157-12.931,4.295c0.131,0.246,0.271,0.485,0.424,0.718"/>
	
		<path clip-path="url(#SVGID_8_)" fill="none" stroke="#010101" stroke-width="1.5" stroke-linecap="round" stroke-linejoin="round" stroke-miterlimit="22.926" d="
		M757.589,181.508c1.548-4.882,12.387-13.534,15.916-20.506c2.445-4.833,5.712-12.032,4.877-17.6
		c-0.646-4.306-2.985-1.569-5.575-0.201c-2.623,1.384-5.446,2.334-8.112,3.625c-4.403,2.131-8.841,4.047-13.345,5.944
		c-4.287,1.806-8.508,3.157-12.931,4.295c0.131,0.246,0.271,0.485,0.424,0.718"/>
</g>
<path fill="#FFFFFF" d="M685.545,153.745c2.969-1.718,6.096-3.26,9.354-4.647c2.924-1.244,6.247-1.867,9.681-2.075
	c5.271-0.32,10.798,0.341,15.509,1.239c11.226,2.139,21.7,7.102,28.307,16.764c3.288,4.808,6.363,8.364,8.594,13.725
	c1.615,3.883,3.188,7.401,4.343,11.49c2.903,10.272,5.478,20.211,3.676,30.869c-1.015,6.001-3.082,12.599-6.38,17.743
	c-4.149,6.474-11.973,9.476-16.385,15.723c-5.977,8.462,1.132,15.905,0.781,24.807c-0.005,0.12-0.01,0.24-0.015,0.36
	c1.39,6.753-0.747,16.073-3.268,22.064c-3.922,9.32-14.93,14.307-24.449,15.55c-5.117,0.668-9.798-0.317-14.726-1.907
	c-3.072-0.992-6.021-1.898-8.803-3.564c-7.703-4.613-13.135-11.334-13.779-20.727c-0.434-6.33,1.401-12.067,2.308-18.091
	c1.135-7.542-2.599-12.849-6.493-18.619c-4.916-7.282-10.091-14.266-15.281-21.36c-4.873-6.66-4.513-18.504-4.154-26.723
	c0.403-9.258,2.432-17.767,6.328-26.16C666.153,168.439,674.825,159.947,685.545,153.745"/>
<path fill="none" stroke="#010101" stroke-width="1.5" stroke-linecap="round" stroke-linejoin="round" stroke-miterlimit="22.926" d="
	M685.545,153.745c2.969-1.718,6.096-3.26,9.354-4.647c2.924-1.244,6.247-1.867,9.681-2.075c5.271-0.32,10.798,0.341,15.509,1.239
	c11.226,2.139,21.7,7.102,28.307,16.764c3.288,4.808,6.363,8.364,8.594,13.725c1.615,3.883,3.188,7.401,4.343,11.49
	c2.903,10.272,5.478,20.211,3.676,30.869c-1.015,6.001-3.082,12.599-6.38,17.743c-4.149,6.474-11.973,9.476-16.385,15.723
	c-5.977,8.462,1.132,15.905,0.781,24.807c-0.005,0.12-0.01,0.24-0.015,0.36c1.39,6.753-0.747,16.073-3.268,22.064
	c-3.922,9.32-14.93,14.307-24.449,15.55c-5.117,0.668-9.798-0.317-14.726-1.907c-3.072-0.992-6.021-1.898-8.803-3.564
	c-7.703-4.613-13.135-11.334-13.779-20.727c-0.434-6.33,1.401-12.067,2.308-18.091c1.135-7.542-2.599-12.849-6.493-18.619
	c-4.916-7.282-10.091-14.266-15.281-21.36c-4.873-6.66-4.513-18.504-4.154-26.723c0.403-9.258,2.432-17.767,6.328-26.16
	C666.153,168.439,674.825,159.947,685.545,153.745z"/>
<g>
	<defs>
		<rect id="SVGID_9_" x="639.078" y="140.327" width="41.597" height="41.931"/>
	</defs>
	<clipPath id="SVGID_10_">
		<use xlink:href="#SVGID_9_"  overflow="visible"/>
	</clipPath>
	<path clip-path="url(#SVGID_10_)" fill="#FFFFFF" d="M660.754,181.507c-1.548-4.882-12.387-13.534-15.916-20.506
		c-2.445-4.833-5.712-12.032-4.877-17.6c0.646-4.306,2.985-1.569,5.575-0.201c2.623,1.384,5.446,2.334,8.112,3.625
		c4.402,2.131,8.841,4.047,13.345,5.944c4.287,1.806,8.508,3.157,12.931,4.295c-0.131,0.246-0.271,0.485-0.424,0.718"/>
	
		<path clip-path="url(#SVGID_10_)" fill="none" stroke="#010101" stroke-width="1.5" stroke-linecap="round" stroke-linejoin="round" stroke-miterlimit="22.926" d="
		M660.754,181.507c-1.548-4.882-12.387-13.534-15.916-20.506c-2.445-4.833-5.712-12.032-4.877-17.6
		c0.646-4.306,2.985-1.569,5.575-0.201c2.623,1.384,5.446,2.334,8.112,3.625c4.402,2.131,8.841,4.047,13.345,5.944
		c4.287,1.806,8.508,3.157,12.931,4.295c-0.131,0.246-0.271,0.485-0.424,0.718"/>
</g>
<path fill="#FFFFFF" d="M702.908,234.146c0-13.028-10.562-23.589-23.589-23.589s-23.589,10.561-23.589,23.589
	c0,13.028,10.562,23.589,23.589,23.589S702.908,247.174,702.908,234.146"/>
<circle fill="none" stroke="#010101" stroke-width="1.5" stroke-linecap="round" stroke-linejoin="round" stroke-miterlimit="22.926" cx="679.319" cy="234.146" r="23.589"/>
<path d="M682.584,238.971c-2.34,1.677-5.47,0.022-5.936-2.714c-0.602-3.548,4.365-5.515,6.645-2.869
	C684.667,234.982,684.309,237.733,682.584,238.971"/>
<path fill="none" stroke="#000000" stroke-miterlimit="10" d="M682.584,238.971c-2.34,1.677-5.47,0.022-5.936-2.714
	c-0.602-3.548,4.365-5.515,6.645-2.869C684.667,234.982,684.309,237.733,682.584,238.971z"/>
<path fill="#FFFFFF" d="M680.344,234.531c-0.146-0.526-0.69-0.923-1.41-0.726c-1.453,0.399-0.955,2.537,0.556,2.246
	C680.177,235.918,680.51,235.13,680.344,234.531"/>
<line fill="none" stroke="#010101" stroke-width="1.5" stroke-linecap="round" stroke-linejoin="round" stroke-miterlimit="22.926" x1="694.631" y1="216.21" x2="699.321" y2="211.386"/>
<line fill="none" stroke="#010101" stroke-width="1.5" stroke-linecap="round" stroke-linejoin="round" stroke-miterlimit="22.926" x1="661.352" y1="218.871" x2="656.75" y2="214.644"/>
<path fill="#FFFFFF" d="M658.952,211.84c2.743-3.719,7.647-6.201,10.578-9.971c2.345-3.017,4.58-6.27,6.153-9.71
	c0.609-1.332,2.055-3.623,0.5-4.615c-1.32-0.843-4.875,1.055-6.064,1.588c-4.176,1.87-7.852,4.565-11.688,6.961
	c-0.98,0.612-11.901,5.597-11.889,5.405c0.827-11.78,6.024-22.903,13.819-32.44c0,0,0.685-0.838,1.641-2.008
	c-3.681,3.406-8.923,3.184-13.435,5.868c5.729-14.16,22.729-24.103,36.991-29.302c8.486-3.094,18.551-5.663,27.716-4.142
	c10.024,1.664,19.887,4.782,28.635,10.027c8.48,5.083,17.676,12.868,21.73,22.098c2.036,4.632,2.956,9.7,2.882,14.75
	c-0.037,2.56-0.327,5.115-0.837,7.624c-0.215,1.059-2.597,6.869-2.213,7.486c-3.639-5.854-7.387-12.104-10.153-18.273
	c-3.121,3.652-6.536,7.867-10.508,10.847c-3.644,2.734-7.674,4.964-11.825,6.935c-2.714,1.288-6.352,3.669-9.454,3.431
	c1.287-3.553,3.528-6.654,4.241-10.437c0.536-2.839,3.111-11.808,0.583-13.869c-5.515,5.733-9.735,12.351-16.167,17.477
	c-5.628,4.486-10.756,8.239-17.541,11.117c-10.24,4.343-22.816,8.008-33.978,3.552C658.762,212.104,658.855,211.972,658.952,211.84"
	/>
<path fill="none" stroke="#010101" stroke-width="1.5" stroke-linecap="round" stroke-linejoin="round" stroke-miterlimit="22.926" d="
	M658.952,211.84c2.743-3.719,7.647-6.201,10.578-9.971c2.345-3.017,4.58-6.27,6.153-9.71c0.609-1.332,2.055-3.623,0.5-4.615
	c-1.32-0.843-4.875,1.055-6.064,1.588c-4.176,1.87-7.852,4.565-11.688,6.961c-0.98,0.612-11.901,5.597-11.889,5.405
	c0.827-11.78,6.024-22.903,13.819-32.44c0,0,0.685-0.838,1.641-2.008c-3.681,3.406-8.923,3.184-13.435,5.868
	c5.729-14.16,22.729-24.103,36.991-29.302c8.486-3.094,18.551-5.663,27.716-4.142c10.024,1.664,19.887,4.782,28.635,10.027
	c8.48,5.083,17.676,12.868,21.73,22.098c2.036,4.632,2.956,9.7,2.882,14.75c-0.037,2.56-0.327,5.115-0.837,7.624
	c-0.215,1.059-2.597,6.869-2.213,7.486c-3.639-5.854-7.387-12.104-10.153-18.273c-3.121,3.652-6.536,7.867-10.508,10.847
	c-3.644,2.734-7.674,4.964-11.825,6.935c-2.714,1.288-6.352,3.669-9.454,3.431c1.287-3.553,3.528-6.654,4.241-10.437
	c0.536-2.839,3.111-11.808,0.583-13.869c-5.515,5.733-9.735,12.351-16.167,17.477c-5.628,4.486-10.756,8.239-17.541,11.117
	c-10.24,4.343-22.816,8.008-33.978,3.552C658.762,212.104,658.855,211.972,658.952,211.84z"/>
<path fill="#FFFFFF" d="M705.923,42.451c-0.039,0.353-0.062,0.671-0.094,0.893c-0.839,6.077-1.17,12.316-1.482,18.46
	c-0.323,6.376-0.729,12.909-1.757,19.218c-0.664,4.071-0.95,8.211-1.22,12.336c-0.078,1.198-0.2,2.392-0.335,3.585
	c-2.087,18.56-4.963,37.018-7.785,55.477c-0.714,4.668-1.425,9.336-2.118,14.007c-0.375,2.524-0.828,6.606-0.828,6.606
	s0.611,2.896,1.909,4.399c7.808,9.031,23.821,10.34,30.563-0.358c1.117-1.774,2.535-5.696,2.535-5.696s-1.117-6.532-1.574-9.436
	c-0.636-4.036-1.13-7.998-1.931-12.021c-2.887-14.514-3.742-29.758-5.65-44.47c-2.304-17.829-5.812-36.026-6.156-54.001
	c-0.037-1.943-0.289-3.916-0.537-5.833c-0.185-1.429-0.22-3.158-0.957-4.438C707.2,38.912,706.143,40.461,705.923,42.451"/>
<path fill="none" stroke="#010101" stroke-width="1.5" stroke-linecap="round" stroke-linejoin="round" stroke-miterlimit="22.926" d="
	M705.923,42.451c-0.039,0.353-0.062,0.671-0.094,0.893c-0.839,6.077-1.17,12.316-1.482,18.46
	c-0.323,6.376-0.729,12.909-1.757,19.218c-0.664,4.071-0.95,8.211-1.22,12.336c-0.078,1.198-0.2,2.392-0.335,3.585
	c-2.087,18.56-4.963,37.018-7.785,55.477c-0.714,4.668-1.425,9.336-2.118,14.007c-0.375,2.524-0.828,6.606-0.828,6.606
	s0.611,2.896,1.909,4.399c7.808,9.031,23.821,10.34,30.563-0.358c1.117-1.774,2.535-5.696,2.535-5.696s-1.117-6.532-1.574-9.436
	c-0.636-4.036-1.13-7.998-1.931-12.021c-2.887-14.514-3.742-29.758-5.65-44.47c-2.304-17.829-5.812-36.026-6.156-54.001
	c-0.037-1.943-0.289-3.916-0.537-5.833c-0.185-1.429-0.22-3.158-0.957-4.438C707.2,38.912,706.143,40.461,705.923,42.451z"/>
<path fill="#FFFFFF" d="M764.41,234.146c0-13.028-10.562-23.589-23.589-23.589c-13.028,0-23.59,10.561-23.59,23.589
	c0,13.028,10.562,23.589,23.59,23.589C753.849,257.735,764.41,247.174,764.41,234.146"/>
<circle fill="none" stroke="#010101" stroke-width="1.5" stroke-linecap="round" stroke-linejoin="round" stroke-miterlimit="22.926" cx="740.821" cy="234.146" r="23.589"/>
<path d="M744.477,236.933c-0.412,1.221-1.336,2.269-2.591,2.602c-2.737,0.727-5.799-2.278-4.745-5.075
	c0.856-2.866,5.113-3.403,6.851-1.166C744.788,234.319,744.889,235.712,744.477,236.933"/>
<path fill="none" stroke="#000000" stroke-miterlimit="10" d="M744.477,236.933c-0.412,1.221-1.336,2.269-2.591,2.602
	c-2.737,0.727-5.799-2.278-4.745-5.075c0.856-2.866,5.113-3.403,6.851-1.166C744.788,234.319,744.889,235.712,744.477,236.933z"/>
<path fill="#FFFFFF" d="M739.193,233.88c0.387-0.29,0.935-0.375,1.349-0.1c0.567,0.379,0.644,1.24,0.177,1.73
	c-0.36,0.38-0.994,0.461-1.438,0.186c-0.297-0.183-0.487-0.512-0.53-0.855C738.702,234.448,738.881,234.117,739.193,233.88"/>
<line fill="none" stroke="#010101" stroke-width="1.5" stroke-linecap="round" stroke-linejoin="round" stroke-miterlimit="22.926" x1="725.507" y1="216.21" x2="720.27" y2="211.386"/>
<line fill="none" stroke="#010101" stroke-width="1.5" stroke-linecap="round" stroke-linejoin="round" stroke-miterlimit="22.926" x1="740.821" y1="210.557" x2="741.024" y2="202.533"/>
<line fill="none" stroke="#010101" stroke-width="1.5" stroke-linecap="round" stroke-linejoin="round" stroke-miterlimit="22.926" x1="757.159" y1="217.14" x2="763.774" y2="211.386"/>
<path fill="none" stroke="#010101" stroke-width="1.5" stroke-linecap="round" stroke-linejoin="round" stroke-miterlimit="22.926" d="
	M680,277.283c1.896-4.028,6.531-9.084,10.627-11.012c4.342-2.043,9.016-0.075,13.261,1.213c4.39,1.331,8.879,1.503,13.073-0.626
	c2.453-1.245,5.339-2.248,8.118-2.166c1.235,0.036,2.58,0.331,3.765,0.681c2.619,0.773,5.09,1.998,7.114,3.858
	c2.779,2.553,5.123,6.204,6.7,9.608c-0.068,0.051-0.12,0.116-0.158,0.194"/>
<path fill="none" stroke="#010101" stroke-width="1.5" stroke-linecap="round" stroke-linejoin="round" stroke-miterlimit="22.926" d="
	M720.545,179.871c-8.973-10.313-18.454-17.061-27.021-27.607"/>
<path fill="none" stroke="#010101" stroke-width="1.5" stroke-linecap="round" stroke-linejoin="round" stroke-miterlimit="22.926" d="
	M696.327,132.157c6.386,7.333,13.192,13.768,19.852,20.874c2.29,2.443,4.326,5.289,7.017,7.781"/>
<path fill="none" stroke="#010101" stroke-width="1.5" stroke-linecap="round" stroke-linejoin="round" stroke-miterlimit="22.926" d="
	M699.048,116.16c2.814,2.158,4.824,3.876,5.886,4.881c1.799,1.704,2.145,2.097,3.858,3.887c3.729,3.895,7.175,8.042,10.622,12.176"
	/>
<path fill="none" stroke="#010101" stroke-width="1.5" stroke-linecap="round" stroke-linejoin="round" stroke-miterlimit="22.926" d="
	M700.876,102.283c2.252,1.938,7.443,7.877,9.737,10.195c0.855,0.864,5.13,5.293,7.11,6.805"/>
<path fill="none" stroke="#010101" stroke-width="1.5" stroke-linecap="round" stroke-linejoin="round" stroke-miterlimit="22.926" d="
	M702.25,89.283c2.806,2.824,4.395,3.545,7.05,6.389c1.415,1.517,4.459,4.598,6.144,5.768"/>
<path fill="none" stroke="#010101" stroke-width="1.5" stroke-linecap="round" stroke-linejoin="round" stroke-miterlimit="22.926" d="
	M702.965,78.512c4.011,2.708,7.041,6.143,10.729,9.195"/>
<path fill="none" stroke="#010101" stroke-width="1.5" stroke-linecap="round" stroke-linejoin="round" stroke-miterlimit="22.926" d="
	M704,66.783c1.982,1.216,2.927,2.613,4.329,3.952c0.589,0.561,1.938,1.465,3.392,2.915"/>
<path fill="none" stroke="#010101" stroke-width="1.5" stroke-linecap="round" stroke-linejoin="round" stroke-miterlimit="22.926" d="
	M705.25,54.033c1.643,1.269,3.079,3.849,5.153,6.235"/>
<path fill="none" stroke="#010101" stroke-width="1.5" stroke-linecap="round" stroke-linejoin="round" stroke-miterlimit="22.926" d="
	M698.875,280.908c-1.66,1.263-2.673,6.427,0.015,7.264c2.54,0.791,3.503-2.433,3.36-4.289c-0.078-1.003-0.241-2.298-1.172-2.903
	C699.24,279.785,698.559,281.604,698.875,280.908z"/>
<path fill="none" stroke="#010101" stroke-width="1.5" stroke-linecap="round" stroke-linejoin="round" stroke-miterlimit="22.926" d="
	M722.619,280.908c1.66,1.263,2.673,6.427-0.015,7.264c-2.54,0.791-3.503-2.433-3.36-4.289c0.078-1.003,0.241-2.298,1.172-2.903
	C722.254,279.785,722.936,281.604,722.619,280.908z"/>
<path fill="none" stroke="#010101" stroke-width="1.5" stroke-linecap="round" stroke-linejoin="round" stroke-miterlimit="22.926" d="
	M723.888,299.178L723.888,299.178c0,6.959-5.642,12.6-12.601,12.6h0.022c-6.959,0-12.6-5.641-12.6-12.6"/>
<g>
	<defs>
		<rect id="SVGID_11_" x="38.054" y="399.383" width="182.28" height="239.653"/>
	</defs>
	<clipPath id="SVGID_12_">
		<use xlink:href="#SVGID_11_"  overflow="visible"/>
	</clipPath>
	<path clip-path="url(#SVGID_12_)" fill="#FFFFFF" d="M184.285,525.204c1,0.52,2.006,1.027,3.019,1.521
		c5.331,2.602,10.494,4.705,16.208,6.095c3.317,0.806,10.287,2.331,11.618,6.084c1.188,3.359-0.016,9.352-0.008,12.903
		c0.016,7.46-0.839,15.322,0.13,22.667c0.767,5.814,1.815,11.667,2.641,17.5c0.89,6.275,2.067,12.445,1.575,18.716
		c-0.193,2.452,0.571,7.451-0.372,9.613c-1.667,3.824-8.712,6.028-12.228,7.59c-5.775,2.568-12.078,3.532-18.065,5.455
		c-13.29,4.269-37.85,8.096-50.609,0.973c3.327-3.143,7.09-5.799,11.019-8.133c1.939-1.152,3.933-2.194,5.934-3.232
		c1.332-0.692,2.799-1.122,4.222-1.581c-2.325,0.276-4.57,1.086-6.927,1.195c-5.053,0.234-10.2,0.169-15.24-0.317
		c-8.965-0.864-17.292-3.847-25.76-6.647c-3.782-1.251-7.305-2.52-10.903-4.226c-5.116-2.425-9.811-4.667-13.986-8.638
		c0.428,0.407,6.153-1.102,7.033-1.209c2.492-0.305,4.995-0.504,7.496-0.707c5.014-0.406,10.381-0.562,15.221-2.025
		c-0.903-0.792-2.325-0.889-3.34-1.571c-1.305-0.879-2.606-1.76-3.906-2.645c-3.581-2.436-7.155-4.884-10.677-7.404
		c-5.297-3.791-10.46-7.765-15.624-11.727c-3.581-2.748-7.092-5.59-10.475-8.58c-1.742-1.539-3.45-3.116-5.12-4.734
		c-1.425-1.381-3.712-3.057-4.544-4.815c0.829-0.038,1.626,0.275,2.469,0.336c1.267,0.091,2.511,0.084,3.776,0.037
		c2.858-0.107,5.86-0.257,8.697-0.537c2.461-0.243,4.916-0.075,7.417-0.198c-2.493-1.498-4.744-3.388-7.215-4.919
		c-3.11-1.927-6.448-3.578-9.179-6.053c-5.035-4.562-9.82-9.434-14.492-14.352c-5.863-6.17-11.51-12.653-14.879-20.479
		c8.191,0.285,18.427,5.014,26.863,5.998c-5.944-6.701-18.336-25.156-18.095-38.261c-0.006,0.34,5.706,3.282,6.335,3.696
		c2.293,1.508,4.529,3.104,6.844,4.577c4.8,3.056,9.248,4.612,14.761,5.675c-7.371-5.667-12.849-13.631-16.137-22.284
		c-1.659-4.365-2.774-8.945-3.257-13.594c-0.464-4.464,0.36-8.797,0.171-13.203c0.104,2.434,3.191,5.696,4.525,7.624
		c1.982,2.864,4.095,5.638,6.329,8.311c6.473,7.744,13.752,14.328,22.205,19.824c-0.91-0.593-1.211-3.052-1.578-4.016
		c-0.745-1.956-1.461-3.924-2.146-5.901c-1.328-3.832-2.542-7.704-3.64-11.608c-1.647-5.851-3.034-11.775-4.155-17.748
		c-0.527-2.803-0.944-5.607-1.333-8.428c-0.203-1.475-0.403-2.949-0.591-4.427c-0.114-0.896,0.029-3.8-0.541-4.44
		c2.792,2.431,4.427,5.55,6.35,8.639c2.115,3.398,4.348,6.723,6.695,9.964c6.798,9.393,15.261,17.351,22.129,26.651
		c-12.078-19.283-19.708-46.9-8.684-68.484c-0.918,1.797,1.857,6.204,2.514,7.799c1.4,3.4,2.78,6.807,4.142,10.222
		c2.521,6.323,4.886,12.704,7.365,19.042c1.125,2.877,2.341,5.726,3.551,8.57c0.628,1.476,1.265,2.947,1.911,4.415
		c0.493,1.118,1.97,3.194,1.97,4.39c7.903,17.277,17.393,34.101,30.259,48.202C162.574,511.791,172.996,519.33,184.285,525.204"/>
	<path clip-path="url(#SVGID_12_)" fill="none" stroke="#000000" stroke-width="1.5" stroke-miterlimit="10" d="M184.285,525.204
		c1,0.52,2.006,1.027,3.019,1.521c5.331,2.602,10.494,4.705,16.208,6.095c3.317,0.806,10.287,2.331,11.618,6.084
		c1.188,3.359-0.016,9.352-0.008,12.903c0.016,7.46-0.839,15.322,0.13,22.667c0.767,5.814,1.815,11.667,2.641,17.5
		c0.89,6.275,2.067,12.445,1.575,18.716c-0.193,2.452,0.571,7.451-0.372,9.613c-1.667,3.824-8.712,6.028-12.228,7.59
		c-5.775,2.568-12.078,3.532-18.065,5.455c-13.29,4.269-37.85,8.096-50.609,0.973c3.327-3.143,7.09-5.799,11.019-8.133
		c1.939-1.152,3.933-2.194,5.934-3.232c1.332-0.692,2.799-1.122,4.222-1.581c-2.325,0.276-4.57,1.086-6.927,1.195
		c-5.053,0.234-10.2,0.169-15.24-0.317c-8.965-0.864-17.292-3.847-25.76-6.647c-3.782-1.251-7.305-2.52-10.903-4.226
		c-5.116-2.425-9.811-4.667-13.986-8.638c0.428,0.407,6.153-1.102,7.033-1.209c2.492-0.305,4.995-0.504,7.496-0.707
		c5.014-0.406,10.381-0.562,15.221-2.025c-0.903-0.792-2.325-0.889-3.34-1.571c-1.305-0.879-2.606-1.76-3.906-2.645
		c-3.581-2.436-7.155-4.884-10.677-7.404c-5.297-3.791-10.46-7.765-15.624-11.727c-3.581-2.748-7.092-5.59-10.475-8.58
		c-1.742-1.539-3.45-3.116-5.12-4.734c-1.425-1.381-3.712-3.057-4.544-4.815c0.829-0.038,1.626,0.275,2.469,0.336
		c1.267,0.091,2.511,0.084,3.776,0.037c2.858-0.107,5.86-0.257,8.697-0.537c2.461-0.243,4.916-0.075,7.417-0.198
		c-2.493-1.498-4.744-3.388-7.215-4.919c-3.11-1.927-6.448-3.578-9.179-6.053c-5.035-4.562-9.82-9.434-14.492-14.352
		c-5.863-6.17-11.51-12.653-14.879-20.479c8.191,0.285,18.427,5.014,26.863,5.998c-5.944-6.701-18.336-25.156-18.095-38.261
		c-0.006,0.34,5.706,3.282,6.335,3.696c2.293,1.508,4.529,3.104,6.844,4.577c4.8,3.056,9.248,4.612,14.761,5.675
		c-7.371-5.667-12.849-13.631-16.137-22.284c-1.659-4.365-2.774-8.945-3.257-13.594c-0.464-4.464,0.36-8.797,0.171-13.203
		c0.104,2.434,3.191,5.696,4.525,7.624c1.982,2.864,4.095,5.638,6.329,8.311c6.473,7.744,13.752,14.328,22.205,19.824
		c-0.91-0.593-1.211-3.052-1.578-4.016c-0.745-1.956-1.461-3.924-2.146-5.901c-1.328-3.832-2.542-7.704-3.64-11.608
		c-1.647-5.851-3.034-11.775-4.155-17.748c-0.527-2.803-0.944-5.607-1.333-8.428c-0.203-1.475-0.403-2.949-0.591-4.427
		c-0.114-0.896,0.029-3.8-0.541-4.44c2.792,2.431,4.427,5.55,6.35,8.639c2.115,3.398,4.348,6.723,6.695,9.964
		c6.798,9.393,15.261,17.351,22.129,26.651c-12.078-19.283-19.708-46.9-8.684-68.484c-0.918,1.797,1.857,6.204,2.514,7.799
		c1.4,3.4,2.78,6.807,4.142,10.222c2.521,6.323,4.886,12.704,7.365,19.042c1.125,2.877,2.341,5.726,3.551,8.57
		c0.628,1.476,1.265,2.947,1.911,4.415c0.493,1.118,1.97,3.194,1.97,4.39c7.903,17.277,17.393,34.101,30.259,48.202
		C162.574,511.791,172.996,519.33,184.285,525.204z"/>
	<path clip-path="url(#SVGID_12_)" fill="none" stroke="#000000" stroke-width="1.5" stroke-miterlimit="10" d="M219.158,600.997
		c-1.405,11.173-29.418,14.346-39.857,11.852c4.083-2.085,7.706-4.921,10.967-8.125c1.603-1.575,3.124-3.232,4.612-4.916
		c1.219-1.38,2.843-3.383,4.041-4.402c-1.198,1.02-2.985,2.249-4.533,3.04c-8.062,4.12-18.049,3.074-26.437,0.596
		c-8.21-2.426-16.849-6.646-22.486-13.277c13.404-0.518,32.942-2.39,45.296-8.128c-20.781,0.381-51.961-9.82-58.707-32.657
		c15.837,3.901,29.867,7.489,46.281,8.068c-11.405-0.082-22.633-13.716-29.594-21.35c-7.198-7.896-12.466-15.292-15.822-25.46
		c13.431,10.493,32.305,18.366,49.304,17.68"/>
	<path clip-path="url(#SVGID_12_)" fill="none" stroke="#000000" stroke-width="1.5" stroke-miterlimit="10" d="M76.122,492.985
		c6.222,5.238,11.924,13.294,17.719,19.331c6.727,7.008,13.719,13.734,21.184,19.979c5.113,4.275,10.332,10.691,17.029,12.684"/>
	<path clip-path="url(#SVGID_12_)" fill="none" stroke="#000000" stroke-width="1.5" stroke-miterlimit="10" d="M110.504,467.615
		c3.805,6.975,7.208,17.312,12.201,24.439c3.315,4.73,6.617,9.607,10.167,14.183"/>
	<path clip-path="url(#SVGID_12_)" fill="none" stroke="#000000" stroke-width="1.5" stroke-miterlimit="10" d="M148.399,531.321
		c-15.176-0.38-34.041-20.648-43.699-32.01c-5.31-6.244-9.446-14.905-15.528-20.173"/>
	<path clip-path="url(#SVGID_12_)" fill="none" stroke="#000000" stroke-width="1.5" stroke-miterlimit="10" d="M84.789,556.985
		c4.763,2.167,8.907,5.104,13.293,7.94c10.657,6.893,22.181,12.363,34.115,16.652c2.878,1.034,5.688,2.224,8.638,3.066
		c1.527,0.438,3.07,0.817,4.63,1.119"/>
	<path clip-path="url(#SVGID_12_)" fill="none" stroke="#000000" stroke-width="1.5" stroke-miterlimit="10" d="M116.304,598.801
		c14.777,3.02,39.518,7.326,54.292,0.952"/>
	<path clip-path="url(#SVGID_12_)" fill="none" stroke="#000000" stroke-width="1.5" stroke-miterlimit="10" d="M159.37,621.375
		c8.772,0.567,20.418-5,26.834-7.75"/>
	<path clip-path="url(#SVGID_12_)" fill="none" stroke="#000000" stroke-width="1.5" stroke-miterlimit="10" d="M66.074,517.157
		c9.774,8.351,19.363,17.036,29.674,24.736c8.147,6.084,17.122,10.98,26.445,15.006c4.613,1.991,9.314,3.772,14.068,5.398
		c4.593,1.571,10.058,2.399,14.369,4.573"/>
</g>
<path d="M376.373,49.086c20.217-9.423,84.304-9.677,105.375-0.868c-4.161,38.794-8.352,77.865-12.593,117.411
	c19.453,4.214,26.262-8.984,33.37-22.035c3.354,2.812,3.051,6.054,2.627,9.309c-1.092,8.369-5.207,15.247-10.753,21.352
	c-7.869,8.661-17.703,14.351-28.763,17.704c-24.382,7.393-48.902,7.405-73.294,0.038c-10.55-3.186-19.987-8.547-27.767-16.533
	c-5.396-5.54-9.482-11.895-11.34-19.447c-0.996-4.049-1.921-8.304,1.907-12.52c7.389,12.869,13.969,26.578,33.488,22.075
	C384.523,126.537,380.442,87.756,376.373,49.086"/>
<path d="M426.709,261.384c3.356-3.268,6.875-2.364,10.365-0.073c1.203,0.79,2.367,1.646,3.496,2.539
	c8.419,6.661,12.664,7.068,22.535,1.66c-0.434,1.627-0.521,2.829-1.049,3.787c-2.729,4.943-7.082,7.735-12.506,8.871
	c-8.301,1.739-15.539-0.191-22.931-6.013c-7.863,6.457-16.733,8.334-26.417,4.981c-5.836-2.022-9.038-5.972-10.267-12.023
	c4.036,2.984,8.232,5.016,12.962,3.86c2.709-0.662,5.253-2.203,7.709-3.628c1.923-1.116,3.518-2.782,5.395-3.993
	C420.327,258.561,421.979,258.608,426.709,261.384"/>
<path fill="#FFFFFF" d="M493.21,266.338c0-1.786,1.448-3.234,3.234-3.234c1.787,0,3.235,1.448,3.235,3.234
	c0,1.786-1.448,3.234-3.235,3.234C494.658,269.572,493.21,268.124,493.21,266.338"/>
<circle fill="none" stroke="#000000" stroke-width="3" stroke-linecap="round" stroke-linejoin="round" stroke-miterlimit="22.926" cx="496.445" cy="266.338" r="3.235"/>
<path fill="#FFFFFF" d="M391.532,165.831l-1.597-17.049c26.293,2.495,52.304,2.395,78.065,0l-1.869,17.049
	C440.669,168.027,415.824,167.95,391.532,165.831"/>
<path fill="#FFFFFF" d="M225.908,183.558c0,1.49-0.05,2.97-0.14,4.43c-39.402,4.776-78.696,4.677-117.89,0
	c-0.09-1.46-0.14-2.94-0.14-4.43c0-35.54,26.45-64.35,59.08-64.35C199.448,119.208,225.908,148.018,225.908,183.558"/>
<path fill="none" stroke="#000000" stroke-width="1.5" stroke-linecap="round" stroke-linejoin="round" stroke-miterlimit="22.926" d="
	M225.908,183.558c0,1.49-0.05,2.97-0.14,4.43c-39.402,4.776-78.696,4.677-117.89,0c-0.09-1.46-0.14-2.94-0.14-4.43
	c0-35.54,26.45-64.35,59.08-64.35C199.448,119.208,225.908,148.018,225.908,183.558z"/>
<path fill="#FFFFFF" d="M241.461,118.443c0-2.08-16.175-3.765-36.128-3.765s-36.129,1.685-36.129,3.765s16.176,3.765,36.129,3.765
	S241.461,120.523,241.461,118.443"/>
<ellipse fill="none" stroke="#000000" stroke-width="1.5" stroke-linecap="round" stroke-linejoin="round" stroke-miterlimit="22.926" cx="205.333" cy="118.443" rx="36.128" ry="3.765"/>
<path fill="#FFFFFF" d="M161.461,118.443c0-2.08-16.175-3.765-36.128-3.765s-36.129,1.685-36.129,3.765s16.176,3.765,36.129,3.765
	S161.461,120.523,161.461,118.443"/>
<ellipse fill="none" stroke="#000000" stroke-width="1.5" stroke-linecap="round" stroke-linejoin="round" stroke-miterlimit="22.926" cx="125.333" cy="118.443" rx="36.128" ry="3.765"/>
<path fill="#FFFFFF" d="M172.488,117.562c0,3.774-3.059,6.833-6.833,6.833s-6.834-3.059-6.834-6.833s3.06-6.833,6.834-6.833
	S172.488,113.788,172.488,117.562"/>
<circle fill="none" stroke="#000000" stroke-width="1.5" stroke-linecap="round" stroke-linejoin="round" stroke-miterlimit="22.926" cx="165.654" cy="117.562" r="6.833"/>
<path fill="#FFFFFF" d="M132.154,189.988c1.074-22.791,8.641-48.037,27.692-68.84"/>
<path fill="none" stroke="#000000" stroke-width="1.5" stroke-linecap="round" stroke-linejoin="round" stroke-miterlimit="22.926" d="
	M132.154,189.988c1.074-22.791,8.641-48.037,27.692-68.84"/>
<path fill="#FFFFFF" d="M172.488,121.147c21.762,19.665,31.035,44.747,29.833,68.84"/>
<path fill="none" stroke="#000000" stroke-width="1.5" stroke-linecap="round" stroke-linejoin="round" stroke-miterlimit="22.926" d="
	M172.488,121.147c21.762,19.665,31.035,44.747,29.833,68.84"/>
<path fill="#FFFFFF" d="M161.967,120.141c-2.766,4.096-7.33,23.583,3.27,23.583c10.601,0,6.036-19.487,3.271-23.583
	c-1.028-1.522-2.283-2.196-3.271-2.196C164.25,117.945,162.996,118.619,161.967,120.141"/>
<path fill="none" stroke="#000000" stroke-width="1.5" stroke-linecap="round" stroke-linejoin="round" stroke-miterlimit="22.926" d="
	M161.967,120.141c-2.766,4.096-7.33,23.583,3.27,23.583c10.601,0,6.036-19.487,3.271-23.583c-1.028-1.522-2.283-2.196-3.271-2.196
	C164.25,117.945,162.996,118.619,161.967,120.141z"/>
<rect y="0" fill="none" width="878.582" height="841.89"/>
</svg>
