<?xml version="1.0" encoding="utf-8"?>
<!-- Generator: Adobe Illustrator 15.1.0, SVG Export Plug-In . SVG Version: 6.00 Build 0)  -->
<!DOCTYPE svg PUBLIC "-//W3C//DTD SVG 1.1//EN" "http://www.w3.org/Graphics/SVG/1.1/DTD/svg11.dtd">
<svg version="1.1" id="Layer_1" xmlns="http://www.w3.org/2000/svg" xmlns:xlink="http://www.w3.org/1999/xlink" x="0px" y="0px"
	 width="843.173px" height="841.89px" viewBox="0 0 843.173 841.89" enable-background="new 0 0 843.173 841.89"
	 xml:space="preserve">
<g>
	<defs>
		<rect id="SVGID_1_" x="348.781" y="122.886" width="48.49" height="71.21"/>
	</defs>
	<clipPath id="SVGID_2_">
		<use xlink:href="#SVGID_1_"  overflow="visible"/>
	</clipPath>
	
		<rect x="349.794" y="146.013" clip-path="url(#SVGID_2_)" fill="none" stroke="#000000" stroke-width="1.5" stroke-linecap="round" stroke-linejoin="round" stroke-miterlimit="22.926" width="46.728" height="47.333"/>
	<path clip-path="url(#SVGID_2_)" fill="#FFFFFF" d="M396.521,147.136c0,10.68-7.12,19.69-16.87,22.54v19.3h-13.99v-19.53
		c-9.37-3.08-16.13-11.9-16.13-22.31c0-12.98,10.52-23.5,23.49-23.5C386.001,123.636,396.521,134.156,396.521,147.136"/>
	
		<path clip-path="url(#SVGID_2_)" fill="none" stroke="#010101" stroke-width="1.5" stroke-linecap="round" stroke-linejoin="round" stroke-miterlimit="22.926" d="
		M396.521,147.136c0,10.68-7.12,19.69-16.87,22.54v19.3h-13.99v-19.53c-9.37-3.08-16.13-11.9-16.13-22.31
		c0-12.98,10.52-23.5,23.49-23.5C386.001,123.636,396.521,134.156,396.521,147.136z"/>
</g>
<g>
	<defs>
		<rect id="SVGID_3_" x="420.979" y="122.136" width="48.488" height="71.21"/>
	</defs>
	<clipPath id="SVGID_4_">
		<use xlink:href="#SVGID_3_"  overflow="visible"/>
	</clipPath>
	
		<rect x="421.991" y="145.263" clip-path="url(#SVGID_4_)" fill="none" stroke="#000000" stroke-width="1.5" stroke-linecap="round" stroke-linejoin="round" stroke-miterlimit="22.926" width="46.728" height="47.333"/>
	<path clip-path="url(#SVGID_4_)" fill="#FFFFFF" d="M468.718,146.386c0,10.68-7.12,19.69-16.87,22.54v19.3h-13.989v-19.53
		c-9.37-3.08-16.129-11.9-16.129-22.31c0-12.98,10.519-23.5,23.488-23.5C458.199,122.886,468.718,133.406,468.718,146.386"/>
	
		<path clip-path="url(#SVGID_4_)" fill="none" stroke="#010101" stroke-width="1.5" stroke-linecap="round" stroke-linejoin="round" stroke-miterlimit="22.926" d="
		M468.718,146.386c0,10.68-7.12,19.69-16.87,22.54v19.3h-13.989v-19.53c-9.37-3.08-16.129-11.9-16.129-22.31
		c0-12.98,10.519-23.5,23.488-23.5C458.199,122.886,468.718,133.406,468.718,146.386z"/>
</g>
<path fill="#FFFFFF" d="M471.389,187.636h-125.56c-6.6,0-12,5.4-12,12v101.5c0,6.6,5.4,12,12,12h125.56c6.602,0,12-5.4,12-12v-101.5
	C483.389,193.036,477.99,187.636,471.389,187.636"/>
<path fill="none" stroke="#010101" stroke-width="1.5" stroke-linecap="round" stroke-linejoin="round" stroke-miterlimit="22.926" d="
	M471.389,187.636h-125.56c-6.6,0-12,5.4-12,12v101.5c0,6.6,5.4,12,12,12h125.56c6.602,0,12-5.4,12-12v-101.5
	C483.389,193.036,477.99,187.636,471.389,187.636z"/>
<path d="M373.194,238.851c-0.064,0-0.064,0.1,0,0.1S373.258,238.851,373.194,238.851"/>
<path fill="none" stroke="#010101" stroke-width="1.5" stroke-linecap="round" stroke-linejoin="round" stroke-miterlimit="22.926" d="
	M341.289,338.698h1.138c0.747-1.291,1.823-2.367,3.114-3.114v-1.138h4.252h4.252v1.138c1.291,0.747,2.367,1.823,3.114,3.114h1.138
	v4.252v4.252h-1.138c-0.747,1.291-1.823,2.367-3.114,3.114v1.138h-4.252h-4.252v-1.138c-1.291-0.747-2.367-1.823-3.114-3.114h-1.138
	v-4.252V338.698z"/>
<rect x="369.635" y="338.698" fill="none" stroke="#010101" stroke-width="1.5" stroke-linecap="round" stroke-linejoin="round" stroke-miterlimit="22.926" width="17.008" height="8.504"/>
<rect x="426.329" y="338.698" fill="none" stroke="#010101" stroke-width="1.5" stroke-linecap="round" stroke-linejoin="round" stroke-miterlimit="22.926" width="17.008" height="8.504"/>
<path fill="none" stroke="#010101" stroke-width="1.5" stroke-linecap="round" stroke-linejoin="round" stroke-miterlimit="22.926" d="
	M454.675,338.698h1.138c0.747-1.291,1.822-2.367,3.113-3.114v-1.138h4.253h4.253v1.138c1.289,0.747,2.365,1.823,3.113,3.114h1.139
	v4.252v4.252h-1.139c-0.748,1.291-1.824,2.367-3.113,3.114v1.138h-4.253h-4.253v-1.138c-1.291-0.747-2.366-1.823-3.113-3.114h-1.138
	v-4.252V338.698z"/>
<path fill="none" stroke="#010101" stroke-width="1.5" stroke-linecap="round" stroke-linejoin="round" stroke-miterlimit="22.926" d="
	M424.91,313.552v10.973h56.694v22.677c0,7.826-6.347,14.173-14.173,14.173H345.541c-7.826,0-14.173-6.347-14.173-14.173v-22.677
	h56.693v-10.973"/>
<path fill="none" stroke="#010101" stroke-width="1.5" stroke-linecap="round" stroke-linejoin="round" stroke-miterlimit="22.926" d="
	M397.982,338.698h1.138c0.747-1.291,1.823-2.367,3.114-3.114v-1.138h4.252h4.251v1.138c1.292,0.747,2.367,1.823,3.114,3.114h1.139
	v4.252v4.252h-1.139c-0.747,1.291-1.822,2.367-3.114,3.114v1.138h-4.251h-4.252v-1.138c-1.291-0.747-2.367-1.823-3.114-3.114h-1.138
	v-4.252V338.698z"/>
<g>
	<defs>
		<rect id="SVGID_5_" x="554.7" y="417.114" width="167.731" height="95.74"/>
	</defs>
	<clipPath id="SVGID_6_">
		<use xlink:href="#SVGID_5_"  overflow="visible"/>
	</clipPath>
	
		<path clip-path="url(#SVGID_6_)" fill="none" stroke="#000000" stroke-width="1.5" stroke-linecap="round" stroke-linejoin="round" stroke-miterlimit="22.926" d="
		M626.399,480.854c6.75,14.561,21.491,24.65,38.591,24.65h56.689l0.002-28.344h-63.605c-13.291-4.6-12.057-25.359,1-28.347h62.605
		l-0.002-28.35H664.99c-17.1,0-31.841,10.1-38.591,24.65"/>
	
		<path clip-path="url(#SVGID_6_)" fill="none" stroke="#010101" stroke-width="1.5" stroke-linecap="round" stroke-linejoin="round" stroke-miterlimit="22.926" d="
		M582.375,497.932h-1.139c-0.746,1.291-1.823,2.367-3.113,3.114v1.138h-4.252h-4.252v-1.138c-1.291-0.747-2.367-1.823-3.115-3.114
		h-1.138v-4.252v-4.252h1.138c0.748-1.291,1.824-2.367,3.115-3.114v-1.138h4.252h4.252v1.138c1.29,0.747,2.367,1.823,3.113,3.114
		h1.139v4.252V497.932z"/>
	
		<rect x="569.619" y="456.83" clip-path="url(#SVGID_6_)" fill="none" stroke="#010101" stroke-width="1.5" stroke-linecap="round" stroke-linejoin="round" stroke-miterlimit="22.926" width="8.504" height="17.008"/>
	
		<path clip-path="url(#SVGID_6_)" fill="none" stroke="#010101" stroke-width="1.5" stroke-linecap="round" stroke-linejoin="round" stroke-miterlimit="22.926" d="
		M582.375,441.239h-1.139c-0.746,1.291-1.823,2.366-3.113,3.113v1.139h-4.252h-4.252v-1.139c-1.291-0.747-2.367-1.822-3.115-3.113
		h-1.138v-4.252v-4.252h1.138c0.748-1.291,1.824-2.367,3.115-3.114v-1.139h4.252h4.252v1.139c1.29,0.747,2.367,1.823,3.113,3.114
		h1.139v4.252V441.239z"/>
	
		<path clip-path="url(#SVGID_6_)" fill="none" stroke="#000000" stroke-width="1.5" stroke-linecap="round" stroke-linejoin="round" stroke-miterlimit="22.926" d="
		M626.236,480.677c-6.166-12.832-5.789-24.534,0-35.186"/>
	
		<line clip-path="url(#SVGID_6_)" fill="none" stroke="#000000" stroke-width="1.5" stroke-linecap="round" stroke-linejoin="round" stroke-miterlimit="22.926" x1="603.236" y1="480.749" x2="603.236" y2="445.49"/>
	
		<line clip-path="url(#SVGID_6_)" fill="none" stroke="#000000" stroke-width="1.5" stroke-linecap="round" stroke-linejoin="round" stroke-miterlimit="22.926" x1="614.236" y1="480.749" x2="614.236" y2="445.49"/>
	
		<path clip-path="url(#SVGID_6_)" fill="none" stroke="#000000" stroke-width="1.5" stroke-linecap="round" stroke-linejoin="round" stroke-miterlimit="22.926" d="
		M626.399,481.414h-34.1v30.689h-22.679c-7.83,0-14.171-6.35-14.171-14.17v-65.89c0-7.83,6.341-14.18,14.171-14.18H592.3v26.7h34.1"
		/>
	
		<line clip-path="url(#SVGID_6_)" fill="none" stroke="#000000" stroke-width="1.5" stroke-linecap="round" stroke-linejoin="round" stroke-miterlimit="22.926" x1="592.3" y1="481.414" x2="592.3" y2="443.828"/>
	<g clip-path="url(#SVGID_6_)">
		<defs>
			<rect id="SVGID_7_" x="629.067" y="455.587" width="10.5" height="10.5"/>
		</defs>
		<clipPath id="SVGID_8_">
			<use xlink:href="#SVGID_7_"  overflow="visible"/>
		</clipPath>
		
			<circle clip-path="url(#SVGID_8_)" fill="none" stroke="#010101" stroke-width="1.5" stroke-linecap="round" stroke-linejoin="round" stroke-miterlimit="22.926" cx="634.317" cy="460.837" r="4.5"/>
	</g>
	
		<line clip-path="url(#SVGID_6_)" fill="none" stroke="#010101" stroke-width="1.5" stroke-linecap="round" stroke-linejoin="round" stroke-miterlimit="22.926" x1="708.816" y1="448.813" x2="708.816" y2="420.464"/>
	
		<line clip-path="url(#SVGID_6_)" fill="none" stroke="#010101" stroke-width="1.5" stroke-linecap="round" stroke-linejoin="round" stroke-miterlimit="22.926" x1="708.816" y1="477.16" x2="708.816" y2="505.504"/>
</g>
<g>
	<defs>
		<rect id="SVGID_9_" x="93.87" y="417.114" width="167.732" height="95.74"/>
	</defs>
	<clipPath id="SVGID_10_">
		<use xlink:href="#SVGID_9_"  overflow="visible"/>
	</clipPath>
	
		<path clip-path="url(#SVGID_10_)" fill="none" stroke="#000000" stroke-width="1.5" stroke-linecap="round" stroke-linejoin="round" stroke-miterlimit="22.926" d="
		M189.902,480.854c-6.75,14.56-21.49,24.649-38.59,24.649h-56.69L94.62,477.16h63.605c13.292-4.6,12.057-25.359-1-28.346H94.62
		l0.002-28.351h56.69c17.1,0,31.84,10.101,38.59,24.65"/>
	
		<path clip-path="url(#SVGID_10_)" fill="none" stroke="#010101" stroke-width="1.5" stroke-linecap="round" stroke-linejoin="round" stroke-miterlimit="22.926" d="
		M233.927,497.932h1.138c0.747,1.291,1.823,2.367,3.114,3.114v1.138h4.252h4.252v-1.138c1.291-0.747,2.367-1.823,3.114-3.114h1.138
		v-4.252v-4.252h-1.138c-0.747-1.291-1.823-2.367-3.114-3.113v-1.139h-4.252h-4.252v1.139c-1.291,0.746-2.367,1.822-3.114,3.113
		h-1.138v4.252V497.932z"/>
	
		<rect x="238.179" y="456.83" clip-path="url(#SVGID_10_)" fill="none" stroke="#010101" stroke-width="1.5" stroke-linecap="round" stroke-linejoin="round" stroke-miterlimit="22.926" width="8.504" height="17.008"/>
	
		<path clip-path="url(#SVGID_10_)" fill="none" stroke="#010101" stroke-width="1.5" stroke-linecap="round" stroke-linejoin="round" stroke-miterlimit="22.926" d="
		M233.927,441.239h1.138c0.747,1.291,1.823,2.367,3.114,3.114v1.138h4.252h4.252v-1.138c1.291-0.747,2.367-1.823,3.114-3.114h1.138
		v-4.252v-4.252h-1.138c-0.747-1.291-1.823-2.367-3.114-3.114v-1.138h-4.252h-4.252v1.138c-1.291,0.747-2.367,1.823-3.114,3.114
		h-1.138v4.252V441.239z"/>
	
		<path clip-path="url(#SVGID_10_)" fill="none" stroke="#000000" stroke-width="1.5" stroke-linecap="round" stroke-linejoin="round" stroke-miterlimit="22.926" d="
		M190.066,480.677c6.166-12.832,5.789-24.534,0-35.186"/>
	
		<line clip-path="url(#SVGID_10_)" fill="none" stroke="#000000" stroke-width="1.5" stroke-linecap="round" stroke-linejoin="round" stroke-miterlimit="22.926" x1="213.066" y1="480.749" x2="213.066" y2="445.49"/>
	
		<line clip-path="url(#SVGID_10_)" fill="none" stroke="#000000" stroke-width="1.5" stroke-linecap="round" stroke-linejoin="round" stroke-miterlimit="22.926" x1="202.066" y1="480.749" x2="202.066" y2="445.49"/>
	
		<path clip-path="url(#SVGID_10_)" fill="none" stroke="#000000" stroke-width="1.5" stroke-linecap="round" stroke-linejoin="round" stroke-miterlimit="22.926" d="
		M189.902,481.414h34.1v30.69h22.68c7.83,0,14.17-6.351,14.17-14.171v-65.89c0-7.83-6.34-14.18-14.17-14.18h-22.68v26.7h-34.1"/>
	
		<line clip-path="url(#SVGID_10_)" fill="none" stroke="#000000" stroke-width="1.5" stroke-linecap="round" stroke-linejoin="round" stroke-miterlimit="22.926" x1="224.002" y1="481.414" x2="224.002" y2="443.828"/>
	<g clip-path="url(#SVGID_10_)">
		<defs>
			<rect id="SVGID_11_" x="176.734" y="455.587" width="10.5" height="10.5"/>
		</defs>
		<clipPath id="SVGID_12_">
			<use xlink:href="#SVGID_11_"  overflow="visible"/>
		</clipPath>
		
			<circle clip-path="url(#SVGID_12_)" fill="none" stroke="#010101" stroke-width="1.5" stroke-linecap="round" stroke-linejoin="round" stroke-miterlimit="22.926" cx="181.985" cy="460.837" r="4.5"/>
	</g>
	
		<line clip-path="url(#SVGID_10_)" fill="none" stroke="#010101" stroke-width="1.5" stroke-linecap="round" stroke-linejoin="round" stroke-miterlimit="22.926" x1="107.485" y1="448.813" x2="107.485" y2="420.464"/>
	
		<line clip-path="url(#SVGID_10_)" fill="none" stroke="#010101" stroke-width="1.5" stroke-linecap="round" stroke-linejoin="round" stroke-miterlimit="22.926" x1="107.485" y1="477.16" x2="107.485" y2="505.504"/>
</g>
<path fill="none" stroke="#010101" stroke-width="1.5" stroke-linecap="round" stroke-linejoin="round" stroke-miterlimit="22.926" d="
	M471.682,628.296h-1.137c-0.748,1.291-1.824,2.367-3.115,3.114v1.138h-4.251h-4.253v-1.138c-1.289-0.747-2.367-1.823-3.113-3.114
	h-1.138v-4.252v-4.252h1.138c0.746-1.29,1.824-2.367,3.113-3.114v-1.138h4.253h4.251v1.138c1.291,0.747,2.367,1.824,3.115,3.114
	h1.137v4.252V628.296z"/>
<rect x="426.329" y="619.792" fill="none" stroke="#010101" stroke-width="1.5" stroke-linecap="round" stroke-linejoin="round" stroke-miterlimit="22.926" width="17.008" height="8.504"/>
<rect x="369.635" y="619.792" fill="none" stroke="#010101" stroke-width="1.5" stroke-linecap="round" stroke-linejoin="round" stroke-miterlimit="22.926" width="17.008" height="8.504"/>
<path fill="none" stroke="#010101" stroke-width="1.5" stroke-linecap="round" stroke-linejoin="round" stroke-miterlimit="22.926" d="
	M358.297,628.296h-1.138c-0.747,1.291-1.823,2.367-3.114,3.114v1.138h-4.252h-4.252v-1.138c-1.29-0.747-2.367-1.823-3.114-3.114
	h-1.138v-4.252v-4.252h1.138c0.747-1.29,1.824-2.367,3.114-3.114v-1.138h4.252h4.252v1.138c1.291,0.747,2.367,1.824,3.114,3.114
	h1.138v4.252V628.296z"/>
<path fill="none" stroke="#010101" stroke-width="1.5" stroke-linecap="round" stroke-linejoin="round" stroke-miterlimit="22.926" d="
	M414.99,628.296h-1.139c-0.747,1.291-1.822,2.367-3.114,3.114v1.138h-4.252h-4.252v-1.138c-1.29-0.747-2.367-1.823-3.114-3.114
	h-1.138v-4.252v-4.252h1.138c0.747-1.29,1.824-2.367,3.114-3.114v-1.138h4.252h4.252v1.138c1.292,0.747,2.367,1.824,3.114,3.114
	h1.139v4.252V628.296z"/>
<path fill="none" stroke="#231F20" stroke-width="1.5" stroke-linecap="round" stroke-linejoin="round" stroke-miterlimit="22.926" d="
	M509.95,658.056h-44.259v-15.59h15.909v-22.67c0-7.83-6.339-14.18-14.169-14.18H345.541c-7.83,0-14.17,6.35-14.17,14.18v22.67h16.69
	v14.18c0,0.471,0.02,0.95,0.07,1.41h-45.11c-15.65,0-28.35,12.7-28.35,28.35v28.351h124.28v-56.7h-14.11
	c0.05-0.46,0.07-0.939,0.07-1.41v-14.18h44.14v15.59h-14.06v56.7h123.31v-28.351C538.301,670.756,525.601,658.056,509.95,658.056z"
	/>
<path fill="none" stroke="#010101" stroke-width="1.5" stroke-linecap="round" stroke-linejoin="round" stroke-miterlimit="22.926" d="
	M446.021,275.386h-72.397c-6.6,0-12,5.4-12,12v4.75c0,6.6,5.4,12,12,12h72.397c6.601,0,12-5.4,12-12v-4.75
	C458.021,280.786,452.621,275.386,446.021,275.386z"/>
<line fill="none" stroke="#010101" stroke-width="1.5" stroke-linecap="round" stroke-linejoin="round" stroke-miterlimit="22.926" x1="379.771" y1="304.136" x2="379.771" y2="275.386"/>
<line fill="none" stroke="#010101" stroke-width="1.5" stroke-linecap="round" stroke-linejoin="round" stroke-miterlimit="22.926" x1="400.104" y1="304.136" x2="400.104" y2="275.386"/>
<line fill="none" stroke="#010101" stroke-width="1.5" stroke-linecap="round" stroke-linejoin="round" stroke-miterlimit="22.926" x1="420.438" y1="304.136" x2="420.438" y2="275.386"/>
<line fill="none" stroke="#010101" stroke-width="1.5" stroke-linecap="round" stroke-linejoin="round" stroke-miterlimit="22.926" x1="440.771" y1="304.136" x2="440.771" y2="275.386"/>
<circle fill="none" stroke="#010101" stroke-width="1.5" stroke-linecap="round" stroke-linejoin="round" stroke-miterlimit="22.926" cx="372.567" cy="237.479" r="30.094"/>
<circle fill="none" stroke="#010101" stroke-width="1.5" stroke-linecap="round" stroke-linejoin="round" stroke-miterlimit="22.926" cx="442.719" cy="237.479" r="30.094"/>
<line fill="none" stroke="#231F20" stroke-width="1.5" stroke-linecap="round" stroke-linejoin="round" stroke-miterlimit="22.926" x1="348.131" y1="658.056" x2="384.841" y2="658.056"/>
<line fill="none" stroke="#231F20" stroke-width="1.5" stroke-linecap="round" stroke-linejoin="round" stroke-miterlimit="22.926" x1="348.061" y1="642.466" x2="384.911" y2="642.466"/>
<line fill="none" stroke="#231F20" stroke-width="1.5" stroke-linecap="round" stroke-linejoin="round" stroke-miterlimit="22.926" x1="429.051" y1="658.056" x2="465.691" y2="658.056"/>
<line fill="none" stroke="#231F20" stroke-width="1.5" stroke-linecap="round" stroke-linejoin="round" stroke-miterlimit="22.926" x1="429.051" y1="642.466" x2="465.691" y2="642.466"/>
<line fill="none" stroke="#010101" stroke-width="1.5" stroke-linecap="round" stroke-linejoin="round" stroke-miterlimit="22.926" x1="388.061" y1="324.525" x2="424.91" y2="324.525"/>
<g>
	<defs>
		<rect id="SVGID_13_" x="384.204" y="663.596" width="10.5" height="10.5"/>
	</defs>
	<clipPath id="SVGID_14_">
		<use xlink:href="#SVGID_13_"  overflow="visible"/>
	</clipPath>
	
		<circle clip-path="url(#SVGID_14_)" fill="none" stroke="#010101" stroke-width="1.5" stroke-linecap="round" stroke-linejoin="round" stroke-miterlimit="22.926" cx="389.454" cy="668.846" r="4.5"/>
</g>
<g>
	<defs>
		<rect id="SVGID_15_" x="384.204" y="700.096" width="10.5" height="10.5"/>
	</defs>
	<clipPath id="SVGID_16_">
		<use xlink:href="#SVGID_15_"  overflow="visible"/>
	</clipPath>
	
		<circle clip-path="url(#SVGID_16_)" fill="none" stroke="#010101" stroke-width="1.5" stroke-linecap="round" stroke-linejoin="round" stroke-miterlimit="22.926" cx="389.454" cy="705.346" r="4.5"/>
</g>
<g>
	<defs>
		<rect id="SVGID_17_" x="278.25" y="700.846" width="10.5" height="10.5"/>
	</defs>
	<clipPath id="SVGID_18_">
		<use xlink:href="#SVGID_17_"  overflow="visible"/>
	</clipPath>
	
		<circle clip-path="url(#SVGID_18_)" fill="none" stroke="#010101" stroke-width="1.5" stroke-linecap="round" stroke-linejoin="round" stroke-miterlimit="22.926" cx="283.5" cy="706.096" r="4.5"/>
</g>
<g>
	<defs>
		<rect id="SVGID_19_" x="287.752" y="663.596" width="10.5" height="10.5"/>
	</defs>
	<clipPath id="SVGID_20_">
		<use xlink:href="#SVGID_19_"  overflow="visible"/>
	</clipPath>
	
		<circle clip-path="url(#SVGID_20_)" fill="none" stroke="#010101" stroke-width="1.5" stroke-linecap="round" stroke-linejoin="round" stroke-miterlimit="22.926" cx="293.002" cy="668.846" r="4.5"/>
</g>
<g>
	<defs>
		<rect id="SVGID_21_" x="419.25" y="663.596" width="10.5" height="10.5"/>
	</defs>
	<clipPath id="SVGID_22_">
		<use xlink:href="#SVGID_21_"  overflow="visible"/>
	</clipPath>
	
		<circle clip-path="url(#SVGID_22_)" fill="none" stroke="#010101" stroke-width="1.5" stroke-linecap="round" stroke-linejoin="round" stroke-miterlimit="22.926" cx="424.5" cy="668.846" r="4.5"/>
</g>
<g>
	<defs>
		<rect id="SVGID_23_" x="419.25" y="700.096" width="10.5" height="10.5"/>
	</defs>
	<clipPath id="SVGID_24_">
		<use xlink:href="#SVGID_23_"  overflow="visible"/>
	</clipPath>
	
		<circle clip-path="url(#SVGID_24_)" fill="none" stroke="#010101" stroke-width="1.5" stroke-linecap="round" stroke-linejoin="round" stroke-miterlimit="22.926" cx="424.5" cy="705.346" r="4.5"/>
</g>
<g>
	<defs>
		<rect id="SVGID_25_" x="525.204" y="700.846" width="10.5" height="10.5"/>
	</defs>
	<clipPath id="SVGID_26_">
		<use xlink:href="#SVGID_25_"  overflow="visible"/>
	</clipPath>
	
		<circle clip-path="url(#SVGID_26_)" fill="none" stroke="#010101" stroke-width="1.5" stroke-linecap="round" stroke-linejoin="round" stroke-miterlimit="22.926" cx="530.454" cy="706.096" r="4.5"/>
</g>
<g>
	<defs>
		<rect id="SVGID_27_" x="515.703" y="663.596" width="10.5" height="10.5"/>
	</defs>
	<clipPath id="SVGID_28_">
		<use xlink:href="#SVGID_27_"  overflow="visible"/>
	</clipPath>
	
		<circle clip-path="url(#SVGID_28_)" fill="none" stroke="#010101" stroke-width="1.5" stroke-linecap="round" stroke-linejoin="round" stroke-miterlimit="22.926" cx="520.953" cy="668.846" r="4.5"/>
</g>
<line fill="none" stroke="#231F20" stroke-width="1.5" stroke-linecap="round" stroke-linejoin="round" stroke-miterlimit="22.926" x1="274.58" y1="697.013" x2="398.952" y2="697.013"/>
<line fill="none" stroke="#231F20" stroke-width="1.5" stroke-linecap="round" stroke-linejoin="round" stroke-miterlimit="22.926" x1="414.991" y1="697.013" x2="538.2" y2="697.013"/>
<rect x="483.389" y="215.08" fill="none" stroke="#010101" stroke-width="1.5" stroke-linecap="round" stroke-linejoin="round" stroke-miterlimit="22.926" width="8.785" height="60.306"/>
<rect x="324.835" y="215.08" fill="none" stroke="#010101" stroke-width="1.5" stroke-linecap="round" stroke-linejoin="round" stroke-miterlimit="22.926" width="8.784" height="60.306"/>
<path d="M447.402,241.035c-0.525,1.557-1.706,2.894-3.307,3.319c-3.491,0.928-7.396-2.906-6.052-6.474
	c1.09-3.656,6.522-4.341,8.739-1.487C447.797,237.7,447.926,239.478,447.402,241.035"/>
<path fill="none" stroke="#000000" stroke-miterlimit="10" d="M447.402,241.035c-0.525,1.557-1.706,2.894-3.307,3.319
	c-3.491,0.928-7.396-2.906-6.052-6.474c1.09-3.656,6.522-4.341,8.739-1.487C447.797,237.7,447.926,239.478,447.402,241.035z"/>
<path fill="#FFFFFF" d="M440.662,237.141c0.492-0.37,1.192-0.478,1.718-0.127c0.726,0.483,0.823,1.581,0.229,2.207
	c-0.46,0.484-1.269,0.588-1.837,0.237c-0.377-0.234-0.622-0.654-0.676-1.091C440.033,237.865,440.262,237.442,440.662,237.141"/>
<path d="M376.732,243.576c-2.985,2.139-6.979,0.028-7.571-3.463c-0.769-4.525,5.567-7.035,8.476-3.66
	C379.39,238.489,378.933,241.998,376.732,243.576"/>
<path fill="none" stroke="#000000" stroke-miterlimit="10" d="M376.732,243.576c-2.985,2.139-6.979,0.028-7.571-3.463
	c-0.769-4.525,5.567-7.035,8.476-3.66C379.39,238.489,378.933,241.998,376.732,243.576z"/>
<path fill="#FFFFFF" d="M373.874,237.913c-0.186-0.671-0.88-1.178-1.798-0.926c-1.854,0.509-1.219,3.236,0.708,2.865
	C373.66,239.682,374.085,238.677,373.874,237.913"/>
<rect x="-13.436" y="0" fill="none" width="843.173" height="841.89"/>
</svg>
